M48
;Layer_Color=9474304
;FILE_FORMAT=2:5
INCH,LZ
;TYPE=PLATED
T1F00S00C0.00787
T2F00S00C0.01181
T3F00S00C0.02362
T4F00S00C0.02756
T5F00S00C0.03543
T6F00S00C0.04331
T7F00S00C0.10827
%
T01
X0120732Y0271071
Y0275402
Y0279732
Y0284063
Y0288394
X0125063
Y0284063
Y0279732
Y0275402
Y0271071
X0129393
Y0275402
Y0279732
Y0284063
Y0288394
X0133724
Y0284063
Y0279732
Y0275402
Y0271071
X0138055
Y0275402
Y0279732
Y0284063
Y0288394
T02
X0227559Y0137008
X0228346Y0151181
X0224016Y0152756
X0219291Y0159843
X024252Y0159843
X0248425Y0160236
X0251969Y0155512
X0261614Y0150984
X0266929Y0160236
X0262205Y0136417
X0243307Y013189
X0235039Y0151969
X0237402Y0183465
X0246277Y0188022
X0226378Y019685
X0214173Y0207087
X0197638Y020685
X0179921Y0205118
X0185827Y0183071
X0194702Y0187628
X019685Y0159843
X0190945Y0159449
X0200394Y0155118
X0210335Y0150787
X0210827Y0135728
X0191732Y0131496
X0175984Y0136614
X0177076Y015109
X0172835Y0151969
X0183465Y0151575
X0166929Y0159449
X0158079Y0150696
X0148031Y0154724
X0144488Y0159449
X0138583Y0159055
X0131102Y0151181
X0124612Y0150696
X0120542Y0151854
X0115354Y016063
X0106398Y0151772
X0096457Y0155905
X0092913Y016063
X0087008Y0160236
X0079527Y0152362
X0073032Y0151772
X0068967Y0152432
X0072047Y0137402
X0087795Y0132283
X0106693Y0137008
X0124016Y0136221
X013937Y0131102
X0158563Y0135827
X014234Y0187234
X0133465Y0182677
X0148031Y0205118
X0090765Y0188415
X008189Y0183858
X013189Y0223622
X0135433Y0220079
X0149606
X0147897Y0238787
X0154724Y0244052
X0169685Y0246063
Y0241339
X0172701Y0256504
X0164433Y0255716
X0158921Y0268315
X0146716Y0272449
X0150653Y028052
X0146323Y0287213
X0158661Y0286614
X0165748Y0294882
X0147897Y0304535
X0142582
X0145276Y0312598
X0140157Y0312992
X0136614Y0315748
X0132423Y0318364
X0126772Y0315354
X0123622Y0312992
X0120472Y031063
X0115748Y0310236
X011811Y0304331
X0111417Y0305906
X0115748Y0297441
X0125197Y0300984
X0105091Y0291937
X0104197Y0267921
X010459Y0262213
X0132149Y0262016
X0132543Y0258079
X0129393Y0254142
X0144354Y0261622
X019396Y0270677
X02Y024252
X0209842Y0252362
X0197531Y0222152
X0192413
X0192434Y0216472
X0197819Y0216746
X0174803Y0214961
X0178347Y0325984
X0183731Y0326259
X0183444Y0331664
X0178326
X014685Y0330709
Y0326772
X0087795Y0314961
X008202Y031483
X0072441Y0320866
X025748Y0336614
X0267323Y0334646
X0266535Y0267323
X0255512Y027559
Y0233858
X022824Y0248138
X0222855Y0247863
X0222835Y0253543
X0227953
X0221654Y0222835
T03
X0264173Y0294173
Y0304173
Y0314173
Y0324173
T04
X0216929Y0272835
X0224803
T05
X0072331Y0345709
Y0355709
X0082331
Y0345709
X0092331
Y0355709
X0102331
Y0345709
X0112331
Y0355709
X0122331
Y0345709
X0132331
Y0355709
X0142331
Y0345709
X0152331
Y0355709
X0162331
Y0345709
X0172331
Y0355709
X0182331
Y0345709
X0192331
Y0355709
X0202331
Y0345709
X0212331
Y0355709
X0222331
Y0345709
X0232331
X0242331
X0252331
X0262331
Y0355709
X0252331
X0242331
X0232331
T06
X0234882Y0117187
X0254882
X0203307Y0116793
X0183307
X0150945Y01164
X0130945
X009937Y0117581
X007937
X0098032Y0212835
Y0232835
T07
X0281504Y0157795
X0053158
Y0350709
X0281504
M30
