<?xml version="1.0" encoding="utf-8"?>
<!-- Generator: Adobe Illustrator 23.0.2, SVG Export Plug-In . SVG Version: 6.00 Build 0)  -->
<svg version="1.1" id="Layer_1" xmlns="http://www.w3.org/2000/svg" xmlns:xlink="http://www.w3.org/1999/xlink" x="0px" y="0px"
	 viewBox="0 0 5012.02 4819.71" style="enable-background:new 0 0 5012.02 4819.71;" xml:space="preserve">
<style type="text/css">
	.st0{fill:#FFFFFF;}
</style>
<g>
	<g>
		<path class="st0" d="M12.02,4471.15c0-1374.2,0-2748.4,0-4122.6c17.22-43.83,31.27-89.25,52.28-131.18
			C123.01,100.22,229.63,47.07,348.56,12.02c1442.31,0,2884.62,0,4326.92,0c26,8.73,52.33,16.62,77.96,26.34
			c144.4,54.74,219.81,167.26,258.58,310.2c0,1374.2,0,2748.4,0,4122.6c-30.67,123.56-86.31,231.73-205.39,290.14
			c-55.85,27.4-119.25,39.42-179.22,58.42c-1410.26,0-2820.51,0-4230.77,0c-41.95-10.78-85.14-18.16-125.64-32.93
			C123.14,4732.85,47.47,4618.13,12.02,4471.15z M3318.97,2701.04c0,536.45,0,1062.31,0,1590.81c15.6,2.18,29.1,5.74,42.59,5.7
			c186.14-0.48,372.43,2.66,558.35-4.18c82.87-3.05,166.85-19.73,247.06-41.99c145.28-40.32,220.07-146.61,220.58-297.39
			c0.28-84.07,1.43-168.18-0.7-252.2c-2.59-101.96-59.25-178.75-154.44-214.14c-18.94-7.04-38.47-12.47-62.36-20.12
			c174.04-73.98,205.73-122.43,205.66-308.02c-0.02-54.04,1.72-108.19-1.04-162.1c-4.51-87.81-43.57-161.51-119.43-203.32
			c-63.63-35.07-135.42-70.64-205.69-75.45c-205.25-14.06-411.54-12.96-617.43-17.5
			C3396.52,2700.36,3360.89,2701.04,3318.97,2701.04z M1968.33,2704.72c-3.57,9.04-6.23,12.64-6.23,16.24
			c-0.39,428.46-2.76,856.94,0.64,1285.37c0.94,118.26,66.46,204.78,176.63,249.44c190.03,77.03,387.07,74.72,584.5,37.57
			c217.66-40.96,300.77-143.06,301.08-363.56c0.55-388.44,0.11-776.89,0.09-1165.33c0-19.31,0-38.63,0-57.9
			c-121.3,0-234.01,0-350.46,0c0,35.43,0,65.34,0,95.26c0.02,372.43-0.08,744.85,0.18,1117.28c0.04,51.62-2.62,106.01-52.06,132.89
			c-79.82,43.4-167.18,42.29-248.96,6.8c-67.03-29.09-61.55-96.74-61.59-156.92c-0.28-366.42-0.08-732.84-0.03-1099.26
			c0-31.34,0-62.68,0-97.89C2192.83,2704.72,2081.54,2704.72,1968.33,2704.72z M1363.42,3269.4c109.21,0,212.76,1.15,316.19-1.83
			c10.02-0.29,27-25.84,27.62-40.23c2.92-67.95-0.87-136.18,1.68-204.16c5.16-137.26-58.62-232.63-181.85-282.09
			c-226.79-91.03-457.34-89.87-683.96,0.82c-122.03,48.83-179.01,148.07-180.28,279c-0.47,48.05,2.78,96.31-0.59,144.12
			c-9.8,138.99,46.72,240.07,168.66,305.47c33.44,17.93,66.85,36.18,101.49,51.55c113.33,50.28,228.57,96.43,340.48,149.63
			c104.6,49.72,141.04,286.01,59.82,369.04c-10.8,11.04-25.5,23.09-39.74,25.09c-52.66,7.4-107.18,20.42-158.62,13.54
			c-91.22-12.21-124.83-59.76-125.34-152.51c-0.4-73.29-0.08-146.58-0.08-219.64c-120,0-230.71,0-343.42,0
			c0,106.52-5.22,208.63,1.34,309.99c8,123.64,75.09,211.42,193.8,248.83c232.04,73.12,465.7,76.3,693.16-15.79
			c91.73-37.14,150.86-112.2,155.52-217.45c3.54-79.93-1.04-160.38,5.42-239.99c12.02-148.31-57.09-244.97-185.42-305.13
			c-112.2-52.6-226.11-101.54-339.27-152.11c-181.37-81.06-186.89-89.84-181.06-288.22c0.12-4,0.25-8,0.34-12.01
			c1.34-59.8,33.21-99.14,88.2-114.52c35.8-10.01,75-11.8,112.54-10.97c108.86,2.42,152.24,47.38,153.26,154.91
			C1363.93,3130.38,1363.42,3196,1363.42,3269.4z M1641.99,521.73c-71.82,0-139.2,0-212.29,0
			c-90.08,339.47-180.58,680.48-271.07,1021.48c-5.51-0.9-11.02-1.79-16.53-2.69c-16.33-59.38-33.29-118.6-48.9-178.17
			c-68.88-262.87-136.95-525.95-206.86-788.55c-5.33-20.02-21.38-51.35-34.78-52.61c-60.61-5.71-122.06-2.5-182.85-2.5
			c0,594.53,0,1179.88,0,1767.9c66.61,0,127.88,0,199.64,0c0-358.22,0-713.15,0-1068.08c16.17,5.96,21.38,12.35,23.24,19.6
			c63.57,247.63,128.83,494.86,188.38,743.46c11.68,48.75,38.08,44.76,72.37,47.21c39.12,2.8,61.8-5.99,72.28-49.34
			c46-190.24,95.17-379.72,143.63-569.37c16.68-65.28,34.66-130.24,52.05-195.34c5.84,1.25,11.68,2.51,17.52,3.76
			c0,354.74,0,709.48,0,1066.73c70.72,0,135.67,0,204.17,0C1641.99,1697.23,1641.99,1113.27,1641.99,521.73z M2769.49,522.44
			c-1.61,17.46-4.28,33.01-4.29,48.56c-0.51,554.76-0.46,1109.52-1.69,1664.27c-0.09,41.32,12.41,56.11,55.21,54.71
			c93.95-3.08,188.08-0.74,282.13-1.29c142.24-0.84,270.55-33.03,327.74-181.3c21.7-56.26,29.21-120.65,30.54-181.6
			c3.9-178.16,1.65-356.47,1.4-534.72c-0.27-188.25,2.97-376.62-2.74-564.72c-5.18-170.65-96.93-283.42-260.51-300.82
			C3057.33,510.63,2914.54,522.44,2769.49,522.44z M3680.24,513.19c0,598.69,0,1185.51,0,1769.33c142.69,0,280.95,5.37,418.57-1.71
			c108.54-5.59,197.5-57.78,234.8-165.73c21.78-63.03,37.1-131.65,37.93-197.98c3.9-312.28,1.85-624.63,1.74-936.96
			c-0.02-50.05,1.12-100.21-1.77-150.11c-8.68-149.83-97.47-282.04-218.55-295.34C3997.03,517.56,3839.02,519.52,3680.24,513.19z
			 M1862.39,520.96c-1.66,11.52-4.21,20.99-4.21,30.46c-0.07,472.38-1.63,944.77,1.7,1417.13c0.63,89.49,16.6,180.89,84.97,249.79
			c107.82,108.67,242.71,97.73,376.93,78.7c97.22-13.78,166.72-73.28,198.46-163.14c22.13-62.65,31.94-132.69,32.27-199.51
			c2.19-446.33,0.34-892.69-0.18-1339.04c-0.03-23.72,0-47.44,0-73.63c-71.25,0-140.1,0-216.46,0c0,27.04,0,50.5,0,73.97
			c0.01,398.35,0.1,796.69-0.08,1195.04c-0.02,54.03,1.61,108.32-2.98,162.03c-5.74,67.2-49.87,108.83-111.4,112.64
			c-70.52,4.36-120.28-30.27-134.49-98.58c-7.25-34.85-9.82-71.24-9.87-106.95c-0.56-420.37-0.25-840.73-0.16-1261.1
			c0.01-25.19,0-50.38,0-77.82C1999.85,520.96,1932.46,520.96,1862.39,520.96z"/>
		<path d="M12.02,4471.15c35.45,146.98,111.12,261.69,258.98,315.62c40.5,14.77,83.69,22.16,125.64,32.93
			c-128.21,0-256.41,0-384.62,0C12.02,4703.53,12.02,4587.34,12.02,4471.15z"/>
		<path d="M4627.4,4819.71c59.98-18.99,123.37-31.02,179.22-58.42c119.08-58.41,174.72-166.58,205.39-290.14
			c0,116.19,0,232.37,0,348.56C4883.81,4819.71,4755.61,4819.71,4627.4,4819.71z"/>
		<path d="M348.56,12.02C229.63,47.07,123.01,100.22,64.3,217.38c-21.01,41.93-35.05,87.35-52.28,131.18c0-111.19,0-222.37,0-336.54
			C124.18,12.02,236.37,12.02,348.56,12.02z"/>
		<path d="M5012.02,348.56c-38.77-142.93-114.17-255.46-258.58-310.2c-25.63-9.72-51.96-17.61-77.96-26.34
			c112.18,0,224.36,0,336.54,0C5012.02,124.2,5012.02,236.38,5012.02,348.56z"/>
		<path d="M3318.97,2701.04c41.92,0,77.55-0.67,113.15,0.11c205.89,4.54,412.18,3.44,617.43,17.5
			c70.27,4.81,142.06,40.39,205.69,75.45c75.86,41.81,114.92,115.51,119.43,203.32c2.77,53.91,1.02,108.06,1.04,162.1
			c0.06,185.59-31.62,234.04-205.66,308.02c23.89,7.66,43.42,13.08,62.36,20.12c95.19,35.39,151.85,112.18,154.44,214.14
			c2.13,84.02,0.99,168.13,0.7,252.2c-0.51,150.78-75.3,257.07-220.58,297.39c-80.21,22.26-164.19,38.94-247.06,41.99
			c-185.92,6.83-372.21,3.7-558.35,4.18c-13.49,0.03-26.99-3.52-42.59-5.7C3318.97,3763.35,3318.97,3237.48,3318.97,2701.04z
			 M3668.75,4064.78c90.52,0,174.5,5.16,257.52-1.51c77.15-6.19,110.83-51.22,111.46-129.26c0.6-74.01,1.07-148.04-0.25-222.03
			c-1.26-70.77-29.71-113.19-99.7-119.88c-88.08-8.41-177.57-2.03-269.03-2.03C3668.75,3747.31,3668.75,3904.65,3668.75,4064.78z
			 M3670.02,2934.71c0,142.92,0,279.94,0,418.06c85.43,0,167.24,4.77,248.21-1.45c69.51-5.34,105.73-51.66,107.42-121.48
			c1.4-57.93,1.47-115.96-0.16-173.88c-1.91-67.79-35.71-113.84-102.31-119.54C3840.49,2929.32,3756.74,2934.71,3670.02,2934.71z"/>
		<path d="M1968.33,2704.72c113.21,0,224.51,0,343.77,0c0,35.21,0,66.55,0,97.89c-0.04,366.42-0.25,732.84,0.03,1099.26
			c0.05,60.18-5.44,127.82,61.59,156.92c81.78,35.49,169.14,36.59,248.96-6.8c49.44-26.88,52.1-81.28,52.06-132.89
			c-0.26-372.43-0.16-744.85-0.18-1117.28c0-29.92,0-59.83,0-95.26c116.45,0,229.15,0,350.46,0c0,19.27,0,38.58,0,57.9
			c0.02,388.44,0.46,776.89-0.09,1165.33c-0.31,220.5-83.42,322.6-301.08,363.56c-197.43,37.16-394.47,39.46-584.5-37.57
			c-110.17-44.66-175.69-131.18-176.63-249.44c-3.4-428.43-1.03-856.91-0.64-1285.37
			C1962.1,2717.36,1964.76,2713.76,1968.33,2704.72z"/>
		<path d="M1363.42,3269.4c0-73.4,0.51-139.02-0.12-204.63c-1.03-107.52-44.41-152.49-153.26-154.91
			c-37.54-0.83-76.73,0.96-112.54,10.97c-55,15.38-86.86,54.72-88.2,114.52c-0.09,4-0.23,8-0.34,12.01
			c-5.82,198.38-0.31,207.16,181.06,288.22c113.15,50.57,227.07,99.51,339.27,152.11c128.32,60.15,197.44,156.82,185.42,305.13
			c-6.45,79.61-1.88,160.06-5.42,239.99c-4.66,105.24-63.79,180.31-155.52,217.45c-227.46,92.09-461.12,88.92-693.16,15.79
			c-118.71-37.41-185.8-125.19-193.8-248.83c-6.56-101.35-1.34-203.47-1.34-309.99c112.72,0,223.42,0,343.42,0
			c0,73.05-0.32,146.35,0.08,219.64c0.51,92.75,34.12,140.3,125.34,152.51c51.44,6.88,105.96-6.14,158.62-13.54
			c14.24-2,28.94-14.05,39.74-25.09c81.22-83.03,44.78-319.32-59.82-369.04c-111.91-53.2-227.16-99.35-340.48-149.63
			c-34.64-15.37-68.05-33.61-101.49-51.55c-121.94-65.4-178.46-166.48-168.66-305.47c3.37-47.82,0.13-96.07,0.59-144.12
			c1.28-130.93,58.25-230.17,180.28-279c226.62-90.69,457.16-91.85,683.96-0.82c123.23,49.46,187.02,144.83,181.85,282.09
			c-2.56,67.98,1.23,136.21-1.68,204.16c-0.62,14.39-17.6,39.94-27.62,40.23C1576.18,3270.56,1472.62,3269.4,1363.42,3269.4z"/>
		<path d="M1641.99,521.73c0,591.55,0,1175.51,0,1763.51c-68.51,0-133.45,0-204.17,0c0-357.24,0-711.99,0-1066.73
			c-5.84-1.25-11.68-2.51-17.52-3.76c-17.39,65.1-35.36,130.06-52.05,195.34c-48.46,189.64-97.63,379.12-143.63,569.37
			c-10.48,43.35-33.16,52.14-72.28,49.34c-34.29-2.45-60.69,1.53-72.37-47.21c-59.55-248.6-124.81-495.83-188.38-743.46
			c-1.86-7.25-7.08-13.64-23.24-19.6c0,354.93,0,709.86,0,1068.08c-71.77,0-133.04,0-199.64,0c0-588.02,0-1173.37,0-1767.9
			c60.78,0,122.23-3.21,182.85,2.5c13.4,1.26,29.46,32.59,34.78,52.61c69.91,262.59,137.98,525.68,206.86,788.55
			c15.61,59.57,32.56,118.79,48.9,178.17c5.51,0.9,11.02,1.79,16.53,2.69c90.49-341.01,180.98-682.01,271.07-1021.48
			C1502.79,521.73,1570.17,521.73,1641.99,521.73z"/>
		<path d="M2769.49,522.44c145.05,0,287.84-11.81,427.79,3.08c163.58,17.4,255.33,130.17,260.51,300.82
			c5.71,188.09,2.47,376.47,2.74,564.72c0.26,178.25,2.5,356.55-1.4,534.72c-1.33,60.96-8.84,125.35-30.54,181.6
			c-57.19,148.28-185.5,180.47-327.74,181.3c-94.05,0.55-188.17-1.79-282.13,1.29c-42.8,1.41-55.3-13.39-55.21-54.71
			c1.23-554.76,1.18-1109.51,1.69-1664.27C2765.21,555.44,2767.88,539.89,2769.49,522.44z M2979.68,764.99c0,27.79,0,49.36,0,70.92
			c-0.01,206.16-0.05,412.33-0.01,618.49c0.03,176.14-0.41,352.28,1.07,528.41c0.16,19.57,5.61,49.68,18.59,56.86
			c97.76,54.09,240.84-15.81,242.95-129.3c6.34-340.05,4.56-680.36-0.84-1020.46c-1.45-91.24-49.31-122.99-142.82-124.81
			C3062.7,764.4,3026.77,764.99,2979.68,764.99z"/>
		<path d="M3680.24,513.19c158.78,6.33,316.8,4.37,472.71,21.5c121.09,13.3,209.87,145.51,218.55,295.34
			c2.89,49.91,1.76,100.07,1.77,150.11c0.1,312.33,2.16,624.68-1.74,936.96c-0.83,66.32-16.15,134.95-37.93,197.98
			c-37.3,107.95-126.26,160.14-234.8,165.73c-137.62,7.08-275.88,1.71-418.57,1.71C3680.24,1698.7,3680.24,1111.89,3680.24,513.19z
			 M3891.93,1405.31c0,194.08-0.94,388.17,1.47,582.21c0.24,19.14,18.41,52.33,32.54,54.83c158.82,28.11,223.37-25.25,231.56-185.85
			c0.71-13.97,0.34-28,0.35-42.01c0.05-254.1,0.57-508.2-0.25-762.3c-0.19-57.9-2.8-116.01-8.34-173.63
			c-6.99-72.66-49.98-110.77-122.21-113.36c-23.98-0.86-48.26,1.88-71.97-0.85c-50.46-5.81-64.67,15.71-64.07,64.74
			C3893.36,1021.14,3891.96,1213.23,3891.93,1405.31z"/>
		<path d="M1862.39,520.96c70.07,0,137.46,0,214.5,0c0,27.44,0,52.63,0,77.82c-0.08,420.37-0.4,840.73,0.16,1261.1
			c0.05,35.7,2.62,72.09,9.87,106.95c14.21,68.31,63.98,102.94,134.49,98.58c61.53-3.81,105.65-45.44,111.4-112.64
			c4.59-53.7,2.96-108,2.98-162.03c0.18-398.35,0.09-796.69,0.08-1195.04c0-23.46,0-46.93,0-73.97c76.36,0,145.21,0,216.46,0
			c0,26.2-0.02,49.91,0,73.63c0.53,446.35,2.37,892.7,0.18,1339.04c-0.33,66.81-10.14,136.85-32.27,199.51
			c-31.73,89.86-101.24,149.36-198.46,163.14c-134.22,19.03-269.11,29.97-376.93-78.7c-68.37-68.91-84.34-160.3-84.97-249.79
			c-3.33-472.36-1.77-944.75-1.7-1417.13C1858.18,541.95,1860.73,532.48,1862.39,520.96z"/>
		<path class="st0" d="M3668.75,4064.78c0-160.13,0-317.47,0-474.69c91.46,0,180.95-6.38,269.03,2.03
			c69.99,6.68,98.43,49.11,99.7,119.88c1.32,73.99,0.85,148.02,0.25,222.03c-0.63,78.04-34.31,123.06-111.46,129.26
			C3843.25,4069.94,3759.27,4064.78,3668.75,4064.78z"/>
		<path class="st0" d="M3670.02,2934.71c86.71,0,170.47-5.39,253.15,1.7c66.6,5.71,100.4,51.75,102.31,119.54
			c1.63,57.92,1.57,115.95,0.16,173.88c-1.69,69.82-37.92,116.13-107.42,121.48c-80.97,6.23-162.78,1.45-248.21,1.45
			C3670.02,3214.65,3670.02,3077.63,3670.02,2934.71z"/>
		<path class="st0" d="M2979.68,764.99c47.1,0,83.03-0.59,118.93,0.11c93.51,1.82,141.37,33.57,142.82,124.81
			c5.4,340.1,7.18,680.41,0.84,1020.46c-2.12,113.49-145.19,183.39-242.95,129.3c-12.98-7.18-18.42-37.3-18.59-56.86
			c-1.47-176.13-1.03-352.27-1.07-528.41c-0.04-206.16,0.01-412.33,0.01-618.49C2979.68,814.35,2979.68,792.78,2979.68,764.99z"/>
		<path class="st0" d="M3891.94,1405.31c0.02-192.08,1.42-384.17-0.95-576.22c-0.6-49.03,13.61-70.55,64.07-64.74
			c23.71,2.73,47.99-0.01,71.97,0.85c72.23,2.59,115.22,40.7,122.21,113.36c5.54,57.62,8.16,115.73,8.34,173.63
			c0.83,254.1,0.3,508.2,0.25,762.3c0,14,0.37,28.04-0.35,42.01c-8.2,160.61-72.74,213.97-231.56,185.85
			c-14.13-2.5-32.3-35.69-32.54-54.83C3890.99,1793.47,3891.93,1599.39,3891.94,1405.31z"/>
	</g>
</g>
</svg>
