<?xml version="1.0" encoding="utf-8"?>
<!-- Generator: Adobe Illustrator 23.0.2, SVG Export Plug-In . SVG Version: 6.00 Build 0)  -->
<svg version="1.1" id="Layer_1" xmlns="http://www.w3.org/2000/svg" xmlns:xlink="http://www.w3.org/1999/xlink" x="0px" y="0px"
	 viewBox="0 0 5000 5000" style="enable-background:new 0 0 5000 5000;" xml:space="preserve">
<style type="text/css">
	.st0{fill:#FFFFFF;}
</style>
<g>
	<g>
		<path d="M4627.4,4915.87c-1410.26,0-2820.51,0-4230.77,0c-60-19.01-123.46-30.99-179.29-58.47
			c-118.86-58.52-174.87-166.41-205.32-290.08c0-1374.2,0-2748.4,0-4122.6c17.22-43.83,31.27-89.25,52.28-131.18
			c58.71-117.16,165.34-170.3,284.26-205.36c1442.31,0,2884.62,0,4326.92,0c26,8.73,52.33,16.62,77.96,26.34
			c144.4,54.74,219.81,167.26,258.58,310.2c0,1374.2,0,2748.4,0,4122.6c-30.46,123.67-86.46,231.57-205.32,290.08
			C4750.87,4884.88,4687.41,4896.86,4627.4,4915.87z M4169.87,3562.98c171.23-69.46,205.86-121.67,205.86-302.56
			c0-50.04,0.59-100.1-0.3-150.12c-1.83-102.45-47.64-179.26-135.99-231.3c-92.1-54.25-193.16-77.41-298.19-79.14
			c-194.11-3.19-388.29-2.14-582.45-2.29c-13.04-0.01-26.08,4.71-39.3,7.26c0,529.65,0,1055.43,0,1583.62
			c16.21,2.06,29.76,5.28,43.32,5.29c168.14,0.11,336.48,4.66,504.33-2.35c98.95-4.14,199.21-18.62,295.16-43.05
			c149.36-38.03,224.65-145.91,225.29-299.45c0.26-62.05,0.18-124.1,0.16-186.16C4387.68,3676.1,4350.19,3623.71,4169.87,3562.98z
			 M2674.56,2801.09c0,32.67,0,60.32,0,87.98c0.02,374.43-0.09,748.86,0.2,1123.28c0.04,53.65-2.04,110.3-54.63,137.5
			c-80.34,41.54-168.08,41.16-249.15,3.7c-65.6-30.31-58.83-98.56-58.87-158.63c-0.22-368.42,0-736.84,0.08-1105.27
			c0.01-29,0-58.01,0-89.16c-121.65,0-232.86,0-343.88,0c-3.05,8.75-6.62,14.22-6.62,19.7c-0.22,428.47-2.43,856.96,1.37,1285.39
			c1.03,115.75,66.83,199.34,173.5,245.56c161.33,69.9,331.41,68.4,501.74,52.75c55.28-5.08,110.95-17.65,163.82-34.84
			c149.41-48.58,220.71-141.67,221.62-298.17c2.4-410.46,1.08-820.93,1.03-1231.4c0-11.61-2.45-23.21-4.17-38.4
			C2907.16,2801.09,2796.05,2801.09,2674.56,2801.09z M662.8,3801.79c0,92.53-1.08,182.08,0.24,271.6
			c2.23,151.01,66.13,248.59,210.73,292.97c225.92,69.33,454.39,70.73,676.16-18.32c92.18-37.02,153.04-110,158.87-214.93
			c4.65-83.85-0.2-168.29,5.84-251.99c10.16-140.76-55.34-234.11-176.54-292.18c-113.53-54.4-229.51-103.68-344.36-155.34
			c-187.1-84.16-194.25-95.76-184.66-297.93c3.25-68.61,43.38-115.55,112.95-126.45c31.36-4.91,63.95-4.63,95.82-3.16
			c101.17,4.68,144,49.31,145.36,150.68c0.91,67.39,0.17,134.81,0.17,208.92c108.83,0,210.5,1.4,312.02-1.93
			c11.48-0.38,30.84-26.92,31.61-42.09c3.43-67.9-0.52-136.14,1.84-204.14c4.77-137.48-60.25-232-183.5-280.98
			c-227.01-90.23-457.64-89.04-683.96,2.25c-121.87,49.16-177.95,149.26-178.62,280.12c-0.3,58.06,0.89,116.14-0.14,174.19
			c-1.9,106.6,39.16,191.16,129.54,248.35c45.44,28.75,93.14,54.73,142.06,77.04c112.79,51.43,228.37,96.89,340.14,150.36
			c103.99,49.75,138.99,288.54,57.16,369.49c-11,10.88-25.88,22.33-40.3,24.44c-50.75,7.45-103.27,20.25-152.95,13.95
			c-93.78-11.9-128.9-60.15-129.36-155.54c-0.35-73.17-0.07-146.35-0.07-219.39C888.99,3801.79,779.62,3801.79,662.8,3801.79z
			 M1642.2,617.83c-74.84,0-142.07,0-212.61,0c-90.71,342.18-180.85,682.22-271,1022.26c-5.8-0.58-11.6-1.16-17.4-1.74
			c-33.26-127.15-66.5-254.3-99.8-381.44c-51.65-197.18-102.7-394.52-156.08-591.22c-5.16-19.02-23.69-47.28-38.15-48.65
			c-58.78-5.56-118.39-2.31-178.51-2.31c0,593.52,0,1178.88,0,1767.77c66.65,0,128.03,0,199.32,0c0-358,0-713.32,0-1068.64
			c16.21,5.33,21.68,11.46,23.49,18.53c62.96,245.71,127.36,491.08,186.66,737.68c11.1,46.14,30.59,55.22,72.38,55.44
			c41.53,0.21,64.07-7.9,75.07-53.9c48.79-203.97,101.68-406.96,153.54-610.19c12.83-50.28,27.35-100.13,41.09-150.17
			c5.89,0.9,11.79,1.8,17.68,2.69c0,355.66,0,711.32,0,1065.23c73.51,0,138.41,0,204.31,0
			C1642.2,1790.46,1642.2,1206.48,1642.2,617.83z M2768.56,618.56c0,587.88,0,1173.27,0,1761.44c137.29,0,270.97,3.71,404.35-1.08
			c125.27-4.49,218.65-66.25,260.63-186.53c18.68-53.51,24.81-113.47,25.81-170.69c3.17-180.18,1.43-360.45,1.18-540.68
			c-0.27-186.23,2.98-372.58-2.74-558.65c-5.24-170.5-97.14-283.41-260.59-300.75C3057.26,606.79,2914.5,618.56,2768.56,618.56z
			 M3678.52,2376.93c149.8,0,297.39,1.78,444.86-1.47c30.07-0.66,61.04-17.56,89.33-31.54c119.63-59.13,153.17-169.56,158.54-289.21
			c6.09-135.85,2.09-272.16,2.05-408.27c-0.07-234.19,1.48-468.41-1.4-702.57c-1.98-160.14-92.68-298.75-219.2-313.01
			c-155.77-17.56-313.78-15.18-474.17-21.55C3678.52,1207.03,3678.52,1792.45,3678.52,2376.93z M2076.86,618.64
			c-77.21,0-145.86,0-217.18,0c0,11.84-0.01,19.67,0,27.5c0.57,466.36,1.01,932.71,1.97,1399.07c0.07,31.93,1.87,64.19,6.58,95.73
			c22.46,150.22,105.3,240.69,249.59,257.37c70.35,8.13,143.66,0.75,214.51-8.3c75.66-9.66,139-53.31,167.01-122.48
			c28.54-70.48,51.81-148.82,52.45-223.93c3.76-438.29,0.19-876.65-0.88-1314.98c-0.09-37.02-0.01-74.03-0.01-111.19
			c-72.33,0-139.6,0-215.05,0c0,26.53,0,49.92,0,73.3c0.01,398.34,0.08,796.67-0.05,1195.01c-0.02,52.04,1.19,104.22-2.16,156.08
			c-4.59,70.94-48.08,115.82-110.88,119.81c-73.14,4.65-122.21-30.73-137.14-102.9c-6.41-31-8.61-63.37-8.65-95.12
			c-0.46-420.35-0.19-840.71-0.11-1261.06C2076.87,676.72,2076.86,650.89,2076.86,618.64z"/>
		<path class="st0" d="M12.02,4567.31c30.46,123.67,86.46,231.57,205.32,290.08c55.83,27.49,119.29,39.47,179.29,58.47
			c-128.21,0-256.41,0-384.62,0C12.02,4799.68,12.02,4683.49,12.02,4567.31z"/>
		<path class="st0" d="M4627.4,4915.87c60-19.01,123.46-30.99,179.29-58.47c118.86-58.52,174.87-166.41,205.32-290.08
			c0,116.19,0,232.37,0,348.56C4883.81,4915.87,4755.61,4915.87,4627.4,4915.87z"/>
		<path class="st0" d="M348.56,108.17c-118.92,35.06-225.55,88.2-284.26,205.36c-21.01,41.93-35.05,87.35-52.28,131.18
			c0-111.19,0-222.37,0-336.54C124.18,108.17,236.37,108.17,348.56,108.17z"/>
		<path class="st0" d="M5012.02,444.71c-38.77-142.94-114.18-255.46-258.58-310.2c-25.63-9.72-51.96-17.61-77.96-26.34
			c112.18,0,224.36,0,336.54,0C5012.02,220.35,5012.02,332.53,5012.02,444.71z"/>
		<path class="st0" d="M4169.87,3562.98c180.32,60.73,217.81,113.12,217.89,299.76c0.03,62.05,0.1,124.1-0.16,186.16
			c-0.64,153.54-75.93,261.42-225.29,299.45c-95.95,24.43-196.21,38.91-295.16,43.05c-167.85,7.02-336.2,2.46-504.33,2.35
			c-13.55-0.01-27.11-3.23-43.32-5.29c0-528.19,0-1053.97,0-1583.62c13.22-2.55,26.26-7.27,39.3-7.26
			c194.15,0.15,388.34-0.9,582.45,2.29c105.03,1.73,206.09,24.89,298.19,79.14c88.34,52.04,134.16,128.84,135.99,231.3
			c0.89,50.03,0.3,100.08,0.3,150.12C4375.73,3441.31,4341.1,3493.52,4169.87,3562.98z M3669.27,4160.29
			c90.69,0,176.55,5.16,261.47-1.59c71.07-5.65,105.87-51.2,106.86-121.03c1.08-76,1.17-152.03-0.06-228.03
			c-1.2-73.99-29.67-115.14-104.14-122.41c-86.25-8.42-173.96-1.96-264.12-1.96C3669.27,3842.36,3669.27,3999.72,3669.27,4160.29z
			 M3669.68,3448.89c85.94,0,167.78,4.79,248.77-1.46c69.37-5.35,105.55-51.81,107.21-121.65c1.38-57.93,1.47-115.96-0.18-173.89
			c-1.93-67.71-35.85-113.69-102.51-119.37c-82.67-7.05-166.39-1.69-253.29-1.69C3669.68,3169.19,3669.68,3306.18,3669.68,3448.89z"
			/>
		<path class="st0" d="M2674.56,2801.09c121.49,0,232.6,0,346.05,0c1.71,15.18,4.17,26.79,4.17,38.4
			c0.05,410.47,1.36,820.95-1.03,1231.4c-0.91,156.5-72.22,249.59-221.62,298.17c-52.87,17.19-108.55,29.76-163.82,34.84
			c-170.33,15.65-340.41,17.15-501.74-52.75c-106.67-46.22-172.48-129.81-173.5-245.56c-3.79-428.44-1.59-856.93-1.37-1285.39
			c0-5.48,3.57-10.95,6.62-19.7c111.02,0,222.23,0,343.88,0c0,31.16,0,60.16,0,89.16c-0.07,368.42-0.3,736.84-0.08,1105.27
			c0.04,60.06-6.73,128.32,58.87,158.63c81.07,37.46,168.81,37.84,249.15-3.7c52.6-27.2,54.68-83.85,54.63-137.5
			c-0.29-374.43-0.18-748.86-0.2-1123.28C2674.56,2861.41,2674.56,2833.76,2674.56,2801.09z"/>
		<path class="st0" d="M662.8,3801.79c116.82,0,226.19,0,346.08,0c0,73.05-0.28,146.22,0.07,219.39
			c0.46,95.39,35.58,143.64,129.36,155.54c49.68,6.3,102.19-6.5,152.95-13.95c14.41-2.12,29.3-13.56,40.3-24.44
			c81.83-80.95,46.83-319.73-57.16-369.49c-111.77-53.48-227.35-98.93-340.14-150.36c-48.92-22.31-96.62-48.29-142.06-77.04
			c-90.38-57.19-131.44-141.75-129.54-248.35c1.04-58.04-0.16-116.13,0.14-174.19c0.67-130.86,56.75-230.97,178.62-280.12
			c226.33-91.29,456.95-92.48,683.96-2.25c123.25,48.98,188.27,143.5,183.5,280.98c-2.36,67.99,1.59,136.24-1.84,204.14
			c-0.77,15.17-20.12,41.71-31.61,42.09c-101.52,3.33-203.19,1.93-312.02,1.93c0-74.11,0.73-141.52-0.17-208.92
			c-1.36-101.37-44.2-146-145.36-150.68c-31.87-1.47-64.46-1.76-95.82,3.16c-69.58,10.9-109.7,57.84-112.95,126.45
			c-9.59,202.17-2.45,213.77,184.66,297.93c114.85,51.66,230.83,100.94,344.36,155.34c121.19,58.07,186.7,151.42,176.54,292.18
			c-6.04,83.7-1.19,168.14-5.84,251.99c-5.82,104.93-66.68,177.91-158.87,214.93c-221.78,89.05-450.24,87.66-676.16,18.32
			c-144.6-44.38-208.5-141.96-210.73-292.97C661.72,3983.87,662.8,3894.32,662.8,3801.79z"/>
		<path class="st0" d="M1642.2,617.83c0,588.65,0,1172.64,0,1761.32c-65.9,0-130.8,0-204.31,0c0-353.91,0-709.57,0-1065.23
			c-5.89-0.9-11.79-1.8-17.68-2.69c-13.74,50.05-28.26,99.89-41.09,150.17c-51.86,203.23-104.75,406.22-153.54,610.19
			c-11,46-33.54,54.12-75.07,53.9c-41.79-0.22-61.28-9.3-72.38-55.44c-59.3-246.6-123.7-491.97-186.66-737.68
			c-1.81-7.07-7.29-13.19-23.49-18.53c0,355.32,0,710.64,0,1068.64c-71.29,0-132.67,0-199.32,0c0-588.89,0-1174.25,0-1767.77
			c60.11,0,119.73-3.25,178.51,2.31c14.46,1.37,32.99,29.63,38.15,48.65c53.38,196.71,104.43,394.05,156.08,591.22
			c33.3,127.14,66.54,254.29,99.8,381.44c5.8,0.58,11.6,1.16,17.4,1.74c90.14-340.04,180.29-680.08,271-1022.26
			C1500.13,617.83,1567.36,617.83,1642.2,617.83z"/>
		<path class="st0" d="M2768.56,618.56c145.94,0,288.7-11.77,428.64,3.07c163.45,17.34,255.35,130.25,260.59,300.75
			c5.72,186.07,2.48,372.42,2.74,558.65c0.26,180.23,1.99,360.5-1.18,540.68c-1.01,57.22-7.14,117.18-25.81,170.69
			c-41.98,120.28-135.36,182.03-260.63,186.53c-133.37,4.79-267.05,1.08-404.35,1.08
			C2768.56,1791.83,2768.56,1206.44,2768.56,618.56z M2979.65,861.04c0,110.87-0.02,212.72,0,314.57
			c0.08,300.26-0.26,600.53,1.19,900.78c0.1,20.82,7.85,54.2,21.63,60.38c120.42,54.06,242.45-22.67,243.63-157.41
			c2.81-322.24,1.91-644.55-1.32-966.8c-1.13-112.45-45.01-150.04-155.49-151.46C3055.61,860.67,3021.92,861.04,2979.65,861.04z"/>
		<path class="st0" d="M3678.52,2376.93c0-584.48,0-1169.9,0-1767.61c160.39,6.37,318.4,3.99,474.17,21.55
			c126.52,14.26,217.22,152.87,219.2,313.01c2.89,234.16,1.33,468.37,1.4,702.57c0.04,136.11,4.05,272.42-2.05,408.27
			c-5.36,119.65-38.91,230.08-158.54,289.21c-28.29,13.98-59.26,30.88-89.33,31.54C3975.91,2378.71,3828.32,2376.93,3678.52,2376.93
			z M3891.93,1501.47c0,194.09-0.94,388.2,1.47,582.26c0.24,19.12,18.47,52.29,32.59,54.78c160.95,28.3,227.09-28.03,231.86-191.91
			c0.29-10,0.01-20.01,0.01-30.01c0.03-248.12,0.62-496.24-0.28-744.35c-0.24-65.91-2.71-132.01-8.35-197.66
			c-6.24-72.57-49.5-110.6-122.14-113.21c-23.98-0.86-48.27,1.87-71.97-0.85c-50.4-5.79-64.73,15.6-64.12,64.7
			C3893.37,1117.27,3891.96,1309.38,3891.93,1501.47z"/>
		<path class="st0" d="M2076.86,618.64c0,32.25,0,58.07,0,83.9c-0.08,420.35-0.35,840.71,0.11,1261.06
			c0.03,31.75,2.24,64.12,8.65,95.12c14.93,72.17,64.01,107.55,137.14,102.9c62.8-4,106.29-48.87,110.88-119.81
			c3.36-51.86,2.15-104.04,2.16-156.08c0.13-398.34,0.06-796.67,0.05-1195.01c0-23.38,0-46.77,0-73.3c75.44,0,142.72,0,215.05,0
			c0,37.16-0.08,74.18,0.01,111.19c1.07,438.33,4.64,876.69,0.88,1314.98c-0.64,75.11-23.91,153.45-52.45,223.93
			c-28.01,69.17-91.35,112.82-167.01,122.48c-70.86,9.05-144.17,16.43-214.51,8.3c-144.29-16.68-227.14-107.15-249.59-257.37
			c-4.72-31.55-6.52-63.8-6.58-95.73c-0.97-466.36-1.41-932.71-1.97-1399.07c-0.01-7.83,0-15.66,0-27.5
			C1931,618.64,1999.65,618.64,2076.86,618.64z"/>
		<path d="M3669.27,4160.29c0-160.57,0-317.92,0-475.02c90.16,0,177.87-6.46,264.12,1.96c74.47,7.27,102.94,48.43,104.14,122.41
			c1.23,75.99,1.14,152.03,0.06,228.03c-0.99,69.84-35.79,115.38-106.86,121.03C3845.82,4165.45,3759.96,4160.29,3669.27,4160.29z"
			/>
		<path d="M3669.68,3448.89c0-142.7,0-279.69,0-418.06c86.89,0,170.62-5.36,253.29,1.69c66.66,5.69,100.58,51.67,102.51,119.37
			c1.65,57.92,1.56,115.95,0.18,173.89c-1.67,69.84-37.85,116.29-107.21,121.65C3837.45,3453.68,3755.62,3448.89,3669.68,3448.89z"
			/>
		<path d="M2979.65,861.04c42.27,0,75.96-0.37,109.64,0.07c110.49,1.42,154.37,39.01,155.49,151.46
			c3.23,322.25,4.13,644.56,1.32,966.8c-1.18,134.74-123.21,211.47-243.63,157.41c-13.78-6.19-21.53-39.56-21.63-60.38
			c-1.45-300.26-1.12-600.52-1.19-900.78C2979.63,1073.76,2979.65,971.91,2979.65,861.04z"/>
		<path d="M3891.94,1501.47c0.02-192.09,1.42-384.2-0.95-576.27c-0.61-49.1,13.72-70.49,64.12-64.7
			c23.71,2.72,47.99-0.01,71.97,0.85c72.64,2.61,115.91,40.64,122.14,113.21c5.64,65.65,8.12,131.75,8.35,197.66
			c0.9,248.11,0.31,496.23,0.28,744.35c0,10,0.28,20.02-0.01,30.01c-4.77,163.89-70.91,220.22-231.86,191.91
			c-14.13-2.48-32.36-35.66-32.59-54.78C3890.99,1889.67,3891.93,1695.56,3891.94,1501.47z"/>
	</g>
</g>
</svg>
