<?xml version="1.0" encoding="utf-8"?>
<!-- Generator: Adobe Illustrator 23.0.2, SVG Export Plug-In . SVG Version: 6.00 Build 0)  -->
<svg version="1.1" id="Layer_1" xmlns="http://www.w3.org/2000/svg" xmlns:xlink="http://www.w3.org/1999/xlink" x="0px" y="0px"
	 viewBox="0 0 4776.04 3572.48" style="enable-background:new 0 0 4776.04 3572.48;" xml:space="preserve">
<style type="text/css">
	.st0{fill:#FFFFFF;}
</style>
<g>
	<g>
		<path d="M4858.34,3652.91c-1642.6,0-3285.21,0-4927.81,0c0-1228.67,0-2457.33,0-3686c1642.6,0,3285.2,0,4927.81,0
			C4858.34,1195.57,4858.34,2424.24,4858.34,3652.91z M3670.03,2904.44c0,0,0.42,0.27,0.42,0.27c-6.1-1.32-12.18-3.73-18.29-3.78
			c-38.7-0.35-77.4-0.18-118.36-0.18c0-57.23,0-113.22,0-169.21c-29.43,0-56.56,0-84.69,0c-0.32,6.34-0.82,11.7-0.84,17.07
			c-0.42,122.6-1.26,245.19-0.83,367.79c0.1,28.73,1.84,57.99,7.5,86.06c12.59,62.48,46.18,109.34,109.07,130.51
			c44.71,15.05,90.33,15.99,136.82,9.45c69.53-9.78,118.61-44.13,141.99-112.02c18.87-54.81,17.71-111.21,11.31-167.35
			c-4.05-35.51-18.36-68.94-40.81-96.93c-26.16-32.62-62.89-49.58-103.13-58.32C3697.17,2904.97,3683.43,2905.47,3670.03,2904.44z
			 M3056.68,2286.27c172.99,0,345.99,0.13,518.98-0.15c23.87-0.04,47.77-1.55,71.6-3.22c54.13-3.78,105.16-19.71,154.27-41.86
			c69.11-31.17,127.7-76.41,174.87-135.81c31.92-40.2,55.77-84.79,70.92-134.19c14.68-47.89,19.76-96.26,16.41-146.26
			c-3.17-47.2-13.24-92.01-32.78-135.14c-25.48-56.24-59.85-105.83-107.27-145.47c-24.26-20.28-49.28-40.22-76.22-56.62
			c-86.08-52.4-181.39-71.89-280.92-71.71c-367.22,0.65-734.45,1.88-1101.67,3.23c-72.05,0.27-144.11,1.55-216.15,3.34
			c-52.15,1.3-104.28,3.87-156.38,6.53c-29.17,1.49-58.35,3.59-87.38,6.74c-43.86,4.76-87.61,10.61-131.39,16.13
			c-34.69,4.38-69.55,7.81-103.99,13.72c-64.41,11.05-128.8,22.46-192.77,35.79c-86.92,18.11-173.84,36.53-260.03,57.81
			c-91.29,22.55-181.79,48.36-272.5,73.22c-75.49,20.68-149.4,45.49-217.93,84.42c-27.7,15.74-52.95,34.64-70.93,60.62
			c-44.85,64.79-26.7,143.79,43.22,193.82c50.73,36.3,107.8,59.32,165.22,81.71c67.24,26.22,134.51,52.42,202.27,77.24
			c58.18,21.32,116.19,44,175.9,60.03c67.6,18.14,136.81,30.64,205.71,43.48c50.64,9.44,101.82,16.23,152.94,22.75
			c36.4,4.64,73.1,6.94,109.68,10.15c50.6,4.44,101.16,9.32,151.82,12.93c42.76,3.05,85.62,4.92,128.46,6.63
			c40.28,1.6,80.6,3.38,120.89,3.2c95.05-0.43,190.09-2.67,285.13-2.92C2683.32,2285.92,2870,2286.27,3056.68,2286.27z
			 M2240.02,1380.81c276.53,0,551.8,0,827.87,0c0-102.1,0.36-200.58-0.56-299.04c-0.09-9.64-6.24-20.65-12.65-28.53
			c-19.91-24.48-48.13-31.51-78.08-31.65c-88.13-0.39-176.25-0.14-264.38-0.14c-5.83,0-11.67,0-16.19,0
			c-1.58-2.3-2.14-2.73-2.14-3.16c-0.19-93.59-0.41-187.18-0.23-280.78c0.01-4.2,2.55-9.94,5.83-12.33
			c23.69-17.26,31.29-40.98,30.13-69.03c-1.25-30.01-14.78-51.86-41.47-65.66c-25.87-13.37-51.44-13.09-76.51,1.79
			c-49.17,29.18-53.28,95.7-10.21,131.37c8.16,6.76,10.01,13.5,9.98,23.09c-0.26,85.39-0.15,170.78-0.15,256.17
			c0,5.81,0,11.61,0,18.52c-8,0-13.93,0-19.86,0c-87.58,0-175.17-0.71-262.73,0.58c-18.13,0.27-37,5.86-54.01,12.75
			c-23.17,9.39-35.24,27.23-34.98,54.3c0.9,92.5,0.34,185.01,0.34,277.52C2240.02,1372.55,2240.02,1378.49,2240.02,1380.81z
			 M1628.97,2730.42c0,7.8,0,13.78,0,19.76c0,124.76-0.57,249.52,0.33,374.26c0.29,39.75,4.19,79.6,19.57,117.03
			c20.31,49.4,56.71,81.46,107.95,95.92c48.18,13.59,97.04,13.87,145.81,3.34c59.4-12.83,103.58-46.03,123.4-104.13
			c25.04-73.42,25.55-148.4,0.13-222.11c-13.32-38.64-37.6-68.92-75.64-88.15c-36.68-18.55-75.72-23.59-115.39-25.39
			c-37.51-1.7-75.15-0.37-114.49-0.37c0-57.74,0-113.75,0-170.17C1689.53,2730.42,1660.19,2730.42,1628.97,2730.42z
			 M1568.91,3126.27c-2.98-26.81-3.69-54.11-9.38-80.34c-13.29-61.31-45.64-107.47-107.85-129.36
			c-50.88-17.9-102.59-19.01-154.2-8.74c-65.95,13.12-111.55,53.34-130.91,117.66c-18.45,61.29-18.64,124.81-3.43,186.91
			c16.01,65.35,56.22,109.47,123.45,126.52c48.74,12.36,97.72,12.27,146.04,1c48.55-11.32,86.87-38.45,109.37-84.62
			C1561.82,3214.63,1568.24,3171.35,1568.91,3126.27z M2491.12,3125.74c-1.56-20.54-2.44-41.17-4.83-61.61
			c-4.71-40.35-19.16-77.01-47.05-106.95c-44.56-47.85-103.89-55.89-164.5-55.79c-24.23,0.04-48.87,6.37-72.59,12.63
			c-51.92,13.68-87.71,47.24-106.36,96.99c-24.05,64.16-22.91,130.87-9.45,196.6c12.2,59.57,45.52,104.93,105.66,125.65
			c54.07,18.63,109.45,19.37,164.41,6.44c49.23-11.58,87.94-39.03,109.98-86.39C2485.21,3212.86,2492.25,3170.22,2491.12,3125.74z
			 M2556.46,3215.79c-7.69,52.68,26.61,102.13,82.51,118.59c47.83,14.08,96.67,15.93,145.96,8.65c27.84-4.11,54.42-11.44,77.37-28.5
			c43.71-32.49,50.72-77.98,43.76-127.63c-5.9-42.04-30.79-71.33-69.73-84.64c-29.31-10.02-60.99-13.46-91.84-18.51
			c-24.03-3.93-48.69-4.32-72.51-9.07c-25.89-5.16-35.08-20.8-30.77-46.28c3.56-21.06,20.24-29.68,37.64-30.83
			c34.64-2.29,69.68-2.54,104.29-0.06c21.28,1.52,38.35,13.45,39.02,39.93c24.2,0,47.65,0.05,71.1-0.04
			c4.28-0.02,8.55-0.6,12.64-0.91c5.94-39.89-12.29-75.2-40.27-95.7c-25.72-18.85-54.18-28.57-86.43-31.58
			c-41.83-3.9-83.46-6.16-124.13,4.37c-48.78,12.64-88.18,37.98-98.32,92.23c-2.87,15.36-2.33,31.55-1.82,47.32
			c1.23,38.21,18.84,67.35,51.1,87.72c29.66,18.73,63.55,21.98,97.08,26.22c29.25,3.7,58.7,5.89,87.83,10.33
			c22.24,3.39,31.24,15.65,31.01,37.22c-0.34,31.65-19.98,40.27-52.42,42.42c-23.93,1.58-48.13-1.07-72.09,0.28
			c-30.25,1.7-50.85-11.72-58.53-41.52C2611.9,3215.79,2584.68,3215.79,2556.46,3215.79z M828.01,1666.52
			c8.78-2.98,14.81-4.79,20.67-7.06c39.3-15.17,78.04-32.01,117.96-45.27c54.46-18.09,109.76-33.68,164.83-49.89
			c13.12-3.86,17.47-9.88,12.82-23.75c-9.26-27.61-17.07-55.7-25.42-83.61c-11.6-38.78-25.66-77.05-33.98-116.53
			c-7.66-36.33-31.53-61.51-68.59-61.85c-37.74-0.34-75.64,2.08-113.19-0.67c-39.96-2.93-76.45,27.53-75.62,75.36
			c1.69,97.89,0.51,195.82,0.51,293.73C828.01,1652.4,828.01,1657.8,828.01,1666.52z M830.4,2038.82c-1.31,2.68-2.13,3.59-2.14,4.51
			c-0.12,106.69-0.89,213.39,0.13,320.08c0.37,38.9,30.25,64.7,69.69,64.73c40.49,0.03,80.98,0.14,121.47-0.06
			c25.83-0.13,45.38-11.94,56.43-35.02c5.5-11.49,7-24.86,10.75-37.24c17.73-58.44,35.27-116.94,53.74-175.15
			c3.73-11.75,1.19-16.4-10.04-20.32c-22.42-7.84-44.29-17.23-66.48-25.74c-51.99-19.95-104.26-39.16-155.94-59.88
			C881.92,2064.25,856.87,2051.16,830.4,2038.82z M3054.77,2906.66c-21.94,0-42.06-0.06-62.18,0.02
			c-20.99,0.08-23.92,2.88-23.94,23.55c-0.07,66.76-0.62,133.52,0.28,200.26c0.33,24.44,2.01,49.29,6.95,73.15
			c10.25,49.45,34.98,89.54,80.09,116.16c34.45,20.32,71.88,25.16,110.3,26.54c47.48,1.7,93.76-5.59,134.14-31.71
			c46.83-30.29,70.46-78.05,73.47-131.08c5.01-88.32,3.12-177.05,3.48-265.6c0.02-3.73-6.41-10.58-10.03-10.72
			c-24.96-0.95-49.96-0.5-76.58-0.5c0,44.94,0.53,88.03-0.15,131.11c-0.7,44.72,0.97,89.88-4.85,134
			c-6.42,48.74-24.95,72.84-81.04,80.81c-17.61,2.5-35.58,2.58-53.39,3.52c-43.06,2.26-77.94-24.72-85.66-56.36
			c-5.88-24.08-9.95-49.17-10.41-73.89C3053.9,3053.75,3054.77,2981.55,3054.77,2906.66z M985.09,3346.75c0-7.78,0-13.76,0-19.73
			c0-88.13-0.01-176.25,0.01-264.38c0-28.02,13.88-49.49,41.17-56.43c28.93-7.36,58.79-11.09,89.37-16.61c0-28.11,0-57.91,0-89.65
			c-10.49,1.4-19.94,3.93-29.32,3.7c-36.18-0.91-70.87,6.81-103.7,20.47c-36.36,15.13-66.51,39.25-77.82,78.89
			c-6.56,23.01-10.83,47.44-11.2,71.31c-1.31,84.82-0.51,169.68-0.51,254.52c0,5.81,0,11.62,0,17.93
			C924.47,3346.75,953.81,3346.75,985.09,3346.75z M3156.91,616.42c-5.38-28.11-9.16-56.64-16.49-84.24
			c-12.52-47.12-30.57-92.23-57.48-133.31c-27.66-42.23-60.03-80.34-98.71-112.96c-11.84-9.99-32.58-10.15-41.54-0.07
			c-11.63,13.08-11.29,34.94,1.79,44.74c26.61,19.96,48.79,44,69.43,69.94c53.49,67.23,81.09,144.2,89.91,229
			c1.04,9.97,7.97,20.36,14.86,28.19c2.89,3.29,15.9,3.23,18.9-0.13C3147.59,646.39,3161.77,635.64,3156.91,616.42z M2147.57,630.41
			c0,2.19,0.01,4.37,0,6.56c-0.14,21.88,9.65,35.02,26.56,35.63c15.55,0.56,24.36-11.16,26.16-34.31
			c1.23-15.71,1.77-31.58,4.42-47.07c17.32-101.43,64.38-186.44,142.07-254.2c11.57-10.09,15.09-27.26,7.36-38.48
			c-8.71-12.66-26.24-16.92-38.67-5.12c-25.59,24.28-51.21,49.18-72.66,77.03C2184.01,446.79,2153.4,534.26,2147.57,630.41z
			 M3029.17,626.84c-0.04-0.56-0.14-4.39-0.6-8.18c-11.18-92.5-55.82-166.87-124.16-228.23c-11.29-10.13-33.97-8.14-43.21,2.72
			c-8.79,10.33-5.46,31.28,6.74,41.53c32.93,27.68,61.05,59.26,79.92,98.34c16.12,33.38,25.28,68.68,30.02,105.4
			c2.71,21.01,13.32,29.78,30.24,27.69C3022.17,664.38,3029.63,651.66,3029.17,626.84z M2273.06,637.05c0,7.67-0.62,12.15,0.12,16.4
			c2.32,13.32,24.2,29.93,31.92,24.01c11.49-8.82,20.99-18.53,21.5-35.47c0.53-17.72,3.57-35.69,8.05-52.89
			c16.27-62.37,50.61-113.62,98.52-156.3c14.04-12.51,14.92-26.75,3.8-38.28c-10.75-11.15-26.36-11.07-39.4,0.55
			c-9.35,8.34-18.73,16.7-27.45,25.67C2310.66,481.93,2279.62,555.78,2273.06,637.05z M2401.76,648.32
			c-0.75,15.36,10.88,30.7,24.37,32.2c13.57,1.51,26.85-11.44,27.89-28.29c2.12-34.25,14.09-64.73,35.1-91.49
			c9.01-11.48,20.28-21.16,29.75-32.31c10.74-12.66,10.36-24.48,0.09-35.06c-10.57-10.89-23.5-12.25-35.05-2.55
			C2434.88,531.95,2405.28,583.35,2401.76,648.32z M2902.23,637.78c-2.51-12.23-4.16-24.72-7.69-36.66
			c-12.96-43.88-36.83-80.73-72.8-109.38c-9.89-7.88-20.61-9.78-31.83-2.9c-11.33,6.95-14.85,18.36-11.44,29.84
			c2.26,7.62,9.56,13.9,15.12,20.34c8.07,9.36,17.01,17.98,24.84,27.53c19.32,23.53,26.56,51.94,32,81.09
			c3.01,16.12,21.71,30.85,31.22,23.97C2892.45,663.78,2905.38,655.26,2902.23,637.78z M3373.91,2903.04
			c0.26-0.34,0.53-0.68,0.79-1.02c-26.94,0-53.88,0-80.81,0c0,0.34,0,0.68,0,1.02C3320.56,2903.04,3347.24,2903.04,3373.91,2903.04z
			 M3048.96,2903.08c0-0.41,0-0.81,0-1.22c-26,0-52,0-78,0c0,0.41,0,0.81,0.01,1.22
			C2996.96,2903.08,3022.96,2903.08,3048.96,2903.08z M2632.45,3211.97c0.51-0.29,1.02-0.58,1.52-0.86c-25.29,0-50.58,0-75.86,0
			c-0.01,0.29-0.01,0.58-0.02,0.86C2582.87,3211.97,2607.66,3211.97,2632.45,3211.97z"/>
		<path class="st0" d="M3056.68,2286.27c-186.68,0-373.36-0.35-560.04,0.15c-95.05,0.25-190.09,2.5-285.13,2.92
			c-40.29,0.18-80.61-1.59-120.89-3.2c-42.84-1.71-85.7-3.58-128.46-6.63c-50.66-3.61-101.22-8.49-151.82-12.93
			c-36.58-3.21-73.28-5.51-109.68-10.15c-51.12-6.52-102.3-13.32-152.94-22.75c-68.9-12.84-138.11-25.34-205.71-43.48
			c-59.71-16.02-117.72-38.71-175.9-60.03c-67.76-24.82-135.03-51.03-202.27-77.24c-57.42-22.39-114.49-45.4-165.22-81.71
			c-69.91-50.03-88.06-129.03-43.22-193.82c17.98-25.98,43.23-44.88,70.93-60.62c68.53-38.93,142.44-63.73,217.93-84.42
			c90.71-24.86,181.21-50.67,272.5-73.22c86.18-21.29,173.1-39.71,260.03-57.81c63.97-13.33,128.36-24.74,192.77-35.79
			c34.43-5.91,69.3-9.34,103.99-13.72c43.78-5.53,87.53-11.37,131.39-16.13c29.03-3.15,58.21-5.25,87.38-6.74
			c52.1-2.67,104.23-5.23,156.38-6.53c72.03-1.79,144.09-3.07,216.15-3.34c367.22-1.35,734.44-2.58,1101.67-3.23
			c99.53-0.18,194.84,19.31,280.92,71.71c26.93,16.4,51.95,36.34,76.22,56.62c47.42,39.64,81.79,89.23,107.27,145.47
			c19.53,43.12,29.61,87.94,32.78,135.14c3.36,50.01-1.72,98.37-16.41,146.26c-15.15,49.4-39,93.98-70.92,134.19
			c-47.16,59.4-105.76,104.64-174.87,135.81c-49.1,22.15-100.13,38.07-154.27,41.86c-23.83,1.66-47.73,3.18-71.6,3.22
			C3402.67,2286.4,3229.67,2286.27,3056.68,2286.27z"/>
		<path class="st0" d="M2240.02,1380.81c0-2.31,0-8.26,0-14.21c0-92.51,0.55-185.02-0.34-277.52c-0.26-27.07,11.81-44.91,34.98-54.3
			c17.01-6.89,35.88-12.49,54.01-12.75c87.56-1.29,175.15-0.58,262.73-0.58c5.93,0,11.86,0,19.86,0c0-6.91,0-12.71,0-18.52
			c0-85.39-0.11-170.78,0.15-256.17c0.03-9.59-1.82-16.33-9.98-23.09c-43.08-35.67-38.96-102.19,10.21-131.37
			c25.08-14.88,50.65-15.16,76.51-1.79c26.69,13.8,40.23,35.65,41.47,65.66c1.17,28.05-6.44,51.77-30.13,69.03
			c-3.28,2.39-5.82,8.13-5.83,12.33c-0.18,93.59,0.04,187.18,0.23,280.78c0,0.43,0.56,0.86,2.14,3.16c4.52,0,10.35,0,16.19,0
			c88.13,0,176.26-0.25,264.38,0.14c29.95,0.13,58.17,7.17,78.08,31.65c6.41,7.88,12.56,18.89,12.65,28.53
			c0.92,98.47,0.56,196.94,0.56,299.04C2791.82,1380.81,2516.55,1380.81,2240.02,1380.81z M2811.62,1294.12
			c54.92,3.79,91.52-42.46,91.56-87.03c0.04-52.5-39.56-89.43-89.91-89.78c-51.93-0.35-89.43,39.84-90.1,89.81
			C2722.59,1249.69,2761.29,1298.48,2811.62,1294.12z M2492.47,1294.12c47.41,5.33,89.85-43.71,89.89-84.44
			c0.06-54.73-41.36-93.41-88.78-92.16c-58.51,1.54-91.22,39.7-91.06,90.21C2402.67,1255.59,2441.52,1296.25,2492.47,1294.12z"/>
		<path class="st0" d="M1628.97,2730.42c31.22,0,60.56,0,91.68,0c0,56.41,0,112.43,0,170.17c39.34,0,76.98-1.34,114.49,0.37
			c39.66,1.8,78.71,6.84,115.39,25.39c38.04,19.24,62.32,49.52,75.64,88.15c25.42,73.7,24.91,148.69-0.13,222.11
			c-19.82,58.11-64,91.31-123.4,104.13c-48.77,10.53-97.63,10.26-145.81-3.34c-51.25-14.46-87.65-46.52-107.95-95.92
			c-15.38-37.43-19.28-77.28-19.57-117.03c-0.9-124.75-0.33-249.51-0.33-374.26C1628.97,2744.2,1628.97,2738.22,1628.97,2730.42z
			 M1724.31,2995.96c0,59.58-2.07,120.59,0.91,181.36c1.4,28.59,18.25,52.6,46.5,65.19c39.2,17.47,79.47,17.59,119.6,4.74
			c28.42-9.1,47.36-29.29,54.98-58.31c9.73-37.03,11.51-74.83,3.7-112.35c-11.42-54.84-37.93-75.01-79.97-79.44
			C1821.64,2992.05,1772.29,2995.96,1724.31,2995.96z"/>
		<path class="st0" d="M3670.03,2904.44c13.41,1.02,27.14,0.53,40.16,3.35c40.25,8.73,76.97,25.7,103.13,58.32
			c22.45,27.99,36.76,61.43,40.81,96.93c6.4,56.14,7.56,112.54-11.31,167.35c-23.38,67.89-72.47,102.24-141.99,112.02
			c-46.49,6.54-92.11,5.6-136.82-9.45c-62.89-21.17-96.48-68.03-109.07-130.51c-5.66-28.07-7.39-57.33-7.5-86.06
			c-0.43-122.59,0.4-245.19,0.83-367.79c0.02-5.36,0.51-10.73,0.84-17.07c28.13,0,55.26,0,84.69,0c0,56,0,111.98,0,169.21
			c40.96,0,79.66-0.17,118.36,0.18c6.11,0.05,12.19,2.46,18.25,3.75c-42.64-0.03-85.23-0.03-127.83-0.03
			c40.42,1.51,80.84,1.54,121.25,1.44C3665.89,2906.1,3667.96,2905.02,3670.03,2904.44z M3534.41,2994.52
			c0,22.49-0.54,45.35,0.12,68.18c1.11,37.99,0.51,76.28,5.34,113.84c3.66,28.45,16.36,53.46,46.56,66.87
			c36.53,16.21,72.68,14.94,110.35,7.21c33.41-6.86,55.72-26.43,65-57.9c13.27-45.04,12.98-91.12-0.39-136.35
			c-11.89-40.23-43.23-58.7-81.84-61.13C3632.23,2992.25,3584.58,2994.52,3534.41,2994.52z"/>
		<path class="st0" d="M1568.91,3126.27c-0.67,45.08-7.09,88.36-26.91,129.03c-22.5,46.17-60.82,73.3-109.37,84.62
			c-48.32,11.27-97.3,11.36-146.04-1c-67.23-17.05-107.44-61.17-123.45-126.52c-15.21-62.1-15.02-125.62,3.43-186.91
			c19.37-64.32,64.97-104.54,130.91-117.66c51.61-10.27,103.32-9.16,154.2,8.74c62.21,21.89,94.56,68.05,107.85,129.36
			C1565.22,3072.16,1565.94,3099.46,1568.91,3126.27z M1243.41,3125.2c1.51,16.14,1.46,32.61,4.85,48.34
			c7.59,35.27,23.58,64.37,61.82,75.19c30.83,8.72,62.02,9.78,92.84,2.66c37.08-8.56,60.27-31.42,68.84-70.04
			c7.65-34.47,8.47-68.73,2.3-102.92c-6.7-37.08-23.56-67.86-63.51-78.34c-27.26-7.16-55.22-10.36-83.01-3.83
			c-26.8,6.3-52.21,14.71-65.99,42.93C1248.12,3066.66,1243.91,3095.2,1243.41,3125.2z"/>
		<path class="st0" d="M2491.12,3125.74c1.14,44.48-5.91,87.12-24.73,127.57c-22.04,47.36-60.75,74.81-109.98,86.39
			c-54.97,12.93-110.35,12.19-164.41-6.44c-60.14-20.72-93.47-66.08-105.66-125.65c-13.46-65.73-14.6-132.44,9.45-196.6
			c18.65-49.75,54.44-83.31,106.36-96.99c23.72-6.25,48.36-12.58,72.59-12.63c60.61-0.1,119.94,7.93,164.5,55.79
			c27.88,29.94,42.33,66.6,47.05,106.95C2488.67,3084.57,2489.55,3105.19,2491.12,3125.74z M2402.67,3130.04
			c-1.95-20.04-2.04-35.93-5.25-51.16c-9.56-45.44-23.9-67.56-66.32-79.39c-26.14-7.29-53-8.31-79.88-3.49
			c-39.24,7.04-66.58,28.06-76.2,67.81c-9.37,38.71-10.3,77.57-1.11,116.88c8.35,35.73,27.39,59.03,63.8,68.74
			c30.6,8.16,60.63,7.77,91.06,1.04c35.06-7.75,56.51-30.16,65.1-64.01C2398.86,3166.81,2400.25,3146.23,2402.67,3130.04z"/>
		<path class="st0" d="M2556.46,3215.79c28.22,0,55.45,0,82.46,0c7.68,29.81,28.28,43.22,58.53,41.52
			c23.96-1.34,48.16,1.31,72.09-0.28c32.44-2.15,52.08-10.77,52.42-42.42c0.23-21.57-8.77-33.83-31.01-37.22
			c-29.12-4.44-58.58-6.63-87.83-10.33c-33.53-4.25-67.42-7.5-97.08-26.22c-32.26-20.37-49.87-49.51-51.1-87.72
			c-0.51-15.76-1.05-31.95,1.82-47.32c10.13-54.25,49.54-79.59,98.32-92.23c40.67-10.54,82.3-8.27,124.13-4.37
			c32.25,3.01,60.71,12.74,86.43,31.58c27.98,20.5,46.21,55.81,40.27,95.7c-4.09,0.31-8.37,0.89-12.64,0.91
			c-23.45,0.09-46.9,0.04-71.1,0.04c-0.67-26.47-17.74-38.4-39.02-39.93c-34.62-2.48-69.65-2.23-104.29,0.06
			c-17.4,1.15-34.09,9.78-37.64,30.83c-4.31,25.48,4.88,41.12,30.77,46.28c23.82,4.75,48.49,5.13,72.51,9.07
			c30.84,5.05,62.53,8.49,91.84,18.51c38.94,13.31,63.83,42.6,69.73,84.64c6.96,49.65-0.05,95.14-43.76,127.63
			c-22.95,17.06-49.53,24.39-77.37,28.5c-49.29,7.28-98.13,5.44-145.96-8.65C2583.06,3317.92,2548.77,3268.47,2556.46,3215.79z"/>
		<path class="st0" d="M828.01,1666.52c0-8.72,0-14.13,0-19.53c0-97.91,1.18-195.85-0.51-293.73
			c-0.83-47.83,35.66-78.29,75.62-75.36c37.54,2.75,75.45,0.33,113.19,0.67c37.05,0.34,60.93,25.52,68.59,61.85
			c8.33,39.48,22.38,77.75,33.98,116.53c8.35,27.91,16.16,56,25.42,83.61c4.65,13.87,0.3,19.88-12.82,23.75
			c-55.07,16.21-110.37,31.8-164.83,49.89c-39.93,13.27-78.67,30.11-117.96,45.27C842.82,1661.73,836.79,1663.54,828.01,1666.52z"/>
		<path class="st0" d="M830.4,2038.82c26.47,12.34,51.51,25.43,77.61,35.9c51.68,20.72,103.95,39.93,155.94,59.88
			c22.19,8.52,44.06,17.91,66.48,25.74c11.23,3.93,13.77,8.57,10.04,20.32c-18.47,58.21-36.01,116.71-53.74,175.15
			c-3.76,12.38-5.25,25.74-10.75,37.24c-11.05,23.08-30.6,34.89-56.43,35.02c-40.49,0.2-80.98,0.09-121.47,0.06
			c-39.44-0.03-69.31-25.83-69.69-64.73c-1.02-106.68-0.25-213.38-0.13-320.08C828.27,2042.41,829.1,2041.5,830.4,2038.82z"/>
		<path class="st0" d="M3054.77,2906.66c0,74.89-0.87,147.09,0.48,219.25c0.46,24.72,4.53,49.81,10.41,73.89
			c7.72,31.64,42.6,58.62,85.66,56.36c17.82-0.94,35.78-1.01,53.39-3.52c56.09-7.97,74.62-32.07,81.04-80.81
			c5.81-44.12,4.15-89.28,4.85-134c0.67-43.08,0.15-86.18,0.15-131.11c26.61,0,51.62-0.45,76.58,0.5
			c3.62,0.14,10.05,6.99,10.03,10.72c-0.36,88.56,1.54,177.28-3.48,265.6c-3.01,53.04-26.63,100.79-73.47,131.08
			c-40.38,26.12-86.66,33.41-134.14,31.71c-38.41-1.38-75.85-6.22-110.3-26.54c-45.11-26.61-69.83-66.7-80.09-116.16
			c-4.95-23.86-6.62-48.71-6.95-73.15c-0.91-66.74-0.35-133.51-0.28-200.26c0.02-20.67,2.95-23.47,23.94-23.55
			C3012.7,2906.6,3032.82,2906.66,3054.77,2906.66z"/>
		<path class="st0" d="M985.09,3346.75c-31.27,0-60.62,0-92.01,0c0-6.31,0-12.12,0-17.93c0-84.84-0.8-169.7,0.51-254.52
			c0.37-23.87,4.63-48.3,11.2-71.31c11.31-39.64,41.46-63.76,77.82-78.89c32.83-13.66,67.52-21.38,103.7-20.47
			c9.38,0.24,18.83-2.29,29.32-3.7c0,31.74,0,61.54,0,89.65c-30.58,5.52-60.44,9.25-89.37,16.61
			c-27.29,6.94-41.17,28.41-41.17,56.43c-0.01,88.13-0.01,176.25-0.01,264.38C985.09,3332.99,985.09,3338.97,985.09,3346.75z"/>
		<path class="st0" d="M3156.91,616.42c4.85,19.23-9.33,29.97-19.32,41.17c-3,3.36-16.01,3.42-18.9,0.13
			c-6.89-7.83-13.82-18.22-14.86-28.19c-8.82-84.8-36.42-161.77-89.91-229c-20.64-25.94-42.82-49.98-69.43-69.94
			c-13.08-9.81-13.42-31.66-1.79-44.74c8.96-10.08,29.69-9.92,41.54,0.07c38.68,32.61,71.05,70.73,98.71,112.96
			c26.91,41.08,44.97,86.19,57.48,133.31C3147.75,559.78,3151.54,588.31,3156.91,616.42z"/>
		<path class="st0" d="M2147.56,630.41c5.84-96.15,36.44-183.62,95.24-259.95c21.45-27.85,47.08-52.75,72.66-77.03
			c12.44-11.8,29.96-7.54,38.67,5.12c7.72,11.22,4.2,28.4-7.36,38.48c-77.7,67.75-124.75,152.76-142.07,254.2
			c-2.65,15.49-3.19,31.36-4.42,47.07c-1.81,23.15-10.61,34.86-26.16,34.31c-16.91-0.61-26.7-13.74-26.56-35.63
			C2147.58,634.79,2147.57,632.6,2147.56,630.41z"/>
		<path class="st0" d="M3029.17,626.84c0.46,24.82-7,37.54-21.06,39.27c-16.92,2.09-27.53-6.68-30.24-27.69
			c-4.74-36.72-13.89-72.02-30.02-105.4c-18.87-39.07-46.99-70.66-79.92-98.34c-12.2-10.25-15.53-31.21-6.74-41.53
			c9.25-10.87,31.93-12.86,43.21-2.72c68.34,61.35,112.98,135.73,124.16,228.23C3029.03,622.45,3029.13,626.28,3029.17,626.84z"/>
		<path class="st0" d="M2273.06,637.05c6.57-81.27,37.61-155.12,97.06-216.31c8.72-8.98,18.1-17.34,27.45-25.67
			c13.04-11.62,28.65-11.7,39.4-0.55c11.11,11.53,10.24,25.77-3.8,38.28c-47.92,42.68-82.25,93.94-98.52,156.3
			c-4.49,17.2-7.52,35.18-8.05,52.89c-0.5,16.94-10.01,26.65-21.5,35.47c-7.71,5.92-29.59-10.69-31.92-24.01
			C2272.43,649.21,2273.06,644.72,2273.06,637.05z"/>
		<path class="st0" d="M2401.76,648.32c3.52-64.96,33.12-116.37,82.14-157.5c11.56-9.7,24.48-8.34,35.05,2.55
			c10.27,10.58,10.66,22.4-0.09,35.06c-9.47,11.16-20.73,20.84-29.75,32.31c-21.01,26.76-32.98,57.24-35.1,91.49
			c-1.04,16.85-14.32,29.8-27.89,28.29C2412.65,679.02,2401.01,663.68,2401.76,648.32z"/>
		<path class="st0" d="M2902.23,637.78c3.15,17.49-9.78,26-20.57,33.82c-9.5,6.88-28.2-7.85-31.22-23.97
			c-5.45-29.15-12.69-57.55-32-81.09c-7.83-9.54-16.77-18.17-24.84-27.53c-5.55-6.44-12.85-12.72-15.12-20.34
			c-3.41-11.48,0.11-22.89,11.44-29.84c11.21-6.88,21.93-4.98,31.83,2.9c35.97,28.65,59.84,65.5,72.8,109.38
			C2898.07,613.05,2899.72,625.54,2902.23,637.78z"/>
		<path class="st0" d="M3373.91,2903.04c-26.67,0-53.35,0-80.02,0c0-0.34,0-0.68,0-1.02c26.94,0,53.88,0,80.81,0
			C3374.44,2902.36,3374.18,2902.7,3373.91,2903.04z"/>
		<path class="st0" d="M3048.96,2903.08c-26,0-52,0-78,0c0-0.41,0-0.81-0.01-1.22c26,0,52,0,78,0
			C3048.96,2902.27,3048.96,2902.67,3048.96,2903.08z"/>
		<path class="st0" d="M2632.45,3211.97c-24.79,0-49.57,0-74.36,0c0.01-0.29,0.01-0.58,0.02-0.86c25.29,0,50.58,0,75.86,0
			C2633.46,3211.39,2632.95,3211.68,2632.45,3211.97z"/>
		<path d="M2811.62,1294.12c-50.33,4.36-89.03-44.43-88.46-86.99c0.67-49.97,38.17-90.16,90.1-89.81
			c50.36,0.34,89.95,37.28,89.91,89.78C2903.14,1251.66,2866.54,1297.91,2811.62,1294.12z"/>
		<path d="M2492.47,1294.12c-50.95,2.13-89.8-38.53-89.95-86.4c-0.16-50.51,32.55-88.67,91.06-90.21
			c47.42-1.25,88.83,37.43,88.78,92.16C2582.31,1250.41,2539.88,1299.45,2492.47,1294.12z"/>
		<path d="M1724.31,2995.96c47.98,0,97.33-3.91,145.73,1.18c42.04,4.43,68.55,24.6,79.97,79.44c7.81,37.52,6.03,75.32-3.7,112.35
			c-7.62,29.02-26.57,49.21-54.98,58.31c-40.13,12.85-80.4,12.73-119.6-4.74c-28.25-12.59-45.1-36.61-46.5-65.19
			C1722.23,3116.56,1724.31,3055.54,1724.31,2995.96z"/>
		<path d="M3534.41,2994.52c50.17,0,97.82-2.27,145.15,0.71c38.61,2.43,69.95,20.91,81.84,61.13
			c13.37,45.23,13.66,91.31,0.39,136.35c-9.27,31.46-31.59,51.04-65,57.9c-37.67,7.74-73.82,9.01-110.35-7.21
			c-30.2-13.4-42.9-38.41-46.56-66.87c-4.83-37.56-4.24-75.84-5.34-113.84C3533.87,3039.87,3534.41,3017.01,3534.41,2994.52z"/>
		<path d="M3670.03,2904.44c-2.07,0.58-4.14,1.65-6.2,1.66c-40.42,0.1-80.83,0.07-121.25-1.44c42.6,0,85.19,0,127.83,0.03
			C3670.44,2904.72,3670.03,2904.44,3670.03,2904.44z"/>
		<path d="M1243.41,3125.2c0.51-29.99,4.71-58.53,18.13-86.01c13.79-28.22,39.19-36.63,65.99-42.93
			c27.78-6.53,55.75-3.32,83.01,3.83c39.95,10.49,56.82,41.27,63.51,78.34c6.17,34.18,5.35,68.44-2.3,102.92
			c-8.57,38.62-31.76,61.48-68.84,70.04c-30.82,7.11-62,6.06-92.84-2.66c-38.24-10.82-54.23-39.93-61.82-75.19
			C1244.87,3157.8,1244.92,3141.33,1243.41,3125.2z"/>
		<path d="M2402.67,3130.04c-2.42,16.19-3.81,36.77-8.8,56.43c-8.59,33.85-30.04,56.26-65.1,64.01
			c-30.43,6.73-60.47,7.12-91.06-1.04c-36.41-9.71-55.45-33.02-63.8-68.74c-9.19-39.31-8.26-78.17,1.11-116.88
			c9.62-39.76,36.96-60.77,76.2-67.81c26.88-4.82,53.74-3.81,79.88,3.49c42.42,11.83,56.77,33.95,66.32,79.39
			C2400.62,3094.11,2400.72,3110,2402.67,3130.04z"/>
	</g>
</g>
</svg>
