<?xml version="1.0" encoding="utf-8"?>
<!-- Generator: Adobe Illustrator 23.0.2, SVG Export Plug-In . SVG Version: 6.00 Build 0)  -->
<svg version="1.1" id="Layer_1" xmlns="http://www.w3.org/2000/svg" xmlns:xlink="http://www.w3.org/1999/xlink" x="0px" y="0px"
	 viewBox="0 0 4720.17 4017.92" style="enable-background:new 0 0 4720.17 4017.92;" xml:space="preserve">
<style type="text/css">
	.st0{fill:#FFFFFF;}
</style>
<g>
	<g>
		<path d="M4723.64,4024.5c-1572.99,0-3145.98,0-4720.17,0c0-1339.31,0-2678.61,0-4017.92c1572.92,0,3145.84,0,4720.17,0
			C4723.64,1347.84,4723.64,2686.17,4723.64,4024.5z M3251.1,2772.86c0-0.65,0-1.31,0-1.96c242.18,0,484.46,4.25,726.51-1.32
			c200.45-4.61,368.85-86.6,494.48-245.29c96.39-121.75,136.42-261.7,111.52-416.26c-30.5-189.32-138.56-324.89-302.53-417.9
			c-107.35-60.89-224.4-85.65-347.4-85.58c-491.09,0.26-982.19-0.91-1473.28,0.7c-157.6,0.52-315.5,3.07-472.67,13.58
			c-160.8,10.75-321.5,27.94-481.12,50.29c-264.08,36.98-523.74,96.9-781.35,165.47c-145.84,38.82-292.39,75.53-431.88,134.56
			c-60.19,25.47-118.18,55.01-162.84,104.93c-58.53,65.42-60.29,158.31-4.24,225.34c34.45,41.2,78.02,71.09,126.44,91.7
			c110.2,46.9,221.25,91.91,332.87,135.33c115.04,44.75,228.81,93.04,349.32,122.8c179.33,44.28,361.08,74.39,544.93,88.89
			c188.04,14.83,376.43,27.63,564.91,33.54c178.99,5.62,358.3,1.18,537.47,1.18C2805.19,2772.85,3028.15,2772.86,3251.1,2772.86z
			 M3239.59,1545.27c0-13.42,0-21.51,0-29.59c0-115.53,0-231.06,0-346.59c0-50.06-22.39-80.73-70.82-93.26
			c-16.91-4.38-35.04-5.52-52.62-5.59c-119.97-0.46-239.95-0.49-359.92,0.02c-16.63,0.07-23.21-3.83-23.08-22.19
			c0.81-121.45,0.18-242.91,0.91-364.36c0.05-8.79,4.82-20.34,11.38-25.85c45.89-38.55,52.23-107.54,12.6-150.48
			c-41.26-44.71-110.69-46.21-152.45-3.3c-41.75,42.89-39.49,110.91,6.45,149.98c11.06,9.4,13.99,18.67,13.95,32.02
			c-0.36,119.97-0.19,239.95-0.26,359.92c0,7.17-0.69,14.34-1.18,23.99c-17.13,0-32.5-0.02-47.86,0
			c-116.27,0.14-232.55-0.81-348.79,0.85c-68.97,0.98-104.35,39.46-104.35,107.55c-0.01,115.53,0,231.06,0,346.59
			c0,7.84,0,15.69,0,20.28C2496.61,1545.27,2866.55,1545.27,3239.59,1545.27z M1300.85,3057.6c0,8.29,0,14.15,0,20.01
			c0,174.06-0.68,348.12,0.59,522.17c0.25,33.72,5.11,68.1,12.98,100.95c20.98,87.59,74.05,147.34,162.64,170.41
			c63.88,16.64,128.82,16.47,193.33,1.77c91.28-20.81,146.2-78.99,170.83-167.82c15.88-57.28,15.97-115.76,11.36-174.22
			c-11.47-145.37-92.74-227.66-237.67-237.99c-57.49-4.1-115.43-1.84-173.16-2.55c-7.81-0.1-15.61-0.68-25.39-1.12
			c0-78.58,0-154.53,0-231.61C1377.51,3057.6,1340.8,3057.6,1300.85,3057.6z M3758.45,3059.55c0,9.83,0,18.5,0,27.16
			c0,169.56-0.74,339.13,0.6,508.69c0.28,35.79,4.72,72.36,13.2,107.12c20.34,83.39,70.58,141.1,155.44,164.39
			c56.13,15.41,113.07,16.47,170.64,8.65c93.29-12.68,160.19-58.46,191.79-149.65c24.51-70.73,26.92-143.62,15.63-216.51
			c-20-129.09-93.32-206.07-229.28-214.79c-58.93-3.78-118.16-2.79-177.26-3.92c-7.79-0.15-15.58-0.02-25.58-0.02
			c0-79.33,0-155.22,0-231.11C3834.57,3059.55,3797.8,3059.55,3758.45,3059.55z M1213.36,3596.76c-3.99-41.41-5.52-69.49-9.58-97.21
			c-15.31-104.65-76.44-174.35-174.22-198.08c-63.56-15.43-127.59-15.21-191.24,0.13c-78.51,18.92-133.45,65.54-159.51,142.47
			c-30.3,89.43-30.95,180.47-4.87,270.8c24.63,85.3,81.38,138.87,168.71,158.33c61.47,13.7,123.19,13.77,184.55-0.37
			c85.31-19.66,141.93-72.12,165.4-155.9C1204.64,3673.98,1208.09,3628.61,1213.36,3596.76z M2183.34,3886.68
			c0.19-1.89,0.37-3.79,0.56-5.68c16.25,0,32.56,0.94,48.74-0.15c104.22-7.01,180.32-65.79,210.19-165.5
			c26.34-87.91,25.51-176.86-2.09-264.37c-25.08-79.53-79.39-129.69-161.04-149.34c-62.23-14.98-124.72-15.18-186.97-1.36
			c-81.35,18.06-138.52,65.72-164.97,145.29c-31.27,94.06-31.11,189.58,0.33,283.41c24.11,71.96,74.3,120.53,148.66,139.67
			C2111.52,3877.59,2147.76,3880.84,2183.34,3886.68z M644.83,1790.9c-0.72-5.1-0.78-10.32-2.23-15.12
			c-16.2-53.55-33.02-106.91-48.84-160.57c-12.68-43.01-25.17-86.13-35.98-129.63c-10.42-41.94-41.81-69.91-87.29-67.95
			c-54.7,2.36-109.58,0.55-164.38,0.56c-60.05,0.02-90.51,30.68-90.54,91.43c-0.07,134.04-0.04,268.09,0.03,402.13
			c0,7.6,0.74,15.21,1.05,21.14c72.02-26.92,141.34-55.18,212.23-78.68C499.75,1830.71,572.21,1811.97,644.83,1790.9z
			 M2550.79,3708.19c-4.99,70.84,34.78,130.58,102.53,153.49c75.07,25.39,152.43,25.07,228.94,9.83
			c30.71-6.12,62.56-18.87,87.89-36.99c54.19-38.75,62.07-97.96,54.74-159.26c-6.38-53.39-34.16-95.54-84.4-115.19
			c-35.07-13.71-73.83-18.91-111.42-24.97c-39.93-6.44-80.68-7.84-120.59-14.36c-32.67-5.34-44.64-21.79-45.28-53
			c-0.55-26.91,13.62-46.13,42.02-54.94c52.55-16.31,105.62-16.2,158.62-2.44c25.72,6.67,46.03,19.71,47.65,50.04
			c38.58,0,75.9,0,113.03,0c6.77-62.97-34.15-125.28-98.19-147.5c-79.28-27.5-160.32-27.33-241.71-10.33
			c-42.13,8.8-79.66,25.95-105.82,62.18c-31.66,43.84-34.1,92.89-25.64,143.87c8.8,53.01,40.77,89.73,89.01,106.94
			c38.11,13.6,79.91,17.38,120.33,23.88c35.47,5.7,71.5,7.97,106.93,13.92c27.1,4.55,38.43,17.54,40.5,39.72
			c3.41,36.53-2.77,53.81-30.32,63.51c-60.98,21.48-123.31,22.1-183.86-1.03c-12.51-4.78-19.78-22.92-29.87-34.55
			c-4.12-4.75-9.21-12.09-14.05-12.25C2618.68,3707.68,2585.47,3708.19,2550.79,3708.19z M215.89,2444.94
			c0,147.94-0.82,295.89,0.52,443.83c0.39,42.61,37.51,74.56,80.75,74.83c59.2,0.37,118.4,0.32,177.59,0.01
			c39.61-0.2,71.58-26.71,81.4-64.98c9.68-37.73,20-75.32,31.03-112.68c16.81-56.97,34.48-113.69,52.49-172.86
			c-71.85-27.24-142.65-53.13-212.69-80.92C356.88,2504.37,287.53,2474.64,215.89,2444.94z M3662.1,3292.2
			c-40.46,0-77.78,0-116.58,0c0,9.54,0,17.59,0,25.63c0,91.85,0.33,183.69-0.24,275.54c-0.14,22.06-1.42,44.44-5.33,66.1
			c-9.74,54.01-38.51,93.54-95.21,102.56c-33.69,5.36-68.87,6.38-102.89,3.5c-58.98-5.01-96.6-39.35-109.35-96.34
			c-4.79-21.4-6.25-43.91-6.4-65.94c-0.66-95.55-0.29-191.1-0.29-286.65c0-7.94,0-15.87,0-24.64c-39.61,0-76.92,0-116.27,0
			c0,9.25,0,17.22,0,25.19c0,92.59-1.18,185.2,0.6,277.75c0.69,35.84,4.8,72.33,13.09,107.16
			c20.38,85.63,72.91,143.51,159.29,166.15c53.88,14.12,108.8,14.53,164.35,7.64c108.77-13.49,176.59-72.98,203.31-179.28
			c14.48-57.6,11.67-115.92,11.85-174.22C3662.28,3446.17,3662.1,3369.98,3662.1,3292.2z M603.41,3290.34
			c-58.97,1.26-114.07,5.35-167.03,24.51c-82.68,29.91-129.08,91.21-130.29,179.17c-1.7,123.59-0.46,247.22-1.11,370.83
			c-0.08,15.36,6.42,19.05,19.89,18.77c23.68-0.5,47.43-1.14,71.04,0.22c19.99,1.15,26.49-5.19,26.3-26.14
			c-1.06-116.2-0.76-232.42-0.39-348.64c0.17-52.36,18.64-78.59,69.46-91.41c30.45-7.68,62.59-8.83,94.05-12.2
			c9.16-0.98,18.2,0.4,18.12-13.02C603.28,3359.27,603.41,3326.12,603.41,3290.34z M1998.79,545.08c0-1.09-0.01,1.13,0,3.34
			c0.18,25.59,12.18,40.57,32.97,41.14c21.93,0.61,32.32-11.49,35.5-38.03c4.37-36.45,7.63-73.27,15.55-109.01
			c27.04-121.85,89.96-222.92,182.12-306.47c20.17-18.28,22.61-34.64,9.52-49.42c-13.59-15.35-36.11-14.35-55.11,1.17
			c-51.37,41.96-91.79,93.11-126.12,149.32C2036.1,330.67,2004.88,432.35,1998.79,545.08z M3359.86,512.68
			c-7.64-93.81-39.26-190.08-93.56-279.03c-37.25-61.02-84.32-113.48-139.66-158.37c-19.76-16.03-41.04-14.91-53.05-0.65
			c-13.54,16.07-9.65,31.9,10.14,51.79c30.59,30.75,62.89,60.34,89.77,94.15c72.59,91.3,110.23,196.8,118.65,312.93
			c1.72,23.7,15.78,35.74,39.37,34.32C3353.85,566.49,3361.19,554.95,3359.86,512.68z M2203.6,594.53
			c21.51-0.03,33.38-13.52,35.66-38.93c1.9-21.22,3.01-42.77,7.77-63.42c20.45-88.62,64.78-163.02,135.16-221.46
			c19.79-16.43,22.51-33.89,9.26-49.6c-13.02-15.43-36.87-17.45-53.14-2.02c-23.94,22.7-48.35,45.42-68.96,71.03
			c-61.29,76.18-92.05,164.81-101.2,261.54C2165.79,576.66,2180.21,594.56,2203.6,594.53z M3190.93,538.07
			c1.82-0.53,3.64-1.05,5.45-1.58c-13.58-46.43-23.94-94.12-41.47-139.02c-28.38-72.69-74.94-133.43-136.89-181.49
			c-15.31-11.88-43.16-9.2-52.62,2.99c-11.9,15.33-7.63,33.27,11.74,49.63c85.12,71.92,133.16,163.57,145.46,274.1
			c2.81,25.25,12.98,35.07,36.62,34.05C3181.61,575.79,3191.21,564.08,3190.93,538.07z M2377.08,598.99
			c20.61-0.06,33.78-11.36,35.06-34.36c3.66-65.79,33.03-117.81,81.5-160.8c20.8-18.45,22.43-34.93,7.43-51.29
			c-14.09-15.36-35.67-14.11-54.94,2.52c-62.93,54.29-95.88,123.76-104.5,205.55C2339.33,582.4,2355.06,599.06,2377.08,598.99z
			 M3020.85,550.01c-8.48-28.76-14.72-58.43-25.96-86.07c-18.24-44.85-46.06-83.84-85.67-112.69
			c-19.51-14.21-38.85-11.02-50.75,5.13c-11.14,15.12-8.95,30.76,8.91,46.47c46.77,41.11,74.25,92.03,82.31,153.84
			c2.87,22.02,16.38,31.13,38.92,28.81C3007.99,583.51,3017.57,572.08,3020.85,550.01z"/>
		<path class="st0" d="M4723.64,4024.5c0-1338.33,0-2676.66,0-4017.92c-1574.33,0-3147.25,0-4720.17,0c0.74-1.48,1.4-4.19,2.23-4.25
			c5.9-0.37,11.84-0.2,17.77-0.2c1568.2,0,3136.41,0,4704.61,0c0,1334.12,0.01,2668.24-0.18,4002.36
			C4727.9,4011.17,4725.12,4017.83,4723.64,4024.5z"/>
		<path class="st0" d="M3251.1,2772.86c-222.96,0-445.91,0-668.87,0c-179.17,0.01-358.48,4.44-537.47-1.18
			c-188.48-5.92-376.88-18.72-564.91-33.54c-183.85-14.5-365.59-44.6-544.93-88.89c-120.51-29.76-234.28-78.05-349.32-122.8
			c-111.62-43.42-222.67-88.43-332.87-135.33c-48.42-20.61-92-50.5-126.44-91.7c-56.05-67.04-54.29-159.93,4.24-225.34
			c44.66-49.92,102.66-79.46,162.84-104.93c139.49-59.04,286.04-95.75,431.88-134.56c257.61-68.57,517.27-128.49,781.35-165.47
			c159.63-22.35,320.32-39.54,481.12-50.29c157.17-10.51,315.07-13.07,472.67-13.58c491.09-1.61,982.18-0.44,1473.28-0.7
			c123.01-0.07,240.05,24.69,347.4,85.58c163.97,93.01,272.03,228.58,302.53,417.9c24.9,154.56-15.13,294.51-111.52,416.26
			c-125.63,158.69-294.03,240.67-494.48,245.29c-242.05,5.57-484.33,1.32-726.51,1.32C3251.1,2771.55,3251.1,2772.2,3251.1,2772.86z
			"/>
		<path class="st0" d="M3239.59,1545.27c-373.04,0-742.98,0-1116.04,0c0-4.59,0-12.43,0-20.28c0-115.53-0.01-231.06,0-346.59
			c0-68.1,35.39-106.57,104.35-107.55c116.25-1.66,232.53-0.71,348.79-0.85c15.37-0.02,30.74,0,47.86,0
			c0.49-9.66,1.17-16.82,1.18-23.99c0.07-119.97-0.1-239.95,0.26-359.92c0.04-13.34-2.9-22.61-13.95-32.02
			c-45.93-39.07-48.19-107.09-6.45-149.98c41.76-42.91,111.19-41.4,152.45,3.3c39.63,42.94,33.29,111.93-12.6,150.48
			c-6.56,5.51-11.33,17.06-11.38,25.85c-0.73,121.45-0.1,242.91-0.91,364.36c-0.12,18.37,6.45,22.26,23.08,22.19
			c119.97-0.51,239.95-0.49,359.92-0.02c17.58,0.07,35.71,1.21,52.62,5.59c48.43,12.53,70.82,43.2,70.82,93.26
			c0,115.53,0,231.06,0,346.59C3239.59,1523.76,3239.59,1531.85,3239.59,1545.27z M2898.55,1440.06
			c68.31,0.16,125.95-57.55,125.9-126.06c-0.04-67.6-56.64-125.05-123.89-125.77c-68.44-0.73-126.13,56.03-126.97,124.95
			C2772.75,1381.34,2830.43,1439.9,2898.55,1440.06z M2341.35,1313.09c-0.2,70.19,55.13,126.91,123.83,126.96
			c68.97,0.05,124.85-56.37,124.89-126.1c0.04-68.49-55.14-124.92-122.93-125.72C2398.04,1187.41,2341.54,1243.5,2341.35,1313.09z"
			/>
		<path class="st0" d="M1300.85,3057.6c39.95,0,76.66,0,115.49,0c0,77.08,0,153.03,0,231.61c9.78,0.45,17.58,1.03,25.39,1.12
			c57.73,0.72,115.67-1.55,173.16,2.55c144.93,10.34,226.21,92.62,237.67,237.99c4.61,58.46,4.53,116.94-11.36,174.22
			c-24.63,88.83-79.55,147.01-170.83,167.82c-64.51,14.7-129.45,14.87-193.33-1.77c-88.59-23.07-141.66-82.82-162.64-170.41
			c-7.87-32.85-12.73-67.23-12.98-100.95c-1.27-174.05-0.59-348.11-0.59-522.17C1300.85,3071.75,1300.85,3065.89,1300.85,3057.6z
			 M1418.37,3409.82c-0.17,0.71-0.8,2.11-0.81,3.51c-0.12,49.59-0.74,99.18-0.06,148.76c0.41,29.5,1.29,59.17,4.76,88.43
			c7.58,63.99,43.52,105.1,106.02,113.38c36.59,4.84,75.36,3.08,111.8-3.34c47.47-8.36,78.31-40.24,89.57-87.92
			c13.45-56.97,13.55-114.39,0.03-171.38c-12.24-51.58-46.43-86.02-97.66-90.05C1561.72,3405.67,1490.66,3409.82,1418.37,3409.82z"
			/>
		<path class="st0" d="M3758.45,3059.55c39.35,0,76.12,0,115.16,0c0,75.89,0,151.78,0,231.11c10.01,0,17.8-0.13,25.58,0.02
			c59.1,1.13,118.33,0.14,177.26,3.92c135.97,8.72,209.29,85.7,229.28,214.79c11.29,72.89,8.88,145.79-15.63,216.51
			c-31.6,91.2-98.5,136.97-191.79,149.65c-57.57,7.82-114.51,6.76-170.64-8.65c-84.86-23.29-135.1-81-155.44-164.39
			c-8.48-34.76-12.92-71.33-13.2-107.12c-1.33-169.55-0.6-339.12-0.6-508.69C3758.45,3078.04,3758.45,3069.38,3758.45,3059.55z
			 M3966.52,3397.91c-0.04,0.64-0.08,1.29-0.12,1.93c-24.43,0-48.86,0.22-73.28-0.09c-12.88-0.17-18.68,4.78-18.57,18.4
			c0.59,71.79-1.68,143.69,1.54,215.35c2.56,56.92,23.95,107.11,84.3,124.62c31.2,9.06,65.54,12.35,98.08,10.71
			c72.37-3.64,116.83-37.48,128.29-102.24c8-45.22,10.09-93.14,4.77-138.68c-8.83-75.6-45.59-112.28-114.75-122.75
			C4040.49,3399.66,4003.3,3400.13,3966.52,3397.91z"/>
		<path class="st0" d="M1213.36,3596.76c-5.27,31.84-8.72,77.21-20.75,120.17c-23.47,83.78-80.09,136.24-165.4,155.9
			c-61.37,14.14-123.08,14.07-184.55,0.37c-87.33-19.46-144.07-73.04-168.71-158.33c-26.09-90.33-25.43-181.37,4.87-270.8
			c26.07-76.93,81-123.55,159.51-142.47c63.66-15.34,127.68-15.55,191.24-0.13c97.78,23.73,158.91,93.43,174.22,198.08
			C1207.84,3527.27,1209.37,3555.35,1213.36,3596.76z M936.79,3403.58c-0.07,0.57-0.14,1.14-0.21,1.7c-8.87,0-17.76-0.31-26.62,0.05
			c-70.46,2.85-114.04,39.09-129.06,107.94c-10.37,47.54-9.8,95.42-1.33,143.12c7.12,40.08,23.14,75.22,62.24,93.91
			c49.54,23.67,101.38,24.01,153.8,11.84c48.73-11.31,78.95-42.31,90.05-90.51c12.95-56.19,13.18-112.92-0.04-169.18
			c-12.04-51.22-45.08-81.89-96.31-92.34C972.08,3406.59,954.31,3405.68,936.79,3403.58z"/>
		<path class="st0" d="M2183.34,3886.68c-35.58-5.83-71.82-9.09-106.59-18.04c-74.36-19.14-124.55-67.71-148.66-139.67
			c-31.44-93.83-31.6-189.35-0.33-283.41c26.45-79.57,83.62-127.23,164.97-145.29c62.25-13.82,124.75-13.63,186.97,1.36
			c81.64,19.65,135.95,69.81,161.04,149.34c27.6,87.51,28.43,176.46,2.09,264.37c-29.88,99.71-105.97,158.5-210.19,165.5
			c-16.18,1.09-32.49,0.15-48.74,0.15C2183.71,3882.89,2183.53,3884.78,2183.34,3886.68z M2184.8,3405.13
			c-5.92,0-11.83-0.04-17.75,0.01c-79.4,0.63-130.3,41.91-138.48,120.31c-4.69,44.96-2.41,91.38,2.77,136.45
			c6.29,54.79,40.31,88.91,94.54,101.28c40.28,9.19,80.65,9.14,120.73-1.43c45.96-12.12,76.49-40.17,87.77-87.14
			c14.23-59.25,14.69-118.72-1.05-177.61c-4.08-15.27-11.76-30.63-21.41-43.16C2279.84,3412.13,2233.53,3404.89,2184.8,3405.13z"/>
		<path class="st0" d="M644.83,1790.9c-72.62,21.07-145.07,39.81-215.95,63.31c-70.9,23.5-140.22,51.76-212.23,78.68
			c-0.31-5.93-1.05-13.53-1.05-21.14c-0.07-134.04-0.1-268.09-0.03-402.13c0.03-60.75,30.49-91.41,90.54-91.43
			c54.8-0.02,109.68,1.8,164.38-0.56c45.47-1.96,76.87,26.01,87.29,67.95c10.81,43.51,23.3,86.62,35.98,129.63
			c15.82,53.66,32.64,107.02,48.84,160.57C644.05,1780.58,644.11,1785.8,644.83,1790.9z"/>
		<path class="st0" d="M2550.79,3708.19c34.68,0,67.88-0.51,101.03,0.57c4.84,0.16,9.93,7.5,14.05,12.25
			c10.09,11.63,17.36,29.77,29.87,34.55c60.55,23.13,122.88,22.51,183.86,1.03c27.55-9.7,33.73-26.98,30.32-63.51
			c-2.07-22.17-13.41-35.17-40.5-39.72c-35.42-5.95-71.45-8.22-106.93-13.92c-40.42-6.5-82.21-10.28-120.33-23.88
			c-48.24-17.21-80.21-53.93-89.01-106.94c-8.46-50.98-6.02-100.03,25.64-143.87c26.16-36.23,63.69-53.38,105.82-62.18
			c81.39-17,162.43-17.18,241.71,10.33c64.04,22.22,104.96,84.52,98.19,147.5c-37.13,0-74.45,0-113.03,0
			c-1.61-30.33-21.93-43.37-47.65-50.04c-53-13.75-106.07-13.87-158.62,2.44c-28.4,8.82-42.57,28.03-42.02,54.94
			c0.64,31.21,12.61,47.66,45.28,53c39.91,6.53,80.66,7.93,120.59,14.36c37.59,6.06,76.36,11.26,111.42,24.97
			c50.24,19.65,78.03,61.8,84.4,115.19c7.32,61.3-0.55,120.51-54.74,159.26c-25.34,18.12-57.19,30.87-87.89,36.99
			c-76.51,15.24-153.87,15.56-228.94-9.83C2585.57,3838.77,2545.8,3779.03,2550.79,3708.19z"/>
		<path class="st0" d="M215.89,2444.94c71.64,29.7,140.98,59.42,211.08,87.24c70.04,27.79,140.84,53.67,212.69,80.92
			c-18.01,59.16-35.68,115.89-52.49,172.86c-11.03,37.36-21.35,74.95-31.03,112.68c-9.81,38.27-41.79,64.77-81.4,64.98
			c-59.2,0.31-118.4,0.36-177.59-0.01c-43.24-0.27-80.36-32.22-80.75-74.83C215.07,2740.84,215.89,2592.88,215.89,2444.94z"/>
		<path class="st0" d="M3662.1,3292.2c0,77.78,0.18,153.96-0.06,230.15c-0.18,58.3,2.62,116.62-11.85,174.22
			c-26.72,106.31-94.54,165.79-203.31,179.28c-55.56,6.89-110.48,6.48-164.35-7.64c-86.38-22.64-138.91-80.52-159.29-166.15
			c-8.29-34.83-12.4-71.32-13.09-107.16c-1.78-92.55-0.6-185.16-0.6-277.75c0-7.97,0-15.94,0-25.19c39.36,0,76.66,0,116.27,0
			c0,8.77,0,16.7,0,24.64c0,95.55-0.38,191.1,0.29,286.65c0.15,22.02,1.61,44.53,6.4,65.94c12.76,56.99,50.37,91.33,109.35,96.34
			c34.01,2.89,69.2,1.87,102.89-3.5c56.7-9.03,85.46-48.55,95.21-102.56c3.91-21.66,5.19-44.03,5.33-66.1
			c0.57-91.84,0.24-183.69,0.24-275.54c0-8.04,0-16.09,0-25.63C3584.32,3292.2,3621.64,3292.2,3662.1,3292.2z"/>
		<path class="st0" d="M603.41,3290.34c0,35.79-0.13,68.94,0.06,102.08c0.08,13.41-8.96,12.03-18.12,13.02
			c-31.46,3.37-63.61,4.52-94.05,12.2c-50.82,12.82-69.3,39.06-69.46,91.41c-0.37,116.21-0.67,232.43,0.39,348.64
			c0.19,20.96-6.32,27.29-26.3,26.14c-23.61-1.36-47.36-0.72-71.04-0.22c-13.47,0.28-19.97-3.4-19.89-18.77
			c0.65-123.61-0.59-247.24,1.11-370.83c1.21-87.96,47.61-149.26,130.29-179.17C489.34,3295.69,544.44,3291.6,603.41,3290.34z"/>
		<path class="st0" d="M1998.79,545.08c6.08-112.73,37.31-214.41,94.44-307.95c34.33-56.21,74.75-107.36,126.12-149.32
			c19.01-15.53,41.52-16.52,55.11-1.17c13.08,14.78,10.64,31.14-9.52,49.42c-92.16,83.55-155.08,184.62-182.12,306.47
			c-7.93,35.73-11.18,72.56-15.55,109.01c-3.18,26.54-13.57,38.64-35.5,38.03c-20.79-0.58-32.79-15.55-32.97-41.14
			C1998.78,546.21,1998.79,543.99,1998.79,545.08z"/>
		<path class="st0" d="M3359.86,512.68c1.33,42.27-6.01,53.8-28.33,55.15c-23.59,1.42-37.65-10.62-39.37-34.32
			c-8.42-116.14-46.06-221.63-118.65-312.93c-26.88-33.81-59.18-63.4-89.77-94.15c-19.79-19.89-23.69-35.72-10.14-51.79
			c12.01-14.25,33.29-15.38,53.05,0.65c55.34,44.89,102.41,97.34,139.66,158.37C3320.6,322.6,3352.22,418.87,3359.86,512.68z"/>
		<path class="st0" d="M2203.6,594.53c-23.39,0.03-37.81-17.87-35.45-42.85c9.15-96.73,39.91-185.37,101.2-261.54
			c20.6-25.61,45.01-48.33,68.96-71.03c16.27-15.43,40.12-13.41,53.14,2.02c13.25,15.71,10.53,33.17-9.26,49.6
			c-70.39,58.44-114.71,132.84-135.16,221.46c-4.76,20.64-5.87,42.2-7.77,63.42C2236.98,581,2225.11,594.5,2203.6,594.53z"/>
		<path class="st0" d="M3190.93,538.07c0.28,26-9.31,37.72-31.71,38.68c-23.63,1.02-33.81-8.8-36.62-34.05
			c-12.3-110.53-60.34-202.18-145.46-274.1c-19.36-16.36-23.64-34.3-11.74-49.63c9.46-12.19,37.31-14.87,52.62-2.99
			c61.95,48.06,108.51,108.8,136.89,181.49c17.53,44.89,27.89,92.58,41.47,139.02C3194.57,537.02,3192.75,537.54,3190.93,538.07z"/>
		<path class="st0" d="M2377.08,598.99c-22.02,0.07-37.75-16.59-35.45-38.37c8.62-81.8,41.58-151.27,104.5-205.55
			c19.27-16.62,40.84-17.88,54.94-2.52c15,16.35,13.37,32.83-7.43,51.29c-48.47,42.99-77.84,95.01-81.5,160.8
			C2410.86,587.63,2397.69,598.93,2377.08,598.99z"/>
		<path class="st0" d="M3020.85,550.01c-3.28,22.07-12.87,33.49-32.23,35.49c-22.54,2.32-36.05-6.79-38.92-28.81
			c-8.06-61.81-35.54-112.73-82.31-153.84c-17.86-15.7-20.05-31.35-8.91-46.47c11.9-16.15,31.24-19.34,50.75-5.13
			c39.6,28.85,67.42,67.84,85.67,112.69C3006.14,491.58,3012.37,521.25,3020.85,550.01z"/>
		<path d="M2898.55,1440.06c-68.13-0.16-125.8-58.73-124.96-126.89c0.85-68.92,58.53-125.68,126.97-124.95
			c67.26,0.72,123.85,58.17,123.89,125.77C3024.5,1382.51,2966.86,1440.22,2898.55,1440.06z"/>
		<path d="M2341.35,1313.09c0.2-69.6,56.69-125.68,125.78-124.86c67.79,0.81,122.97,57.24,122.93,125.72
			c-0.04,69.72-55.92,126.15-124.89,126.1C2396.48,1440.01,2341.15,1383.28,2341.35,1313.09z"/>
		<path d="M1418.37,3409.82c72.29,0,143.35-4.15,213.66,1.39c51.23,4.03,85.42,38.47,97.66,90.05
			c13.52,56.99,13.42,114.41-0.03,171.38c-11.26,47.67-42.1,79.56-89.57,87.92c-36.44,6.42-75.21,8.18-111.8,3.34
			c-62.5-8.27-98.44-49.39-106.02-113.38c-3.47-29.26-4.35-58.93-4.76-88.43c-0.69-49.58-0.07-99.17,0.06-148.76
			C1417.57,3411.92,1418.2,3410.52,1418.37,3409.82z"/>
		<path d="M3966.52,3397.91c36.78,2.22,73.97,1.75,110.26,7.24c69.16,10.47,105.92,47.15,114.75,122.75
			c5.32,45.54,3.22,93.46-4.77,138.68c-11.46,64.76-55.92,98.61-128.29,102.24c-32.54,1.63-66.88-1.66-98.08-10.71
			c-60.35-17.52-81.74-67.7-84.3-124.62c-3.22-71.66-0.95-143.56-1.54-215.35c-0.11-13.61,5.69-18.56,18.57-18.4
			c24.42,0.31,48.85,0.09,73.28,0.09C3966.44,3399.19,3966.48,3398.55,3966.52,3397.91z"/>
		<path d="M936.79,3403.58c17.53,2.1,35.3,3.01,52.54,6.53c51.23,10.46,84.27,41.13,96.31,92.34
			c13.22,56.26,12.99,112.99,0.04,169.18c-11.1,48.2-41.33,79.2-90.05,90.51c-52.42,12.17-104.26,11.83-153.8-11.84
			c-39.11-18.69-55.12-53.83-62.24-93.91c-8.47-47.7-9.04-95.58,1.33-143.12c15.01-68.85,58.6-105.1,129.06-107.94
			c8.86-0.36,17.75-0.05,26.62-0.05C936.65,3404.71,936.72,3404.15,936.79,3403.58z"/>
		<path d="M2184.8,3405.13c48.73-0.24,95.04,7.01,127.13,48.7c9.65,12.53,17.33,27.89,21.41,43.16
			c15.74,58.89,15.28,118.37,1.05,177.61c-11.28,46.97-41.81,75.02-87.77,87.14c-40.09,10.57-80.46,10.62-120.73,1.43
			c-54.23-12.37-88.25-46.49-94.54-101.28c-5.18-45.07-7.46-91.49-2.77-136.45c8.18-78.4,59.08-119.68,138.48-120.31
			C2172.97,3405.09,2178.88,3405.13,2184.8,3405.13z"/>
	</g>
</g>
</svg>
