G04*
G04 #@! TF.GenerationSoftware,Altium Limited,Altium Designer,19.1.8 (144)*
G04*
G04 Layer_Color=16711935*
%FSLAX25Y25*%
%MOIN*%
G70*
G01*
G75*
%ADD39R,0.02769X0.04343*%
%ADD40R,0.04343X0.02769*%
%ADD46R,0.03556X0.05918*%
%ADD58R,0.06706X0.06706*%
%ADD59C,0.06706*%
%ADD60C,0.05524*%
%ADD61C,0.07296*%
%ADD62R,0.07296X0.07296*%
%ADD63C,0.24422*%
%ADD64C,0.02769*%
D39*
X145079Y220079D02*
D03*
X139173D02*
D03*
X160299Y255716D02*
D03*
X154393D02*
D03*
X121457Y300787D02*
D03*
X115551D02*
D03*
D40*
X123446Y146277D02*
D03*
Y140371D02*
D03*
X262205Y147047D02*
D03*
Y141142D02*
D03*
X227383Y147064D02*
D03*
Y141158D02*
D03*
X210630Y146653D02*
D03*
Y140748D02*
D03*
X175808Y146670D02*
D03*
Y140765D02*
D03*
X158268Y146260D02*
D03*
Y140354D02*
D03*
X71871Y147458D02*
D03*
Y141552D02*
D03*
X106693Y147441D02*
D03*
Y141535D02*
D03*
D46*
X155575Y272252D02*
D03*
X148094D02*
D03*
X155575Y282488D02*
D03*
X148094D02*
D03*
X141204Y299811D02*
D03*
X148685D02*
D03*
D58*
X72331Y345709D02*
D03*
D59*
Y355709D02*
D03*
X82331Y345709D02*
D03*
Y355709D02*
D03*
X92331Y345709D02*
D03*
Y355709D02*
D03*
X102331Y345709D02*
D03*
Y355709D02*
D03*
X112331Y345709D02*
D03*
Y355709D02*
D03*
X122331Y345709D02*
D03*
Y355709D02*
D03*
X132331Y345709D02*
D03*
Y355709D02*
D03*
X142331Y345709D02*
D03*
Y355709D02*
D03*
X152331Y345709D02*
D03*
Y355709D02*
D03*
X162331Y345709D02*
D03*
Y355709D02*
D03*
X172331Y345709D02*
D03*
Y355709D02*
D03*
X182331Y345709D02*
D03*
Y355709D02*
D03*
X192331Y345709D02*
D03*
Y355709D02*
D03*
X202331Y345709D02*
D03*
Y355709D02*
D03*
X212331Y345709D02*
D03*
Y355709D02*
D03*
X222331Y345709D02*
D03*
Y355709D02*
D03*
X262331D02*
D03*
Y345709D02*
D03*
X252331Y355709D02*
D03*
Y345709D02*
D03*
X242331Y355709D02*
D03*
Y345709D02*
D03*
X232331Y355709D02*
D03*
Y345709D02*
D03*
D60*
X224803Y272835D02*
D03*
X216929D02*
D03*
X264173Y294173D02*
D03*
Y304173D02*
D03*
Y324173D02*
D03*
Y314173D02*
D03*
D61*
X234882Y117187D02*
D03*
X254882D02*
D03*
X99370Y117581D02*
D03*
X79370D02*
D03*
X130945Y116400D02*
D03*
X150945D02*
D03*
X203307Y116793D02*
D03*
X183307D02*
D03*
X98032Y232992D02*
D03*
D62*
Y212992D02*
D03*
D63*
X53158Y350709D02*
D03*
Y157795D02*
D03*
X281504Y350709D02*
D03*
Y157795D02*
D03*
D64*
X120732Y271071D02*
D03*
Y275402D02*
D03*
Y279732D02*
D03*
Y284063D02*
D03*
Y288394D02*
D03*
X125063Y271071D02*
D03*
Y275402D02*
D03*
Y279732D02*
D03*
Y284063D02*
D03*
Y288394D02*
D03*
X129393Y271071D02*
D03*
Y275402D02*
D03*
Y279732D02*
D03*
Y284063D02*
D03*
Y288394D02*
D03*
X133724Y271071D02*
D03*
Y275402D02*
D03*
Y279732D02*
D03*
Y284063D02*
D03*
Y288394D02*
D03*
X138055Y271071D02*
D03*
Y275402D02*
D03*
Y279732D02*
D03*
Y284063D02*
D03*
Y288394D02*
D03*
M02*
