G04*
G04 #@! TF.GenerationSoftware,Altium Limited,Altium Designer,19.1.8 (144)*
G04*
G04 Layer_Physical_Order=1*
G04 Layer_Color=255*
%FSLAX25Y25*%
%MOIN*%
G70*
G01*
G75*
%ADD10C,0.00787*%
%ADD14C,0.01000*%
%ADD20R,0.05000X0.02992*%
%ADD21R,0.02323X0.02480*%
%ADD22R,0.01968X0.03543*%
%ADD23R,0.03543X0.01968*%
%ADD24R,0.05118X0.04331*%
%ADD25R,0.05118X0.02756*%
%ADD26R,0.26929X0.20669*%
%ADD27R,0.10984X0.04134*%
%ADD28R,0.08800X0.04800*%
%ADD29R,0.08661X0.14173*%
%ADD30R,0.02756X0.05118*%
%ADD31R,0.11811X0.07087*%
%ADD32R,0.04488X0.07008*%
%ADD33R,0.02244X0.07756*%
%ADD34R,0.05787X0.01890*%
%ADD35R,0.03347X0.02559*%
%ADD36R,0.04331X0.03937*%
%ADD37O,0.00984X0.02953*%
%ADD38O,0.02953X0.00984*%
%ADD39R,0.22047X0.22047*%
%ADD68C,0.00689*%
%ADD69C,0.02500*%
%ADD70C,0.00591*%
%ADD71C,0.01378*%
%ADD72C,0.02000*%
%ADD73C,0.01575*%
%ADD74C,0.04724*%
%ADD75C,0.08000*%
%ADD76R,0.05906X0.05906*%
%ADD77C,0.05906*%
%ADD78C,0.06496*%
%ADD79R,0.06496X0.06496*%
%ADD80C,0.23622*%
%ADD81C,0.02362*%
%ADD82C,0.01968*%
G36*
X199106Y215459D02*
X191626D01*
Y223333D01*
X199106D01*
Y215459D01*
D02*
G37*
G36*
X229528Y246850D02*
X222047D01*
Y254724D01*
X229528D01*
Y246850D01*
D02*
G37*
G36*
X185019Y324972D02*
X177538D01*
Y332845D01*
X185019D01*
Y324972D01*
D02*
G37*
D10*
X171453Y275618D02*
X172764Y274307D01*
X171453Y275618D02*
Y280500D01*
D14*
X239493Y184252D02*
X242288Y181456D01*
X236614Y184252D02*
X239493D01*
X163539Y296965D02*
X170141Y290362D01*
X154590Y280913D02*
Y281701D01*
X155134Y271197D02*
Y272280D01*
X256346Y187980D02*
X261417D01*
X235820Y187408D02*
X236614Y186614D01*
X204377Y187586D02*
X209449D01*
X184375Y187402D02*
X184646Y187131D01*
X152015Y187192D02*
X157087D01*
X175624Y154748D02*
X177559D01*
X148094Y299811D02*
Y304535D01*
X132346Y282685D02*
X142681D01*
X148865Y246850D02*
Y248773D01*
X103803Y297646D02*
X110316D01*
X148865Y246608D02*
Y246850D01*
X100834Y188189D02*
X105905D01*
X236614Y184252D02*
Y186614D01*
X187524Y184252D02*
X190714Y181063D01*
X184646Y184252D02*
X187524D01*
X184646Y187131D02*
Y187414D01*
Y184252D02*
Y187131D01*
Y187414D02*
X184859Y187628D01*
X132522Y183988D02*
X132548Y183963D01*
X132522Y183988D02*
Y187209D01*
X132497Y187234D02*
X132522Y187209D01*
X135058Y183963D02*
X138351Y180669D01*
X132548Y183963D02*
X135058D01*
X80973Y185144D02*
Y188365D01*
Y185144D02*
X83483D01*
X83084Y155918D02*
X83278D01*
X134658Y154737D02*
X134853D01*
X187021Y155131D02*
X187215D01*
X238596Y155525D02*
X238790D01*
X151890Y270738D02*
X155305Y267323D01*
X155512D01*
X159843Y257283D02*
X162008Y255118D01*
X159843Y257283D02*
Y260630D01*
X150472Y261811D02*
X151260Y261024D01*
Y260551D02*
X155315Y256496D01*
X147165Y261417D02*
Y268504D01*
X154464Y263647D02*
X154724Y263386D01*
X153283Y263647D02*
X154464D01*
X150472Y266457D02*
X153283Y263647D01*
X155197Y271575D02*
X159055Y267717D01*
X155197Y271575D02*
Y271654D01*
X151150Y272000D02*
X151228D01*
X151890Y271339D01*
Y271260D02*
Y271339D01*
Y270738D02*
Y271654D01*
X142681Y272843D02*
X150307D01*
X151150Y272000D01*
X149078Y280520D02*
X149267Y280709D01*
X147708Y281102D02*
X148685Y280126D01*
X141196Y246062D02*
Y256693D01*
X105091Y291937D02*
X109331D01*
X109528Y291740D01*
X155134Y271197D02*
X155197Y271260D01*
X150472Y266457D02*
Y266535D01*
X144795Y270874D02*
X147165Y268504D01*
X142681Y270874D02*
X144795D01*
X151260Y260551D02*
Y261024D01*
X143307Y259646D02*
X146653Y256299D01*
Y255512D02*
Y256299D01*
Y254724D02*
Y255512D01*
X142681Y268905D02*
X143299D01*
X143307Y259646D02*
Y268898D01*
X143299Y268905D02*
X143307Y268898D01*
X145970Y287228D02*
X146175D01*
X155181Y289181D02*
X157487Y286875D01*
X155181Y289181D02*
Y289968D01*
X158486Y291240D02*
X161783D01*
X155972Y293754D02*
X158486Y291240D01*
X149275Y286389D02*
Y289968D01*
X149224Y286338D02*
X149275Y286389D01*
X149224Y286323D02*
Y286338D01*
X147433Y284531D02*
X149224Y286323D01*
X151906Y283597D02*
Y285228D01*
X158401Y286353D02*
X158661Y286614D01*
X158401Y286875D02*
X158661Y286614D01*
X145371Y286630D02*
X145970Y287228D01*
X145938Y284531D02*
X147433D01*
X142689Y286630D02*
X145371D01*
X145469Y284063D02*
X145938Y284531D01*
X147398Y281102D02*
X147708D01*
X145233Y278937D02*
X147398Y281102D01*
X141384Y244299D02*
X144169Y241514D01*
X146675D01*
X146850Y241339D01*
X142779Y229142D02*
X146850Y233213D01*
Y241732D01*
X140220Y257669D02*
X141196Y256693D01*
X138259Y238779D02*
Y266437D01*
Y238779D02*
X140417Y236622D01*
X136291Y238205D02*
Y266437D01*
X135586Y237500D02*
X136291Y238205D01*
X105905Y317717D02*
X111024D01*
X94902Y306713D02*
X105905Y317717D01*
X94902Y290531D02*
Y306713D01*
X268243Y227426D02*
X268504Y227165D01*
X262535Y227426D02*
X268243D01*
X262205Y227756D02*
X262535Y227426D01*
X275764Y231890D02*
X276772D01*
X273992Y233661D02*
X275764Y231890D01*
X262205Y233661D02*
X273992D01*
X258980Y236221D02*
X259687Y235513D01*
Y235391D02*
Y235513D01*
Y235391D02*
X261417Y233661D01*
X262205D01*
X256299Y236221D02*
X258980D01*
X276348Y211299D02*
X276850Y210797D01*
X244365Y246135D02*
X250787Y239713D01*
Y220213D02*
Y239713D01*
Y220213D02*
X258705Y212295D01*
X190157Y241732D02*
X194882Y237008D01*
X176378Y241732D02*
X190157D01*
X130378Y259386D02*
X132677Y257087D01*
X130378Y259386D02*
Y266445D01*
X132338Y262937D02*
X133465Y261811D01*
X132338Y262937D02*
Y266437D01*
X128409Y257095D02*
Y266445D01*
Y257095D02*
X129393Y256110D01*
Y254142D02*
Y256110D01*
X132338Y266437D02*
X132346Y266445D01*
X130378D02*
X130385Y266453D01*
X244365Y246135D02*
Y250984D01*
X258705Y212295D02*
X274850D01*
X244000Y276000D02*
X244084Y275916D01*
Y271147D02*
Y275916D01*
Y271147D02*
X244168Y271063D01*
X149275Y290075D02*
Y290756D01*
X144357Y278937D02*
X145233D01*
X144176Y278756D02*
X144357Y278937D01*
X142689Y278756D02*
X144176D01*
X144493Y280724D02*
X145469Y281701D01*
X142689Y280724D02*
X144493D01*
X173362Y266622D02*
X175028Y264957D01*
X171787Y266622D02*
X173362D01*
X166366Y272043D02*
X171787Y266622D01*
X165972Y272043D02*
X166366D01*
X133724Y284063D02*
X138055Y288394D01*
X175028Y272043D02*
X175618Y271453D01*
X183500D01*
X164705Y231791D02*
X186721Y209776D01*
X164705Y231791D02*
Y234547D01*
X186721Y207334D02*
Y209776D01*
Y207334D02*
X187205Y206850D01*
X142689Y270866D02*
X144221D01*
X258465Y308465D02*
X264173Y314173D01*
X253150Y308465D02*
X258465D01*
X145276Y332283D02*
X146850Y330709D01*
X112205Y339370D02*
X175992D01*
X182331Y345709D01*
X246277Y188022D02*
X250214D01*
X242340D02*
X246277D01*
X194702Y187628D02*
X198639D01*
X190765D02*
X194702D01*
X142340Y187234D02*
X146277D01*
X138403D02*
X142340D01*
X90765Y188415D02*
X94702D01*
X86828D02*
X90765D01*
X263516Y323516D02*
X264173Y324173D01*
X253634Y323516D02*
X263516D01*
X253150Y323031D02*
X253634Y323516D01*
X87753Y287569D02*
Y303586D01*
X83858Y307480D02*
X87753Y303586D01*
X170079Y360630D02*
X171392Y359317D01*
Y356647D02*
Y359317D01*
Y356647D02*
X172331Y355709D01*
X70955Y360630D02*
X170079D01*
X66469Y356144D02*
X70955Y360630D01*
X192331Y357685D02*
X192520Y357874D01*
X192331Y355709D02*
Y357685D01*
Y355709D02*
X192706Y356084D01*
X66469Y345195D02*
Y356144D01*
X59736Y338463D02*
X66469Y345195D01*
X59736Y324073D02*
Y338463D01*
Y324073D02*
X85114Y298695D01*
Y287680D02*
Y298695D01*
X223269Y359490D02*
X224410Y360630D01*
X223269Y356647D02*
Y359490D01*
X222331Y355709D02*
X223269Y356647D01*
X224410Y360630D02*
X234646D01*
X237598Y357677D01*
Y344144D02*
Y357677D01*
Y344144D02*
X240945Y340797D01*
Y241732D02*
Y340797D01*
Y241732D02*
X246850Y235827D01*
X239158Y240992D02*
Y336039D01*
X237370Y240252D02*
Y333496D01*
X232331Y342866D02*
X239158Y336039D01*
X237370Y240252D02*
X239870Y237752D01*
X226878Y343988D02*
X237370Y333496D01*
X239158Y240992D02*
X241657Y238492D01*
X246850Y211299D02*
Y235827D01*
X239870Y228650D02*
Y237752D01*
X241657Y220437D02*
Y238492D01*
X232331Y342866D02*
Y345709D01*
X247031Y298669D02*
Y350409D01*
Y298669D02*
X259063Y286638D01*
X248819Y299410D02*
X264772Y283457D01*
X248819Y299410D02*
Y335039D01*
X233228Y212008D02*
X240138D01*
X233228D02*
X241657Y220437D01*
X240138Y212008D02*
X245847Y206299D01*
X246850D01*
X276348Y211299D02*
X276850D01*
X275847D02*
X276348D01*
X276850Y206299D02*
Y210797D01*
X274850Y212295D02*
X275847Y211299D01*
X235630Y224410D02*
X239870Y228650D01*
X126441Y208599D02*
Y266445D01*
X124472Y208039D02*
Y266445D01*
X122504Y207480D02*
Y266445D01*
X140220Y257669D02*
Y266445D01*
X134315D02*
X134323Y266437D01*
X134307Y266453D02*
X134315Y266445D01*
X124472Y208039D02*
X134693Y197819D01*
X126441Y208599D02*
X135433Y199606D01*
X132346Y282685D02*
X133724Y284063D01*
X120535Y206921D02*
Y266445D01*
X118567Y265476D02*
Y266445D01*
X118559Y265469D02*
X118567Y265476D01*
X117590Y265469D02*
X118559D01*
X135433Y199606D02*
X211811D01*
X134307Y266453D02*
Y267985D01*
X133083Y269209D02*
X134307Y267985D01*
X131609Y269209D02*
X133083D01*
X122504Y207480D02*
X133952Y196031D01*
X136283Y266445D02*
X136291Y266437D01*
X138252Y266445D02*
X138259Y266437D01*
X212222Y177999D02*
Y189353D01*
X205543Y196031D02*
X212222Y189353D01*
X133952Y196031D02*
X205543D01*
X159859Y177605D02*
Y188503D01*
X155905Y192457D02*
X159859Y188503D01*
X100607Y188415D02*
X100834Y188189D01*
X245276Y106486D02*
Y127145D01*
X249016Y130885D01*
Y131672D01*
X194095Y106093D02*
Y127145D01*
X197441Y130491D01*
Y131279D01*
X140945Y105699D02*
Y125964D01*
X145079Y130097D01*
Y130885D01*
X89764Y106880D02*
Y127538D01*
X93504Y131279D01*
Y132066D01*
X84625Y132283D02*
X87795D01*
X84449Y132460D02*
X84625Y132283D01*
X149205Y280897D02*
X151906Y283597D01*
X149267Y280709D02*
X149268Y280708D01*
X93432Y274811D02*
X116106D01*
X211131Y156403D02*
X214571Y159843D01*
X210344Y156403D02*
X211131D01*
X214571Y159843D02*
X219291D01*
X262205Y136417D02*
Y140932D01*
X262205Y140932D01*
X228346Y147531D02*
Y151181D01*
X210827Y135728D02*
Y140342D01*
X210630Y140538D02*
X210827Y140342D01*
X210630Y140538D02*
X210840Y140748D01*
X210335Y147159D02*
Y150787D01*
Y147159D02*
X210840Y146653D01*
X177076Y147442D02*
Y151090D01*
X176287Y146653D02*
X177076Y147442D01*
X172845Y151969D02*
X175624Y154748D01*
X177559D02*
Y155131D01*
X158563Y135827D02*
Y140046D01*
X158661Y140145D01*
X158871Y146260D02*
Y149904D01*
X158079Y150696D02*
X158871Y149904D01*
X124612Y146935D02*
Y150696D01*
Y146935D02*
X124803Y146744D01*
X124730Y153561D02*
Y154271D01*
X124713Y153543D02*
X124730Y153561D01*
X122600Y153543D02*
X124713D01*
X120911Y151854D02*
X122600Y153543D01*
X120542Y151854D02*
X120911D01*
X73032Y148122D02*
Y151772D01*
X72835Y147925D02*
X73032Y148122D01*
X106693Y137008D02*
Y141326D01*
X106693Y141326D01*
X158401Y285511D02*
Y286353D01*
X154590Y281701D02*
X158401Y285511D01*
X157487Y286875D02*
X158401D01*
X165157Y244355D02*
X166865Y246063D01*
X169685D01*
X158768Y243568D02*
X159252Y244052D01*
X158768Y241366D02*
Y243568D01*
X154705Y237303D02*
X158768Y241366D01*
X154705Y234547D02*
Y237303D01*
X266535Y270399D02*
X267200Y271063D01*
X266535Y267323D02*
Y270399D01*
X267397Y262008D02*
X274728Y269340D01*
X267200Y262008D02*
X267397D01*
X274728Y269340D02*
Y319080D01*
X197638Y206850D02*
X202165D01*
X193110D02*
X197638D01*
X165157Y244052D02*
Y244355D01*
X163754Y159449D02*
X166929D01*
X209859Y155918D02*
X210344Y156403D01*
X209859Y155131D02*
Y155918D01*
X266669Y159976D02*
X266929Y160236D01*
X265098Y159976D02*
X266669D01*
X261434Y156312D02*
X265098Y159976D01*
X261434Y155525D02*
Y156312D01*
X248335Y160326D02*
Y164310D01*
X196760Y159932D02*
Y163916D01*
X144398Y159539D02*
Y163522D01*
X159042Y154737D02*
X163754Y159449D01*
X107467Y155918D02*
X112179Y160630D01*
X115354D01*
X92823Y160720D02*
X92913Y160630D01*
X92823Y160720D02*
Y164703D01*
X92733Y164793D02*
X92823Y164703D01*
X71260Y154724D02*
X72744D01*
X68967Y152432D02*
X71260Y154724D01*
X68967Y145923D02*
Y152432D01*
X73622Y155602D02*
Y155918D01*
X109962Y145923D02*
Y153424D01*
X107467Y155918D02*
X109962Y153424D01*
X105922Y155918D02*
X107467D01*
X72047Y137402D02*
Y141515D01*
X106903Y147441D02*
Y150578D01*
X120542Y144742D02*
Y151854D01*
Y144742D02*
X121296Y143988D01*
X225513Y154253D02*
X228650D01*
X229134Y154737D02*
Y155525D01*
X161536Y144742D02*
Y151849D01*
X158649Y154737D02*
X161536Y151849D01*
X157497Y154737D02*
X158649D01*
X124016Y136221D02*
Y140334D01*
X224016Y152756D02*
X225513Y154253D01*
X224016Y145993D02*
Y152756D01*
Y145993D02*
X225233Y144776D01*
X228650Y154253D02*
X229134Y154737D01*
X172835Y151969D02*
X172845D01*
X265474Y145530D02*
Y151485D01*
X261434Y155525D02*
X265474Y151485D01*
X227559Y137008D02*
Y141121D01*
X262414Y147047D02*
Y150184D01*
X213899Y145136D02*
Y151092D01*
X209859Y155131D02*
X213899Y151092D01*
X175964Y140748D02*
X175984Y140727D01*
Y136614D02*
Y140727D01*
X172835Y145206D02*
Y151969D01*
Y145206D02*
X173659Y144382D01*
X176287Y146653D02*
X176751D01*
X175964D02*
X176287D01*
X173659Y144382D02*
X179179D01*
X179675Y144878D01*
X184937D01*
X180315Y147110D02*
Y157503D01*
X177208Y147110D02*
X180315D01*
X85114Y287680D02*
X94046Y278748D01*
X110283Y319504D02*
X123063Y332283D01*
X111024Y317717D02*
X123803Y330496D01*
X100969Y321213D02*
Y330662D01*
X102756Y320472D02*
Y329921D01*
X91328Y309044D02*
X102756Y320472D01*
X105165Y319504D02*
X110283D01*
X93115Y307454D02*
X105165Y319504D01*
X89540Y309785D02*
X100969Y321213D01*
X102756Y329921D02*
X112205Y339370D01*
X111563Y341256D02*
X174175D01*
X100969Y330662D02*
X111563Y341256D01*
X89540Y288310D02*
Y309785D01*
X91328Y289050D02*
Y309044D01*
X93115Y289790D02*
Y307454D01*
X111417Y305563D02*
Y305906D01*
Y305563D02*
X120535Y296445D01*
X123063Y332283D02*
X145276D01*
X123803Y330496D02*
X143126D01*
X146850Y326772D01*
X174175Y341256D02*
X177784Y344864D01*
X174649Y205118D02*
X179921D01*
X174606Y205160D02*
X174649Y205118D01*
X131890Y223622D02*
Y229008D01*
X131756Y229142D02*
X131890Y229008D01*
X153698Y205118D02*
X153740Y205160D01*
X148031Y205118D02*
X153698D01*
X73228Y179557D02*
Y190157D01*
X77165Y194095D01*
X102362D01*
X113385Y205118D01*
Y232031D01*
X87945Y257471D02*
X113385Y232031D01*
X87945Y257471D02*
Y271851D01*
X92692Y276598D01*
X94748D01*
X94937Y276787D01*
X91520Y270371D02*
X93999Y272850D01*
X116098D01*
X89732Y271111D02*
X93432Y274811D01*
X89732Y258212D02*
Y271111D01*
Y258212D02*
X115173Y232771D01*
Y184888D02*
Y232771D01*
X110344Y180058D02*
X115173Y184888D01*
X110344Y179271D02*
Y180058D01*
X109859Y178787D02*
X110344Y179271D01*
X109072Y178787D02*
X109859D01*
X124803Y178376D02*
Y197597D01*
X116960Y205440D02*
X124803Y197597D01*
X116960Y205440D02*
Y233512D01*
X91520Y258952D02*
X116960Y233512D01*
X91520Y258952D02*
Y270371D01*
X93307Y259693D02*
X118748Y234252D01*
X93307Y259693D02*
Y269630D01*
X94551Y270874D01*
X116106D01*
X157306Y177605D02*
X159859D01*
X118748Y206181D02*
Y234252D01*
Y206181D02*
X132472Y192457D01*
X155905D01*
X159859Y177605D02*
X160647D01*
X120535Y206921D02*
X133212Y194244D01*
X168504D02*
X175894Y186854D01*
X133212Y194244D02*
X168504D01*
X211024Y197819D02*
X216929Y191913D01*
X134693Y197819D02*
X211024D01*
X211811Y199606D02*
X217717Y193701D01*
X175894Y179254D02*
Y186854D01*
Y179254D02*
X176378Y178770D01*
X177165D01*
X209668Y177999D02*
X212222D01*
X213009D01*
X216929Y191913D02*
X224410D01*
X217717Y193701D02*
X261024D01*
X264584Y190141D01*
X164961Y205160D02*
X168701D01*
X159646D02*
X164961D01*
X164705Y205416D02*
X164961Y205160D01*
X164705Y205416D02*
Y215059D01*
X169803Y214961D02*
X174803D01*
X169705Y215059D02*
X169803Y214961D01*
X159705Y234547D02*
X164705D01*
X154705Y215059D02*
X159705D01*
X169685Y241339D02*
X169695Y241329D01*
Y234557D02*
Y241329D01*
Y234557D02*
X169705Y234547D01*
X224410Y191913D02*
X227468Y188854D01*
Y179648D02*
Y188854D01*
Y179648D02*
X227953Y179163D01*
X228740D01*
X264584Y178393D02*
Y190141D01*
X231890Y147504D02*
Y157897D01*
X229053Y160734D02*
X231890Y157897D01*
X242288Y178115D02*
Y181456D01*
X241919Y177746D02*
X242288Y178115D01*
X238434Y177746D02*
X241919D01*
X149311Y215059D02*
X154705D01*
X145079Y219291D02*
X149311Y215059D01*
X145079Y219291D02*
Y220079D01*
X135433D02*
X139173D01*
X201866Y147437D02*
X202193Y147110D01*
X176751Y140748D02*
X177739Y139760D01*
X175964Y140748D02*
X176751D01*
X182480Y131672D02*
Y134944D01*
X182988Y139760D02*
X184937D01*
X182543Y139315D02*
X182988Y139760D01*
X182543Y135007D02*
Y139315D01*
X182480Y134944D02*
X182543Y135007D01*
X177739Y139760D02*
X182988D01*
X184937Y142319D02*
X185264Y142646D01*
X194492Y144878D02*
X201866D01*
X191142Y146457D02*
Y155307D01*
X209575Y144060D02*
X212823D01*
X213899Y145136D01*
X200394Y155118D02*
X203941D01*
X203954Y155131D01*
X197236Y155118D02*
X200394D01*
X197047Y155307D02*
X197236Y155118D01*
X183465Y155131D02*
X190966D01*
X191142Y155307D01*
X177953Y172864D02*
X178910Y171907D01*
X177165Y172864D02*
X177953D01*
X177165Y178770D02*
X180802D01*
X181617Y179585D01*
X186532D01*
X203462Y171907D02*
X203555Y172001D01*
X212916D01*
X213009Y172094D01*
X201866Y139760D02*
X202902D01*
X210052Y140748D02*
X210840D01*
X209064Y139760D02*
X210052Y140748D01*
X207834Y142319D02*
X209575Y144060D01*
X201866Y142319D02*
X207834D01*
X202902Y139760D02*
X203346Y139315D01*
X202902Y139760D02*
X209064D01*
X203346Y131279D02*
Y139315D01*
X204151Y163612D02*
Y171463D01*
X203706Y171907D02*
X204151Y171463D01*
X203462Y171907D02*
X203706D01*
X183284Y163612D02*
Y166884D01*
X184584Y171907D02*
X186532D01*
X184139Y171463D02*
X184584Y171907D01*
X184139Y167738D02*
Y171463D01*
X183284Y166884D02*
X184139Y167738D01*
X178910Y171907D02*
X184584D01*
X191142Y146457D02*
X192913D01*
X194492Y144878D01*
X185264Y142646D02*
X189496D01*
X191142Y144291D01*
Y146457D01*
X198639Y176801D02*
Y187628D01*
X186532Y174467D02*
X196304D01*
X198639Y176801D01*
X198863Y177026D02*
X203462D01*
X198639Y176801D02*
X198863Y177026D01*
X208082Y179585D02*
X209668Y177999D01*
X203462Y179585D02*
X208082D01*
X203135Y174140D02*
X203462Y174467D01*
X200035Y174140D02*
X203135D01*
X196670Y170775D02*
X200035Y174140D01*
X196670Y164006D02*
Y170775D01*
X209744Y163300D02*
X210056Y163612D01*
X209744Y160341D02*
Y163300D01*
X206693Y157290D02*
X209744Y160341D01*
X206693Y147244D02*
Y157290D01*
X210052Y146653D02*
X210840D01*
X209568Y147138D02*
X209595Y147110D01*
X210052Y146653D01*
X202193Y147110D02*
X209595D01*
X177379Y163612D02*
X177478Y163513D01*
Y160341D02*
Y163513D01*
X176751Y146653D02*
X177208Y147110D01*
X177478Y160341D02*
X180315Y157503D01*
X184610Y147110D02*
X184937Y147437D01*
X180709Y147110D02*
X184610D01*
X183465Y155131D02*
X183465Y155131D01*
X188562Y131496D02*
X191732D01*
X188386Y131672D02*
X188562Y131496D01*
X190765Y164006D02*
X190855Y163916D01*
Y159539D02*
Y163916D01*
Y159539D02*
X190945Y159449D01*
X190765Y187628D02*
X191249Y187144D01*
X190714Y177722D02*
Y181063D01*
X190345Y177352D02*
X190714Y177722D01*
X186532Y177026D02*
X186859Y177352D01*
X190345D01*
X184859Y187628D02*
Y188415D01*
X185344Y188900D01*
X204544Y187628D02*
Y188415D01*
X149504Y147043D02*
X149831Y146716D01*
X124389Y140354D02*
X125377Y139366D01*
X123601Y140354D02*
X124389D01*
X130118Y131279D02*
Y134550D01*
X130626Y139366D02*
X132575D01*
X130181Y138921D02*
X130626Y139366D01*
X130181Y134613D02*
Y138921D01*
X130118Y134550D02*
X130181Y134613D01*
X125377Y139366D02*
X130626D01*
X132575Y141925D02*
X132902Y142252D01*
X142130Y144484D02*
X149504D01*
X138779Y146063D02*
Y154913D01*
X157213Y143666D02*
X160460D01*
X161536Y144742D01*
X148031Y154724D02*
X151579D01*
X151592Y154737D01*
X144874Y154724D02*
X148031D01*
X144685Y154913D02*
X144874Y154724D01*
X131102Y154737D02*
X138603D01*
X138779Y154913D01*
X125591Y172470D02*
X126547Y171514D01*
X124803Y172470D02*
X125591D01*
X124803Y178376D02*
X128439D01*
X129254Y179191D01*
X134170D01*
X151099Y171514D02*
X151192Y171607D01*
X160554D01*
X160647Y171700D01*
X149504Y139366D02*
X150539D01*
X157690Y140354D02*
X158477D01*
X156702Y139366D02*
X157690Y140354D01*
X155472Y141925D02*
X157213Y143666D01*
X149504Y141925D02*
X155472D01*
X150539Y139366D02*
X150984Y138921D01*
X150539Y139366D02*
X156702D01*
X150984Y130885D02*
Y138921D01*
X151788Y163219D02*
Y171069D01*
X151344Y171514D02*
X151788Y171069D01*
X151099Y171514D02*
X151344D01*
X130922Y163219D02*
Y166490D01*
X132221Y171514D02*
X134170D01*
X131777Y171069D02*
X132221Y171514D01*
X131777Y167344D02*
Y171069D01*
X130922Y166490D02*
X131777Y167344D01*
X126547Y171514D02*
X132221D01*
X138779Y146063D02*
X140551D01*
X142130Y144484D01*
X132902Y142252D02*
X137134D01*
X138779Y143898D01*
Y146063D01*
X146277Y176408D02*
Y187234D01*
X134170Y174073D02*
X143942D01*
X146277Y176408D01*
X146501Y176632D02*
X151099D01*
X146277Y176408D02*
X146501Y176632D01*
X155720Y179191D02*
X157306Y177605D01*
X151099Y179191D02*
X155720D01*
X150773Y173746D02*
X151099Y174073D01*
X147672Y173746D02*
X150773D01*
X144308Y170382D02*
X147672Y173746D01*
X144308Y163612D02*
Y170382D01*
X157381Y162906D02*
X157694Y163219D01*
X157381Y159947D02*
Y162906D01*
X154331Y156896D02*
X157381Y159947D01*
X154331Y146850D02*
Y156896D01*
X157690Y146260D02*
X158477D01*
X157206Y146744D02*
X157233Y146716D01*
X157690Y146260D01*
X149831Y146716D02*
X157233D01*
X124730Y154271D02*
X125197Y154737D01*
X126402Y144484D02*
X132575D01*
X125906Y143988D02*
X126402Y144484D01*
X121296Y143988D02*
X125906D01*
X125017Y163219D02*
X125116Y163120D01*
Y159947D02*
Y163120D01*
X123601Y146260D02*
X124389D01*
X124845Y146716D01*
X124873Y146744D01*
X124845Y146716D02*
X127953D01*
Y157110D01*
X125116Y159947D02*
X127953Y157110D01*
X132248Y146716D02*
X132575Y147043D01*
X128346Y146716D02*
X132248D01*
X131102Y154737D02*
X131102Y154737D01*
X136200Y131102D02*
X139370D01*
X136024Y131279D02*
X136200Y131102D01*
X138403Y163612D02*
X138493Y163522D01*
Y159145D02*
Y163522D01*
Y159145D02*
X138583Y159055D01*
X138403Y187234D02*
X138887Y186750D01*
X138351Y177328D02*
Y180669D01*
X137982Y176959D02*
X138351Y177328D01*
X134170Y176632D02*
X134497Y176959D01*
X137982D01*
X152182Y187234D02*
Y188022D01*
X97929Y148224D02*
X98256Y147898D01*
X72814Y141535D02*
X73802Y140547D01*
X72026Y141535D02*
X72814D01*
X78543Y132460D02*
Y135731D01*
X79051Y140547D02*
X81000D01*
X78606Y140102D02*
X79051Y140547D01*
X78606Y135794D02*
Y140102D01*
X78543Y135731D02*
X78606Y135794D01*
X73802Y140547D02*
X79051D01*
X81000Y143106D02*
X81327Y143433D01*
X90555Y145665D02*
X97929D01*
X87205Y147244D02*
Y156095D01*
X105638Y144847D02*
X108886D01*
X109962Y145923D01*
X96457Y155905D02*
X100004D01*
X100017Y155918D01*
X93299Y155905D02*
X96457D01*
X93110Y156095D02*
X93299Y155905D01*
X79528Y155918D02*
X87029D01*
X87205Y156095D01*
X74016Y173652D02*
X74972Y172695D01*
X73228Y173652D02*
X74016D01*
X73228Y179557D02*
X76865D01*
X77680Y180372D01*
X82595D01*
X99525Y172695D02*
X99618Y172788D01*
X108979D01*
X109072Y172881D01*
X97929Y140547D02*
X98965D01*
X106115Y141535D02*
X106903D01*
X105127Y140547D02*
X106115Y141535D01*
X103897Y143106D02*
X105638Y144847D01*
X97929Y143106D02*
X103897D01*
X98965Y140547D02*
X99410Y140102D01*
X98965Y140547D02*
X105127D01*
X99410Y132066D02*
Y140102D01*
X100214Y164400D02*
Y172250D01*
X99769Y172695D02*
X100214Y172250D01*
X99525Y172695D02*
X99769D01*
X79347Y164400D02*
Y167671D01*
X80647Y172695D02*
X82595D01*
X80202Y172250D02*
X80647Y172695D01*
X80202Y168526D02*
Y172250D01*
X79347Y167671D02*
X80202Y168526D01*
X74972Y172695D02*
X80647D01*
X87205Y147244D02*
X88976D01*
X90555Y145665D01*
X81327Y143433D02*
X85559D01*
X87205Y145079D01*
Y147244D01*
X94702Y177589D02*
Y188415D01*
X82595Y175254D02*
X92367D01*
X94702Y177589D01*
X94926Y177813D02*
X99525D01*
X94702Y177589D02*
X94926Y177813D01*
X105731Y178787D02*
X109072D01*
X104145Y180372D02*
X105731Y178787D01*
X99525Y180372D02*
X104145D01*
X99198Y174927D02*
X99525Y175254D01*
X96098Y174927D02*
X99198D01*
X92733Y171563D02*
X96098Y174927D01*
X92733Y164793D02*
Y171563D01*
X105807Y164087D02*
X106119Y164400D01*
X105807Y161128D02*
Y164087D01*
X102756Y158077D02*
X105807Y161128D01*
X102756Y148031D02*
Y158077D01*
X106115Y147441D02*
X106903D01*
X105631Y147925D02*
X105658Y147898D01*
X106115Y147441D01*
X98256Y147898D02*
X105658D01*
X74827Y145665D02*
X81000D01*
X74331Y145169D02*
X74827Y145665D01*
X69722Y145169D02*
X74331D01*
X68967Y145923D02*
X69722Y145169D01*
X73442Y164400D02*
X73541Y164301D01*
Y161128D02*
Y164301D01*
X72026Y147441D02*
X72814D01*
X73271Y147898D01*
X73298Y147925D01*
X73271Y147898D02*
X76378D01*
Y158291D01*
X73541Y161128D02*
X76378Y158291D01*
X80673Y147898D02*
X81000Y148224D01*
X76772Y147898D02*
X80673D01*
X79527Y155918D02*
X79528Y155918D01*
X86828Y164793D02*
X86918Y164703D01*
Y160326D02*
Y164703D01*
Y160326D02*
X87008Y160236D01*
X86828Y188415D02*
X87312Y187931D01*
X83483Y185144D02*
X86777Y181850D01*
Y178509D02*
Y181850D01*
X86408Y178140D02*
X86777Y178509D01*
X82595Y177813D02*
X82922Y178140D01*
X86408D01*
X80922Y188415D02*
X80973Y188365D01*
X80922Y188415D02*
Y189203D01*
X81406Y189687D01*
X100607Y188415D02*
Y189203D01*
X256119Y188022D02*
Y188809D01*
X236434D02*
X236918Y189293D01*
X236434Y188022D02*
Y188809D01*
Y188022D02*
X236485Y187971D01*
X238107Y177419D02*
X238434Y177746D01*
X242340Y188022D02*
X242824Y187537D01*
X242430Y159933D02*
X242520Y159843D01*
X242430Y159933D02*
Y164310D01*
X242340Y164400D02*
X242430Y164310D01*
X239961Y132066D02*
X240137Y131890D01*
X243307D01*
X235039Y155525D02*
X235039Y155525D01*
X232283Y147504D02*
X236185D01*
X236512Y147831D01*
X228783Y147504D02*
X231890D01*
X228783D02*
X228810Y147531D01*
X228326Y147047D02*
X228783Y147504D01*
X227538Y147047D02*
X228326D01*
X229053Y160734D02*
Y163907D01*
X228954Y164006D02*
X229053Y163907D01*
X225233Y144776D02*
X229843D01*
X230339Y145272D01*
X236512D01*
X253768Y147504D02*
X261170D01*
X261627Y147047D01*
X261143Y147531D02*
X261170Y147504D01*
X261627Y147047D02*
X262414D01*
X258268Y147638D02*
Y157684D01*
X261318Y160734D01*
Y163693D01*
X261631Y164006D01*
X248245Y164400D02*
Y171169D01*
X251609Y174533D01*
X254710D01*
X255036Y174860D01*
Y179978D02*
X259657D01*
X261243Y178393D01*
X264584D01*
X250214Y177195D02*
X250438Y177419D01*
X255036D01*
X247879Y174860D02*
X250214Y177195D01*
X238107Y174860D02*
X247879D01*
X250214Y177195D02*
Y188022D01*
X242717Y144685D02*
Y146850D01*
X241071Y143039D02*
X242717Y144685D01*
X236839Y143039D02*
X241071D01*
X244488Y146850D02*
X246067Y145272D01*
X242717Y146850D02*
X244488D01*
X230484Y172301D02*
X236158D01*
X234859Y167278D02*
X235714Y168132D01*
Y171856D01*
X236158Y172301D01*
X238107D01*
X234859Y164006D02*
Y167278D01*
X255036Y172301D02*
X255280D01*
X255725Y171856D01*
Y164006D02*
Y171856D01*
X254921Y131672D02*
Y139709D01*
X254476Y140154D02*
X260639D01*
X254476D02*
X254921Y139709D01*
X253441Y142713D02*
X259409D01*
X261150Y144454D01*
X260639Y140154D02*
X261627Y141142D01*
X262414D01*
X253441Y140154D02*
X254476D01*
X264491Y172394D02*
X264584Y172487D01*
X255130Y172394D02*
X264491D01*
X255036Y172301D02*
X255130Y172394D01*
X233191Y179978D02*
X238107D01*
X232377Y179163D02*
X233191Y179978D01*
X228740Y179163D02*
X232377D01*
X228740Y173258D02*
X229528D01*
X230484Y172301D01*
X242540Y155525D02*
X242717Y155701D01*
X235039Y155525D02*
X242540D01*
X248622Y155701D02*
X248811Y155512D01*
X251969D01*
X255516D02*
X255529Y155525D01*
X251969Y155512D02*
X255516D01*
X264397Y144454D02*
X265474Y145530D01*
X261150Y144454D02*
X264397D01*
X242717Y146850D02*
Y155701D01*
X246067Y145272D02*
X253441D01*
X236512Y142713D02*
X236839Y143039D01*
X229314Y140154D02*
X234563D01*
X234055Y135338D02*
X234118Y135401D01*
Y139709D01*
X234563Y140154D01*
X236512D01*
X234055Y132066D02*
Y135338D01*
X227538Y141142D02*
X228326D01*
X229314Y140154D01*
X253441Y147831D02*
X253768Y147504D01*
X208465Y207243D02*
X208621Y207087D01*
X214173D01*
X202165Y206850D02*
X202559Y207243D01*
X154724Y244052D02*
X159252D01*
X209842Y252362D02*
X209941Y252264D01*
X216043D01*
X216142Y252165D01*
X200000Y242520D02*
Y246654D01*
X232874Y224410D02*
X235630D01*
X221654Y212008D02*
X233228D01*
X224925Y233268D02*
X227673Y230520D01*
Y229610D02*
Y230520D01*
Y229610D02*
X232874Y224410D01*
X221654Y233268D02*
X224925D01*
X221654Y222835D02*
Y227362D01*
Y217913D02*
Y222835D01*
X265551Y282283D02*
X265945D01*
X132423Y293097D02*
Y318364D01*
X123622Y312598D02*
X128409Y307811D01*
Y293020D02*
Y307811D01*
X126433Y293028D02*
Y300394D01*
X126441Y300402D01*
X126244Y300598D02*
X126441Y300402D01*
X126433Y293028D02*
X126441Y293020D01*
X126772Y314961D02*
Y315354D01*
X125197Y300984D02*
Y305906D01*
X122441Y299949D02*
X124472Y297917D01*
X122441Y299949D02*
Y303792D01*
X122504Y293020D02*
Y297181D01*
X118371Y301314D02*
X122504Y297181D01*
X120535Y293020D02*
Y296445D01*
X126772Y314961D02*
X130378Y311355D01*
Y293020D02*
Y311355D01*
X124472Y293020D02*
Y297917D01*
X138252Y305574D02*
X145276Y312598D01*
X138252Y293020D02*
Y305574D01*
X136283Y309118D02*
X140157Y312992D01*
X136283Y293020D02*
Y309118D01*
X134315Y313449D02*
X136614Y315748D01*
X115996Y310236D02*
X122441Y303792D01*
X115748Y310236D02*
X115996D01*
X123622Y312598D02*
Y312992D01*
X134315Y293020D02*
Y313449D01*
X132346Y293020D02*
X132423Y293097D01*
X120472Y310630D02*
X125197Y305906D01*
X118371Y301314D02*
Y304070D01*
X118110Y304331D02*
X118371Y304070D01*
X114434Y293528D02*
X118559D01*
X110316Y297646D02*
X114434Y293528D01*
X113956Y291740D02*
X115138Y290559D01*
X109528Y291740D02*
X113956D01*
X116795Y296791D02*
X118559Y295027D01*
Y293528D02*
Y295027D01*
X118567Y293020D02*
X118575Y293012D01*
X116795Y296791D02*
Y297055D01*
X115138Y290559D02*
X116106D01*
X177784Y344864D02*
Y351162D01*
X182331Y355709D01*
X94046Y278748D02*
X116106D01*
X87753Y287569D02*
X94605Y280716D01*
X116106D01*
X89540Y288310D02*
X95165Y282685D01*
X116106D01*
X91328Y289050D02*
X95724Y284653D01*
X116106D01*
X93115Y289790D02*
X96283Y286622D01*
X116106D01*
X94902Y290531D02*
X96842Y288591D01*
X116106D01*
X138252D02*
X142681D01*
X142582Y300205D02*
Y304535D01*
X222331Y355709D02*
X226878Y351162D01*
Y343988D02*
Y351162D01*
X250271Y250984D02*
X260507D01*
X148685Y280126D02*
Y280913D01*
X267323Y334646D02*
X276516Y325453D01*
Y265369D02*
Y325453D01*
X269259Y258112D02*
X276516Y265369D01*
X269259Y252847D02*
Y258112D01*
X267790Y251378D02*
X269259Y252847D01*
X267594Y251378D02*
X267790D01*
X257480Y336328D02*
Y336614D01*
Y336328D02*
X274728Y319080D01*
X256784Y343004D02*
Y346459D01*
X261581Y351256D01*
Y354959D01*
X248819Y335039D02*
X256784Y343004D01*
X242331Y344381D02*
X244365Y342347D01*
Y281299D02*
Y342347D01*
X247031Y350409D02*
X252331Y355709D01*
X259063Y283063D02*
Y286638D01*
Y283063D02*
X259842Y282283D01*
X260236D01*
X261581Y354959D02*
X262331Y355709D01*
X264772Y283063D02*
Y283457D01*
Y283063D02*
X265551Y282283D01*
X242331Y344381D02*
Y345709D01*
X253150Y302559D02*
X253937D01*
X255551Y304173D01*
X264173D01*
X268110Y308110D01*
Y315698D01*
X265773Y318035D02*
X268110Y315698D01*
X260310Y318035D02*
X265773D01*
X259400Y317126D02*
X260310Y318035D01*
X253150Y317126D02*
X259400D01*
X251542Y280028D02*
X252633Y278937D01*
X250755Y280028D02*
X251542D01*
X250271Y280512D02*
X250755Y280028D01*
X250271Y280512D02*
Y281299D01*
X252633Y278937D02*
X260236D01*
X260507Y271063D02*
X260507Y271063D01*
X250074Y271063D02*
X260507D01*
X259719Y261221D02*
X260507Y262008D01*
X250271Y261221D02*
X259719D01*
X260507Y250984D02*
X260901Y251378D01*
X161086Y297449D02*
Y298236D01*
Y297449D02*
X161571Y296965D01*
X163539D01*
X170141Y289181D02*
Y290362D01*
X153901Y295382D02*
X154697Y296177D01*
X149275Y290756D02*
X153901Y295382D01*
X155529Y293754D01*
X155972D01*
X161783Y291240D02*
X162661Y290362D01*
Y289181D02*
Y290362D01*
X149275Y289968D02*
Y290075D01*
X154697Y297752D02*
X155181Y298236D01*
X154697Y296177D02*
Y297752D01*
X144886Y284646D02*
X145469Y284063D01*
X142689Y284646D02*
X144886D01*
X142681Y284653D02*
X142689Y284646D01*
X145469Y281701D02*
Y284063D01*
X142681Y290559D02*
X148791D01*
X149275Y290075D01*
X142681Y286622D02*
X142689Y286630D01*
X142681Y280716D02*
X142689Y280724D01*
X142681Y278748D02*
X142689Y278756D01*
X99669Y267921D02*
X104197D01*
X129393Y279732D02*
X132346Y282685D01*
X138055Y288394D02*
X138252Y288591D01*
X100653Y292134D02*
X100850Y291937D01*
X105091D01*
X118559Y293528D02*
X118567Y293520D01*
X142189Y299811D02*
X142582Y300205D01*
X142189Y299024D02*
Y299811D01*
X140220Y297055D02*
X142189Y299024D01*
X140220Y293020D02*
Y297055D01*
X94937Y276787D02*
X116098D01*
X116106Y276780D01*
X116098Y272850D02*
X116106Y272843D01*
X100653Y299614D02*
X101834D01*
X103803Y297646D01*
X118567Y293020D02*
Y293520D01*
X114334Y262213D02*
X117590Y265469D01*
X108921Y262213D02*
X114334D01*
X102622D02*
X104590D01*
X108921D01*
X110496Y268905D02*
X116106D01*
X109708Y268118D02*
X110496Y268905D01*
X104197Y267921D02*
X108724D01*
X99472Y260244D02*
X100653D01*
X102622Y262213D01*
X108724Y267921D02*
X108921Y268118D01*
X99472Y267724D02*
X99669Y267921D01*
X108921Y268118D02*
X109708D01*
X132633Y237500D02*
X135586D01*
X131756Y236622D02*
X132633Y237500D01*
X140417Y236622D02*
X141598D01*
X141384Y244299D02*
Y245480D01*
X141598Y229142D02*
X142779D01*
X141196Y245669D02*
X141384Y245480D01*
D20*
X246850Y211299D02*
D03*
Y206299D02*
D03*
X276850Y211299D02*
D03*
Y206299D02*
D03*
D21*
X147165Y266535D02*
D03*
X150472D02*
D03*
X147165Y261417D02*
D03*
X150472D02*
D03*
X155197Y271654D02*
D03*
X151890D02*
D03*
D22*
X162008Y255118D02*
D03*
X156102D02*
D03*
X244365Y250984D02*
D03*
X250271D02*
D03*
X244365Y261221D02*
D03*
X250271D02*
D03*
X244168Y271063D02*
D03*
X250074D02*
D03*
X250271Y281299D02*
D03*
X244365D02*
D03*
X175953Y257500D02*
D03*
X170047D02*
D03*
X193110Y206850D02*
D03*
X187205D02*
D03*
X208465Y207243D02*
D03*
X202559D02*
D03*
X159252Y244052D02*
D03*
X165157D02*
D03*
X165551Y280315D02*
D03*
X171457D02*
D03*
X148622Y281102D02*
D03*
X154528D02*
D03*
X155181Y289968D02*
D03*
X149275D02*
D03*
X161086Y298236D02*
D03*
X155181D02*
D03*
X148094Y299811D02*
D03*
X142189D02*
D03*
X140748Y255512D02*
D03*
X146653D02*
D03*
X139173Y220079D02*
D03*
X145079D02*
D03*
X168701Y205160D02*
D03*
X174606D02*
D03*
X159646D02*
D03*
X153740D02*
D03*
X250214Y188022D02*
D03*
X256119D02*
D03*
X242340D02*
D03*
X236434D02*
D03*
X204544Y187628D02*
D03*
X198639D02*
D03*
X184859D02*
D03*
X190765D02*
D03*
X152182Y187234D02*
D03*
X146277D02*
D03*
X132497D02*
D03*
X138403D02*
D03*
X100607Y188415D02*
D03*
X94702D02*
D03*
X255725Y164006D02*
D03*
X261631D02*
D03*
X242340Y164400D02*
D03*
X248245D02*
D03*
X255529Y155525D02*
D03*
X261434D02*
D03*
X242717Y155701D02*
D03*
X248622D02*
D03*
X234859Y164006D02*
D03*
X228954D02*
D03*
X235039Y155525D02*
D03*
X229134D02*
D03*
X210056Y163612D02*
D03*
X204151D02*
D03*
X196670Y164006D02*
D03*
X190765D02*
D03*
X209859Y155131D02*
D03*
X203954D02*
D03*
X197047Y155307D02*
D03*
X191142D02*
D03*
X177379Y163612D02*
D03*
X183284D02*
D03*
X177559Y155131D02*
D03*
X183465D02*
D03*
X157694Y163219D02*
D03*
X151788D02*
D03*
X144308Y163612D02*
D03*
X138403D02*
D03*
X125017Y163219D02*
D03*
X130922D02*
D03*
X157497Y154737D02*
D03*
X151592D02*
D03*
X144685Y154913D02*
D03*
X138779D02*
D03*
X125197Y154737D02*
D03*
X131102D02*
D03*
X254921Y131672D02*
D03*
X249016D02*
D03*
X234055Y132066D02*
D03*
X239961D02*
D03*
X197441Y131279D02*
D03*
X203346D02*
D03*
X188386Y131672D02*
D03*
X182480D02*
D03*
X145079Y130885D02*
D03*
X150984D02*
D03*
X130118Y131279D02*
D03*
X136024D02*
D03*
X80922Y188415D02*
D03*
X86828D02*
D03*
X106119Y164400D02*
D03*
X100214D02*
D03*
X92733Y164793D02*
D03*
X86828D02*
D03*
X73442Y164400D02*
D03*
X79347D02*
D03*
X93110Y156095D02*
D03*
X87205D02*
D03*
X105922Y155918D02*
D03*
X100017D02*
D03*
X73622Y155918D02*
D03*
X79528D02*
D03*
X93504Y132066D02*
D03*
X99410D02*
D03*
X84449Y132460D02*
D03*
X78543D02*
D03*
D23*
X262205Y227756D02*
D03*
Y233661D02*
D03*
X200000Y246654D02*
D03*
Y252559D02*
D03*
X221654Y233268D02*
D03*
Y227362D02*
D03*
Y212008D02*
D03*
Y217913D02*
D03*
X182500Y265547D02*
D03*
Y271453D02*
D03*
X109315Y297646D02*
D03*
Y291740D02*
D03*
X87008Y328346D02*
D03*
Y322441D02*
D03*
X78740Y328543D02*
D03*
Y322638D02*
D03*
X253150Y302559D02*
D03*
Y308465D02*
D03*
Y317126D02*
D03*
Y323031D02*
D03*
X108921Y268118D02*
D03*
Y262213D02*
D03*
X124803Y172470D02*
D03*
Y178376D02*
D03*
X160647Y171700D02*
D03*
Y177605D02*
D03*
X177165Y172864D02*
D03*
Y178770D02*
D03*
X213009Y172094D02*
D03*
Y177999D02*
D03*
X228740Y179163D02*
D03*
Y173258D02*
D03*
X264584Y178393D02*
D03*
Y172487D02*
D03*
X262414Y141142D02*
D03*
Y147047D02*
D03*
X227538Y141142D02*
D03*
Y147047D02*
D03*
X210840Y146653D02*
D03*
Y140748D02*
D03*
X175964Y146653D02*
D03*
Y140748D02*
D03*
X158477Y146260D02*
D03*
Y140354D02*
D03*
X123601Y146260D02*
D03*
Y140354D02*
D03*
X73228Y173652D02*
D03*
Y179557D02*
D03*
X109072Y172881D02*
D03*
Y178787D02*
D03*
X72026Y147441D02*
D03*
Y141535D02*
D03*
X106903Y147441D02*
D03*
Y141535D02*
D03*
D24*
X165972Y272043D02*
D03*
X175028D02*
D03*
Y264957D02*
D03*
X165972D02*
D03*
D25*
X216142Y252165D02*
D03*
Y244685D02*
D03*
X99472Y292134D02*
D03*
Y299614D02*
D03*
Y260244D02*
D03*
Y267724D02*
D03*
X131756Y236622D02*
D03*
Y229142D02*
D03*
X141598Y236622D02*
D03*
Y229142D02*
D03*
D26*
X222028Y310236D02*
D03*
D27*
X181280Y300236D02*
D03*
Y310236D02*
D03*
Y320236D02*
D03*
D28*
X207476Y217938D02*
D03*
Y227038D02*
D03*
Y236138D02*
D03*
D29*
X183075Y227038D02*
D03*
D30*
X170141Y289181D02*
D03*
X162661D02*
D03*
X69882Y327165D02*
D03*
X62402D02*
D03*
X148622Y246850D02*
D03*
X141142D02*
D03*
D31*
X163386Y312106D02*
D03*
Y325689D02*
D03*
D32*
X96732Y326378D02*
D03*
X107205D02*
D03*
D33*
X154705Y234547D02*
D03*
X159705D02*
D03*
X164705D02*
D03*
X169705D02*
D03*
Y215059D02*
D03*
X164705D02*
D03*
X159705D02*
D03*
X154705D02*
D03*
D34*
X97929Y140547D02*
D03*
Y143106D02*
D03*
Y145665D02*
D03*
Y148224D02*
D03*
X81000D02*
D03*
Y145665D02*
D03*
Y143106D02*
D03*
Y140547D02*
D03*
X186532Y171907D02*
D03*
Y174467D02*
D03*
Y177026D02*
D03*
Y179585D02*
D03*
X203462D02*
D03*
Y177026D02*
D03*
Y174467D02*
D03*
Y171907D02*
D03*
X184937Y139760D02*
D03*
Y142319D02*
D03*
Y144878D02*
D03*
Y147437D02*
D03*
X201866D02*
D03*
Y144878D02*
D03*
Y142319D02*
D03*
Y139760D02*
D03*
X134170Y171514D02*
D03*
Y174073D02*
D03*
Y176632D02*
D03*
Y179191D02*
D03*
X151099D02*
D03*
Y176632D02*
D03*
Y174073D02*
D03*
Y171514D02*
D03*
X132575Y139366D02*
D03*
Y141925D02*
D03*
Y144484D02*
D03*
Y147043D02*
D03*
X149504D02*
D03*
Y144484D02*
D03*
Y141925D02*
D03*
Y139366D02*
D03*
X82595Y172695D02*
D03*
Y175254D02*
D03*
Y177813D02*
D03*
Y180372D02*
D03*
X99525D02*
D03*
Y177813D02*
D03*
Y175254D02*
D03*
Y172695D02*
D03*
X255036Y172301D02*
D03*
Y174860D02*
D03*
Y177419D02*
D03*
Y179978D02*
D03*
X238107D02*
D03*
Y177419D02*
D03*
Y174860D02*
D03*
Y172301D02*
D03*
X253441Y140154D02*
D03*
Y142713D02*
D03*
Y145272D02*
D03*
Y147831D02*
D03*
X236512D02*
D03*
Y145272D02*
D03*
Y142713D02*
D03*
Y140154D02*
D03*
D35*
X260236Y278937D02*
D03*
X265945D02*
D03*
X260236Y282283D02*
D03*
X265945D02*
D03*
D36*
X267200Y271063D02*
D03*
X260507D02*
D03*
X260901Y251378D02*
D03*
X267594D02*
D03*
X267200Y262008D02*
D03*
X260507D02*
D03*
D37*
X118567Y266445D02*
D03*
X120535D02*
D03*
X122504D02*
D03*
X124472D02*
D03*
X126441D02*
D03*
X128409D02*
D03*
X130378D02*
D03*
X132346D02*
D03*
X134315D02*
D03*
X136283D02*
D03*
X138252D02*
D03*
X140220D02*
D03*
Y293020D02*
D03*
X138252D02*
D03*
X136283D02*
D03*
X134315D02*
D03*
X132346D02*
D03*
X130378D02*
D03*
X128409D02*
D03*
X126441D02*
D03*
X124472D02*
D03*
X122504D02*
D03*
X120535D02*
D03*
X118567D02*
D03*
D38*
X142681Y268905D02*
D03*
Y270874D02*
D03*
Y272843D02*
D03*
Y274811D02*
D03*
Y276780D02*
D03*
Y278748D02*
D03*
Y280716D02*
D03*
Y282685D02*
D03*
Y284653D02*
D03*
Y286622D02*
D03*
Y288591D02*
D03*
Y290559D02*
D03*
X116106D02*
D03*
Y288591D02*
D03*
Y286622D02*
D03*
Y284653D02*
D03*
Y282685D02*
D03*
Y280716D02*
D03*
Y278748D02*
D03*
Y276780D02*
D03*
Y274811D02*
D03*
Y272843D02*
D03*
Y270874D02*
D03*
Y268905D02*
D03*
D39*
X129393Y279732D02*
D03*
D68*
X182547Y265500D02*
X186921D01*
X175953Y257500D02*
X179500D01*
X156515Y274811D02*
X164913Y266413D01*
X142681Y274811D02*
X156515D01*
X157106Y279073D02*
X164908D01*
X154813Y276780D02*
X157106Y279073D01*
X142681Y276780D02*
X154813D01*
X182500Y265547D02*
X183500D01*
X175618D02*
X182500D01*
X164908Y279073D02*
X165547Y279713D01*
X170047Y257500D02*
Y261276D01*
X166366Y264957D02*
X170047Y261276D01*
X165972Y264957D02*
X166366D01*
X182500Y265547D02*
X182547Y265500D01*
X175028Y264957D02*
X175618Y265547D01*
X175953Y257500D02*
Y264032D01*
X175028Y264957D02*
X175953Y264032D01*
X165547Y279713D02*
Y280500D01*
D69*
X164567Y323327D02*
X165793Y324553D01*
X115866Y335039D02*
X149323D01*
X153543Y330819D01*
X178347Y321053D02*
Y325984D01*
X163681D02*
X178347D01*
X153543Y318406D02*
Y330819D01*
X163386Y325689D02*
X163681Y325984D01*
X153543Y318406D02*
X162205Y309744D01*
X164567D01*
X163386Y312106D02*
X164439Y311053D01*
X180463D01*
X181280Y310236D01*
X109459Y328632D02*
X115866Y335039D01*
X108199Y328632D02*
X109459D01*
X107205Y327638D02*
X108199Y328632D01*
X107205Y326378D02*
Y327638D01*
X164567Y309744D02*
X164813Y309990D01*
X181280Y300236D02*
X181516Y300000D01*
X189764D01*
X178347Y321053D02*
X179163Y320236D01*
X181280D01*
X183075Y227038D02*
X207476D01*
X197819Y216746D02*
X199010Y217938D01*
X207476D01*
X189764Y300000D02*
X216929Y272835D01*
X217323Y244685D02*
X220501Y247863D01*
X216142Y244685D02*
X217323D01*
X216142Y233704D02*
Y244685D01*
X209476Y227038D02*
X216142Y233704D01*
X220501Y247863D02*
X222855D01*
X207476Y227038D02*
X209476D01*
X216504Y272409D02*
X216929Y272835D01*
X216504Y268807D02*
Y272409D01*
X200256Y252559D02*
X216504Y268807D01*
X200000Y252559D02*
X200256D01*
X207476Y236138D02*
Y245339D01*
X200256Y252559D02*
X207476Y245339D01*
X181280Y310236D02*
X222028D01*
D70*
X164913Y265622D02*
Y266413D01*
Y265622D02*
X165579Y264957D01*
X165972D01*
X172764Y273913D02*
Y274307D01*
Y273913D02*
X174634Y272043D01*
X175028D01*
D71*
X148622Y246850D02*
X148865Y246608D01*
X148622Y246850D02*
X148865D01*
Y248773D02*
X149501Y249410D01*
X148622Y248924D02*
X148865Y249167D01*
X148622Y248924D02*
Y252756D01*
X149501Y249410D02*
X152362D01*
X146653Y254724D02*
X148622Y252756D01*
D72*
X244365Y261976D02*
X247000Y264611D01*
Y273500D01*
X244365Y261221D02*
Y261976D01*
X247000Y273500D02*
X249091Y275590D01*
X255512D01*
X244365Y250984D02*
Y261221D01*
X262370Y275590D02*
X263785Y277005D01*
Y277170D01*
X265551Y278937D01*
X265945D01*
X255512Y275590D02*
X262370D01*
D73*
X62402Y325984D02*
X67520Y320866D01*
X72441D01*
X62402Y325984D02*
Y327165D01*
X72441Y320866D02*
X72654D01*
X74426Y322638D01*
X78740D01*
X78937Y322441D01*
X87008D01*
X78740Y328543D02*
Y335827D01*
X77559Y337008D02*
X78740Y335827D01*
X77559Y337008D02*
Y350480D01*
X77953Y328543D02*
X78740D01*
X70472D02*
X77953D01*
X69882Y327165D02*
Y327953D01*
X70472Y328543D01*
X96732Y326378D02*
Y326890D01*
X95276Y328346D02*
X96732Y326890D01*
X87008Y328346D02*
X95276D01*
X86811Y328543D02*
X87008Y328346D01*
X78740Y328543D02*
X86811D01*
X77756Y328740D02*
X77953Y328543D01*
X72331Y355709D02*
X77559Y350480D01*
D74*
X276772Y231890D02*
D03*
X224803Y272835D02*
D03*
X216929D02*
D03*
X264173Y294173D02*
D03*
Y304173D02*
D03*
Y324173D02*
D03*
Y314173D02*
D03*
D75*
X245276Y106486D02*
D03*
X255276Y116486D02*
D03*
Y96486D02*
D03*
X235276Y116486D02*
D03*
Y96486D02*
D03*
X194095Y106093D02*
D03*
X204095Y116093D02*
D03*
Y96092D02*
D03*
X184095Y116093D02*
D03*
Y96092D02*
D03*
X140945Y105699D02*
D03*
X150945Y115699D02*
D03*
Y95699D02*
D03*
X130945Y115699D02*
D03*
Y95699D02*
D03*
X89764Y106880D02*
D03*
X99764Y116880D02*
D03*
Y96880D02*
D03*
X79764Y116880D02*
D03*
Y96880D02*
D03*
D76*
X72331Y345709D02*
D03*
D77*
Y355709D02*
D03*
X82331Y345709D02*
D03*
Y355709D02*
D03*
X92331Y345709D02*
D03*
Y355709D02*
D03*
X102331Y345709D02*
D03*
Y355709D02*
D03*
X112331Y345709D02*
D03*
Y355709D02*
D03*
X122331Y345709D02*
D03*
Y355709D02*
D03*
X132331Y345709D02*
D03*
Y355709D02*
D03*
X142331Y345709D02*
D03*
Y355709D02*
D03*
X152331Y345709D02*
D03*
Y355709D02*
D03*
X162331Y345709D02*
D03*
Y355709D02*
D03*
X172331Y345709D02*
D03*
Y355709D02*
D03*
X182331Y345709D02*
D03*
Y355709D02*
D03*
X192331Y345709D02*
D03*
Y355709D02*
D03*
X202331Y345709D02*
D03*
Y355709D02*
D03*
X212331Y345709D02*
D03*
Y355709D02*
D03*
X222331Y345709D02*
D03*
Y355709D02*
D03*
X262331D02*
D03*
Y345709D02*
D03*
X252331Y355709D02*
D03*
Y345709D02*
D03*
X242331Y355709D02*
D03*
Y345709D02*
D03*
X232331Y355709D02*
D03*
Y345709D02*
D03*
D78*
X98032Y232992D02*
D03*
D79*
Y212992D02*
D03*
D80*
X53158Y350709D02*
D03*
Y157795D02*
D03*
X281504Y350709D02*
D03*
Y157795D02*
D03*
D81*
X236614Y184252D02*
D03*
X184646D02*
D03*
X132548Y183963D02*
D03*
X80973Y185144D02*
D03*
X83278Y155918D02*
D03*
X134853Y154737D02*
D03*
X187215Y155131D02*
D03*
X238790Y155525D02*
D03*
X155512Y267323D02*
D03*
X159843Y260630D02*
D03*
X159055Y267717D02*
D03*
X158661Y286614D02*
D03*
X154724Y263386D02*
D03*
X152362Y249410D02*
D03*
X146175Y287228D02*
D03*
X151906Y285228D02*
D03*
X146850Y241339D02*
D03*
X268504Y227165D02*
D03*
X256299Y236221D02*
D03*
X194882Y237008D02*
D03*
X176378Y241732D02*
D03*
X132677Y257087D02*
D03*
X133465Y261811D02*
D03*
X244000Y276000D02*
D03*
X179421Y257315D02*
D03*
X186921Y265315D02*
D03*
X146850Y330709D02*
D03*
X178347Y325984D02*
D03*
X183731Y326259D02*
D03*
X190945Y321260D02*
D03*
X83858Y307480D02*
D03*
X129393Y254142D02*
D03*
X261417Y187795D02*
D03*
X209449Y187402D02*
D03*
X157087Y187192D02*
D03*
X105905Y188005D02*
D03*
X194702Y187628D02*
D03*
X87795Y132283D02*
D03*
X262205Y136417D02*
D03*
X261614Y150984D02*
D03*
X228346Y151181D02*
D03*
X210827Y135728D02*
D03*
X210335Y150787D02*
D03*
X177076Y151090D02*
D03*
X158563Y135827D02*
D03*
X158079Y150696D02*
D03*
X124612D02*
D03*
X73032Y151772D02*
D03*
X106398D02*
D03*
X106693Y137008D02*
D03*
X165748Y294882D02*
D03*
X169685Y246063D02*
D03*
X266535Y267323D02*
D03*
X197638Y206850D02*
D03*
X266929Y160236D02*
D03*
X248425Y160236D02*
D03*
X219291Y159843D02*
D03*
X196850D02*
D03*
X144488Y159449D02*
D03*
X166929D02*
D03*
X115354Y160630D02*
D03*
X92913D02*
D03*
X68967Y152432D02*
D03*
X72047Y137402D02*
D03*
X120542Y151854D02*
D03*
X124016Y136221D02*
D03*
X224016Y152756D02*
D03*
X227559Y137008D02*
D03*
X175984Y136614D02*
D03*
X172835Y151969D02*
D03*
X72441Y320866D02*
D03*
X111417Y305906D02*
D03*
X146850Y326772D02*
D03*
X178326Y331664D02*
D03*
X183444D02*
D03*
X179921Y205118D02*
D03*
X131890Y223622D02*
D03*
X148031Y205118D02*
D03*
X192434Y216472D02*
D03*
X197531Y222152D02*
D03*
X197819Y216746D02*
D03*
X192413Y222152D02*
D03*
X174803Y214961D02*
D03*
X169685Y241339D02*
D03*
X246277Y188022D02*
D03*
X135433Y220079D02*
D03*
X200394Y155118D02*
D03*
X191732Y131496D02*
D03*
X190945Y159449D02*
D03*
X148031Y154724D02*
D03*
X139370Y131102D02*
D03*
X138583Y159055D02*
D03*
X142340Y187234D02*
D03*
X96457Y155905D02*
D03*
X87008Y160236D02*
D03*
X90765Y188415D02*
D03*
X242520Y159843D02*
D03*
X243307Y131890D02*
D03*
X251969Y155512D02*
D03*
X214173Y207087D02*
D03*
X154724Y244052D02*
D03*
X149606Y220079D02*
D03*
X222835Y253543D02*
D03*
X227953D02*
D03*
X228240Y248138D02*
D03*
X222855Y247863D02*
D03*
X209842Y252362D02*
D03*
X200000Y242520D02*
D03*
X221654Y222835D02*
D03*
X132423Y318364D02*
D03*
X126772Y315354D02*
D03*
X125197Y300984D02*
D03*
X115748Y297441D02*
D03*
X145276Y312598D02*
D03*
X140157Y312992D02*
D03*
X136614Y315748D02*
D03*
X115748Y310236D02*
D03*
X123622Y312992D02*
D03*
X120472Y310630D02*
D03*
X118110Y304331D02*
D03*
X147897Y304535D02*
D03*
X142582D02*
D03*
X255512Y275590D02*
D03*
X267323Y334646D02*
D03*
X257480Y336614D02*
D03*
X105091Y291937D02*
D03*
X104197Y267921D02*
D03*
X104590Y262213D02*
D03*
D82*
X120732Y271071D02*
D03*
Y275402D02*
D03*
Y279732D02*
D03*
Y284063D02*
D03*
Y288394D02*
D03*
X125063Y271071D02*
D03*
Y275402D02*
D03*
Y279732D02*
D03*
Y284063D02*
D03*
Y288394D02*
D03*
X129393Y271071D02*
D03*
Y275402D02*
D03*
Y279732D02*
D03*
Y284063D02*
D03*
Y288394D02*
D03*
X133724Y271071D02*
D03*
Y275402D02*
D03*
Y279732D02*
D03*
Y284063D02*
D03*
Y288394D02*
D03*
X138055Y271071D02*
D03*
Y275402D02*
D03*
Y279732D02*
D03*
Y284063D02*
D03*
Y288394D02*
D03*
M02*
