G04*
G04 #@! TF.GenerationSoftware,Altium Limited,Altium Designer,19.1.8 (144)*
G04*
G04 Layer_Color=65535*
%FSLAX25Y25*%
%MOIN*%
G70*
G01*
G75*
%ADD10C,0.00394*%
%ADD11C,0.00787*%
%ADD12C,0.00500*%
%ADD13C,0.00000*%
%ADD14C,0.01000*%
%ADD15C,0.00984*%
%ADD16C,0.00800*%
%ADD17C,0.00600*%
%ADD18C,0.00315*%
%ADD19R,0.01000X0.04000*%
D10*
X232677Y272835D02*
G03*
X232677Y272835I-11811J0D01*
G01*
X206694Y271654D02*
Y274277D01*
X205382Y272966D02*
X208005D01*
X244488Y177558D02*
Y175918D01*
X244816Y175591D01*
X245472D01*
X245800Y175918D01*
Y177558D01*
X247768D02*
X246456D01*
Y176575D01*
X247112Y176902D01*
X247440D01*
X247768Y176575D01*
Y175918D01*
X247440Y175591D01*
X246784D01*
X246456Y175918D01*
X193307Y177165D02*
Y175525D01*
X193635Y175197D01*
X194291D01*
X194619Y175525D01*
Y177165D01*
X196587D02*
X195275D01*
Y176181D01*
X195931Y176509D01*
X196259D01*
X196587Y176181D01*
Y175525D01*
X196259Y175197D01*
X195603D01*
X195275Y175525D01*
X140551Y176377D02*
Y174737D01*
X140879Y174409D01*
X141535D01*
X141863Y174737D01*
Y176377D01*
X143831D02*
X142519D01*
Y175393D01*
X143175Y175721D01*
X143503D01*
X143831Y175393D01*
Y174737D01*
X143503Y174409D01*
X142847D01*
X142519Y174737D01*
X243701Y145275D02*
Y143635D01*
X244029Y143307D01*
X244685D01*
X245013Y143635D01*
Y145275D01*
X245669Y143307D02*
X246325D01*
X245997D01*
Y145275D01*
X245669Y144947D01*
X192126Y144881D02*
Y143241D01*
X192454Y142913D01*
X193110D01*
X193438Y143241D01*
Y144881D01*
X194094Y142913D02*
X194750D01*
X194422D01*
Y144881D01*
X194094Y144553D01*
X139370Y144094D02*
Y142454D01*
X139698Y142126D01*
X140354D01*
X140682Y142454D01*
Y144094D01*
X141338Y142126D02*
X141994D01*
X141666D01*
Y144094D01*
X141338Y143766D01*
X88976Y177165D02*
Y175525D01*
X89304Y175197D01*
X89960D01*
X90288Y175525D01*
Y177165D01*
X92256D02*
X90944D01*
Y176181D01*
X91600Y176509D01*
X91928D01*
X92256Y176181D01*
Y175525D01*
X91928Y175197D01*
X91272D01*
X90944Y175525D01*
X88189Y145275D02*
Y143635D01*
X88517Y143307D01*
X89173D01*
X89501Y143635D01*
Y145275D01*
X90157Y143307D02*
X90813D01*
X90485D01*
Y145275D01*
X90157Y144947D01*
X217388Y148031D02*
X217716Y147704D01*
Y147048D01*
X217388Y146720D01*
X217060D01*
X216732Y147048D01*
Y147376D01*
Y147048D01*
X216404Y146720D01*
X216076D01*
X215748Y147048D01*
Y147704D01*
X216076Y148031D01*
X217388Y146064D02*
X217716Y145736D01*
Y145080D01*
X217388Y144752D01*
X217060D01*
X216732Y145080D01*
Y145408D01*
Y145080D01*
X216404Y144752D01*
X216076D01*
X215748Y145080D01*
Y145736D01*
X216076Y146064D01*
X217388Y144096D02*
X217716Y143768D01*
Y143112D01*
X217388Y142784D01*
X216076D01*
X215748Y143112D01*
Y143768D01*
X216076Y144096D01*
X217388D01*
X215092Y142128D02*
X217060D01*
Y141144D01*
X216732Y140816D01*
X216076D01*
X215748Y141144D01*
Y142128D01*
X217716Y138848D02*
Y140160D01*
X216732D01*
Y139504D01*
Y140160D01*
X215748D01*
X170866Y158531D02*
Y159843D01*
X172178Y158531D01*
X172506D01*
X172834Y158859D01*
Y159514D01*
X172506Y159843D01*
X170866Y157875D02*
X171194D01*
Y157547D01*
X170866D01*
Y157875D01*
Y154923D02*
Y156235D01*
X172178Y154923D01*
X172506D01*
X172834Y155251D01*
Y155907D01*
X172506Y156235D01*
X172178Y154267D02*
X171194D01*
X170866Y153939D01*
Y152955D01*
X172178D01*
X172834Y150987D02*
Y152299D01*
X171850D01*
Y151643D01*
Y152299D01*
X170866D01*
X213484Y158366D02*
X213812D01*
Y158038D01*
X213484D01*
Y158366D01*
Y156726D02*
Y156070D01*
Y156398D01*
X215452D01*
X215124Y156726D01*
X214796Y155086D02*
X213812D01*
X213484Y154758D01*
Y153774D01*
X214796D01*
X215452Y151807D02*
Y153119D01*
X214468D01*
Y152463D01*
Y153119D01*
X213484D01*
X216240Y158268D02*
X216568D01*
Y157940D01*
X216240D01*
Y158268D01*
Y156628D02*
Y155972D01*
Y156300D01*
X218208D01*
X217880Y156628D01*
X217552Y154988D02*
X216568D01*
X216240Y154660D01*
Y153676D01*
X217552D01*
X218208Y151708D02*
Y153020D01*
X217224D01*
Y152364D01*
Y153020D01*
X216240D01*
X170931Y148031D02*
X171259Y147704D01*
Y147048D01*
X170931Y146720D01*
X170603D01*
X170275Y147048D01*
Y147376D01*
Y147048D01*
X169947Y146720D01*
X169619D01*
X169291Y147048D01*
Y147704D01*
X169619Y148031D01*
X170931Y146064D02*
X171259Y145736D01*
Y145080D01*
X170931Y144752D01*
X170603D01*
X170275Y145080D01*
Y145408D01*
Y145080D01*
X169947Y144752D01*
X169619D01*
X169291Y145080D01*
Y145736D01*
X169619Y146064D01*
X170931Y144096D02*
X171259Y143768D01*
Y143112D01*
X170931Y142784D01*
X169619D01*
X169291Y143112D01*
Y143768D01*
X169619Y144096D01*
X170931D01*
X168635Y142128D02*
X170603D01*
Y141144D01*
X170275Y140816D01*
X169619D01*
X169291Y141144D01*
Y142128D01*
X171259Y138848D02*
Y140160D01*
X170275D01*
Y139504D01*
Y140160D01*
X169291D01*
X214272Y167717D02*
X214600D01*
Y167389D01*
X214272D01*
Y167717D01*
Y166077D02*
Y165421D01*
Y165749D01*
X216240D01*
X215912Y166077D01*
X215584Y164437D02*
X214600D01*
X214272Y164109D01*
Y163125D01*
X215584D01*
X216240Y161157D02*
Y162469D01*
X215256D01*
Y161813D01*
Y162469D01*
X214272D01*
X178740Y190814D02*
Y192126D01*
X180052Y190814D01*
X180380D01*
X180708Y191142D01*
Y191798D01*
X180380Y192126D01*
X178740Y190158D02*
X179068D01*
Y189830D01*
X178740D01*
Y190158D01*
Y187206D02*
Y188518D01*
X180052Y187206D01*
X180380D01*
X180708Y187534D01*
Y188190D01*
X180380Y188518D01*
X180052Y186550D02*
X179068D01*
X178740Y186222D01*
Y185239D01*
X180052D01*
X180708Y183271D02*
Y184582D01*
X179724D01*
Y183927D01*
Y184582D01*
X178740D01*
X209449Y190945D02*
X209777D01*
Y190617D01*
X209449D01*
Y190945D01*
Y189305D02*
Y188649D01*
Y188977D01*
X211417D01*
X211089Y189305D01*
X210761Y187665D02*
X209777D01*
X209449Y187337D01*
Y186353D01*
X210761D01*
X211417Y184385D02*
Y185697D01*
X210433D01*
Y185041D01*
Y185697D01*
X209449D01*
X209120Y134252D02*
X209448Y133924D01*
Y133268D01*
X209120Y132940D01*
X208792D01*
X208464Y133268D01*
Y133596D01*
Y133268D01*
X208136Y132940D01*
X207808D01*
X207480Y133268D01*
Y133924D01*
X207808Y134252D01*
X209120Y132284D02*
X209448Y131956D01*
Y131300D01*
X209120Y130972D01*
X208792D01*
X208464Y131300D01*
Y131628D01*
Y131300D01*
X208136Y130972D01*
X207808D01*
X207480Y131300D01*
Y131956D01*
X207808Y132284D01*
X209120Y130316D02*
X209448Y129988D01*
Y129332D01*
X209120Y129004D01*
X207808D01*
X207480Y129332D01*
Y129988D01*
X207808Y130316D01*
X209120D01*
X178018Y134252D02*
X178346Y133924D01*
Y133268D01*
X178018Y132940D01*
X177690D01*
X177362Y133268D01*
Y133596D01*
Y133268D01*
X177034Y132940D01*
X176706D01*
X176378Y133268D01*
Y133924D01*
X176706Y134252D01*
X178018Y132284D02*
X178346Y131956D01*
Y131300D01*
X178018Y130972D01*
X177690D01*
X177362Y131300D01*
Y131628D01*
Y131300D01*
X177034Y130972D01*
X176706D01*
X176378Y131300D01*
Y131956D01*
X176706Y132284D01*
X178018Y130316D02*
X178346Y129988D01*
Y129332D01*
X178018Y129004D01*
X176706D01*
X176378Y129332D01*
Y129988D01*
X176706Y130316D01*
X178018D01*
X217717Y178347D02*
Y177690D01*
Y178018D01*
X219684D01*
X219356Y178347D01*
X219684Y175395D02*
Y176707D01*
X218701D01*
X219028Y176051D01*
Y175723D01*
X218701Y175395D01*
X218044D01*
X217717Y175723D01*
Y176379D01*
X218044Y176707D01*
X219356Y174739D02*
X219684Y174411D01*
Y173755D01*
X219356Y173427D01*
X218044D01*
X217717Y173755D01*
Y174411D01*
X218044Y174739D01*
X219356D01*
X217717Y172771D02*
X219684D01*
X218373D02*
X219028Y171787D01*
X218373Y172771D02*
X217717Y171787D01*
X217028Y166142D02*
Y165486D01*
Y165814D01*
X218995D01*
X218668Y166142D01*
Y164502D02*
X218995Y164174D01*
Y163518D01*
X218668Y163190D01*
X217355D01*
X217028Y163518D01*
Y164174D01*
X217355Y164502D01*
X218668D01*
X217028Y162534D02*
X218995D01*
X217684D02*
X218339Y161550D01*
X217684Y162534D02*
X217028Y161550D01*
X170866Y166929D02*
Y166273D01*
Y166601D01*
X172834D01*
X172506Y166929D01*
Y165289D02*
X172834Y164961D01*
Y164305D01*
X172506Y163977D01*
X171194D01*
X170866Y164305D01*
Y164961D01*
X171194Y165289D01*
X172506D01*
X170866Y163321D02*
X172834D01*
X171522D02*
X172178Y162337D01*
X171522Y163321D02*
X170866Y162337D01*
X170472Y178740D02*
Y178084D01*
Y178412D01*
X172440D01*
X172112Y178740D01*
X172440Y175788D02*
Y177100D01*
X171456D01*
X171784Y176444D01*
Y176116D01*
X171456Y175788D01*
X170800D01*
X170472Y176116D01*
Y176772D01*
X170800Y177100D01*
X172112Y175132D02*
X172440Y174804D01*
Y174148D01*
X172112Y173820D01*
X170800D01*
X170472Y174148D01*
Y174804D01*
X170800Y175132D01*
X172112D01*
X170472Y173165D02*
X172440D01*
X171128D02*
X171784Y172181D01*
X171128Y173165D02*
X170472Y172181D01*
X165026Y147638D02*
X165354Y147310D01*
Y146654D01*
X165026Y146326D01*
X164698D01*
X164370Y146654D01*
Y146982D01*
Y146654D01*
X164042Y146326D01*
X163714D01*
X163386Y146654D01*
Y147310D01*
X163714Y147638D01*
X165026Y145670D02*
X165354Y145342D01*
Y144686D01*
X165026Y144358D01*
X164698D01*
X164370Y144686D01*
Y145014D01*
Y144686D01*
X164042Y144358D01*
X163714D01*
X163386Y144686D01*
Y145342D01*
X163714Y145670D01*
X165026Y143702D02*
X165354Y143374D01*
Y142718D01*
X165026Y142390D01*
X163714D01*
X163386Y142718D01*
Y143374D01*
X163714Y143702D01*
X165026D01*
X162730Y141734D02*
X164698D01*
Y140750D01*
X164370Y140422D01*
X163714D01*
X163386Y140750D01*
Y141734D01*
X165354Y138454D02*
Y139766D01*
X164370D01*
Y139110D01*
Y139766D01*
X163386D01*
X118110Y158531D02*
Y159843D01*
X119422Y158531D01*
X119750D01*
X120078Y158859D01*
Y159514D01*
X119750Y159843D01*
X118110Y157875D02*
X118438D01*
Y157547D01*
X118110D01*
Y157875D01*
Y154923D02*
Y156235D01*
X119422Y154923D01*
X119750D01*
X120078Y155251D01*
Y155907D01*
X119750Y156235D01*
X119422Y154267D02*
X118438D01*
X118110Y153939D01*
Y152955D01*
X119422D01*
X120078Y150987D02*
Y152299D01*
X119094D01*
Y151643D01*
Y152299D01*
X118110D01*
X162205Y157874D02*
X162533D01*
Y157546D01*
X162205D01*
Y157874D01*
Y156234D02*
Y155578D01*
Y155906D01*
X164173D01*
X163845Y156234D01*
X163517Y154594D02*
X162533D01*
X162205Y154266D01*
Y153282D01*
X163517D01*
X164173Y151314D02*
Y152626D01*
X163189D01*
Y151970D01*
Y152626D01*
X162205D01*
X165354Y157874D02*
X165682D01*
Y157546D01*
X165354D01*
Y157874D01*
Y156234D02*
Y155578D01*
Y155906D01*
X167322D01*
X166994Y156234D01*
X166666Y154594D02*
X165682D01*
X165354Y154266D01*
Y153282D01*
X166666D01*
X167322Y151314D02*
Y152626D01*
X166338D01*
Y151970D01*
Y152626D01*
X165354D01*
X118963Y147638D02*
X119291Y147310D01*
Y146654D01*
X118963Y146326D01*
X118635D01*
X118307Y146654D01*
Y146982D01*
Y146654D01*
X117979Y146326D01*
X117651D01*
X117323Y146654D01*
Y147310D01*
X117651Y147638D01*
X118963Y145670D02*
X119291Y145342D01*
Y144686D01*
X118963Y144358D01*
X118635D01*
X118307Y144686D01*
Y145014D01*
Y144686D01*
X117979Y144358D01*
X117651D01*
X117323Y144686D01*
Y145342D01*
X117651Y145670D01*
X118963Y143702D02*
X119291Y143374D01*
Y142718D01*
X118963Y142390D01*
X117651D01*
X117323Y142718D01*
Y143374D01*
X117651Y143702D01*
X118963D01*
X116667Y141734D02*
X118635D01*
Y140750D01*
X118307Y140422D01*
X117651D01*
X117323Y140750D01*
Y141734D01*
X119291Y138454D02*
Y139766D01*
X118307D01*
Y139110D01*
Y139766D01*
X117323D01*
X162598Y166929D02*
X162926D01*
Y166601D01*
X162598D01*
Y166929D01*
Y165289D02*
Y164633D01*
Y164961D01*
X164566D01*
X164238Y165289D01*
X163910Y163649D02*
X162926D01*
X162598Y163321D01*
Y162337D01*
X163910D01*
X164566Y160370D02*
Y161681D01*
X163582D01*
Y161026D01*
Y161681D01*
X162598D01*
X126378Y190814D02*
Y192126D01*
X127690Y190814D01*
X128018D01*
X128346Y191142D01*
Y191798D01*
X128018Y192126D01*
X126378Y190158D02*
X126706D01*
Y189830D01*
X126378D01*
Y190158D01*
Y187206D02*
Y188518D01*
X127690Y187206D01*
X128018D01*
X128346Y187534D01*
Y188190D01*
X128018Y188518D01*
X127690Y186550D02*
X126706D01*
X126378Y186222D01*
Y185239D01*
X127690D01*
X128346Y183271D02*
Y184582D01*
X127362D01*
Y183927D01*
Y184582D01*
X126378D01*
X156693Y190551D02*
X157021D01*
Y190223D01*
X156693D01*
Y190551D01*
Y188911D02*
Y188255D01*
Y188583D01*
X158661D01*
X158333Y188911D01*
X158005Y187271D02*
X157021D01*
X156693Y186943D01*
Y185959D01*
X158005D01*
X158661Y183992D02*
Y185303D01*
X157677D01*
Y184648D01*
Y185303D01*
X156693D01*
X157152Y133465D02*
X157480Y133137D01*
Y132481D01*
X157152Y132153D01*
X156824D01*
X156496Y132481D01*
Y132809D01*
Y132481D01*
X156168Y132153D01*
X155840D01*
X155512Y132481D01*
Y133137D01*
X155840Y133465D01*
X157152Y131497D02*
X157480Y131169D01*
Y130513D01*
X157152Y130185D01*
X156824D01*
X156496Y130513D01*
Y130841D01*
Y130513D01*
X156168Y130185D01*
X155840D01*
X155512Y130513D01*
Y131169D01*
X155840Y131497D01*
X157152Y129529D02*
X157480Y129201D01*
Y128545D01*
X157152Y128217D01*
X155840D01*
X155512Y128545D01*
Y129201D01*
X155840Y129529D01*
X157152D01*
X124868Y134252D02*
X125196Y133924D01*
Y133268D01*
X124868Y132940D01*
X124540D01*
X124212Y133268D01*
Y133596D01*
Y133268D01*
X123884Y132940D01*
X123556D01*
X123228Y133268D01*
Y133924D01*
X123556Y134252D01*
X124868Y132284D02*
X125196Y131956D01*
Y131300D01*
X124868Y130972D01*
X124540D01*
X124212Y131300D01*
Y131628D01*
Y131300D01*
X123884Y130972D01*
X123556D01*
X123228Y131300D01*
Y131956D01*
X123556Y132284D01*
X124868Y130316D02*
X125196Y129988D01*
Y129332D01*
X124868Y129004D01*
X123556D01*
X123228Y129332D01*
Y129988D01*
X123556Y130316D01*
X124868D01*
X165354Y177559D02*
Y176903D01*
Y177231D01*
X167322D01*
X166994Y177559D01*
X167322Y174607D02*
Y175919D01*
X166338D01*
X166666Y175263D01*
Y174935D01*
X166338Y174607D01*
X165682D01*
X165354Y174935D01*
Y175591D01*
X165682Y175919D01*
X166994Y173951D02*
X167322Y173623D01*
Y172967D01*
X166994Y172639D01*
X165682D01*
X165354Y172967D01*
Y173623D01*
X165682Y173951D01*
X166994D01*
X165354Y171983D02*
X167322D01*
X166010D02*
X166666Y171000D01*
X166010Y171983D02*
X165354Y171000D01*
X166142Y165354D02*
Y164698D01*
Y165026D01*
X168110D01*
X167782Y165354D01*
Y163714D02*
X168110Y163386D01*
Y162731D01*
X167782Y162402D01*
X166470D01*
X166142Y162731D01*
Y163386D01*
X166470Y163714D01*
X167782D01*
X166142Y161747D02*
X168110D01*
X166798D02*
X167454Y160763D01*
X166798Y161747D02*
X166142Y160763D01*
X118504Y166535D02*
Y165879D01*
Y166207D01*
X120472D01*
X120144Y166535D01*
Y164895D02*
X120472Y164568D01*
Y163912D01*
X120144Y163584D01*
X118832D01*
X118504Y163912D01*
Y164568D01*
X118832Y164895D01*
X120144D01*
X118504Y162928D02*
X120472D01*
X119160D02*
X119816Y161944D01*
X119160Y162928D02*
X118504Y161944D01*
X118110Y177953D02*
Y177297D01*
Y177625D01*
X120078D01*
X119750Y177953D01*
X120078Y175001D02*
Y176313D01*
X119094D01*
X119422Y175657D01*
Y175329D01*
X119094Y175001D01*
X118438D01*
X118110Y175329D01*
Y175985D01*
X118438Y176313D01*
X119750Y174345D02*
X120078Y174017D01*
Y173361D01*
X119750Y173033D01*
X118438D01*
X118110Y173361D01*
Y174017D01*
X118438Y174345D01*
X119750D01*
X118110Y172377D02*
X120078D01*
X118766D02*
X119422Y171393D01*
X118766Y172377D02*
X118110Y171393D01*
X113451Y148425D02*
X113779Y148097D01*
Y147441D01*
X113451Y147113D01*
X113123D01*
X112795Y147441D01*
Y147769D01*
Y147441D01*
X112467Y147113D01*
X112139D01*
X111811Y147441D01*
Y148097D01*
X112139Y148425D01*
X113451Y146457D02*
X113779Y146129D01*
Y145473D01*
X113451Y145145D01*
X113123D01*
X112795Y145473D01*
Y145801D01*
Y145473D01*
X112467Y145145D01*
X112139D01*
X111811Y145473D01*
Y146129D01*
X112139Y146457D01*
X113451Y144490D02*
X113779Y144161D01*
Y143506D01*
X113451Y143178D01*
X112139D01*
X111811Y143506D01*
Y144161D01*
X112139Y144490D01*
X113451D01*
X111155Y142522D02*
X113123D01*
Y141538D01*
X112795Y141210D01*
X112139D01*
X111811Y141538D01*
Y142522D01*
X113779Y139242D02*
Y140554D01*
X112795D01*
Y139898D01*
Y140554D01*
X111811D01*
X67323Y158924D02*
Y160236D01*
X68635Y158924D01*
X68963D01*
X69291Y159252D01*
Y159908D01*
X68963Y160236D01*
X67323Y158268D02*
X67651D01*
Y157940D01*
X67323D01*
Y158268D01*
Y155317D02*
Y156629D01*
X68635Y155317D01*
X68963D01*
X69291Y155645D01*
Y156300D01*
X68963Y156629D01*
X68635Y154661D02*
X67651D01*
X67323Y154333D01*
Y153349D01*
X68635D01*
X69291Y151381D02*
Y152693D01*
X68307D01*
Y152037D01*
Y152693D01*
X67323D01*
X110236Y159055D02*
X110564D01*
Y158727D01*
X110236D01*
Y159055D01*
Y157415D02*
Y156759D01*
Y157087D01*
X112204D01*
X111876Y157415D01*
X111548Y155775D02*
X110564D01*
X110236Y155447D01*
Y154463D01*
X111548D01*
X112204Y152496D02*
Y153807D01*
X111220D01*
Y153152D01*
Y153807D01*
X110236D01*
X113386Y159055D02*
X113714D01*
Y158727D01*
X113386D01*
Y159055D01*
Y157415D02*
Y156759D01*
Y157087D01*
X115354D01*
X115026Y157415D01*
X114698Y155775D02*
X113714D01*
X113386Y155447D01*
Y154463D01*
X114698D01*
X115354Y152496D02*
Y153807D01*
X114370D01*
Y153152D01*
Y153807D01*
X113386D01*
X66994Y148819D02*
X67322Y148491D01*
Y147835D01*
X66994Y147507D01*
X66666D01*
X66338Y147835D01*
Y148163D01*
Y147835D01*
X66010Y147507D01*
X65682D01*
X65354Y147835D01*
Y148491D01*
X65682Y148819D01*
X66994Y146851D02*
X67322Y146523D01*
Y145867D01*
X66994Y145539D01*
X66666D01*
X66338Y145867D01*
Y146195D01*
Y145867D01*
X66010Y145539D01*
X65682D01*
X65354Y145867D01*
Y146523D01*
X65682Y146851D01*
X66994Y144883D02*
X67322Y144555D01*
Y143899D01*
X66994Y143571D01*
X65682D01*
X65354Y143899D01*
Y144555D01*
X65682Y144883D01*
X66994D01*
X64698Y142915D02*
X66666D01*
Y141931D01*
X66338Y141603D01*
X65682D01*
X65354Y141931D01*
Y142915D01*
X67322Y139636D02*
Y140947D01*
X66338D01*
Y140292D01*
Y140947D01*
X65354D01*
X110630Y167717D02*
X110958D01*
Y167389D01*
X110630D01*
Y167717D01*
Y166077D02*
Y165421D01*
Y165749D01*
X112598D01*
X112270Y166077D01*
X111942Y164437D02*
X110958D01*
X110630Y164109D01*
Y163125D01*
X111942D01*
X112598Y161157D02*
Y162469D01*
X111614D01*
Y161813D01*
Y162469D01*
X110630D01*
X74410Y191602D02*
Y192913D01*
X75721Y191602D01*
X76049D01*
X76377Y191929D01*
Y192585D01*
X76049Y192913D01*
X74410Y190945D02*
X74737D01*
Y190618D01*
X74410D01*
Y190945D01*
Y187994D02*
Y189306D01*
X75721Y187994D01*
X76049D01*
X76377Y188322D01*
Y188978D01*
X76049Y189306D01*
X75721Y187338D02*
X74737D01*
X74410Y187010D01*
Y186026D01*
X75721D01*
X76377Y184058D02*
Y185370D01*
X75393D01*
Y184714D01*
Y185370D01*
X74410D01*
X104724Y191339D02*
X105052D01*
Y191011D01*
X104724D01*
Y191339D01*
Y189699D02*
Y189043D01*
Y189371D01*
X106692D01*
X106364Y189699D01*
X106036Y188059D02*
X105052D01*
X104724Y187731D01*
Y186747D01*
X106036D01*
X106692Y184779D02*
Y186091D01*
X105708D01*
Y185435D01*
Y186091D01*
X104724D01*
X105183Y135039D02*
X105511Y134711D01*
Y134055D01*
X105183Y133728D01*
X104855D01*
X104527Y134055D01*
Y134383D01*
Y134055D01*
X104199Y133728D01*
X103871D01*
X103543Y134055D01*
Y134711D01*
X103871Y135039D01*
X105183Y133071D02*
X105511Y132744D01*
Y132088D01*
X105183Y131760D01*
X104855D01*
X104527Y132088D01*
Y132416D01*
Y132088D01*
X104199Y131760D01*
X103871D01*
X103543Y132088D01*
Y132744D01*
X103871Y133071D01*
X105183Y131104D02*
X105511Y130776D01*
Y130120D01*
X105183Y129792D01*
X103871D01*
X103543Y130120D01*
Y130776D01*
X103871Y131104D01*
X105183D01*
X74081Y135039D02*
X74409Y134711D01*
Y134055D01*
X74081Y133728D01*
X73753D01*
X73425Y134055D01*
Y134383D01*
Y134055D01*
X73097Y133728D01*
X72769D01*
X72441Y134055D01*
Y134711D01*
X72769Y135039D01*
X74081Y133071D02*
X74409Y132744D01*
Y132088D01*
X74081Y131760D01*
X73753D01*
X73425Y132088D01*
Y132416D01*
Y132088D01*
X73097Y131760D01*
X72769D01*
X72441Y132088D01*
Y132744D01*
X72769Y133071D01*
X74081Y131104D02*
X74409Y130776D01*
Y130120D01*
X74081Y129792D01*
X72769D01*
X72441Y130120D01*
Y130776D01*
X72769Y131104D01*
X74081D01*
X113779Y178740D02*
Y178084D01*
Y178412D01*
X115747D01*
X115419Y178740D01*
X115747Y175788D02*
Y177100D01*
X114763D01*
X115091Y176444D01*
Y176116D01*
X114763Y175788D01*
X114108D01*
X113779Y176116D01*
Y176772D01*
X114108Y177100D01*
X115419Y175132D02*
X115747Y174804D01*
Y174148D01*
X115419Y173820D01*
X114108D01*
X113779Y174148D01*
Y174804D01*
X114108Y175132D01*
X115419D01*
X113779Y173165D02*
X115747D01*
X114436D02*
X115091Y172181D01*
X114436Y173165D02*
X113779Y172181D01*
Y166929D02*
Y166273D01*
Y166601D01*
X115747D01*
X115419Y166929D01*
Y165289D02*
X115747Y164961D01*
Y164305D01*
X115419Y163977D01*
X114108D01*
X113779Y164305D01*
Y164961D01*
X114108Y165289D01*
X115419D01*
X113779Y163321D02*
X115747D01*
X114436D02*
X115091Y162337D01*
X114436Y163321D02*
X113779Y162337D01*
X66929Y166535D02*
Y165879D01*
Y166207D01*
X68897D01*
X68569Y166535D01*
Y164895D02*
X68897Y164568D01*
Y163912D01*
X68569Y163584D01*
X67257D01*
X66929Y163912D01*
Y164568D01*
X67257Y164895D01*
X68569D01*
X66929Y162928D02*
X68897D01*
X67585D02*
X68241Y161944D01*
X67585Y162928D02*
X66929Y161944D01*
X66535Y179921D02*
Y179265D01*
Y179593D01*
X68503D01*
X68175Y179921D01*
X68503Y176970D02*
Y178281D01*
X67519D01*
X67847Y177625D01*
Y177297D01*
X67519Y176970D01*
X66863D01*
X66535Y177297D01*
Y177953D01*
X66863Y178281D01*
X68175Y176313D02*
X68503Y175986D01*
Y175330D01*
X68175Y175002D01*
X66863D01*
X66535Y175330D01*
Y175986D01*
X66863Y176313D01*
X68175D01*
X66535Y174346D02*
X68503D01*
X67191D02*
X67847Y173362D01*
X67191Y174346D02*
X66535Y173362D01*
X214961Y203150D02*
Y202494D01*
Y202822D01*
X216929D01*
X216600Y203150D01*
Y201510D02*
X216929Y201182D01*
Y200526D01*
X216600Y200198D01*
X215289D01*
X214961Y200526D01*
Y201182D01*
X215289Y201510D01*
X216600D01*
X216929Y199542D02*
X214961D01*
X215617D01*
X216929Y198230D01*
X215945Y199214D01*
X214961Y198230D01*
Y233071D02*
Y232415D01*
Y232743D01*
X216929D01*
X216600Y233071D01*
Y231431D02*
X216929Y231103D01*
Y230447D01*
X216600Y230119D01*
X215289D01*
X214961Y230447D01*
Y231103D01*
X215289Y231431D01*
X216600D01*
X216929Y229463D02*
X214961D01*
X215617D01*
X216929Y228151D01*
X215945Y229135D01*
X214961Y228151D01*
X215354Y278346D02*
X216404D01*
X215879D01*
Y281495D01*
X215354Y280970D01*
X217978D02*
X218503Y281495D01*
X219552D01*
X220077Y280970D01*
Y278871D01*
X219552Y278346D01*
X218503D01*
X217978Y278871D01*
Y280970D01*
X221127Y280446D02*
Y278871D01*
X221652Y278346D01*
X223226D01*
Y280446D01*
X226374Y281495D02*
X224275D01*
Y279921D01*
X225325D01*
X224275D01*
Y278346D01*
X222047Y179528D02*
Y178872D01*
Y179200D01*
X224015D01*
X223687Y179528D01*
X224015Y176576D02*
Y177888D01*
X223031D01*
X223359Y177232D01*
Y176904D01*
X223031Y176576D01*
X222375D01*
X222047Y176904D01*
Y177560D01*
X222375Y177888D01*
X223687Y175920D02*
X224015Y175592D01*
Y174936D01*
X223687Y174608D01*
X222375D01*
X222047Y174936D01*
Y175592D01*
X222375Y175920D01*
X223687D01*
X222047Y173952D02*
X224015D01*
X222703D02*
X223359Y172968D01*
X222703Y173952D02*
X222047Y172968D01*
X161024Y279528D02*
Y278872D01*
Y279200D01*
X162991D01*
X162663Y279528D01*
X161024Y276576D02*
Y277888D01*
X162336Y276576D01*
X162663D01*
X162991Y276904D01*
Y277560D01*
X162663Y277888D01*
X161024Y275920D02*
Y275264D01*
Y275592D01*
X162991D01*
X162663Y275920D01*
X187795Y200000D02*
X188451D01*
X188123D01*
Y201968D01*
X187795Y201640D01*
X189435Y201968D02*
Y200000D01*
Y200656D01*
X190747Y201968D01*
X189763Y200984D01*
X190747Y200000D01*
X214961Y217717D02*
Y217061D01*
Y217389D01*
X216929D01*
X216600Y217717D01*
Y216077D02*
X216929Y215749D01*
Y215093D01*
X216600Y214765D01*
X215289D01*
X214961Y215093D01*
Y215749D01*
X215289Y216077D01*
X216600D01*
X216929Y214109D02*
X214961D01*
X215617D01*
X216929Y212797D01*
X215945Y213781D01*
X214961Y212797D01*
X239763Y262861D02*
X239435Y263517D01*
X238779Y264173D01*
X238123D01*
X237795Y263845D01*
Y263189D01*
X238123Y262861D01*
X238451D01*
X238779Y263189D01*
Y264173D01*
X237795Y261221D02*
X239763D01*
X238779Y262205D01*
Y260894D01*
X237795Y260238D02*
X238123D01*
Y259910D01*
X237795D01*
Y260238D01*
X238123Y258598D02*
X237795Y258270D01*
Y257614D01*
X238123Y257286D01*
X239435D01*
X239763Y257614D01*
Y258270D01*
X239435Y258598D01*
X239107D01*
X238779Y258270D01*
Y257286D01*
X239763Y283728D02*
X239435Y284383D01*
X238779Y285039D01*
X238123D01*
X237795Y284711D01*
Y284055D01*
X238123Y283728D01*
X238451D01*
X238779Y284055D01*
Y285039D01*
X237795Y282088D02*
X239763D01*
X238779Y283071D01*
Y281760D01*
X237795Y281104D02*
X238123D01*
Y280776D01*
X237795D01*
Y281104D01*
X238123Y279464D02*
X237795Y279136D01*
Y278480D01*
X238123Y278152D01*
X239435D01*
X239763Y278480D01*
Y279136D01*
X239435Y279464D01*
X239107D01*
X238779Y279136D01*
Y278152D01*
X239763Y253019D02*
X239435Y253675D01*
X238779Y254331D01*
X238123D01*
X237795Y254003D01*
Y253347D01*
X238123Y253019D01*
X238451D01*
X238779Y253347D01*
Y254331D01*
X237795Y251379D02*
X239763D01*
X238779Y252363D01*
Y251051D01*
X237795Y250395D02*
X238123D01*
Y250067D01*
X237795D01*
Y250395D01*
X238123Y248755D02*
X237795Y248427D01*
Y247771D01*
X238123Y247443D01*
X239435D01*
X239763Y247771D01*
Y248427D01*
X239435Y248755D01*
X239107D01*
X238779Y248427D01*
Y247443D01*
X239763Y273097D02*
X239435Y273753D01*
X238779Y274410D01*
X238123D01*
X237795Y274081D01*
Y273426D01*
X238123Y273097D01*
X238451D01*
X238779Y273426D01*
Y274410D01*
X237795Y271458D02*
X239763D01*
X238779Y272442D01*
Y271130D01*
X237795Y270474D02*
X238123D01*
Y270146D01*
X237795D01*
Y270474D01*
X238123Y268834D02*
X237795Y268506D01*
Y267850D01*
X238123Y267522D01*
X239435D01*
X239763Y267850D01*
Y268506D01*
X239435Y268834D01*
X239107D01*
X238779Y268506D01*
Y267522D01*
X220079Y166142D02*
Y165486D01*
Y165814D01*
X222047D01*
X221719Y166142D01*
Y164502D02*
X222047Y164174D01*
Y163518D01*
X221719Y163190D01*
X220407D01*
X220079Y163518D01*
Y164174D01*
X220407Y164502D01*
X221719D01*
X220079Y162534D02*
X222047D01*
X220735D02*
X221391Y161550D01*
X220735Y162534D02*
X220079Y161550D01*
X140157Y212992D02*
X140813D01*
X140486D01*
Y214960D01*
X140157Y214632D01*
X141797Y214960D02*
Y212992D01*
Y213648D01*
X143109Y214960D01*
X142125Y213976D01*
X143109Y212992D01*
X266142Y167323D02*
Y166667D01*
Y166995D01*
X268110D01*
X267782Y167323D01*
Y165683D02*
X268110Y165355D01*
Y164699D01*
X267782Y164371D01*
X266470D01*
X266142Y164699D01*
Y165355D01*
X266470Y165683D01*
X267782D01*
X266142Y163715D02*
X268110D01*
X266798D02*
X267454Y162731D01*
X266798Y163715D02*
X266142Y162731D01*
X269685Y179134D02*
Y178478D01*
Y178806D01*
X271653D01*
X271325Y179134D01*
X271653Y176182D02*
Y177494D01*
X270669D01*
X270997Y176838D01*
Y176510D01*
X270669Y176182D01*
X270013D01*
X269685Y176510D01*
Y177166D01*
X270013Y177494D01*
X271325Y175526D02*
X271653Y175198D01*
Y174542D01*
X271325Y174214D01*
X270013D01*
X269685Y174542D01*
Y175198D01*
X270013Y175526D01*
X271325D01*
X269685Y173558D02*
X271653D01*
X270341D02*
X270997Y172574D01*
X270341Y173558D02*
X269685Y172574D01*
X170997Y198425D02*
X169685D01*
X170997Y199737D01*
Y200065D01*
X170669Y200393D01*
X170013D01*
X169685Y200065D01*
X171653D02*
X171981Y200393D01*
X172637D01*
X172965Y200065D01*
Y198753D01*
X172637Y198425D01*
X171981D01*
X171653Y198753D01*
Y200065D01*
X173621Y198425D02*
Y200393D01*
Y199081D02*
X174605Y199737D01*
X173621Y199081D02*
X174605Y198425D01*
X153937D02*
X154593D01*
X154265D01*
Y200393D01*
X153937Y200065D01*
X155577D02*
X155905Y200393D01*
X156561D01*
X156889Y200065D01*
Y198753D01*
X156561Y198425D01*
X155905D01*
X155577Y198753D01*
Y200065D01*
X157545Y198425D02*
Y200393D01*
Y199081D02*
X158529Y199737D01*
X157545Y199081D02*
X158529Y198425D01*
X245669Y322835D02*
Y322179D01*
Y322507D01*
X247637D01*
X247309Y322835D01*
Y321195D02*
X247637Y320867D01*
Y320211D01*
X247309Y319883D01*
X245997D01*
X245669Y320211D01*
Y320867D01*
X245997Y321195D01*
X247309D01*
X247637Y319227D02*
X245669D01*
X246325D01*
X247637Y317915D01*
X246653Y318899D01*
X245669Y317915D01*
Y307874D02*
Y307218D01*
Y307546D01*
X247637D01*
X247309Y307874D01*
Y306234D02*
X247637Y305906D01*
Y305250D01*
X247309Y304922D01*
X245997D01*
X245669Y305250D01*
Y305906D01*
X245997Y306234D01*
X247309D01*
X247637Y304266D02*
X245669D01*
X246325D01*
X247637Y302954D01*
X246653Y303938D01*
X245669Y302954D01*
X229199Y134646D02*
X229527Y134318D01*
Y133662D01*
X229199Y133334D01*
X228871D01*
X228543Y133662D01*
Y133990D01*
Y133662D01*
X228215Y133334D01*
X227887D01*
X227559Y133662D01*
Y134318D01*
X227887Y134646D01*
X229199Y132678D02*
X229527Y132350D01*
Y131694D01*
X229199Y131366D01*
X228871D01*
X228543Y131694D01*
Y132022D01*
Y131694D01*
X228215Y131366D01*
X227887D01*
X227559Y131694D01*
Y132350D01*
X227887Y132678D01*
X229199Y130710D02*
X229527Y130382D01*
Y129726D01*
X229199Y129398D01*
X227887D01*
X227559Y129726D01*
Y130382D01*
X227887Y130710D01*
X229199D01*
X261089Y134646D02*
X261417Y134318D01*
Y133662D01*
X261089Y133334D01*
X260761D01*
X260433Y133662D01*
Y133990D01*
Y133662D01*
X260105Y133334D01*
X259777D01*
X259449Y133662D01*
Y134318D01*
X259777Y134646D01*
X261089Y132678D02*
X261417Y132350D01*
Y131694D01*
X261089Y131366D01*
X260761D01*
X260433Y131694D01*
Y132022D01*
Y131694D01*
X260105Y131366D01*
X259777D01*
X259449Y131694D01*
Y132350D01*
X259777Y132678D01*
X261089Y130710D02*
X261417Y130382D01*
Y129726D01*
X261089Y129398D01*
X259777D01*
X259449Y129726D01*
Y130382D01*
X259777Y130710D01*
X261089D01*
X102099Y327165D02*
X100787D01*
Y326181D01*
X101443D01*
X100787D01*
Y325197D01*
X102755D02*
X103411D01*
X103083D01*
Y327165D01*
X102755Y326837D01*
X260630Y191339D02*
X260958D01*
Y191011D01*
X260630D01*
Y191339D01*
Y189699D02*
Y189043D01*
Y189371D01*
X262598D01*
X262270Y189699D01*
X261942Y188059D02*
X260958D01*
X260630Y187731D01*
Y186747D01*
X261942D01*
X262598Y184779D02*
Y186091D01*
X261614D01*
Y185435D01*
Y186091D01*
X260630D01*
X230315Y191208D02*
Y192520D01*
X231627Y191208D01*
X231955D01*
X232283Y191536D01*
Y192192D01*
X231955Y192520D01*
X230315Y190552D02*
X230643D01*
Y190224D01*
X230315D01*
Y190552D01*
Y187600D02*
Y188912D01*
X231627Y187600D01*
X231955D01*
X232283Y187928D01*
Y188584D01*
X231955Y188912D01*
X231627Y186944D02*
X230643D01*
X230315Y186616D01*
Y185632D01*
X231627D01*
X232283Y183664D02*
Y184976D01*
X231299D01*
Y184320D01*
Y184976D01*
X230315D01*
X222835Y167323D02*
X223163D01*
Y166995D01*
X222835D01*
Y167323D01*
Y165683D02*
Y165027D01*
Y165355D01*
X224802D01*
X224475Y165683D01*
X224147Y164043D02*
X223163D01*
X222835Y163715D01*
Y162731D01*
X224147D01*
X224802Y160763D02*
Y162075D01*
X223819D01*
Y161419D01*
Y162075D01*
X222835D01*
X163451Y267323D02*
X163779Y266995D01*
Y266339D01*
X163451Y266011D01*
X163123D01*
X162795Y266339D01*
Y266667D01*
Y266339D01*
X162467Y266011D01*
X162139D01*
X161811Y266339D01*
Y266995D01*
X162139Y267323D01*
X163779Y264043D02*
X163451Y264699D01*
X162795Y265355D01*
X162139D01*
X161811Y265027D01*
Y264371D01*
X162139Y264043D01*
X162467D01*
X162795Y264371D01*
Y265355D01*
X161155Y263387D02*
X163123D01*
Y262403D01*
X162795Y262075D01*
X162139D01*
X161811Y262403D01*
Y263387D01*
X163779Y260107D02*
Y261419D01*
X162795D01*
Y260763D01*
Y261419D01*
X161811D01*
X195571Y272801D02*
X195899Y273129D01*
X196555D01*
X196883Y272801D01*
Y272473D01*
X196555Y272145D01*
X196227D01*
X196555D01*
X196883Y271817D01*
Y271489D01*
X196555Y271161D01*
X195899D01*
X195571Y271489D01*
X198851Y273129D02*
X198195Y272801D01*
X197539Y272145D01*
Y271489D01*
X197867Y271161D01*
X198523D01*
X198851Y271489D01*
Y271817D01*
X198523Y272145D01*
X197539D01*
X199507Y270505D02*
Y272473D01*
X200490D01*
X200818Y272145D01*
Y271489D01*
X200490Y271161D01*
X199507D01*
X202786Y273129D02*
X201474D01*
Y272145D01*
X202130D01*
X201474D01*
Y271161D01*
X202493Y200787D02*
X201181D01*
X202493Y202099D01*
Y202427D01*
X202165Y202755D01*
X201509D01*
X201181Y202427D01*
X203149Y200787D02*
Y201115D01*
X203477D01*
Y200787D01*
X203149D01*
X206101D02*
X204789D01*
X206101Y202099D01*
Y202427D01*
X205773Y202755D01*
X205117D01*
X204789Y202427D01*
X206757Y202099D02*
Y201115D01*
X207085Y200787D01*
X208069D01*
Y202099D01*
X210036Y202755D02*
X208725D01*
Y201771D01*
X209381D01*
X208725D01*
Y200787D01*
X75197Y316929D02*
Y317257D01*
X75525D01*
Y316929D01*
X75197D01*
X76837D02*
X77493D01*
X77165D01*
Y318897D01*
X76837Y318569D01*
X78477Y318241D02*
Y317257D01*
X78805Y316929D01*
X79789D01*
Y318241D01*
X81756Y318897D02*
X80445D01*
Y317913D01*
X81100D01*
X80445D01*
Y316929D01*
X85564Y316535D02*
X84252D01*
X85564Y317847D01*
Y318175D01*
X85236Y318503D01*
X84580D01*
X84252Y318175D01*
X86220Y316535D02*
Y316863D01*
X86548D01*
Y316535D01*
X86220D01*
X89172D02*
X87860D01*
X89172Y317847D01*
Y318175D01*
X88844Y318503D01*
X88188D01*
X87860Y318175D01*
X89828Y317847D02*
Y316863D01*
X90156Y316535D01*
X91140D01*
Y317847D01*
X93107Y318503D02*
X91795D01*
Y317519D01*
X92451D01*
X91795D01*
Y316535D01*
X62992Y319685D02*
X63648D01*
X63320D01*
Y321653D01*
X62992Y321325D01*
X64632D02*
X64960Y321653D01*
X65616D01*
X65944Y321325D01*
Y320013D01*
X65616Y319685D01*
X64960D01*
X64632Y320013D01*
Y321325D01*
X66600Y320997D02*
Y320013D01*
X66928Y319685D01*
X67912D01*
Y320997D01*
X69880Y321653D02*
X68568D01*
Y320669D01*
X69224D01*
X68568D01*
Y319685D01*
X161713Y248228D02*
Y248556D01*
X162041D01*
Y248228D01*
X161713D01*
X163353D02*
X164008D01*
X163681D01*
Y250196D01*
X163353Y249868D01*
X164992Y249540D02*
Y248556D01*
X165320Y248228D01*
X166304D01*
Y249540D01*
X168272Y250196D02*
X166960D01*
Y249212D01*
X167616D01*
X166960D01*
Y248228D01*
X152362Y330709D02*
Y330053D01*
Y330381D01*
X154330D01*
X154002Y330709D01*
Y329069D02*
X154330Y328741D01*
Y328085D01*
X154002Y327757D01*
X152690D01*
X152362Y328085D01*
Y328741D01*
X152690Y329069D01*
X154002D01*
X153674Y327101D02*
X152690D01*
X152362Y326773D01*
Y325789D01*
X153674D01*
X154330Y323821D02*
Y325133D01*
X153346D01*
Y324477D01*
Y325133D01*
X152362D01*
X154330Y321197D02*
Y319885D01*
Y320541D01*
X152362D01*
Y319230D02*
X153674D01*
X154330Y318573D01*
X153674Y317918D01*
X152362D01*
X153346D01*
Y319230D01*
X152362Y317262D02*
X154330D01*
X152362Y315950D01*
X154330D01*
Y315294D02*
Y313982D01*
Y314638D01*
X152362D01*
X212598Y238583D02*
X213254D01*
X212926D01*
Y240550D01*
X212598Y240223D01*
X214238D02*
X214566Y240550D01*
X215222D01*
X215550Y240223D01*
Y238911D01*
X215222Y238583D01*
X214566D01*
X214238Y238911D01*
Y240223D01*
X216206Y239895D02*
Y238911D01*
X216534Y238583D01*
X217518D01*
Y239895D01*
X219486Y240550D02*
X218174D01*
Y239567D01*
X218830D01*
X218174D01*
Y238583D01*
X158618Y275311D02*
X158946D01*
Y274983D01*
X158618D01*
Y275311D01*
Y273671D02*
Y273015D01*
Y273343D01*
X160586D01*
X160258Y273671D01*
X159930Y272031D02*
X158946D01*
X158618Y271703D01*
Y270719D01*
X159930D01*
X160586Y268752D02*
Y270063D01*
X159602D01*
Y269407D01*
Y270063D01*
X158618D01*
X154462Y251574D02*
X153150D01*
Y250590D01*
X153806Y250918D01*
X154133D01*
X154462Y250590D01*
Y249934D01*
X154133Y249606D01*
X153478D01*
X153150Y249934D01*
X155117Y249606D02*
Y249934D01*
X155446D01*
Y249606D01*
X155117D01*
X158069Y251574D02*
X157413Y251246D01*
X156757Y250590D01*
Y249934D01*
X157085Y249606D01*
X157741D01*
X158069Y249934D01*
Y250262D01*
X157741Y250590D01*
X156757D01*
X158725Y249606D02*
Y250918D01*
X159709D01*
X160037Y250590D01*
Y249606D01*
X162005Y251574D02*
X160693D01*
Y250590D01*
X161349D01*
X160693D01*
Y249606D01*
X153150Y302559D02*
Y302887D01*
X153478D01*
Y302559D01*
X153150D01*
X154789D02*
X155446D01*
X155117D01*
Y304527D01*
X154789Y304199D01*
X156429Y303871D02*
Y302887D01*
X156757Y302559D01*
X157741D01*
Y303871D01*
X159709Y304527D02*
X158397D01*
Y303543D01*
X159053D01*
X158397D01*
Y302559D01*
X174803Y292520D02*
X175131D01*
Y292192D01*
X174803D01*
Y292520D01*
Y290880D02*
Y290224D01*
Y290552D01*
X176771D01*
X176443Y290880D01*
X176115Y289240D02*
X175131D01*
X174803Y288912D01*
Y287928D01*
X176115D01*
X176771Y285960D02*
Y287272D01*
X175787D01*
Y286616D01*
Y287272D01*
X174803D01*
X177953Y292913D02*
Y292257D01*
Y292585D01*
X179921D01*
X179593Y292913D01*
Y291273D02*
X179921Y290946D01*
Y290290D01*
X179593Y289962D01*
X178281D01*
X177953Y290290D01*
Y290946D01*
X178281Y291273D01*
X179593D01*
X179265Y289306D02*
X178281D01*
X177953Y288978D01*
Y287994D01*
X179265D01*
X179921Y286026D02*
Y287338D01*
X178937D01*
Y286682D01*
Y287338D01*
X177953D01*
X124409Y237795D02*
X124737D01*
Y237467D01*
X124409D01*
Y237795D01*
Y235172D02*
X126377D01*
X125393Y236155D01*
Y234843D01*
X126377Y234188D02*
Y232876D01*
X126049D01*
X124737Y234188D01*
X124409D01*
X125721Y232220D02*
X124737D01*
X124409Y231892D01*
Y230908D01*
X125721D01*
X126377Y228940D02*
Y230252D01*
X125393D01*
Y229596D01*
Y230252D01*
X124409D01*
X105512Y255906D02*
Y256234D01*
X105840D01*
Y255906D01*
X105512D01*
X107152D02*
X107808D01*
X107480D01*
Y257873D01*
X107152Y257545D01*
X108792Y257217D02*
Y256234D01*
X109120Y255906D01*
X110103D01*
Y257217D01*
X112071Y257873D02*
X110759D01*
Y256889D01*
X111415D01*
X110759D01*
Y255906D01*
X96063Y253543D02*
X96719D01*
X96391D01*
Y255511D01*
X96063Y255183D01*
X97703D02*
X98031Y255511D01*
X98687D01*
X99015Y255183D01*
Y253871D01*
X98687Y253543D01*
X98031D01*
X97703Y253871D01*
Y255183D01*
X99671Y254855D02*
Y253871D01*
X99999Y253543D01*
X100983D01*
Y254855D01*
X102951Y255511D02*
X101639D01*
Y254527D01*
X102295D01*
X101639D01*
Y253543D01*
X158268Y284252D02*
X158596D01*
Y283924D01*
X158268D01*
Y284252D01*
Y282612D02*
Y281956D01*
Y282284D01*
X160236D01*
X159908Y282612D01*
X159580Y280972D02*
X158596D01*
X158268Y280644D01*
Y279660D01*
X159580D01*
X160236Y277692D02*
Y279004D01*
X159252D01*
Y278348D01*
Y279004D01*
X158268D01*
X129393Y254142D02*
Y254470D01*
X129721D01*
Y254142D01*
X129393D01*
X131033D02*
X131689D01*
X131361D01*
Y256110D01*
X131033Y255782D01*
X132673Y255454D02*
Y254470D01*
X133001Y254142D01*
X133985D01*
Y255454D01*
X135953Y256110D02*
X134641D01*
Y255126D01*
X135297D01*
X134641D01*
Y254142D01*
X129528Y244882D02*
X130183D01*
X129856D01*
Y246850D01*
X129528Y246522D01*
X131167D02*
X131495Y246850D01*
X132151D01*
X132479Y246522D01*
Y245210D01*
X132151Y244882D01*
X131495D01*
X131167Y245210D01*
Y246522D01*
X133135Y246194D02*
Y245210D01*
X133463Y244882D01*
X134447D01*
Y246194D01*
X136415Y246850D02*
X135103D01*
Y245866D01*
X135759D01*
X135103D01*
Y244882D01*
X146850Y236614D02*
X147178D01*
Y236286D01*
X146850D01*
Y236614D01*
Y233990D02*
X148818D01*
X147834Y234974D01*
Y233662D01*
X148818Y233006D02*
Y231695D01*
X148490D01*
X147178Y233006D01*
X146850D01*
X148162Y231039D02*
X147178D01*
X146850Y230711D01*
Y229727D01*
X148162D01*
X148818Y227759D02*
Y229071D01*
X147834D01*
Y228415D01*
Y229071D01*
X146850D01*
X141732Y305118D02*
Y305446D01*
X142060D01*
Y305118D01*
X141732D01*
X143372D02*
X144028D01*
X143700D01*
Y307086D01*
X143372Y306758D01*
X145012Y306430D02*
Y305446D01*
X145340Y305118D01*
X146324D01*
Y306430D01*
X148292Y307086D02*
X146980D01*
Y306102D01*
X147636D01*
X146980D01*
Y305118D01*
X105905Y285827D02*
Y286155D01*
X106234D01*
Y285827D01*
X105905D01*
X107545D02*
X108201D01*
X107873D01*
Y287795D01*
X107545Y287467D01*
X109185Y287139D02*
Y286155D01*
X109513Y285827D01*
X110497D01*
Y287139D01*
X112465Y287795D02*
X111153D01*
Y286811D01*
X111809D01*
X111153D01*
Y285827D01*
X96063Y285433D02*
X96719D01*
X96391D01*
Y287401D01*
X96063Y287073D01*
X97703D02*
X98031Y287401D01*
X98687D01*
X99015Y287073D01*
Y285761D01*
X98687Y285433D01*
X98031D01*
X97703Y285761D01*
Y287073D01*
X99671Y286745D02*
Y285761D01*
X99999Y285433D01*
X100983D01*
Y286745D01*
X102951Y287401D02*
X101639D01*
Y286417D01*
X102295D01*
X101639D01*
Y285433D01*
X222506Y148425D02*
X222834Y148097D01*
Y147441D01*
X222506Y147113D01*
X222178D01*
X221850Y147441D01*
Y147769D01*
Y147441D01*
X221522Y147113D01*
X221194D01*
X220866Y147441D01*
Y148097D01*
X221194Y148425D01*
X222506Y146457D02*
X222834Y146129D01*
Y145473D01*
X222506Y145145D01*
X222178D01*
X221850Y145473D01*
Y145801D01*
Y145473D01*
X221522Y145145D01*
X221194D01*
X220866Y145473D01*
Y146129D01*
X221194Y146457D01*
X222506Y144490D02*
X222834Y144161D01*
Y143506D01*
X222506Y143178D01*
X221194D01*
X220866Y143506D01*
Y144161D01*
X221194Y144490D01*
X222506D01*
X220210Y142522D02*
X222178D01*
Y141538D01*
X221850Y141210D01*
X221194D01*
X220866Y141538D01*
Y142522D01*
X222834Y139242D02*
Y140554D01*
X221850D01*
Y139898D01*
Y140554D01*
X220866D01*
X265354Y157874D02*
X265682D01*
Y157546D01*
X265354D01*
Y157874D01*
Y156234D02*
Y155578D01*
Y155906D01*
X267322D01*
X266994Y156234D01*
X266666Y154594D02*
X265682D01*
X265354Y154266D01*
Y153282D01*
X266666D01*
X267322Y151314D02*
Y152626D01*
X266338D01*
Y151970D01*
Y152626D01*
X265354D01*
X204331Y252362D02*
X204659D01*
Y252034D01*
X204331D01*
Y252362D01*
Y250722D02*
Y250066D01*
Y250394D01*
X206299D01*
X205971Y250722D01*
X205643Y249082D02*
X204659D01*
X204331Y248754D01*
Y247771D01*
X205643D01*
X206299Y245803D02*
Y247115D01*
X205315D01*
Y246459D01*
Y247115D01*
X204331D01*
X223228Y158268D02*
X223556D01*
Y157940D01*
X223228D01*
Y158268D01*
Y156628D02*
Y155972D01*
Y156300D01*
X225196D01*
X224868Y156628D01*
X224540Y154988D02*
X223556D01*
X223228Y154660D01*
Y153676D01*
X224540D01*
X225196Y151708D02*
Y153020D01*
X224212D01*
Y152364D01*
Y153020D01*
X223228D01*
X220079Y158137D02*
Y159449D01*
X221391Y158137D01*
X221719D01*
X222047Y158465D01*
Y159121D01*
X221719Y159449D01*
X220079Y157481D02*
X220407D01*
Y157153D01*
X220079D01*
Y157481D01*
Y154529D02*
Y155841D01*
X221391Y154529D01*
X221719D01*
X222047Y154857D01*
Y155513D01*
X221719Y155841D01*
X221391Y153873D02*
X220407D01*
X220079Y153545D01*
Y152561D01*
X221391D01*
X222047Y150593D02*
Y151905D01*
X221063D01*
Y151249D01*
Y151905D01*
X220079D01*
X268963Y148031D02*
X269291Y147704D01*
Y147048D01*
X268963Y146720D01*
X268635D01*
X268307Y147048D01*
Y147376D01*
Y147048D01*
X267979Y146720D01*
X267651D01*
X267323Y147048D01*
Y147704D01*
X267651Y148031D01*
X268963Y146064D02*
X269291Y145736D01*
Y145080D01*
X268963Y144752D01*
X268635D01*
X268307Y145080D01*
Y145408D01*
Y145080D01*
X267979Y144752D01*
X267651D01*
X267323Y145080D01*
Y145736D01*
X267651Y146064D01*
X268963Y144096D02*
X269291Y143768D01*
Y143112D01*
X268963Y142784D01*
X267651D01*
X267323Y143112D01*
Y143768D01*
X267651Y144096D01*
X268963D01*
X266667Y142128D02*
X268635D01*
Y141144D01*
X268307Y140816D01*
X267651D01*
X267323Y141144D01*
Y142128D01*
X269291Y138848D02*
Y140160D01*
X268307D01*
Y139504D01*
Y140160D01*
X267323D01*
D11*
X182028Y325984D02*
G03*
X182028Y325984I-394J0D01*
G01*
X152098Y211303D02*
G03*
X152098Y211303I-394J0D01*
G01*
X241609Y247441D02*
Y254528D01*
X253420Y247441D02*
Y250984D01*
X241609Y247441D02*
X253420D01*
X241609Y254528D02*
X253223D01*
X253420Y250984D02*
Y254528D01*
X241609Y257677D02*
Y264764D01*
X253420Y257677D02*
Y261221D01*
X241609Y257677D02*
X253420D01*
X241609Y264764D02*
X253223D01*
X253420Y261221D02*
Y264764D01*
X241412Y267520D02*
Y274606D01*
X253223Y267520D02*
Y271063D01*
X241412Y267520D02*
X253223D01*
X241412Y274606D02*
X253027D01*
X253223Y271063D02*
Y274606D01*
X253027Y277756D02*
Y284842D01*
X241215Y281299D02*
Y284842D01*
X253027D01*
X241412Y277756D02*
X253027D01*
X241215D02*
Y281299D01*
X195141Y269496D02*
X198291D01*
X195141Y258472D02*
Y269496D01*
Y258472D02*
X201441D01*
Y269496D01*
X198291D02*
X201441D01*
X200000Y244094D02*
X203150D01*
X203150D02*
Y255118D01*
X196850D02*
X203150D01*
X196850Y244094D02*
Y255118D01*
X196850Y244094D02*
X200000D01*
X212205Y255315D02*
X216142D01*
X212205Y241732D02*
Y255315D01*
Y241732D02*
X220079D01*
Y255315D01*
X216142D02*
X220079D01*
X195866Y203306D02*
Y210393D01*
X184055Y206850D02*
Y210393D01*
X195866D01*
X184252Y203306D02*
X195866D01*
X184055D02*
Y206850D01*
X211024Y207243D02*
Y210393D01*
X200000Y210393D02*
X211024D01*
X200000Y204094D02*
Y210393D01*
Y204094D02*
X211024D01*
Y204094D02*
Y207243D01*
X218110Y236024D02*
X225197D01*
X218110Y224213D02*
X221654D01*
X218110D02*
Y236024D01*
X225197Y224410D02*
Y236024D01*
X221654Y224213D02*
X225197D01*
X218110Y209252D02*
X225197D01*
X221654Y221063D02*
X225197D01*
Y209252D02*
Y221063D01*
X218110Y209252D02*
Y220866D01*
Y221063D02*
X221654D01*
X218110Y206496D02*
X225197D01*
X218110Y194685D02*
X221654D01*
X218110D02*
Y206496D01*
X225197Y194882D02*
Y206496D01*
X221654Y194685D02*
X225197D01*
X156693Y240903D02*
Y244052D01*
Y240903D02*
X167717D01*
Y247202D01*
X156693D02*
X167717D01*
X156693Y244052D02*
Y247202D01*
X162858Y255716D02*
Y258866D01*
X151834Y258866D02*
X162858D01*
X151834Y252567D02*
Y258866D01*
Y252567D02*
X162858D01*
Y252567D02*
Y255716D01*
X167976Y257488D02*
X171126D01*
X171126D02*
Y268512D01*
X164826D02*
X171126D01*
X164826Y257488D02*
Y268512D01*
X164827Y257488D02*
X167976D01*
X164039Y283079D02*
X171126D01*
X164039Y271268D02*
X167582D01*
X164039D02*
Y283079D01*
X171126Y271465D02*
Y283079D01*
X167582Y271268D02*
X171126D01*
X157740Y263984D02*
Y267134D01*
X146716Y267134D02*
X157740D01*
X146716Y260835D02*
Y267134D01*
Y260835D02*
X157740D01*
Y260835D02*
Y263984D01*
X157346Y272252D02*
Y275402D01*
X146323Y275402D02*
X157346D01*
X146323Y269102D02*
Y275402D01*
Y269102D02*
X157346D01*
Y269102D02*
Y272252D01*
X146126Y277764D02*
Y280913D01*
Y277764D02*
X157149D01*
Y284063D01*
X146126D02*
X157149D01*
X146126Y280913D02*
Y284063D01*
X157740Y289968D02*
Y293118D01*
X146716Y293118D02*
X157740D01*
X146716Y286819D02*
Y293118D01*
Y286819D02*
X157740D01*
Y286819D02*
Y289968D01*
X173291Y289181D02*
Y293118D01*
X159708D02*
X173291D01*
X159708Y285244D02*
Y293118D01*
Y285244D02*
X173291D01*
Y289181D01*
X163645Y298236D02*
Y301386D01*
X152622Y301386D02*
X163645D01*
X152622Y295087D02*
Y301386D01*
Y295087D02*
X163645D01*
Y295087D02*
Y298236D01*
X163386Y331201D02*
X170866D01*
X168865Y305906D02*
X170866Y307907D01*
X157907Y305906D02*
X168865D01*
X155905Y307907D02*
X157907Y305906D01*
X155905Y307874D02*
Y331102D01*
X163386Y331201D01*
X170866Y307907D02*
Y331102D01*
X168504Y303150D02*
X171653Y303248D01*
X170079Y301575D02*
Y304724D01*
X150653Y299811D02*
Y302961D01*
X139630Y302961D02*
X150653D01*
X139630Y296661D02*
Y302961D01*
Y296661D02*
X150653D01*
Y296661D02*
Y299811D01*
X92874Y321654D02*
Y326378D01*
Y321654D02*
X111024D01*
Y331102D01*
X92874D02*
X111024D01*
X92874Y326378D02*
Y331102D01*
X106165Y300205D02*
X109315D01*
X106165Y289181D02*
Y300205D01*
Y289181D02*
X112464D01*
Y300205D01*
X109315D02*
X112464D01*
X99472Y288984D02*
X103409D01*
Y302567D01*
X95535D02*
X103409D01*
X95535Y288984D02*
Y302567D01*
Y288984D02*
X99472D01*
X83858Y330906D02*
X87008D01*
X83858Y319882D02*
Y330906D01*
Y319882D02*
X90158D01*
Y330906D01*
X87008D02*
X90158D01*
X75590Y331102D02*
X78740D01*
X75590Y320079D02*
Y331102D01*
Y320079D02*
X81890D01*
Y331102D01*
X78740D02*
X81890D01*
X73032Y327165D02*
Y331102D01*
X59449D02*
X73032D01*
X59449Y323228D02*
Y331102D01*
Y323228D02*
X73032D01*
Y327165D01*
X249606Y299803D02*
X256693D01*
X253150Y311614D02*
X256693D01*
Y299803D02*
Y311614D01*
X249606Y299803D02*
Y311417D01*
Y311614D02*
X253150D01*
X249606Y314370D02*
X256693D01*
X253150Y326181D02*
X256693D01*
Y314370D02*
Y326181D01*
X249606Y314370D02*
Y325984D01*
Y326181D02*
X253150D01*
X138449Y252567D02*
Y255716D01*
Y252567D02*
X149472D01*
Y258866D01*
X138449D02*
X149472D01*
X138449Y255716D02*
Y258866D01*
X152014Y245874D02*
Y249811D01*
X138432D02*
X152014D01*
X138432Y241937D02*
Y249811D01*
Y241937D02*
X152014D01*
Y245874D01*
X105771Y270677D02*
X108921D01*
X105771Y259653D02*
Y270677D01*
Y259653D02*
X112071D01*
Y270677D01*
X108921D02*
X112071D01*
X99472Y257095D02*
X103409D01*
Y270677D01*
X95535D02*
X103409D01*
X95535Y257095D02*
Y270677D01*
Y257095D02*
X99472D01*
X127819Y239772D02*
X131756D01*
X127819Y226189D02*
Y239772D01*
Y226189D02*
X135693D01*
Y239772D01*
X131756D02*
X135693D01*
X137661D02*
X141598D01*
X137661Y226189D02*
Y239772D01*
Y226189D02*
X145535D01*
Y239772D01*
X141598D02*
X145535D01*
X136417Y216535D02*
Y223622D01*
X148228Y216535D02*
Y220079D01*
X136417Y216535D02*
X148228D01*
X136417Y223622D02*
X148031D01*
X148228Y220079D02*
Y223622D01*
X165945Y201617D02*
Y208704D01*
X177756Y201617D02*
Y205160D01*
X165945Y201617D02*
X177756D01*
X165945Y208704D02*
X177559D01*
X177756Y205160D02*
Y208704D01*
X162402Y201617D02*
Y208704D01*
X150591Y205160D02*
Y208704D01*
X162402D01*
X150787Y201617D02*
X162402D01*
X150591D02*
Y205160D01*
X247655Y184872D02*
Y188022D01*
Y184872D02*
X258678D01*
Y191171D01*
X247655D02*
X258678D01*
X247655Y188022D02*
Y191171D01*
X244899Y188022D02*
Y191171D01*
X233875Y191171D02*
X244899D01*
X233875Y184872D02*
Y191171D01*
Y184872D02*
X244899D01*
Y184872D02*
Y188022D01*
X196080Y187628D02*
Y190778D01*
Y190778D02*
X207103D01*
Y184478D02*
Y190778D01*
X196080Y184478D02*
X207103D01*
X196080Y184478D02*
Y187628D01*
X193324Y184478D02*
Y187628D01*
X182300Y184478D02*
X193324D01*
X182300D02*
Y190778D01*
X193324D01*
Y187628D02*
Y190778D01*
X143718Y187234D02*
Y190384D01*
Y190384D02*
X154741D01*
Y184085D02*
Y190384D01*
X143718Y184085D02*
X154741D01*
X143718Y184085D02*
Y187234D01*
X140962Y184085D02*
Y187234D01*
X129938Y184085D02*
X140962D01*
X129938D02*
Y190384D01*
X140962D01*
Y187234D02*
Y190384D01*
X92143Y188415D02*
Y191565D01*
Y191565D02*
X103166D01*
Y185266D02*
Y191565D01*
X92143Y185266D02*
X103166D01*
X92143Y185266D02*
Y188415D01*
X124803Y169321D02*
X128347D01*
Y169518D02*
Y181132D01*
X121260Y169321D02*
Y181132D01*
Y169321D02*
X124803D01*
X121260Y181132D02*
X128347D01*
X160647Y168550D02*
X164190D01*
Y168747D02*
Y180361D01*
X157103Y168550D02*
Y180361D01*
Y168550D02*
X160647D01*
X157103Y180361D02*
X164190D01*
X177165Y169715D02*
X180709D01*
Y169912D02*
Y181526D01*
X173622Y169715D02*
Y181526D01*
Y169715D02*
X177165D01*
X173622Y181526D02*
X180709D01*
X213009Y168944D02*
X216552D01*
Y169141D02*
Y180755D01*
X209466Y168944D02*
Y180755D01*
Y168944D02*
X213009D01*
X209466Y180755D02*
X216552D01*
X225197Y181919D02*
X232283D01*
X225197Y170108D02*
X228740D01*
X225197D02*
Y181919D01*
X232283Y170305D02*
Y181919D01*
X228740Y170108D02*
X232283D01*
X261040Y181149D02*
X268127D01*
X261040Y169338D02*
X264584D01*
X261040D02*
Y181149D01*
X268127Y169535D02*
Y181149D01*
X264584Y169338D02*
X268127D01*
X252970Y160463D02*
Y167549D01*
X264780Y160463D02*
Y164006D01*
X252970Y160463D02*
X264780D01*
X252970Y167549D02*
X264584D01*
X264780Y164006D02*
Y167549D01*
X239780Y161250D02*
Y164400D01*
Y161250D02*
X250804D01*
Y167549D01*
X239780D02*
X250804D01*
X239780Y164400D02*
Y167549D01*
X252970Y152375D02*
Y155525D01*
Y152375D02*
X263993D01*
Y158674D01*
X252970D02*
X263993D01*
X252970Y155525D02*
Y158674D01*
X240158Y152551D02*
Y155701D01*
Y152551D02*
X251181D01*
Y158850D01*
X240158D02*
X251181D01*
X240158Y155701D02*
Y158850D01*
X237615Y160463D02*
Y167549D01*
X225804Y164006D02*
Y167549D01*
X237615D01*
X226001Y160463D02*
X237615D01*
X225804D02*
Y164006D01*
X237598Y155525D02*
Y158674D01*
X226575Y158674D02*
X237598D01*
X226575Y152375D02*
Y158674D01*
Y152375D02*
X237598D01*
Y152375D02*
Y155525D01*
X213206Y163612D02*
Y167156D01*
X201395D02*
X213009D01*
X201395Y160069D02*
X213206D01*
Y163612D01*
X201395Y160069D02*
Y167156D01*
X188206Y164006D02*
Y167156D01*
Y167156D02*
X199229D01*
Y160856D02*
Y167156D01*
X188206Y160856D02*
X199229D01*
X188206Y160856D02*
Y164006D01*
X201395Y155131D02*
Y158281D01*
Y158281D02*
X212418D01*
Y151981D02*
Y158281D01*
X201395Y151981D02*
X212418D01*
X201395Y151981D02*
Y155131D01*
X188583Y155307D02*
Y158457D01*
Y158457D02*
X199606D01*
Y152157D02*
Y158457D01*
X188583Y152157D02*
X199606D01*
X188583Y152157D02*
Y155307D01*
X174229Y160069D02*
Y163612D01*
X174426Y160069D02*
X186040D01*
X174229Y167156D02*
X186040D01*
X174229Y163612D02*
Y167156D01*
X186040Y160069D02*
Y167156D01*
X186024Y151981D02*
Y155131D01*
X175000Y151981D02*
X186024D01*
X175000D02*
Y158281D01*
X186024D01*
Y155131D02*
Y158281D01*
X160844Y163219D02*
Y166762D01*
X149032D02*
X160647D01*
X149032Y159675D02*
X160844D01*
Y163219D01*
X149032Y159675D02*
Y166762D01*
X135844Y163612D02*
Y166762D01*
Y166762D02*
X146867D01*
Y160463D02*
Y166762D01*
X135844Y160463D02*
X146867D01*
X135844Y160463D02*
Y163612D01*
X121867Y159675D02*
Y163219D01*
X122064Y159675D02*
X133678D01*
X121867Y166762D02*
X133678D01*
X121867Y163219D02*
Y166762D01*
X133678Y159675D02*
Y166762D01*
X149032Y154737D02*
Y157887D01*
Y157887D02*
X160056D01*
Y151588D02*
Y157887D01*
X149032Y151588D02*
X160056D01*
X149032Y151588D02*
Y154737D01*
X136221Y154913D02*
Y158063D01*
Y158063D02*
X147244D01*
Y151764D02*
Y158063D01*
X136221Y151764D02*
X147244D01*
X136221Y151764D02*
Y154913D01*
X133661Y151588D02*
Y154737D01*
X122638Y151588D02*
X133661D01*
X122638D02*
Y157887D01*
X133661D01*
Y154737D02*
Y157887D01*
X262414Y138583D02*
X265564D01*
X265564D02*
Y149606D01*
X259265D02*
X265564D01*
X259265Y138583D02*
Y149606D01*
X259265Y138583D02*
X262414D01*
X227538D02*
X230688D01*
X230688D02*
Y149606D01*
X224389D02*
X230688D01*
X224389Y138583D02*
Y149606D01*
X224389Y138583D02*
X227538D01*
X207690Y138189D02*
X210840D01*
X207690D02*
Y149213D01*
X213989D01*
Y138189D02*
Y149213D01*
X210840Y138189D02*
X213989D01*
X172814D02*
X175964D01*
X172814D02*
Y149213D01*
X179113D01*
Y138189D02*
Y149213D01*
X175964Y138189D02*
X179113D01*
X155328Y137795D02*
X158477D01*
X155328D02*
Y148819D01*
X161627D01*
Y137795D02*
Y148819D01*
X158477Y137795D02*
X161627D01*
X120452D02*
X123601D01*
X120452D02*
Y148819D01*
X126751D01*
Y137795D02*
Y148819D01*
X123601Y137795D02*
X126751D01*
X257677Y128129D02*
Y135216D01*
X245866Y131672D02*
Y135216D01*
X257677D01*
X246063Y128129D02*
X257677D01*
X245866D02*
Y131672D01*
X231299Y128523D02*
Y135609D01*
X243110Y128523D02*
Y132066D01*
X231299Y128523D02*
X243110D01*
X231299Y135609D02*
X242913D01*
X243110Y132066D02*
Y135609D01*
X194291Y127735D02*
Y131279D01*
X194488Y127735D02*
X206102D01*
X194291Y134822D02*
X206102D01*
X194291Y131279D02*
Y134822D01*
X206102Y127735D02*
Y134822D01*
X191535Y131672D02*
Y135216D01*
X179724D02*
X191339D01*
X179724Y128129D02*
X191535D01*
Y131672D01*
X179724Y128129D02*
Y135216D01*
X141929Y127341D02*
Y130885D01*
X142126Y127341D02*
X153740D01*
X141929Y134428D02*
X153740D01*
X141929Y130885D02*
Y134428D01*
X153740Y127341D02*
Y134428D01*
X127362Y127735D02*
Y134822D01*
X139173Y127735D02*
Y131279D01*
X127362Y127735D02*
X139173D01*
X127362Y134822D02*
X138976D01*
X139173Y131279D02*
Y134822D01*
X89387Y185266D02*
Y188415D01*
X78363Y185266D02*
X89387D01*
X78363D02*
Y191565D01*
X89387D01*
Y188415D02*
Y191565D01*
X73228Y170502D02*
X76772D01*
Y170699D02*
Y182313D01*
X69685Y170502D02*
Y182313D01*
Y170502D02*
X73228D01*
X69685Y182313D02*
X76772D01*
X109072Y169731D02*
X112615D01*
Y169928D02*
Y181542D01*
X105529Y169731D02*
Y181542D01*
Y169731D02*
X109072D01*
X105529Y181542D02*
X112615D01*
X109269Y164400D02*
Y167943D01*
X97458D02*
X109072D01*
X97458Y160856D02*
X109269D01*
Y164400D01*
X97458Y160856D02*
Y167943D01*
X84269Y164793D02*
Y167943D01*
Y167943D02*
X95292D01*
Y161644D02*
Y167943D01*
X84269Y161644D02*
X95292D01*
X84269Y161644D02*
Y164793D01*
X70292Y160856D02*
Y164400D01*
X70489Y160856D02*
X82103D01*
X70292Y167943D02*
X82103D01*
X70292Y164400D02*
Y167943D01*
X82103Y160856D02*
Y167943D01*
X84646Y156095D02*
Y159244D01*
Y159244D02*
X95669D01*
Y152945D02*
Y159244D01*
X84646Y152945D02*
X95669D01*
X84646Y152945D02*
Y156095D01*
X97458Y155918D02*
Y159068D01*
Y159068D02*
X108481D01*
Y152769D02*
Y159068D01*
X97458Y152769D02*
X108481D01*
X97458Y152769D02*
Y155918D01*
X82087Y152769D02*
Y155918D01*
X71063Y152769D02*
X82087D01*
X71063D02*
Y159068D01*
X82087D01*
Y155918D02*
Y159068D01*
X68877Y138976D02*
X72026D01*
X68877D02*
Y150000D01*
X75176D01*
Y138976D02*
Y150000D01*
X72026Y138976D02*
X75176D01*
X103753D02*
X106903D01*
X103753D02*
Y150000D01*
X110052D01*
Y138976D02*
Y150000D01*
X106903Y138976D02*
X110052D01*
X90354Y128523D02*
Y132066D01*
X90551Y128523D02*
X102165D01*
X90354Y135609D02*
X102165D01*
X90354Y132066D02*
Y135609D01*
X102165Y128523D02*
Y135609D01*
X87598Y132460D02*
Y136003D01*
X75787D02*
X87402D01*
X75787Y128916D02*
X87598D01*
Y132460D01*
X75787Y128916D02*
Y136003D01*
X272441Y194567D02*
Y245354D01*
X227953D02*
X272441D01*
X227953Y194567D02*
Y245354D01*
Y194567D02*
X272441D01*
X257382Y279183D02*
Y285236D01*
Y275787D02*
Y282037D01*
Y275787D02*
X268799D01*
Y285236D01*
X257382D02*
X268799D01*
X173212Y245087D02*
X193212D01*
Y283276D01*
X173212D02*
X193212D01*
X173212Y245087D02*
Y283276D01*
X259842Y289055D02*
Y329213D01*
Y289055D02*
X268898D01*
Y329213D01*
X259842D02*
X268898D01*
X114826Y265165D02*
X116500D01*
X114826D02*
Y266839D01*
Y292626D02*
Y294299D01*
X116500D01*
X142287D02*
X143960D01*
Y292626D02*
Y294299D01*
X142287Y265165D02*
X143960D01*
Y266839D01*
X174803Y265747D02*
X177427Y261811D01*
Y265747D02*
X174803Y261811D01*
X178739Y265747D02*
X181363D01*
X180051D01*
Y261811D01*
X182675D02*
Y264435D01*
X183986Y265747D01*
X185299Y264435D01*
Y261811D01*
Y263779D01*
X182675D01*
X186610Y265747D02*
Y261811D01*
X189234D01*
X190546D02*
X191858D01*
X191202D01*
Y265747D01*
X190546Y265091D01*
X192126Y230314D02*
Y227034D01*
X192782Y226378D01*
X194094D01*
X194750Y227034D01*
Y230314D01*
X198686D02*
X197374Y229658D01*
X196062Y228346D01*
Y227034D01*
X196718Y226378D01*
X198030D01*
X198686Y227034D01*
Y227690D01*
X198030Y228346D01*
X196062D01*
X158661Y225983D02*
Y222703D01*
X159317Y222047D01*
X160629D01*
X161285Y222703D01*
Y225983D01*
X162597Y225327D02*
X163253Y225983D01*
X164565D01*
X165221Y225327D01*
Y224671D01*
X164565Y224015D01*
X163909D01*
X164565D01*
X165221Y223359D01*
Y222703D01*
X164565Y222047D01*
X163253D01*
X162597Y222703D01*
X106299Y281889D02*
Y278609D01*
X106955Y277953D01*
X108267D01*
X108923Y278609D01*
Y281889D01*
X112859Y277953D02*
X110235D01*
X112859Y280577D01*
Y281233D01*
X112203Y281889D01*
X110891D01*
X110235Y281233D01*
D12*
X208276Y212538D02*
G03*
X208276Y212538I-500J0D01*
G01*
X230040Y289724D02*
X230060Y299193D01*
X230040Y330748D02*
X230060Y321280D01*
X195001Y330748D02*
X230040D01*
X195001Y289724D02*
X230040D01*
X195001D02*
Y330748D01*
X172087Y216929D02*
Y232677D01*
X152323Y216929D02*
Y232677D01*
X83559Y138480D02*
X95370D01*
X83559Y150291D02*
X95370D01*
X224882Y125455D02*
X264882D01*
X224882Y107738D02*
X264882D01*
X224882D02*
Y125455D01*
X264882Y107738D02*
Y125455D01*
X109370Y108132D02*
Y125848D01*
X69370Y108132D02*
Y125848D01*
Y108132D02*
X109370D01*
X69370Y125848D02*
X109370D01*
X120945Y124667D02*
X160945D01*
X120945Y106951D02*
X160945D01*
X120945D02*
Y124667D01*
X160945Y106951D02*
Y124667D01*
X213307Y107344D02*
Y125061D01*
X173307Y107344D02*
Y125061D01*
Y107344D02*
X213307D01*
X173307Y125061D02*
X213307D01*
X189092Y181652D02*
X200903D01*
X189092Y169841D02*
X200903D01*
X187496Y149504D02*
X199307D01*
X187496Y137693D02*
X199307D01*
X136729Y181258D02*
X148540D01*
X136729Y169447D02*
X148540D01*
X135134Y149110D02*
X146945D01*
X135134Y137299D02*
X146945D01*
X85154Y182439D02*
X96966D01*
X85154Y170628D02*
X96966D01*
X110236Y202992D02*
Y242992D01*
X81890Y202992D02*
X110236D01*
X114173D01*
Y242992D01*
X110236D02*
X114173D01*
X81890D02*
X110236D01*
X81890Y202992D02*
Y242992D01*
X240666Y170234D02*
X252477D01*
X240666Y182045D02*
X252477D01*
X239071Y138087D02*
X250882D01*
X239071Y149898D02*
X250882D01*
D13*
X100201Y138402D02*
G03*
X100201Y138402I-500J0D01*
G01*
X94295Y140449D02*
G03*
X94295Y140449I-500J0D01*
G01*
X199828Y171809D02*
G03*
X199828Y171809I-500J0D01*
G01*
X205733Y169762D02*
G03*
X205733Y169762I-500J0D01*
G01*
X198232Y139661D02*
G03*
X198232Y139661I-500J0D01*
G01*
X204138Y137614D02*
G03*
X204138Y137614I-500J0D01*
G01*
X147466Y171415D02*
G03*
X147466Y171415I-500J0D01*
G01*
X153371Y169368D02*
G03*
X153371Y169368I-500J0D01*
G01*
X145870Y139268D02*
G03*
X145870Y139268I-500J0D01*
G01*
X151776Y137221D02*
G03*
X151776Y137221I-500J0D01*
G01*
X95891Y172597D02*
G03*
X95891Y172597I-500J0D01*
G01*
X101796Y170549D02*
G03*
X101796Y170549I-500J0D01*
G01*
X257308Y170156D02*
G03*
X257308Y170156I-500J0D01*
G01*
X251403Y172203D02*
G03*
X251403Y172203I-500J0D01*
G01*
X255713Y138008D02*
G03*
X255713Y138008I-500J0D01*
G01*
X249807Y140055D02*
G03*
X249807Y140055I-500J0D01*
G01*
D14*
X268898Y198110D02*
G03*
X268898Y198110I-394J0D01*
G01*
X255906Y278543D02*
G03*
X255906Y278543I-394J0D01*
G01*
X188449Y242331D02*
G03*
X188449Y242331I-394J0D01*
G01*
X77408Y233858D02*
Y229860D01*
Y213386D02*
Y209387D01*
X79408Y211386D02*
X75409D01*
X233858Y110493D02*
X236482D01*
X253543D02*
X256167D01*
X254855Y111805D02*
Y109181D01*
X98032Y110887D02*
X100655D01*
X99343Y112199D02*
Y109575D01*
X78347Y110887D02*
X80970D01*
X129921Y109706D02*
X132545D01*
X149606D02*
X152230D01*
X150918Y111018D02*
Y108394D01*
X201969Y110100D02*
X204592D01*
X203280Y111412D02*
Y108788D01*
X182283Y110100D02*
X184907D01*
X245912Y114173D02*
Y120171D01*
X242913Y117172D01*
X246912D01*
X191732Y118778D02*
X192732Y119778D01*
X194731D01*
X195731Y118778D01*
Y117778D01*
X194731Y116779D01*
X193732D01*
X194731D01*
X195731Y115779D01*
Y114779D01*
X194731Y113779D01*
X192732D01*
X191732Y114779D01*
X142975Y113386D02*
X138976D01*
X142975Y117385D01*
Y118384D01*
X141975Y119384D01*
X139976D01*
X138976Y118384D01*
X88583Y114173D02*
X90582D01*
X89582D01*
Y120171D01*
X88583Y119172D01*
X53211Y195943D02*
X52212Y196943D01*
X50212D01*
X49213Y195943D01*
Y191945D01*
X50212Y190945D01*
X52212D01*
X53211Y191945D01*
X55211Y196943D02*
Y190945D01*
Y193944D01*
X59209D01*
Y196943D01*
Y190945D01*
X61209D02*
Y196943D01*
X65207Y190945D01*
Y196943D01*
X43307Y206785D02*
Y202787D01*
X45306Y200787D01*
X47306Y202787D01*
Y206785D01*
X49305Y200787D02*
X51305D01*
X50305D01*
Y206785D01*
X49305Y205786D01*
X54303Y200787D02*
Y201787D01*
X55303D01*
Y200787D01*
X54303D01*
X59302Y205786D02*
X60302Y206785D01*
X62301D01*
X63301Y205786D01*
Y201787D01*
X62301Y200787D01*
X60302D01*
X59302Y201787D01*
Y205786D01*
X65300Y203786D02*
X69299D01*
X71298Y200787D02*
X73297D01*
X72298D01*
Y206785D01*
X71298Y205786D01*
X41339Y299213D02*
Y303211D01*
X43338Y305211D01*
X45337Y303211D01*
Y299213D01*
Y302212D01*
X41339D01*
X51335Y303211D02*
X48336D01*
X47337Y302212D01*
Y300212D01*
X48336Y299213D01*
X51335D01*
X54334D02*
X56334D01*
X57333Y300212D01*
Y302212D01*
X56334Y303211D01*
X54334D01*
X53335Y302212D01*
Y300212D01*
X54334Y299213D01*
X59333Y303211D02*
Y300212D01*
X60332Y299213D01*
X63332D01*
Y303211D01*
X65331Y299213D02*
X68330D01*
X69330Y300212D01*
X68330Y301212D01*
X66330D01*
X65331Y302212D01*
X66330Y303211D01*
X69330D01*
X72329Y304211D02*
Y303211D01*
X71329D01*
X73328D01*
X72329D01*
Y300212D01*
X73328Y299213D01*
X76327D02*
X78327D01*
X77327D01*
Y303211D01*
X76327D01*
X85324D02*
X82325D01*
X81326Y302212D01*
Y300212D01*
X82325Y299213D01*
X85324D01*
X87324D02*
X90323D01*
X91322Y300212D01*
X90323Y301212D01*
X88323D01*
X87324Y302212D01*
X88323Y303211D01*
X91322D01*
X41339Y309055D02*
Y315053D01*
X44338D01*
X45337Y314054D01*
Y312054D01*
X44338Y311054D01*
X41339D01*
X43338D02*
X45337Y309055D01*
X48336D02*
X50336D01*
X51335Y310055D01*
Y312054D01*
X50336Y313054D01*
X48336D01*
X47337Y312054D01*
Y310055D01*
X48336Y309055D01*
X53335Y315053D02*
Y309055D01*
X56334D01*
X57333Y310055D01*
Y311054D01*
Y312054D01*
X56334Y313054D01*
X53335D01*
X60332Y309055D02*
X62332D01*
X63332Y310055D01*
Y312054D01*
X62332Y313054D01*
X60332D01*
X59333Y312054D01*
Y310055D01*
X60332Y309055D01*
X69330Y314054D02*
X68330Y315053D01*
X66330D01*
X65331Y314054D01*
Y313054D01*
X66330Y312054D01*
X68330D01*
X69330Y311054D01*
Y310055D01*
X68330Y309055D01*
X66330D01*
X65331Y310055D01*
X71329Y313054D02*
Y310055D01*
X72329Y309055D01*
X75328D01*
Y313054D01*
X77327Y315053D02*
Y309055D01*
X80326D01*
X81326Y310055D01*
Y311054D01*
Y312054D01*
X80326Y313054D01*
X77327D01*
X41339Y324896D02*
Y318898D01*
Y321897D01*
X45337D01*
Y324896D01*
Y318898D01*
X47337D02*
Y324896D01*
X49336Y322896D01*
X51335Y324896D01*
Y318898D01*
X57333Y323896D02*
X56334Y324896D01*
X54334D01*
X53335Y323896D01*
Y319897D01*
X54334Y318898D01*
X56334D01*
X57333Y319897D01*
X273884Y295406D02*
X273228Y296062D01*
X271916D01*
X271260Y295406D01*
Y292782D01*
X271916Y292126D01*
X273228D01*
X273884Y292782D01*
Y294094D01*
X272572D01*
X275196Y292126D02*
Y296062D01*
X277819Y292126D01*
Y296062D01*
X279131D02*
Y292126D01*
X281099D01*
X281755Y292782D01*
Y295406D01*
X281099Y296062D01*
X279131D01*
X271260Y306036D02*
X271916Y306692D01*
X273228D01*
X273884Y306036D01*
Y305380D01*
X273228Y304724D01*
X272572D01*
X273228D01*
X273884Y304068D01*
Y303412D01*
X273228Y302756D01*
X271916D01*
X271260Y303412D01*
X275196Y302756D02*
Y303412D01*
X275851D01*
Y302756D01*
X275196D01*
X278475Y306036D02*
X279131Y306692D01*
X280443D01*
X281099Y306036D01*
Y305380D01*
X280443Y304724D01*
X279787D01*
X280443D01*
X281099Y304068D01*
Y303412D01*
X280443Y302756D01*
X279131D01*
X278475Y303412D01*
X282411Y306692D02*
Y304068D01*
X283723Y302756D01*
X285035Y304068D01*
Y306692D01*
X273884Y315091D02*
X273228Y315747D01*
X271916D01*
X271260Y315091D01*
Y314435D01*
X271916Y313779D01*
X273228D01*
X273884Y313123D01*
Y312467D01*
X273228Y311811D01*
X271916D01*
X271260Y312467D01*
X275196Y315747D02*
Y311811D01*
X277164D01*
X277819Y312467D01*
Y315091D01*
X277164Y315747D01*
X275196D01*
X279131Y311811D02*
Y314435D01*
X280443Y315747D01*
X281755Y314435D01*
Y311811D01*
Y313779D01*
X279131D01*
X273884Y324933D02*
X273228Y325589D01*
X271916D01*
X271260Y324933D01*
Y324277D01*
X271916Y323621D01*
X273228D01*
X273884Y322966D01*
Y322309D01*
X273228Y321654D01*
X271916D01*
X271260Y322309D01*
X277819Y324933D02*
X277164Y325589D01*
X275851D01*
X275196Y324933D01*
Y322309D01*
X275851Y321654D01*
X277164D01*
X277819Y322309D01*
X279131Y325589D02*
Y321654D01*
X281755D01*
X277821Y215878D02*
X277165Y216534D01*
X275853D01*
X275197Y215878D01*
Y215222D01*
X275853Y214566D01*
X277165D01*
X277821Y213910D01*
Y213254D01*
X277165Y212598D01*
X275853D01*
X275197Y213254D01*
X279133Y216534D02*
Y212598D01*
X280445Y213910D01*
X281756Y212598D01*
Y216534D01*
X283068Y212598D02*
X284380D01*
X283724D01*
Y216534D01*
X283068Y215878D01*
X277427Y225721D02*
X276771Y226377D01*
X275459D01*
X274803Y225721D01*
Y225065D01*
X275459Y224409D01*
X276771D01*
X277427Y223753D01*
Y223097D01*
X276771Y222441D01*
X275459D01*
X274803Y223097D01*
X278739Y226377D02*
Y222441D01*
X280051Y223753D01*
X281363Y222441D01*
Y226377D01*
X285298Y222441D02*
X282675D01*
X285298Y225065D01*
Y225721D01*
X284643Y226377D01*
X283331D01*
X282675Y225721D01*
X277427Y205642D02*
X276771Y206298D01*
X275459D01*
X274803Y205642D01*
Y204986D01*
X275459Y204330D01*
X276771D01*
X277427Y203674D01*
Y203018D01*
X276771Y202362D01*
X275459D01*
X274803Y203018D01*
X278739Y206298D02*
Y202362D01*
X280051Y203674D01*
X281363Y202362D01*
Y206298D01*
X282675Y205642D02*
X283331Y206298D01*
X284643D01*
X285298Y205642D01*
Y203018D01*
X284643Y202362D01*
X283331D01*
X282675Y203018D01*
Y205642D01*
X276640Y253542D02*
X274016D01*
Y251574D01*
X275328D01*
X274016D01*
Y249606D01*
X278608Y252230D02*
X279919D01*
X280575Y251574D01*
Y249606D01*
X278608D01*
X277952Y250262D01*
X278608Y250918D01*
X280575D01*
X281887Y252230D02*
Y250262D01*
X282543Y249606D01*
X284511D01*
Y252230D01*
X285823Y249606D02*
X287135D01*
X286479D01*
Y253542D01*
X285823D01*
X289759Y252886D02*
Y252230D01*
X289103D01*
X290415D01*
X289759D01*
Y250262D01*
X290415Y249606D01*
X274803Y259842D02*
Y263778D01*
X276771D01*
X277427Y263122D01*
Y261810D01*
X276771Y261154D01*
X274803D01*
X281363Y263122D02*
X280707Y263778D01*
X279395D01*
X278739Y263122D01*
Y260498D01*
X279395Y259842D01*
X280707D01*
X281363Y260498D01*
Y261810D01*
X280051D01*
X274410Y272571D02*
X275065Y273227D01*
X276377D01*
X277033Y272571D01*
Y271915D01*
X276377Y271259D01*
X275721D01*
X276377D01*
X277033Y270603D01*
Y269947D01*
X276377Y269291D01*
X275065D01*
X274410Y269947D01*
X278345Y273227D02*
Y270603D01*
X279657Y269291D01*
X280969Y270603D01*
Y273227D01*
X282281Y272571D02*
X282937Y273227D01*
X284249D01*
X284905Y272571D01*
Y271915D01*
X284249Y271259D01*
X283593D01*
X284249D01*
X284905Y270603D01*
Y269947D01*
X284249Y269291D01*
X282937D01*
X282281Y269947D01*
X273884Y281626D02*
X273228Y282282D01*
X271916D01*
X271260Y281626D01*
Y280970D01*
X271916Y280314D01*
X273228D01*
X273884Y279658D01*
Y279002D01*
X273228Y278346D01*
X271916D01*
X271260Y279002D01*
X275851Y281626D02*
Y280970D01*
X275196D01*
X276507D01*
X275851D01*
Y279002D01*
X276507Y278346D01*
X279131Y280970D02*
X280443D01*
X281099Y280314D01*
Y278346D01*
X279131D01*
X278475Y279002D01*
X279131Y279658D01*
X281099D01*
X283067Y281626D02*
Y280970D01*
X282411D01*
X283723D01*
X283067D01*
Y279002D01*
X283723Y278346D01*
X285691Y280970D02*
Y279002D01*
X286347Y278346D01*
X288315D01*
Y280970D01*
X289627Y278346D02*
X291595D01*
X292250Y279002D01*
X291595Y279658D01*
X290283D01*
X289627Y280314D01*
X290283Y280970D01*
X292250D01*
X196555Y313774D02*
Y308775D01*
X197555Y307776D01*
X199554D01*
X200554Y308775D01*
Y313774D01*
X205552Y307776D02*
Y313774D01*
X202553Y310775D01*
X206552D01*
X250062Y223502D02*
X249062Y224502D01*
X247063D01*
X246063Y223502D01*
Y222503D01*
X247063Y221503D01*
X249062D01*
X250062Y220503D01*
Y219504D01*
X249062Y218504D01*
X247063D01*
X246063Y219504D01*
X252061Y218504D02*
X254060D01*
X253061D01*
Y224502D01*
X252061Y223502D01*
X84947Y218268D02*
X90945D01*
Y221267D01*
X89945Y222266D01*
X88946D01*
X87946Y221267D01*
Y218268D01*
Y221267D01*
X86946Y222266D01*
X85947D01*
X84947Y221267D01*
Y218268D01*
X90945Y224266D02*
Y226265D01*
Y225266D01*
X84947D01*
X85947Y224266D01*
D15*
X115909Y262606D02*
G03*
X115909Y262606I-492J0D01*
G01*
D16*
X188276Y239938D02*
X202276D01*
Y214138D02*
Y239938D01*
X188276Y214138D02*
X202276D01*
X188276D02*
Y239938D01*
D17*
X261502Y333071D02*
X260918Y333654D01*
Y334820D01*
X261502Y335403D01*
X262085D01*
X262668Y334820D01*
Y334237D01*
Y334820D01*
X263251Y335403D01*
X263834D01*
X264417Y334820D01*
Y333654D01*
X263834Y333071D01*
Y336570D02*
X264417Y337153D01*
Y338319D01*
X263834Y338902D01*
X261502D01*
X260918Y338319D01*
Y337153D01*
X261502Y336570D01*
X262085D01*
X262668Y337153D01*
Y338902D01*
X251502Y333071D02*
X250918Y333654D01*
Y334820D01*
X251502Y335403D01*
X252085D01*
X252668Y334820D01*
Y334237D01*
Y334820D01*
X253251Y335403D01*
X253834D01*
X254417Y334820D01*
Y333654D01*
X253834Y333071D01*
X250918Y336570D02*
Y338902D01*
X251502D01*
X253834Y336570D01*
X254417D01*
X241502Y333071D02*
X240918Y333654D01*
Y334820D01*
X241502Y335403D01*
X242085D01*
X242668Y334820D01*
Y334237D01*
Y334820D01*
X243251Y335403D01*
X243834D01*
X244417Y334820D01*
Y333654D01*
X243834Y333071D01*
X240918Y338902D02*
Y336570D01*
X242668D01*
X242085Y337736D01*
Y338319D01*
X242668Y338902D01*
X243834D01*
X244417Y338319D01*
Y337153D01*
X243834Y336570D01*
X231502Y333071D02*
X230918Y333654D01*
Y334820D01*
X231502Y335403D01*
X232085D01*
X232668Y334820D01*
Y334237D01*
Y334820D01*
X233251Y335403D01*
X233834D01*
X234417Y334820D01*
Y333654D01*
X233834Y333071D01*
X231502Y336570D02*
X230918Y337153D01*
Y338319D01*
X231502Y338902D01*
X232085D01*
X232668Y338319D01*
Y337736D01*
Y338319D01*
X233251Y338902D01*
X233834D01*
X234417Y338319D01*
Y337153D01*
X233834Y336570D01*
X221502Y333071D02*
X220918Y333654D01*
Y334820D01*
X221502Y335403D01*
X222085D01*
X222668Y334820D01*
Y334237D01*
Y334820D01*
X223251Y335403D01*
X223834D01*
X224417Y334820D01*
Y333654D01*
X223834Y333071D01*
X224417Y336570D02*
Y337736D01*
Y337153D01*
X220918D01*
X221502Y336570D01*
X214417Y335403D02*
Y333071D01*
X212085Y335403D01*
X211502D01*
X210918Y334820D01*
Y333654D01*
X211502Y333071D01*
X213834Y336570D02*
X214417Y337153D01*
Y338319D01*
X213834Y338902D01*
X211502D01*
X210918Y338319D01*
Y337153D01*
X211502Y336570D01*
X212085D01*
X212668Y337153D01*
Y338902D01*
X204417Y335403D02*
Y333071D01*
X202085Y335403D01*
X201502D01*
X200919Y334820D01*
Y333654D01*
X201502Y333071D01*
X200919Y336570D02*
Y338902D01*
X201502D01*
X203834Y336570D01*
X204417D01*
X194417Y335403D02*
Y333071D01*
X192085Y335403D01*
X191502D01*
X190919Y334820D01*
Y333654D01*
X191502Y333071D01*
X190919Y338902D02*
Y336570D01*
X192668D01*
X192085Y337736D01*
Y338319D01*
X192668Y338902D01*
X193834D01*
X194417Y338319D01*
Y337153D01*
X193834Y336570D01*
X184417Y335403D02*
Y333071D01*
X182085Y335403D01*
X181502D01*
X180919Y334820D01*
Y333654D01*
X181502Y333071D01*
Y336570D02*
X180919Y337153D01*
Y338319D01*
X181502Y338902D01*
X182085D01*
X182668Y338319D01*
Y337736D01*
Y338319D01*
X183251Y338902D01*
X183834D01*
X184417Y338319D01*
Y337153D01*
X183834Y336570D01*
X174417Y335403D02*
Y333071D01*
X172085Y335403D01*
X171502D01*
X170919Y334820D01*
Y333654D01*
X171502Y333071D01*
X174417Y336570D02*
Y337736D01*
Y337153D01*
X170919D01*
X171502Y336570D01*
X164417Y333071D02*
Y334237D01*
Y333654D01*
X160918D01*
X161502Y333071D01*
X163834Y335987D02*
X164417Y336570D01*
Y337736D01*
X163834Y338319D01*
X161502D01*
X160918Y337736D01*
Y336570D01*
X161502Y335987D01*
X162085D01*
X162668Y336570D01*
Y338319D01*
X154417Y333071D02*
Y334237D01*
Y333654D01*
X150918D01*
X151502Y333071D01*
X150918Y335987D02*
Y338319D01*
X151502D01*
X153834Y335987D01*
X154417D01*
X144417Y333071D02*
Y334237D01*
Y333654D01*
X140919D01*
X141502Y333071D01*
X140919Y338319D02*
Y335987D01*
X142668D01*
X142085Y337153D01*
Y337736D01*
X142668Y338319D01*
X143834D01*
X144417Y337736D01*
Y336570D01*
X143834Y335987D01*
X134417Y333071D02*
Y334237D01*
Y333654D01*
X130919D01*
X131502Y333071D01*
Y335987D02*
X130919Y336570D01*
Y337736D01*
X131502Y338319D01*
X132085D01*
X132668Y337736D01*
Y337153D01*
Y337736D01*
X133251Y338319D01*
X133834D01*
X134417Y337736D01*
Y336570D01*
X133834Y335987D01*
X124417Y333071D02*
Y334237D01*
Y333654D01*
X120919D01*
X121502Y333071D01*
X124417Y335987D02*
Y337153D01*
Y336570D01*
X120919D01*
X121502Y335987D01*
X113834Y333071D02*
X114417Y333654D01*
Y334820D01*
X113834Y335403D01*
X111502D01*
X110918Y334820D01*
Y333654D01*
X111502Y333071D01*
X112085D01*
X112668Y333654D01*
Y335403D01*
X100918Y333071D02*
Y335403D01*
X101502D01*
X103834Y333071D01*
X104417D01*
X90918Y335403D02*
Y333071D01*
X92668D01*
X92085Y334237D01*
Y334820D01*
X92668Y335403D01*
X93834D01*
X94417Y334820D01*
Y333654D01*
X93834Y333071D01*
X81502D02*
X80918Y333654D01*
Y334820D01*
X81502Y335403D01*
X82085D01*
X82668Y334820D01*
Y334237D01*
Y334820D01*
X83251Y335403D01*
X83834D01*
X84417Y334820D01*
Y333654D01*
X83834Y333071D01*
X71917D02*
Y334237D01*
Y333654D01*
X68418D01*
X69002Y333071D01*
D18*
X160236Y266535D02*
X160433Y266339D01*
Y265945D01*
X160236Y265748D01*
X160039D01*
X159842Y265945D01*
Y266142D01*
Y265945D01*
X159645Y265748D01*
X159449D01*
X159252Y265945D01*
Y266339D01*
X159449Y266535D01*
Y265355D02*
X159252Y265158D01*
Y264764D01*
X159449Y264568D01*
X160236D01*
X160433Y264764D01*
Y265158D01*
X160236Y265355D01*
X160039D01*
X159842Y265158D01*
Y264568D01*
X160236Y264174D02*
X160433Y263977D01*
Y263584D01*
X160236Y263387D01*
X159449D01*
X159252Y263584D01*
Y263977D01*
X159449Y264174D01*
X160236D01*
X158858Y262993D02*
X160039D01*
Y262403D01*
X159842Y262206D01*
X159449D01*
X159252Y262403D01*
Y262993D01*
X160433Y261025D02*
Y261813D01*
X159842D01*
Y261419D01*
Y261813D01*
X159252D01*
D19*
X270853Y271063D02*
D03*
X271247Y251378D02*
D03*
X270853Y262008D02*
D03*
M02*
