G04*
G04 #@! TF.GenerationSoftware,Altium Limited,Altium Designer,19.1.8 (144)*
G04*
G04 Layer_Color=8421504*
%FSLAX25Y25*%
%MOIN*%
G70*
G01*
G75*
%ADD20R,0.01968X0.03543*%
%ADD21R,0.03543X0.01968*%
%ADD22R,0.05118X0.02756*%
%ADD23R,0.26929X0.20669*%
%ADD24R,0.10984X0.04134*%
%ADD25R,0.08800X0.04800*%
%ADD26R,0.08661X0.14173*%
%ADD27R,0.02756X0.05118*%
%ADD28R,0.11811X0.07087*%
%ADD29R,0.04488X0.07008*%
%ADD30R,0.02244X0.07756*%
%ADD31R,0.05787X0.01890*%
%ADD32R,0.08661X0.05906*%
%ADD33R,0.03347X0.02559*%
%ADD34R,0.05512X0.08661*%
%ADD35R,0.04331X0.03937*%
%ADD36O,0.00984X0.02953*%
%ADD37O,0.02953X0.00984*%
%ADD38R,0.22047X0.22047*%
D20*
X244365Y250984D02*
D03*
X250271D02*
D03*
X244365Y261221D02*
D03*
X250271D02*
D03*
X244168Y271063D02*
D03*
X250074D02*
D03*
X250271Y281299D02*
D03*
X244365D02*
D03*
X193110Y206850D02*
D03*
X187205D02*
D03*
X208465Y207243D02*
D03*
X202559D02*
D03*
X159252Y244052D02*
D03*
X165157D02*
D03*
X160299Y255716D02*
D03*
X154393D02*
D03*
X155181Y263984D02*
D03*
X149275D02*
D03*
X154787Y272252D02*
D03*
X148882D02*
D03*
X148685Y280913D02*
D03*
X154590D02*
D03*
X155181Y289968D02*
D03*
X149275D02*
D03*
X161086Y298236D02*
D03*
X155181D02*
D03*
X148094Y299811D02*
D03*
X142189D02*
D03*
X141008Y255716D02*
D03*
X146913D02*
D03*
X139173Y220079D02*
D03*
X145079D02*
D03*
X168701Y205160D02*
D03*
X174606D02*
D03*
X159646D02*
D03*
X153740D02*
D03*
X250214Y188022D02*
D03*
X256119D02*
D03*
X242340D02*
D03*
X236434D02*
D03*
X204544Y187628D02*
D03*
X198639D02*
D03*
X184859D02*
D03*
X190765D02*
D03*
X152182Y187234D02*
D03*
X146277D02*
D03*
X132497D02*
D03*
X138403D02*
D03*
X100607Y188415D02*
D03*
X94702D02*
D03*
X255725Y164006D02*
D03*
X261631D02*
D03*
X242340Y164400D02*
D03*
X248245D02*
D03*
X255529Y155525D02*
D03*
X261434D02*
D03*
X242717Y155701D02*
D03*
X248622D02*
D03*
X234859Y164006D02*
D03*
X228954D02*
D03*
X235039Y155525D02*
D03*
X229134D02*
D03*
X210056Y163612D02*
D03*
X204151D02*
D03*
X196670Y164006D02*
D03*
X190765D02*
D03*
X209859Y155131D02*
D03*
X203954D02*
D03*
X197047Y155307D02*
D03*
X191142D02*
D03*
X177379Y163612D02*
D03*
X183284D02*
D03*
X177559Y155131D02*
D03*
X183465D02*
D03*
X157694Y163219D02*
D03*
X151788D02*
D03*
X144308Y163612D02*
D03*
X138403D02*
D03*
X125017Y163219D02*
D03*
X130922D02*
D03*
X157497Y154737D02*
D03*
X151592D02*
D03*
X144685Y154913D02*
D03*
X138779D02*
D03*
X125197Y154737D02*
D03*
X131102D02*
D03*
X254921Y131672D02*
D03*
X249016D02*
D03*
X234055Y132066D02*
D03*
X239961D02*
D03*
X197441Y131279D02*
D03*
X203346D02*
D03*
X188386Y131672D02*
D03*
X182480D02*
D03*
X145079Y130885D02*
D03*
X150984D02*
D03*
X130118Y131279D02*
D03*
X136024D02*
D03*
X80922Y188415D02*
D03*
X86828D02*
D03*
X106119Y164400D02*
D03*
X100214D02*
D03*
X92733Y164793D02*
D03*
X86828D02*
D03*
X73442Y164400D02*
D03*
X79347D02*
D03*
X93110Y156095D02*
D03*
X87205D02*
D03*
X105922Y155918D02*
D03*
X100017D02*
D03*
X73622Y155918D02*
D03*
X79528D02*
D03*
X93504Y132066D02*
D03*
X99410D02*
D03*
X84449Y132460D02*
D03*
X78543D02*
D03*
D21*
X198291Y266937D02*
D03*
Y261032D02*
D03*
X200000Y246654D02*
D03*
Y252559D02*
D03*
X221654Y233268D02*
D03*
Y227362D02*
D03*
Y212008D02*
D03*
Y217913D02*
D03*
Y203740D02*
D03*
Y197835D02*
D03*
X167976Y260047D02*
D03*
Y265953D02*
D03*
X167582Y280323D02*
D03*
Y274417D02*
D03*
X109315Y297646D02*
D03*
Y291740D02*
D03*
X87008Y328346D02*
D03*
Y322441D02*
D03*
X78740Y328543D02*
D03*
Y322638D02*
D03*
X253150Y302559D02*
D03*
Y308465D02*
D03*
Y317126D02*
D03*
Y323031D02*
D03*
X108921Y268118D02*
D03*
Y262213D02*
D03*
X124803Y172470D02*
D03*
Y178376D02*
D03*
X160647Y171700D02*
D03*
Y177605D02*
D03*
X177165Y172864D02*
D03*
Y178770D02*
D03*
X213009Y172094D02*
D03*
Y177999D02*
D03*
X228740Y179163D02*
D03*
Y173258D02*
D03*
X264584Y178393D02*
D03*
Y172487D02*
D03*
X262414Y141142D02*
D03*
Y147047D02*
D03*
X227538Y141142D02*
D03*
Y147047D02*
D03*
X210840Y146653D02*
D03*
Y140748D02*
D03*
X175964Y146653D02*
D03*
Y140748D02*
D03*
X158477Y146260D02*
D03*
Y140354D02*
D03*
X123601Y146260D02*
D03*
Y140354D02*
D03*
X73228Y173652D02*
D03*
Y179557D02*
D03*
X109072Y172881D02*
D03*
Y178787D02*
D03*
X72026Y147441D02*
D03*
Y141535D02*
D03*
X106903Y147441D02*
D03*
Y141535D02*
D03*
D22*
X216142Y252165D02*
D03*
Y244685D02*
D03*
X99472Y292134D02*
D03*
Y299614D02*
D03*
Y260244D02*
D03*
Y267724D02*
D03*
X131756Y236622D02*
D03*
Y229142D02*
D03*
X141598Y236622D02*
D03*
Y229142D02*
D03*
D23*
X222028Y310236D02*
D03*
D24*
X181280Y300236D02*
D03*
Y310236D02*
D03*
Y320236D02*
D03*
D25*
X207476Y217938D02*
D03*
Y227038D02*
D03*
Y236138D02*
D03*
D26*
X183075Y227038D02*
D03*
D27*
X170141Y289181D02*
D03*
X162661D02*
D03*
X69882Y327165D02*
D03*
X62402D02*
D03*
X148865Y245874D02*
D03*
X141384D02*
D03*
D28*
X163386Y312106D02*
D03*
Y325689D02*
D03*
D29*
X96732Y326378D02*
D03*
X107205D02*
D03*
D30*
X154705Y234547D02*
D03*
X159705D02*
D03*
X164705D02*
D03*
X169705D02*
D03*
Y215059D02*
D03*
X164705D02*
D03*
X159705D02*
D03*
X154705D02*
D03*
D31*
X97929Y140547D02*
D03*
Y143106D02*
D03*
Y145665D02*
D03*
Y148224D02*
D03*
X81000D02*
D03*
Y145665D02*
D03*
Y143106D02*
D03*
Y140547D02*
D03*
X186532Y171907D02*
D03*
Y174467D02*
D03*
Y177026D02*
D03*
Y179585D02*
D03*
X203462D02*
D03*
Y177026D02*
D03*
Y174467D02*
D03*
Y171907D02*
D03*
X184937Y139760D02*
D03*
Y142319D02*
D03*
Y144878D02*
D03*
Y147437D02*
D03*
X201866D02*
D03*
Y144878D02*
D03*
Y142319D02*
D03*
Y139760D02*
D03*
X134170Y171514D02*
D03*
Y174073D02*
D03*
Y176632D02*
D03*
Y179191D02*
D03*
X151099D02*
D03*
Y176632D02*
D03*
Y174073D02*
D03*
Y171514D02*
D03*
X132575Y139366D02*
D03*
Y141925D02*
D03*
Y144484D02*
D03*
Y147043D02*
D03*
X149504D02*
D03*
Y144484D02*
D03*
Y141925D02*
D03*
Y139366D02*
D03*
X82595Y172695D02*
D03*
Y175254D02*
D03*
Y177813D02*
D03*
Y180372D02*
D03*
X99525D02*
D03*
Y177813D02*
D03*
Y175254D02*
D03*
Y172695D02*
D03*
X255036Y172301D02*
D03*
Y174860D02*
D03*
Y177419D02*
D03*
Y179978D02*
D03*
X238107D02*
D03*
Y177419D02*
D03*
Y174860D02*
D03*
Y172301D02*
D03*
X253441Y140154D02*
D03*
Y142713D02*
D03*
Y145272D02*
D03*
Y147831D02*
D03*
X236512D02*
D03*
Y145272D02*
D03*
Y142713D02*
D03*
Y140154D02*
D03*
D32*
X234252Y234409D02*
D03*
Y224410D02*
D03*
Y214409D02*
D03*
Y204409D02*
D03*
X266535Y234409D02*
D03*
Y224410D02*
D03*
Y214409D02*
D03*
Y204409D02*
D03*
D33*
X260236Y278937D02*
D03*
X265945D02*
D03*
X260236Y282283D02*
D03*
X265945D02*
D03*
D34*
X188212Y276583D02*
D03*
X178212D02*
D03*
X188212Y251386D02*
D03*
X178212D02*
D03*
D35*
X267200Y271063D02*
D03*
X260507D02*
D03*
X260901Y251378D02*
D03*
X267594D02*
D03*
X267200Y262008D02*
D03*
X260507D02*
D03*
D36*
X118567Y266445D02*
D03*
X120535D02*
D03*
X122504D02*
D03*
X124472D02*
D03*
X126441D02*
D03*
X128409D02*
D03*
X130378D02*
D03*
X132346D02*
D03*
X134315D02*
D03*
X136283D02*
D03*
X138252D02*
D03*
X140220D02*
D03*
Y293020D02*
D03*
X138252D02*
D03*
X136283D02*
D03*
X134315D02*
D03*
X132346D02*
D03*
X130378D02*
D03*
X128409D02*
D03*
X126441D02*
D03*
X124472D02*
D03*
X122504D02*
D03*
X120535D02*
D03*
X118567D02*
D03*
D37*
X142681Y268905D02*
D03*
Y270874D02*
D03*
Y272843D02*
D03*
Y274811D02*
D03*
Y276780D02*
D03*
Y278748D02*
D03*
Y280716D02*
D03*
Y282685D02*
D03*
Y284653D02*
D03*
Y286622D02*
D03*
Y288591D02*
D03*
Y290559D02*
D03*
X116106D02*
D03*
Y288591D02*
D03*
Y286622D02*
D03*
Y284653D02*
D03*
Y282685D02*
D03*
Y280716D02*
D03*
Y278748D02*
D03*
Y276780D02*
D03*
Y274811D02*
D03*
Y272843D02*
D03*
Y270874D02*
D03*
Y268905D02*
D03*
D38*
X129393Y279732D02*
D03*
M02*
