G04*
G04 #@! TF.GenerationSoftware,Altium Limited,Altium Designer,19.1.8 (144)*
G04*
G04 Layer_Color=16711935*
%FSLAX25Y25*%
%MOIN*%
G70*
G01*
G75*
%ADD42R,0.02769X0.04343*%
%ADD43R,0.04343X0.02769*%
%ADD50R,0.03556X0.05918*%
%ADD60C,0.05524*%
%ADD61C,0.08800*%
%ADD62R,0.06706X0.06706*%
%ADD63C,0.06706*%
%ADD64C,0.07296*%
%ADD65R,0.07296X0.07296*%
%ADD66C,0.24422*%
%ADD67C,0.02769*%
D42*
X104527Y305906D02*
D03*
X98622D02*
D03*
X191535Y334646D02*
D03*
X197441D02*
D03*
X191535Y326378D02*
D03*
X197441D02*
D03*
X145079Y220079D02*
D03*
X139173D02*
D03*
X121457Y300787D02*
D03*
X115551D02*
D03*
D43*
X123446Y146277D02*
D03*
Y140371D02*
D03*
X262205Y147047D02*
D03*
Y141142D02*
D03*
X227383Y147064D02*
D03*
Y141158D02*
D03*
X210630Y146653D02*
D03*
Y140748D02*
D03*
X175808Y146670D02*
D03*
Y140765D02*
D03*
X158268Y146260D02*
D03*
Y140354D02*
D03*
X71871Y147458D02*
D03*
Y141552D02*
D03*
X106693Y147441D02*
D03*
Y141535D02*
D03*
D50*
X155575Y272252D02*
D03*
X148094D02*
D03*
X155709Y281496D02*
D03*
X148228D02*
D03*
X141204Y299811D02*
D03*
X148685D02*
D03*
D60*
X276772Y231890D02*
D03*
X224803Y272835D02*
D03*
X216929D02*
D03*
X264173Y294173D02*
D03*
Y304173D02*
D03*
Y324173D02*
D03*
Y314173D02*
D03*
D61*
X245276Y106486D02*
D03*
X255276Y116486D02*
D03*
Y96486D02*
D03*
X235276Y116486D02*
D03*
Y96486D02*
D03*
X194095Y106093D02*
D03*
X204095Y116093D02*
D03*
Y96092D02*
D03*
X184095Y116093D02*
D03*
Y96092D02*
D03*
X140945Y105699D02*
D03*
X150945Y115699D02*
D03*
Y95699D02*
D03*
X130945Y115699D02*
D03*
Y95699D02*
D03*
X89764Y106880D02*
D03*
X99764Y116880D02*
D03*
Y96880D02*
D03*
X79764Y116880D02*
D03*
Y96880D02*
D03*
D62*
X72331Y345709D02*
D03*
D63*
Y355709D02*
D03*
X82331Y345709D02*
D03*
Y355709D02*
D03*
X92331Y345709D02*
D03*
Y355709D02*
D03*
X102331Y345709D02*
D03*
Y355709D02*
D03*
X112331Y345709D02*
D03*
Y355709D02*
D03*
X122331Y345709D02*
D03*
Y355709D02*
D03*
X132331Y345709D02*
D03*
Y355709D02*
D03*
X142331Y345709D02*
D03*
Y355709D02*
D03*
X152331Y345709D02*
D03*
Y355709D02*
D03*
X162331Y345709D02*
D03*
Y355709D02*
D03*
X172331Y345709D02*
D03*
Y355709D02*
D03*
X182331Y345709D02*
D03*
Y355709D02*
D03*
X192331Y345709D02*
D03*
Y355709D02*
D03*
X202331Y345709D02*
D03*
Y355709D02*
D03*
X212331Y345709D02*
D03*
Y355709D02*
D03*
X222331Y345709D02*
D03*
Y355709D02*
D03*
X262331D02*
D03*
Y345709D02*
D03*
X252331Y355709D02*
D03*
Y345709D02*
D03*
X242331Y355709D02*
D03*
Y345709D02*
D03*
X232331Y355709D02*
D03*
Y345709D02*
D03*
D64*
X98032Y232992D02*
D03*
D65*
Y212992D02*
D03*
D66*
X53158Y350709D02*
D03*
Y157795D02*
D03*
X281504Y350709D02*
D03*
Y157795D02*
D03*
D67*
X120732Y271071D02*
D03*
Y275402D02*
D03*
Y279732D02*
D03*
Y284063D02*
D03*
Y288394D02*
D03*
X125063Y271071D02*
D03*
Y275402D02*
D03*
Y279732D02*
D03*
Y284063D02*
D03*
Y288394D02*
D03*
X129393Y271071D02*
D03*
Y275402D02*
D03*
Y279732D02*
D03*
Y284063D02*
D03*
Y288394D02*
D03*
X133724Y271071D02*
D03*
Y275402D02*
D03*
Y279732D02*
D03*
Y284063D02*
D03*
Y288394D02*
D03*
X138055Y271071D02*
D03*
Y275402D02*
D03*
Y279732D02*
D03*
Y284063D02*
D03*
Y288394D02*
D03*
M02*
