G04*
G04 #@! TF.GenerationSoftware,Altium Limited,Altium Designer,19.1.8 (144)*
G04*
G04 Layer_Color=13431551*
%FSLAX25Y25*%
%MOIN*%
G70*
G01*
G75*
%ADD10C,0.00787*%
%ADD17C,0.00600*%
%ADD84C,0.01968*%
%ADD85C,0.00598*%
G36*
X125620Y229960D02*
X126420D01*
Y229160D01*
X127220D01*
Y228360D01*
X128020D01*
Y227560D01*
Y226760D01*
X128820D01*
Y225960D01*
Y225160D01*
Y224360D01*
X129620D01*
Y223560D01*
Y222760D01*
Y221960D01*
Y221160D01*
Y220360D01*
X128020D01*
Y221160D01*
Y221960D01*
Y222760D01*
Y223560D01*
Y224360D01*
X127220D01*
Y225160D01*
Y225960D01*
X126420D01*
Y226760D01*
Y227560D01*
X125620D01*
Y228360D01*
X124820D01*
Y229160D01*
X124020D01*
Y229960D01*
Y230760D01*
X125620D01*
Y229960D01*
D02*
G37*
G36*
X123220Y227560D02*
X124020D01*
Y226760D01*
X124820D01*
Y225960D01*
X125620D01*
Y225160D01*
Y224360D01*
X126420D01*
Y223560D01*
Y222760D01*
Y221960D01*
Y221160D01*
Y220360D01*
X124820D01*
Y221160D01*
Y221960D01*
Y222760D01*
Y223560D01*
X124020D01*
Y224360D01*
Y225160D01*
X123220D01*
Y225960D01*
X122420D01*
Y226760D01*
X121620D01*
Y227560D01*
Y228360D01*
X123220D01*
Y227560D01*
D02*
G37*
G36*
X121620Y225160D02*
X122420D01*
Y224360D01*
Y223560D01*
X123220D01*
Y222760D01*
Y221960D01*
Y221160D01*
Y220360D01*
X121620D01*
Y221160D01*
Y221960D01*
Y222760D01*
X120820D01*
Y223560D01*
Y224360D01*
X120020D01*
Y225160D01*
Y225960D01*
X121620D01*
Y225160D01*
D02*
G37*
G36*
X114420D02*
Y224360D01*
X113620D01*
Y223560D01*
X112820D01*
Y222760D01*
Y221960D01*
X112020D01*
Y221160D01*
Y220360D01*
X110420D01*
Y221160D01*
Y221960D01*
Y222760D01*
X111220D01*
Y223560D01*
Y224360D01*
X112020D01*
Y225160D01*
X112820D01*
Y225960D01*
X114420D01*
Y225160D01*
D02*
G37*
G36*
X112020Y227560D02*
Y226760D01*
X111220D01*
Y225960D01*
X110420D01*
Y225160D01*
Y224360D01*
X109620D01*
Y223560D01*
Y222760D01*
Y221960D01*
Y221160D01*
Y220360D01*
X108020D01*
Y221160D01*
Y221960D01*
Y222760D01*
Y223560D01*
Y224360D01*
Y225160D01*
X108820D01*
Y225960D01*
Y226760D01*
X109620D01*
Y227560D01*
X110420D01*
Y228360D01*
X112020D01*
Y227560D01*
D02*
G37*
G36*
X110420Y229960D02*
Y229160D01*
X109620D01*
Y228360D01*
X108820D01*
Y227560D01*
X108020D01*
Y226760D01*
X107220D01*
Y225960D01*
Y225160D01*
X106420D01*
Y224360D01*
Y223560D01*
Y222760D01*
Y221960D01*
Y221160D01*
Y220360D01*
X104820D01*
Y221160D01*
Y221960D01*
Y222760D01*
Y223560D01*
Y224360D01*
Y225160D01*
Y225960D01*
X105620D01*
Y226760D01*
Y227560D01*
X106420D01*
Y228360D01*
X107220D01*
Y229160D01*
X108020D01*
Y229960D01*
X108820D01*
Y230760D01*
X110420D01*
Y229960D01*
D02*
G37*
G36*
X118420Y222760D02*
X119220D01*
Y221960D01*
Y221160D01*
Y220360D01*
X118420D01*
Y219560D01*
Y218760D01*
Y217960D01*
Y217160D01*
Y216360D01*
Y215560D01*
Y214760D01*
Y213960D01*
Y213160D01*
Y212360D01*
X126420D01*
Y211560D01*
X127220D01*
Y210760D01*
Y209960D01*
Y209160D01*
Y208360D01*
Y207560D01*
Y206760D01*
Y205960D01*
Y205160D01*
Y204360D01*
Y203560D01*
X107220D01*
Y204360D01*
Y205160D01*
Y205960D01*
Y206760D01*
Y207560D01*
Y208360D01*
Y209160D01*
Y209960D01*
Y210760D01*
Y211560D01*
X108020D01*
Y212360D01*
X116020D01*
Y213160D01*
Y213960D01*
Y214760D01*
Y215560D01*
Y216360D01*
Y217160D01*
Y217960D01*
Y218760D01*
Y219560D01*
Y220360D01*
X115220D01*
Y221160D01*
Y221960D01*
Y222760D01*
X116020D01*
Y223560D01*
X118420D01*
Y222760D01*
D02*
G37*
G36*
X160020Y205960D02*
X160820D01*
Y205160D01*
X161620D01*
Y204360D01*
Y203560D01*
Y202760D01*
Y201960D01*
Y201160D01*
Y200360D01*
Y199560D01*
Y198760D01*
Y197960D01*
Y197160D01*
Y196360D01*
X160820D01*
Y197160D01*
X159220D01*
Y197960D01*
X156820D01*
Y198760D01*
X153620D01*
Y199560D01*
Y200360D01*
X154420D01*
Y201160D01*
Y201960D01*
Y202760D01*
X155220D01*
Y203560D01*
Y204360D01*
Y205160D01*
X156020D01*
Y205960D01*
X156820D01*
Y206760D01*
X160020D01*
Y205960D01*
D02*
G37*
G36*
X132820Y201960D02*
X139220D01*
Y201160D01*
X143220D01*
Y200360D01*
X147220D01*
Y199560D01*
X150420D01*
Y198760D01*
X153620D01*
Y197960D01*
X156820D01*
Y197160D01*
X159220D01*
Y196360D01*
X160820D01*
Y195560D01*
X162420D01*
Y194760D01*
X163220D01*
Y193960D01*
X164020D01*
Y193160D01*
X164820D01*
Y192360D01*
Y191560D01*
Y190760D01*
X164020D01*
Y189960D01*
X163220D01*
Y189160D01*
X162420D01*
Y188360D01*
X160820D01*
Y187560D01*
X161620D01*
Y186760D01*
Y185960D01*
Y185160D01*
Y184360D01*
Y183560D01*
Y182760D01*
Y181960D01*
Y181160D01*
Y180360D01*
Y179560D01*
Y178760D01*
Y177960D01*
X156020D01*
Y178760D01*
X155220D01*
Y179560D01*
Y180360D01*
X154420D01*
Y181160D01*
Y181960D01*
Y182760D01*
X153620D01*
Y183560D01*
Y184360D01*
X154420D01*
Y185160D01*
X152820D01*
Y184360D01*
X150420D01*
Y183560D01*
X147220D01*
Y182760D01*
X143220D01*
Y181960D01*
X136020D01*
Y181160D01*
X91220D01*
Y181960D01*
X88820D01*
Y182760D01*
X87220D01*
Y183560D01*
X86420D01*
Y184360D01*
X85620D01*
Y185160D01*
X84820D01*
Y185960D01*
X84020D01*
Y186760D01*
X83220D01*
Y187560D01*
Y188360D01*
X82420D01*
Y189160D01*
Y189960D01*
Y190760D01*
Y191560D01*
Y192360D01*
Y193160D01*
Y193960D01*
Y194760D01*
Y195560D01*
X83220D01*
Y196360D01*
Y197160D01*
X84020D01*
Y197960D01*
X84820D01*
Y198760D01*
X85620D01*
Y199560D01*
X86420D01*
Y200360D01*
X87220D01*
Y201160D01*
X88820D01*
Y201960D01*
X91220D01*
Y202760D01*
X132820D01*
Y201960D01*
D02*
G37*
G36*
X109620Y171560D02*
Y170760D01*
Y169960D01*
Y169160D01*
Y168360D01*
Y167560D01*
Y166760D01*
Y165960D01*
Y165160D01*
Y164360D01*
X108820D01*
Y163560D01*
Y162760D01*
X108020D01*
Y161960D01*
X106420D01*
Y161160D01*
X102420D01*
Y161960D01*
X100820D01*
Y162760D01*
X100020D01*
Y163560D01*
Y164360D01*
X99220D01*
Y165160D01*
Y165960D01*
Y166760D01*
Y167560D01*
Y168360D01*
Y169160D01*
Y169960D01*
Y170760D01*
Y171560D01*
Y172360D01*
X101620D01*
Y171560D01*
Y170760D01*
Y169960D01*
Y169160D01*
Y168360D01*
Y167560D01*
Y166760D01*
Y165960D01*
Y165160D01*
Y164360D01*
X102420D01*
Y163560D01*
X106420D01*
Y164360D01*
X107220D01*
Y165160D01*
Y165960D01*
Y166760D01*
Y167560D01*
Y168360D01*
Y169160D01*
Y169960D01*
Y170760D01*
Y171560D01*
Y172360D01*
X109620D01*
Y171560D01*
D02*
G37*
G36*
X157620D02*
X158420D01*
Y170760D01*
X159220D01*
Y169960D01*
X160020D01*
Y169160D01*
Y168360D01*
Y167560D01*
Y166760D01*
Y165960D01*
Y165160D01*
Y164360D01*
Y163560D01*
Y162760D01*
Y161960D01*
Y161160D01*
X157620D01*
Y161960D01*
Y162760D01*
Y163560D01*
Y164360D01*
Y165160D01*
Y165960D01*
Y166760D01*
Y167560D01*
Y168360D01*
Y169160D01*
X156820D01*
Y169960D01*
X154420D01*
Y170760D01*
Y171560D01*
Y172360D01*
X157620D01*
Y171560D01*
D02*
G37*
G36*
X150420D02*
X152020D01*
Y170760D01*
X152820D01*
Y169960D01*
X153620D01*
Y169160D01*
Y168360D01*
X154420D01*
Y167560D01*
Y166760D01*
Y165960D01*
Y165160D01*
Y164360D01*
X153620D01*
Y163560D01*
X152820D01*
Y162760D01*
X152020D01*
Y161960D01*
X150420D01*
Y161160D01*
X147220D01*
Y161960D01*
X145620D01*
Y162760D01*
X144820D01*
Y163560D01*
X144020D01*
Y164360D01*
Y165160D01*
X143220D01*
Y165960D01*
Y166760D01*
Y167560D01*
Y168360D01*
X144020D01*
Y169160D01*
Y169960D01*
X144820D01*
Y170760D01*
X145620D01*
Y171560D01*
X147220D01*
Y172360D01*
X150420D01*
Y171560D01*
D02*
G37*
G36*
X142420Y175560D02*
Y174760D01*
Y173960D01*
Y173160D01*
Y172360D01*
Y171560D01*
Y170760D01*
Y169960D01*
Y169160D01*
Y168360D01*
Y167560D01*
Y166760D01*
Y165960D01*
Y165160D01*
X141620D01*
Y164360D01*
Y163560D01*
X140820D01*
Y162760D01*
X140020D01*
Y161960D01*
X138420D01*
Y161160D01*
X135220D01*
Y161960D01*
X133620D01*
Y162760D01*
X132820D01*
Y163560D01*
Y164360D01*
X132020D01*
Y165160D01*
Y165960D01*
Y166760D01*
Y167560D01*
Y168360D01*
Y169160D01*
X132820D01*
Y169960D01*
Y170760D01*
X133620D01*
Y171560D01*
X135220D01*
Y172360D01*
X140020D01*
Y173160D01*
Y173960D01*
Y174760D01*
Y175560D01*
Y176360D01*
X142420D01*
Y175560D01*
D02*
G37*
G36*
X128020Y171560D02*
X129620D01*
Y170760D01*
X130420D01*
Y169960D01*
Y169160D01*
X131220D01*
Y168360D01*
Y167560D01*
Y166760D01*
Y165960D01*
Y165160D01*
Y164360D01*
X130420D01*
Y163560D01*
Y162760D01*
X129620D01*
Y161960D01*
X128020D01*
Y161160D01*
X124020D01*
Y161960D01*
X122420D01*
Y162760D01*
X121620D01*
Y163560D01*
Y164360D01*
X120820D01*
Y165160D01*
Y165960D01*
Y166760D01*
Y167560D01*
Y168360D01*
X121620D01*
Y169160D01*
Y169960D01*
X122420D01*
Y170760D01*
X123220D01*
Y171560D01*
X124820D01*
Y172360D01*
X128020D01*
Y171560D01*
D02*
G37*
G36*
X116820D02*
X118420D01*
Y170760D01*
X119220D01*
Y169960D01*
Y169160D01*
Y168360D01*
Y167560D01*
Y166760D01*
X118420D01*
Y165960D01*
X115220D01*
Y165160D01*
X112820D01*
Y164360D01*
Y163560D01*
X116820D01*
Y164360D01*
X119220D01*
Y163560D01*
Y162760D01*
X118420D01*
Y161960D01*
X116820D01*
Y161160D01*
X112820D01*
Y161960D01*
X112020D01*
Y162760D01*
X111220D01*
Y163560D01*
X110420D01*
Y164360D01*
Y165160D01*
Y165960D01*
X111220D01*
Y166760D01*
X112820D01*
Y167560D01*
X116020D01*
Y168360D01*
X117620D01*
Y169160D01*
X116820D01*
Y169960D01*
X112820D01*
Y169160D01*
X111220D01*
Y169960D01*
Y170760D01*
X112020D01*
Y171560D01*
X113620D01*
Y172360D01*
X116820D01*
Y171560D01*
D02*
G37*
G36*
X97620Y175560D02*
Y174760D01*
Y173960D01*
Y173160D01*
Y172360D01*
Y171560D01*
Y170760D01*
Y169960D01*
Y169160D01*
Y168360D01*
Y167560D01*
Y166760D01*
Y165960D01*
Y165160D01*
Y164360D01*
X96820D01*
Y163560D01*
Y162760D01*
X96020D01*
Y161960D01*
X94420D01*
Y161160D01*
X90420D01*
Y161960D01*
X89620D01*
Y162760D01*
X88820D01*
Y163560D01*
X88020D01*
Y164360D01*
Y165160D01*
X87220D01*
Y165960D01*
Y166760D01*
Y167560D01*
Y168360D01*
X88020D01*
Y169160D01*
Y169960D01*
X88820D01*
Y170760D01*
X89620D01*
Y171560D01*
X91220D01*
Y172360D01*
X95220D01*
Y173160D01*
Y173960D01*
Y174760D01*
Y175560D01*
Y176360D01*
X97620D01*
Y175560D01*
D02*
G37*
G36*
X253597Y239436D02*
X255197D01*
Y238636D01*
X255997D01*
Y237836D01*
X256797D01*
Y237036D01*
X257597D01*
Y236236D01*
Y235436D01*
X258397D01*
Y234636D01*
Y233836D01*
Y233036D01*
Y232236D01*
Y231436D01*
Y230636D01*
Y229836D01*
Y229036D01*
Y228236D01*
Y227436D01*
Y226636D01*
Y225836D01*
Y225036D01*
Y224236D01*
Y223436D01*
Y222636D01*
Y221836D01*
Y221036D01*
Y220236D01*
Y219436D01*
Y218636D01*
Y217836D01*
Y217036D01*
Y216236D01*
Y215436D01*
Y214636D01*
Y213836D01*
Y213036D01*
Y212236D01*
Y211436D01*
Y210636D01*
Y209836D01*
Y209036D01*
Y208236D01*
Y207436D01*
Y206636D01*
Y205836D01*
Y205036D01*
Y204236D01*
Y203436D01*
Y202636D01*
Y201836D01*
Y201036D01*
Y200236D01*
Y199436D01*
Y198636D01*
Y197836D01*
Y197036D01*
Y196236D01*
Y195436D01*
Y194636D01*
Y193836D01*
Y193036D01*
Y192236D01*
Y191436D01*
Y190636D01*
Y189836D01*
Y189036D01*
Y188236D01*
Y187436D01*
Y186636D01*
Y185836D01*
Y185036D01*
Y184236D01*
Y183436D01*
Y182636D01*
Y181836D01*
Y181036D01*
Y180236D01*
Y179436D01*
Y178636D01*
Y177836D01*
Y177036D01*
Y176236D01*
Y175436D01*
Y174636D01*
Y173836D01*
Y173036D01*
Y172236D01*
Y171436D01*
Y170636D01*
Y169836D01*
Y169036D01*
Y168236D01*
Y167436D01*
Y166636D01*
Y165836D01*
Y165036D01*
X257597D01*
Y164236D01*
Y163436D01*
X256797D01*
Y162636D01*
X255997D01*
Y161836D01*
X255197D01*
Y161036D01*
X253597D01*
Y160236D01*
X179997D01*
Y161036D01*
X178397D01*
Y161836D01*
X177597D01*
Y162636D01*
X176797D01*
Y163436D01*
X175997D01*
Y164236D01*
Y165036D01*
X175197D01*
Y165836D01*
Y166636D01*
Y167436D01*
Y168236D01*
Y169036D01*
Y169836D01*
Y170636D01*
Y171436D01*
Y172236D01*
Y173036D01*
Y173836D01*
Y174636D01*
Y175436D01*
Y176236D01*
Y177036D01*
Y177836D01*
Y178636D01*
Y179436D01*
Y180236D01*
Y181036D01*
Y181836D01*
Y182636D01*
Y183436D01*
Y184236D01*
Y185036D01*
Y185836D01*
Y186636D01*
Y187436D01*
Y188236D01*
Y189036D01*
Y189836D01*
Y190636D01*
Y191436D01*
Y192236D01*
Y193036D01*
Y193836D01*
Y194636D01*
Y195436D01*
Y196236D01*
Y197036D01*
Y197836D01*
Y198636D01*
Y199436D01*
Y200236D01*
Y201036D01*
Y201836D01*
Y202636D01*
Y203436D01*
Y204236D01*
Y205036D01*
Y205836D01*
Y206636D01*
Y207436D01*
Y208236D01*
Y209036D01*
Y209836D01*
Y210636D01*
Y211436D01*
Y212236D01*
Y213036D01*
Y213836D01*
Y214636D01*
Y215436D01*
Y216236D01*
Y217036D01*
Y217836D01*
Y218636D01*
Y219436D01*
Y220236D01*
Y221036D01*
Y221836D01*
Y222636D01*
Y223436D01*
Y224236D01*
Y225036D01*
Y225836D01*
Y226636D01*
Y227436D01*
Y228236D01*
Y229036D01*
Y229836D01*
Y230636D01*
Y231436D01*
Y232236D01*
Y233036D01*
Y233836D01*
Y234636D01*
Y235436D01*
X175997D01*
Y236236D01*
Y237036D01*
X176797D01*
Y237836D01*
X177597D01*
Y238636D01*
X178397D01*
Y239436D01*
X179997D01*
Y240236D01*
X253597D01*
Y239436D01*
D02*
G37*
%LPC*%
G36*
X122420Y209960D02*
X120020D01*
Y209160D01*
X119220D01*
Y208360D01*
Y207560D01*
Y206760D01*
Y205960D01*
X120020D01*
Y205160D01*
X122420D01*
Y205960D01*
X123220D01*
Y206760D01*
Y207560D01*
Y208360D01*
Y209160D01*
X122420D01*
Y209960D01*
D02*
G37*
G36*
X114420D02*
X112020D01*
Y209160D01*
X111220D01*
Y208360D01*
Y207560D01*
Y206760D01*
Y205960D01*
X112020D01*
Y205160D01*
X114420D01*
Y205960D01*
X115220D01*
Y206760D01*
Y207560D01*
Y208360D01*
Y209160D01*
X114420D01*
Y209960D01*
D02*
G37*
G36*
X160820Y187560D02*
X159220D01*
Y186760D01*
X160820D01*
Y187560D01*
D02*
G37*
G36*
X159220Y186760D02*
X156820D01*
Y185960D01*
X159220D01*
Y186760D01*
D02*
G37*
G36*
X156820Y185960D02*
X154420D01*
Y185160D01*
X156820D01*
Y185960D01*
D02*
G37*
G36*
X151220Y169960D02*
X146420D01*
Y169160D01*
X145620D01*
Y168360D01*
Y167560D01*
Y166760D01*
Y165960D01*
Y165160D01*
Y164360D01*
X146420D01*
Y163560D01*
X151220D01*
Y164360D01*
X152020D01*
Y165160D01*
Y165960D01*
Y166760D01*
Y167560D01*
Y168360D01*
Y169160D01*
X151220D01*
Y169960D01*
D02*
G37*
G36*
X139220D02*
X135220D01*
Y169160D01*
X134420D01*
Y168360D01*
Y167560D01*
Y166760D01*
Y165960D01*
Y165160D01*
Y164360D01*
X135220D01*
Y163560D01*
X139220D01*
Y164360D01*
X140020D01*
Y165160D01*
Y165960D01*
Y166760D01*
Y167560D01*
Y168360D01*
Y169160D01*
X139220D01*
Y169960D01*
D02*
G37*
G36*
X128020D02*
X124020D01*
Y169160D01*
X123220D01*
Y168360D01*
Y167560D01*
Y166760D01*
Y165960D01*
Y165160D01*
Y164360D01*
X124020D01*
Y163560D01*
X127220D01*
Y164360D01*
X128820D01*
Y165160D01*
Y165960D01*
Y166760D01*
Y167560D01*
Y168360D01*
Y169160D01*
X128020D01*
Y169960D01*
D02*
G37*
G36*
X94420D02*
X90420D01*
Y169160D01*
X89620D01*
Y168360D01*
Y167560D01*
Y166760D01*
Y165960D01*
Y165160D01*
Y164360D01*
X90420D01*
Y163560D01*
X94420D01*
Y164360D01*
X95220D01*
Y165160D01*
Y165960D01*
Y166760D01*
Y167560D01*
Y168360D01*
Y169160D01*
X94420D01*
Y169960D01*
D02*
G37*
G36*
X247997Y232236D02*
X243997D01*
Y231436D01*
Y230636D01*
Y229836D01*
X243197D01*
Y229036D01*
Y228236D01*
Y227436D01*
Y226636D01*
X242397D01*
Y225836D01*
Y225036D01*
Y224236D01*
Y223436D01*
X241597D01*
Y222636D01*
Y221836D01*
Y221036D01*
X240797D01*
Y220236D01*
Y219436D01*
Y218636D01*
Y217836D01*
X239997D01*
Y217036D01*
Y216236D01*
Y215436D01*
X239197D01*
Y216236D01*
Y217036D01*
Y217836D01*
X238397D01*
Y218636D01*
Y219436D01*
Y220236D01*
Y221036D01*
X237597D01*
Y221836D01*
Y222636D01*
Y223436D01*
X236797D01*
Y224236D01*
Y225036D01*
Y225836D01*
Y226636D01*
X235997D01*
Y227436D01*
Y228236D01*
Y229036D01*
Y229836D01*
X235197D01*
Y230636D01*
Y231436D01*
Y232236D01*
X231197D01*
Y231436D01*
Y230636D01*
Y229836D01*
Y229036D01*
Y228236D01*
Y227436D01*
Y226636D01*
Y225836D01*
Y225036D01*
Y224236D01*
Y223436D01*
Y222636D01*
Y221836D01*
Y221036D01*
Y220236D01*
Y219436D01*
Y218636D01*
Y217836D01*
Y217036D01*
Y216236D01*
Y215436D01*
Y214636D01*
Y213836D01*
Y213036D01*
Y212236D01*
Y211436D01*
Y210636D01*
Y209836D01*
Y209036D01*
Y208236D01*
Y207436D01*
Y206636D01*
Y205836D01*
Y205036D01*
Y204236D01*
Y203436D01*
Y202636D01*
Y201836D01*
X235197D01*
Y202636D01*
Y203436D01*
Y204236D01*
Y205036D01*
Y205836D01*
Y206636D01*
Y207436D01*
Y208236D01*
Y209036D01*
Y209836D01*
Y210636D01*
Y211436D01*
Y212236D01*
Y213036D01*
Y213836D01*
Y214636D01*
Y215436D01*
Y216236D01*
Y217036D01*
Y217836D01*
X235997D01*
Y217036D01*
Y216236D01*
Y215436D01*
Y214636D01*
X236797D01*
Y213836D01*
Y213036D01*
Y212236D01*
Y211436D01*
X237597D01*
Y210636D01*
Y209836D01*
Y209036D01*
Y208236D01*
X238397D01*
Y207436D01*
Y206636D01*
X240797D01*
Y207436D01*
Y208236D01*
X241597D01*
Y209036D01*
Y209836D01*
Y210636D01*
Y211436D01*
X242397D01*
Y212236D01*
Y213036D01*
Y213836D01*
Y214636D01*
X243197D01*
Y215436D01*
Y216236D01*
Y217036D01*
Y217836D01*
X243997D01*
Y217036D01*
Y216236D01*
Y215436D01*
Y214636D01*
Y213836D01*
Y213036D01*
Y212236D01*
Y211436D01*
Y210636D01*
Y209836D01*
Y209036D01*
Y208236D01*
Y207436D01*
Y206636D01*
Y205836D01*
Y205036D01*
Y204236D01*
Y203436D01*
Y202636D01*
Y201836D01*
X247997D01*
Y202636D01*
Y203436D01*
Y204236D01*
Y205036D01*
Y205836D01*
Y206636D01*
Y207436D01*
Y208236D01*
Y209036D01*
Y209836D01*
Y210636D01*
Y211436D01*
Y212236D01*
Y213036D01*
Y213836D01*
Y214636D01*
Y215436D01*
Y216236D01*
Y217036D01*
Y217836D01*
Y218636D01*
Y219436D01*
Y220236D01*
Y221036D01*
Y221836D01*
Y222636D01*
Y223436D01*
Y224236D01*
Y225036D01*
Y225836D01*
Y226636D01*
Y227436D01*
Y228236D01*
Y229036D01*
Y229836D01*
Y230636D01*
Y231436D01*
Y232236D01*
D02*
G37*
G36*
X227997D02*
X223997D01*
Y231436D01*
Y230636D01*
Y229836D01*
Y229036D01*
Y228236D01*
Y227436D01*
Y226636D01*
Y225836D01*
Y225036D01*
Y224236D01*
Y223436D01*
Y222636D01*
Y221836D01*
Y221036D01*
Y220236D01*
Y219436D01*
Y218636D01*
Y217836D01*
Y217036D01*
Y216236D01*
Y215436D01*
Y214636D01*
Y213836D01*
Y213036D01*
Y212236D01*
Y211436D01*
Y210636D01*
Y209836D01*
Y209036D01*
Y208236D01*
Y207436D01*
X223197D01*
Y206636D01*
X220797D01*
Y207436D01*
X219997D01*
Y208236D01*
Y209036D01*
Y209836D01*
Y210636D01*
Y211436D01*
Y212236D01*
Y213036D01*
Y213836D01*
Y214636D01*
Y215436D01*
Y216236D01*
Y217036D01*
Y217836D01*
Y218636D01*
Y219436D01*
Y220236D01*
Y221036D01*
Y221836D01*
Y222636D01*
Y223436D01*
Y224236D01*
Y225036D01*
Y225836D01*
Y226636D01*
Y227436D01*
Y228236D01*
Y229036D01*
Y229836D01*
Y230636D01*
Y231436D01*
Y232236D01*
X215997D01*
Y231436D01*
Y230636D01*
Y229836D01*
Y229036D01*
Y228236D01*
Y227436D01*
Y226636D01*
Y225836D01*
Y225036D01*
Y224236D01*
Y223436D01*
Y222636D01*
Y221836D01*
Y221036D01*
Y220236D01*
Y219436D01*
Y218636D01*
Y217836D01*
Y217036D01*
Y216236D01*
Y215436D01*
Y214636D01*
Y213836D01*
Y213036D01*
Y212236D01*
Y211436D01*
Y210636D01*
Y209836D01*
Y209036D01*
Y208236D01*
Y207436D01*
Y206636D01*
Y205836D01*
Y205036D01*
X216797D01*
Y204236D01*
Y203436D01*
X217597D01*
Y202636D01*
X219197D01*
Y201836D01*
X224797D01*
Y202636D01*
X226397D01*
Y203436D01*
X227197D01*
Y204236D01*
Y205036D01*
X227997D01*
Y205836D01*
Y206636D01*
Y207436D01*
Y208236D01*
Y209036D01*
Y209836D01*
Y210636D01*
Y211436D01*
Y212236D01*
Y213036D01*
Y213836D01*
Y214636D01*
Y215436D01*
Y216236D01*
Y217036D01*
Y217836D01*
Y218636D01*
Y219436D01*
Y220236D01*
Y221036D01*
Y221836D01*
Y222636D01*
Y223436D01*
Y224236D01*
Y225036D01*
Y225836D01*
Y226636D01*
Y227436D01*
Y228236D01*
Y229036D01*
Y229836D01*
Y230636D01*
Y231436D01*
Y232236D01*
D02*
G37*
G36*
X212797D02*
X204797D01*
Y231436D01*
X203197D01*
Y230636D01*
X202397D01*
Y229836D01*
X201597D01*
Y229036D01*
Y228236D01*
X200797D01*
Y227436D01*
Y226636D01*
Y225836D01*
Y225036D01*
Y224236D01*
Y223436D01*
Y222636D01*
Y221836D01*
Y221036D01*
Y220236D01*
Y219436D01*
Y218636D01*
Y217836D01*
Y217036D01*
Y216236D01*
Y215436D01*
Y214636D01*
Y213836D01*
Y213036D01*
Y212236D01*
Y211436D01*
Y210636D01*
Y209836D01*
Y209036D01*
Y208236D01*
Y207436D01*
Y206636D01*
Y205836D01*
X201597D01*
Y205036D01*
Y204236D01*
X202397D01*
Y203436D01*
X203197D01*
Y202636D01*
X204797D01*
Y201836D01*
X212797D01*
Y202636D01*
Y203436D01*
Y204236D01*
Y205036D01*
Y205836D01*
Y206636D01*
Y207436D01*
Y208236D01*
Y209036D01*
Y209836D01*
Y210636D01*
Y211436D01*
Y212236D01*
Y213036D01*
Y213836D01*
Y214636D01*
Y215436D01*
Y216236D01*
Y217036D01*
Y217836D01*
Y218636D01*
Y219436D01*
Y220236D01*
Y221036D01*
Y221836D01*
Y222636D01*
Y223436D01*
Y224236D01*
Y225036D01*
Y225836D01*
Y226636D01*
Y227436D01*
Y228236D01*
Y229036D01*
Y229836D01*
Y230636D01*
Y231436D01*
Y232236D01*
D02*
G37*
G36*
X197597D02*
X189597D01*
Y231436D01*
X187997D01*
Y230636D01*
X187197D01*
Y229836D01*
X186397D01*
Y229036D01*
Y228236D01*
X185597D01*
Y227436D01*
Y226636D01*
Y225836D01*
Y225036D01*
Y224236D01*
Y223436D01*
Y222636D01*
Y221836D01*
Y221036D01*
Y220236D01*
Y219436D01*
Y218636D01*
Y217836D01*
Y217036D01*
Y216236D01*
Y215436D01*
Y214636D01*
Y213836D01*
Y213036D01*
Y212236D01*
Y211436D01*
Y210636D01*
Y209836D01*
Y209036D01*
Y208236D01*
Y207436D01*
Y206636D01*
Y205836D01*
X186397D01*
Y205036D01*
Y204236D01*
X187197D01*
Y203436D01*
X187997D01*
Y202636D01*
X189597D01*
Y201836D01*
X197597D01*
Y202636D01*
Y203436D01*
Y204236D01*
Y205036D01*
Y205836D01*
Y206636D01*
Y207436D01*
Y208236D01*
Y209036D01*
Y209836D01*
Y210636D01*
Y211436D01*
Y212236D01*
Y213036D01*
Y213836D01*
Y214636D01*
Y215436D01*
Y216236D01*
Y217036D01*
Y217836D01*
Y218636D01*
Y219436D01*
Y220236D01*
Y221036D01*
Y221836D01*
Y222636D01*
Y223436D01*
Y224236D01*
Y225036D01*
Y225836D01*
Y226636D01*
Y227436D01*
Y228236D01*
Y229036D01*
Y229836D01*
Y230636D01*
Y231436D01*
Y232236D01*
D02*
G37*
G36*
X225597Y195436D02*
X219997D01*
Y194636D01*
Y193836D01*
Y193036D01*
Y192236D01*
Y191436D01*
Y190636D01*
Y189836D01*
Y189036D01*
Y188236D01*
Y187436D01*
Y186636D01*
Y185836D01*
Y185036D01*
Y184236D01*
Y183436D01*
Y182636D01*
Y181836D01*
Y181036D01*
Y180236D01*
Y179436D01*
Y178636D01*
Y177836D01*
Y177036D01*
Y176236D01*
Y175436D01*
Y174636D01*
Y173836D01*
X219197D01*
Y173036D01*
X218397D01*
Y172236D01*
X214397D01*
Y173036D01*
X213597D01*
Y173836D01*
X212797D01*
Y174636D01*
Y175436D01*
Y176236D01*
Y177036D01*
Y177836D01*
Y178636D01*
Y179436D01*
Y180236D01*
Y181036D01*
Y181836D01*
Y182636D01*
Y183436D01*
Y184236D01*
Y185036D01*
Y185836D01*
Y186636D01*
Y187436D01*
Y188236D01*
Y189036D01*
Y189836D01*
Y190636D01*
Y191436D01*
Y192236D01*
Y193036D01*
Y193836D01*
Y194636D01*
Y195436D01*
X207197D01*
Y194636D01*
Y193836D01*
Y193036D01*
Y192236D01*
Y191436D01*
Y190636D01*
Y189836D01*
Y189036D01*
Y188236D01*
Y187436D01*
Y186636D01*
Y185836D01*
Y185036D01*
Y184236D01*
Y183436D01*
Y182636D01*
Y181836D01*
Y181036D01*
Y180236D01*
Y179436D01*
Y178636D01*
Y177836D01*
Y177036D01*
Y176236D01*
Y175436D01*
Y174636D01*
Y173836D01*
Y173036D01*
X207997D01*
Y172236D01*
Y171436D01*
X208797D01*
Y170636D01*
X209597D01*
Y169836D01*
X211197D01*
Y169036D01*
X213597D01*
Y168236D01*
X219197D01*
Y169036D01*
X221597D01*
Y169836D01*
X223197D01*
Y170636D01*
X223997D01*
Y171436D01*
X224797D01*
Y172236D01*
Y173036D01*
X225597D01*
Y173836D01*
Y174636D01*
Y175436D01*
Y176236D01*
Y177036D01*
Y177836D01*
Y178636D01*
Y179436D01*
Y180236D01*
Y181036D01*
Y181836D01*
Y182636D01*
Y183436D01*
Y184236D01*
Y185036D01*
Y185836D01*
Y186636D01*
Y187436D01*
Y188236D01*
Y189036D01*
Y189836D01*
Y190636D01*
Y191436D01*
Y192236D01*
Y193036D01*
Y193836D01*
Y194636D01*
Y195436D01*
D02*
G37*
G36*
X203197D02*
X190397D01*
Y194636D01*
X188797D01*
Y193836D01*
X187197D01*
Y193036D01*
X186397D01*
Y192236D01*
Y191436D01*
X185597D01*
Y190636D01*
Y189836D01*
Y189036D01*
Y188236D01*
Y187436D01*
Y186636D01*
Y185836D01*
X186397D01*
Y185036D01*
Y184236D01*
X187197D01*
Y183436D01*
X188797D01*
Y182636D01*
X187997D01*
Y181836D01*
X187197D01*
Y181036D01*
X186397D01*
Y180236D01*
X185597D01*
Y179436D01*
Y178636D01*
Y177836D01*
Y177036D01*
Y176236D01*
Y175436D01*
Y174636D01*
Y173836D01*
Y173036D01*
Y172236D01*
X186397D01*
Y171436D01*
X187197D01*
Y170636D01*
X187997D01*
Y169836D01*
X190397D01*
Y169036D01*
X203197D01*
Y169836D01*
Y170636D01*
Y171436D01*
Y172236D01*
Y173036D01*
Y173836D01*
Y174636D01*
Y175436D01*
Y176236D01*
Y177036D01*
Y177836D01*
Y178636D01*
Y179436D01*
Y180236D01*
Y181036D01*
Y181836D01*
Y182636D01*
Y183436D01*
Y184236D01*
Y185036D01*
Y185836D01*
Y186636D01*
Y187436D01*
Y188236D01*
Y189036D01*
Y189836D01*
Y190636D01*
Y191436D01*
Y192236D01*
Y193036D01*
Y193836D01*
Y194636D01*
Y195436D01*
D02*
G37*
G36*
X241597Y196236D02*
X235997D01*
Y195436D01*
X233597D01*
Y194636D01*
X231997D01*
Y193836D01*
X231197D01*
Y193036D01*
Y192236D01*
X230397D01*
Y191436D01*
Y190636D01*
Y189836D01*
Y189036D01*
Y188236D01*
Y187436D01*
Y186636D01*
X235197D01*
Y187436D01*
Y188236D01*
Y189036D01*
Y189836D01*
X235997D01*
Y190636D01*
X236797D01*
Y191436D01*
X237597D01*
Y192236D01*
X239997D01*
Y191436D01*
X241597D01*
Y190636D01*
Y189836D01*
X242397D01*
Y189036D01*
Y188236D01*
Y187436D01*
X241597D01*
Y186636D01*
X240797D01*
Y185836D01*
X239997D01*
Y185036D01*
X238397D01*
Y184236D01*
X236797D01*
Y183436D01*
X235197D01*
Y182636D01*
X233597D01*
Y181836D01*
X231997D01*
Y181036D01*
X231197D01*
Y180236D01*
X230397D01*
Y179436D01*
Y178636D01*
X229597D01*
Y177836D01*
Y177036D01*
Y176236D01*
Y175436D01*
Y174636D01*
Y173836D01*
Y173036D01*
X230397D01*
Y172236D01*
Y171436D01*
X231197D01*
Y170636D01*
X231997D01*
Y169836D01*
X233597D01*
Y169036D01*
X235997D01*
Y168236D01*
X241597D01*
Y169036D01*
X243997D01*
Y169836D01*
X245597D01*
Y170636D01*
X246397D01*
Y171436D01*
X247197D01*
Y172236D01*
Y173036D01*
Y173836D01*
X247997D01*
Y174636D01*
Y175436D01*
Y176236D01*
Y177036D01*
Y177836D01*
Y178636D01*
X242397D01*
Y177836D01*
Y177036D01*
Y176236D01*
Y175436D01*
Y174636D01*
Y173836D01*
X241597D01*
Y173036D01*
X240797D01*
Y172236D01*
X236797D01*
Y173036D01*
X235997D01*
Y173836D01*
X235197D01*
Y174636D01*
Y175436D01*
Y176236D01*
Y177036D01*
Y177836D01*
X235997D01*
Y178636D01*
X236797D01*
Y179436D01*
X238397D01*
Y180236D01*
X240797D01*
Y181036D01*
X242397D01*
Y181836D01*
X243997D01*
Y182636D01*
X245597D01*
Y183436D01*
X246397D01*
Y184236D01*
X247197D01*
Y185036D01*
Y185836D01*
X247997D01*
Y186636D01*
Y187436D01*
Y188236D01*
Y189036D01*
Y189836D01*
Y190636D01*
X247197D01*
Y191436D01*
Y192236D01*
X246397D01*
Y193036D01*
Y193836D01*
X245597D01*
Y194636D01*
X243997D01*
Y195436D01*
X241597D01*
Y196236D01*
D02*
G37*
%LPD*%
G36*
X208797Y226636D02*
Y225836D01*
Y225036D01*
Y224236D01*
Y223436D01*
Y222636D01*
Y221836D01*
Y221036D01*
Y220236D01*
Y219436D01*
Y218636D01*
Y217836D01*
Y217036D01*
Y216236D01*
Y215436D01*
Y214636D01*
Y213836D01*
Y213036D01*
Y212236D01*
Y211436D01*
Y210636D01*
Y209836D01*
Y209036D01*
Y208236D01*
Y207436D01*
Y206636D01*
X205597D01*
Y207436D01*
X204797D01*
Y208236D01*
Y209036D01*
Y209836D01*
Y210636D01*
Y211436D01*
Y212236D01*
Y213036D01*
Y213836D01*
Y214636D01*
Y215436D01*
Y216236D01*
Y217036D01*
Y217836D01*
Y218636D01*
Y219436D01*
Y220236D01*
Y221036D01*
Y221836D01*
Y222636D01*
Y223436D01*
Y224236D01*
Y225036D01*
Y225836D01*
Y226636D01*
X205597D01*
Y227436D01*
X208797D01*
Y226636D01*
D02*
G37*
G36*
X193597D02*
Y225836D01*
Y225036D01*
Y224236D01*
Y223436D01*
Y222636D01*
Y221836D01*
Y221036D01*
Y220236D01*
Y219436D01*
Y218636D01*
Y217836D01*
Y217036D01*
Y216236D01*
Y215436D01*
Y214636D01*
Y213836D01*
Y213036D01*
Y212236D01*
Y211436D01*
Y210636D01*
Y209836D01*
Y209036D01*
Y208236D01*
Y207436D01*
Y206636D01*
X190397D01*
Y207436D01*
X189597D01*
Y208236D01*
Y209036D01*
Y209836D01*
Y210636D01*
Y211436D01*
Y212236D01*
Y213036D01*
Y213836D01*
Y214636D01*
Y215436D01*
Y216236D01*
Y217036D01*
Y217836D01*
Y218636D01*
Y219436D01*
Y220236D01*
Y221036D01*
Y221836D01*
Y222636D01*
Y223436D01*
Y224236D01*
Y225036D01*
Y225836D01*
Y226636D01*
X190397D01*
Y227436D01*
X193597D01*
Y226636D01*
D02*
G37*
G36*
X197597Y191436D02*
Y190636D01*
Y189836D01*
Y189036D01*
Y188236D01*
Y187436D01*
Y186636D01*
Y185836D01*
Y185036D01*
Y184236D01*
X192797D01*
Y185036D01*
X191997D01*
Y185836D01*
X191197D01*
Y186636D01*
Y187436D01*
Y188236D01*
Y189036D01*
Y189836D01*
Y190636D01*
X191997D01*
Y191436D01*
X192797D01*
Y192236D01*
X197597D01*
Y191436D01*
D02*
G37*
G36*
Y180236D02*
Y179436D01*
Y178636D01*
Y177836D01*
Y177036D01*
Y176236D01*
Y175436D01*
Y174636D01*
Y173836D01*
Y173036D01*
Y172236D01*
X192797D01*
Y173036D01*
X191997D01*
Y173836D01*
X191197D01*
Y174636D01*
Y175436D01*
Y176236D01*
Y177036D01*
Y177836D01*
Y178636D01*
Y179436D01*
X191997D01*
Y180236D01*
X192797D01*
Y181036D01*
X197597D01*
Y180236D01*
D02*
G37*
D10*
X107677Y302362D02*
Y305906D01*
X95866Y302362D02*
X107480D01*
X95866Y309449D02*
X107677D01*
Y305906D02*
Y309449D01*
X95866Y302362D02*
Y309449D01*
X188386Y334646D02*
Y338189D01*
X188583D02*
X200197D01*
X188386Y331102D02*
X200197D01*
X188386D02*
Y334646D01*
X200197Y331102D02*
Y338189D01*
X188386Y326378D02*
Y329921D01*
X188583D02*
X200197D01*
X188386Y322835D02*
X200197D01*
X188386D02*
Y326378D01*
X200197Y322835D02*
Y329921D01*
X267831Y340709D02*
Y360709D01*
X67331Y340709D02*
Y360709D01*
X267831D01*
X67331Y340709D02*
X267831D01*
X119903Y149032D02*
X126989D01*
X123446Y137222D02*
X126989D01*
Y149032D01*
X119903Y137418D02*
Y149032D01*
Y137222D02*
X123446D01*
X258661Y149803D02*
X265748D01*
X262205Y137992D02*
X265748D01*
Y149803D01*
X258661Y138189D02*
Y149803D01*
Y137992D02*
X262205D01*
X223840Y149820D02*
X230926D01*
X227383Y138009D02*
X230926D01*
Y149820D01*
X223840Y138206D02*
Y149820D01*
Y138009D02*
X227383D01*
X207087Y149409D02*
X214173D01*
X210630Y137598D02*
X214173D01*
Y149409D01*
X207087Y137795D02*
Y149409D01*
Y137598D02*
X210630D01*
X172265Y149426D02*
X179351D01*
X175808Y137615D02*
X179351D01*
Y149426D01*
X172265Y137812D02*
Y149426D01*
Y137615D02*
X175808D01*
X154724Y149016D02*
X161811D01*
X158268Y137205D02*
X161811D01*
Y149016D01*
X154724Y137402D02*
Y149016D01*
Y137205D02*
X158268D01*
X68328Y150214D02*
X75414D01*
X71871Y138403D02*
X75414D01*
Y150214D01*
X68328Y138600D02*
Y150214D01*
Y138403D02*
X71871D01*
X147638Y216929D02*
Y220079D01*
X136614Y216929D02*
X147638D01*
X136614D02*
Y223228D01*
X147638D01*
Y220079D02*
Y223228D01*
X158724Y268315D02*
Y272252D01*
X145141Y268315D02*
X158724D01*
X145141D02*
Y276189D01*
X158724D01*
Y272252D02*
Y276189D01*
X158858Y277559D02*
Y281496D01*
X145276Y277559D02*
X158858D01*
X145276D02*
Y285433D01*
X158858D01*
Y281496D02*
Y285433D01*
X138055Y299811D02*
Y303748D01*
X151637D01*
Y295874D02*
Y303748D01*
X138055Y295874D02*
X151637D01*
X138055D02*
Y299811D01*
X124213Y297244D02*
Y304331D01*
X112402Y297244D02*
Y300787D01*
Y297244D02*
X124213D01*
X112598Y304331D02*
X124213D01*
X112402Y300787D02*
Y304331D01*
X103150Y150197D02*
X110236D01*
X106693Y138386D02*
X110236D01*
Y150197D01*
X103150Y138583D02*
Y150197D01*
Y138386D02*
X106693D01*
D17*
X205118Y142520D02*
X204462D01*
X204790D01*
Y144488D01*
X205118Y144160D01*
X203478Y142520D02*
Y144488D01*
X202822Y143832D01*
X202166Y144488D01*
Y142520D01*
X184252Y142126D02*
X183596D01*
X183924D01*
Y144094D01*
X184252Y143766D01*
X182612Y142126D02*
Y144094D01*
X181956Y143438D01*
X181300Y144094D01*
Y142126D01*
X152756D02*
X152100D01*
X152428D01*
Y144094D01*
X152756Y143766D01*
X151116Y142126D02*
Y144094D01*
X150460Y143438D01*
X149804Y144094D01*
Y142126D01*
X131890D02*
X131234D01*
X131562D01*
Y144094D01*
X131890Y143766D01*
X130250Y142126D02*
Y144094D01*
X129594Y143438D01*
X128938Y144094D01*
Y142126D01*
X101575Y143307D02*
X100919D01*
X101247D01*
Y145275D01*
X101575Y144947D01*
X99935Y143307D02*
Y145275D01*
X99279Y144619D01*
X98623Y145275D01*
Y143307D01*
X79921Y142913D02*
X79265D01*
X79593D01*
Y144881D01*
X79921Y144553D01*
X78281Y142913D02*
Y144881D01*
X77625Y144225D01*
X76969Y144881D01*
Y142913D01*
X106980Y310736D02*
X106324D01*
X106652D01*
Y312704D01*
X106980Y312376D01*
X105340D02*
X105012Y312704D01*
X104357D01*
X104028Y312376D01*
Y311064D01*
X104357Y310736D01*
X105012D01*
X105340Y311064D01*
Y312376D01*
X103373Y312704D02*
Y310736D01*
Y311392D01*
X102061Y312704D01*
X103045Y311720D01*
X102061Y310736D01*
X235827Y142520D02*
X235171D01*
X235499D01*
Y144488D01*
X235827Y144160D01*
X234187Y142520D02*
Y144488D01*
X233531Y143832D01*
X232875Y144488D01*
Y142520D01*
X256299Y143307D02*
X255643D01*
X255971D01*
Y145275D01*
X256299Y144947D01*
X254659Y143307D02*
Y145275D01*
X254003Y144619D01*
X253347Y145275D01*
Y143307D01*
X145145Y224410D02*
X146457D01*
X145145Y225721D01*
Y226049D01*
X145473Y226377D01*
X146129D01*
X146457Y226049D01*
X144489Y224410D02*
Y224737D01*
X144161D01*
Y224410D01*
X144489D01*
X141537D02*
X142849D01*
X141537Y225721D01*
Y226049D01*
X141865Y226377D01*
X142521D01*
X142849Y226049D01*
X140881Y225721D02*
Y224737D01*
X140553Y224410D01*
X139569D01*
Y225721D01*
X137601Y226377D02*
X138913D01*
Y225393D01*
X138257D01*
X138913D01*
Y224410D01*
X167323Y271260D02*
X166667D01*
X166995D01*
Y273228D01*
X167323Y272900D01*
X165683D02*
X165355Y273228D01*
X164699D01*
X164371Y272900D01*
Y271588D01*
X164699Y271260D01*
X165355D01*
X165683Y271588D01*
Y272900D01*
X163715Y272572D02*
Y271588D01*
X163387Y271260D01*
X162403D01*
Y272572D01*
X160435Y273228D02*
X161747D01*
Y272244D01*
X161091D01*
X161747D01*
Y271260D01*
X167457Y280504D02*
X166801D01*
X167129D01*
Y282472D01*
X167457Y282144D01*
X165817D02*
X165489Y282472D01*
X164833D01*
X164505Y282144D01*
Y280832D01*
X164833Y280504D01*
X165489D01*
X165817Y280832D01*
Y282144D01*
X163849Y281816D02*
Y280832D01*
X163521Y280504D01*
X162537D01*
Y281816D01*
X160570Y282472D02*
X161881D01*
Y281488D01*
X161225D01*
X161881D01*
Y280504D01*
X160630Y298819D02*
X159974D01*
X160302D01*
Y300787D01*
X160630Y300459D01*
X158990D02*
X158662Y300787D01*
X158006D01*
X157678Y300459D01*
Y299147D01*
X158006Y298819D01*
X158662D01*
X158990Y299147D01*
Y300459D01*
X157022Y300131D02*
Y299147D01*
X156694Y298819D01*
X155710D01*
Y300131D01*
X153742Y300787D02*
X155054D01*
Y299803D01*
X154398D01*
X155054D01*
Y298819D01*
D84*
X70874Y337913D02*
G03*
X70874Y337913I-984J0D01*
G01*
D85*
X201575Y324410D02*
X202231D01*
X201903D01*
Y326377D01*
X201575Y326049D01*
X203215D02*
X203543Y326377D01*
X204199D01*
X204527Y326049D01*
Y324737D01*
X204199Y324410D01*
X203543D01*
X203215Y324737D01*
Y326049D01*
X205183Y326377D02*
Y324410D01*
Y325065D01*
X206494Y326377D01*
X205510Y325393D01*
X206494Y324410D01*
X201575Y333858D02*
X202231D01*
X201903D01*
Y335826D01*
X201575Y335498D01*
X203215D02*
X203543Y335826D01*
X204199D01*
X204527Y335498D01*
Y334186D01*
X204199Y333858D01*
X203543D01*
X203215Y334186D01*
Y335498D01*
X205183Y335826D02*
Y333858D01*
Y334514D01*
X206494Y335826D01*
X205510Y334842D01*
X206494Y333858D01*
M02*
