G04*
G04 #@! TF.GenerationSoftware,Altium Limited,Altium Designer,19.1.8 (144)*
G04*
G04 Layer_Physical_Order=4*
G04 Layer_Color=16711680*
%FSLAX25Y25*%
%MOIN*%
G70*
G01*
G75*
%ADD14C,0.01000*%
%ADD20R,0.01968X0.03543*%
%ADD21R,0.03543X0.01968*%
%ADD27R,0.02756X0.05118*%
%ADD68R,0.05906X0.05906*%
%ADD69C,0.05906*%
%ADD70C,0.04724*%
%ADD71C,0.06496*%
%ADD72R,0.06496X0.06496*%
%ADD73C,0.23622*%
%ADD74C,0.02362*%
%ADD75C,0.01968*%
%ADD76C,0.05000*%
D14*
X262205Y136417D02*
Y141142D01*
X262205Y141142D01*
X261614Y147638D02*
Y150984D01*
Y147638D02*
X262205Y147047D01*
X228346Y147548D02*
Y151181D01*
X210827Y135728D02*
Y140551D01*
X210630Y140748D02*
X210827Y140551D01*
Y135728D02*
Y136811D01*
X210630Y137008D02*
X210827Y136811D01*
X210335Y146949D02*
X210630Y146653D01*
X210335Y146949D02*
Y150787D01*
X177076Y147459D02*
Y151090D01*
X176287Y146670D02*
X177076Y147459D01*
X158563Y135827D02*
Y140256D01*
X158661Y140354D01*
X158079Y146843D02*
X158661Y146260D01*
X158079Y146843D02*
Y150696D01*
X124612Y146952D02*
Y150696D01*
Y146952D02*
X124803Y146761D01*
X73032Y148139D02*
Y151772D01*
X72835Y147942D02*
X73032Y148139D01*
X106398Y147736D02*
Y151772D01*
Y147736D02*
X106693Y147441D01*
X106693Y137008D02*
Y141535D01*
X106693Y141535D01*
X158519Y286614D02*
X158661D01*
X155575Y283669D02*
X158519Y286614D01*
X155575Y282488D02*
Y283669D01*
X156452Y270211D02*
X157025D01*
X155575Y271089D02*
X156452Y270211D01*
X155575Y271089D02*
Y272252D01*
X157025Y270211D02*
X158921Y268315D01*
X193701Y162130D02*
X194563D01*
X180623D02*
X193701D01*
Y165354D01*
X197638Y169291D01*
Y206850D01*
X166929Y159817D02*
X168135Y161024D01*
X179517D01*
X166929Y159449D02*
Y159817D01*
X219291Y159843D02*
X229517D01*
X248425Y160236D02*
X266929D01*
X229517Y159843D02*
X232198Y162524D01*
X246138D01*
X248425Y160236D01*
X196850Y159843D02*
X219291D01*
X179517Y161024D02*
X180623Y162130D01*
X194563D02*
X196850Y159843D01*
X142201Y161736D02*
X144488Y159449D01*
X128261Y161736D02*
X142201D01*
X127155Y160630D02*
X128261Y161736D01*
X115354Y160630D02*
X127155D01*
X144488Y159449D02*
X166929D01*
X92913Y160630D02*
X115354D01*
X72047Y137402D02*
Y141376D01*
X124016Y136221D02*
Y140195D01*
X227559Y137008D02*
Y140982D01*
X175984Y136614D02*
Y140589D01*
X175808Y140765D02*
X175984Y140589D01*
X175808Y146670D02*
X176287D01*
X81757Y315094D02*
Y345135D01*
Y315094D02*
X82020Y314830D01*
X87795Y314961D02*
Y341173D01*
X92331Y345709D01*
X81757Y345135D02*
X82331Y345709D01*
X117323Y313779D02*
Y350716D01*
X102543Y315173D02*
Y345496D01*
X107087Y318898D02*
Y350953D01*
X122047Y314567D02*
Y345425D01*
X111417Y305906D02*
Y306299D01*
X102543Y315173D02*
X111417Y306299D01*
X102331Y345709D02*
X102543Y345496D01*
X146850Y326772D02*
X151181D01*
X170118Y345709D01*
X164567Y220472D02*
Y220472D01*
Y220472D02*
X179921Y205118D01*
X135433Y220079D02*
X139173D01*
X135433D02*
Y248102D01*
X129393Y254142D02*
X135433Y248102D01*
X237795Y340551D02*
X264173Y314173D01*
X237795Y340551D02*
Y346541D01*
X132149Y262016D02*
X132398D01*
X153075Y241339D01*
X169685D01*
X145079Y220079D02*
X149606D01*
X183858Y298819D02*
X222331Y337291D01*
X212331Y332410D02*
Y345709D01*
X188583Y308661D02*
X212331Y332410D01*
X157929Y298819D02*
X183858D01*
X222331Y337291D02*
Y345709D01*
X132331Y318457D02*
X132423Y318364D01*
X132331Y318457D02*
Y345709D01*
X126772Y315354D02*
X126784Y315366D01*
X121653Y300984D02*
X125197D01*
X115650Y297539D02*
X115748Y297441D01*
X126784Y315366D02*
Y351256D01*
X146783Y338910D02*
Y350161D01*
X142913Y335039D02*
X146783Y338910D01*
X142913Y315329D02*
Y335039D01*
Y315329D02*
X145276Y312967D01*
Y312598D02*
Y312967D01*
X146783Y350161D02*
X152331Y355709D01*
X141732Y308661D02*
X188583D01*
X137402Y304331D02*
X141732Y308661D01*
X140157Y343535D02*
X142331Y345709D01*
X140157Y312992D02*
Y343535D01*
X136614Y315748D02*
X136784Y315917D01*
Y350161D01*
X142331Y355709D01*
X107087Y318898D02*
X115748Y310236D01*
X122047Y314567D02*
X123622Y312992D01*
X122331Y355709D02*
X126784Y351256D01*
X122047Y345425D02*
X122331Y345709D01*
X112331Y355709D02*
X117323Y350716D01*
Y313779D02*
X120472Y310630D01*
X102331Y355709D02*
X107087Y350953D01*
X118110Y304331D02*
X137402D01*
X206784Y360161D02*
X234175D01*
X202331Y355709D02*
X206784Y360161D01*
X234175D02*
X237878Y356459D01*
X234175Y350161D02*
X237795Y346541D01*
X210486Y350161D02*
X234175D01*
X206034Y345709D02*
X210486Y350161D01*
X202331Y345709D02*
X206034D01*
X243081Y351256D02*
X247878Y346459D01*
X240486Y351256D02*
X243081D01*
X237878Y353864D02*
X240486Y351256D01*
X237878Y353864D02*
Y356459D01*
X146323Y287213D02*
X157929Y298819D01*
X147331Y330709D02*
X162331Y345709D01*
X146850Y330709D02*
X147331D01*
X121457Y300787D02*
X121653Y300984D01*
X115551Y300787D02*
X115650Y300689D01*
Y297539D02*
Y300689D01*
X170118Y345709D02*
X172331D01*
X147897Y304535D02*
X148158Y304275D01*
X142582Y304167D02*
Y304535D01*
X255512Y234646D02*
Y275590D01*
X267096Y334646D02*
X267323D01*
X257878Y343864D02*
X267096Y334646D01*
X257878Y343864D02*
Y346459D01*
X253722Y350614D02*
X257878Y346459D01*
X251128Y350614D02*
X253722D01*
X246783Y354959D02*
X251128Y350614D01*
X243081Y354959D02*
X246783D01*
X242331Y355709D02*
X243081Y354959D01*
X252839Y341256D02*
Y345201D01*
X252331Y345709D02*
X252839Y345201D01*
Y341256D02*
X257480Y336614D01*
X247878Y340469D02*
Y346459D01*
Y340469D02*
X264173Y324173D01*
X148158Y300338D02*
Y304275D01*
Y300338D02*
X148685Y299811D01*
X142082Y303667D02*
X142582Y304167D01*
X142082Y300689D02*
Y303667D01*
X141204Y299811D02*
X142082Y300689D01*
X160299Y255716D02*
X164433D01*
X144354Y261622D02*
X150259Y255716D01*
X154393D01*
D20*
X145079Y220079D02*
D03*
X139173D02*
D03*
X160299Y255716D02*
D03*
X154393D02*
D03*
X121457Y300787D02*
D03*
X115551D02*
D03*
D21*
X123446Y146277D02*
D03*
Y140371D02*
D03*
X262205Y147047D02*
D03*
Y141142D02*
D03*
X227383Y147064D02*
D03*
Y141158D02*
D03*
X210630Y146653D02*
D03*
Y140748D02*
D03*
X175808Y146670D02*
D03*
Y140765D02*
D03*
X158268Y146260D02*
D03*
Y140354D02*
D03*
X71871Y147458D02*
D03*
Y141552D02*
D03*
X106693Y147441D02*
D03*
Y141535D02*
D03*
D27*
X155575Y272252D02*
D03*
X148094D02*
D03*
X155575Y282488D02*
D03*
X148094D02*
D03*
X141204Y299811D02*
D03*
X148685D02*
D03*
D68*
X72331Y345709D02*
D03*
D69*
Y355709D02*
D03*
X82331Y345709D02*
D03*
Y355709D02*
D03*
X92331Y345709D02*
D03*
Y355709D02*
D03*
X102331Y345709D02*
D03*
Y355709D02*
D03*
X112331Y345709D02*
D03*
Y355709D02*
D03*
X122331Y345709D02*
D03*
Y355709D02*
D03*
X132331Y345709D02*
D03*
Y355709D02*
D03*
X142331Y345709D02*
D03*
Y355709D02*
D03*
X152331Y345709D02*
D03*
Y355709D02*
D03*
X162331Y345709D02*
D03*
Y355709D02*
D03*
X172331Y345709D02*
D03*
Y355709D02*
D03*
X182331Y345709D02*
D03*
Y355709D02*
D03*
X192331Y345709D02*
D03*
Y355709D02*
D03*
X202331Y345709D02*
D03*
Y355709D02*
D03*
X212331Y345709D02*
D03*
Y355709D02*
D03*
X222331Y345709D02*
D03*
Y355709D02*
D03*
X262331D02*
D03*
Y345709D02*
D03*
X252331Y355709D02*
D03*
Y345709D02*
D03*
X242331Y355709D02*
D03*
Y345709D02*
D03*
X232331Y355709D02*
D03*
Y345709D02*
D03*
D70*
X224803Y272835D02*
D03*
X216929D02*
D03*
X264173Y294173D02*
D03*
Y304173D02*
D03*
Y324173D02*
D03*
Y314173D02*
D03*
D71*
X234882Y117187D02*
D03*
X254882D02*
D03*
X99370Y117581D02*
D03*
X79370D02*
D03*
X130945Y116400D02*
D03*
X150945D02*
D03*
X203307Y116793D02*
D03*
X183307D02*
D03*
X98032Y212835D02*
D03*
D72*
Y232835D02*
D03*
D73*
X53158Y350709D02*
D03*
Y157795D02*
D03*
X281504Y350709D02*
D03*
Y157795D02*
D03*
D74*
X262205Y136417D02*
D03*
X261614Y150984D02*
D03*
X228346Y151181D02*
D03*
X210827Y135728D02*
D03*
X210335Y150787D02*
D03*
X177076Y151090D02*
D03*
X158563Y135827D02*
D03*
X158079Y150696D02*
D03*
X124612D02*
D03*
X73032Y151772D02*
D03*
X106398D02*
D03*
X106693Y137008D02*
D03*
X165748Y294882D02*
D03*
X158661Y286614D02*
D03*
X169685Y246063D02*
D03*
X266535Y267323D02*
D03*
X197638Y206850D02*
D03*
X266929Y160236D02*
D03*
X248425Y160236D02*
D03*
X219291Y159843D02*
D03*
X196850D02*
D03*
X144488Y159449D02*
D03*
X166929D02*
D03*
X115354Y160630D02*
D03*
X92913D02*
D03*
X68967Y152432D02*
D03*
X72047Y137402D02*
D03*
X120542Y151854D02*
D03*
X124016Y136221D02*
D03*
X224016Y152756D02*
D03*
X227559Y137008D02*
D03*
X175984Y136614D02*
D03*
X172835Y151969D02*
D03*
X72441Y320866D02*
D03*
X82020Y314830D02*
D03*
X87795Y314961D02*
D03*
X111417Y305906D02*
D03*
X146850Y326772D02*
D03*
X178347Y325984D02*
D03*
X183731Y326259D02*
D03*
X178326Y331664D02*
D03*
X183444D02*
D03*
X179921Y205118D02*
D03*
X131890Y223622D02*
D03*
X148031Y205118D02*
D03*
X192434Y216472D02*
D03*
X197531Y222152D02*
D03*
X197819Y216746D02*
D03*
X192413Y222152D02*
D03*
X174803Y214961D02*
D03*
X169685Y241339D02*
D03*
X246277Y188022D02*
D03*
X235039Y151969D02*
D03*
X237402Y183465D02*
D03*
X135433Y220079D02*
D03*
X200394Y155118D02*
D03*
X183465Y151575D02*
D03*
X191732Y131496D02*
D03*
X190945Y159449D02*
D03*
X185827Y183071D02*
D03*
X194702Y187628D02*
D03*
X148031Y154724D02*
D03*
X131102Y151181D02*
D03*
X139370Y131102D02*
D03*
X138583Y159055D02*
D03*
X133465Y182677D02*
D03*
X142340Y187234D02*
D03*
X96457Y155905D02*
D03*
X79527Y152362D02*
D03*
X87795Y132283D02*
D03*
X87008Y160236D02*
D03*
X81890Y183858D02*
D03*
X90765Y188415D02*
D03*
X242520Y159843D02*
D03*
X243307Y131890D02*
D03*
X251969Y155512D02*
D03*
X214173Y207087D02*
D03*
X154724Y244052D02*
D03*
X149606Y220079D02*
D03*
X222835Y253543D02*
D03*
X227953D02*
D03*
X228240Y248138D02*
D03*
X222855Y247863D02*
D03*
X209842Y252362D02*
D03*
X200000Y242520D02*
D03*
X226378Y196850D02*
D03*
X221654Y222835D02*
D03*
X255512Y233858D02*
D03*
X132423Y318364D02*
D03*
X126772Y315354D02*
D03*
X125197Y300984D02*
D03*
X115748Y297441D02*
D03*
X145276Y312598D02*
D03*
X140157Y312992D02*
D03*
X136614Y315748D02*
D03*
X115748Y310236D02*
D03*
X123622Y312992D02*
D03*
X120472Y310630D02*
D03*
X118110Y304331D02*
D03*
X146850Y330709D02*
D03*
X147897Y304535D02*
D03*
X150653Y280520D02*
D03*
X142582Y304535D02*
D03*
X255512Y275590D02*
D03*
X146323Y287213D02*
D03*
X267323Y334646D02*
D03*
X257480Y336614D02*
D03*
X172701Y256504D02*
D03*
X193960Y270677D02*
D03*
X158921Y268315D02*
D03*
X164433Y255716D02*
D03*
X146716Y272449D02*
D03*
X144354Y261622D02*
D03*
X105091Y291937D02*
D03*
X104197Y267921D02*
D03*
X104590Y262213D02*
D03*
X129393Y254142D02*
D03*
X132149Y262016D02*
D03*
X132543Y258079D02*
D03*
X147897Y238787D02*
D03*
D75*
X120732Y271071D02*
D03*
Y275402D02*
D03*
Y279732D02*
D03*
Y284063D02*
D03*
Y288394D02*
D03*
X125063Y271071D02*
D03*
Y275402D02*
D03*
Y279732D02*
D03*
Y284063D02*
D03*
Y288394D02*
D03*
X129393Y271071D02*
D03*
Y275402D02*
D03*
Y279732D02*
D03*
Y284063D02*
D03*
Y288394D02*
D03*
X133724Y271071D02*
D03*
Y275402D02*
D03*
Y279732D02*
D03*
Y284063D02*
D03*
Y288394D02*
D03*
X138055Y271071D02*
D03*
Y275402D02*
D03*
Y279732D02*
D03*
Y284063D02*
D03*
Y288394D02*
D03*
D76*
X98032Y212992D02*
X157087Y212992D01*
X164567Y220472D01*
X216929Y272835D01*
M02*
