G04*
G04 #@! TF.GenerationSoftware,Altium Limited,Altium Designer,19.1.8 (144)*
G04*
G04 Layer_Physical_Order=2*
G04 Layer_Color=36540*
%FSLAX25Y25*%
%MOIN*%
G70*
G01*
G75*
%ADD68C,0.04724*%
%ADD69C,0.06496*%
%ADD70R,0.06496X0.06496*%
%ADD71C,0.05906*%
%ADD74C,0.02362*%
%ADD75C,0.01968*%
G36*
X275670Y362159D02*
X273951Y361105D01*
X272417Y359795D01*
X271108Y358262D01*
X270054Y356543D01*
X269282Y354680D01*
X268811Y352719D01*
X268653Y350709D01*
X268811Y348698D01*
X269282Y346738D01*
X270054Y344875D01*
X271108Y343155D01*
X272417Y341622D01*
X273951Y340312D01*
X275670Y339259D01*
X277533Y338487D01*
X279494Y338016D01*
X281504Y337858D01*
X283514Y338016D01*
X285475Y338487D01*
X287338Y339259D01*
X289057Y340312D01*
X290591Y341622D01*
X291900Y343155D01*
X292954Y344875D01*
X293307Y345727D01*
Y162777D01*
X292954Y163629D01*
X291900Y165349D01*
X290591Y166882D01*
X289057Y168192D01*
X287338Y169245D01*
X285475Y170017D01*
X283514Y170488D01*
X281504Y170646D01*
X279494Y170488D01*
X277533Y170017D01*
X275670Y169245D01*
X273951Y168192D01*
X272417Y166882D01*
X271108Y165349D01*
X270054Y163629D01*
X269282Y161766D01*
X269045Y160778D01*
X268984Y161087D01*
X268502Y161809D01*
X267780Y162291D01*
X266929Y162460D01*
X266078Y162291D01*
X265357Y161809D01*
X264875Y161087D01*
X264705Y160236D01*
X264875Y159385D01*
X265357Y158664D01*
X266078Y158182D01*
X266929Y158012D01*
X267780Y158182D01*
X268502Y158664D01*
X268751Y159037D01*
X268653Y157795D01*
X268811Y155785D01*
X269282Y153824D01*
X270054Y151961D01*
X271108Y150242D01*
X272417Y148708D01*
X273951Y147399D01*
X275670Y146345D01*
X277533Y145574D01*
X279494Y145103D01*
X281504Y144945D01*
X283514Y145103D01*
X285475Y145574D01*
X287338Y146345D01*
X289057Y147399D01*
X290591Y148708D01*
X291900Y150242D01*
X292954Y151961D01*
X293307Y152814D01*
Y116142D01*
X283465Y106299D01*
X51181D01*
X41339Y116142D01*
Y152852D01*
X41708Y151961D01*
X42761Y150242D01*
X44071Y148708D01*
X45604Y147399D01*
X47323Y146345D01*
X49186Y145574D01*
X51147Y145103D01*
X53158Y144945D01*
X55168Y145103D01*
X57129Y145574D01*
X58991Y146345D01*
X60711Y147399D01*
X62244Y148708D01*
X63554Y150242D01*
X64608Y151961D01*
X65379Y153824D01*
X65850Y155785D01*
X66008Y157795D01*
X65850Y159806D01*
X65379Y161766D01*
X64608Y163629D01*
X63554Y165349D01*
X62244Y166882D01*
X60711Y168192D01*
X58991Y169245D01*
X57129Y170017D01*
X55168Y170488D01*
X53158Y170646D01*
X51147Y170488D01*
X49186Y170017D01*
X47323Y169245D01*
X45604Y168192D01*
X44071Y166882D01*
X42761Y165349D01*
X41708Y163629D01*
X41339Y162739D01*
Y208661D01*
X72835D01*
Y299213D01*
X41339D01*
X41339Y345765D01*
X41708Y344875D01*
X42761Y343155D01*
X44071Y341622D01*
X45604Y340312D01*
X47323Y339259D01*
X49186Y338487D01*
X51147Y338016D01*
X53158Y337858D01*
X55168Y338016D01*
X57129Y338487D01*
X58991Y339259D01*
X60711Y340312D01*
X62244Y341622D01*
X63554Y343155D01*
X64608Y344875D01*
X65379Y346738D01*
X65850Y348698D01*
X66008Y350709D01*
X65850Y352719D01*
X65379Y354680D01*
X64608Y356543D01*
X63554Y358262D01*
X62244Y359795D01*
X60711Y361105D01*
X58991Y362159D01*
X58880Y362205D01*
X275781Y362205D01*
X275670Y362159D01*
D02*
G37*
%LPC*%
G36*
X92831Y359630D02*
Y356209D01*
X96252D01*
X96182Y356740D01*
X95783Y357702D01*
X95150Y358528D01*
X94324Y359161D01*
X93363Y359560D01*
X92831Y359630D01*
D02*
G37*
G36*
X91831D02*
X91299Y359560D01*
X90337Y359161D01*
X89512Y358528D01*
X88878Y357702D01*
X88480Y356740D01*
X88410Y356209D01*
X91831D01*
Y359630D01*
D02*
G37*
G36*
X96252Y355209D02*
X92831D01*
Y351788D01*
X93363Y351858D01*
X94324Y352256D01*
X95150Y352889D01*
X95783Y353715D01*
X96182Y354677D01*
X96252Y355209D01*
D02*
G37*
G36*
X91831D02*
X88410D01*
X88480Y354677D01*
X88878Y353715D01*
X89512Y352889D01*
X90337Y352256D01*
X91299Y351858D01*
X91831Y351788D01*
Y355209D01*
D02*
G37*
G36*
X262331Y359696D02*
X261299Y359560D01*
X260337Y359161D01*
X259512Y358528D01*
X258878Y357702D01*
X258480Y356740D01*
X258344Y355709D01*
X258480Y354677D01*
X258878Y353715D01*
X259512Y352889D01*
X260337Y352256D01*
X261299Y351858D01*
X262331Y351722D01*
X263363Y351858D01*
X264324Y352256D01*
X265150Y352889D01*
X265783Y353715D01*
X266182Y354677D01*
X266318Y355709D01*
X266182Y356740D01*
X265783Y357702D01*
X265150Y358528D01*
X264324Y359161D01*
X263363Y359560D01*
X262331Y359696D01*
D02*
G37*
G36*
X252331D02*
X251299Y359560D01*
X250337Y359161D01*
X249512Y358528D01*
X248878Y357702D01*
X248480Y356740D01*
X248344Y355709D01*
X248480Y354677D01*
X248878Y353715D01*
X249512Y352889D01*
X250337Y352256D01*
X251299Y351858D01*
X252331Y351722D01*
X253363Y351858D01*
X254324Y352256D01*
X255150Y352889D01*
X255783Y353715D01*
X256182Y354677D01*
X256318Y355709D01*
X256182Y356740D01*
X255783Y357702D01*
X255150Y358528D01*
X254324Y359161D01*
X253363Y359560D01*
X252331Y359696D01*
D02*
G37*
G36*
X242331D02*
X241299Y359560D01*
X240337Y359161D01*
X239512Y358528D01*
X238878Y357702D01*
X238480Y356740D01*
X238344Y355709D01*
X238480Y354677D01*
X238878Y353715D01*
X239512Y352889D01*
X240337Y352256D01*
X241299Y351858D01*
X242331Y351722D01*
X243363Y351858D01*
X244324Y352256D01*
X245150Y352889D01*
X245783Y353715D01*
X246182Y354677D01*
X246318Y355709D01*
X246182Y356740D01*
X245783Y357702D01*
X245150Y358528D01*
X244324Y359161D01*
X243363Y359560D01*
X242331Y359696D01*
D02*
G37*
G36*
X232331D02*
X231299Y359560D01*
X230337Y359161D01*
X229512Y358528D01*
X228878Y357702D01*
X228480Y356740D01*
X228344Y355709D01*
X228480Y354677D01*
X228878Y353715D01*
X229512Y352889D01*
X230337Y352256D01*
X231299Y351858D01*
X232331Y351722D01*
X233363Y351858D01*
X234324Y352256D01*
X235150Y352889D01*
X235783Y353715D01*
X236182Y354677D01*
X236318Y355709D01*
X236182Y356740D01*
X235783Y357702D01*
X235150Y358528D01*
X234324Y359161D01*
X233363Y359560D01*
X232331Y359696D01*
D02*
G37*
G36*
X222331D02*
X221299Y359560D01*
X220337Y359161D01*
X219512Y358528D01*
X218878Y357702D01*
X218480Y356740D01*
X218344Y355709D01*
X218480Y354677D01*
X218878Y353715D01*
X219512Y352889D01*
X220337Y352256D01*
X221299Y351858D01*
X222331Y351722D01*
X223363Y351858D01*
X224324Y352256D01*
X225150Y352889D01*
X225783Y353715D01*
X226182Y354677D01*
X226318Y355709D01*
X226182Y356740D01*
X225783Y357702D01*
X225150Y358528D01*
X224324Y359161D01*
X223363Y359560D01*
X222331Y359696D01*
D02*
G37*
G36*
X212331D02*
X211299Y359560D01*
X210337Y359161D01*
X209512Y358528D01*
X208878Y357702D01*
X208480Y356740D01*
X208344Y355709D01*
X208480Y354677D01*
X208878Y353715D01*
X209512Y352889D01*
X210337Y352256D01*
X211299Y351858D01*
X212331Y351722D01*
X213363Y351858D01*
X214324Y352256D01*
X215150Y352889D01*
X215783Y353715D01*
X216182Y354677D01*
X216318Y355709D01*
X216182Y356740D01*
X215783Y357702D01*
X215150Y358528D01*
X214324Y359161D01*
X213363Y359560D01*
X212331Y359696D01*
D02*
G37*
G36*
X202331D02*
X201299Y359560D01*
X200337Y359161D01*
X199512Y358528D01*
X198878Y357702D01*
X198480Y356740D01*
X198344Y355709D01*
X198480Y354677D01*
X198878Y353715D01*
X199512Y352889D01*
X200337Y352256D01*
X201299Y351858D01*
X202331Y351722D01*
X203363Y351858D01*
X204324Y352256D01*
X205150Y352889D01*
X205783Y353715D01*
X206182Y354677D01*
X206318Y355709D01*
X206182Y356740D01*
X205783Y357702D01*
X205150Y358528D01*
X204324Y359161D01*
X203363Y359560D01*
X202331Y359696D01*
D02*
G37*
G36*
X192331D02*
X191299Y359560D01*
X190337Y359161D01*
X189512Y358528D01*
X188878Y357702D01*
X188480Y356740D01*
X188344Y355709D01*
X188480Y354677D01*
X188878Y353715D01*
X189512Y352889D01*
X190337Y352256D01*
X191299Y351858D01*
X192331Y351722D01*
X193363Y351858D01*
X194324Y352256D01*
X195150Y352889D01*
X195783Y353715D01*
X196182Y354677D01*
X196318Y355709D01*
X196182Y356740D01*
X195783Y357702D01*
X195150Y358528D01*
X194324Y359161D01*
X193363Y359560D01*
X192331Y359696D01*
D02*
G37*
G36*
X182331D02*
X181299Y359560D01*
X180337Y359161D01*
X179512Y358528D01*
X178878Y357702D01*
X178480Y356740D01*
X178344Y355709D01*
X178480Y354677D01*
X178878Y353715D01*
X179512Y352889D01*
X180337Y352256D01*
X181299Y351858D01*
X182331Y351722D01*
X183363Y351858D01*
X184324Y352256D01*
X185150Y352889D01*
X185783Y353715D01*
X186182Y354677D01*
X186318Y355709D01*
X186182Y356740D01*
X185783Y357702D01*
X185150Y358528D01*
X184324Y359161D01*
X183363Y359560D01*
X182331Y359696D01*
D02*
G37*
G36*
X172331D02*
X171299Y359560D01*
X170337Y359161D01*
X169512Y358528D01*
X168878Y357702D01*
X168480Y356740D01*
X168344Y355709D01*
X168480Y354677D01*
X168878Y353715D01*
X169512Y352889D01*
X170337Y352256D01*
X171299Y351858D01*
X172331Y351722D01*
X173363Y351858D01*
X174324Y352256D01*
X175150Y352889D01*
X175783Y353715D01*
X176182Y354677D01*
X176318Y355709D01*
X176182Y356740D01*
X175783Y357702D01*
X175150Y358528D01*
X174324Y359161D01*
X173363Y359560D01*
X172331Y359696D01*
D02*
G37*
G36*
X162331D02*
X161299Y359560D01*
X160337Y359161D01*
X159512Y358528D01*
X158878Y357702D01*
X158480Y356740D01*
X158344Y355709D01*
X158480Y354677D01*
X158878Y353715D01*
X159512Y352889D01*
X160337Y352256D01*
X161299Y351858D01*
X162331Y351722D01*
X163363Y351858D01*
X164324Y352256D01*
X165150Y352889D01*
X165783Y353715D01*
X166182Y354677D01*
X166318Y355709D01*
X166182Y356740D01*
X165783Y357702D01*
X165150Y358528D01*
X164324Y359161D01*
X163363Y359560D01*
X162331Y359696D01*
D02*
G37*
G36*
X152331D02*
X151299Y359560D01*
X150337Y359161D01*
X149512Y358528D01*
X148878Y357702D01*
X148480Y356740D01*
X148344Y355709D01*
X148480Y354677D01*
X148878Y353715D01*
X149512Y352889D01*
X150337Y352256D01*
X151299Y351858D01*
X152331Y351722D01*
X153363Y351858D01*
X154324Y352256D01*
X155150Y352889D01*
X155783Y353715D01*
X156182Y354677D01*
X156318Y355709D01*
X156182Y356740D01*
X155783Y357702D01*
X155150Y358528D01*
X154324Y359161D01*
X153363Y359560D01*
X152331Y359696D01*
D02*
G37*
G36*
X142331D02*
X141299Y359560D01*
X140337Y359161D01*
X139512Y358528D01*
X138878Y357702D01*
X138480Y356740D01*
X138344Y355709D01*
X138480Y354677D01*
X138878Y353715D01*
X139512Y352889D01*
X140337Y352256D01*
X141299Y351858D01*
X142331Y351722D01*
X143363Y351858D01*
X144324Y352256D01*
X145150Y352889D01*
X145783Y353715D01*
X146182Y354677D01*
X146318Y355709D01*
X146182Y356740D01*
X145783Y357702D01*
X145150Y358528D01*
X144324Y359161D01*
X143363Y359560D01*
X142331Y359696D01*
D02*
G37*
G36*
X132331D02*
X131299Y359560D01*
X130337Y359161D01*
X129512Y358528D01*
X128878Y357702D01*
X128480Y356740D01*
X128344Y355709D01*
X128480Y354677D01*
X128878Y353715D01*
X129512Y352889D01*
X130337Y352256D01*
X131299Y351858D01*
X132331Y351722D01*
X133363Y351858D01*
X134324Y352256D01*
X135150Y352889D01*
X135783Y353715D01*
X136182Y354677D01*
X136318Y355709D01*
X136182Y356740D01*
X135783Y357702D01*
X135150Y358528D01*
X134324Y359161D01*
X133363Y359560D01*
X132331Y359696D01*
D02*
G37*
G36*
X122331D02*
X121299Y359560D01*
X120337Y359161D01*
X119512Y358528D01*
X118878Y357702D01*
X118480Y356740D01*
X118344Y355709D01*
X118480Y354677D01*
X118878Y353715D01*
X119512Y352889D01*
X120337Y352256D01*
X121299Y351858D01*
X122331Y351722D01*
X123363Y351858D01*
X124324Y352256D01*
X125150Y352889D01*
X125783Y353715D01*
X126182Y354677D01*
X126318Y355709D01*
X126182Y356740D01*
X125783Y357702D01*
X125150Y358528D01*
X124324Y359161D01*
X123363Y359560D01*
X122331Y359696D01*
D02*
G37*
G36*
X112331D02*
X111299Y359560D01*
X110337Y359161D01*
X109512Y358528D01*
X108878Y357702D01*
X108480Y356740D01*
X108344Y355709D01*
X108480Y354677D01*
X108878Y353715D01*
X109512Y352889D01*
X110337Y352256D01*
X111299Y351858D01*
X112331Y351722D01*
X113363Y351858D01*
X114324Y352256D01*
X115150Y352889D01*
X115783Y353715D01*
X116182Y354677D01*
X116318Y355709D01*
X116182Y356740D01*
X115783Y357702D01*
X115150Y358528D01*
X114324Y359161D01*
X113363Y359560D01*
X112331Y359696D01*
D02*
G37*
G36*
X102331D02*
X101299Y359560D01*
X100337Y359161D01*
X99512Y358528D01*
X98878Y357702D01*
X98480Y356740D01*
X98344Y355709D01*
X98480Y354677D01*
X98878Y353715D01*
X99512Y352889D01*
X100337Y352256D01*
X101299Y351858D01*
X102331Y351722D01*
X103363Y351858D01*
X104324Y352256D01*
X105150Y352889D01*
X105783Y353715D01*
X106182Y354677D01*
X106318Y355709D01*
X106182Y356740D01*
X105783Y357702D01*
X105150Y358528D01*
X104324Y359161D01*
X103363Y359560D01*
X102331Y359696D01*
D02*
G37*
G36*
X82331D02*
X81299Y359560D01*
X80337Y359161D01*
X79512Y358528D01*
X78878Y357702D01*
X78480Y356740D01*
X78344Y355709D01*
X78480Y354677D01*
X78878Y353715D01*
X79512Y352889D01*
X80337Y352256D01*
X81299Y351858D01*
X82331Y351722D01*
X83363Y351858D01*
X84324Y352256D01*
X85150Y352889D01*
X85783Y353715D01*
X86182Y354677D01*
X86318Y355709D01*
X86182Y356740D01*
X85783Y357702D01*
X85150Y358528D01*
X84324Y359161D01*
X83363Y359560D01*
X82331Y359696D01*
D02*
G37*
G36*
X72331D02*
X71299Y359560D01*
X70337Y359161D01*
X69512Y358528D01*
X68878Y357702D01*
X68480Y356740D01*
X68344Y355709D01*
X68480Y354677D01*
X68878Y353715D01*
X69512Y352889D01*
X70337Y352256D01*
X71299Y351858D01*
X72331Y351722D01*
X73363Y351858D01*
X74324Y352256D01*
X75150Y352889D01*
X75783Y353715D01*
X76182Y354677D01*
X76318Y355709D01*
X76182Y356740D01*
X75783Y357702D01*
X75150Y358528D01*
X74324Y359161D01*
X73363Y359560D01*
X72331Y359696D01*
D02*
G37*
G36*
X76284Y349661D02*
X68378D01*
Y341756D01*
X76284D01*
Y349661D01*
D02*
G37*
G36*
X262331Y349695D02*
X261299Y349560D01*
X260337Y349161D01*
X259512Y348528D01*
X258878Y347702D01*
X258480Y346741D01*
X258344Y345709D01*
X258480Y344677D01*
X258878Y343715D01*
X259512Y342889D01*
X260337Y342256D01*
X261299Y341858D01*
X262331Y341722D01*
X263363Y341858D01*
X264324Y342256D01*
X265150Y342889D01*
X265783Y343715D01*
X266182Y344677D01*
X266318Y345709D01*
X266182Y346741D01*
X265783Y347702D01*
X265150Y348528D01*
X264324Y349161D01*
X263363Y349560D01*
X262331Y349695D01*
D02*
G37*
G36*
X252331D02*
X251299Y349560D01*
X250337Y349161D01*
X249512Y348528D01*
X248878Y347702D01*
X248480Y346741D01*
X248344Y345709D01*
X248480Y344677D01*
X248878Y343715D01*
X249512Y342889D01*
X250337Y342256D01*
X251299Y341858D01*
X252331Y341722D01*
X253363Y341858D01*
X254324Y342256D01*
X255150Y342889D01*
X255783Y343715D01*
X256182Y344677D01*
X256318Y345709D01*
X256182Y346741D01*
X255783Y347702D01*
X255150Y348528D01*
X254324Y349161D01*
X253363Y349560D01*
X252331Y349695D01*
D02*
G37*
G36*
X242331D02*
X241299Y349560D01*
X240337Y349161D01*
X239512Y348528D01*
X238878Y347702D01*
X238480Y346741D01*
X238344Y345709D01*
X238480Y344677D01*
X238878Y343715D01*
X239512Y342889D01*
X240337Y342256D01*
X241299Y341858D01*
X242331Y341722D01*
X243363Y341858D01*
X244324Y342256D01*
X245150Y342889D01*
X245783Y343715D01*
X246182Y344677D01*
X246318Y345709D01*
X246182Y346741D01*
X245783Y347702D01*
X245150Y348528D01*
X244324Y349161D01*
X243363Y349560D01*
X242331Y349695D01*
D02*
G37*
G36*
X232331D02*
X231299Y349560D01*
X230337Y349161D01*
X229512Y348528D01*
X228878Y347702D01*
X228480Y346741D01*
X228344Y345709D01*
X228480Y344677D01*
X228878Y343715D01*
X229512Y342889D01*
X230337Y342256D01*
X231299Y341858D01*
X232331Y341722D01*
X233363Y341858D01*
X234324Y342256D01*
X235150Y342889D01*
X235783Y343715D01*
X236182Y344677D01*
X236318Y345709D01*
X236182Y346741D01*
X235783Y347702D01*
X235150Y348528D01*
X234324Y349161D01*
X233363Y349560D01*
X232331Y349695D01*
D02*
G37*
G36*
X222331D02*
X221299Y349560D01*
X220337Y349161D01*
X219512Y348528D01*
X218878Y347702D01*
X218480Y346741D01*
X218344Y345709D01*
X218480Y344677D01*
X218878Y343715D01*
X219512Y342889D01*
X220337Y342256D01*
X221299Y341858D01*
X222331Y341722D01*
X223363Y341858D01*
X224324Y342256D01*
X225150Y342889D01*
X225783Y343715D01*
X226182Y344677D01*
X226318Y345709D01*
X226182Y346741D01*
X225783Y347702D01*
X225150Y348528D01*
X224324Y349161D01*
X223363Y349560D01*
X222331Y349695D01*
D02*
G37*
G36*
X212331D02*
X211299Y349560D01*
X210337Y349161D01*
X209512Y348528D01*
X208878Y347702D01*
X208480Y346741D01*
X208344Y345709D01*
X208480Y344677D01*
X208878Y343715D01*
X209512Y342889D01*
X210337Y342256D01*
X211299Y341858D01*
X212331Y341722D01*
X213363Y341858D01*
X214324Y342256D01*
X215150Y342889D01*
X215783Y343715D01*
X216182Y344677D01*
X216318Y345709D01*
X216182Y346741D01*
X215783Y347702D01*
X215150Y348528D01*
X214324Y349161D01*
X213363Y349560D01*
X212331Y349695D01*
D02*
G37*
G36*
X202331D02*
X201299Y349560D01*
X200337Y349161D01*
X199512Y348528D01*
X198878Y347702D01*
X198480Y346741D01*
X198344Y345709D01*
X198480Y344677D01*
X198878Y343715D01*
X199512Y342889D01*
X200337Y342256D01*
X201299Y341858D01*
X202331Y341722D01*
X203363Y341858D01*
X204324Y342256D01*
X205150Y342889D01*
X205783Y343715D01*
X206182Y344677D01*
X206318Y345709D01*
X206182Y346741D01*
X205783Y347702D01*
X205150Y348528D01*
X204324Y349161D01*
X203363Y349560D01*
X202331Y349695D01*
D02*
G37*
G36*
X192331D02*
X191299Y349560D01*
X190337Y349161D01*
X189512Y348528D01*
X188878Y347702D01*
X188480Y346741D01*
X188344Y345709D01*
X188480Y344677D01*
X188878Y343715D01*
X189512Y342889D01*
X190337Y342256D01*
X191299Y341858D01*
X192331Y341722D01*
X193363Y341858D01*
X194324Y342256D01*
X195150Y342889D01*
X195783Y343715D01*
X196182Y344677D01*
X196318Y345709D01*
X196182Y346741D01*
X195783Y347702D01*
X195150Y348528D01*
X194324Y349161D01*
X193363Y349560D01*
X192331Y349695D01*
D02*
G37*
G36*
X182331D02*
X181299Y349560D01*
X180337Y349161D01*
X179512Y348528D01*
X178878Y347702D01*
X178480Y346741D01*
X178344Y345709D01*
X178480Y344677D01*
X178878Y343715D01*
X179512Y342889D01*
X180337Y342256D01*
X181299Y341858D01*
X182331Y341722D01*
X183363Y341858D01*
X184324Y342256D01*
X185150Y342889D01*
X185783Y343715D01*
X186182Y344677D01*
X186318Y345709D01*
X186182Y346741D01*
X185783Y347702D01*
X185150Y348528D01*
X184324Y349161D01*
X183363Y349560D01*
X182331Y349695D01*
D02*
G37*
G36*
X172331D02*
X171299Y349560D01*
X170337Y349161D01*
X169512Y348528D01*
X168878Y347702D01*
X168480Y346741D01*
X168344Y345709D01*
X168480Y344677D01*
X168878Y343715D01*
X169512Y342889D01*
X170337Y342256D01*
X171299Y341858D01*
X172331Y341722D01*
X173363Y341858D01*
X174324Y342256D01*
X175150Y342889D01*
X175783Y343715D01*
X176182Y344677D01*
X176318Y345709D01*
X176182Y346741D01*
X175783Y347702D01*
X175150Y348528D01*
X174324Y349161D01*
X173363Y349560D01*
X172331Y349695D01*
D02*
G37*
G36*
X162331D02*
X161299Y349560D01*
X160337Y349161D01*
X159512Y348528D01*
X158878Y347702D01*
X158480Y346741D01*
X158344Y345709D01*
X158480Y344677D01*
X158878Y343715D01*
X159512Y342889D01*
X160337Y342256D01*
X161299Y341858D01*
X162331Y341722D01*
X163363Y341858D01*
X164324Y342256D01*
X165150Y342889D01*
X165783Y343715D01*
X166182Y344677D01*
X166318Y345709D01*
X166182Y346741D01*
X165783Y347702D01*
X165150Y348528D01*
X164324Y349161D01*
X163363Y349560D01*
X162331Y349695D01*
D02*
G37*
G36*
X152331D02*
X151299Y349560D01*
X150337Y349161D01*
X149512Y348528D01*
X148878Y347702D01*
X148480Y346741D01*
X148344Y345709D01*
X148480Y344677D01*
X148878Y343715D01*
X149512Y342889D01*
X150337Y342256D01*
X151299Y341858D01*
X152331Y341722D01*
X153363Y341858D01*
X154324Y342256D01*
X155150Y342889D01*
X155783Y343715D01*
X156182Y344677D01*
X156318Y345709D01*
X156182Y346741D01*
X155783Y347702D01*
X155150Y348528D01*
X154324Y349161D01*
X153363Y349560D01*
X152331Y349695D01*
D02*
G37*
G36*
X142331D02*
X141299Y349560D01*
X140337Y349161D01*
X139512Y348528D01*
X138878Y347702D01*
X138480Y346741D01*
X138344Y345709D01*
X138480Y344677D01*
X138878Y343715D01*
X139512Y342889D01*
X140337Y342256D01*
X141299Y341858D01*
X142331Y341722D01*
X143363Y341858D01*
X144324Y342256D01*
X145150Y342889D01*
X145783Y343715D01*
X146182Y344677D01*
X146318Y345709D01*
X146182Y346741D01*
X145783Y347702D01*
X145150Y348528D01*
X144324Y349161D01*
X143363Y349560D01*
X142331Y349695D01*
D02*
G37*
G36*
X132331D02*
X131299Y349560D01*
X130337Y349161D01*
X129512Y348528D01*
X128878Y347702D01*
X128480Y346741D01*
X128344Y345709D01*
X128480Y344677D01*
X128878Y343715D01*
X129512Y342889D01*
X130337Y342256D01*
X131299Y341858D01*
X132331Y341722D01*
X133363Y341858D01*
X134324Y342256D01*
X135150Y342889D01*
X135783Y343715D01*
X136182Y344677D01*
X136318Y345709D01*
X136182Y346741D01*
X135783Y347702D01*
X135150Y348528D01*
X134324Y349161D01*
X133363Y349560D01*
X132331Y349695D01*
D02*
G37*
G36*
X122331D02*
X121299Y349560D01*
X120337Y349161D01*
X119512Y348528D01*
X118878Y347702D01*
X118480Y346741D01*
X118344Y345709D01*
X118480Y344677D01*
X118878Y343715D01*
X119512Y342889D01*
X120337Y342256D01*
X121299Y341858D01*
X122331Y341722D01*
X123363Y341858D01*
X124324Y342256D01*
X125150Y342889D01*
X125783Y343715D01*
X126182Y344677D01*
X126318Y345709D01*
X126182Y346741D01*
X125783Y347702D01*
X125150Y348528D01*
X124324Y349161D01*
X123363Y349560D01*
X122331Y349695D01*
D02*
G37*
G36*
X112331D02*
X111299Y349560D01*
X110337Y349161D01*
X109512Y348528D01*
X108878Y347702D01*
X108480Y346741D01*
X108344Y345709D01*
X108480Y344677D01*
X108878Y343715D01*
X109512Y342889D01*
X110337Y342256D01*
X111299Y341858D01*
X112331Y341722D01*
X113363Y341858D01*
X114324Y342256D01*
X115150Y342889D01*
X115783Y343715D01*
X116182Y344677D01*
X116318Y345709D01*
X116182Y346741D01*
X115783Y347702D01*
X115150Y348528D01*
X114324Y349161D01*
X113363Y349560D01*
X112331Y349695D01*
D02*
G37*
G36*
X102331D02*
X101299Y349560D01*
X100337Y349161D01*
X99512Y348528D01*
X98878Y347702D01*
X98480Y346741D01*
X98344Y345709D01*
X98480Y344677D01*
X98878Y343715D01*
X99512Y342889D01*
X100337Y342256D01*
X101299Y341858D01*
X102331Y341722D01*
X103363Y341858D01*
X104324Y342256D01*
X105150Y342889D01*
X105783Y343715D01*
X106182Y344677D01*
X106318Y345709D01*
X106182Y346741D01*
X105783Y347702D01*
X105150Y348528D01*
X104324Y349161D01*
X103363Y349560D01*
X102331Y349695D01*
D02*
G37*
G36*
X92331D02*
X91299Y349560D01*
X90337Y349161D01*
X89512Y348528D01*
X88878Y347702D01*
X88480Y346741D01*
X88344Y345709D01*
X88480Y344677D01*
X88878Y343715D01*
X89512Y342889D01*
X90337Y342256D01*
X91299Y341858D01*
X92331Y341722D01*
X93363Y341858D01*
X94324Y342256D01*
X95150Y342889D01*
X95783Y343715D01*
X96182Y344677D01*
X96318Y345709D01*
X96182Y346741D01*
X95783Y347702D01*
X95150Y348528D01*
X94324Y349161D01*
X93363Y349560D01*
X92331Y349695D01*
D02*
G37*
G36*
X82331D02*
X81299Y349560D01*
X80337Y349161D01*
X79512Y348528D01*
X78878Y347702D01*
X78480Y346741D01*
X78344Y345709D01*
X78480Y344677D01*
X78878Y343715D01*
X79512Y342889D01*
X80337Y342256D01*
X81299Y341858D01*
X82331Y341722D01*
X83363Y341858D01*
X84324Y342256D01*
X85150Y342889D01*
X85783Y343715D01*
X86182Y344677D01*
X86318Y345709D01*
X86182Y346741D01*
X85783Y347702D01*
X85150Y348528D01*
X84324Y349161D01*
X83363Y349560D01*
X82331Y349695D01*
D02*
G37*
G36*
X257480Y338838D02*
X256629Y338669D01*
X255908Y338187D01*
X255426Y337465D01*
X255257Y336614D01*
X255426Y335763D01*
X255908Y335042D01*
X256629Y334560D01*
X257480Y334390D01*
X258331Y334560D01*
X259053Y335042D01*
X259535Y335763D01*
X259704Y336614D01*
X259535Y337465D01*
X259053Y338187D01*
X258331Y338669D01*
X257480Y338838D01*
D02*
G37*
G36*
X267323Y336870D02*
X266472Y336700D01*
X265750Y336218D01*
X265268Y335497D01*
X265099Y334646D01*
X265268Y333795D01*
X265750Y333073D01*
X266472Y332591D01*
X267323Y332422D01*
X268174Y332591D01*
X268895Y333073D01*
X269377Y333795D01*
X269547Y334646D01*
X269377Y335497D01*
X268895Y336218D01*
X268174Y336700D01*
X267323Y336870D01*
D02*
G37*
G36*
X183944Y333789D02*
Y332164D01*
X185568D01*
X185498Y332515D01*
X185016Y333237D01*
X184295Y333719D01*
X183944Y333789D01*
D02*
G37*
G36*
X182944D02*
X182593Y333719D01*
X181871Y333237D01*
X181389Y332515D01*
X181319Y332164D01*
X182944D01*
Y333789D01*
D02*
G37*
G36*
X178826D02*
Y332164D01*
X180450D01*
X180380Y332515D01*
X179898Y333237D01*
X179177Y333719D01*
X178826Y333789D01*
D02*
G37*
G36*
X177826D02*
X177475Y333719D01*
X176753Y333237D01*
X176271Y332515D01*
X176201Y332164D01*
X177826D01*
Y333789D01*
D02*
G37*
G36*
X185568Y331164D02*
X183944D01*
Y329540D01*
X184295Y329610D01*
X185016Y330092D01*
X185498Y330813D01*
X185568Y331164D01*
D02*
G37*
G36*
X182944D02*
X181319D01*
X181389Y330813D01*
X181871Y330092D01*
X182593Y329610D01*
X182944Y329540D01*
Y331164D01*
D02*
G37*
G36*
X180450D02*
X178826D01*
Y329540D01*
X179177Y329610D01*
X179898Y330092D01*
X180380Y330813D01*
X180450Y331164D01*
D02*
G37*
G36*
X177826D02*
X176201D01*
X176271Y330813D01*
X176753Y330092D01*
X177475Y329610D01*
X177826Y329540D01*
Y331164D01*
D02*
G37*
G36*
X184231Y328383D02*
Y326759D01*
X185856D01*
X185786Y327110D01*
X185304Y327831D01*
X184582Y328313D01*
X184231Y328383D01*
D02*
G37*
G36*
X183231D02*
X182880Y328313D01*
X182159Y327831D01*
X181677Y327110D01*
X181607Y326759D01*
X183231D01*
Y328383D01*
D02*
G37*
G36*
X178847Y328109D02*
Y326484D01*
X180471D01*
X180401Y326835D01*
X179919Y327557D01*
X179198Y328039D01*
X178847Y328109D01*
D02*
G37*
G36*
X177847D02*
X177495Y328039D01*
X176774Y327557D01*
X176292Y326835D01*
X176222Y326484D01*
X177847D01*
Y328109D01*
D02*
G37*
G36*
X146850Y332932D02*
X145999Y332763D01*
X145278Y332281D01*
X144796Y331560D01*
X144627Y330709D01*
X144796Y329858D01*
X145278Y329136D01*
X145871Y328740D01*
X145278Y328344D01*
X144796Y327623D01*
X144627Y326772D01*
X144796Y325921D01*
X145278Y325199D01*
X145999Y324717D01*
X146850Y324548D01*
X147701Y324717D01*
X148423Y325199D01*
X148905Y325921D01*
X149074Y326772D01*
X148905Y327623D01*
X148423Y328344D01*
X147830Y328740D01*
X148423Y329136D01*
X148905Y329858D01*
X149074Y330709D01*
X148905Y331560D01*
X148423Y332281D01*
X147701Y332763D01*
X146850Y332932D01*
D02*
G37*
G36*
X185856Y325759D02*
X184231D01*
Y324134D01*
X184582Y324204D01*
X185304Y324686D01*
X185786Y325408D01*
X185856Y325759D01*
D02*
G37*
G36*
X183231D02*
X181607D01*
X181677Y325408D01*
X182159Y324686D01*
X182880Y324204D01*
X183231Y324134D01*
Y325759D01*
D02*
G37*
G36*
X180471Y325484D02*
X178847D01*
Y323860D01*
X179198Y323930D01*
X179919Y324412D01*
X180401Y325133D01*
X180471Y325484D01*
D02*
G37*
G36*
X177847D02*
X176222D01*
X176292Y325133D01*
X176774Y324412D01*
X177495Y323930D01*
X177847Y323860D01*
Y325484D01*
D02*
G37*
G36*
X72941Y322990D02*
Y321366D01*
X74565D01*
X74496Y321717D01*
X74013Y322439D01*
X73292Y322921D01*
X72941Y322990D01*
D02*
G37*
G36*
X71941D02*
X71590Y322921D01*
X70868Y322439D01*
X70386Y321717D01*
X70317Y321366D01*
X71941D01*
Y322990D01*
D02*
G37*
G36*
X264173Y327564D02*
X263296Y327449D01*
X262478Y327110D01*
X261775Y326571D01*
X261236Y325869D01*
X260898Y325051D01*
X260782Y324173D01*
X260898Y323295D01*
X261236Y322478D01*
X261775Y321775D01*
X262478Y321236D01*
X263296Y320898D01*
X264173Y320782D01*
X265051Y320898D01*
X265869Y321236D01*
X266571Y321775D01*
X267110Y322478D01*
X267449Y323295D01*
X267564Y324173D01*
X267449Y325051D01*
X267110Y325869D01*
X266571Y326571D01*
X265869Y327110D01*
X265051Y327449D01*
X264173Y327564D01*
D02*
G37*
G36*
X74565Y320366D02*
X72941D01*
Y318742D01*
X73292Y318812D01*
X74013Y319294D01*
X74496Y320015D01*
X74565Y320366D01*
D02*
G37*
G36*
X71941D02*
X70317D01*
X70386Y320015D01*
X70868Y319294D01*
X71590Y318812D01*
X71941Y318742D01*
Y320366D01*
D02*
G37*
G36*
X132423Y320588D02*
X131572Y320419D01*
X130851Y319937D01*
X130369Y319215D01*
X130199Y318364D01*
X130369Y317513D01*
X130851Y316792D01*
X131572Y316310D01*
X132423Y316140D01*
X133274Y316310D01*
X133996Y316792D01*
X134478Y317513D01*
X134647Y318364D01*
X134478Y319215D01*
X133996Y319937D01*
X133274Y320419D01*
X132423Y320588D01*
D02*
G37*
G36*
X126772Y317578D02*
X125921Y317409D01*
X125199Y316927D01*
X124717Y316205D01*
X124548Y315354D01*
X124630Y314942D01*
X124473Y315047D01*
X123622Y315216D01*
X122771Y315047D01*
X122050Y314565D01*
X121567Y313843D01*
X121398Y312992D01*
X121480Y312580D01*
X121324Y312684D01*
X120472Y312854D01*
X119621Y312684D01*
X118900Y312202D01*
X118418Y311481D01*
X118249Y310630D01*
X118418Y309779D01*
X118900Y309057D01*
X119621Y308575D01*
X120472Y308406D01*
X121324Y308575D01*
X122045Y309057D01*
X122527Y309779D01*
X122696Y310630D01*
X122614Y311042D01*
X122771Y310938D01*
X123622Y310768D01*
X124473Y310938D01*
X125195Y311420D01*
X125677Y312141D01*
X125846Y312992D01*
X125764Y313404D01*
X125921Y313300D01*
X126772Y313130D01*
X127623Y313300D01*
X128344Y313782D01*
X128826Y314503D01*
X128996Y315354D01*
X128826Y316205D01*
X128344Y316927D01*
X127623Y317409D01*
X126772Y317578D01*
D02*
G37*
G36*
X136614Y317972D02*
X135763Y317803D01*
X135042Y317320D01*
X134560Y316599D01*
X134390Y315748D01*
X134560Y314897D01*
X135042Y314176D01*
X135763Y313693D01*
X136614Y313524D01*
X137465Y313693D01*
X138187Y314176D01*
X138669Y314897D01*
X138838Y315748D01*
X138669Y316599D01*
X138187Y317320D01*
X137465Y317803D01*
X136614Y317972D01*
D02*
G37*
G36*
X87795Y317184D02*
X86944Y317015D01*
X86223Y316533D01*
X85741Y315812D01*
X85571Y314961D01*
X85741Y314110D01*
X86223Y313388D01*
X86944Y312906D01*
X87795Y312737D01*
X88646Y312906D01*
X89368Y313388D01*
X89850Y314110D01*
X90019Y314961D01*
X89850Y315812D01*
X89368Y316533D01*
X88646Y317015D01*
X87795Y317184D01*
D02*
G37*
G36*
X82020Y317054D02*
X81169Y316885D01*
X80448Y316403D01*
X79966Y315681D01*
X79796Y314830D01*
X79966Y313979D01*
X80448Y313258D01*
X81169Y312776D01*
X82020Y312607D01*
X82871Y312776D01*
X83593Y313258D01*
X84075Y313979D01*
X84244Y314830D01*
X84075Y315681D01*
X83593Y316403D01*
X82871Y316885D01*
X82020Y317054D01*
D02*
G37*
G36*
X264173Y317564D02*
X263296Y317449D01*
X262478Y317110D01*
X261775Y316571D01*
X261236Y315869D01*
X260898Y315051D01*
X260782Y314173D01*
X260898Y313296D01*
X261236Y312478D01*
X261775Y311775D01*
X262478Y311236D01*
X263296Y310898D01*
X264173Y310782D01*
X265051Y310898D01*
X265869Y311236D01*
X266571Y311775D01*
X267110Y312478D01*
X267449Y313296D01*
X267564Y314173D01*
X267449Y315051D01*
X267110Y315869D01*
X266571Y316571D01*
X265869Y317110D01*
X265051Y317449D01*
X264173Y317564D01*
D02*
G37*
G36*
X140157Y315216D02*
X139306Y315047D01*
X138585Y314565D01*
X138103Y313843D01*
X137934Y312992D01*
X138103Y312141D01*
X138585Y311420D01*
X139306Y310938D01*
X140157Y310768D01*
X141008Y310938D01*
X141730Y311420D01*
X142212Y312141D01*
X142381Y312992D01*
X142212Y313843D01*
X141730Y314565D01*
X141008Y315047D01*
X140157Y315216D01*
D02*
G37*
G36*
X145276Y314822D02*
X144425Y314653D01*
X143703Y314171D01*
X143221Y313449D01*
X143052Y312598D01*
X143221Y311747D01*
X143703Y311026D01*
X144425Y310544D01*
X145276Y310375D01*
X146127Y310544D01*
X146848Y311026D01*
X147330Y311747D01*
X147499Y312598D01*
X147330Y313449D01*
X146848Y314171D01*
X146127Y314653D01*
X145276Y314822D01*
D02*
G37*
G36*
X115748Y312460D02*
X114897Y312291D01*
X114175Y311809D01*
X113693Y311087D01*
X113524Y310236D01*
X113693Y309385D01*
X114175Y308664D01*
X114897Y308182D01*
X115748Y308012D01*
X116599Y308182D01*
X117321Y308664D01*
X117803Y309385D01*
X117972Y310236D01*
X117803Y311087D01*
X117321Y311809D01*
X116599Y312291D01*
X115748Y312460D01*
D02*
G37*
G36*
X148397Y306660D02*
Y305035D01*
X150022D01*
X149952Y305386D01*
X149470Y306108D01*
X148748Y306590D01*
X148397Y306660D01*
D02*
G37*
G36*
X147397D02*
X147046Y306590D01*
X146325Y306108D01*
X145843Y305386D01*
X145773Y305035D01*
X147397D01*
Y306660D01*
D02*
G37*
G36*
X111417Y308129D02*
X110566Y307960D01*
X109845Y307478D01*
X109363Y306756D01*
X109194Y305906D01*
X109363Y305054D01*
X109845Y304333D01*
X110566Y303851D01*
X111417Y303682D01*
X112268Y303851D01*
X112990Y304333D01*
X113472Y305054D01*
X113641Y305906D01*
X113472Y306756D01*
X112990Y307478D01*
X112268Y307960D01*
X111417Y308129D01*
D02*
G37*
G36*
X150022Y304035D02*
X148397D01*
Y302411D01*
X148748Y302481D01*
X149470Y302963D01*
X149952Y303684D01*
X150022Y304035D01*
D02*
G37*
G36*
X147397D02*
X145773D01*
X145843Y303684D01*
X146325Y302963D01*
X147046Y302481D01*
X147397Y302411D01*
Y304035D01*
D02*
G37*
G36*
X142582Y306759D02*
X141731Y306590D01*
X141010Y306108D01*
X140528Y305386D01*
X140358Y304535D01*
X140528Y303684D01*
X141010Y302963D01*
X141731Y302481D01*
X142582Y302312D01*
X143433Y302481D01*
X144155Y302963D01*
X144637Y303684D01*
X144806Y304535D01*
X144637Y305386D01*
X144155Y306108D01*
X143433Y306590D01*
X142582Y306759D01*
D02*
G37*
G36*
X118110Y306555D02*
X117259Y306385D01*
X116538Y305903D01*
X116056Y305182D01*
X115886Y304331D01*
X116056Y303480D01*
X116538Y302758D01*
X117259Y302276D01*
X118110Y302107D01*
X118961Y302276D01*
X119683Y302758D01*
X120165Y303480D01*
X120334Y304331D01*
X120165Y305182D01*
X119683Y305903D01*
X118961Y306385D01*
X118110Y306555D01*
D02*
G37*
G36*
X264173Y307564D02*
X263296Y307449D01*
X262478Y307110D01*
X261775Y306571D01*
X261236Y305869D01*
X260898Y305051D01*
X260782Y304173D01*
X260898Y303295D01*
X261236Y302478D01*
X261775Y301775D01*
X262478Y301236D01*
X263296Y300898D01*
X264173Y300782D01*
X265051Y300898D01*
X265869Y301236D01*
X266571Y301775D01*
X267110Y302478D01*
X267449Y303295D01*
X267564Y304173D01*
X267449Y305051D01*
X267110Y305869D01*
X266571Y306571D01*
X265869Y307110D01*
X265051Y307449D01*
X264173Y307564D01*
D02*
G37*
G36*
X125197Y303208D02*
X124346Y303039D01*
X123624Y302557D01*
X123142Y301835D01*
X122973Y300984D01*
X123142Y300133D01*
X123624Y299412D01*
X124346Y298930D01*
X125197Y298760D01*
X126048Y298930D01*
X126769Y299412D01*
X127251Y300133D01*
X127421Y300984D01*
X127251Y301835D01*
X126769Y302557D01*
X126048Y303039D01*
X125197Y303208D01*
D02*
G37*
G36*
X116248Y299565D02*
Y297941D01*
X117872D01*
X117803Y298292D01*
X117321Y299013D01*
X116599Y299496D01*
X116248Y299565D01*
D02*
G37*
G36*
X115248D02*
X114897Y299496D01*
X114176Y299013D01*
X113693Y298292D01*
X113624Y297941D01*
X115248D01*
Y299565D01*
D02*
G37*
G36*
X166248Y297006D02*
Y295382D01*
X167872D01*
X167803Y295733D01*
X167321Y296454D01*
X166599Y296936D01*
X166248Y297006D01*
D02*
G37*
G36*
X165248D02*
X164897Y296936D01*
X164175Y296454D01*
X163693Y295733D01*
X163624Y295382D01*
X165248D01*
Y297006D01*
D02*
G37*
G36*
X117872Y296941D02*
X116248D01*
Y295317D01*
X116599Y295386D01*
X117321Y295868D01*
X117803Y296590D01*
X117872Y296941D01*
D02*
G37*
G36*
X115248D02*
X113624D01*
X113693Y296590D01*
X114176Y295868D01*
X114897Y295386D01*
X115248Y295317D01*
Y296941D01*
D02*
G37*
G36*
X264673Y297499D02*
Y294673D01*
X267499D01*
X267449Y295051D01*
X267110Y295869D01*
X266571Y296571D01*
X265869Y297110D01*
X265051Y297449D01*
X264673Y297499D01*
D02*
G37*
G36*
X263673Y297499D02*
X263296Y297449D01*
X262478Y297110D01*
X261775Y296571D01*
X261236Y295869D01*
X260898Y295051D01*
X260848Y294673D01*
X263673D01*
Y297499D01*
D02*
G37*
G36*
X167872Y294382D02*
X166248D01*
Y292758D01*
X166599Y292827D01*
X167321Y293309D01*
X167803Y294031D01*
X167872Y294382D01*
D02*
G37*
G36*
X165248D02*
X163624D01*
X163693Y294031D01*
X164175Y293309D01*
X164897Y292827D01*
X165248Y292758D01*
Y294382D01*
D02*
G37*
G36*
X263673Y293673D02*
X260848D01*
X260898Y293296D01*
X261236Y292478D01*
X261775Y291775D01*
X262478Y291236D01*
X263296Y290898D01*
X263673Y290848D01*
Y293673D01*
D02*
G37*
G36*
X267499D02*
X264673D01*
Y290848D01*
X265051Y290898D01*
X265869Y291236D01*
X266571Y291775D01*
X267110Y292478D01*
X267449Y293296D01*
X267499Y293673D01*
D02*
G37*
G36*
X105091Y294161D02*
X104240Y293992D01*
X103518Y293510D01*
X103036Y292788D01*
X102867Y291937D01*
X103036Y291086D01*
X103518Y290365D01*
X104240Y289882D01*
X105091Y289713D01*
X105942Y289882D01*
X106663Y290365D01*
X107145Y291086D01*
X107315Y291937D01*
X107145Y292788D01*
X106663Y293510D01*
X105942Y293992D01*
X105091Y294161D01*
D02*
G37*
G36*
X138555Y290317D02*
Y288894D01*
X139979D01*
X139924Y289168D01*
X139485Y289824D01*
X138829Y290263D01*
X138555Y290317D01*
D02*
G37*
G36*
X137555D02*
X137281Y290263D01*
X136624Y289824D01*
X136186Y289168D01*
X136131Y288894D01*
X137555D01*
Y290317D01*
D02*
G37*
G36*
X134224D02*
Y288894D01*
X135648D01*
X135593Y289168D01*
X135155Y289824D01*
X134498Y290263D01*
X134224Y290317D01*
D02*
G37*
G36*
X133224D02*
X132950Y290263D01*
X132293Y289824D01*
X131855Y289168D01*
X131800Y288894D01*
X133224D01*
Y290317D01*
D02*
G37*
G36*
X129893D02*
Y288894D01*
X131317D01*
X131263Y289168D01*
X130824Y289824D01*
X130168Y290263D01*
X129893Y290317D01*
D02*
G37*
G36*
X128893D02*
X128619Y290263D01*
X127963Y289824D01*
X127524Y289168D01*
X127470Y288894D01*
X128893D01*
Y290317D01*
D02*
G37*
G36*
X125563D02*
Y288894D01*
X126986D01*
X126932Y289168D01*
X126493Y289824D01*
X125837Y290263D01*
X125563Y290317D01*
D02*
G37*
G36*
X124563D02*
X124288Y290263D01*
X123632Y289824D01*
X123194Y289168D01*
X123139Y288894D01*
X124563D01*
Y290317D01*
D02*
G37*
G36*
X121232D02*
Y288894D01*
X122656D01*
X122601Y289168D01*
X122162Y289824D01*
X121506Y290263D01*
X121232Y290317D01*
D02*
G37*
G36*
X120232D02*
X119958Y290263D01*
X119301Y289824D01*
X118863Y289168D01*
X118808Y288894D01*
X120232D01*
Y290317D01*
D02*
G37*
G36*
X159161Y288738D02*
Y287114D01*
X160786D01*
X160716Y287465D01*
X160234Y288187D01*
X159512Y288669D01*
X159161Y288738D01*
D02*
G37*
G36*
X158161D02*
X157810Y288669D01*
X157089Y288187D01*
X156607Y287465D01*
X156537Y287114D01*
X158161D01*
Y288738D01*
D02*
G37*
G36*
X139979Y287894D02*
X138555D01*
Y286470D01*
X138829Y286525D01*
X139485Y286963D01*
X139924Y287619D01*
X139979Y287894D01*
D02*
G37*
G36*
X137555D02*
X136131D01*
X136186Y287619D01*
X136624Y286963D01*
X137281Y286525D01*
X137555Y286470D01*
Y287894D01*
D02*
G37*
G36*
X135648D02*
X134224D01*
Y286470D01*
X134498Y286525D01*
X135155Y286963D01*
X135593Y287619D01*
X135648Y287894D01*
D02*
G37*
G36*
X133224D02*
X131800D01*
X131855Y287619D01*
X132293Y286963D01*
X132950Y286525D01*
X133224Y286470D01*
Y287894D01*
D02*
G37*
G36*
X131317D02*
X129893D01*
Y286470D01*
X130168Y286525D01*
X130824Y286963D01*
X131263Y287619D01*
X131317Y287894D01*
D02*
G37*
G36*
X128893D02*
X127470D01*
X127524Y287619D01*
X127963Y286963D01*
X128619Y286525D01*
X128893Y286470D01*
Y287894D01*
D02*
G37*
G36*
X126986D02*
X125563D01*
Y286470D01*
X125837Y286525D01*
X126493Y286963D01*
X126932Y287619D01*
X126986Y287894D01*
D02*
G37*
G36*
X124563D02*
X123139D01*
X123194Y287619D01*
X123632Y286963D01*
X124288Y286525D01*
X124563Y286470D01*
Y287894D01*
D02*
G37*
G36*
X122656D02*
X121232D01*
Y286470D01*
X121506Y286525D01*
X122162Y286963D01*
X122601Y287619D01*
X122656Y287894D01*
D02*
G37*
G36*
X120232D02*
X118808D01*
X118863Y287619D01*
X119301Y286963D01*
X119958Y286525D01*
X120232Y286470D01*
Y287894D01*
D02*
G37*
G36*
X146323Y289436D02*
X145472Y289267D01*
X144750Y288785D01*
X144268Y288064D01*
X144099Y287213D01*
X144268Y286362D01*
X144750Y285640D01*
X145472Y285158D01*
X146323Y284989D01*
X147174Y285158D01*
X147895Y285640D01*
X148377Y286362D01*
X148546Y287213D01*
X148377Y288064D01*
X147895Y288785D01*
X147174Y289267D01*
X146323Y289436D01*
D02*
G37*
G36*
X138555Y285987D02*
Y284563D01*
X139979D01*
X139924Y284837D01*
X139485Y285494D01*
X138829Y285932D01*
X138555Y285987D01*
D02*
G37*
G36*
X137555D02*
X137281Y285932D01*
X136624Y285494D01*
X136186Y284837D01*
X136131Y284563D01*
X137555D01*
Y285987D01*
D02*
G37*
G36*
X134224D02*
Y284563D01*
X135648D01*
X135593Y284837D01*
X135155Y285494D01*
X134498Y285932D01*
X134224Y285987D01*
D02*
G37*
G36*
X133224D02*
X132950Y285932D01*
X132293Y285494D01*
X131855Y284837D01*
X131800Y284563D01*
X133224D01*
Y285987D01*
D02*
G37*
G36*
X129893D02*
Y284563D01*
X131317D01*
X131263Y284837D01*
X130824Y285494D01*
X130168Y285932D01*
X129893Y285987D01*
D02*
G37*
G36*
X128893D02*
X128619Y285932D01*
X127963Y285494D01*
X127524Y284837D01*
X127470Y284563D01*
X128893D01*
Y285987D01*
D02*
G37*
G36*
X125563D02*
Y284563D01*
X126986D01*
X126932Y284837D01*
X126493Y285494D01*
X125837Y285932D01*
X125563Y285987D01*
D02*
G37*
G36*
X124563D02*
X124288Y285932D01*
X123632Y285494D01*
X123194Y284837D01*
X123139Y284563D01*
X124563D01*
Y285987D01*
D02*
G37*
G36*
X121232D02*
Y284563D01*
X122656D01*
X122601Y284837D01*
X122162Y285494D01*
X121506Y285932D01*
X121232Y285987D01*
D02*
G37*
G36*
X120232D02*
X119958Y285932D01*
X119301Y285494D01*
X118863Y284837D01*
X118808Y284563D01*
X120232D01*
Y285987D01*
D02*
G37*
G36*
X160786Y286114D02*
X159161D01*
Y284490D01*
X159512Y284560D01*
X160234Y285042D01*
X160716Y285763D01*
X160786Y286114D01*
D02*
G37*
G36*
X158161D02*
X156537D01*
X156607Y285763D01*
X157089Y285042D01*
X157810Y284560D01*
X158161Y284490D01*
Y286114D01*
D02*
G37*
G36*
X139979Y283563D02*
X138555D01*
Y282139D01*
X138829Y282194D01*
X139485Y282632D01*
X139924Y283289D01*
X139979Y283563D01*
D02*
G37*
G36*
X137555D02*
X136131D01*
X136186Y283289D01*
X136624Y282632D01*
X137281Y282194D01*
X137555Y282139D01*
Y283563D01*
D02*
G37*
G36*
X135648D02*
X134224D01*
Y282139D01*
X134498Y282194D01*
X135155Y282632D01*
X135593Y283289D01*
X135648Y283563D01*
D02*
G37*
G36*
X133224D02*
X131800D01*
X131855Y283289D01*
X132293Y282632D01*
X132950Y282194D01*
X133224Y282139D01*
Y283563D01*
D02*
G37*
G36*
X131317D02*
X129893D01*
Y282139D01*
X130168Y282194D01*
X130824Y282632D01*
X131263Y283289D01*
X131317Y283563D01*
D02*
G37*
G36*
X128893D02*
X127470D01*
X127524Y283289D01*
X127963Y282632D01*
X128619Y282194D01*
X128893Y282139D01*
Y283563D01*
D02*
G37*
G36*
X126986D02*
X125563D01*
Y282139D01*
X125837Y282194D01*
X126493Y282632D01*
X126932Y283289D01*
X126986Y283563D01*
D02*
G37*
G36*
X124563D02*
X123139D01*
X123194Y283289D01*
X123632Y282632D01*
X124288Y282194D01*
X124563Y282139D01*
Y283563D01*
D02*
G37*
G36*
X122656D02*
X121232D01*
Y282139D01*
X121506Y282194D01*
X122162Y282632D01*
X122601Y283289D01*
X122656Y283563D01*
D02*
G37*
G36*
X120232D02*
X118808D01*
X118863Y283289D01*
X119301Y282632D01*
X119958Y282194D01*
X120232Y282139D01*
Y283563D01*
D02*
G37*
G36*
X138555Y281656D02*
Y280232D01*
X139979D01*
X139924Y280506D01*
X139485Y281163D01*
X138829Y281601D01*
X138555Y281656D01*
D02*
G37*
G36*
X137555D02*
X137281Y281601D01*
X136624Y281163D01*
X136186Y280506D01*
X136131Y280232D01*
X137555D01*
Y281656D01*
D02*
G37*
G36*
X134224D02*
Y280232D01*
X135648D01*
X135593Y280506D01*
X135155Y281163D01*
X134498Y281601D01*
X134224Y281656D01*
D02*
G37*
G36*
X133224D02*
X132950Y281601D01*
X132293Y281163D01*
X131855Y280506D01*
X131800Y280232D01*
X133224D01*
Y281656D01*
D02*
G37*
G36*
X129893D02*
Y280232D01*
X131317D01*
X131263Y280506D01*
X130824Y281163D01*
X130168Y281601D01*
X129893Y281656D01*
D02*
G37*
G36*
X128893D02*
X128619Y281601D01*
X127963Y281163D01*
X127524Y280506D01*
X127470Y280232D01*
X128893D01*
Y281656D01*
D02*
G37*
G36*
X125563D02*
Y280232D01*
X126986D01*
X126932Y280506D01*
X126493Y281163D01*
X125837Y281601D01*
X125563Y281656D01*
D02*
G37*
G36*
X124563D02*
X124288Y281601D01*
X123632Y281163D01*
X123194Y280506D01*
X123139Y280232D01*
X124563D01*
Y281656D01*
D02*
G37*
G36*
X121232D02*
Y280232D01*
X122656D01*
X122601Y280506D01*
X122162Y281163D01*
X121506Y281601D01*
X121232Y281656D01*
D02*
G37*
G36*
X120232D02*
X119958Y281601D01*
X119301Y281163D01*
X118863Y280506D01*
X118808Y280232D01*
X120232D01*
Y281656D01*
D02*
G37*
G36*
X150653Y282744D02*
X149802Y282574D01*
X149081Y282092D01*
X148599Y281371D01*
X148429Y280520D01*
X148599Y279669D01*
X149081Y278947D01*
X149802Y278465D01*
X150653Y278296D01*
X151504Y278465D01*
X152226Y278947D01*
X152708Y279669D01*
X152877Y280520D01*
X152708Y281371D01*
X152226Y282092D01*
X151504Y282574D01*
X150653Y282744D01*
D02*
G37*
G36*
X139979Y279232D02*
X138555D01*
Y277809D01*
X138829Y277863D01*
X139485Y278302D01*
X139924Y278958D01*
X139979Y279232D01*
D02*
G37*
G36*
X137555D02*
X136131D01*
X136186Y278958D01*
X136624Y278302D01*
X137281Y277863D01*
X137555Y277809D01*
Y279232D01*
D02*
G37*
G36*
X135648D02*
X134224D01*
Y277809D01*
X134498Y277863D01*
X135155Y278302D01*
X135593Y278958D01*
X135648Y279232D01*
D02*
G37*
G36*
X133224D02*
X131800D01*
X131855Y278958D01*
X132293Y278302D01*
X132950Y277863D01*
X133224Y277809D01*
Y279232D01*
D02*
G37*
G36*
X131317D02*
X129893D01*
Y277809D01*
X130168Y277863D01*
X130824Y278302D01*
X131263Y278958D01*
X131317Y279232D01*
D02*
G37*
G36*
X128893D02*
X127470D01*
X127524Y278958D01*
X127963Y278302D01*
X128619Y277863D01*
X128893Y277809D01*
Y279232D01*
D02*
G37*
G36*
X126986D02*
X125563D01*
Y277809D01*
X125837Y277863D01*
X126493Y278302D01*
X126932Y278958D01*
X126986Y279232D01*
D02*
G37*
G36*
X124563D02*
X123139D01*
X123194Y278958D01*
X123632Y278302D01*
X124288Y277863D01*
X124563Y277809D01*
Y279232D01*
D02*
G37*
G36*
X122656D02*
X121232D01*
Y277809D01*
X121506Y277863D01*
X122162Y278302D01*
X122601Y278958D01*
X122656Y279232D01*
D02*
G37*
G36*
X120232D02*
X118808D01*
X118863Y278958D01*
X119301Y278302D01*
X119958Y277863D01*
X120232Y277809D01*
Y279232D01*
D02*
G37*
G36*
X138555Y277325D02*
Y275902D01*
X139979D01*
X139924Y276176D01*
X139485Y276832D01*
X138829Y277271D01*
X138555Y277325D01*
D02*
G37*
G36*
X137555D02*
X137281Y277271D01*
X136624Y276832D01*
X136186Y276176D01*
X136131Y275902D01*
X137555D01*
Y277325D01*
D02*
G37*
G36*
X134224D02*
Y275902D01*
X135648D01*
X135593Y276176D01*
X135155Y276832D01*
X134498Y277271D01*
X134224Y277325D01*
D02*
G37*
G36*
X133224D02*
X132950Y277271D01*
X132293Y276832D01*
X131855Y276176D01*
X131800Y275902D01*
X133224D01*
Y277325D01*
D02*
G37*
G36*
X129893D02*
Y275902D01*
X131317D01*
X131263Y276176D01*
X130824Y276832D01*
X130168Y277271D01*
X129893Y277325D01*
D02*
G37*
G36*
X128893D02*
X128619Y277271D01*
X127963Y276832D01*
X127524Y276176D01*
X127470Y275902D01*
X128893D01*
Y277325D01*
D02*
G37*
G36*
X125563D02*
Y275902D01*
X126986D01*
X126932Y276176D01*
X126493Y276832D01*
X125837Y277271D01*
X125563Y277325D01*
D02*
G37*
G36*
X124563D02*
X124288Y277271D01*
X123632Y276832D01*
X123194Y276176D01*
X123139Y275902D01*
X124563D01*
Y277325D01*
D02*
G37*
G36*
X121232D02*
Y275902D01*
X122656D01*
X122601Y276176D01*
X122162Y276832D01*
X121506Y277271D01*
X121232Y277325D01*
D02*
G37*
G36*
X120232D02*
X119958Y277271D01*
X119301Y276832D01*
X118863Y276176D01*
X118808Y275902D01*
X120232D01*
Y277325D01*
D02*
G37*
G36*
X139979Y274902D02*
X138555D01*
Y273478D01*
X138829Y273533D01*
X139485Y273971D01*
X139924Y274627D01*
X139979Y274902D01*
D02*
G37*
G36*
X137555D02*
X136131D01*
X136186Y274627D01*
X136624Y273971D01*
X137281Y273533D01*
X137555Y273478D01*
Y274902D01*
D02*
G37*
G36*
X135648D02*
X134224D01*
Y273478D01*
X134498Y273533D01*
X135155Y273971D01*
X135593Y274627D01*
X135648Y274902D01*
D02*
G37*
G36*
X133224D02*
X131800D01*
X131855Y274627D01*
X132293Y273971D01*
X132950Y273533D01*
X133224Y273478D01*
Y274902D01*
D02*
G37*
G36*
X131317D02*
X129893D01*
Y273478D01*
X130168Y273533D01*
X130824Y273971D01*
X131263Y274627D01*
X131317Y274902D01*
D02*
G37*
G36*
X128893D02*
X127470D01*
X127524Y274627D01*
X127963Y273971D01*
X128619Y273533D01*
X128893Y273478D01*
Y274902D01*
D02*
G37*
G36*
X126986D02*
X125563D01*
Y273478D01*
X125837Y273533D01*
X126493Y273971D01*
X126932Y274627D01*
X126986Y274902D01*
D02*
G37*
G36*
X124563D02*
X123139D01*
X123194Y274627D01*
X123632Y273971D01*
X124288Y273533D01*
X124563Y273478D01*
Y274902D01*
D02*
G37*
G36*
X122656D02*
X121232D01*
Y273478D01*
X121506Y273533D01*
X122162Y273971D01*
X122601Y274627D01*
X122656Y274902D01*
D02*
G37*
G36*
X120232D02*
X118808D01*
X118863Y274627D01*
X119301Y273971D01*
X119958Y273533D01*
X120232Y273478D01*
Y274902D01*
D02*
G37*
G36*
X255512Y277814D02*
X254661Y277645D01*
X253939Y277163D01*
X253457Y276442D01*
X253288Y275590D01*
X253457Y274740D01*
X253939Y274018D01*
X254661Y273536D01*
X255512Y273367D01*
X256363Y273536D01*
X257084Y274018D01*
X257566Y274740D01*
X257736Y275590D01*
X257566Y276442D01*
X257084Y277163D01*
X256363Y277645D01*
X255512Y277814D01*
D02*
G37*
G36*
X225303Y276160D02*
Y273335D01*
X228129D01*
X228079Y273712D01*
X227740Y274530D01*
X227201Y275233D01*
X226499Y275771D01*
X225681Y276110D01*
X225303Y276160D01*
D02*
G37*
G36*
X224303Y276160D02*
X223925Y276110D01*
X223108Y275771D01*
X222405Y275233D01*
X221866Y274530D01*
X221528Y273712D01*
X221478Y273335D01*
X224303D01*
Y276160D01*
D02*
G37*
G36*
X138555Y272994D02*
Y271571D01*
X139979D01*
X139924Y271845D01*
X139485Y272501D01*
X138829Y272940D01*
X138555Y272994D01*
D02*
G37*
G36*
X137555D02*
X137281Y272940D01*
X136624Y272501D01*
X136186Y271845D01*
X136131Y271571D01*
X137555D01*
Y272994D01*
D02*
G37*
G36*
X134224D02*
Y271571D01*
X135648D01*
X135593Y271845D01*
X135155Y272501D01*
X134498Y272940D01*
X134224Y272994D01*
D02*
G37*
G36*
X133224D02*
X132950Y272940D01*
X132293Y272501D01*
X131855Y271845D01*
X131800Y271571D01*
X133224D01*
Y272994D01*
D02*
G37*
G36*
X129893D02*
Y271571D01*
X131317D01*
X131263Y271845D01*
X130824Y272501D01*
X130168Y272940D01*
X129893Y272994D01*
D02*
G37*
G36*
X128893D02*
X128619Y272940D01*
X127963Y272501D01*
X127524Y271845D01*
X127470Y271571D01*
X128893D01*
Y272994D01*
D02*
G37*
G36*
X125563D02*
Y271571D01*
X126986D01*
X126932Y271845D01*
X126493Y272501D01*
X125837Y272940D01*
X125563Y272994D01*
D02*
G37*
G36*
X124563D02*
X124288Y272940D01*
X123632Y272501D01*
X123194Y271845D01*
X123139Y271571D01*
X124563D01*
Y272994D01*
D02*
G37*
G36*
X121232D02*
Y271571D01*
X122656D01*
X122601Y271845D01*
X122162Y272501D01*
X121506Y272940D01*
X121232Y272994D01*
D02*
G37*
G36*
X120232D02*
X119958Y272940D01*
X119301Y272501D01*
X118863Y271845D01*
X118808Y271571D01*
X120232D01*
Y272994D01*
D02*
G37*
G36*
X194460Y272801D02*
Y271177D01*
X196085D01*
X196015Y271528D01*
X195533Y272250D01*
X194811Y272732D01*
X194460Y272801D01*
D02*
G37*
G36*
X193460D02*
X193109Y272732D01*
X192388Y272250D01*
X191906Y271528D01*
X191836Y271177D01*
X193460D01*
Y272801D01*
D02*
G37*
G36*
X146716Y274673D02*
X145865Y274503D01*
X145144Y274021D01*
X144662Y273300D01*
X144492Y272449D01*
X144662Y271598D01*
X145144Y270876D01*
X145865Y270394D01*
X146716Y270225D01*
X147567Y270394D01*
X148289Y270876D01*
X148771Y271598D01*
X148940Y272449D01*
X148771Y273300D01*
X148289Y274021D01*
X147567Y274503D01*
X146716Y274673D01*
D02*
G37*
G36*
X228129Y272335D02*
X225303D01*
Y269509D01*
X225681Y269559D01*
X226499Y269898D01*
X227201Y270437D01*
X227740Y271139D01*
X228079Y271957D01*
X228129Y272335D01*
D02*
G37*
G36*
X224303D02*
X221478D01*
X221528Y271957D01*
X221866Y271139D01*
X222405Y270437D01*
X223108Y269898D01*
X223925Y269559D01*
X224303Y269509D01*
Y272335D01*
D02*
G37*
G36*
X216929Y276226D02*
X216051Y276110D01*
X215233Y275771D01*
X214531Y275233D01*
X213992Y274530D01*
X213653Y273712D01*
X213538Y272835D01*
X213653Y271957D01*
X213992Y271139D01*
X214531Y270437D01*
X215233Y269898D01*
X216051Y269559D01*
X216929Y269443D01*
X217807Y269559D01*
X218625Y269898D01*
X219327Y270437D01*
X219866Y271139D01*
X220205Y271957D01*
X220320Y272835D01*
X220205Y273712D01*
X219866Y274530D01*
X219327Y275233D01*
X218625Y275771D01*
X217807Y276110D01*
X216929Y276226D01*
D02*
G37*
G36*
X139979Y270571D02*
X138555D01*
Y269147D01*
X138829Y269202D01*
X139485Y269640D01*
X139924Y270297D01*
X139979Y270571D01*
D02*
G37*
G36*
X137555D02*
X136131D01*
X136186Y270297D01*
X136624Y269640D01*
X137281Y269202D01*
X137555Y269147D01*
Y270571D01*
D02*
G37*
G36*
X135648D02*
X134224D01*
Y269147D01*
X134498Y269202D01*
X135155Y269640D01*
X135593Y270297D01*
X135648Y270571D01*
D02*
G37*
G36*
X133224D02*
X131800D01*
X131855Y270297D01*
X132293Y269640D01*
X132950Y269202D01*
X133224Y269147D01*
Y270571D01*
D02*
G37*
G36*
X131317D02*
X129893D01*
Y269147D01*
X130168Y269202D01*
X130824Y269640D01*
X131263Y270297D01*
X131317Y270571D01*
D02*
G37*
G36*
X128893D02*
X127470D01*
X127524Y270297D01*
X127963Y269640D01*
X128619Y269202D01*
X128893Y269147D01*
Y270571D01*
D02*
G37*
G36*
X126986D02*
X125563D01*
Y269147D01*
X125837Y269202D01*
X126493Y269640D01*
X126932Y270297D01*
X126986Y270571D01*
D02*
G37*
G36*
X124563D02*
X123139D01*
X123194Y270297D01*
X123632Y269640D01*
X124288Y269202D01*
X124563Y269147D01*
Y270571D01*
D02*
G37*
G36*
X122656D02*
X121232D01*
Y269147D01*
X121506Y269202D01*
X122162Y269640D01*
X122601Y270297D01*
X122656Y270571D01*
D02*
G37*
G36*
X120232D02*
X118808D01*
X118863Y270297D01*
X119301Y269640D01*
X119958Y269202D01*
X120232Y269147D01*
Y270571D01*
D02*
G37*
G36*
X159421Y270439D02*
Y268815D01*
X161045D01*
X160976Y269166D01*
X160493Y269887D01*
X159772Y270370D01*
X159421Y270439D01*
D02*
G37*
G36*
X158421D02*
X158070Y270370D01*
X157349Y269887D01*
X156866Y269166D01*
X156797Y268815D01*
X158421D01*
Y270439D01*
D02*
G37*
G36*
X196085Y270177D02*
X194460D01*
Y268553D01*
X194811Y268623D01*
X195533Y269105D01*
X196015Y269826D01*
X196085Y270177D01*
D02*
G37*
G36*
X193460D02*
X191836D01*
X191906Y269826D01*
X192388Y269105D01*
X193109Y268623D01*
X193460Y268553D01*
Y270177D01*
D02*
G37*
G36*
X267035Y269447D02*
Y267823D01*
X268660D01*
X268590Y268174D01*
X268108Y268895D01*
X267387Y269377D01*
X267035Y269447D01*
D02*
G37*
G36*
X266035D02*
X265684Y269377D01*
X264963Y268895D01*
X264481Y268174D01*
X264411Y267823D01*
X266035D01*
Y269447D01*
D02*
G37*
G36*
X161045Y267815D02*
X159421D01*
Y266191D01*
X159772Y266260D01*
X160493Y266742D01*
X160976Y267464D01*
X161045Y267815D01*
D02*
G37*
G36*
X158421D02*
X156797D01*
X156866Y267464D01*
X157349Y266742D01*
X158070Y266260D01*
X158421Y266191D01*
Y267815D01*
D02*
G37*
G36*
X104197Y270145D02*
X103346Y269976D01*
X102624Y269494D01*
X102142Y268772D01*
X101973Y267921D01*
X102142Y267070D01*
X102624Y266349D01*
X103346Y265867D01*
X104197Y265697D01*
X105048Y265867D01*
X105769Y266349D01*
X106251Y267070D01*
X106420Y267921D01*
X106251Y268772D01*
X105769Y269494D01*
X105048Y269976D01*
X104197Y270145D01*
D02*
G37*
G36*
X268660Y266823D02*
X267035D01*
Y265198D01*
X267387Y265268D01*
X268108Y265750D01*
X268590Y266472D01*
X268660Y266823D01*
D02*
G37*
G36*
X266035D02*
X264411D01*
X264481Y266472D01*
X264963Y265750D01*
X265684Y265268D01*
X266035Y265198D01*
Y266823D01*
D02*
G37*
G36*
X105090Y264337D02*
Y262713D01*
X106715D01*
X106645Y263064D01*
X106163Y263785D01*
X105441Y264267D01*
X105090Y264337D01*
D02*
G37*
G36*
X104090D02*
X103739Y264267D01*
X103018Y263785D01*
X102536Y263064D01*
X102466Y262713D01*
X104090D01*
Y264337D01*
D02*
G37*
G36*
X144854Y263746D02*
Y262122D01*
X146478D01*
X146409Y262473D01*
X145926Y263194D01*
X145205Y263677D01*
X144854Y263746D01*
D02*
G37*
G36*
X143854D02*
X143503Y263677D01*
X142781Y263194D01*
X142299Y262473D01*
X142230Y262122D01*
X143854D01*
Y263746D01*
D02*
G37*
G36*
X106715Y261713D02*
X105090D01*
Y260088D01*
X105441Y260158D01*
X106163Y260640D01*
X106645Y261362D01*
X106715Y261713D01*
D02*
G37*
G36*
X104090D02*
X102466D01*
X102536Y261362D01*
X103018Y260640D01*
X103739Y260158D01*
X104090Y260088D01*
Y261713D01*
D02*
G37*
G36*
X146478Y261122D02*
X144854D01*
Y259498D01*
X145205Y259567D01*
X145926Y260050D01*
X146409Y260771D01*
X146478Y261122D01*
D02*
G37*
G36*
X143854D02*
X142230D01*
X142299Y260771D01*
X142781Y260050D01*
X143503Y259567D01*
X143854Y259498D01*
Y261122D01*
D02*
G37*
G36*
X132149Y264240D02*
X131298Y264070D01*
X130577Y263588D01*
X130095Y262867D01*
X129926Y262016D01*
X130095Y261165D01*
X130577Y260443D01*
X131298Y259961D01*
X131403Y259940D01*
X130971Y259651D01*
X130488Y258930D01*
X130419Y258579D01*
X134667D01*
X134598Y258930D01*
X134116Y259651D01*
X133394Y260133D01*
X133289Y260154D01*
X133722Y260443D01*
X134204Y261165D01*
X134373Y262016D01*
X134204Y262867D01*
X133722Y263588D01*
X133000Y264070D01*
X132149Y264240D01*
D02*
G37*
G36*
X173201Y258628D02*
Y257004D01*
X174825D01*
X174755Y257355D01*
X174273Y258076D01*
X173551Y258559D01*
X173201Y258628D01*
D02*
G37*
G36*
X172201D02*
X171850Y258559D01*
X171128Y258076D01*
X170646Y257355D01*
X170576Y257004D01*
X172201D01*
Y258628D01*
D02*
G37*
G36*
X134667Y257579D02*
X133043D01*
Y255954D01*
X133394Y256024D01*
X134116Y256506D01*
X134598Y257228D01*
X134667Y257579D01*
D02*
G37*
G36*
X132043D02*
X130419D01*
X130488Y257228D01*
X130971Y256506D01*
X131692Y256024D01*
X132043Y255954D01*
Y257579D01*
D02*
G37*
G36*
X174825Y256004D02*
X173201D01*
Y254380D01*
X173551Y254449D01*
X174273Y254931D01*
X174755Y255653D01*
X174825Y256004D01*
D02*
G37*
G36*
X172201D02*
X170576D01*
X170646Y255653D01*
X171128Y254931D01*
X171850Y254449D01*
X172201Y254380D01*
Y256004D01*
D02*
G37*
G36*
X164433Y257940D02*
X163582Y257771D01*
X162860Y257289D01*
X162378Y256568D01*
X162209Y255716D01*
X162378Y254866D01*
X162860Y254144D01*
X163582Y253662D01*
X164433Y253493D01*
X165284Y253662D01*
X166005Y254144D01*
X166487Y254866D01*
X166657Y255716D01*
X166487Y256568D01*
X166005Y257289D01*
X165284Y257771D01*
X164433Y257940D01*
D02*
G37*
G36*
X210343Y254487D02*
Y252862D01*
X211967D01*
X211897Y253213D01*
X211415Y253935D01*
X210694Y254417D01*
X210343Y254487D01*
D02*
G37*
G36*
X209343D02*
X208992Y254417D01*
X208270Y253935D01*
X207788Y253213D01*
X207718Y252862D01*
X209343D01*
Y254487D01*
D02*
G37*
G36*
X129393Y256366D02*
X128542Y256196D01*
X127821Y255714D01*
X127339Y254993D01*
X127170Y254142D01*
X127339Y253291D01*
X127821Y252569D01*
X128542Y252087D01*
X129393Y251918D01*
X130244Y252087D01*
X130966Y252569D01*
X131448Y253291D01*
X131617Y254142D01*
X131448Y254993D01*
X130966Y255714D01*
X130244Y256196D01*
X129393Y256366D01*
D02*
G37*
G36*
X227953Y255767D02*
X227102Y255598D01*
X226380Y255116D01*
X225898Y254394D01*
X225729Y253543D01*
X225898Y252692D01*
X226380Y251971D01*
X227102Y251489D01*
X227953Y251320D01*
X228804Y251489D01*
X229525Y251971D01*
X230007Y252692D01*
X230177Y253543D01*
X230007Y254394D01*
X229525Y255116D01*
X228804Y255598D01*
X227953Y255767D01*
D02*
G37*
G36*
X222835D02*
X221984Y255598D01*
X221262Y255116D01*
X220780Y254394D01*
X220611Y253543D01*
X220780Y252692D01*
X221262Y251971D01*
X221984Y251489D01*
X222835Y251320D01*
X223686Y251489D01*
X224407Y251971D01*
X224889Y252692D01*
X225059Y253543D01*
X224889Y254394D01*
X224407Y255116D01*
X223686Y255598D01*
X222835Y255767D01*
D02*
G37*
G36*
X211967Y251862D02*
X210343D01*
Y250238D01*
X210694Y250308D01*
X211415Y250790D01*
X211897Y251511D01*
X211967Y251862D01*
D02*
G37*
G36*
X209343D02*
X207718D01*
X207788Y251511D01*
X208270Y250790D01*
X208992Y250308D01*
X209343Y250238D01*
Y251862D01*
D02*
G37*
G36*
X170185Y248187D02*
Y246563D01*
X171809D01*
X171740Y246914D01*
X171257Y247636D01*
X170536Y248117D01*
X170185Y248187D01*
D02*
G37*
G36*
X169185D02*
X168834Y248117D01*
X168113Y247636D01*
X167631Y246914D01*
X167561Y246563D01*
X169185D01*
Y248187D01*
D02*
G37*
G36*
X228240Y250362D02*
X227389Y250192D01*
X226668Y249710D01*
X226186Y248989D01*
X226016Y248138D01*
X226186Y247287D01*
X226668Y246565D01*
X227389Y246083D01*
X228240Y245914D01*
X229091Y246083D01*
X229813Y246565D01*
X230295Y247287D01*
X230464Y248138D01*
X230295Y248989D01*
X229813Y249710D01*
X229091Y250192D01*
X228240Y250362D01*
D02*
G37*
G36*
X222855Y250087D02*
X222004Y249918D01*
X221283Y249436D01*
X220801Y248714D01*
X220632Y247863D01*
X220801Y247012D01*
X221283Y246291D01*
X222004Y245809D01*
X222855Y245639D01*
X223706Y245809D01*
X224428Y246291D01*
X224910Y247012D01*
X225079Y247863D01*
X224910Y248714D01*
X224428Y249436D01*
X223706Y249918D01*
X222855Y250087D01*
D02*
G37*
G36*
X171809Y245563D02*
X170185D01*
Y243939D01*
X170536Y244008D01*
X171257Y244491D01*
X171740Y245212D01*
X171809Y245563D01*
D02*
G37*
G36*
X169185D02*
X167561D01*
X167631Y245212D01*
X168113Y244491D01*
X168834Y244008D01*
X169185Y243939D01*
Y245563D01*
D02*
G37*
G36*
X200500Y244644D02*
Y243020D01*
X202124D01*
X202055Y243371D01*
X201572Y244092D01*
X200851Y244574D01*
X200500Y244644D01*
D02*
G37*
G36*
X199500D02*
X199149Y244574D01*
X198427Y244092D01*
X197945Y243371D01*
X197876Y243020D01*
X199500D01*
Y244644D01*
D02*
G37*
G36*
X154724Y246276D02*
X153873Y246107D01*
X153152Y245625D01*
X152670Y244903D01*
X152501Y244052D01*
X152670Y243201D01*
X153152Y242480D01*
X153873Y241998D01*
X154724Y241828D01*
X155575Y241998D01*
X156297Y242480D01*
X156779Y243201D01*
X156948Y244052D01*
X156779Y244903D01*
X156297Y245625D01*
X155575Y246107D01*
X154724Y246276D01*
D02*
G37*
G36*
X202124Y242020D02*
X200500D01*
Y240395D01*
X200851Y240465D01*
X201572Y240947D01*
X202055Y241669D01*
X202124Y242020D01*
D02*
G37*
G36*
X199500D02*
X197876D01*
X197945Y241669D01*
X198427Y240947D01*
X199149Y240465D01*
X199500Y240395D01*
Y242020D01*
D02*
G37*
G36*
X169685Y243562D02*
X168834Y243393D01*
X168113Y242911D01*
X167631Y242190D01*
X167461Y241339D01*
X167631Y240488D01*
X168113Y239766D01*
X168834Y239284D01*
X169685Y239115D01*
X170536Y239284D01*
X171257Y239766D01*
X171740Y240488D01*
X171909Y241339D01*
X171740Y242190D01*
X171257Y242911D01*
X170536Y243393D01*
X169685Y243562D01*
D02*
G37*
G36*
X147897Y241011D02*
X147046Y240842D01*
X146325Y240360D01*
X145843Y239638D01*
X145674Y238787D01*
X145843Y237936D01*
X146325Y237215D01*
X147046Y236733D01*
X147897Y236564D01*
X148748Y236733D01*
X149470Y237215D01*
X149952Y237936D01*
X150121Y238787D01*
X149952Y239638D01*
X149470Y240360D01*
X148748Y240842D01*
X147897Y241011D01*
D02*
G37*
G36*
X102279Y237083D02*
X98532D01*
Y233335D01*
X102279D01*
Y237083D01*
D02*
G37*
G36*
X97531D02*
X93783D01*
Y233335D01*
X97531D01*
Y237083D01*
D02*
G37*
G36*
X255512Y236082D02*
X254661Y235913D01*
X253939Y235431D01*
X253457Y234709D01*
X253288Y233858D01*
X253457Y233007D01*
X253939Y232286D01*
X254661Y231804D01*
X255512Y231634D01*
X256363Y231804D01*
X257084Y232286D01*
X257566Y233007D01*
X257736Y233858D01*
X257566Y234709D01*
X257084Y235431D01*
X256363Y235913D01*
X255512Y236082D01*
D02*
G37*
G36*
X102279Y232335D02*
X98532D01*
Y228587D01*
X102279D01*
Y232335D01*
D02*
G37*
G36*
X97531D02*
X93783D01*
Y228587D01*
X97531D01*
Y232335D01*
D02*
G37*
G36*
X132390Y225746D02*
Y224122D01*
X134014D01*
X133944Y224473D01*
X133462Y225195D01*
X132741Y225677D01*
X132390Y225746D01*
D02*
G37*
G36*
X131390D02*
X131039Y225677D01*
X130317Y225195D01*
X129835Y224473D01*
X129765Y224122D01*
X131390D01*
Y225746D01*
D02*
G37*
G36*
X222153Y224959D02*
Y223335D01*
X223778D01*
X223708Y223686D01*
X223226Y224407D01*
X222505Y224889D01*
X222153Y224959D01*
D02*
G37*
G36*
X221153D02*
X220802Y224889D01*
X220081Y224407D01*
X219599Y223686D01*
X219529Y223335D01*
X221153D01*
Y224959D01*
D02*
G37*
G36*
X198031Y224276D02*
Y222652D01*
X199655D01*
X199586Y223003D01*
X199104Y223724D01*
X198382Y224206D01*
X198031Y224276D01*
D02*
G37*
G36*
X197031D02*
X196680Y224206D01*
X195959Y223724D01*
X195476Y223003D01*
X195407Y222652D01*
X197031D01*
Y224276D01*
D02*
G37*
G36*
X192913D02*
Y222652D01*
X194537D01*
X194467Y223003D01*
X193985Y223724D01*
X193264Y224206D01*
X192913Y224276D01*
D02*
G37*
G36*
X191913D02*
X191562Y224206D01*
X190840Y223724D01*
X190358Y223003D01*
X190289Y222652D01*
X191913D01*
Y224276D01*
D02*
G37*
G36*
X134014Y223122D02*
X132390D01*
Y221498D01*
X132741Y221568D01*
X133462Y222050D01*
X133944Y222771D01*
X134014Y223122D01*
D02*
G37*
G36*
X131390D02*
X129765D01*
X129835Y222771D01*
X130317Y222050D01*
X131039Y221568D01*
X131390Y221498D01*
Y223122D01*
D02*
G37*
G36*
X223778Y222335D02*
X222153D01*
Y220710D01*
X222505Y220780D01*
X223226Y221262D01*
X223708Y221984D01*
X223778Y222335D01*
D02*
G37*
G36*
X221153D02*
X219529D01*
X219599Y221984D01*
X220081Y221262D01*
X220802Y220780D01*
X221153Y220710D01*
Y222335D01*
D02*
G37*
G36*
X150106Y222203D02*
Y220579D01*
X151731D01*
X151661Y220930D01*
X151179Y221651D01*
X150457Y222133D01*
X150106Y222203D01*
D02*
G37*
G36*
X149106D02*
X148755Y222133D01*
X148034Y221651D01*
X147552Y220930D01*
X147482Y220579D01*
X149106D01*
Y222203D01*
D02*
G37*
G36*
X199655Y221652D02*
X198031D01*
Y220028D01*
X198382Y220097D01*
X199104Y220579D01*
X199586Y221301D01*
X199655Y221652D01*
D02*
G37*
G36*
X197031D02*
X195407D01*
X195476Y221301D01*
X195959Y220579D01*
X196680Y220097D01*
X197031Y220028D01*
Y221652D01*
D02*
G37*
G36*
X194537D02*
X192913D01*
Y220028D01*
X193264Y220097D01*
X193985Y220579D01*
X194467Y221301D01*
X194537Y221652D01*
D02*
G37*
G36*
X191913D02*
X190289D01*
X190358Y221301D01*
X190840Y220579D01*
X191562Y220097D01*
X191913Y220028D01*
Y221652D01*
D02*
G37*
G36*
X151731Y219579D02*
X150106D01*
Y217954D01*
X150457Y218024D01*
X151179Y218506D01*
X151661Y219228D01*
X151731Y219579D01*
D02*
G37*
G36*
X149106D02*
X147482D01*
X147552Y219228D01*
X148034Y218506D01*
X148755Y218024D01*
X149106Y217954D01*
Y219579D01*
D02*
G37*
G36*
X135433Y222303D02*
X134582Y222133D01*
X133861Y221651D01*
X133379Y220930D01*
X133209Y220079D01*
X133379Y219228D01*
X133861Y218506D01*
X134582Y218024D01*
X135433Y217855D01*
X136284Y218024D01*
X137006Y218506D01*
X137488Y219228D01*
X137657Y220079D01*
X137488Y220930D01*
X137006Y221651D01*
X136284Y222133D01*
X135433Y222303D01*
D02*
G37*
G36*
X198319Y218871D02*
Y217246D01*
X199943D01*
X199873Y217597D01*
X199391Y218319D01*
X198670Y218801D01*
X198319Y218871D01*
D02*
G37*
G36*
X197318D02*
X196967Y218801D01*
X196246Y218319D01*
X195764Y217597D01*
X195694Y217246D01*
X197318D01*
Y218871D01*
D02*
G37*
G36*
X192934Y218596D02*
Y216972D01*
X194558D01*
X194488Y217323D01*
X194006Y218044D01*
X193285Y218526D01*
X192934Y218596D01*
D02*
G37*
G36*
X191934D02*
X191583Y218526D01*
X190861Y218044D01*
X190379Y217323D01*
X190309Y216972D01*
X191934D01*
Y218596D01*
D02*
G37*
G36*
X175303Y217085D02*
Y215461D01*
X176927D01*
X176858Y215812D01*
X176376Y216533D01*
X175654Y217015D01*
X175303Y217085D01*
D02*
G37*
G36*
X174303D02*
X173952Y217015D01*
X173231Y216533D01*
X172749Y215812D01*
X172679Y215461D01*
X174303D01*
Y217085D01*
D02*
G37*
G36*
X199943Y216246D02*
X198319D01*
Y214622D01*
X198670Y214692D01*
X199391Y215174D01*
X199873Y215895D01*
X199943Y216246D01*
D02*
G37*
G36*
X197318D02*
X195694D01*
X195764Y215895D01*
X196246Y215174D01*
X196967Y214692D01*
X197318Y214622D01*
Y216246D01*
D02*
G37*
G36*
X194558Y215972D02*
X192934D01*
Y214347D01*
X193285Y214417D01*
X194006Y214899D01*
X194488Y215621D01*
X194558Y215972D01*
D02*
G37*
G36*
X191934D02*
X190309D01*
X190379Y215621D01*
X190861Y214899D01*
X191583Y214417D01*
X191934Y214347D01*
Y215972D01*
D02*
G37*
G36*
X176927Y214461D02*
X175303D01*
Y212836D01*
X175654Y212906D01*
X176376Y213388D01*
X176858Y214110D01*
X176927Y214461D01*
D02*
G37*
G36*
X174303D02*
X172679D01*
X172749Y214110D01*
X173231Y213388D01*
X173952Y212906D01*
X174303Y212836D01*
Y214461D01*
D02*
G37*
G36*
X98032Y217119D02*
X96922Y216973D01*
X95889Y216545D01*
X95002Y215864D01*
X94321Y214977D01*
X93893Y213944D01*
X93747Y212835D01*
X93893Y211726D01*
X94321Y210692D01*
X95002Y209805D01*
X95889Y209124D01*
X96922Y208696D01*
X98032Y208550D01*
X99141Y208696D01*
X100174Y209124D01*
X101061Y209805D01*
X101742Y210692D01*
X102170Y211726D01*
X102316Y212835D01*
X102170Y213944D01*
X101742Y214977D01*
X101061Y215864D01*
X100174Y216545D01*
X99141Y216973D01*
X98032Y217119D01*
D02*
G37*
G36*
X214673Y209211D02*
Y207587D01*
X216298D01*
X216228Y207938D01*
X215746Y208659D01*
X215024Y209141D01*
X214673Y209211D01*
D02*
G37*
G36*
X213673D02*
X213322Y209141D01*
X212601Y208659D01*
X212119Y207938D01*
X212049Y207587D01*
X213673D01*
Y209211D01*
D02*
G37*
G36*
X148531Y207242D02*
Y205618D01*
X150156D01*
X150086Y205969D01*
X149604Y206691D01*
X148882Y207173D01*
X148531Y207242D01*
D02*
G37*
G36*
X147531D02*
X147180Y207173D01*
X146459Y206691D01*
X145977Y205969D01*
X145907Y205618D01*
X147531D01*
Y207242D01*
D02*
G37*
G36*
X216298Y206587D02*
X214673D01*
Y204962D01*
X215024Y205032D01*
X215746Y205514D01*
X216228Y206236D01*
X216298Y206587D01*
D02*
G37*
G36*
X213673D02*
X212049D01*
X212119Y206236D01*
X212601Y205514D01*
X213322Y205032D01*
X213673Y204962D01*
Y206587D01*
D02*
G37*
G36*
X197638Y209073D02*
X196787Y208904D01*
X196065Y208422D01*
X195583Y207701D01*
X195414Y206850D01*
X195583Y205999D01*
X196065Y205277D01*
X196787Y204795D01*
X197638Y204626D01*
X198489Y204795D01*
X199210Y205277D01*
X199692Y205999D01*
X199862Y206850D01*
X199692Y207701D01*
X199210Y208422D01*
X198489Y208904D01*
X197638Y209073D01*
D02*
G37*
G36*
X150156Y204618D02*
X148531D01*
Y202994D01*
X148882Y203064D01*
X149604Y203546D01*
X150086Y204267D01*
X150156Y204618D01*
D02*
G37*
G36*
X147531D02*
X145907D01*
X145977Y204267D01*
X146459Y203546D01*
X147180Y203064D01*
X147531Y202994D01*
Y204618D01*
D02*
G37*
G36*
X179921Y207342D02*
X179070Y207173D01*
X178349Y206691D01*
X177867Y205969D01*
X177697Y205118D01*
X177867Y204267D01*
X178349Y203546D01*
X179070Y203064D01*
X179921Y202894D01*
X180772Y203064D01*
X181494Y203546D01*
X181976Y204267D01*
X182145Y205118D01*
X181976Y205969D01*
X181494Y206691D01*
X180772Y207173D01*
X179921Y207342D01*
D02*
G37*
G36*
X226878Y198975D02*
Y197350D01*
X228502D01*
X228432Y197701D01*
X227950Y198423D01*
X227229Y198905D01*
X226878Y198975D01*
D02*
G37*
G36*
X225878D02*
X225527Y198905D01*
X224805Y198423D01*
X224323Y197701D01*
X224254Y197350D01*
X225878D01*
Y198975D01*
D02*
G37*
G36*
X228502Y196350D02*
X226878D01*
Y194726D01*
X227229Y194796D01*
X227950Y195278D01*
X228432Y195999D01*
X228502Y196350D01*
D02*
G37*
G36*
X225878D02*
X224254D01*
X224323Y195999D01*
X224805Y195278D01*
X225527Y194796D01*
X225878Y194726D01*
Y196350D01*
D02*
G37*
G36*
X90765Y190639D02*
X89914Y190470D01*
X89192Y189988D01*
X88710Y189267D01*
X88541Y188415D01*
X88710Y187564D01*
X89192Y186843D01*
X89914Y186361D01*
X90765Y186192D01*
X91616Y186361D01*
X92337Y186843D01*
X92819Y187564D01*
X92989Y188415D01*
X92819Y189267D01*
X92337Y189988D01*
X91616Y190470D01*
X90765Y190639D01*
D02*
G37*
G36*
X246277Y190245D02*
X245426Y190076D01*
X244704Y189594D01*
X244222Y188873D01*
X244053Y188022D01*
X244222Y187171D01*
X244704Y186449D01*
X245426Y185967D01*
X246277Y185798D01*
X247128Y185967D01*
X247849Y186449D01*
X248331Y187171D01*
X248500Y188022D01*
X248331Y188873D01*
X247849Y189594D01*
X247128Y190076D01*
X246277Y190245D01*
D02*
G37*
G36*
X194702Y189852D02*
X193851Y189682D01*
X193129Y189200D01*
X192647Y188479D01*
X192478Y187628D01*
X192647Y186777D01*
X193129Y186056D01*
X193851Y185573D01*
X194702Y185404D01*
X195553Y185573D01*
X196274Y186056D01*
X196756Y186777D01*
X196926Y187628D01*
X196756Y188479D01*
X196274Y189200D01*
X195553Y189682D01*
X194702Y189852D01*
D02*
G37*
G36*
X142340Y189458D02*
X141489Y189289D01*
X140767Y188807D01*
X140285Y188085D01*
X140116Y187234D01*
X140285Y186383D01*
X140767Y185662D01*
X141489Y185180D01*
X142340Y185011D01*
X143191Y185180D01*
X143912Y185662D01*
X144394Y186383D01*
X144563Y187234D01*
X144394Y188085D01*
X143912Y188807D01*
X143191Y189289D01*
X142340Y189458D01*
D02*
G37*
G36*
X82390Y185983D02*
Y184358D01*
X84014D01*
X83944Y184709D01*
X83462Y185431D01*
X82741Y185913D01*
X82390Y185983D01*
D02*
G37*
G36*
X81390D02*
X81039Y185913D01*
X80317Y185431D01*
X79835Y184709D01*
X79765Y184358D01*
X81390D01*
Y185983D01*
D02*
G37*
G36*
X237902Y185589D02*
Y183965D01*
X239526D01*
X239456Y184316D01*
X238974Y185037D01*
X238253Y185519D01*
X237902Y185589D01*
D02*
G37*
G36*
X236902D02*
X236551Y185519D01*
X235829Y185037D01*
X235347Y184316D01*
X235277Y183965D01*
X236902D01*
Y185589D01*
D02*
G37*
G36*
X186327Y185195D02*
Y183571D01*
X187951D01*
X187881Y183922D01*
X187399Y184643D01*
X186678Y185125D01*
X186327Y185195D01*
D02*
G37*
G36*
X185327D02*
X184976Y185125D01*
X184254Y184643D01*
X183772Y183922D01*
X183702Y183571D01*
X185327D01*
Y185195D01*
D02*
G37*
G36*
X133965Y184801D02*
Y183177D01*
X135589D01*
X135519Y183528D01*
X135037Y184250D01*
X134316Y184732D01*
X133965Y184801D01*
D02*
G37*
G36*
X132965D02*
X132614Y184732D01*
X131892Y184250D01*
X131410Y183528D01*
X131340Y183177D01*
X132965D01*
Y184801D01*
D02*
G37*
G36*
X84014Y183358D02*
X82390D01*
Y181734D01*
X82741Y181804D01*
X83462Y182286D01*
X83944Y183007D01*
X84014Y183358D01*
D02*
G37*
G36*
X81390D02*
X79765D01*
X79835Y183007D01*
X80317Y182286D01*
X81039Y181804D01*
X81390Y181734D01*
Y183358D01*
D02*
G37*
G36*
X239526Y182965D02*
X237902D01*
Y181340D01*
X238253Y181410D01*
X238974Y181892D01*
X239456Y182614D01*
X239526Y182965D01*
D02*
G37*
G36*
X236902D02*
X235277D01*
X235347Y182614D01*
X235829Y181892D01*
X236551Y181410D01*
X236902Y181340D01*
Y182965D01*
D02*
G37*
G36*
X187951Y182571D02*
X186327D01*
Y180947D01*
X186678Y181016D01*
X187399Y181498D01*
X187881Y182220D01*
X187951Y182571D01*
D02*
G37*
G36*
X185327D02*
X183702D01*
X183772Y182220D01*
X184254Y181498D01*
X184976Y181016D01*
X185327Y180947D01*
Y182571D01*
D02*
G37*
G36*
X135589Y182177D02*
X133965D01*
Y180553D01*
X134316Y180623D01*
X135037Y181105D01*
X135519Y181826D01*
X135589Y182177D01*
D02*
G37*
G36*
X132965D02*
X131340D01*
X131410Y181826D01*
X131892Y181105D01*
X132614Y180623D01*
X132965Y180553D01*
Y182177D01*
D02*
G37*
G36*
X87508Y162361D02*
Y160736D01*
X89132D01*
X89062Y161087D01*
X88580Y161809D01*
X87859Y162291D01*
X87508Y162361D01*
D02*
G37*
G36*
X86508D02*
X86157Y162291D01*
X85435Y161809D01*
X84953Y161087D01*
X84883Y160736D01*
X86508D01*
Y162361D01*
D02*
G37*
G36*
X243020Y161967D02*
Y160343D01*
X244644D01*
X244574Y160694D01*
X244092Y161415D01*
X243371Y161897D01*
X243020Y161967D01*
D02*
G37*
G36*
X242020D02*
X241669Y161897D01*
X240947Y161415D01*
X240465Y160694D01*
X240395Y160343D01*
X242020D01*
Y161967D01*
D02*
G37*
G36*
X191445Y161573D02*
Y159949D01*
X193069D01*
X192999Y160300D01*
X192517Y161021D01*
X191796Y161503D01*
X191445Y161573D01*
D02*
G37*
G36*
X190445D02*
X190094Y161503D01*
X189372Y161021D01*
X188890Y160300D01*
X188821Y159949D01*
X190445D01*
Y161573D01*
D02*
G37*
G36*
X139083Y161179D02*
Y159555D01*
X140707D01*
X140637Y159906D01*
X140155Y160628D01*
X139434Y161110D01*
X139083Y161179D01*
D02*
G37*
G36*
X138083D02*
X137732Y161110D01*
X137010Y160628D01*
X136528Y159906D01*
X136458Y159555D01*
X138083D01*
Y161179D01*
D02*
G37*
G36*
X115354Y162854D02*
X114503Y162685D01*
X113782Y162202D01*
X113300Y161481D01*
X113130Y160630D01*
X113300Y159779D01*
X113782Y159057D01*
X114503Y158575D01*
X115354Y158406D01*
X116205Y158575D01*
X116927Y159057D01*
X117409Y159779D01*
X117578Y160630D01*
X117409Y161481D01*
X116927Y162202D01*
X116205Y162685D01*
X115354Y162854D01*
D02*
G37*
G36*
X92913D02*
X92062Y162685D01*
X91341Y162202D01*
X90859Y161481D01*
X90690Y160630D01*
X90859Y159779D01*
X91341Y159057D01*
X92062Y158575D01*
X92913Y158406D01*
X93764Y158575D01*
X94486Y159057D01*
X94968Y159779D01*
X95137Y160630D01*
X94968Y161481D01*
X94486Y162202D01*
X93764Y162685D01*
X92913Y162854D01*
D02*
G37*
G36*
X89132Y159736D02*
X87508D01*
Y158112D01*
X87859Y158182D01*
X88580Y158664D01*
X89062Y159385D01*
X89132Y159736D01*
D02*
G37*
G36*
X86508D02*
X84883D01*
X84953Y159385D01*
X85435Y158664D01*
X86157Y158182D01*
X86508Y158112D01*
Y159736D01*
D02*
G37*
G36*
X248425Y162460D02*
X247574Y162291D01*
X246853Y161809D01*
X246371Y161087D01*
X246201Y160236D01*
X246371Y159385D01*
X246853Y158664D01*
X247574Y158182D01*
X248425Y158012D01*
X249276Y158182D01*
X249998Y158664D01*
X250480Y159385D01*
X250649Y160236D01*
X250480Y161087D01*
X249998Y161809D01*
X249276Y162291D01*
X248425Y162460D01*
D02*
G37*
G36*
X244644Y159343D02*
X243020D01*
Y157718D01*
X243371Y157788D01*
X244092Y158270D01*
X244574Y158992D01*
X244644Y159343D01*
D02*
G37*
G36*
X242020D02*
X240395D01*
X240465Y158992D01*
X240947Y158270D01*
X241669Y157788D01*
X242020Y157718D01*
Y159343D01*
D02*
G37*
G36*
X219291Y162066D02*
X218440Y161897D01*
X217719Y161415D01*
X217237Y160694D01*
X217068Y159843D01*
X217237Y158992D01*
X217719Y158270D01*
X218440Y157788D01*
X219291Y157619D01*
X220142Y157788D01*
X220864Y158270D01*
X221346Y158992D01*
X221515Y159843D01*
X221346Y160694D01*
X220864Y161415D01*
X220142Y161897D01*
X219291Y162066D01*
D02*
G37*
G36*
X196850D02*
X195999Y161897D01*
X195278Y161415D01*
X194796Y160694D01*
X194627Y159843D01*
X194796Y158992D01*
X195278Y158270D01*
X195999Y157788D01*
X196850Y157619D01*
X197701Y157788D01*
X198423Y158270D01*
X198905Y158992D01*
X199074Y159843D01*
X198905Y160694D01*
X198423Y161415D01*
X197701Y161897D01*
X196850Y162066D01*
D02*
G37*
G36*
X193069Y158949D02*
X191445D01*
Y157325D01*
X191796Y157394D01*
X192517Y157876D01*
X192999Y158598D01*
X193069Y158949D01*
D02*
G37*
G36*
X190445D02*
X188821D01*
X188890Y158598D01*
X189372Y157876D01*
X190094Y157394D01*
X190445Y157325D01*
Y158949D01*
D02*
G37*
G36*
X166929Y161673D02*
X166078Y161503D01*
X165357Y161021D01*
X164875Y160300D01*
X164705Y159449D01*
X164875Y158598D01*
X165357Y157876D01*
X166078Y157394D01*
X166929Y157225D01*
X167780Y157394D01*
X168502Y157876D01*
X168984Y158598D01*
X169153Y159449D01*
X168984Y160300D01*
X168502Y161021D01*
X167780Y161503D01*
X166929Y161673D01*
D02*
G37*
G36*
X144488D02*
X143637Y161503D01*
X142916Y161021D01*
X142434Y160300D01*
X142264Y159449D01*
X142434Y158598D01*
X142916Y157876D01*
X143637Y157394D01*
X144488Y157225D01*
X145339Y157394D01*
X146061Y157876D01*
X146543Y158598D01*
X146712Y159449D01*
X146543Y160300D01*
X146061Y161021D01*
X145339Y161503D01*
X144488Y161673D01*
D02*
G37*
G36*
X140707Y158555D02*
X139083D01*
Y156931D01*
X139434Y157001D01*
X140155Y157483D01*
X140637Y158204D01*
X140707Y158555D01*
D02*
G37*
G36*
X138083D02*
X136458D01*
X136528Y158204D01*
X137010Y157483D01*
X137732Y157001D01*
X138083Y156931D01*
Y158555D01*
D02*
G37*
G36*
X96957Y158030D02*
Y156405D01*
X98581D01*
X98511Y156757D01*
X98029Y157478D01*
X97308Y157960D01*
X96957Y158030D01*
D02*
G37*
G36*
X95957D02*
X95606Y157960D01*
X94884Y157478D01*
X94402Y156757D01*
X94332Y156405D01*
X95957D01*
Y158030D01*
D02*
G37*
G36*
X252468Y157636D02*
Y156012D01*
X254093D01*
X254023Y156363D01*
X253541Y157084D01*
X252819Y157566D01*
X252468Y157636D01*
D02*
G37*
G36*
X251468D02*
X251117Y157566D01*
X250396Y157084D01*
X249914Y156363D01*
X249844Y156012D01*
X251468D01*
Y157636D01*
D02*
G37*
G36*
X200894Y157243D02*
Y155618D01*
X202518D01*
X202448Y155969D01*
X201966Y156691D01*
X201245Y157173D01*
X200894Y157243D01*
D02*
G37*
G36*
X199894D02*
X199543Y157173D01*
X198821Y156691D01*
X198339Y155969D01*
X198269Y155618D01*
X199894D01*
Y157243D01*
D02*
G37*
G36*
X148531Y156849D02*
Y155224D01*
X150156D01*
X150086Y155575D01*
X149604Y156297D01*
X148882Y156779D01*
X148531Y156849D01*
D02*
G37*
G36*
X147531D02*
X147180Y156779D01*
X146459Y156297D01*
X145977Y155575D01*
X145907Y155224D01*
X147531D01*
Y156849D01*
D02*
G37*
G36*
X98581Y155405D02*
X96957D01*
Y153781D01*
X97308Y153851D01*
X98029Y154333D01*
X98511Y155054D01*
X98581Y155405D01*
D02*
G37*
G36*
X95957D02*
X94332D01*
X94402Y155054D01*
X94884Y154333D01*
X95606Y153851D01*
X95957Y153781D01*
Y155405D01*
D02*
G37*
G36*
X254093Y155012D02*
X252468D01*
Y153387D01*
X252819Y153457D01*
X253541Y153939D01*
X254023Y154661D01*
X254093Y155012D01*
D02*
G37*
G36*
X251468D02*
X249844D01*
X249914Y154661D01*
X250396Y153939D01*
X251117Y153457D01*
X251468Y153387D01*
Y155012D01*
D02*
G37*
G36*
X224516Y154880D02*
Y153256D01*
X226140D01*
X226070Y153607D01*
X225588Y154328D01*
X224867Y154811D01*
X224516Y154880D01*
D02*
G37*
G36*
X223516D02*
X223165Y154811D01*
X222443Y154328D01*
X221961Y153607D01*
X221891Y153256D01*
X223516D01*
Y154880D01*
D02*
G37*
G36*
X202518Y154618D02*
X200894D01*
Y152994D01*
X201245Y153064D01*
X201966Y153546D01*
X202448Y154267D01*
X202518Y154618D01*
D02*
G37*
G36*
X199894D02*
X198269D01*
X198339Y154267D01*
X198821Y153546D01*
X199543Y153064D01*
X199894Y152994D01*
Y154618D01*
D02*
G37*
G36*
X68467Y154556D02*
X68116Y154487D01*
X67395Y154005D01*
X66913Y153283D01*
X66843Y152932D01*
X68467D01*
Y154556D01*
D02*
G37*
G36*
X150156Y154224D02*
X148531D01*
Y152600D01*
X148882Y152670D01*
X149604Y153152D01*
X150086Y153873D01*
X150156Y154224D01*
D02*
G37*
G36*
X147531D02*
X145907D01*
X145977Y153873D01*
X146459Y153152D01*
X147180Y152670D01*
X147531Y152600D01*
Y154224D01*
D02*
G37*
G36*
X172335Y154093D02*
X171984Y154023D01*
X171262Y153541D01*
X170780Y152820D01*
X170710Y152469D01*
X172335D01*
Y154093D01*
D02*
G37*
G36*
X120042Y153978D02*
X119691Y153909D01*
X118970Y153427D01*
X118488Y152705D01*
X118418Y152354D01*
X120042D01*
Y153978D01*
D02*
G37*
G36*
X226140Y152256D02*
X224516D01*
Y150631D01*
X224867Y150701D01*
X225588Y151183D01*
X226070Y151905D01*
X226140Y152256D01*
D02*
G37*
G36*
X223516D02*
X221891D01*
X221961Y151905D01*
X222443Y151183D01*
X223165Y150701D01*
X223516Y150631D01*
Y152256D01*
D02*
G37*
G36*
X68467Y151932D02*
X66843D01*
X66913Y151581D01*
X67395Y150860D01*
X68116Y150378D01*
X68467Y150308D01*
Y151932D01*
D02*
G37*
G36*
X79527Y154586D02*
X78676Y154417D01*
X77955Y153935D01*
X77473Y153213D01*
X77304Y152362D01*
X77473Y151511D01*
X77955Y150790D01*
X78676Y150308D01*
X79527Y150138D01*
X80379Y150308D01*
X81100Y150790D01*
X81582Y151511D01*
X81751Y152362D01*
X81582Y153213D01*
X81100Y153935D01*
X80379Y154417D01*
X79527Y154586D01*
D02*
G37*
G36*
X172335Y151469D02*
X170710D01*
X170780Y151118D01*
X171262Y150396D01*
X171984Y149914D01*
X172335Y149844D01*
Y151469D01*
D02*
G37*
G36*
X235039Y154192D02*
X234188Y154023D01*
X233467Y153541D01*
X232985Y152820D01*
X232816Y151969D01*
X232985Y151118D01*
X233467Y150396D01*
X234188Y149914D01*
X235039Y149745D01*
X235890Y149914D01*
X236612Y150396D01*
X237094Y151118D01*
X237263Y151969D01*
X237094Y152820D01*
X236612Y153541D01*
X235890Y154023D01*
X235039Y154192D01*
D02*
G37*
G36*
X120042Y151354D02*
X118418D01*
X118488Y151003D01*
X118970Y150282D01*
X119691Y149800D01*
X120042Y149730D01*
Y151354D01*
D02*
G37*
G36*
X106398Y153996D02*
X105547Y153826D01*
X104825Y153344D01*
X104343Y152623D01*
X104174Y151772D01*
X104343Y150921D01*
X104825Y150199D01*
X105547Y149717D01*
X106398Y149548D01*
X107249Y149717D01*
X107970Y150199D01*
X108452Y150921D01*
X108622Y151772D01*
X108452Y152623D01*
X107970Y153344D01*
X107249Y153826D01*
X106398Y153996D01*
D02*
G37*
G36*
X69468Y154556D02*
Y152432D01*
Y150308D01*
X69819Y150378D01*
X70540Y150860D01*
X70886Y151377D01*
X70977Y150921D01*
X71459Y150199D01*
X72180Y149717D01*
X73032Y149548D01*
X73883Y149717D01*
X74604Y150199D01*
X75086Y150921D01*
X75255Y151772D01*
X75086Y152623D01*
X74604Y153344D01*
X73883Y153826D01*
X73032Y153996D01*
X72180Y153826D01*
X71459Y153344D01*
X71113Y152826D01*
X71022Y153283D01*
X70540Y154005D01*
X69819Y154487D01*
X69468Y154556D01*
D02*
G37*
G36*
X183465Y153799D02*
X182614Y153629D01*
X181892Y153147D01*
X181410Y152426D01*
X181241Y151575D01*
X181410Y150724D01*
X181892Y150002D01*
X182614Y149520D01*
X183465Y149351D01*
X184316Y149520D01*
X185037Y150002D01*
X185519Y150724D01*
X185688Y151575D01*
X185519Y152426D01*
X185037Y153147D01*
X184316Y153629D01*
X183465Y153799D01*
D02*
G37*
G36*
X131102Y153405D02*
X130251Y153236D01*
X129530Y152754D01*
X129048Y152032D01*
X128878Y151181D01*
X129048Y150330D01*
X129530Y149609D01*
X130251Y149127D01*
X131102Y148957D01*
X131953Y149127D01*
X132675Y149609D01*
X133157Y150330D01*
X133326Y151181D01*
X133157Y152032D01*
X132675Y152754D01*
X131953Y153236D01*
X131102Y153405D01*
D02*
G37*
G36*
X228346Y153405D02*
X227495Y153236D01*
X226774Y152754D01*
X226292Y152032D01*
X226123Y151181D01*
X226292Y150330D01*
X226774Y149609D01*
X227495Y149127D01*
X228346Y148957D01*
X229198Y149127D01*
X229919Y149609D01*
X230401Y150330D01*
X230570Y151181D01*
X230401Y152032D01*
X229919Y152754D01*
X229198Y153236D01*
X228346Y153405D01*
D02*
G37*
G36*
X173335Y154093D02*
Y151969D01*
Y149844D01*
X173686Y149914D01*
X174407Y150396D01*
X174856Y151068D01*
X175021Y150239D01*
X175503Y149518D01*
X176225Y149036D01*
X177076Y148866D01*
X177927Y149036D01*
X178648Y149518D01*
X179130Y150239D01*
X179299Y151090D01*
X179130Y151941D01*
X178648Y152663D01*
X177927Y153145D01*
X177076Y153314D01*
X176225Y153145D01*
X175503Y152663D01*
X175054Y151991D01*
X174889Y152820D01*
X174407Y153541D01*
X173686Y154023D01*
X173335Y154093D01*
D02*
G37*
G36*
X261614Y153208D02*
X260763Y153039D01*
X260042Y152557D01*
X259560Y151835D01*
X259390Y150984D01*
X259560Y150133D01*
X260042Y149412D01*
X260763Y148930D01*
X261614Y148760D01*
X262465Y148930D01*
X263187Y149412D01*
X263669Y150133D01*
X263838Y150984D01*
X263669Y151835D01*
X263187Y152557D01*
X262465Y153039D01*
X261614Y153208D01*
D02*
G37*
G36*
X210335Y153011D02*
X209484Y152842D01*
X208762Y152360D01*
X208280Y151638D01*
X208111Y150787D01*
X208280Y149936D01*
X208762Y149215D01*
X209484Y148733D01*
X210335Y148564D01*
X211186Y148733D01*
X211907Y149215D01*
X212389Y149936D01*
X212559Y150787D01*
X212389Y151638D01*
X211907Y152360D01*
X211186Y152842D01*
X210335Y153011D01*
D02*
G37*
G36*
X158079Y152920D02*
X157228Y152751D01*
X156506Y152269D01*
X156024Y151547D01*
X155855Y150696D01*
X156024Y149845D01*
X156506Y149124D01*
X157228Y148642D01*
X158079Y148472D01*
X158930Y148642D01*
X159651Y149124D01*
X160133Y149845D01*
X160302Y150696D01*
X160133Y151547D01*
X159651Y152269D01*
X158930Y152751D01*
X158079Y152920D01*
D02*
G37*
G36*
X121042Y153978D02*
Y151854D01*
Y149730D01*
X121393Y149800D01*
X122115Y150282D01*
X122389Y150692D01*
X122558Y149845D01*
X123040Y149124D01*
X123761Y148642D01*
X124612Y148472D01*
X125463Y148642D01*
X126185Y149124D01*
X126667Y149845D01*
X126836Y150696D01*
X126667Y151547D01*
X126185Y152269D01*
X125463Y152751D01*
X124612Y152920D01*
X123761Y152751D01*
X123040Y152269D01*
X122765Y151858D01*
X122597Y152705D01*
X122115Y153427D01*
X121393Y153909D01*
X121042Y153978D01*
D02*
G37*
G36*
X72047Y139625D02*
X71196Y139456D01*
X70475Y138974D01*
X69993Y138253D01*
X69823Y137402D01*
X69993Y136550D01*
X70475Y135829D01*
X71196Y135347D01*
X72047Y135178D01*
X72898Y135347D01*
X73620Y135829D01*
X74102Y136550D01*
X74271Y137402D01*
X74102Y138253D01*
X73620Y138974D01*
X72898Y139456D01*
X72047Y139625D01*
D02*
G37*
G36*
X227559Y139232D02*
X226708Y139062D01*
X225987Y138580D01*
X225504Y137859D01*
X225335Y137008D01*
X225504Y136157D01*
X225987Y135435D01*
X226708Y134953D01*
X227559Y134784D01*
X228410Y134953D01*
X229132Y135435D01*
X229614Y136157D01*
X229783Y137008D01*
X229614Y137859D01*
X229132Y138580D01*
X228410Y139062D01*
X227559Y139232D01*
D02*
G37*
G36*
X106693D02*
X105842Y139062D01*
X105120Y138580D01*
X104638Y137859D01*
X104469Y137008D01*
X104638Y136157D01*
X105120Y135435D01*
X105842Y134953D01*
X106693Y134784D01*
X107544Y134953D01*
X108265Y135435D01*
X108747Y136157D01*
X108917Y137008D01*
X108747Y137859D01*
X108265Y138580D01*
X107544Y139062D01*
X106693Y139232D01*
D02*
G37*
G36*
X175984Y138838D02*
X175133Y138669D01*
X174412Y138187D01*
X173930Y137465D01*
X173760Y136614D01*
X173930Y135763D01*
X174412Y135042D01*
X175133Y134560D01*
X175984Y134390D01*
X176835Y134560D01*
X177557Y135042D01*
X178039Y135763D01*
X178208Y136614D01*
X178039Y137465D01*
X177557Y138187D01*
X176835Y138669D01*
X175984Y138838D01*
D02*
G37*
G36*
X262205Y138641D02*
X261354Y138472D01*
X260632Y137990D01*
X260150Y137268D01*
X259981Y136417D01*
X260150Y135566D01*
X260632Y134845D01*
X261354Y134363D01*
X262205Y134194D01*
X263056Y134363D01*
X263777Y134845D01*
X264259Y135566D01*
X264428Y136417D01*
X264259Y137268D01*
X263777Y137990D01*
X263056Y138472D01*
X262205Y138641D01*
D02*
G37*
G36*
X124016Y138444D02*
X123165Y138275D01*
X122443Y137793D01*
X121961Y137072D01*
X121792Y136221D01*
X121961Y135369D01*
X122443Y134648D01*
X123165Y134166D01*
X124016Y133997D01*
X124867Y134166D01*
X125588Y134648D01*
X126070Y135369D01*
X126240Y136221D01*
X126070Y137072D01*
X125588Y137793D01*
X124867Y138275D01*
X124016Y138444D01*
D02*
G37*
G36*
X158563Y138051D02*
X157712Y137881D01*
X156991Y137399D01*
X156508Y136678D01*
X156339Y135827D01*
X156508Y134976D01*
X156991Y134254D01*
X157712Y133772D01*
X158563Y133603D01*
X159414Y133772D01*
X160135Y134254D01*
X160617Y134976D01*
X160787Y135827D01*
X160617Y136678D01*
X160135Y137399D01*
X159414Y137881D01*
X158563Y138051D01*
D02*
G37*
G36*
X210827Y137952D02*
X209976Y137783D01*
X209254Y137301D01*
X208772Y136579D01*
X208603Y135728D01*
X208772Y134877D01*
X209254Y134156D01*
X209976Y133674D01*
X210827Y133504D01*
X211678Y133674D01*
X212399Y134156D01*
X212881Y134877D01*
X213051Y135728D01*
X212881Y136579D01*
X212399Y137301D01*
X211678Y137783D01*
X210827Y137952D01*
D02*
G37*
G36*
X88295Y134408D02*
Y132783D01*
X89920D01*
X89850Y133134D01*
X89368Y133856D01*
X88646Y134338D01*
X88295Y134408D01*
D02*
G37*
G36*
X87295D02*
X86944Y134338D01*
X86223Y133856D01*
X85741Y133134D01*
X85671Y132783D01*
X87295D01*
Y134408D01*
D02*
G37*
G36*
X243807Y134014D02*
Y132390D01*
X245431D01*
X245362Y132741D01*
X244880Y133462D01*
X244158Y133944D01*
X243807Y134014D01*
D02*
G37*
G36*
X242807D02*
X242456Y133944D01*
X241735Y133462D01*
X241252Y132741D01*
X241183Y132390D01*
X242807D01*
Y134014D01*
D02*
G37*
G36*
X192232Y133620D02*
Y131996D01*
X193857D01*
X193787Y132347D01*
X193305Y133069D01*
X192583Y133551D01*
X192232Y133620D01*
D02*
G37*
G36*
X191232D02*
X190881Y133551D01*
X190160Y133069D01*
X189678Y132347D01*
X189608Y131996D01*
X191232D01*
Y133620D01*
D02*
G37*
G36*
X139870Y133227D02*
Y131602D01*
X141494D01*
X141425Y131953D01*
X140943Y132675D01*
X140221Y133157D01*
X139870Y133227D01*
D02*
G37*
G36*
X138870D02*
X138519Y133157D01*
X137798Y132675D01*
X137315Y131953D01*
X137246Y131602D01*
X138870D01*
Y133227D01*
D02*
G37*
G36*
X89920Y131783D02*
X88295D01*
Y130159D01*
X88646Y130229D01*
X89368Y130711D01*
X89850Y131432D01*
X89920Y131783D01*
D02*
G37*
G36*
X87295D02*
X85671D01*
X85741Y131432D01*
X86223Y130711D01*
X86944Y130229D01*
X87295Y130159D01*
Y131783D01*
D02*
G37*
G36*
X245431Y131390D02*
X243807D01*
Y129765D01*
X244158Y129835D01*
X244880Y130317D01*
X245362Y131039D01*
X245431Y131390D01*
D02*
G37*
G36*
X242807D02*
X241183D01*
X241252Y131039D01*
X241735Y130317D01*
X242456Y129835D01*
X242807Y129765D01*
Y131390D01*
D02*
G37*
G36*
X193857Y130996D02*
X192232D01*
Y129372D01*
X192583Y129441D01*
X193305Y129924D01*
X193787Y130645D01*
X193857Y130996D01*
D02*
G37*
G36*
X191232D02*
X189608D01*
X189678Y130645D01*
X190160Y129924D01*
X190881Y129441D01*
X191232Y129372D01*
Y130996D01*
D02*
G37*
G36*
X141494Y130602D02*
X139870D01*
Y128978D01*
X140221Y129048D01*
X140943Y129530D01*
X141425Y130251D01*
X141494Y130602D01*
D02*
G37*
G36*
X138870D02*
X137246D01*
X137315Y130251D01*
X137798Y129530D01*
X138519Y129048D01*
X138870Y128978D01*
Y130602D01*
D02*
G37*
G36*
X79870Y121800D02*
Y118081D01*
X83589D01*
X83509Y118690D01*
X83081Y119723D01*
X82400Y120610D01*
X81512Y121291D01*
X80479Y121719D01*
X79870Y121800D01*
D02*
G37*
G36*
X78870D02*
X78261Y121719D01*
X77228Y121291D01*
X76340Y120610D01*
X75659Y119723D01*
X75231Y118690D01*
X75151Y118081D01*
X78870D01*
Y121800D01*
D02*
G37*
G36*
X235382Y121406D02*
Y117687D01*
X239101D01*
X239021Y118296D01*
X238593Y119329D01*
X237912Y120217D01*
X237024Y120898D01*
X235991Y121326D01*
X235382Y121406D01*
D02*
G37*
G36*
X234382D02*
X233773Y121326D01*
X232739Y120898D01*
X231852Y120217D01*
X231171Y119329D01*
X230743Y118296D01*
X230663Y117687D01*
X234382D01*
Y121406D01*
D02*
G37*
G36*
X183807Y121012D02*
Y117293D01*
X187526D01*
X187446Y117902D01*
X187018Y118936D01*
X186337Y119823D01*
X185449Y120504D01*
X184416Y120932D01*
X183807Y121012D01*
D02*
G37*
G36*
X182807D02*
X182198Y120932D01*
X181165Y120504D01*
X180277Y119823D01*
X179596Y118936D01*
X179168Y117902D01*
X179088Y117293D01*
X182807D01*
Y121012D01*
D02*
G37*
G36*
X131445Y120618D02*
Y116900D01*
X135164D01*
X135084Y117508D01*
X134655Y118542D01*
X133975Y119429D01*
X133087Y120110D01*
X132054Y120538D01*
X131445Y120618D01*
D02*
G37*
G36*
X130445D02*
X129836Y120538D01*
X128803Y120110D01*
X127915Y119429D01*
X127234Y118542D01*
X126806Y117508D01*
X126726Y116900D01*
X130445D01*
Y120618D01*
D02*
G37*
G36*
X83589Y117081D02*
X79870D01*
Y113362D01*
X80479Y113442D01*
X81512Y113870D01*
X82400Y114551D01*
X83081Y115438D01*
X83509Y116472D01*
X83589Y117081D01*
D02*
G37*
G36*
X78870D02*
X75151D01*
X75231Y116472D01*
X75659Y115438D01*
X76340Y114551D01*
X77228Y113870D01*
X78261Y113442D01*
X78870Y113362D01*
Y117081D01*
D02*
G37*
G36*
X99370Y121865D02*
X98261Y121719D01*
X97228Y121291D01*
X96340Y120610D01*
X95659Y119723D01*
X95231Y118690D01*
X95085Y117581D01*
X95231Y116472D01*
X95659Y115438D01*
X96340Y114551D01*
X97228Y113870D01*
X98261Y113442D01*
X99370Y113296D01*
X100479Y113442D01*
X101512Y113870D01*
X102400Y114551D01*
X103081Y115438D01*
X103509Y116472D01*
X103655Y117581D01*
X103509Y118690D01*
X103081Y119723D01*
X102400Y120610D01*
X101512Y121291D01*
X100479Y121719D01*
X99370Y121865D01*
D02*
G37*
G36*
X239101Y116687D02*
X235382D01*
Y112968D01*
X235991Y113048D01*
X237024Y113476D01*
X237912Y114157D01*
X238593Y115045D01*
X239021Y116078D01*
X239101Y116687D01*
D02*
G37*
G36*
X234382D02*
X230663D01*
X230743Y116078D01*
X231171Y115045D01*
X231852Y114157D01*
X232739Y113476D01*
X233773Y113048D01*
X234382Y112968D01*
Y116687D01*
D02*
G37*
G36*
X254882Y121472D02*
X253773Y121326D01*
X252740Y120898D01*
X251852Y120217D01*
X251171Y119329D01*
X250743Y118296D01*
X250597Y117187D01*
X250743Y116078D01*
X251171Y115045D01*
X251852Y114157D01*
X252740Y113476D01*
X253773Y113048D01*
X254882Y112902D01*
X255991Y113048D01*
X257024Y113476D01*
X257912Y114157D01*
X258593Y115045D01*
X259021Y116078D01*
X259167Y117187D01*
X259021Y118296D01*
X258593Y119329D01*
X257912Y120217D01*
X257024Y120898D01*
X255991Y121326D01*
X254882Y121472D01*
D02*
G37*
G36*
X187526Y116293D02*
X183807D01*
Y112574D01*
X184416Y112655D01*
X185449Y113083D01*
X186337Y113764D01*
X187018Y114651D01*
X187446Y115684D01*
X187526Y116293D01*
D02*
G37*
G36*
X182807D02*
X179088D01*
X179168Y115684D01*
X179596Y114651D01*
X180277Y113764D01*
X181165Y113083D01*
X182198Y112655D01*
X182807Y112574D01*
Y116293D01*
D02*
G37*
G36*
X203307Y121078D02*
X202198Y120932D01*
X201165Y120504D01*
X200277Y119823D01*
X199597Y118936D01*
X199168Y117902D01*
X199022Y116793D01*
X199168Y115684D01*
X199597Y114651D01*
X200277Y113764D01*
X201165Y113083D01*
X202198Y112655D01*
X203307Y112509D01*
X204416Y112655D01*
X205449Y113083D01*
X206337Y113764D01*
X207018Y114651D01*
X207446Y115684D01*
X207592Y116793D01*
X207446Y117902D01*
X207018Y118936D01*
X206337Y119823D01*
X205449Y120504D01*
X204416Y120932D01*
X203307Y121078D01*
D02*
G37*
G36*
X135164Y115900D02*
X131445D01*
Y112181D01*
X132054Y112261D01*
X133087Y112689D01*
X133975Y113370D01*
X134655Y114257D01*
X135084Y115291D01*
X135164Y115900D01*
D02*
G37*
G36*
X130445D02*
X126726D01*
X126806Y115291D01*
X127234Y114257D01*
X127915Y113370D01*
X128803Y112689D01*
X129836Y112261D01*
X130445Y112181D01*
Y115900D01*
D02*
G37*
G36*
X150945Y120684D02*
X149836Y120538D01*
X148802Y120110D01*
X147915Y119429D01*
X147234Y118542D01*
X146806Y117508D01*
X146660Y116400D01*
X146806Y115291D01*
X147234Y114257D01*
X147915Y113370D01*
X148802Y112689D01*
X149836Y112261D01*
X150945Y112115D01*
X152054Y112261D01*
X153087Y112689D01*
X153975Y113370D01*
X154656Y114257D01*
X155084Y115291D01*
X155230Y116400D01*
X155084Y117508D01*
X154656Y118542D01*
X153975Y119429D01*
X153087Y120110D01*
X152054Y120538D01*
X150945Y120684D01*
D02*
G37*
%LPD*%
D68*
X224803Y272835D02*
D03*
X264173Y294173D02*
D03*
D69*
X234882Y117187D02*
D03*
X79370Y117581D02*
D03*
X130945Y116400D02*
D03*
X183307Y116793D02*
D03*
D70*
X98032Y232835D02*
D03*
D71*
X92331Y355709D02*
D03*
D74*
X165748Y294882D02*
D03*
X158661Y286614D02*
D03*
X169685Y246063D02*
D03*
X266535Y267323D02*
D03*
X68967Y152432D02*
D03*
X120542Y151854D02*
D03*
X224016Y152756D02*
D03*
X172835Y151969D02*
D03*
X72441Y320866D02*
D03*
X178347Y325984D02*
D03*
X183731Y326259D02*
D03*
X178326Y331664D02*
D03*
X183444D02*
D03*
X131890Y223622D02*
D03*
X148031Y205118D02*
D03*
X192434Y216472D02*
D03*
X197531Y222152D02*
D03*
X197819Y216746D02*
D03*
X192413Y222152D02*
D03*
X174803Y214961D02*
D03*
X237402Y183465D02*
D03*
X200394Y155118D02*
D03*
X191732Y131496D02*
D03*
X190945Y159449D02*
D03*
X185827Y183071D02*
D03*
X148031Y154724D02*
D03*
X139370Y131102D02*
D03*
X138583Y159055D02*
D03*
X133465Y182677D02*
D03*
X96457Y155905D02*
D03*
X87795Y132283D02*
D03*
X87008Y160236D02*
D03*
X81890Y183858D02*
D03*
X242520Y159843D02*
D03*
X243307Y131890D02*
D03*
X251969Y155512D02*
D03*
X214173Y207087D02*
D03*
X149606Y220079D02*
D03*
X209842Y252362D02*
D03*
X200000Y242520D02*
D03*
X226378Y196850D02*
D03*
X221654Y222835D02*
D03*
X115748Y297441D02*
D03*
X147897Y304535D02*
D03*
X172701Y256504D02*
D03*
X193960Y270677D02*
D03*
X158921Y268315D02*
D03*
X144354Y261622D02*
D03*
X104590Y262213D02*
D03*
X132543Y258079D02*
D03*
D75*
X120732Y271071D02*
D03*
Y275402D02*
D03*
Y279732D02*
D03*
Y284063D02*
D03*
Y288394D02*
D03*
X125063Y271071D02*
D03*
Y275402D02*
D03*
Y279732D02*
D03*
Y284063D02*
D03*
Y288394D02*
D03*
X129393Y271071D02*
D03*
Y275402D02*
D03*
Y279732D02*
D03*
Y284063D02*
D03*
Y288394D02*
D03*
X133724Y271071D02*
D03*
Y275402D02*
D03*
Y279732D02*
D03*
Y284063D02*
D03*
Y288394D02*
D03*
X138055Y271071D02*
D03*
Y275402D02*
D03*
Y279732D02*
D03*
Y284063D02*
D03*
Y288394D02*
D03*
M02*
