G04*
G04 #@! TF.GenerationSoftware,Altium Limited,Altium Designer,19.1.8 (144)*
G04*
G04 Layer_Physical_Order=4*
G04 Layer_Color=16711680*
%FSLAX25Y25*%
%MOIN*%
G70*
G01*
G75*
%ADD14C,0.01000*%
%ADD22R,0.01968X0.03543*%
%ADD23R,0.03543X0.01968*%
%ADD30R,0.02756X0.05118*%
%ADD74C,0.04724*%
%ADD75C,0.08000*%
%ADD76R,0.05906X0.05906*%
%ADD77C,0.05906*%
%ADD78C,0.06496*%
%ADD79R,0.06496X0.06496*%
%ADD80C,0.23622*%
%ADD81C,0.02362*%
%ADD82C,0.01968*%
%ADD83C,0.05000*%
D14*
X155575Y271071D02*
X159055Y267590D01*
Y267323D02*
Y267590D01*
X155575Y271071D02*
Y272252D01*
X153024Y267322D02*
X154724D01*
X148094Y272252D02*
X153024Y267322D01*
X148094Y281586D02*
Y282488D01*
Y281586D02*
X148972Y280708D01*
X158519Y286614D02*
X158661D01*
X155575Y283669D02*
X158519Y286614D01*
X155575Y282488D02*
Y283669D01*
X98819Y298209D02*
Y305906D01*
X148972Y280708D02*
X151968Y283704D01*
X133465Y261520D02*
X153646Y241339D01*
X145654Y246720D02*
X155760Y236614D01*
X133465Y261520D02*
Y261811D01*
X153646Y241339D02*
X169685D01*
X143044Y246720D02*
X145654D01*
X132677Y257087D02*
X143044Y246720D01*
X146175Y287228D02*
X146338D01*
X157929Y298819D01*
X183858D01*
X155760Y236614D02*
X171260D01*
X197441Y326378D02*
Y334646D01*
Y325590D02*
Y326378D01*
Y325197D02*
Y325590D01*
X98819Y298209D02*
X105091Y291937D01*
X104527Y305906D02*
X111417D01*
X102543Y315173D02*
X111417Y306299D01*
X195669Y236221D02*
X256299D01*
X194882Y237008D02*
X195669Y236221D01*
X171260Y236614D02*
X176378Y241732D01*
X146850Y330709D02*
X147331D01*
X162331Y345709D01*
X193110Y321260D02*
X197441Y325590D01*
X190945Y321260D02*
X193110D01*
X187160Y339021D02*
X191535Y334646D01*
X187160Y339021D02*
Y347176D01*
X192331Y355709D02*
X196783Y351256D01*
Y339393D02*
Y351256D01*
X195169Y337778D02*
X196783Y339393D01*
X195169Y329618D02*
Y337778D01*
X191535Y325984D02*
X195169Y329618D01*
X191535Y325197D02*
Y325984D01*
X183081Y351256D02*
X187160Y347176D01*
X183081Y351256D02*
Y354959D01*
X182331Y355709D02*
X183081Y354959D01*
X187878Y360161D02*
X192331Y355709D01*
X100486Y360161D02*
X187878D01*
X83858Y307480D02*
X96784Y320406D01*
Y356459D01*
X100486Y360161D01*
X129393Y254142D02*
X135433Y248102D01*
Y220079D02*
Y248102D01*
X151968Y283704D02*
Y285039D01*
X262205Y136417D02*
Y141142D01*
X262205Y141142D01*
X261614Y147638D02*
Y150984D01*
Y147638D02*
X262205Y147047D01*
X228346Y147548D02*
Y151181D01*
X210827Y135728D02*
Y140551D01*
X210630Y140748D02*
X210827Y140551D01*
Y135728D02*
Y136811D01*
X210630Y137008D02*
X210827Y136811D01*
X210335Y146949D02*
X210630Y146653D01*
X210335Y146949D02*
Y150787D01*
X177076Y147459D02*
Y151090D01*
X176287Y146670D02*
X177076Y147459D01*
X158563Y135827D02*
Y140256D01*
X158661Y140354D01*
X158079Y146843D02*
X158661Y146260D01*
X158079Y146843D02*
Y150696D01*
X124612Y146952D02*
Y150696D01*
Y146952D02*
X124803Y146761D01*
X73032Y148139D02*
Y151772D01*
X72835Y147942D02*
X73032Y148139D01*
X106398Y147736D02*
Y151772D01*
Y147736D02*
X106693Y147441D01*
X106693Y137008D02*
Y141535D01*
X106693Y141535D01*
X193701Y162130D02*
X194563D01*
X180623D02*
X193701D01*
Y165354D01*
X197638Y169291D01*
Y206850D01*
X166929Y159817D02*
X168135Y161024D01*
X179517D01*
X166929Y159449D02*
Y159817D01*
X219291Y159843D02*
X229517D01*
X248425Y160236D02*
X266929D01*
X229517Y159843D02*
X232198Y162524D01*
X246138D01*
X248425Y160236D01*
X196850Y159843D02*
X219291D01*
X179517Y161024D02*
X180623Y162130D01*
X194563D02*
X196850Y159843D01*
X142201Y161736D02*
X144488Y159449D01*
X128261Y161736D02*
X142201D01*
X127155Y160630D02*
X128261Y161736D01*
X115354Y160630D02*
X127155D01*
X144488Y159449D02*
X166929D01*
X92913Y160630D02*
X115354D01*
X72047Y137402D02*
Y141376D01*
X124016Y136221D02*
Y140195D01*
X227559Y137008D02*
Y140982D01*
X175984Y136614D02*
Y140589D01*
X175808Y140765D02*
X175984Y140589D01*
X175808Y146670D02*
X176287D01*
X117323Y313779D02*
Y350716D01*
X102543Y315173D02*
Y345496D01*
X107087Y318898D02*
Y350953D01*
X122047Y314567D02*
Y345425D01*
X111417Y305906D02*
Y306299D01*
X102331Y345709D02*
X102543Y345496D01*
X146850Y326772D02*
X151181D01*
X170118Y345709D01*
X164567Y220472D02*
Y220472D01*
Y220472D02*
X179921Y205118D01*
X135433Y220079D02*
X139173D01*
X145079D02*
X149606D01*
X183858Y298819D02*
X222331Y337291D01*
X212331Y332410D02*
Y345709D01*
X188583Y308661D02*
X212331Y332410D01*
X222331Y337291D02*
Y345709D01*
X132331Y318457D02*
X132423Y318364D01*
X132331Y318457D02*
Y345709D01*
X126772Y315354D02*
X126784Y315366D01*
X121653Y300984D02*
X125197D01*
X115650Y297539D02*
X115748Y297441D01*
X126784Y315366D02*
Y351256D01*
X146783Y338910D02*
Y350161D01*
X142913Y335039D02*
X146783Y338910D01*
X142913Y315329D02*
Y335039D01*
Y315329D02*
X145276Y312967D01*
Y312598D02*
Y312967D01*
X146783Y350161D02*
X152331Y355709D01*
X141732Y308661D02*
X188583D01*
X137402Y304331D02*
X141732Y308661D01*
X140157Y343535D02*
X142331Y345709D01*
X140157Y312992D02*
Y343535D01*
X136614Y315748D02*
X136784Y315917D01*
Y350161D01*
X142331Y355709D01*
X107087Y318898D02*
X115748Y310236D01*
X122047Y314567D02*
X123622Y312992D01*
X122331Y355709D02*
X126784Y351256D01*
X122047Y345425D02*
X122331Y345709D01*
X112331Y355709D02*
X117323Y350716D01*
Y313779D02*
X120472Y310630D01*
X102331Y355709D02*
X107087Y350953D01*
X118110Y304331D02*
X137402D01*
X121457Y300787D02*
X121653Y300984D01*
X115551Y300787D02*
X115650Y300689D01*
Y297539D02*
Y300689D01*
X170118Y345709D02*
X172331D01*
X147897Y304535D02*
X148158Y304275D01*
X142582Y304167D02*
Y304535D01*
X267096Y334646D02*
X267323D01*
X257878Y343864D02*
X267096Y334646D01*
X257878Y343864D02*
Y346459D01*
X253722Y350614D02*
X257878Y346459D01*
X251128Y350614D02*
X253722D01*
X246783Y354959D02*
X251128Y350614D01*
X243081Y354959D02*
X246783D01*
X242331Y355709D02*
X243081Y354959D01*
X252839Y341256D02*
Y345201D01*
X252331Y345709D02*
X252839Y345201D01*
Y341256D02*
X257480Y336614D01*
X148158Y300338D02*
Y304275D01*
Y300338D02*
X148685Y299811D01*
X142082Y303667D02*
X142582Y304167D01*
X142082Y300689D02*
Y303667D01*
X141204Y299811D02*
X142082Y300689D01*
D22*
X104527Y305906D02*
D03*
X98622D02*
D03*
X191535Y334646D02*
D03*
X197441D02*
D03*
X191535Y326378D02*
D03*
X197441D02*
D03*
X145079Y220079D02*
D03*
X139173D02*
D03*
X121457Y300787D02*
D03*
X115551D02*
D03*
D23*
X123446Y146277D02*
D03*
Y140371D02*
D03*
X262205Y147047D02*
D03*
Y141142D02*
D03*
X227383Y147064D02*
D03*
Y141158D02*
D03*
X210630Y146653D02*
D03*
Y140748D02*
D03*
X175808Y146670D02*
D03*
Y140765D02*
D03*
X158268Y146260D02*
D03*
Y140354D02*
D03*
X71871Y147458D02*
D03*
Y141552D02*
D03*
X106693Y147441D02*
D03*
Y141535D02*
D03*
D30*
X155575Y272252D02*
D03*
X148094D02*
D03*
X155709Y281496D02*
D03*
X148228D02*
D03*
X141204Y299811D02*
D03*
X148685D02*
D03*
D74*
X276772Y231890D02*
D03*
X224803Y272835D02*
D03*
X216929D02*
D03*
X264173Y294173D02*
D03*
Y304173D02*
D03*
Y324173D02*
D03*
Y314173D02*
D03*
D75*
X245276Y106486D02*
D03*
X255276Y116486D02*
D03*
Y96486D02*
D03*
X235276Y116486D02*
D03*
Y96486D02*
D03*
X194095Y106093D02*
D03*
X204095Y116093D02*
D03*
Y96092D02*
D03*
X184095Y116093D02*
D03*
Y96092D02*
D03*
X140945Y105699D02*
D03*
X150945Y115699D02*
D03*
Y95699D02*
D03*
X130945Y115699D02*
D03*
Y95699D02*
D03*
X89764Y106880D02*
D03*
X99764Y116880D02*
D03*
Y96880D02*
D03*
X79764Y116880D02*
D03*
Y96880D02*
D03*
D76*
X72331Y345709D02*
D03*
D77*
Y355709D02*
D03*
X82331Y345709D02*
D03*
Y355709D02*
D03*
X92331Y345709D02*
D03*
Y355709D02*
D03*
X102331Y345709D02*
D03*
Y355709D02*
D03*
X112331Y345709D02*
D03*
Y355709D02*
D03*
X122331Y345709D02*
D03*
Y355709D02*
D03*
X132331Y345709D02*
D03*
Y355709D02*
D03*
X142331Y345709D02*
D03*
Y355709D02*
D03*
X152331Y345709D02*
D03*
Y355709D02*
D03*
X162331Y345709D02*
D03*
Y355709D02*
D03*
X172331Y345709D02*
D03*
Y355709D02*
D03*
X182331Y345709D02*
D03*
Y355709D02*
D03*
X192331Y345709D02*
D03*
Y355709D02*
D03*
X202331Y345709D02*
D03*
Y355709D02*
D03*
X212331Y345709D02*
D03*
Y355709D02*
D03*
X222331Y345709D02*
D03*
Y355709D02*
D03*
X262331D02*
D03*
Y345709D02*
D03*
X252331Y355709D02*
D03*
Y345709D02*
D03*
X242331Y355709D02*
D03*
Y345709D02*
D03*
X232331Y355709D02*
D03*
Y345709D02*
D03*
D78*
X98032Y232992D02*
D03*
D79*
Y212992D02*
D03*
D80*
X53158Y350709D02*
D03*
Y157795D02*
D03*
X281504Y350709D02*
D03*
Y157795D02*
D03*
D81*
X236614Y184252D02*
D03*
X184646D02*
D03*
X132548Y183963D02*
D03*
X80973Y185144D02*
D03*
X83278Y155918D02*
D03*
X134853Y154737D02*
D03*
X187215Y155131D02*
D03*
X238790Y155525D02*
D03*
X155512Y267323D02*
D03*
X159843Y260630D02*
D03*
X159055Y267717D02*
D03*
X158661Y286614D02*
D03*
X154724Y263386D02*
D03*
X152362Y249410D02*
D03*
X146175Y287228D02*
D03*
X151906Y285228D02*
D03*
X146850Y241339D02*
D03*
X268504Y227165D02*
D03*
X256299Y236221D02*
D03*
X194882Y237008D02*
D03*
X176378Y241732D02*
D03*
X132677Y257087D02*
D03*
X133465Y261811D02*
D03*
X244000Y276000D02*
D03*
X179421Y257315D02*
D03*
X186921Y265315D02*
D03*
X146850Y330709D02*
D03*
X178347Y325984D02*
D03*
X183731Y326259D02*
D03*
X190945Y321260D02*
D03*
X83858Y307480D02*
D03*
X129393Y254142D02*
D03*
X261417Y187795D02*
D03*
X209449Y187402D02*
D03*
X157087Y187192D02*
D03*
X105905Y188005D02*
D03*
X194702Y187628D02*
D03*
X87795Y132283D02*
D03*
X262205Y136417D02*
D03*
X261614Y150984D02*
D03*
X228346Y151181D02*
D03*
X210827Y135728D02*
D03*
X210335Y150787D02*
D03*
X177076Y151090D02*
D03*
X158563Y135827D02*
D03*
X158079Y150696D02*
D03*
X124612D02*
D03*
X73032Y151772D02*
D03*
X106398D02*
D03*
X106693Y137008D02*
D03*
X165748Y294882D02*
D03*
X169685Y246063D02*
D03*
X266535Y267323D02*
D03*
X197638Y206850D02*
D03*
X266929Y160236D02*
D03*
X248425Y160236D02*
D03*
X219291Y159843D02*
D03*
X196850D02*
D03*
X144488Y159449D02*
D03*
X166929D02*
D03*
X115354Y160630D02*
D03*
X92913D02*
D03*
X68967Y152432D02*
D03*
X72047Y137402D02*
D03*
X120542Y151854D02*
D03*
X124016Y136221D02*
D03*
X224016Y152756D02*
D03*
X227559Y137008D02*
D03*
X175984Y136614D02*
D03*
X172835Y151969D02*
D03*
X72441Y320866D02*
D03*
X111417Y305906D02*
D03*
X146850Y326772D02*
D03*
X178326Y331664D02*
D03*
X183444D02*
D03*
X179921Y205118D02*
D03*
X131890Y223622D02*
D03*
X148031Y205118D02*
D03*
X192434Y216472D02*
D03*
X197531Y222152D02*
D03*
X197819Y216746D02*
D03*
X192413Y222152D02*
D03*
X174803Y214961D02*
D03*
X169685Y241339D02*
D03*
X246277Y188022D02*
D03*
X135433Y220079D02*
D03*
X200394Y155118D02*
D03*
X191732Y131496D02*
D03*
X190945Y159449D02*
D03*
X148031Y154724D02*
D03*
X139370Y131102D02*
D03*
X138583Y159055D02*
D03*
X142340Y187234D02*
D03*
X96457Y155905D02*
D03*
X87008Y160236D02*
D03*
X90765Y188415D02*
D03*
X242520Y159843D02*
D03*
X243307Y131890D02*
D03*
X251969Y155512D02*
D03*
X214173Y207087D02*
D03*
X154724Y244052D02*
D03*
X149606Y220079D02*
D03*
X222835Y253543D02*
D03*
X227953D02*
D03*
X228240Y248138D02*
D03*
X222855Y247863D02*
D03*
X209842Y252362D02*
D03*
X200000Y242520D02*
D03*
X221654Y222835D02*
D03*
X132423Y318364D02*
D03*
X126772Y315354D02*
D03*
X125197Y300984D02*
D03*
X115748Y297441D02*
D03*
X145276Y312598D02*
D03*
X140157Y312992D02*
D03*
X136614Y315748D02*
D03*
X115748Y310236D02*
D03*
X123622Y312992D02*
D03*
X120472Y310630D02*
D03*
X118110Y304331D02*
D03*
X147897Y304535D02*
D03*
X142582D02*
D03*
X255512Y275590D02*
D03*
X267323Y334646D02*
D03*
X257480Y336614D02*
D03*
X105091Y291937D02*
D03*
X104197Y267921D02*
D03*
X104590Y262213D02*
D03*
D82*
X120732Y271071D02*
D03*
Y275402D02*
D03*
Y279732D02*
D03*
Y284063D02*
D03*
Y288394D02*
D03*
X125063Y271071D02*
D03*
Y275402D02*
D03*
Y279732D02*
D03*
Y284063D02*
D03*
Y288394D02*
D03*
X129393Y271071D02*
D03*
Y275402D02*
D03*
Y279732D02*
D03*
Y284063D02*
D03*
Y288394D02*
D03*
X133724Y271071D02*
D03*
Y275402D02*
D03*
Y279732D02*
D03*
Y284063D02*
D03*
Y288394D02*
D03*
X138055Y271071D02*
D03*
Y275402D02*
D03*
Y279732D02*
D03*
Y284063D02*
D03*
Y288394D02*
D03*
D83*
X98032Y212992D02*
X157087Y212992D01*
X164567Y220472D01*
X216929Y272835D01*
M02*
