G04*
G04 #@! TF.GenerationSoftware,Altium Limited,Altium Designer,19.1.8 (144)*
G04*
G04 Layer_Color=13431551*
%FSLAX25Y25*%
%MOIN*%
G70*
G01*
G75*
%ADD11C,0.00787*%
%ADD17C,0.00600*%
%ADD76C,0.01968*%
G36*
X127357Y228302D02*
X128157D01*
Y227502D01*
X128957D01*
Y226702D01*
X129757D01*
Y225902D01*
X128957D01*
Y225102D01*
X130558D01*
Y224302D01*
X129757D01*
Y223502D01*
X130558D01*
Y222702D01*
X131358D01*
Y221902D01*
Y221102D01*
X129757D01*
Y221902D01*
Y222702D01*
X128957D01*
Y223502D01*
Y224302D01*
X128157D01*
Y225102D01*
Y225902D01*
Y226702D01*
X127357D01*
Y227502D01*
X125758D01*
Y228302D01*
Y229102D01*
X127357D01*
Y228302D01*
D02*
G37*
G36*
X112157D02*
Y227502D01*
X111357D01*
Y226702D01*
X110557D01*
Y225902D01*
X109757D01*
Y225102D01*
X108958D01*
Y224302D01*
Y223502D01*
X108158D01*
Y222702D01*
X107358D01*
Y221902D01*
X108158D01*
Y221102D01*
Y220302D01*
Y219502D01*
X107358D01*
Y220302D01*
X106558D01*
Y221102D01*
Y221902D01*
Y222702D01*
Y223502D01*
Y224302D01*
X108158D01*
Y225102D01*
X107358D01*
Y225902D01*
X108158D01*
Y226702D01*
X109757D01*
Y227502D01*
X110557D01*
Y228302D01*
X111357D01*
Y229102D01*
X112157D01*
Y228302D01*
D02*
G37*
G36*
X124958Y225902D02*
Y225102D01*
X125758D01*
Y224302D01*
X127357D01*
Y223502D01*
Y222702D01*
X128157D01*
Y221902D01*
Y221102D01*
Y220302D01*
Y219502D01*
Y218702D01*
X126558D01*
Y219502D01*
Y220302D01*
Y221102D01*
Y221902D01*
X125758D01*
Y222702D01*
X126558D01*
Y223502D01*
X124958D01*
Y224302D01*
X124158D01*
Y225102D01*
X123357D01*
Y225902D01*
Y226702D01*
X124958D01*
Y225902D01*
D02*
G37*
G36*
X123357Y223502D02*
X124158D01*
Y222702D01*
Y221902D01*
X124958D01*
Y221102D01*
Y220302D01*
Y219502D01*
Y218702D01*
X123357D01*
Y219502D01*
Y220302D01*
X124158D01*
Y221102D01*
X122557D01*
Y221902D01*
Y222702D01*
Y223502D01*
X121757D01*
Y224302D01*
X123357D01*
Y223502D01*
D02*
G37*
G36*
X116157D02*
Y222702D01*
X115357D01*
Y221902D01*
X114558D01*
Y221102D01*
Y220302D01*
X113758D01*
Y219502D01*
Y218702D01*
X112157D01*
Y219502D01*
Y220302D01*
Y221102D01*
X112958D01*
Y221902D01*
Y222702D01*
X113758D01*
Y223502D01*
X114558D01*
Y224302D01*
X116157D01*
Y223502D01*
D02*
G37*
G36*
X113758Y225902D02*
Y225102D01*
X112958D01*
Y224302D01*
X112157D01*
Y223502D01*
Y222702D01*
X111357D01*
Y221902D01*
Y221102D01*
Y220302D01*
Y219502D01*
Y218702D01*
X108958D01*
Y219502D01*
Y220302D01*
Y221102D01*
X109757D01*
Y221902D01*
Y222702D01*
Y223502D01*
X111357D01*
Y224302D01*
X110557D01*
Y225102D01*
X111357D01*
Y225902D01*
X112157D01*
Y226702D01*
X113758D01*
Y225902D01*
D02*
G37*
G36*
X120158Y221102D02*
X120958D01*
Y220302D01*
Y219502D01*
Y218702D01*
X119358D01*
Y217902D01*
X120158D01*
Y217102D01*
Y216302D01*
Y215502D01*
Y214702D01*
Y213902D01*
Y213102D01*
Y212302D01*
Y211502D01*
Y210702D01*
X127357D01*
Y209902D01*
X128157D01*
Y209102D01*
X128957D01*
Y208302D01*
Y207502D01*
Y206702D01*
Y205902D01*
Y205102D01*
Y204302D01*
Y203502D01*
Y202702D01*
Y201902D01*
X128157D01*
Y202702D01*
X108958D01*
Y203502D01*
Y204302D01*
Y205102D01*
Y205902D01*
Y206702D01*
Y207502D01*
Y208302D01*
Y209102D01*
Y209902D01*
X110557D01*
Y210702D01*
X118558D01*
Y211502D01*
Y212302D01*
X117757D01*
Y213102D01*
X118558D01*
Y213902D01*
X117757D01*
Y214702D01*
X118558D01*
Y215502D01*
X117757D01*
Y216302D01*
X118558D01*
Y217102D01*
Y217902D01*
X117757D01*
Y218702D01*
X116957D01*
Y219502D01*
Y220302D01*
Y221102D01*
X117757D01*
Y221902D01*
X120158D01*
Y221102D01*
D02*
G37*
G36*
X161758Y204302D02*
X162557D01*
Y203502D01*
X163357D01*
Y202702D01*
Y201902D01*
Y201102D01*
Y200302D01*
Y199502D01*
Y198702D01*
Y197902D01*
Y197102D01*
Y196302D01*
Y195502D01*
X161758D01*
Y196302D01*
X159358D01*
Y197102D01*
X156957D01*
Y197902D01*
X156158D01*
Y197102D01*
X155358D01*
Y197902D01*
Y198702D01*
X156158D01*
Y199502D01*
Y200302D01*
Y201102D01*
X156957D01*
Y201902D01*
X157757D01*
Y202702D01*
X156957D01*
Y203502D01*
X157757D01*
Y204302D01*
X158557D01*
Y205102D01*
X161758D01*
Y204302D01*
D02*
G37*
G36*
X136958Y199502D02*
X142558D01*
Y198702D01*
X146557D01*
Y197902D01*
X149758D01*
Y197102D01*
X153758D01*
Y196302D01*
X156158D01*
Y195502D01*
X159358D01*
Y194702D01*
X161758D01*
Y193902D01*
X163357D01*
Y193102D01*
X164157D01*
Y192302D01*
X164957D01*
Y191502D01*
X165758D01*
Y190702D01*
X166558D01*
Y189902D01*
X165758D01*
Y189102D01*
X164957D01*
Y188302D01*
X164157D01*
Y187502D01*
X163357D01*
Y186702D01*
X160958D01*
Y185902D01*
X159358D01*
Y185102D01*
X156957D01*
Y184302D01*
X155358D01*
Y183502D01*
X152957D01*
Y182702D01*
X150557D01*
Y181902D01*
X146557D01*
Y181102D01*
X140157D01*
Y180302D01*
X92158D01*
Y181102D01*
X89758D01*
Y181902D01*
X88958D01*
Y182702D01*
X87357D01*
Y183502D01*
Y184302D01*
X86558D01*
Y185102D01*
X85757D01*
Y185902D01*
Y186702D01*
X84957D01*
Y187502D01*
Y188302D01*
Y189102D01*
X84158D01*
Y189902D01*
Y190702D01*
Y191502D01*
X84957D01*
Y192302D01*
Y193102D01*
Y193902D01*
Y194702D01*
X85757D01*
Y195502D01*
X86558D01*
Y196302D01*
Y197102D01*
X87357D01*
Y197902D01*
X88958D01*
Y198702D01*
X89758D01*
Y199502D01*
X91357D01*
Y200302D01*
X136958D01*
Y199502D01*
D02*
G37*
G36*
X163357Y184302D02*
Y183502D01*
Y182702D01*
Y181902D01*
Y181102D01*
Y180302D01*
Y179502D01*
Y178702D01*
Y177902D01*
Y177102D01*
X162557D01*
Y176302D01*
X158557D01*
Y177102D01*
X157757D01*
Y177902D01*
Y178702D01*
X156957D01*
Y179502D01*
Y180302D01*
Y181102D01*
X156158D01*
Y181902D01*
Y182702D01*
X157757D01*
Y183502D01*
X160158D01*
Y184302D01*
X161758D01*
Y185102D01*
X163357D01*
Y184302D01*
D02*
G37*
G36*
X110557Y169102D02*
Y168302D01*
Y167502D01*
Y166702D01*
Y165902D01*
Y165102D01*
Y164302D01*
Y163502D01*
Y162702D01*
Y161902D01*
X109757D01*
Y161102D01*
X108958D01*
Y160302D01*
X103358D01*
Y161102D01*
X102558D01*
Y161902D01*
X101758D01*
Y162702D01*
Y163502D01*
Y164302D01*
X100958D01*
Y165102D01*
Y165902D01*
Y166702D01*
Y167502D01*
Y168302D01*
Y169102D01*
Y169902D01*
X102558D01*
Y169102D01*
Y168302D01*
Y167502D01*
Y166702D01*
Y165902D01*
Y165102D01*
Y164302D01*
Y163502D01*
X103358D01*
Y162702D01*
Y161902D01*
X104957D01*
Y161102D01*
X107358D01*
Y161902D01*
X108158D01*
Y162702D01*
X108958D01*
Y163502D01*
Y164302D01*
Y165102D01*
Y165902D01*
Y166702D01*
Y167502D01*
Y168302D01*
Y169102D01*
Y169902D01*
X110557D01*
Y169102D01*
D02*
G37*
G36*
X160158D02*
X160958D01*
Y168302D01*
X161758D01*
Y167502D01*
Y166702D01*
Y165902D01*
Y165102D01*
Y164302D01*
Y163502D01*
Y162702D01*
Y161902D01*
Y161102D01*
Y160302D01*
X160158D01*
Y161102D01*
Y161902D01*
Y162702D01*
Y163502D01*
Y164302D01*
Y165102D01*
Y165902D01*
Y166702D01*
Y167502D01*
X159358D01*
Y168302D01*
X156957D01*
Y169102D01*
Y169902D01*
X160158D01*
Y169102D01*
D02*
G37*
G36*
X152957D02*
X154558D01*
Y168302D01*
Y167502D01*
X155358D01*
Y166702D01*
Y165902D01*
Y165102D01*
Y164302D01*
Y163502D01*
Y162702D01*
X154558D01*
Y161902D01*
Y161102D01*
X153758D01*
Y160302D01*
X147357D01*
Y161102D01*
X146557D01*
Y161902D01*
Y162702D01*
X145757D01*
Y163502D01*
Y164302D01*
Y165102D01*
Y165902D01*
Y166702D01*
Y167502D01*
X146557D01*
Y168302D01*
Y169102D01*
X147357D01*
Y169902D01*
X152957D01*
Y169102D01*
D02*
G37*
G36*
X143358Y173902D02*
Y173102D01*
Y172302D01*
Y171502D01*
Y170702D01*
Y169902D01*
Y169102D01*
Y168302D01*
Y167502D01*
Y166702D01*
Y165902D01*
Y165102D01*
Y164302D01*
Y163502D01*
Y162702D01*
Y161902D01*
X142558D01*
Y161102D01*
X141758D01*
Y160302D01*
X136158D01*
Y161102D01*
X135357D01*
Y161902D01*
X134557D01*
Y162702D01*
Y163502D01*
X133757D01*
Y164302D01*
Y165102D01*
Y165902D01*
X134557D01*
Y166702D01*
Y167502D01*
Y168302D01*
X135357D01*
Y169102D01*
X136158D01*
Y169902D01*
X141758D01*
Y170702D01*
Y171502D01*
Y172302D01*
Y173102D01*
Y173902D01*
Y174702D01*
X143358D01*
Y173902D01*
D02*
G37*
G36*
X130558Y169102D02*
X131358D01*
Y168302D01*
X132158D01*
Y167502D01*
Y166702D01*
Y165902D01*
Y165102D01*
Y164302D01*
Y163502D01*
Y162702D01*
Y161902D01*
X131358D01*
Y161102D01*
X130558D01*
Y160302D01*
X124958D01*
Y161102D01*
X124158D01*
Y161902D01*
X123357D01*
Y162702D01*
Y163502D01*
Y164302D01*
Y165102D01*
Y165902D01*
Y166702D01*
Y167502D01*
Y168302D01*
X124158D01*
Y169102D01*
X124958D01*
Y169902D01*
X130558D01*
Y169102D01*
D02*
G37*
G36*
X120158D02*
X120958D01*
Y168302D01*
Y167502D01*
Y166702D01*
Y165902D01*
X120158D01*
Y165102D01*
X119358D01*
Y164302D01*
X114558D01*
Y163502D01*
Y162702D01*
Y161902D01*
X115357D01*
Y161102D01*
X117757D01*
Y161902D01*
X119358D01*
Y162702D01*
X120958D01*
Y161902D01*
Y161102D01*
X120158D01*
Y160302D01*
X113758D01*
Y161102D01*
X112958D01*
Y161902D01*
Y162702D01*
Y163502D01*
Y164302D01*
X113758D01*
Y165102D01*
X115357D01*
Y165902D01*
X119358D01*
Y166702D01*
Y167502D01*
Y168302D01*
X116957D01*
Y169102D01*
X116157D01*
Y168302D01*
X114558D01*
Y167502D01*
X112958D01*
Y168302D01*
Y169102D01*
X113758D01*
Y169902D01*
X120158D01*
Y169102D01*
D02*
G37*
G36*
X98558Y173902D02*
X99357D01*
Y173102D01*
X98558D01*
Y172302D01*
Y171502D01*
Y170702D01*
Y169902D01*
Y169102D01*
Y168302D01*
Y167502D01*
Y166702D01*
Y165902D01*
Y165102D01*
X99357D01*
Y164302D01*
X98558D01*
Y163502D01*
Y162702D01*
Y161902D01*
X97758D01*
Y161102D01*
X96957D01*
Y160302D01*
X91357D01*
Y161102D01*
X90557D01*
Y161902D01*
X89758D01*
Y162702D01*
Y163502D01*
Y164302D01*
Y165102D01*
Y165902D01*
Y166702D01*
Y167502D01*
Y168302D01*
X90557D01*
Y169102D01*
X91357D01*
Y169902D01*
X97758D01*
Y170702D01*
Y171502D01*
Y172302D01*
Y173102D01*
Y173902D01*
Y174702D01*
X98558D01*
Y173902D01*
D02*
G37*
G36*
X253597Y239436D02*
X255197D01*
Y238636D01*
X255997D01*
Y237836D01*
X256797D01*
Y237036D01*
X257597D01*
Y236236D01*
Y235436D01*
X258397D01*
Y234636D01*
Y233836D01*
Y233036D01*
Y232236D01*
Y231436D01*
Y230636D01*
Y229836D01*
Y229036D01*
Y228236D01*
Y227436D01*
Y226636D01*
Y225836D01*
Y225036D01*
Y224236D01*
Y223436D01*
Y222636D01*
Y221836D01*
Y221036D01*
Y220236D01*
Y219436D01*
Y218636D01*
Y217836D01*
Y217036D01*
Y216236D01*
Y215436D01*
Y214636D01*
Y213836D01*
Y213036D01*
Y212236D01*
Y211436D01*
Y210636D01*
Y209836D01*
Y209036D01*
Y208236D01*
Y207436D01*
Y206636D01*
Y205836D01*
Y205036D01*
Y204236D01*
Y203436D01*
Y202636D01*
Y201836D01*
Y201036D01*
Y200236D01*
Y199436D01*
Y198636D01*
Y197836D01*
Y197036D01*
Y196236D01*
Y195436D01*
Y194636D01*
Y193836D01*
Y193036D01*
Y192236D01*
Y191436D01*
Y190636D01*
Y189836D01*
Y189036D01*
Y188236D01*
Y187436D01*
Y186636D01*
Y185836D01*
Y185036D01*
Y184236D01*
Y183436D01*
Y182636D01*
Y181836D01*
Y181036D01*
Y180236D01*
Y179436D01*
Y178636D01*
Y177836D01*
Y177036D01*
Y176236D01*
Y175436D01*
Y174636D01*
Y173836D01*
Y173036D01*
Y172236D01*
Y171436D01*
Y170636D01*
Y169836D01*
Y169036D01*
Y168236D01*
Y167436D01*
Y166636D01*
Y165836D01*
Y165036D01*
X257597D01*
Y164236D01*
Y163436D01*
X256797D01*
Y162636D01*
X255997D01*
Y161836D01*
X255197D01*
Y161036D01*
X253597D01*
Y160236D01*
X179997D01*
Y161036D01*
X178397D01*
Y161836D01*
X177597D01*
Y162636D01*
X176797D01*
Y163436D01*
X175997D01*
Y164236D01*
Y165036D01*
X175197D01*
Y165836D01*
Y166636D01*
Y167436D01*
Y168236D01*
Y169036D01*
Y169836D01*
Y170636D01*
Y171436D01*
Y172236D01*
Y173036D01*
Y173836D01*
Y174636D01*
Y175436D01*
Y176236D01*
Y177036D01*
Y177836D01*
Y178636D01*
Y179436D01*
Y180236D01*
Y181036D01*
Y181836D01*
Y182636D01*
Y183436D01*
Y184236D01*
Y185036D01*
Y185836D01*
Y186636D01*
Y187436D01*
Y188236D01*
Y189036D01*
Y189836D01*
Y190636D01*
Y191436D01*
Y192236D01*
Y193036D01*
Y193836D01*
Y194636D01*
Y195436D01*
Y196236D01*
Y197036D01*
Y197836D01*
Y198636D01*
Y199436D01*
Y200236D01*
Y201036D01*
Y201836D01*
Y202636D01*
Y203436D01*
Y204236D01*
Y205036D01*
Y205836D01*
Y206636D01*
Y207436D01*
Y208236D01*
Y209036D01*
Y209836D01*
Y210636D01*
Y211436D01*
Y212236D01*
Y213036D01*
Y213836D01*
Y214636D01*
Y215436D01*
Y216236D01*
Y217036D01*
Y217836D01*
Y218636D01*
Y219436D01*
Y220236D01*
Y221036D01*
Y221836D01*
Y222636D01*
Y223436D01*
Y224236D01*
Y225036D01*
Y225836D01*
Y226636D01*
Y227436D01*
Y228236D01*
Y229036D01*
Y229836D01*
Y230636D01*
Y231436D01*
Y232236D01*
Y233036D01*
Y233836D01*
Y234636D01*
Y235436D01*
X175997D01*
Y236236D01*
Y237036D01*
X176797D01*
Y237836D01*
X177597D01*
Y238636D01*
X178397D01*
Y239436D01*
X179997D01*
Y240236D01*
X253597D01*
Y239436D01*
D02*
G37*
%LPC*%
G36*
X123357Y209102D02*
X121757D01*
Y208302D01*
Y207502D01*
X120958D01*
Y206702D01*
Y205902D01*
Y205102D01*
Y204302D01*
X121757D01*
Y203502D01*
X124158D01*
Y204302D01*
X124958D01*
Y205102D01*
Y205902D01*
Y206702D01*
Y207502D01*
Y208302D01*
X123357D01*
Y209102D01*
D02*
G37*
G36*
X115357D02*
X114558D01*
Y208302D01*
X113758D01*
Y207502D01*
X112157D01*
Y206702D01*
X112958D01*
Y205902D01*
Y205102D01*
Y204302D01*
X113758D01*
Y203502D01*
X116157D01*
Y204302D01*
X116957D01*
Y205102D01*
Y205902D01*
X117757D01*
Y206702D01*
X116957D01*
Y207502D01*
Y208302D01*
X115357D01*
Y209102D01*
D02*
G37*
G36*
X152957Y168302D02*
X148158D01*
Y167502D01*
X147357D01*
Y166702D01*
Y165902D01*
Y165102D01*
Y164302D01*
Y163502D01*
Y162702D01*
X148158D01*
Y161902D01*
X149758D01*
Y161102D01*
X151357D01*
Y161902D01*
X152957D01*
Y162702D01*
X153758D01*
Y163502D01*
Y164302D01*
Y165102D01*
Y165902D01*
Y166702D01*
X152957D01*
Y167502D01*
Y168302D01*
D02*
G37*
G36*
X141758D02*
X136158D01*
Y167502D01*
Y166702D01*
X135357D01*
Y165902D01*
Y165102D01*
Y164302D01*
Y163502D01*
X136158D01*
Y162702D01*
Y161902D01*
X137758D01*
Y161102D01*
X140157D01*
Y161902D01*
X140957D01*
Y162702D01*
X141758D01*
Y163502D01*
Y164302D01*
Y165102D01*
Y165902D01*
Y166702D01*
Y167502D01*
Y168302D01*
D02*
G37*
G36*
X129757D02*
X125758D01*
Y167502D01*
X124958D01*
Y166702D01*
Y165902D01*
Y165102D01*
Y164302D01*
Y163502D01*
Y162702D01*
X125758D01*
Y161902D01*
X126558D01*
Y161102D01*
X128957D01*
Y161902D01*
X130558D01*
Y162702D01*
Y163502D01*
Y164302D01*
X131358D01*
Y165102D01*
Y165902D01*
X130558D01*
Y166702D01*
Y167502D01*
X129757D01*
Y168302D01*
D02*
G37*
G36*
X96957Y169102D02*
X93757D01*
Y168302D01*
X92158D01*
Y167502D01*
X91357D01*
Y166702D01*
Y165902D01*
Y165102D01*
Y164302D01*
Y163502D01*
Y162702D01*
X92158D01*
Y161902D01*
X92958D01*
Y161102D01*
X95358D01*
Y161902D01*
X96957D01*
Y162702D01*
Y163502D01*
X97758D01*
Y164302D01*
Y165102D01*
Y165902D01*
Y166702D01*
Y167502D01*
Y168302D01*
X96957D01*
Y169102D01*
D02*
G37*
G36*
X247997Y232236D02*
X243997D01*
Y231436D01*
Y230636D01*
Y229836D01*
X243197D01*
Y229036D01*
Y228236D01*
Y227436D01*
Y226636D01*
X242397D01*
Y225836D01*
Y225036D01*
Y224236D01*
Y223436D01*
X241597D01*
Y222636D01*
Y221836D01*
Y221036D01*
X240797D01*
Y220236D01*
Y219436D01*
Y218636D01*
Y217836D01*
X239997D01*
Y217036D01*
Y216236D01*
Y215436D01*
X239197D01*
Y216236D01*
Y217036D01*
Y217836D01*
X238397D01*
Y218636D01*
Y219436D01*
Y220236D01*
Y221036D01*
X237597D01*
Y221836D01*
Y222636D01*
Y223436D01*
X236797D01*
Y224236D01*
Y225036D01*
Y225836D01*
Y226636D01*
X235997D01*
Y227436D01*
Y228236D01*
Y229036D01*
Y229836D01*
X235197D01*
Y230636D01*
Y231436D01*
Y232236D01*
X231197D01*
Y231436D01*
Y230636D01*
Y229836D01*
Y229036D01*
Y228236D01*
Y227436D01*
Y226636D01*
Y225836D01*
Y225036D01*
Y224236D01*
Y223436D01*
Y222636D01*
Y221836D01*
Y221036D01*
Y220236D01*
Y219436D01*
Y218636D01*
Y217836D01*
Y217036D01*
Y216236D01*
Y215436D01*
Y214636D01*
Y213836D01*
Y213036D01*
Y212236D01*
Y211436D01*
Y210636D01*
Y209836D01*
Y209036D01*
Y208236D01*
Y207436D01*
Y206636D01*
Y205836D01*
Y205036D01*
Y204236D01*
Y203436D01*
Y202636D01*
Y201836D01*
X235197D01*
Y202636D01*
Y203436D01*
Y204236D01*
Y205036D01*
Y205836D01*
Y206636D01*
Y207436D01*
Y208236D01*
Y209036D01*
Y209836D01*
Y210636D01*
Y211436D01*
Y212236D01*
Y213036D01*
Y213836D01*
Y214636D01*
Y215436D01*
Y216236D01*
Y217036D01*
Y217836D01*
X235997D01*
Y217036D01*
Y216236D01*
Y215436D01*
Y214636D01*
X236797D01*
Y213836D01*
Y213036D01*
Y212236D01*
Y211436D01*
X237597D01*
Y210636D01*
Y209836D01*
Y209036D01*
Y208236D01*
X238397D01*
Y207436D01*
Y206636D01*
X240797D01*
Y207436D01*
Y208236D01*
X241597D01*
Y209036D01*
Y209836D01*
Y210636D01*
Y211436D01*
X242397D01*
Y212236D01*
Y213036D01*
Y213836D01*
Y214636D01*
X243197D01*
Y215436D01*
Y216236D01*
Y217036D01*
Y217836D01*
X243997D01*
Y217036D01*
Y216236D01*
Y215436D01*
Y214636D01*
Y213836D01*
Y213036D01*
Y212236D01*
Y211436D01*
Y210636D01*
Y209836D01*
Y209036D01*
Y208236D01*
Y207436D01*
Y206636D01*
Y205836D01*
Y205036D01*
Y204236D01*
Y203436D01*
Y202636D01*
Y201836D01*
X247997D01*
Y202636D01*
Y203436D01*
Y204236D01*
Y205036D01*
Y205836D01*
Y206636D01*
Y207436D01*
Y208236D01*
Y209036D01*
Y209836D01*
Y210636D01*
Y211436D01*
Y212236D01*
Y213036D01*
Y213836D01*
Y214636D01*
Y215436D01*
Y216236D01*
Y217036D01*
Y217836D01*
Y218636D01*
Y219436D01*
Y220236D01*
Y221036D01*
Y221836D01*
Y222636D01*
Y223436D01*
Y224236D01*
Y225036D01*
Y225836D01*
Y226636D01*
Y227436D01*
Y228236D01*
Y229036D01*
Y229836D01*
Y230636D01*
Y231436D01*
Y232236D01*
D02*
G37*
G36*
X227997D02*
X223997D01*
Y231436D01*
Y230636D01*
Y229836D01*
Y229036D01*
Y228236D01*
Y227436D01*
Y226636D01*
Y225836D01*
Y225036D01*
Y224236D01*
Y223436D01*
Y222636D01*
Y221836D01*
Y221036D01*
Y220236D01*
Y219436D01*
Y218636D01*
Y217836D01*
Y217036D01*
Y216236D01*
Y215436D01*
Y214636D01*
Y213836D01*
Y213036D01*
Y212236D01*
Y211436D01*
Y210636D01*
Y209836D01*
Y209036D01*
Y208236D01*
Y207436D01*
X223197D01*
Y206636D01*
X220797D01*
Y207436D01*
X219997D01*
Y208236D01*
Y209036D01*
Y209836D01*
Y210636D01*
Y211436D01*
Y212236D01*
Y213036D01*
Y213836D01*
Y214636D01*
Y215436D01*
Y216236D01*
Y217036D01*
Y217836D01*
Y218636D01*
Y219436D01*
Y220236D01*
Y221036D01*
Y221836D01*
Y222636D01*
Y223436D01*
Y224236D01*
Y225036D01*
Y225836D01*
Y226636D01*
Y227436D01*
Y228236D01*
Y229036D01*
Y229836D01*
Y230636D01*
Y231436D01*
Y232236D01*
X215997D01*
Y231436D01*
Y230636D01*
Y229836D01*
Y229036D01*
Y228236D01*
Y227436D01*
Y226636D01*
Y225836D01*
Y225036D01*
Y224236D01*
Y223436D01*
Y222636D01*
Y221836D01*
Y221036D01*
Y220236D01*
Y219436D01*
Y218636D01*
Y217836D01*
Y217036D01*
Y216236D01*
Y215436D01*
Y214636D01*
Y213836D01*
Y213036D01*
Y212236D01*
Y211436D01*
Y210636D01*
Y209836D01*
Y209036D01*
Y208236D01*
Y207436D01*
Y206636D01*
Y205836D01*
Y205036D01*
X216797D01*
Y204236D01*
Y203436D01*
X217597D01*
Y202636D01*
X219197D01*
Y201836D01*
X224797D01*
Y202636D01*
X226397D01*
Y203436D01*
X227197D01*
Y204236D01*
Y205036D01*
X227997D01*
Y205836D01*
Y206636D01*
Y207436D01*
Y208236D01*
Y209036D01*
Y209836D01*
Y210636D01*
Y211436D01*
Y212236D01*
Y213036D01*
Y213836D01*
Y214636D01*
Y215436D01*
Y216236D01*
Y217036D01*
Y217836D01*
Y218636D01*
Y219436D01*
Y220236D01*
Y221036D01*
Y221836D01*
Y222636D01*
Y223436D01*
Y224236D01*
Y225036D01*
Y225836D01*
Y226636D01*
Y227436D01*
Y228236D01*
Y229036D01*
Y229836D01*
Y230636D01*
Y231436D01*
Y232236D01*
D02*
G37*
G36*
X212797D02*
X204797D01*
Y231436D01*
X203197D01*
Y230636D01*
X202397D01*
Y229836D01*
X201597D01*
Y229036D01*
Y228236D01*
X200797D01*
Y227436D01*
Y226636D01*
Y225836D01*
Y225036D01*
Y224236D01*
Y223436D01*
Y222636D01*
Y221836D01*
Y221036D01*
Y220236D01*
Y219436D01*
Y218636D01*
Y217836D01*
Y217036D01*
Y216236D01*
Y215436D01*
Y214636D01*
Y213836D01*
Y213036D01*
Y212236D01*
Y211436D01*
Y210636D01*
Y209836D01*
Y209036D01*
Y208236D01*
Y207436D01*
Y206636D01*
Y205836D01*
X201597D01*
Y205036D01*
Y204236D01*
X202397D01*
Y203436D01*
X203197D01*
Y202636D01*
X204797D01*
Y201836D01*
X212797D01*
Y202636D01*
Y203436D01*
Y204236D01*
Y205036D01*
Y205836D01*
Y206636D01*
Y207436D01*
Y208236D01*
Y209036D01*
Y209836D01*
Y210636D01*
Y211436D01*
Y212236D01*
Y213036D01*
Y213836D01*
Y214636D01*
Y215436D01*
Y216236D01*
Y217036D01*
Y217836D01*
Y218636D01*
Y219436D01*
Y220236D01*
Y221036D01*
Y221836D01*
Y222636D01*
Y223436D01*
Y224236D01*
Y225036D01*
Y225836D01*
Y226636D01*
Y227436D01*
Y228236D01*
Y229036D01*
Y229836D01*
Y230636D01*
Y231436D01*
Y232236D01*
D02*
G37*
G36*
X197597D02*
X189597D01*
Y231436D01*
X187997D01*
Y230636D01*
X187197D01*
Y229836D01*
X186397D01*
Y229036D01*
Y228236D01*
X185597D01*
Y227436D01*
Y226636D01*
Y225836D01*
Y225036D01*
Y224236D01*
Y223436D01*
Y222636D01*
Y221836D01*
Y221036D01*
Y220236D01*
Y219436D01*
Y218636D01*
Y217836D01*
Y217036D01*
Y216236D01*
Y215436D01*
Y214636D01*
Y213836D01*
Y213036D01*
Y212236D01*
Y211436D01*
Y210636D01*
Y209836D01*
Y209036D01*
Y208236D01*
Y207436D01*
Y206636D01*
Y205836D01*
X186397D01*
Y205036D01*
Y204236D01*
X187197D01*
Y203436D01*
X187997D01*
Y202636D01*
X189597D01*
Y201836D01*
X197597D01*
Y202636D01*
Y203436D01*
Y204236D01*
Y205036D01*
Y205836D01*
Y206636D01*
Y207436D01*
Y208236D01*
Y209036D01*
Y209836D01*
Y210636D01*
Y211436D01*
Y212236D01*
Y213036D01*
Y213836D01*
Y214636D01*
Y215436D01*
Y216236D01*
Y217036D01*
Y217836D01*
Y218636D01*
Y219436D01*
Y220236D01*
Y221036D01*
Y221836D01*
Y222636D01*
Y223436D01*
Y224236D01*
Y225036D01*
Y225836D01*
Y226636D01*
Y227436D01*
Y228236D01*
Y229036D01*
Y229836D01*
Y230636D01*
Y231436D01*
Y232236D01*
D02*
G37*
G36*
X225597Y195436D02*
X219997D01*
Y194636D01*
Y193836D01*
Y193036D01*
Y192236D01*
Y191436D01*
Y190636D01*
Y189836D01*
Y189036D01*
Y188236D01*
Y187436D01*
Y186636D01*
Y185836D01*
Y185036D01*
Y184236D01*
Y183436D01*
Y182636D01*
Y181836D01*
Y181036D01*
Y180236D01*
Y179436D01*
Y178636D01*
Y177836D01*
Y177036D01*
Y176236D01*
Y175436D01*
Y174636D01*
Y173836D01*
X219197D01*
Y173036D01*
X218397D01*
Y172236D01*
X214397D01*
Y173036D01*
X213597D01*
Y173836D01*
X212797D01*
Y174636D01*
Y175436D01*
Y176236D01*
Y177036D01*
Y177836D01*
Y178636D01*
Y179436D01*
Y180236D01*
Y181036D01*
Y181836D01*
Y182636D01*
Y183436D01*
Y184236D01*
Y185036D01*
Y185836D01*
Y186636D01*
Y187436D01*
Y188236D01*
Y189036D01*
Y189836D01*
Y190636D01*
Y191436D01*
Y192236D01*
Y193036D01*
Y193836D01*
Y194636D01*
Y195436D01*
X207197D01*
Y194636D01*
Y193836D01*
Y193036D01*
Y192236D01*
Y191436D01*
Y190636D01*
Y189836D01*
Y189036D01*
Y188236D01*
Y187436D01*
Y186636D01*
Y185836D01*
Y185036D01*
Y184236D01*
Y183436D01*
Y182636D01*
Y181836D01*
Y181036D01*
Y180236D01*
Y179436D01*
Y178636D01*
Y177836D01*
Y177036D01*
Y176236D01*
Y175436D01*
Y174636D01*
Y173836D01*
Y173036D01*
X207997D01*
Y172236D01*
Y171436D01*
X208797D01*
Y170636D01*
X209597D01*
Y169836D01*
X211197D01*
Y169036D01*
X213597D01*
Y168236D01*
X219197D01*
Y169036D01*
X221597D01*
Y169836D01*
X223197D01*
Y170636D01*
X223997D01*
Y171436D01*
X224797D01*
Y172236D01*
Y173036D01*
X225597D01*
Y173836D01*
Y174636D01*
Y175436D01*
Y176236D01*
Y177036D01*
Y177836D01*
Y178636D01*
Y179436D01*
Y180236D01*
Y181036D01*
Y181836D01*
Y182636D01*
Y183436D01*
Y184236D01*
Y185036D01*
Y185836D01*
Y186636D01*
Y187436D01*
Y188236D01*
Y189036D01*
Y189836D01*
Y190636D01*
Y191436D01*
Y192236D01*
Y193036D01*
Y193836D01*
Y194636D01*
Y195436D01*
D02*
G37*
G36*
X203197D02*
X190397D01*
Y194636D01*
X188797D01*
Y193836D01*
X187197D01*
Y193036D01*
X186397D01*
Y192236D01*
Y191436D01*
X185597D01*
Y190636D01*
Y189836D01*
Y189036D01*
Y188236D01*
Y187436D01*
Y186636D01*
Y185836D01*
X186397D01*
Y185036D01*
Y184236D01*
X187197D01*
Y183436D01*
X188797D01*
Y182636D01*
X187997D01*
Y181836D01*
X187197D01*
Y181036D01*
X186397D01*
Y180236D01*
X185597D01*
Y179436D01*
Y178636D01*
Y177836D01*
Y177036D01*
Y176236D01*
Y175436D01*
Y174636D01*
Y173836D01*
Y173036D01*
Y172236D01*
X186397D01*
Y171436D01*
X187197D01*
Y170636D01*
X187997D01*
Y169836D01*
X190397D01*
Y169036D01*
X203197D01*
Y169836D01*
Y170636D01*
Y171436D01*
Y172236D01*
Y173036D01*
Y173836D01*
Y174636D01*
Y175436D01*
Y176236D01*
Y177036D01*
Y177836D01*
Y178636D01*
Y179436D01*
Y180236D01*
Y181036D01*
Y181836D01*
Y182636D01*
Y183436D01*
Y184236D01*
Y185036D01*
Y185836D01*
Y186636D01*
Y187436D01*
Y188236D01*
Y189036D01*
Y189836D01*
Y190636D01*
Y191436D01*
Y192236D01*
Y193036D01*
Y193836D01*
Y194636D01*
Y195436D01*
D02*
G37*
G36*
X241597Y196236D02*
X235997D01*
Y195436D01*
X233597D01*
Y194636D01*
X231997D01*
Y193836D01*
X231197D01*
Y193036D01*
Y192236D01*
X230397D01*
Y191436D01*
Y190636D01*
Y189836D01*
Y189036D01*
Y188236D01*
Y187436D01*
Y186636D01*
X235197D01*
Y187436D01*
Y188236D01*
Y189036D01*
Y189836D01*
X235997D01*
Y190636D01*
X236797D01*
Y191436D01*
X237597D01*
Y192236D01*
X239997D01*
Y191436D01*
X241597D01*
Y190636D01*
Y189836D01*
X242397D01*
Y189036D01*
Y188236D01*
Y187436D01*
X241597D01*
Y186636D01*
X240797D01*
Y185836D01*
X239997D01*
Y185036D01*
X238397D01*
Y184236D01*
X236797D01*
Y183436D01*
X235197D01*
Y182636D01*
X233597D01*
Y181836D01*
X231997D01*
Y181036D01*
X231197D01*
Y180236D01*
X230397D01*
Y179436D01*
Y178636D01*
X229597D01*
Y177836D01*
Y177036D01*
Y176236D01*
Y175436D01*
Y174636D01*
Y173836D01*
Y173036D01*
X230397D01*
Y172236D01*
Y171436D01*
X231197D01*
Y170636D01*
X231997D01*
Y169836D01*
X233597D01*
Y169036D01*
X235997D01*
Y168236D01*
X241597D01*
Y169036D01*
X243997D01*
Y169836D01*
X245597D01*
Y170636D01*
X246397D01*
Y171436D01*
X247197D01*
Y172236D01*
Y173036D01*
Y173836D01*
X247997D01*
Y174636D01*
Y175436D01*
Y176236D01*
Y177036D01*
Y177836D01*
Y178636D01*
X242397D01*
Y177836D01*
Y177036D01*
Y176236D01*
Y175436D01*
Y174636D01*
Y173836D01*
X241597D01*
Y173036D01*
X240797D01*
Y172236D01*
X236797D01*
Y173036D01*
X235997D01*
Y173836D01*
X235197D01*
Y174636D01*
Y175436D01*
Y176236D01*
Y177036D01*
Y177836D01*
X235997D01*
Y178636D01*
X236797D01*
Y179436D01*
X238397D01*
Y180236D01*
X240797D01*
Y181036D01*
X242397D01*
Y181836D01*
X243997D01*
Y182636D01*
X245597D01*
Y183436D01*
X246397D01*
Y184236D01*
X247197D01*
Y185036D01*
Y185836D01*
X247997D01*
Y186636D01*
Y187436D01*
Y188236D01*
Y189036D01*
Y189836D01*
Y190636D01*
X247197D01*
Y191436D01*
Y192236D01*
X246397D01*
Y193036D01*
Y193836D01*
X245597D01*
Y194636D01*
X243997D01*
Y195436D01*
X241597D01*
Y196236D01*
D02*
G37*
%LPD*%
G36*
X208797Y226636D02*
Y225836D01*
Y225036D01*
Y224236D01*
Y223436D01*
Y222636D01*
Y221836D01*
Y221036D01*
Y220236D01*
Y219436D01*
Y218636D01*
Y217836D01*
Y217036D01*
Y216236D01*
Y215436D01*
Y214636D01*
Y213836D01*
Y213036D01*
Y212236D01*
Y211436D01*
Y210636D01*
Y209836D01*
Y209036D01*
Y208236D01*
Y207436D01*
Y206636D01*
X205597D01*
Y207436D01*
X204797D01*
Y208236D01*
Y209036D01*
Y209836D01*
Y210636D01*
Y211436D01*
Y212236D01*
Y213036D01*
Y213836D01*
Y214636D01*
Y215436D01*
Y216236D01*
Y217036D01*
Y217836D01*
Y218636D01*
Y219436D01*
Y220236D01*
Y221036D01*
Y221836D01*
Y222636D01*
Y223436D01*
Y224236D01*
Y225036D01*
Y225836D01*
Y226636D01*
X205597D01*
Y227436D01*
X208797D01*
Y226636D01*
D02*
G37*
G36*
X193597D02*
Y225836D01*
Y225036D01*
Y224236D01*
Y223436D01*
Y222636D01*
Y221836D01*
Y221036D01*
Y220236D01*
Y219436D01*
Y218636D01*
Y217836D01*
Y217036D01*
Y216236D01*
Y215436D01*
Y214636D01*
Y213836D01*
Y213036D01*
Y212236D01*
Y211436D01*
Y210636D01*
Y209836D01*
Y209036D01*
Y208236D01*
Y207436D01*
Y206636D01*
X190397D01*
Y207436D01*
X189597D01*
Y208236D01*
Y209036D01*
Y209836D01*
Y210636D01*
Y211436D01*
Y212236D01*
Y213036D01*
Y213836D01*
Y214636D01*
Y215436D01*
Y216236D01*
Y217036D01*
Y217836D01*
Y218636D01*
Y219436D01*
Y220236D01*
Y221036D01*
Y221836D01*
Y222636D01*
Y223436D01*
Y224236D01*
Y225036D01*
Y225836D01*
Y226636D01*
X190397D01*
Y227436D01*
X193597D01*
Y226636D01*
D02*
G37*
G36*
X197597Y191436D02*
Y190636D01*
Y189836D01*
Y189036D01*
Y188236D01*
Y187436D01*
Y186636D01*
Y185836D01*
Y185036D01*
Y184236D01*
X192797D01*
Y185036D01*
X191997D01*
Y185836D01*
X191197D01*
Y186636D01*
Y187436D01*
Y188236D01*
Y189036D01*
Y189836D01*
Y190636D01*
X191997D01*
Y191436D01*
X192797D01*
Y192236D01*
X197597D01*
Y191436D01*
D02*
G37*
G36*
Y180236D02*
Y179436D01*
Y178636D01*
Y177836D01*
Y177036D01*
Y176236D01*
Y175436D01*
Y174636D01*
Y173836D01*
Y173036D01*
Y172236D01*
X192797D01*
Y173036D01*
X191997D01*
Y173836D01*
X191197D01*
Y174636D01*
Y175436D01*
Y176236D01*
Y177036D01*
Y177836D01*
Y178636D01*
Y179436D01*
X191997D01*
Y180236D01*
X192797D01*
Y181036D01*
X197597D01*
Y180236D01*
D02*
G37*
D11*
X267831Y340709D02*
Y360709D01*
X67331Y340709D02*
Y360709D01*
X267831D01*
X67331Y340709D02*
X267831D01*
X119903Y149032D02*
X126989D01*
X123446Y137222D02*
X126989D01*
Y149032D01*
X119903Y137418D02*
Y149032D01*
Y137222D02*
X123446D01*
X258661Y149803D02*
X265748D01*
X262205Y137992D02*
X265748D01*
Y149803D01*
X258661Y138189D02*
Y149803D01*
Y137992D02*
X262205D01*
X223840Y149820D02*
X230926D01*
X227383Y138009D02*
X230926D01*
Y149820D01*
X223840Y138206D02*
Y149820D01*
Y138009D02*
X227383D01*
X207087Y149409D02*
X214173D01*
X210630Y137598D02*
X214173D01*
Y149409D01*
X207087Y137795D02*
Y149409D01*
Y137598D02*
X210630D01*
X172265Y149426D02*
X179351D01*
X175808Y137615D02*
X179351D01*
Y149426D01*
X172265Y137812D02*
Y149426D01*
Y137615D02*
X175808D01*
X154724Y149016D02*
X161811D01*
X158268Y137205D02*
X161811D01*
Y149016D01*
X154724Y137402D02*
Y149016D01*
Y137205D02*
X158268D01*
X68328Y150214D02*
X75414D01*
X71871Y138403D02*
X75414D01*
Y150214D01*
X68328Y138600D02*
Y150214D01*
Y138403D02*
X71871D01*
X147638Y216929D02*
Y220079D01*
X136614Y216929D02*
X147638D01*
X136614D02*
Y223228D01*
X147638D01*
Y220079D02*
Y223228D01*
X163055Y252173D02*
Y259260D01*
X151244Y252173D02*
Y255716D01*
Y252173D02*
X163055D01*
X151441Y259260D02*
X163055D01*
X151244Y255716D02*
Y259260D01*
X158724Y268315D02*
Y272252D01*
X145141Y268315D02*
X158724D01*
X145141D02*
Y276189D01*
X158724D01*
Y272252D02*
Y276189D01*
Y278551D02*
Y282488D01*
X145141Y278551D02*
X158724D01*
X145141D02*
Y286425D01*
X158724D01*
Y282488D02*
Y286425D01*
X138055Y299811D02*
Y303748D01*
X151637D01*
Y295874D02*
Y303748D01*
X138055Y295874D02*
X151637D01*
X138055D02*
Y299811D01*
X124213Y297244D02*
Y304331D01*
X112402Y297244D02*
Y300787D01*
Y297244D02*
X124213D01*
X112598Y304331D02*
X124213D01*
X112402Y300787D02*
Y304331D01*
X103150Y150197D02*
X110236D01*
X106693Y138386D02*
X110236D01*
Y150197D01*
X103150Y138583D02*
Y150197D01*
Y138386D02*
X106693D01*
D17*
X205118Y142520D02*
X204462D01*
X204790D01*
Y144488D01*
X205118Y144160D01*
X203478Y142520D02*
Y144488D01*
X202822Y143832D01*
X202166Y144488D01*
Y142520D01*
X184252Y142126D02*
X183596D01*
X183924D01*
Y144094D01*
X184252Y143766D01*
X182612Y142126D02*
Y144094D01*
X181956Y143438D01*
X181300Y144094D01*
Y142126D01*
X152756D02*
X152100D01*
X152428D01*
Y144094D01*
X152756Y143766D01*
X151116Y142126D02*
Y144094D01*
X150460Y143438D01*
X149804Y144094D01*
Y142126D01*
X131890D02*
X131234D01*
X131562D01*
Y144094D01*
X131890Y143766D01*
X130250Y142126D02*
Y144094D01*
X129594Y143438D01*
X128938Y144094D01*
Y142126D01*
X101575Y143307D02*
X100919D01*
X101247D01*
Y145275D01*
X101575Y144947D01*
X99935Y143307D02*
Y145275D01*
X99279Y144619D01*
X98623Y145275D01*
Y143307D01*
X79921Y142913D02*
X79265D01*
X79593D01*
Y144881D01*
X79921Y144553D01*
X78281Y142913D02*
Y144881D01*
X77625Y144225D01*
X76969Y144881D01*
Y142913D01*
X149213Y254724D02*
X148557D01*
X148885D01*
Y256692D01*
X149213Y256364D01*
X147573Y256692D02*
Y254724D01*
Y255380D01*
X146261Y256692D01*
X147245Y255708D01*
X146261Y254724D01*
X110630Y299606D02*
X109974D01*
X110302D01*
Y301574D01*
X110630Y301246D01*
X108990D02*
X108662Y301574D01*
X108006D01*
X107678Y301246D01*
Y299934D01*
X108006Y299606D01*
X108662D01*
X108990Y299934D01*
Y301246D01*
X107022Y301574D02*
Y299606D01*
Y300262D01*
X105710Y301574D01*
X106694Y300590D01*
X105710Y299606D01*
X235827Y142520D02*
X235171D01*
X235499D01*
Y144488D01*
X235827Y144160D01*
X234187Y142520D02*
Y144488D01*
X233531Y143832D01*
X232875Y144488D01*
Y142520D01*
X256299Y143307D02*
X255643D01*
X255971D01*
Y145275D01*
X256299Y144947D01*
X254659Y143307D02*
Y145275D01*
X254003Y144619D01*
X253347Y145275D01*
Y143307D01*
X145145Y224410D02*
X146457D01*
X145145Y225721D01*
Y226049D01*
X145473Y226377D01*
X146129D01*
X146457Y226049D01*
X144489Y224410D02*
Y224737D01*
X144161D01*
Y224410D01*
X144489D01*
X141537D02*
X142849D01*
X141537Y225721D01*
Y226049D01*
X141865Y226377D01*
X142521D01*
X142849Y226049D01*
X140881Y225721D02*
Y224737D01*
X140553Y224410D01*
X139569D01*
Y225721D01*
X137601Y226377D02*
X138913D01*
Y225393D01*
X138257D01*
X138913D01*
Y224410D01*
X167323Y271260D02*
X166667D01*
X166995D01*
Y273228D01*
X167323Y272900D01*
X165683D02*
X165355Y273228D01*
X164699D01*
X164371Y272900D01*
Y271588D01*
X164699Y271260D01*
X165355D01*
X165683Y271588D01*
Y272900D01*
X163715Y272572D02*
Y271588D01*
X163387Y271260D01*
X162403D01*
Y272572D01*
X160435Y273228D02*
X161747D01*
Y272244D01*
X161091D01*
X161747D01*
Y271260D01*
X167323Y281496D02*
X166667D01*
X166995D01*
Y283464D01*
X167323Y283136D01*
X165683D02*
X165355Y283464D01*
X164699D01*
X164371Y283136D01*
Y281824D01*
X164699Y281496D01*
X165355D01*
X165683Y281824D01*
Y283136D01*
X163715Y282808D02*
Y281824D01*
X163387Y281496D01*
X162403D01*
Y282808D01*
X160435Y283464D02*
X161747D01*
Y282480D01*
X161091D01*
X161747D01*
Y281496D01*
X160630Y298819D02*
X159974D01*
X160302D01*
Y300787D01*
X160630Y300459D01*
X158990D02*
X158662Y300787D01*
X158006D01*
X157678Y300459D01*
Y299147D01*
X158006Y298819D01*
X158662D01*
X158990Y299147D01*
Y300459D01*
X157022Y300131D02*
Y299147D01*
X156694Y298819D01*
X155710D01*
Y300131D01*
X153742Y300787D02*
X155054D01*
Y299803D01*
X154398D01*
X155054D01*
Y298819D01*
D76*
X70874Y337913D02*
G03*
X70874Y337913I-984J0D01*
G01*
M02*
