<svg xmlns="http://www.w3.org/2000/svg" viewBox="0 0 4845.13 4170.51"><defs><style>.cls-1{fill:#fff;}</style></defs><title>Asset 1</title><g id="Layer_2" data-name="Layer 2"><g id="Layer_1-2" data-name="Layer 1"><path d="M4846.7,5.72v4166H6.17V5.72ZM3222.14,1663.12v2c-296.17,0-592.37-2-888.51.9-139.51,1.38-279.08,10.06-418.35,19.51-188.69,12.8-375.77,40-561.49,75.41-214.49,40.9-428,86-637.47,149-138.7,41.72-280.2,74.45-413.93,131.55-60.91,26-119.74,55.94-165.15,106.36C69.1,2223.51,76.86,2339.52,153,2406.92c48.49,43,104.05,73.94,163.18,97.78,128.73,51.89,257.93,102.7,388,151,97.18,36,194.61,73,294.57,99.62,170.38,45.39,345.15,70,520.8,83.51,194.35,15,389,28.16,583.81,34.5,175.94,5.73,352.21,1.15,528.34,1.14,470.15,0,940.3,1,1410.44-.58,159.27-.54,306.1-41.89,433.14-145,138.59-112.45,224-252.48,234.12-432.43,9.66-171.43-54.53-317.75-172.46-437.79C4408.72,1728.19,4247,1665.82,4065.2,1663.9,3784.21,1660.93,3503.16,1663.12,3222.14,1663.12Zm-1041.83-61.88h1144.5v-29.48c0-122.26-.75-244.52.43-366.77.38-39.75-17.84-66.22-52-80a203.86,203.86,0,0,0-72.48-14.4c-123.76-1.4-247.55-.87-371.33-.41-16.59.07-24.15-3.08-24-22.39.86-126.81.23-253.63.94-380.44,0-8.31,5-19.06,11.33-24.46,32.56-27.92,48.12-77.68,35.59-119.67-12.63-42.33-50.56-71.57-96.28-74.24-45.13-2.63-86.83,22.73-103.93,63.2-18.13,42.93-8,96,26.56,125.12,12.59,10.64,16.08,21.21,16,36.7-.55,123-.3,246-.3,369.06v26.88c-17.31,0-31.55,0-45.78,0-120.74.14-241.5-.82-362.21.87-70.74,1-107,40.45-107.06,110.23q0,133.28,0,266.55ZM1456.05,3409.71v-26.86c0-64.56-.64-129.14.39-193.69.31-19.14-5.88-25.48-24.71-24.26-21.94,1.43-44.17,1.85-66-.09-22.84-2-29.74,5.22-29.6,28.73,1,170.15.34,340.3.73,510.45a791.56,791.56,0,0,0,4.45,84.05c12.52,114.46,70.94,195.46,183,226.66,82.33,22.91,166,19.07,245.12-21.2,51.16-26,88.54-64.33,108.5-117.59,38.79-103.53,36.75-208.8,2.66-312.55-24.47-74.48-78.71-121.7-155-140-33.65-8-68.83-11.79-103.49-13.14C1567.7,3408.15,1513.16,3409.71,1456.05,3409.71Zm2400.85-237v29.52c0,175.35-.76,350.71.62,526.05.29,36.69,5.44,74,13.59,109.85,23.68,104.16,97.39,158.59,196,179.28,59.34,12.46,119.58,9,180-10.52,76.5-24.72,129-70,154.77-145.38,28.7-83.86,28.81-169.61,10.19-255.21-23.35-107.38-88.66-174.75-199.25-187.8-67.36-7.94-135.89-6-203.9-8.42-10.32-.37-20.67,0-33.26,0V3172.69ZM1248,3717.1c-6.35-42.54-9.62-85.83-19.72-127.47-19.13-78.9-66.5-135.47-145.23-161.27-73.91-24.23-149.2-24.77-224.4-6.07-77.71,19.31-133.25,65.88-158.56,142.26-33.11,99.87-34.49,201.16-1,301.65,28.39,85.21,94.26,131.85,176.15,151.33,73.81,17.55,149.36,15.74,221.55-18.2,55.6-26.12,96.36-64.54,120-121.21C1238.24,3826.73,1244.55,3772.86,1248,3717.1Zm1003.77,309.17c32.51-1.64,74.17-4.76,115.43-22.21,66.51-28.13,113-72.41,136.23-140.35,30.52-89.48,29.21-180.28,7.12-271.18-18.32-75.38-61-131.79-134.81-159.88-77.55-29.51-157.38-29.85-237.2-10-84.56,21.07-139.12,75.41-163,158.29-23,79.93-25.18,161.46-7.48,243,10.14,46.72,28.14,90,62.87,124C2089.28,4005.22,2161,4027.91,2251.74,4026.27ZM663.18,1848.6a45,45,0,0,0-1.62-10.41c-16.61-54.91-33.86-109.64-50.08-164.67-13-44.12-26.24-88.24-36.75-133-8.33-35.52-46.5-75-75.12-74.13-67.54,1.95-135.18.15-202.76,1.17-11.35.17-25.58,3.77-33.32,11.18-24.27,23.22-41.06,49.44-40.59,86.85,1.77,139,.71,278,.71,417v18.33ZM2617,3842.8c.52,42.54,9.94,77.65,34.92,108.9,32.89,41.14,80.26,56.82,127.1,65.48,64.88,12,132,15.14,196.06-8.71,26.48-9.86,53.8-21.17,76-38.06,52.92-40.29,60.72-99.11,53.77-160.11-6.43-56.52-36-100.51-89.65-120.75-35.46-13.38-74.41-18.39-112.24-24.38-40.22-6.36-81.22-7.85-121.4-14.42-35.26-5.78-46-20.46-48-55.42-1.7-29.65,13.26-50.63,44.05-60.25,53.93-16.85,108.27-16.06,162.6-2.06,26.63,6.87,46.62,20.91,48.45,52.65h116.05c4.9-69.19-35.68-130.48-101.82-153-89.87-30.54-181.18-29.5-271.85-4-48.07,13.53-84.57,43.29-102.85,91.37-14.37,37.79-13.8,76.9-7.6,116.3,8.57,54.46,40.69,92.57,90,110.62,39,14.25,81.8,18.35,123.21,25.15,35.6,5.85,71.86,7.73,107.36,14,33.72,5.91,44.07,17.68,45.72,43.86,2.45,38.71-6.58,56.52-40,66.24-56.36,16.4-113.76,16.17-170.14,0-20.3-5.83-39.23-16.94-41-43.13-.25-3.69-7.66-9.77-11.87-9.87C2689.16,3842.45,2654.39,3842.8,2617,3842.8ZM224.11,2535.87c0,151-.94,304.94.6,458.82.43,42.66,38.63,75,81.74,75.33q92.19.69,184.38,0c39.06-.27,72.63-27.73,81.81-65.73,4.07-16.84,7.21-33.94,12.14-50.52,24.29-81.58,49-163,73.94-245.54ZM3191.44,3411v26.64c0,96.44-1.21,192.91.61,289.32.7,36.75,5.72,73.92,13.46,109.89,10,46.59,32.7,87.52,68.38,120.46,36.59,33.77,82.39,50.48,128.77,60.19,63.82,13.36,128.57,9.89,190.83-14,41.45-15.92,79.12-36.67,106.54-73.24,43.36-57.83,56.81-124.69,57.72-194.54,1.31-101,.34-202,.34-303v-20.81H3638.54c0,102,.31,202.22-.23,302.41a625.53,625.53,0,0,1-4.94,74.66c-7.59,60.31-38.92,97.53-98.79,109.1-33.45,6.46-69.12,6.83-103.19,3.6-62.68-6-99-38.29-113.18-97.26-5.42-22.55-7-46.44-7.21-69.75-.75-99.47-.32-199-.32-298.44V3411Zm-2569.95-3.44c-40,4.06-77.12,5.75-113.48,11.89C385.75,3440,319.46,3507.44,316.8,3620c-3.06,129.72-.85,259.56-1.32,389.35-.05,12.71,4.56,17.91,17.1,17.76,24.28-.3,48.57.06,72.86,0,29.6-.07,29.63-.13,29.63-30.09,0-119.17-.27-238.33.12-357.5.2-62.4,22.26-90.2,83.52-102.7,27.27-5.57,55.45-7.55,83.33-8.8,14.71-.67,20.09-4.72,19.7-19.64C620.91,3476.59,621.49,3444.81,621.49,3407.51ZM2052.37,558.89c0,2.28,0,4.56,0,6.83.16,26.38,12.33,41.71,33.65,42.4,22.37.72,32.52-12.09,36.71-38.87,8.38-53.54,13.48-108.38,29.28-159.81,32.77-106.67,92.76-197.71,175.64-273.25,18.81-17.13,20.4-34.64,6.67-49.14-13.44-14.21-36.23-14.54-53.14-.2-13.24,11.24-26.49,22.57-38.8,34.8C2203.64,160.17,2173.69,205,2146,252,2089.86,347,2059,449.1,2052.37,558.89Zm1395.81-28.81c-7.92-101-44.43-202-101.33-297.07-36.36-60.73-83.43-111-136.66-156.18-20.66-17.52-44-16.07-56.2-.62-13.24,16.83-8.65,32.06,11.63,53.12,31.81,33,64.48,65.65,92.67,101.65,73.26,93.57,111.88,201,120.41,319.43,1.77,24.5,16,36.83,40.2,35.44C3442,584.52,3449.51,572.77,3448.18,530.08ZM2262.1,613.22c22.2.07,34.49-13.64,36.85-39.62,2-21.76,3-43.88,7.89-65.05,20.95-90.88,66.3-167.24,138.48-227.19,20.37-16.91,23.31-34.7,9.91-50.83-13.73-16.54-38.61-17.95-56.22-1.07-23.9,22.89-48.46,45.59-69.07,71.31-62.67,78.2-94.46,169-103.89,268.2C2223.61,594.6,2238.23,613.14,2262.1,613.22Zm1012.81-58,5.58-1.61C3266.56,506,3255.94,457.07,3238,411c-29.14-74.51-76.88-136.81-140.43-186.08-15.62-12.12-44.33-9.29-53.95,3.2-12.13,15.76-7.71,34.07,12.18,50.89,87.28,73.77,136.53,167.76,149.1,281.12,2.86,25.79,13.42,35.91,37.64,34.82C3265.35,594,3275.21,581.87,3274.91,555.22Zm-834.36,62.57c21.06-.14,34.39-11.8,35.73-35.48,3.82-67.44,34-120.77,83.73-164.82,21.24-18.8,22.8-35.85,7.27-52.6-13.9-15-36.23-14.42-54.68,1.37-65.31,55.93-99.93,127.61-108.66,212.42C2401.65,601,2417.93,617.94,2440.55,617.79Zm660-50c-8.7-29.5-15.06-59.94-26.61-88.26-19-46.7-47.87-87.36-89.64-116.86-19-13.44-38.32-9.71-50.18,6.23-11.49,15.43-9.3,31.68,8.88,47.66,47.94,42.15,76.26,94.3,84.53,157.71,3,22.73,16.61,32,39.74,29.74C3087.2,602,3097.07,590.37,3100.53,567.75Z" transform="translate(-1.57 -1.16)"/><path class="cls-1" d="M4846.7,5.72H6.17v4166c-1.52-.76-4.3-1.44-4.35-2.29-.38-6.05-.21-12.14-.21-18.22V1.16q2412.3,0,4824.58.19C4833,1.35,4839.87,4.2,4846.7,5.72Z" transform="translate(-1.57 -1.16)"/><path class="cls-1" d="M3222.14,1663.12c281,0,562.07-2.19,843.06.78,181.82,1.92,343.52,64.29,471.74,194.78,117.93,120,182.12,266.36,172.46,437.79-10.13,180-95.53,320-234.12,432.43-127,103.07-273.87,144.42-433.14,145-470.14,1.62-940.29.57-1410.44.58-176.13,0-352.4,4.59-528.34-1.14-194.78-6.34-389.46-19.52-583.81-34.5-175.65-13.54-350.42-38.12-520.8-83.51-100-26.63-197.39-63.57-294.57-99.62-130.12-48.27-259.32-99.08-388-151C257,2480.86,201.44,2449.89,153,2406.92c-76.09-67.4-83.85-183.41-15.71-259.05,45.41-50.42,104.24-80.35,165.15-106.36,133.73-57.1,275.23-89.83,413.93-131.55,209.5-63,423-108.12,637.47-149,185.72-35.41,372.8-62.61,561.49-75.41,139.27-9.45,278.84-18.13,418.35-19.51,296.14-2.94,592.34-.9,888.51-.9Z" transform="translate(-1.57 -1.16)"/><path class="cls-1" d="M2180.31,1601.24V1487.58q0-133.27,0-266.55c0-69.78,36.32-109.24,107.06-110.23,120.71-1.69,241.47-.73,362.21-.87,14.23,0,28.47,0,45.78,0v-26.88c0-123-.25-246,.3-369.06.07-15.49-3.42-26.06-16-36.7-34.55-29.17-44.69-82.19-26.56-125.12,17.1-40.47,58.8-65.83,103.93-63.2,45.72,2.67,83.65,31.91,96.28,74.24,12.53,42-3,91.75-35.59,119.67-6.3,5.4-11.29,16.15-11.33,24.46-.71,126.81-.08,253.63-.94,380.44-.13,19.31,7.43,22.46,24,22.39,123.78-.46,247.57-1,371.33.41a203.86,203.86,0,0,1,72.48,14.4c34.13,13.79,52.35,40.26,52,80-1.18,122.25-.43,244.51-.43,366.77v29.48ZM2975.66,1494c57,.7,129.42-59.36,128.58-134.42-.79-69.51-58.7-128-127.7-128.4-70.22-.43-128.9,58.2-129.71,128.75C2846,1434.62,2918.29,1494.67,2975.66,1494Zm-572-133.94c-5.4,73,73.23,134.55,127.79,134.37,54-.17,130.6-61.23,127.78-135.21-2.65-69.84-58.06-127.71-127.44-128C2460.83,1230.86,2403.59,1288.43,2403.66,1360.05Z" transform="translate(-1.57 -1.16)"/><path class="cls-1" d="M1456.05,3409.71c57.11,0,111.65-1.56,166,.56,34.66,1.35,69.84,5.09,103.49,13.14,76.29,18.25,130.53,65.47,155,140,34.09,103.75,36.13,209-2.66,312.55-20,53.26-57.34,91.57-108.5,117.59-79.17,40.27-162.79,44.11-245.12,21.2-112.09-31.2-170.51-112.2-183-226.66a791.56,791.56,0,0,1-4.45-84.05c-.39-170.15.27-340.3-.73-510.45-.14-23.51,6.76-30.75,29.6-28.73,21.86,1.94,44.09,1.52,66,.09,18.83-1.22,25,5.12,24.71,24.26-1,64.55-.39,129.13-.39,193.69Zm0,119.22c0,13.57-.23,26.27,0,39,1.51,72,.31,144.14,5.57,215.84,4.72,64.35,41.86,105,103.87,115.28a344.49,344.49,0,0,0,108.11.46c58.94-9.29,98.65-45.62,104.58-106.63,4.78-49.25,7-100.1.18-148.82-10.09-72.31-45.47-107.07-118-113.77C1593.64,3524.07,1525.88,3528.93,1456.05,3528.93Z" transform="translate(-1.57 -1.16)"/><path class="cls-1" d="M3856.9,3172.69h118.7V3410c12.59,0,22.94-.32,33.26,0,68,2.39,136.54.48,203.9,8.42,110.59,13.05,175.9,80.42,199.25,187.8,18.62,85.6,18.51,171.35-10.19,255.21-25.81,75.41-78.27,120.66-154.77,145.38-60.4,19.52-120.64,23-180,10.52-98.57-20.69-172.28-75.12-196-179.28-8.15-35.84-13.3-73.16-13.59-109.85-1.38-175.34-.62-350.7-.62-526.05Zm119.24,480h.58c0,37.18-2.34,74.55.55,111.5,4.16,53,19.36,101.06,74.37,125.19,36.47,16,74.52,19.39,113.26,16.19,74.21-6.12,119.68-39.33,131.34-105.76,8.14-46.38,9.17-95.26,4.93-142.26-6.05-67.1-38.24-120.25-111.84-127.8-66-6.77-132.83-5.83-199.32-6.86-4.52-.07-13,11.75-13.24,18.26C3975.48,3578.33,3976.14,3615.53,3976.14,3652.72Z" transform="translate(-1.57 -1.16)"/><path class="cls-1" d="M1248,3717.1c-3.42,55.76-9.73,109.63-31.19,161-23.66,56.67-64.42,95.09-120,121.21-72.19,33.94-147.74,35.75-221.55,18.2-81.89-19.48-147.76-66.12-176.15-151.33-33.49-100.49-32.11-201.78,1-301.65,25.31-76.38,80.85-123,158.56-142.26,75.2-18.7,150.49-18.16,224.4,6.07,78.73,25.8,126.1,82.37,145.23,161.27C1238.35,3631.27,1241.62,3674.56,1248,3717.1ZM961.39,3525.93l-.18,1.68c-9.11,0-18.24-.41-27.33.06-65.22,3.41-108,33.91-125,93.33-18.28,64-18.15,128.74-.47,193.21,11.41,41.58,38.57,67.87,79,80.67,46,14.58,92.69,14.5,139.25,2.53,46.83-12,77-42,88.35-88.75,14.78-60.66,14.44-121.72-.46-182.53-13.4-54.67-48.26-86-103.61-94.49C994.5,3529.12,977.9,3527.8,961.39,3525.93Z" transform="translate(-1.57 -1.16)"/><path class="cls-1" d="M2251.74,4026.27c-90.71,1.64-162.46-21.05-220.79-78.21-34.73-34-52.73-77.33-62.87-124-17.7-81.57-15.51-163.1,7.48-243,23.83-82.88,78.39-137.22,163-158.29,79.82-19.89,159.65-19.55,237.2,10,73.79,28.09,116.49,84.5,134.81,159.88,22.09,90.9,23.4,181.7-7.12,271.18-23.18,67.94-69.72,112.22-136.23,140.35C2325.91,4021.51,2284.25,4024.63,2251.74,4026.27Zm-7.43-501.63c-.17,1-.33,1.91-.49,2.87-8.36,0-16.72-.23-25.07,0-72.05,2.3-116.21,37.52-132.5,107.61-12.34,53.16-11.41,106.78-1.41,160.36,10.43,55.82,42.5,91.11,98.21,103.69,40.59,9.17,81.24,9.08,121.78-1.13,50.41-12.69,81.77-44,93.15-94.85a387.79,387.79,0,0,0,1.57-162.69c-10.2-50.56-34.26-91.09-88.47-104.43C2289.21,3530.73,2266.59,3528.37,2244.31,3524.64Z" transform="translate(-1.57 -1.16)"/><path class="cls-1" d="M663.18,1848.6,223.65,2000.9v-18.33c0-139,1.06-278-.71-417-.47-37.41,16.32-63.63,40.59-86.85,7.74-7.41,22-11,33.32-11.18,67.58-1,135.22.78,202.76-1.17,28.62-.82,66.79,38.61,75.12,74.13,10.51,44.74,23.74,88.86,36.75,133,16.22,55,33.47,109.76,50.08,164.67A45,45,0,0,1,663.18,1848.6Z" transform="translate(-1.57 -1.16)"/><path class="cls-1" d="M2617,3842.8c37.38,0,72.15-.35,106.89.45,4.21.1,11.62,6.18,11.87,9.87,1.79,26.19,20.72,37.3,41,43.13,56.38,16.18,113.78,16.41,170.14,0,33.38-9.72,42.41-27.53,40-66.24-1.65-26.18-12-37.95-45.72-43.86-35.5-6.24-71.76-8.12-107.36-14-41.41-6.8-84.26-10.9-123.21-25.15-49.34-18.05-81.46-56.16-90-110.62-6.2-39.4-6.77-78.51,7.6-116.3,18.28-48.08,54.78-77.84,102.85-91.37,90.67-25.53,182-26.57,271.85,4,66.14,22.47,106.72,83.76,101.82,153H2988.64c-1.83-31.74-21.82-45.78-48.45-52.65-54.33-14-108.67-14.79-162.6,2.06-30.79,9.62-45.75,30.6-44.05,60.25,2,35,12.76,49.64,48,55.42,40.18,6.57,81.18,8.06,121.4,14.42,37.83,6,76.78,11,112.24,24.38,53.62,20.24,83.22,64.23,89.65,120.75,7,61-.85,119.82-53.77,160.11-22.19,16.89-49.51,28.2-76,38.06-64,23.85-131.18,20.72-196.06,8.71-46.84-8.66-94.21-24.34-127.1-65.48C2627,3920.45,2617.53,3885.34,2617,3842.8Z" transform="translate(-1.57 -1.16)"/><path class="cls-1" d="M224.11,2535.87l434.61,172.37c-24.9,82.51-49.65,164-73.94,245.54-4.93,16.58-8.07,33.68-12.14,50.52-9.18,38-42.75,65.46-81.81,65.73q-92.19.61-184.38,0c-43.11-.32-81.31-32.67-81.74-75.33C223.17,2840.81,224.11,2686.91,224.11,2535.87Z" transform="translate(-1.57 -1.16)"/><path class="cls-1" d="M3191.44,3411h119.24v25.21c0,99.48-.43,199,.32,298.44.18,23.31,1.79,47.2,7.21,69.75,14.17,59,50.5,91.31,113.18,97.26,34.07,3.23,69.74,2.86,103.19-3.6,59.87-11.57,91.2-48.79,98.79-109.1a625.53,625.53,0,0,0,4.94-74.66c.54-100.19.23-200.38.23-302.41h119.55v20.81c0,101,1,202-.34,303-.91,69.85-14.36,136.71-57.72,194.54-27.42,36.57-65.09,57.32-106.54,73.24-62.26,23.91-127,27.38-190.83,14-46.38-9.71-92.18-26.42-128.77-60.19-35.68-32.94-58.34-73.87-68.38-120.46-7.74-36-12.76-73.14-13.46-109.89-1.82-96.41-.61-192.88-.61-289.32Z" transform="translate(-1.57 -1.16)"/><path class="cls-1" d="M621.49,3407.51c0,37.3-.58,69.08.25,100.84.39,14.92-5,19-19.7,19.64-27.88,1.25-56.06,3.23-83.33,8.8-61.26,12.5-83.32,40.3-83.52,102.7-.39,119.17-.11,238.33-.12,357.5,0,30,0,30-29.63,30.09-24.29.06-48.58-.3-72.86,0-12.54.15-17.15-5-17.1-17.76.47-129.79-1.74-259.63,1.32-389.35C319.46,3507.44,385.75,3440,508,3419.4,544.37,3413.26,581.49,3411.57,621.49,3407.51Z" transform="translate(-1.57 -1.16)"/><path class="cls-1" d="M2052.38,558.89C2059,449.1,2089.86,347,2146,252c27.74-47,57.69-91.84,96.44-130.36,12.31-12.23,25.56-23.56,38.8-34.8,16.91-14.34,39.7-14,53.14.2,13.73,14.5,12.14,32-6.67,49.14-82.88,75.54-142.87,166.58-175.64,273.25-15.8,51.43-20.9,106.27-29.28,159.81-4.19,26.78-14.34,39.59-36.71,38.87-21.32-.69-33.49-16-33.65-42.4C2052.36,563.45,2052.37,561.17,2052.38,558.89Z" transform="translate(-1.57 -1.16)"/><path class="cls-1" d="M3448.18,530.08c1.33,42.69-6.22,54.44-29.28,55.77-24.23,1.39-38.43-10.94-40.2-35.44C3370.17,432,3331.55,324.55,3258.29,231c-28.19-36-60.86-68.62-92.67-101.65C3145.34,108.27,3140.75,93,3154,76.21c12.16-15.45,35.54-16.9,56.2.62,53.23,45.15,100.3,95.45,136.66,156.18C3403.75,328.08,3440.26,429.06,3448.18,530.08Z" transform="translate(-1.57 -1.16)"/><path class="cls-1" d="M2262.1,613.22c-23.87-.08-38.49-18.62-36-44.25,9.43-99.21,41.22-190,103.89-268.2,20.61-25.72,45.17-48.42,69.07-71.31,17.61-16.88,42.49-15.47,56.22,1.07,13.4,16.13,10.46,33.92-9.91,50.83-72.18,59.95-117.53,136.31-138.48,227.19-4.88,21.17-5.92,43.29-7.89,65.05C2296.59,599.58,2284.3,613.29,2262.1,613.22Z" transform="translate(-1.57 -1.16)"/><path class="cls-1" d="M3274.91,555.22c.3,26.65-9.56,38.74-32.42,39.77-24.22,1.09-34.78-9-37.64-34.82-12.57-113.36-61.82-207.35-149.1-281.12-19.89-16.82-24.31-35.13-12.18-50.89,9.62-12.49,38.33-15.32,53.95-3.2C3161.07,274.23,3208.81,336.53,3238,411c18,46,28.61,94.95,42.54,142.57Z" transform="translate(-1.57 -1.16)"/><path class="cls-1" d="M2440.55,617.79c-22.62.15-38.9-16.81-36.61-39.11,8.73-84.81,43.35-156.49,108.66-212.42,18.45-15.79,40.78-16.36,54.68-1.37,15.53,16.75,14,33.8-7.27,52.6-49.75,44.05-79.91,97.38-83.73,164.82C2474.94,606,2461.61,617.65,2440.55,617.79Z" transform="translate(-1.57 -1.16)"/><path class="cls-1" d="M3100.53,567.75c-3.46,22.62-13.33,34.26-33.28,36.22-23.13,2.29-36.77-7-39.74-29.74-8.27-63.41-36.59-115.56-84.53-157.71-18.18-16-20.37-32.23-8.88-47.66,11.86-15.94,31.15-19.67,50.18-6.23,41.77,29.5,70.6,70.16,89.64,116.86C3085.47,507.81,3091.83,538.25,3100.53,567.75Z" transform="translate(-1.57 -1.16)"/><path d="M2975.66,1494c-57.37.68-129.69-59.37-128.83-134.07.81-70.55,59.49-129.18,129.71-128.75,69,.42,126.91,58.89,127.7,128.4C3105.08,1434.63,3032.65,1494.69,2975.66,1494Z" transform="translate(-1.57 -1.16)"/><path d="M2403.66,1360.05c-.07-71.62,57.17-129.19,128.13-128.87,69.38.32,124.79,58.19,127.44,128,2.82,74-73.82,135-127.78,135.21C2476.89,1494.6,2398.26,1433,2403.66,1360.05Z" transform="translate(-1.57 -1.16)"/><path d="M1456.05,3528.93c69.83,0,137.59-4.86,204.33,1.31,72.55,6.7,107.93,41.46,118,113.77,6.8,48.72,4.6,99.57-.18,148.82-5.93,61-45.64,97.34-104.58,106.63a344.49,344.49,0,0,1-108.11-.46c-62-10.25-99.15-50.93-103.87-115.28-5.26-71.7-4.06-143.87-5.57-215.84C1455.82,3555.2,1456.05,3542.5,1456.05,3528.93Z" transform="translate(-1.57 -1.16)"/><path d="M3976.14,3652.72c0-37.19-.66-74.39.63-111.54.22-6.51,8.72-18.33,13.24-18.26,66.49,1,133.31.09,199.32,6.86,73.6,7.55,105.79,60.7,111.84,127.8,4.24,47,3.21,95.88-4.93,142.26-11.66,66.43-57.13,99.64-131.34,105.76-38.74,3.2-76.79-.19-113.26-16.19-55-24.13-70.21-72.16-74.37-125.19-2.89-36.95-.55-74.32-.55-111.5Z" transform="translate(-1.57 -1.16)"/><path d="M961.39,3525.93c16.51,1.87,33.11,3.19,49.52,5.71,55.35,8.51,90.21,39.82,103.61,94.49,14.9,60.81,15.24,121.87.46,182.53-11.39,46.74-41.52,76.7-88.35,88.75-46.56,12-93.2,12.05-139.25-2.53-40.41-12.8-67.57-39.09-79-80.67-17.68-64.47-17.81-129.25.47-193.21,17-59.42,59.79-89.92,125-93.33,9.09-.47,18.22-.06,27.33-.06Z" transform="translate(-1.57 -1.16)"/><path d="M2244.31,3524.64c22.28,3.73,44.9,6.09,66.77,11.47,54.21,13.34,78.27,53.87,88.47,104.43a387.79,387.79,0,0,1-1.57,162.69c-11.38,50.89-42.74,82.16-93.15,94.85-40.54,10.21-81.19,10.3-121.78,1.13-55.71-12.58-87.78-47.87-98.21-103.69-10-53.58-10.93-107.2,1.41-160.36,16.29-70.09,60.45-105.31,132.5-107.61,8.35-.27,16.71,0,25.07,0C2244,3526.55,2244.14,3525.6,2244.31,3524.64Z" transform="translate(-1.57 -1.16)"/></g></g></svg>