G04*
G04 #@! TF.GenerationSoftware,Altium Limited,Altium Designer,19.1.9 (167)*
G04*
G04 Layer_Physical_Order=1*
G04 Layer_Color=255*
%FSLAX25Y25*%
%MOIN*%
G70*
G01*
G75*
%ADD11C,0.01000*%
%ADD19R,0.03543X0.01968*%
%ADD20R,0.01968X0.03543*%
%ADD21R,0.03000X0.01800*%
%ADD22R,0.02756X0.05118*%
%ADD23R,0.04488X0.07008*%
%ADD24R,0.01500X0.04400*%
%ADD25R,0.14173X0.08661*%
%ADD26R,0.04800X0.08800*%
G04:AMPARAMS|DCode=27|XSize=23.23mil|YSize=24.8mil|CornerRadius=0mil|HoleSize=0mil|Usage=FLASHONLY|Rotation=135.000|XOffset=0mil|YOffset=0mil|HoleType=Round|Shape=Rectangle|*
%AMROTATEDRECTD27*
4,1,4,0.01698,0.00056,-0.00056,-0.01698,-0.01698,-0.00056,0.00056,0.01698,0.01698,0.00056,0.0*
%
%ADD27ROTATEDRECTD27*%

G04:AMPARAMS|DCode=28|XSize=23.23mil|YSize=24.8mil|CornerRadius=0mil|HoleSize=0mil|Usage=FLASHONLY|Rotation=45.000|XOffset=0mil|YOffset=0mil|HoleType=Round|Shape=Rectangle|*
%AMROTATEDRECTD28*
4,1,4,0.00056,-0.01698,-0.01698,0.00056,-0.00056,0.01698,0.01698,-0.00056,0.00056,-0.01698,0.0*
%
%ADD28ROTATEDRECTD28*%

G04:AMPARAMS|DCode=29|XSize=19.68mil|YSize=35.43mil|CornerRadius=0mil|HoleSize=0mil|Usage=FLASHONLY|Rotation=45.000|XOffset=0mil|YOffset=0mil|HoleType=Round|Shape=Rectangle|*
%AMROTATEDRECTD29*
4,1,4,0.00557,-0.01949,-0.01949,0.00557,-0.00557,0.01949,0.01949,-0.00557,0.00557,-0.01949,0.0*
%
%ADD29ROTATEDRECTD29*%

G04:AMPARAMS|DCode=30|XSize=19.68mil|YSize=35.43mil|CornerRadius=0mil|HoleSize=0mil|Usage=FLASHONLY|Rotation=315.000|XOffset=0mil|YOffset=0mil|HoleType=Round|Shape=Rectangle|*
%AMROTATEDRECTD30*
4,1,4,-0.01949,-0.00557,0.00557,0.01949,0.01949,0.00557,-0.00557,-0.01949,-0.01949,-0.00557,0.0*
%
%ADD30ROTATEDRECTD30*%

%ADD31R,0.05000X0.02100*%
%ADD32R,0.03347X0.02559*%
G04:AMPARAMS|DCode=33|XSize=33.86mil|YSize=10.24mil|CornerRadius=1.28mil|HoleSize=0mil|Usage=FLASHONLY|Rotation=180.000|XOffset=0mil|YOffset=0mil|HoleType=Round|Shape=RoundedRectangle|*
%AMROUNDEDRECTD33*
21,1,0.03386,0.00768,0,0,180.0*
21,1,0.03130,0.01024,0,0,180.0*
1,1,0.00256,-0.01565,0.00384*
1,1,0.00256,0.01565,0.00384*
1,1,0.00256,0.01565,-0.00384*
1,1,0.00256,-0.01565,-0.00384*
%
%ADD33ROUNDEDRECTD33*%
G04:AMPARAMS|DCode=34|XSize=33.86mil|YSize=10.24mil|CornerRadius=1.28mil|HoleSize=0mil|Usage=FLASHONLY|Rotation=90.000|XOffset=0mil|YOffset=0mil|HoleType=Round|Shape=RoundedRectangle|*
%AMROUNDEDRECTD34*
21,1,0.03386,0.00768,0,0,90.0*
21,1,0.03130,0.01024,0,0,90.0*
1,1,0.00256,0.00384,0.01565*
1,1,0.00256,0.00384,-0.01565*
1,1,0.00256,-0.00384,-0.01565*
1,1,0.00256,-0.00384,0.01565*
%
%ADD34ROUNDEDRECTD34*%
%ADD35R,0.03858X0.14567*%
%ADD36R,0.15000X0.08000*%
%ADD37P,0.31180X4X270.0*%
G04:AMPARAMS|DCode=38|XSize=6mil|YSize=29.53mil|CornerRadius=0mil|HoleSize=0mil|Usage=FLASHONLY|Rotation=225.000|XOffset=0mil|YOffset=0mil|HoleType=Round|Shape=Round|*
%AMOVALD38*
21,1,0.02353,0.00600,0.00000,0.00000,315.0*
1,1,0.00600,-0.00832,0.00832*
1,1,0.00600,0.00832,-0.00832*
%
%ADD38OVALD38*%

G04:AMPARAMS|DCode=39|XSize=6mil|YSize=29.53mil|CornerRadius=0mil|HoleSize=0mil|Usage=FLASHONLY|Rotation=315.000|XOffset=0mil|YOffset=0mil|HoleType=Round|Shape=Round|*
%AMOVALD39*
21,1,0.02353,0.00600,0.00000,0.00000,45.0*
1,1,0.00600,-0.00832,-0.00832*
1,1,0.00600,0.00832,0.00832*
%
%ADD39OVALD39*%

G04:AMPARAMS|DCode=40|XSize=51.18mil|YSize=43.31mil|CornerRadius=0mil|HoleSize=0mil|Usage=FLASHONLY|Rotation=135.000|XOffset=0mil|YOffset=0mil|HoleType=Round|Shape=Rectangle|*
%AMROTATEDRECTD40*
4,1,4,0.03341,-0.00278,0.00278,-0.03341,-0.03341,0.00278,-0.00278,0.03341,0.03341,-0.00278,0.0*
%
%ADD40ROTATEDRECTD40*%

%ADD41R,0.08000X0.15000*%
%ADD42R,0.02480X0.02323*%
%ADD43R,0.05118X0.02756*%
%ADD48R,0.07441X0.06181*%
%ADD57R,0.06614X0.06614*%
%ADD77C,0.01500*%
%ADD78C,0.01200*%
%ADD79C,0.03000*%
%ADD80C,0.01800*%
%ADD81C,0.04500*%
%ADD82C,0.02000*%
%ADD83C,0.02500*%
%ADD84C,0.03500*%
%ADD85R,0.04000X0.01000*%
%ADD86R,0.07500X0.17500*%
%ADD87R,0.25000X0.10500*%
%ADD88R,0.24800X0.11000*%
%ADD89R,0.15000X0.10500*%
%ADD90C,0.06000*%
%ADD91C,0.01181*%
%ADD92C,0.04724*%
%ADD93C,0.08000*%
%ADD94C,0.05906*%
%ADD95R,0.05906X0.05906*%
%ADD96C,0.23622*%
%ADD97R,0.06496X0.06496*%
%ADD98C,0.06496*%
%ADD99C,0.01800*%
%ADD100C,0.02000*%
%ADD101C,0.03500*%
%ADD102C,0.03000*%
%ADD103C,0.02500*%
%ADD104C,0.02700*%
%ADD105C,0.02200*%
%ADD106C,0.01968*%
G36*
X32500Y51500D02*
X33000D01*
X34000Y52500D01*
X35000D01*
Y50897D01*
X35240Y50656D01*
X34694Y50110D01*
X33436D01*
X32500Y51500D01*
D02*
G37*
G36*
X31000Y53100D02*
D01*
D02*
G37*
G36*
X33638Y56856D02*
X32500Y55717D01*
Y55400D01*
X36000Y54400D01*
X34819Y56081D01*
Y56657D01*
X33638Y56856D01*
D02*
G37*
G36*
X63627Y104522D02*
X63118Y104014D01*
X64293Y102839D01*
X65877Y104423D01*
X66584Y103716D01*
X65000Y102132D01*
X65832Y101300D01*
X65050Y100518D01*
X64084Y101484D01*
X62500Y99900D01*
X60916Y98316D01*
X61882Y97350D01*
X60950Y96418D01*
X60084Y97284D01*
X58500Y95700D01*
X58147Y96053D01*
X57793Y95700D01*
X56265Y97228D01*
X55168Y96132D01*
X52016Y99284D01*
X57716Y104984D01*
X58366Y104984D01*
X63436D01*
X63627Y104522D01*
D02*
G37*
G36*
X70818Y136300D02*
X69362Y134845D01*
X70766Y133442D01*
X72169Y132038D01*
X73600Y133470D01*
X74100Y133263D01*
Y132600D01*
X70200Y128700D01*
Y127941D01*
X69738Y127749D01*
X68396Y129092D01*
X66158Y126853D01*
X65804Y127207D01*
X65451Y126853D01*
X62934Y129370D01*
X61532Y127968D01*
X60554Y128946D01*
X60233Y129313D01*
X60563Y129644D01*
X61282Y130362D01*
X59322Y132322D01*
X57362Y134282D01*
X56606Y133526D01*
X56597Y133521D01*
X56100Y133727D01*
Y135300D01*
X57600Y136800D01*
X70611D01*
X70818Y136300D01*
D02*
G37*
G36*
X66500Y149000D02*
X59000D01*
X57772Y150228D01*
X57979Y150728D01*
X58953D01*
Y153500D01*
Y156272D01*
X57979D01*
X57772Y156772D01*
X59500Y158500D01*
X66500D01*
Y149000D01*
D02*
G37*
G36*
X91453Y252046D02*
Y238546D01*
X91453Y224453D01*
X53453Y224453D01*
X52600Y223600D01*
Y220454D01*
X45000D01*
Y217454D01*
X43000D01*
Y219400D01*
X40000Y222400D01*
Y230000D01*
X43000D01*
X44500Y228500D01*
X75500D01*
X77000Y230000D01*
Y240000D01*
X73500Y243500D01*
X58000D01*
X57000Y244500D01*
Y252500D01*
X59000Y254500D01*
X89000D01*
X91453Y252046D01*
D02*
G37*
G36*
X39000Y216454D02*
X40500Y214953D01*
X45335D01*
Y211454D01*
X34500D01*
X33500Y212454D01*
X33500Y228954D01*
X35000Y230453D01*
X39000Y230453D01*
Y216454D01*
D02*
G37*
G36*
X66000Y218953D02*
X66000Y209953D01*
X56500Y209953D01*
X56500Y218953D01*
X66000Y218953D01*
D02*
G37*
G36*
X86500Y205500D02*
X85000Y204000D01*
Y195500D01*
X84000Y194500D01*
X80000D01*
X79000Y195500D01*
X79000Y204000D01*
X77500Y205500D01*
X77500Y209500D01*
X86500D01*
X86500Y205500D01*
D02*
G37*
G36*
X52500Y204453D02*
X51000Y202954D01*
Y184953D01*
X50000Y183953D01*
X44000D01*
X43500Y184453D01*
Y201453D01*
X47500Y205453D01*
Y209496D01*
X52500D01*
Y204453D01*
D02*
G37*
G36*
X36500Y234700D02*
X32000Y230200D01*
X32000Y211500D01*
X34547Y208953D01*
X40500D01*
X41500Y207954D01*
Y184953D01*
X39000Y181651D01*
X33198D01*
X24500Y189703D01*
X24500Y233400D01*
X27800Y236700D01*
Y242100D01*
X36500D01*
Y234700D01*
D02*
G37*
G36*
X114000Y205000D02*
Y177000D01*
X113000Y176000D01*
X106000D01*
X105000Y177000D01*
Y188000D01*
X103000Y190000D01*
X89000D01*
X87000Y192000D01*
Y205000D01*
X89000Y207000D01*
X112000D01*
X114000Y205000D01*
D02*
G37*
%LPC*%
G36*
X62202Y103366D02*
X60972Y102136D01*
X62147Y100961D01*
X63377Y102191D01*
X62202Y103366D01*
D02*
G37*
G36*
X60264Y101428D02*
X59034Y100198D01*
X60209Y99023D01*
X61439Y100253D01*
X60264Y101428D01*
D02*
G37*
G36*
X58202Y99166D02*
X56972Y97935D01*
X58147Y96761D01*
X59377Y97991D01*
X58202Y99166D01*
D02*
G37*
G36*
X59119Y136039D02*
X58069Y134989D01*
X59676Y133383D01*
X60725Y134432D01*
X59119Y136039D01*
D02*
G37*
G36*
X68655Y134137D02*
X67049Y132531D01*
X68099Y131482D01*
X69705Y133088D01*
X68655Y134137D01*
D02*
G37*
G36*
X61432Y133725D02*
X60383Y132676D01*
X61989Y131070D01*
X63039Y132119D01*
X61432Y133725D01*
D02*
G37*
G36*
X70412Y132381D02*
X68806Y130775D01*
X69855Y129725D01*
X71461Y131331D01*
X70412Y132381D01*
D02*
G37*
G36*
X65526Y131962D02*
X63641Y130077D01*
X65804Y127914D01*
X67689Y129799D01*
X65526Y131962D01*
D02*
G37*
G36*
X61437Y156272D02*
X59953D01*
Y154000D01*
X61437D01*
Y156272D01*
D02*
G37*
G36*
Y153000D02*
X59953D01*
Y150728D01*
X61437D01*
Y153000D01*
D02*
G37*
G36*
X94500Y204600D02*
X91600D01*
Y199700D01*
X94500D01*
Y204600D01*
D02*
G37*
G36*
X90600D02*
X87700D01*
Y199700D01*
X90600D01*
Y204600D01*
D02*
G37*
G36*
X104059Y196118D02*
X101000D01*
Y194240D01*
X104059D01*
Y196118D01*
D02*
G37*
G36*
X100000D02*
X96941D01*
Y194240D01*
X100000D01*
Y196118D01*
D02*
G37*
G36*
X94500Y198700D02*
X91600D01*
Y193800D01*
X94500D01*
Y198700D01*
D02*
G37*
G36*
X90600D02*
X87700D01*
Y193800D01*
X90600D01*
Y198700D01*
D02*
G37*
G36*
X104059Y193240D02*
X101000D01*
Y191362D01*
X104059D01*
Y193240D01*
D02*
G37*
G36*
X100000D02*
X96941D01*
Y191362D01*
X100000D01*
Y193240D01*
D02*
G37*
G36*
X111772Y180937D02*
X109500D01*
Y179453D01*
X111772D01*
Y180937D01*
D02*
G37*
G36*
X108500D02*
X106228D01*
Y179453D01*
X108500D01*
Y180937D01*
D02*
G37*
G36*
X111772Y178453D02*
X109500D01*
Y176969D01*
X111772D01*
Y178453D01*
D02*
G37*
G36*
X108500D02*
X106228D01*
Y176969D01*
X108500D01*
Y178453D01*
D02*
G37*
%LPD*%
D11*
X33194Y50235D02*
G03*
X35500Y51500I806J1265D01*
G01*
X32683Y50783D02*
G03*
X33194Y50235I1317J717D01*
G01*
X32500Y51500D02*
G03*
X32683Y50783I1500J0D01*
G01*
X32586Y55900D02*
G03*
X32500Y55400I1414J-500D01*
G01*
X35500D02*
G03*
X32586Y55900I-1500J0D01*
G01*
X180742Y118400D02*
G03*
X173671Y115471I0J-10000D01*
G01*
X179218Y83500D02*
G03*
X172700Y80800I0J-9218D01*
G01*
X155247Y37158D02*
G03*
X152800Y37600I-2447J-6560D01*
G01*
X136997Y40529D02*
G03*
X144068Y37600I7071J7071D01*
G01*
X157751Y35549D02*
G03*
X155247Y37158I-4951J-4951D01*
G01*
D02*
G03*
X156500Y40183I-3025J3025D01*
G01*
X158600Y34700D02*
G03*
X163389Y32717I4789J4789D01*
G01*
X171690Y223400D02*
G03*
X170000Y222700I0J-2390D01*
G01*
X151129Y203829D02*
G03*
X148200Y196758I7071J-7071D01*
G01*
X145271Y124071D02*
G03*
X148200Y131142I-7071J7071D01*
G01*
X120358Y103300D02*
G03*
X127429Y106229I0J10000D01*
G01*
X106268Y103300D02*
G03*
X99197Y100371I0J-10000D01*
G01*
X102665Y80429D02*
G03*
X109736Y77500I7071J7071D01*
G01*
X165258D02*
G03*
X172329Y80429I0J10000D01*
G01*
X103849Y82029D02*
G03*
X110920Y79100I7071J7071D01*
G01*
X133158D02*
G03*
X140229Y82029I0J10000D01*
G01*
X107352Y101600D02*
G03*
X100281Y98671I0J-10000D01*
G01*
X121358Y101600D02*
G03*
X128429Y104529I0J10000D01*
G01*
X147071Y123171D02*
G03*
X150000Y130242I-7071J7071D01*
G01*
X152929Y185229D02*
G03*
X150000Y178158I7071J-7071D01*
G01*
X158746Y188500D02*
G03*
X154400Y186700I0J-6146D01*
G01*
X157000Y66159D02*
G03*
X156900Y66400I-341J0D01*
G01*
X110981Y69329D02*
G03*
X118052Y66400I7071J7071D01*
G01*
X107520Y96200D02*
G03*
X100449Y93271I0J-10000D01*
G01*
X124558Y96200D02*
G03*
X131629Y99129I0J10000D01*
G01*
X172042Y135400D02*
G03*
X164971Y132471I0J-10000D01*
G01*
X106636Y98100D02*
G03*
X99565Y95171I0J-10000D01*
G01*
X123958Y98100D02*
G03*
X131029Y101029I0J10000D01*
G01*
X151471Y121471D02*
G03*
X154400Y128542I-7071J7071D01*
G01*
X157329Y167429D02*
G03*
X154400Y160358I7071J-7071D01*
G01*
X162138Y170400D02*
G03*
X159000Y169100I0J-4439D01*
G01*
X37000Y82000D02*
X40500Y78500D01*
X37000Y82000D02*
Y113000D01*
X40500Y78500D02*
X60622D01*
X35500Y81000D02*
X39500Y77000D01*
X35500Y81000D02*
Y105500D01*
X39500Y77000D02*
X61906D01*
X33500Y80500D02*
X38500Y75500D01*
X33500Y80500D02*
Y93500D01*
X38500Y75500D02*
X63190D01*
X32000Y79500D02*
X37500Y74000D01*
X32000Y79500D02*
Y91453D01*
X37500Y74000D02*
X64474D01*
X30500Y78500D02*
X36500Y72500D01*
X30500Y78500D02*
Y89500D01*
X36500Y72500D02*
X65758D01*
X28500Y77500D02*
X35000Y71000D01*
X28500Y77500D02*
Y84953D01*
X35000Y71000D02*
X67042D01*
X26000Y77500D02*
X34000Y69500D01*
X26000Y77500D02*
Y83500D01*
X34000Y69500D02*
X68326D01*
X20000Y93453D02*
X28500Y84953D01*
X21000Y69000D02*
X24300Y65700D01*
X14000Y69000D02*
X21000D01*
X86645Y98954D02*
X89916Y102225D01*
X72516Y96658D02*
X79824Y89350D01*
X76000Y62547D02*
Y64200D01*
X24300Y65700D02*
X70094D01*
X79476Y75083D01*
X97000Y77500D02*
Y77742D01*
X94092Y80650D02*
X97000Y77742D01*
X15000Y152000D02*
X19094Y147906D01*
Y144358D02*
Y147906D01*
Y144358D02*
X20000Y143453D01*
X15000Y152000D02*
Y157000D01*
X13500Y158500D02*
X15000Y157000D01*
X8000Y158500D02*
X13500D01*
X3400Y153900D02*
X8000Y158500D01*
X14500Y133000D02*
Y148953D01*
X10000Y153453D02*
X14500Y148953D01*
Y133000D02*
X19500Y128000D01*
X22000D01*
X37000Y113000D01*
X60622Y78500D02*
X68341Y86218D01*
X61906Y77000D02*
X69733Y84826D01*
X63190Y75500D02*
X71125Y83434D01*
X64474Y74000D02*
X72516Y82042D01*
X65758Y72500D02*
X73908Y80650D01*
X67042Y71000D02*
X75300Y79258D01*
X68326Y69500D02*
X76692Y77866D01*
X21500Y79500D02*
X33000Y68000D01*
X11586Y79500D02*
X21500D01*
X33000Y68000D02*
X69610D01*
X78084Y76475D01*
X81000Y62047D02*
Y67559D01*
X61941Y84886D02*
X64225D01*
X61725D02*
X61941D01*
X23000Y118000D02*
X35500Y105500D01*
X15586Y118000D02*
X23000D01*
X15000Y118586D02*
X15586Y118000D01*
X15000Y118586D02*
Y128453D01*
X10000Y133453D02*
X15000Y128453D01*
X10000Y111000D02*
Y113453D01*
Y111000D02*
X12500Y108500D01*
X21500D01*
X24500Y105500D01*
Y102500D02*
Y105500D01*
Y102500D02*
X33500Y93500D01*
X20000Y103453D02*
X32000Y91453D01*
X15453Y98000D02*
X22000D01*
X10000Y103453D02*
X15453Y98000D01*
X22000D02*
X30500Y89500D01*
X20047Y83500D02*
X26000D01*
X20000Y83453D02*
X20047Y83500D01*
X10939Y80147D02*
X11586Y79500D01*
X10939Y80147D02*
Y82514D01*
X10000Y83453D02*
X10939Y82514D01*
X55500Y194500D02*
X55567Y194567D01*
Y197473D01*
X55634Y197540D01*
X41200Y216454D02*
X41471D01*
X41794Y216130D01*
X45335D01*
X73800Y64800D02*
Y66622D01*
X72000Y63000D02*
X73800Y64800D01*
X65260Y63000D02*
X72000D01*
X73800Y66622D02*
X80868Y73691D01*
X143500Y215500D02*
X150665D01*
X158213Y223047D01*
X159000Y232500D02*
Y236047D01*
Y228953D02*
Y232500D01*
X159000Y232500D02*
X159000Y232500D01*
X152000Y232500D02*
X159000D01*
X159000Y236047D02*
X159100Y236147D01*
X43519Y63453D02*
X46372Y60600D01*
X20000Y63453D02*
X43519D01*
X46372Y60600D02*
X60447D01*
X62047Y59000D01*
X185114Y66400D02*
X185547D01*
X185114D02*
X185547D01*
X157000D02*
X171690D01*
X185114D01*
X185547D01*
X140229Y82029D02*
X173671Y115471D01*
X180742Y118400D02*
X185547D01*
X179218Y83500D02*
X185063D01*
X185547Y83984D01*
Y84500D01*
X163389Y32717D02*
X185331D01*
X185331D02*
X185547Y32500D01*
X95484Y82042D02*
X136997Y40529D01*
X144068Y37600D02*
X152800D01*
X171690Y66400D02*
X185114D01*
X185547Y31500D02*
Y32500D01*
X185114Y65967D02*
X185547Y66400D01*
X185114Y57350D02*
Y65967D01*
X185114Y40650D02*
X185331Y40433D01*
Y32717D02*
Y40433D01*
Y84716D02*
X185547Y84500D01*
X185114Y117967D02*
X185547Y118400D01*
X185114Y109350D02*
Y117967D01*
X185114Y92650D02*
X185331Y92434D01*
Y84716D02*
Y92434D01*
X171690Y170400D02*
X185547D01*
X185331Y136716D02*
X185547Y136500D01*
Y135500D02*
Y136500D01*
X185114Y169967D02*
X185547Y170400D01*
X185114Y161350D02*
Y169967D01*
X185114Y144650D02*
X185331Y144433D01*
Y136716D02*
Y144433D01*
X171690Y66400D02*
X185114D01*
X171690Y170400D02*
X185547D01*
X3400Y30600D02*
Y153900D01*
Y30600D02*
X7000Y27000D01*
X171690Y223400D02*
X185547D01*
X151129Y203829D02*
X170000Y222700D01*
X148200Y131142D02*
Y196758D01*
X127429Y106229D02*
X145271Y124071D01*
X106268Y103300D02*
X120358D01*
X95484Y96658D02*
X99197Y100371D01*
X98267Y84826D02*
X102665Y80429D01*
X109736Y77500D02*
X165258D01*
X99659Y86218D02*
X103849Y82029D01*
X110920Y79100D02*
X133158D01*
X96875Y95266D02*
X100281Y98671D01*
X107352Y101600D02*
X121358D01*
X128429Y104529D02*
X147071Y123171D01*
X150000Y130242D02*
Y178158D01*
X152929Y185229D02*
X154400Y186700D01*
X158746Y188500D02*
X185547D01*
X172042Y135400D02*
X185547D01*
X107520Y96200D02*
X124558D01*
X162138Y170400D02*
X185547D01*
X154400Y128542D02*
Y160358D01*
X156900Y66400D02*
X157000D01*
X118052D02*
X156900D01*
X131629Y99129D02*
X164971Y132471D01*
X185114Y222967D02*
X185547Y223400D01*
X185114Y214350D02*
Y222967D01*
X185114Y197650D02*
X185331Y197433D01*
Y189716D02*
X185547Y189500D01*
X185331Y189716D02*
Y197433D01*
X185547Y188500D02*
Y189500D01*
X99148Y108000D02*
X103000D01*
X93648Y102500D02*
X99148Y108000D01*
X104600Y106400D02*
X105500Y105500D01*
X99669Y106400D02*
X104600D01*
X92711Y99442D02*
X99669Y106400D01*
X103000Y108000D02*
X111800Y116800D01*
X157000Y60000D02*
Y66159D01*
X156500Y40183D02*
Y48000D01*
X157751Y35549D02*
X158600Y34700D01*
X96875Y83434D02*
X110981Y69329D01*
X15000Y171500D02*
Y178453D01*
Y171500D02*
X18000Y168500D01*
X10000Y183453D02*
X15000Y178453D01*
X23500Y168500D02*
X35500Y156500D01*
X18000Y168500D02*
X23500D01*
X37547Y156500D02*
X38047D01*
X35500D02*
X37547D01*
X15000Y182000D02*
X19000Y178000D01*
X23000D01*
X15000Y182000D02*
Y198453D01*
X10000Y203453D02*
X15000Y198453D01*
X38070Y164475D02*
Y165265D01*
X23000Y178000D02*
X35228Y165772D01*
X37563D02*
X38070Y165265D01*
X35228Y165772D02*
X37563D01*
X20000Y191335D02*
Y193453D01*
Y191335D02*
X38047Y173287D01*
Y172500D02*
Y173287D01*
X59588Y110912D02*
X60145Y111469D01*
X60830D01*
X66614Y110912D02*
X76692Y100834D01*
X60830Y111469D02*
X61386Y110912D01*
X66614D01*
X72133Y113003D02*
X72485Y113356D01*
X72133Y108177D02*
X78084Y102225D01*
X71929Y121082D02*
Y123438D01*
Y121082D02*
X72207Y120804D01*
X71929Y123438D02*
X74031Y125540D01*
X72133Y108177D02*
Y113003D01*
X72485Y113356D02*
Y120526D01*
X72207Y120804D02*
X72485Y120526D01*
X74031Y125540D02*
Y128355D01*
X74588Y128912D01*
X61138Y93500D02*
X64000D01*
X64539D02*
X66949Y91090D01*
X61138Y93500D02*
X65334Y97695D01*
X64000Y93500D02*
X64539D01*
X68684Y97695D02*
X71114Y95266D01*
X71125D01*
X65334Y97695D02*
X68684D01*
X69495D01*
X71200Y99400D01*
X73897Y98050D02*
X73908D01*
X71200Y99400D02*
X72547D01*
X73897Y98050D01*
X94082Y74590D02*
Y75092D01*
Y74590D02*
X96980Y71691D01*
X91308Y77866D02*
X94082Y75092D01*
X96980Y71691D02*
X97309D01*
X97500Y71500D01*
X7000Y27000D02*
X9603D01*
X9693Y27091D02*
X28891D01*
X9603Y27000D02*
X9693Y27091D01*
X37700Y35900D02*
X77700D01*
X28891Y27091D02*
X37700Y35900D01*
X77700D02*
X95000Y53200D01*
Y71390D01*
X22547Y143453D02*
X35500Y130500D01*
X20000Y143453D02*
X22547D01*
X89916Y76475D02*
X95000Y71390D01*
X79348Y106541D02*
X80868Y105020D01*
X79348Y106541D02*
Y108452D01*
X81600Y110705D01*
X80868Y105009D02*
Y105020D01*
X81600Y110705D02*
Y112782D01*
X53949Y208051D02*
X55634Y206366D01*
X53937Y209496D02*
X53949Y209485D01*
Y208051D02*
Y209485D01*
X55634Y200847D02*
Y206366D01*
X92700Y99442D02*
X92711D01*
X42953Y172500D02*
X43406D01*
X43453D02*
X54161D01*
X54661D02*
X58815Y168347D01*
X59209D01*
X42890Y164984D02*
Y165772D01*
X43677D01*
X43772D02*
X46347Y168347D01*
X46847D02*
X53500D01*
X44000Y156500D02*
Y158882D01*
X47000Y161882D01*
Y163914D01*
X48086Y165000D01*
X53500D01*
X53937Y220942D02*
X53949Y220953D01*
X53937Y220796D02*
Y220942D01*
X53949Y220953D02*
X62500D01*
X55412Y115088D02*
X58201Y117877D01*
X55500Y128500D02*
Y128500D01*
X58201Y117877D02*
Y119604D01*
X55500Y128500D02*
X60793Y123207D01*
X58201Y119604D02*
X60793Y122196D01*
Y123207D01*
X85751Y106401D02*
X86139Y106957D01*
X89178Y109997D01*
X66368Y107100D02*
X69329Y104139D01*
X62600Y107100D02*
X66368D01*
X73186Y101556D02*
X75300Y99442D01*
X68569Y102101D02*
X69329Y102860D01*
X69056Y101556D02*
X73186D01*
X69329Y102860D02*
Y104139D01*
X89209Y74091D02*
Y74398D01*
X88524Y75083D02*
X89209Y74398D01*
Y74091D02*
X91000Y72300D01*
X87132Y73680D02*
Y73691D01*
X88600Y69200D02*
Y72211D01*
X87132Y73680D02*
X88600Y72211D01*
X68587Y95009D02*
X69722Y93874D01*
X66200Y95695D02*
X66887Y95009D01*
X69722Y93874D02*
X69733D01*
X66887Y95009D02*
X68587D01*
X92700Y79247D02*
X92711D01*
X95000Y76500D02*
Y76958D01*
X92700Y79247D02*
Y79258D01*
X92711Y79247D02*
X95000Y76958D01*
Y76500D02*
X97000Y74500D01*
X62047Y59000D02*
Y59787D01*
X65260Y63000D01*
X76000Y62547D02*
X76047Y62500D01*
X76000Y64200D02*
X76300Y64500D01*
X78000Y65000D02*
Y68039D01*
X76300Y64500D02*
X79000D01*
X71472Y89350D02*
X71751D01*
X68341Y92482D02*
X71472Y89350D01*
X71751D02*
X77875D01*
X72516Y96658D02*
X72516D01*
X78000Y68039D02*
X82260Y72299D01*
X77875Y89350D02*
X79824D01*
X84000D01*
X90125D01*
X96249D01*
X98883D01*
X99938Y90405D01*
X100366D01*
X101051Y91090D01*
X84000Y96310D02*
Y101599D01*
Y95475D02*
Y96310D01*
Y89350D02*
Y95475D01*
X82260Y106401D02*
X82945Y105716D01*
Y105288D02*
Y105716D01*
X84000Y101599D02*
Y104233D01*
X82945Y105288D02*
X84000Y104233D01*
X66918Y116071D02*
X67196Y115793D01*
X66918Y116071D02*
Y123738D01*
X65804Y124852D02*
X66918Y123738D01*
X65804Y124852D02*
Y127207D01*
X91225Y112614D02*
X92160D01*
X91169Y112669D02*
X91225Y112614D01*
X92160D02*
X92216Y112669D01*
X92669D01*
X95309Y115309D01*
Y116309D01*
X95500Y116500D01*
X67953Y59000D02*
X79500D01*
X61669Y84831D02*
X61725Y84886D01*
X64225D02*
X66949Y87610D01*
X79500Y59000D02*
X81000Y60500D01*
X79000Y62000D02*
X80953D01*
X81000Y62047D01*
Y60500D02*
Y62047D01*
X81953Y63000D01*
X81000Y67559D02*
X85740Y72299D01*
X91308Y100834D02*
X92974Y102500D01*
X111800Y116800D02*
X115700D01*
X92974Y102500D02*
X93648D01*
X87132Y105009D02*
X89255Y107133D01*
X89801D01*
X98855Y116187D01*
X102813D01*
X104912Y114088D01*
X88524Y103617D02*
X91375Y106469D01*
X93855D01*
X94412Y105912D01*
X77113Y105980D02*
X79476Y103617D01*
X77113Y105980D02*
Y109275D01*
X77169Y109331D01*
Y109550D01*
X79300Y111681D01*
Y111900D01*
X96653Y139847D02*
X97000Y139500D01*
X94092Y98050D02*
X99642Y103600D01*
X96653Y139847D02*
Y142925D01*
X96307Y142579D02*
X96653Y142925D01*
X97606Y143878D01*
X96653Y142925D02*
Y144079D01*
X99642Y103600D02*
X100000D01*
X97606Y143878D02*
Y150500D01*
X99659Y92482D02*
X100449Y93271D01*
X172329Y80429D02*
X172700Y80800D01*
X98267Y93874D02*
X99565Y95171D01*
X106636Y98100D02*
X123958D01*
X131029Y101029D02*
X151471Y121471D01*
X157329Y167429D02*
X159000Y169100D01*
D19*
Y228953D02*
D03*
Y223047D02*
D03*
X235500Y47047D02*
D03*
Y52953D02*
D03*
X211953Y39047D02*
D03*
Y44953D02*
D03*
X204100Y52953D02*
D03*
Y47047D02*
D03*
X178000Y38594D02*
D03*
Y44500D02*
D03*
X177953Y59000D02*
D03*
Y53094D02*
D03*
X237953Y66953D02*
D03*
Y61047D02*
D03*
Y33094D02*
D03*
Y39000D02*
D03*
X203953Y61047D02*
D03*
Y66953D02*
D03*
Y37000D02*
D03*
Y31094D02*
D03*
X235500Y99047D02*
D03*
Y104953D02*
D03*
X211953Y91047D02*
D03*
Y96953D02*
D03*
X204100Y104953D02*
D03*
Y99047D02*
D03*
X178000Y90594D02*
D03*
Y96500D02*
D03*
X177953Y111000D02*
D03*
Y105094D02*
D03*
X237953Y118953D02*
D03*
Y113047D02*
D03*
Y85094D02*
D03*
Y91000D02*
D03*
X203953Y113047D02*
D03*
Y118953D02*
D03*
Y89000D02*
D03*
Y83094D02*
D03*
X235500Y209953D02*
D03*
Y204047D02*
D03*
X211953Y201953D02*
D03*
Y196047D02*
D03*
X204100Y209953D02*
D03*
Y204047D02*
D03*
X178000Y195594D02*
D03*
Y201500D02*
D03*
X177953Y216000D02*
D03*
Y210094D02*
D03*
X237953Y223953D02*
D03*
Y218047D02*
D03*
Y190094D02*
D03*
Y196000D02*
D03*
X203953Y218047D02*
D03*
Y223953D02*
D03*
Y194000D02*
D03*
Y188094D02*
D03*
X203953Y141000D02*
D03*
Y135094D02*
D03*
Y165047D02*
D03*
Y170953D02*
D03*
X237953Y137094D02*
D03*
Y143000D02*
D03*
Y170953D02*
D03*
Y165047D02*
D03*
X177953Y163000D02*
D03*
Y157094D02*
D03*
X178000Y142594D02*
D03*
Y148500D02*
D03*
X204100Y156953D02*
D03*
Y151047D02*
D03*
X211953Y143047D02*
D03*
Y148953D02*
D03*
X235500Y151047D02*
D03*
Y156953D02*
D03*
X100000Y178953D02*
D03*
Y173047D02*
D03*
X109000D02*
D03*
Y178953D02*
D03*
X211953Y53000D02*
D03*
Y58906D02*
D03*
Y105000D02*
D03*
Y110906D02*
D03*
Y215906D02*
D03*
Y210000D02*
D03*
Y157000D02*
D03*
Y162906D02*
D03*
X159000Y241953D02*
D03*
Y236047D02*
D03*
X37000Y213406D02*
D03*
Y207501D02*
D03*
X64000Y191547D02*
D03*
Y197453D02*
D03*
D20*
X41047Y31000D02*
D03*
X46953D02*
D03*
X220047Y32000D02*
D03*
X225953D02*
D03*
X185547Y66400D02*
D03*
X191453D02*
D03*
X185547Y32500D02*
D03*
X191453D02*
D03*
X220047Y84000D02*
D03*
X225953D02*
D03*
X185547Y118400D02*
D03*
X191453D02*
D03*
X185547Y84500D02*
D03*
X191453D02*
D03*
X185547Y223400D02*
D03*
X191453D02*
D03*
X185547Y189500D02*
D03*
X191453D02*
D03*
X185547Y136500D02*
D03*
X191453D02*
D03*
X185547Y170400D02*
D03*
X191453D02*
D03*
X220047Y136000D02*
D03*
X225953D02*
D03*
X220047Y189000D02*
D03*
X225953D02*
D03*
X123953Y131500D02*
D03*
X118047D02*
D03*
X91701Y144000D02*
D03*
X97606D02*
D03*
X96008Y160661D02*
D03*
X90102D02*
D03*
X67953Y59000D02*
D03*
X62047D02*
D03*
X43453Y148500D02*
D03*
X37547D02*
D03*
X37547Y164500D02*
D03*
X43453D02*
D03*
X37547Y156500D02*
D03*
X43453D02*
D03*
X37547Y172500D02*
D03*
X43453D02*
D03*
X117953Y88500D02*
D03*
X112047D02*
D03*
X91701Y150500D02*
D03*
X97606D02*
D03*
X76047Y63000D02*
D03*
X81953D02*
D03*
X225953Y66000D02*
D03*
X220047D02*
D03*
X225953Y118000D02*
D03*
X220047D02*
D03*
X225953Y223000D02*
D03*
X220047D02*
D03*
X225953Y170000D02*
D03*
X220047D02*
D03*
X59453Y153500D02*
D03*
X53547D02*
D03*
X135953Y202000D02*
D03*
X130047D02*
D03*
Y192000D02*
D03*
X135953D02*
D03*
X74594Y144500D02*
D03*
X80500D02*
D03*
X37547Y227500D02*
D03*
X43453D02*
D03*
X129453Y246600D02*
D03*
X123547D02*
D03*
D21*
X34000Y55400D02*
D03*
Y51500D02*
D03*
D22*
X55520Y44000D02*
D03*
X63000D02*
D03*
X48240D02*
D03*
X40760D02*
D03*
X143740Y247000D02*
D03*
X136260D02*
D03*
D23*
X52236Y54000D02*
D03*
X41764D02*
D03*
D24*
X226791Y40650D02*
D03*
X224232D02*
D03*
X221673D02*
D03*
X219114D02*
D03*
Y57350D02*
D03*
X221673D02*
D03*
X224232D02*
D03*
X226791D02*
D03*
X192791Y40650D02*
D03*
X190232D02*
D03*
X187673D02*
D03*
X185114D02*
D03*
Y57350D02*
D03*
X187673D02*
D03*
X190232D02*
D03*
X192791D02*
D03*
X226791Y92650D02*
D03*
X224232D02*
D03*
X221673D02*
D03*
X219114D02*
D03*
Y109350D02*
D03*
X221673D02*
D03*
X224232D02*
D03*
X226791D02*
D03*
X192791Y92650D02*
D03*
X190232D02*
D03*
X187673D02*
D03*
X185114D02*
D03*
Y109350D02*
D03*
X187673D02*
D03*
X190232D02*
D03*
X192791D02*
D03*
X226791Y197650D02*
D03*
X224232D02*
D03*
X221673D02*
D03*
X219114D02*
D03*
Y214350D02*
D03*
X221673D02*
D03*
X224232D02*
D03*
X226791D02*
D03*
X192791Y197650D02*
D03*
X190232D02*
D03*
X187673D02*
D03*
X185114D02*
D03*
Y214350D02*
D03*
X187673D02*
D03*
X190232D02*
D03*
X192791D02*
D03*
X192791Y144650D02*
D03*
X190232D02*
D03*
X187673D02*
D03*
X185114D02*
D03*
Y161350D02*
D03*
X187673D02*
D03*
X190232D02*
D03*
X192791D02*
D03*
X226791Y144650D02*
D03*
X224232D02*
D03*
X221673D02*
D03*
X219114D02*
D03*
Y161350D02*
D03*
X221673D02*
D03*
X224232D02*
D03*
X226791D02*
D03*
D25*
X133000Y213299D02*
D03*
X82000Y174799D02*
D03*
D26*
X123900Y237700D02*
D03*
X133000D02*
D03*
X142100D02*
D03*
X91100Y199200D02*
D03*
X82000D02*
D03*
X72900D02*
D03*
D27*
X68569Y101731D02*
D03*
X66231Y104069D02*
D03*
X79131Y115969D02*
D03*
X81469Y113631D02*
D03*
X82831Y119669D02*
D03*
X85169Y117331D02*
D03*
X61169Y83831D02*
D03*
X58831Y86169D02*
D03*
X60485Y93715D02*
D03*
X58147Y96053D02*
D03*
X64485Y97915D02*
D03*
X62147Y100253D02*
D03*
X74831Y111669D02*
D03*
X77169Y109331D02*
D03*
D28*
X88831Y110331D02*
D03*
X91169Y112669D02*
D03*
D29*
X93912Y106912D02*
D03*
X98088Y111088D02*
D03*
X55500Y128500D02*
D03*
X59676Y132676D02*
D03*
D30*
X104912Y114088D02*
D03*
X109088Y109912D02*
D03*
X88088Y123912D02*
D03*
X83912Y128088D02*
D03*
X74588Y128912D02*
D03*
X70412Y133088D02*
D03*
X59588Y110912D02*
D03*
X55412Y115088D02*
D03*
D31*
X125300Y124200D02*
D03*
Y116800D02*
D03*
X115700D02*
D03*
Y120500D02*
D03*
Y124200D02*
D03*
X73200Y152300D02*
D03*
Y159700D02*
D03*
X82800D02*
D03*
Y156000D02*
D03*
Y152300D02*
D03*
D32*
X53196Y165404D02*
D03*
X58904D02*
D03*
X53196Y168751D02*
D03*
X58904D02*
D03*
D33*
X56634Y212193D02*
D03*
Y214162D02*
D03*
Y216130D02*
D03*
Y218099D02*
D03*
X45335D02*
D03*
Y216130D02*
D03*
Y214162D02*
D03*
Y212193D02*
D03*
D34*
X48031Y209496D02*
D03*
X50000D02*
D03*
X51968D02*
D03*
X53937D02*
D03*
Y220796D02*
D03*
X51968D02*
D03*
X50000D02*
D03*
X48031D02*
D03*
D35*
X48165Y193500D02*
D03*
X38835D02*
D03*
D36*
X157000Y60000D02*
D03*
X156500Y48000D02*
D03*
X41500Y128000D02*
D03*
D37*
X84000Y89350D02*
D03*
D38*
X101051Y87610D02*
D03*
X99659Y86218D02*
D03*
X98267Y84826D02*
D03*
X96875Y83434D02*
D03*
X95484Y82042D02*
D03*
X94092Y80650D02*
D03*
X92700Y79258D02*
D03*
X91308Y77866D02*
D03*
X89916Y76475D02*
D03*
X88524Y75083D02*
D03*
X87132Y73691D02*
D03*
X85740Y72299D02*
D03*
X66949Y91090D02*
D03*
X68341Y92482D02*
D03*
X69733Y93874D02*
D03*
X71125Y95266D02*
D03*
X72516Y96658D02*
D03*
X73908Y98050D02*
D03*
X75300Y99442D02*
D03*
X76692Y100834D02*
D03*
X78084Y102225D02*
D03*
X79476Y103617D02*
D03*
X80868Y105009D02*
D03*
X82260Y106401D02*
D03*
D39*
Y72299D02*
D03*
X80868Y73691D02*
D03*
X79476Y75083D02*
D03*
X78084Y76475D02*
D03*
X76692Y77866D02*
D03*
X75300Y79258D02*
D03*
X73908Y80650D02*
D03*
X72516Y82042D02*
D03*
X71125Y83434D02*
D03*
X69733Y84826D02*
D03*
X68341Y86218D02*
D03*
X66949Y87610D02*
D03*
X85740Y106401D02*
D03*
X87132Y105009D02*
D03*
X88524Y103617D02*
D03*
X89916Y102225D02*
D03*
X91308Y100834D02*
D03*
X92700Y99442D02*
D03*
X94092Y98050D02*
D03*
X95484Y96658D02*
D03*
X96875Y95266D02*
D03*
X98267Y93874D02*
D03*
X99659Y92482D02*
D03*
X101051Y91090D02*
D03*
D40*
X72207Y120804D02*
D03*
X65804Y127207D02*
D03*
X60793Y122196D02*
D03*
X67196Y115793D02*
D03*
D41*
X123500Y146500D02*
D03*
D42*
X55634Y200847D02*
D03*
Y197540D02*
D03*
X63000Y220654D02*
D03*
Y217347D02*
D03*
X50000Y227000D02*
D03*
Y230307D02*
D03*
D43*
X100500Y193740D02*
D03*
Y186260D02*
D03*
D48*
X222953Y49000D02*
D03*
X188953D02*
D03*
X222953Y101000D02*
D03*
X188953D02*
D03*
X222953Y206000D02*
D03*
X188953D02*
D03*
X188953Y153000D02*
D03*
X222953D02*
D03*
D57*
X50984Y215146D02*
D03*
D77*
X249953Y197000D02*
X254453D01*
X249953Y144000D02*
X254453D01*
X249953Y92000D02*
X254453D01*
X249953Y40000D02*
X254453D01*
X187673Y194462D02*
Y199100D01*
X177976Y111024D02*
Y113800D01*
X86742Y144250D02*
X92750D01*
X71847Y45809D02*
X72038Y46000D01*
X63628Y45809D02*
X71847D01*
X187673Y144650D02*
Y146100D01*
Y141462D02*
Y144650D01*
Y92650D02*
Y94100D01*
Y89462D02*
Y92650D01*
Y40650D02*
Y42100D01*
Y37462D02*
Y40650D01*
X130000Y186500D02*
Y191953D01*
X130047Y192000D01*
X158213Y223047D02*
X159000D01*
X142100Y237700D02*
X143400Y239000D01*
X151500D01*
X154453Y241953D01*
X63000Y45181D02*
X63628Y45809D01*
X63000Y44000D02*
Y45181D01*
X45000Y49000D02*
X45258Y49258D01*
Y50123D01*
X46500Y51365D01*
Y51500D01*
X41879Y49000D02*
X45000D01*
X41000Y48121D02*
X41879Y49000D01*
X41000Y44240D02*
Y48121D01*
X40760Y44000D02*
X41000Y44240D01*
X49000Y26500D02*
Y28165D01*
X46953Y30213D02*
X49000Y28165D01*
X46953Y30213D02*
Y31000D01*
X44000Y27000D02*
Y27260D01*
X41047Y30213D02*
X44000Y27260D01*
X41047Y30213D02*
Y31000D01*
X177976Y113800D02*
X179400D01*
X177994Y38600D02*
X178000Y38594D01*
X174000Y38600D02*
X177994D01*
X234713Y47047D02*
X235500D01*
X235524Y52976D02*
Y55976D01*
X235547Y56000D01*
X235500Y52953D02*
X235524Y52976D01*
X211953Y53000D02*
X212293Y53341D01*
X211976Y49024D02*
X212000Y49000D01*
X211953Y53000D02*
X211976Y52976D01*
Y49024D02*
Y52976D01*
Y48976D02*
X212000Y49000D01*
X211976Y44976D02*
Y48976D01*
X211953Y44953D02*
X211976Y44976D01*
Y58929D02*
Y63476D01*
X212000Y63500D01*
X211953Y58906D02*
X211976Y58929D01*
X225953Y32000D02*
X226187Y32234D01*
X219813D02*
X220047Y32000D01*
Y31563D02*
Y32000D01*
X204887Y47047D02*
X205122Y46813D01*
X204100Y47047D02*
X204887D01*
X205122Y45238D02*
Y46813D01*
X204975Y45238D02*
X211165Y39047D01*
X211953D01*
X177953Y53094D02*
X177976Y53071D01*
Y49024D02*
Y53071D01*
Y49024D02*
X178000Y49000D01*
Y44500D02*
Y49000D01*
X177976Y63476D02*
X178000Y63500D01*
X177976Y59024D02*
Y63476D01*
X177953Y59000D02*
X177976Y59024D01*
X249787Y50000D02*
X264453D01*
X238740Y61047D02*
X249787Y50000D01*
X237953Y61047D02*
X238740D01*
X236906Y68000D02*
X237953Y66953D01*
X227953Y68000D02*
X236906D01*
X225953Y66000D02*
X227953Y68000D01*
X249187Y39234D02*
X249953Y40000D01*
X238187Y39234D02*
X249187D01*
X237953Y39000D02*
Y45382D01*
Y39000D02*
X238187Y39234D01*
X235500Y47047D02*
X236287D01*
X237953Y45382D01*
X235858Y31000D02*
X237953Y33094D01*
X226187Y31000D02*
X235858D01*
X226187D02*
Y32234D01*
X204187Y66719D02*
X219813D01*
X203953Y66953D02*
X204187Y66719D01*
X219813Y31329D02*
X220047Y31563D01*
X204187Y31329D02*
X219813D01*
X203953Y31094D02*
X204187Y31329D01*
X226791Y57350D02*
Y61800D01*
X225953Y66000D02*
X226187Y65766D01*
Y62404D02*
X226791Y61800D01*
X226187Y62404D02*
Y65766D01*
X224232Y53341D02*
X228419D01*
X224232D02*
Y57350D01*
X228419Y53341D02*
X234713Y47047D01*
X221673Y60173D02*
X223000Y61500D01*
X221673Y54673D02*
Y60173D01*
X220340Y53341D02*
X221673Y54673D01*
X212293Y53341D02*
X220340D01*
X219813Y62499D02*
Y66719D01*
X219114Y61800D02*
X219813Y62499D01*
X219114Y57350D02*
Y61800D01*
X219813Y32234D02*
Y35187D01*
X219114Y36000D02*
Y40650D01*
X221673Y38462D02*
Y40650D01*
Y38462D02*
X223000Y37135D01*
Y37000D02*
Y37135D01*
X226791Y36000D02*
Y40650D01*
X226187Y32860D02*
Y35187D01*
X193544Y61047D02*
X203953D01*
X192791Y61800D02*
X193544Y61047D01*
X192791Y57350D02*
Y61800D01*
X191953Y66400D02*
X192187Y66166D01*
Y62404D02*
X192791Y61800D01*
X192187Y62404D02*
Y66166D01*
X189000Y61365D02*
Y61500D01*
X187673Y60038D02*
X189000Y61365D01*
X187673Y57350D02*
Y60038D01*
Y37462D02*
X188500Y36635D01*
Y36500D02*
Y36635D01*
X193229Y37000D02*
X203953D01*
X192791Y37438D02*
Y40650D01*
Y37438D02*
X193229Y37000D01*
X191687Y36334D02*
X192791Y37438D01*
X191687Y32734D02*
Y36334D01*
X191453Y32500D02*
X191687Y32734D01*
X234713Y99047D02*
X235500D01*
X235524Y104976D02*
Y107976D01*
X235547Y108000D01*
X235500Y104953D02*
X235524Y104976D01*
X211953Y105000D02*
X212293Y105341D01*
X211976Y101024D02*
X212000Y101000D01*
X211976Y100976D02*
X212000Y101000D01*
X211953Y105000D02*
X211976Y104976D01*
Y101024D02*
Y104976D01*
Y96976D02*
Y100976D01*
X211953Y96953D02*
X211976Y96976D01*
Y110929D02*
Y115476D01*
X212000Y115500D01*
X211953Y110906D02*
X211976Y110929D01*
X225953Y84000D02*
X226187Y84234D01*
X219813D02*
X220047Y84000D01*
Y83563D02*
Y84000D01*
X204887Y99047D02*
X205122Y98813D01*
X204100Y99047D02*
X204887D01*
X205122Y97238D02*
Y98813D01*
X204975Y97238D02*
X211165Y91047D01*
X211953D01*
X178024Y86071D02*
Y90571D01*
X178000Y90594D02*
X178024Y90571D01*
Y86071D02*
X178047Y86047D01*
X177953Y105094D02*
X177976Y105071D01*
Y101024D02*
X178000Y101000D01*
Y96500D02*
Y101000D01*
X177976Y101024D02*
Y105071D01*
X177953Y111000D02*
X177976Y111024D01*
X249787Y102000D02*
X264453D01*
X238740Y113047D02*
X249787Y102000D01*
X237953Y113047D02*
X238740D01*
X236906Y120000D02*
X237953Y118953D01*
X227953Y120000D02*
X236906D01*
X225953Y118000D02*
X227953Y120000D01*
X249187Y91234D02*
X249953Y92000D01*
X238187Y91234D02*
X249187D01*
X237953Y91000D02*
Y97382D01*
Y91000D02*
X238187Y91234D01*
X235500Y99047D02*
X236287D01*
X237953Y97382D01*
X235858Y83000D02*
X237953Y85094D01*
X226187Y83000D02*
X235858D01*
X226187D02*
Y84234D01*
X204187Y118719D02*
X219813D01*
X203953Y118953D02*
X204187Y118719D01*
X219813Y83329D02*
X220047Y83563D01*
X204187Y83329D02*
X219813D01*
X203953Y83094D02*
X204187Y83329D01*
X226187Y114404D02*
Y117766D01*
X226791Y109350D02*
Y113800D01*
X225953Y118000D02*
X226187Y117766D01*
Y114404D02*
X226791Y113800D01*
X224232Y105341D02*
X228419D01*
X224232D02*
Y109350D01*
X228419Y105341D02*
X234713Y99047D01*
X221673Y112173D02*
X223000Y113500D01*
X221673Y106673D02*
Y112173D01*
X220340Y105341D02*
X221673Y106673D01*
X212293Y105341D02*
X220340D01*
X219813Y114499D02*
Y118719D01*
X219114Y113800D02*
X219813Y114499D01*
X219114Y109350D02*
Y113800D01*
X219813Y84234D02*
Y87187D01*
X219114Y88000D02*
Y92650D01*
X221673Y90462D02*
X223000Y89135D01*
X221673Y90462D02*
Y92650D01*
X223000Y89000D02*
Y89135D01*
X226791Y88000D02*
Y92650D01*
X226187Y84860D02*
Y87187D01*
X193544Y113047D02*
X203953D01*
X192791Y113800D02*
X193544Y113047D01*
X192791Y109350D02*
Y113800D01*
X191953Y118400D02*
X192187Y118166D01*
Y114404D02*
X192791Y113800D01*
X192187Y114404D02*
Y118166D01*
X189000Y113365D02*
Y113500D01*
X187673Y112038D02*
X189000Y113365D01*
X187673Y109350D02*
Y112038D01*
X188500Y88500D02*
Y88635D01*
X187673Y89462D02*
X188500Y88635D01*
X193229Y89000D02*
X203953D01*
X192791Y89438D02*
Y92650D01*
Y89438D02*
X193229Y89000D01*
X191687Y88334D02*
X192791Y89438D01*
X191687Y84734D02*
Y88334D01*
X191453Y84500D02*
X191687Y84734D01*
X234713Y151047D02*
X235500D01*
X235524Y156976D02*
Y159976D01*
X235547Y160000D01*
X235500Y156953D02*
X235524Y156976D01*
X211953Y157000D02*
X212293Y157341D01*
X211976Y153024D02*
X212000Y153000D01*
X211953Y157000D02*
X211976Y156976D01*
Y153024D02*
Y156976D01*
Y152976D02*
X212000Y153000D01*
X211976Y148976D02*
Y152976D01*
X211953Y148953D02*
X211976Y148976D01*
Y162929D02*
Y167476D01*
X212000Y167500D01*
X211953Y162906D02*
X211976Y162929D01*
X225953Y136000D02*
X226187Y136234D01*
X219813D02*
X220047Y136000D01*
Y135563D02*
Y136000D01*
X204887Y151047D02*
X205122Y150813D01*
X204100Y151047D02*
X204887D01*
X205122Y149238D02*
Y150813D01*
X204975Y149238D02*
X211165Y143047D01*
X211953D01*
X178024Y138071D02*
Y142571D01*
X178000Y142594D02*
X178024Y142571D01*
Y138071D02*
X178047Y138047D01*
X177953Y157094D02*
X177976Y157071D01*
Y153024D02*
Y157071D01*
Y153024D02*
X178000Y153000D01*
Y148500D02*
Y153000D01*
X177976Y167476D02*
X178000Y167500D01*
X177976Y163024D02*
Y167476D01*
X177953Y163000D02*
X177976Y163024D01*
X249787Y154000D02*
X264453D01*
X238740Y165047D02*
X249787Y154000D01*
X237953Y165047D02*
X238740D01*
X236906Y172000D02*
X237953Y170953D01*
X227953Y172000D02*
X236906D01*
X225953Y170000D02*
X227953Y172000D01*
X249187Y143234D02*
X249953Y144000D01*
X238187Y143234D02*
X249187D01*
X237953Y143000D02*
Y149382D01*
Y143000D02*
X238187Y143234D01*
X235500Y151047D02*
X236287D01*
X237953Y149382D01*
X235858Y135000D02*
X237953Y137094D01*
X226187Y135000D02*
X235858D01*
X226187D02*
Y136234D01*
X204187Y170719D02*
X219813D01*
X203953Y170953D02*
X204187Y170719D01*
X219813Y135329D02*
X220047Y135563D01*
X204187Y135329D02*
X219813D01*
X203953Y135094D02*
X204187Y135329D01*
X226791Y161350D02*
Y165800D01*
X225953Y170000D02*
X226187Y169766D01*
Y166404D02*
X226791Y165800D01*
X226187Y166404D02*
Y169766D01*
X224232Y157341D02*
X228419D01*
X224232D02*
Y161350D01*
X228419Y157341D02*
X234713Y151047D01*
X221673Y164173D02*
X223000Y165500D01*
X221673Y158673D02*
Y164173D01*
X220340Y157341D02*
X221673Y158673D01*
X212293Y157341D02*
X220340D01*
X219813Y166499D02*
Y170719D01*
X219114Y165800D02*
X219813Y166499D01*
X219114Y161350D02*
Y165800D01*
X219813Y136234D02*
Y139187D01*
X219114Y140000D02*
Y144650D01*
X221673Y142462D02*
Y144650D01*
Y142462D02*
X223000Y141135D01*
Y141000D02*
Y141135D01*
X226791Y140000D02*
Y144650D01*
X226187Y136860D02*
Y139187D01*
X193544Y165047D02*
X203953D01*
X192791Y165800D02*
X193544Y165047D01*
X192791Y161350D02*
Y165800D01*
X191953Y170400D02*
X192187Y170166D01*
Y166404D02*
X192791Y165800D01*
X192187Y166404D02*
Y170166D01*
X189000Y165365D02*
Y165500D01*
X187673Y164038D02*
X189000Y165365D01*
X187673Y161350D02*
Y164038D01*
X188500Y140500D02*
Y140635D01*
X187673Y141462D02*
X188500Y140635D01*
X193229Y141000D02*
X203953D01*
X192791Y141438D02*
Y144650D01*
Y141438D02*
X193229Y141000D01*
X191687Y140334D02*
X192791Y141438D01*
X191687Y136734D02*
Y140334D01*
X191453Y136500D02*
X191687Y136734D01*
X121000Y119650D02*
Y122000D01*
Y119650D02*
X123850Y116800D01*
X125300D01*
X119100Y123900D02*
X121000Y122000D01*
X116000Y123900D02*
X119100D01*
X115700Y124200D02*
X116000Y123900D01*
X134617Y126617D02*
X135000Y127000D01*
X134617Y124667D02*
Y126617D01*
X126750Y116800D02*
X134617Y124667D01*
X125300Y116800D02*
X126750D01*
X123500Y143000D02*
X135000Y131500D01*
X123500Y143000D02*
Y146500D01*
X135000Y127000D02*
Y131500D01*
X224232Y210340D02*
X228419D01*
X234713Y204047D01*
X235500D01*
X236287D01*
X237953Y202382D01*
Y196000D02*
Y202382D01*
X224232Y210340D02*
Y214350D01*
X249187Y196234D02*
X249953Y197000D01*
X238187Y196234D02*
X249187D01*
X237953Y196000D02*
X238187Y196234D01*
X154453Y241953D02*
X159000D01*
X159200Y242153D01*
X81635Y113465D02*
X85000Y116831D01*
X58900Y162500D02*
Y165400D01*
X58904Y165404D01*
X56900Y160500D02*
X58900Y162500D01*
X50100Y160500D02*
X56900D01*
X48700Y159100D02*
X50100Y160500D01*
X48700Y154300D02*
Y159100D01*
X47400Y153000D02*
X48700Y154300D01*
X41260Y153000D02*
X47400D01*
X37547Y149287D02*
X41260Y153000D01*
X37547Y148500D02*
Y149287D01*
X43500Y147453D02*
Y148900D01*
X43300Y149100D02*
X50800D01*
X43300D02*
X43500Y148900D01*
X50800Y149100D02*
X53547Y151847D01*
Y153500D01*
X81276Y113106D02*
X81600Y112782D01*
X81276Y113106D02*
X81635Y113465D01*
X85000Y116831D02*
X85169D01*
X191453Y189500D02*
X191687Y189734D01*
Y193334D01*
X192791Y194438D01*
X193229Y194000D01*
X192791Y194438D02*
Y197650D01*
X193229Y194000D02*
X203953D01*
X192187Y219404D02*
Y223166D01*
Y219404D02*
X192791Y218800D01*
X191953Y223400D02*
X192187Y223166D01*
X192791Y214350D02*
Y218800D01*
X193544Y218047D01*
X203953D01*
X82800Y159700D02*
X83100Y160000D01*
X89868D01*
X90102Y160234D01*
Y160661D01*
Y161144D01*
X90337Y161379D01*
Y160837D02*
Y161379D01*
Y160837D02*
X99228Y169728D01*
Y173031D01*
X100000Y173047D02*
X109000D01*
X237953Y218047D02*
X238740D01*
X249787Y207000D01*
X264453D01*
X82331Y119169D02*
X82845D01*
X83345D02*
X88088Y123912D01*
X203953Y188094D02*
X204187Y188329D01*
X219813D01*
X219114Y193000D02*
Y197650D01*
X219813Y188329D02*
X220047Y188563D01*
Y189000D01*
X219813Y189234D02*
Y192187D01*
Y189234D02*
X220047Y189000D01*
X226187Y188000D02*
X235858D01*
X225953Y189000D02*
X226187Y189234D01*
Y188000D02*
Y189234D01*
Y189860D02*
Y192187D01*
X235858Y188000D02*
X237953Y190094D01*
X226791Y193000D02*
Y197650D01*
X219114Y214350D02*
Y218800D01*
X219813Y219499D01*
X203953Y223953D02*
X204187Y223719D01*
X219813D01*
Y219499D02*
Y223719D01*
X226187Y219404D02*
X226791Y218800D01*
X225953Y223000D02*
X226187Y222766D01*
X225953Y223000D02*
X227953Y225000D01*
X226791Y214350D02*
Y218800D01*
X226187Y219404D02*
Y222766D01*
X227953Y225000D02*
X236906D01*
X237953Y223953D01*
X117953Y88500D02*
X123500D01*
X64000Y187000D02*
Y191047D01*
X74831Y111669D02*
X74992D01*
X78662Y115338D01*
X79131Y115969D02*
X79186Y116025D01*
Y118098D01*
X79669Y118581D01*
Y121831D01*
X83912Y128088D02*
Y128115D01*
X86742Y130945D01*
X111500Y120500D02*
X115700D01*
X113500Y131500D02*
X118047D01*
X86742Y130945D02*
Y144250D01*
X80500Y144484D02*
X80734Y144250D01*
X86742D01*
X92750D02*
X93000Y144000D01*
X80500Y144484D02*
Y144500D01*
X82800Y156000D02*
X95000D01*
X96201Y157201D01*
Y160500D01*
X96008Y160661D02*
X101339D01*
X101500Y160500D01*
X100000Y194240D02*
X100500Y193740D01*
X178000Y195594D02*
X178024Y195571D01*
Y191071D02*
X178047Y191047D01*
X178024Y191071D02*
Y195571D01*
X188500Y193500D02*
Y193635D01*
X187673Y194462D02*
X188500Y193635D01*
X129453Y246600D02*
X129476Y246624D01*
Y251076D02*
X129500Y251100D01*
X129476Y246624D02*
Y251076D01*
X177953Y216000D02*
X177976Y216024D01*
Y220476D01*
X178000Y220500D01*
X223000Y194000D02*
Y194135D01*
X205122Y202238D02*
Y203813D01*
X211165Y196047D02*
X211953D01*
X204975Y202238D02*
X211165Y196047D01*
X204100Y204047D02*
X204887D01*
X205122Y203813D01*
X211953Y215906D02*
X211976Y215929D01*
Y220476D01*
X212000Y220500D01*
X221673Y195462D02*
Y197650D01*
Y195462D02*
X223000Y194135D01*
X235500Y209953D02*
X235524Y209976D01*
Y212976D01*
X235547Y213000D01*
X96048Y109548D02*
X97588Y111088D01*
X96048Y108548D02*
Y109548D01*
X73200Y152300D02*
X74294D01*
X74594Y144500D02*
Y152000D01*
X74294Y152300D02*
X74594Y152000D01*
X101051Y87610D02*
X102051D01*
X102941Y88500D01*
X108000D01*
X109645Y110469D02*
X109976D01*
X109088Y109912D02*
X109645Y110469D01*
X108000Y88500D02*
X111606D01*
X109976Y110469D02*
X111849Y108596D01*
X113904D02*
X114000Y108500D01*
X111849Y108596D02*
X113904D01*
X177976Y206024D02*
Y210071D01*
X178000Y201500D02*
Y206000D01*
X177976Y206024D02*
X178000Y206000D01*
X177953Y210094D02*
X177976Y210071D01*
X187673Y214350D02*
Y217038D01*
X189000Y218365D01*
X211953Y201953D02*
X211976Y201976D01*
Y205976D01*
X212000Y206000D01*
X189000Y218365D02*
Y218500D01*
X211976Y206024D02*
Y209976D01*
X211953Y210000D02*
X211976Y209976D01*
Y206024D02*
X212000Y206000D01*
X211953Y210000D02*
X212293Y210340D01*
X220340D01*
X221673Y211673D01*
Y217173D01*
X223000Y218500D01*
X72900Y197200D02*
X86340Y183760D01*
X94437D02*
X99244Y178953D01*
X86340Y183760D02*
X94437D01*
D78*
X84000Y96310D02*
X86645Y98954D01*
X203313Y52953D02*
X204100D01*
X198000Y47640D02*
X203313Y52953D01*
X198000Y47640D02*
Y51400D01*
Y44000D02*
Y47640D01*
X196000Y53400D02*
X198000Y51400D01*
X191600Y53400D02*
X196000D01*
X190232Y54768D02*
Y57350D01*
Y54768D02*
X191600Y53400D01*
X198000Y99640D02*
X203313Y104953D01*
X204100D01*
X198000Y99640D02*
Y103400D01*
Y96000D02*
Y99640D01*
X191600Y105400D02*
X196000D01*
X198000Y103400D01*
X190232Y106768D02*
X191600Y105400D01*
X190232Y106768D02*
Y109350D01*
X198000Y151640D02*
X203313Y156953D01*
X204100D01*
X196000Y157400D02*
X198000Y155400D01*
Y151640D02*
Y155400D01*
X191600Y157400D02*
X196000D01*
X198000Y148000D02*
Y151640D01*
X190232Y158768D02*
Y161350D01*
Y158768D02*
X191600Y157400D01*
X190232Y211768D02*
Y214350D01*
Y211768D02*
X191600Y210400D01*
X196000D01*
X198000Y208400D01*
Y204640D02*
Y208400D01*
Y201000D02*
Y204640D01*
X203313Y209953D01*
X204100D01*
X88000Y111955D02*
X89178Y110777D01*
X88000Y114200D02*
X89600Y115800D01*
X89178Y109997D02*
Y110777D01*
X88000Y111955D02*
Y114200D01*
D79*
X48240Y44000D02*
X55520D01*
X30500Y47541D02*
X33194Y50235D01*
X33944Y50986D01*
X30500Y47000D02*
Y47541D01*
X33944Y50986D02*
Y51444D01*
X51854Y48847D02*
Y52382D01*
X34500Y54900D02*
X40864D01*
X34000Y55400D02*
X34500Y54900D01*
X51854Y48847D02*
X55520Y45181D01*
X44500Y44000D02*
X48240D01*
D80*
X56000Y89000D02*
X58831Y86169D01*
X55500Y89000D02*
X56000D01*
X60885Y83831D02*
X61941Y84886D01*
X63500Y86446D01*
Y87500D01*
X68569Y101731D02*
Y102101D01*
X50000Y230307D02*
X50261Y230568D01*
X51075D01*
X51644Y230000D01*
X55000D01*
X65000Y59000D02*
X67953D01*
X60885Y83831D02*
X61169D01*
D81*
X124000Y227000D02*
Y237600D01*
X86000Y227000D02*
X124000D01*
X83382Y229618D02*
X86000Y227000D01*
X83000Y236000D02*
X83382Y235618D01*
Y229618D02*
Y235618D01*
X123547Y246600D02*
Y247000D01*
Y238052D02*
X123900Y237700D01*
X124000Y237600D01*
X123547Y238052D02*
Y246600D01*
D82*
X40864Y54900D02*
X41764Y54000D01*
X55520Y44000D02*
Y45181D01*
X25374Y33526D02*
X27700Y31200D01*
X20074Y33526D02*
X25374D01*
X20000Y33453D02*
X20074Y33526D01*
X35500Y141000D02*
X37547Y143047D01*
Y148500D01*
X77739Y155389D02*
Y156611D01*
X80779Y152350D02*
X82750D01*
X77739Y155389D02*
X80779Y152350D01*
X73200Y159700D02*
X74650D01*
X77739Y156611D01*
X90657Y152300D02*
X91701Y151256D01*
Y150500D02*
Y151256D01*
X82750Y152350D02*
X82800Y152300D01*
X90657D01*
X99244Y173047D02*
X100000D01*
X99228Y173031D02*
X99244Y173047D01*
X135953Y192000D02*
Y202000D01*
X69000Y156500D02*
Y170500D01*
Y156500D02*
X73200Y152300D01*
X67500Y172000D02*
X69000Y170500D01*
X93500Y187000D02*
X94240Y186260D01*
X100500D01*
X124219Y124400D02*
Y131234D01*
X123953Y131500D02*
X128500D01*
X72900Y197200D02*
Y199200D01*
X99244Y178953D02*
X100000D01*
D83*
X204100Y47047D02*
X204147Y47000D01*
Y42500D02*
Y47000D01*
X204100Y99047D02*
X204147Y99000D01*
Y94500D02*
Y99000D01*
X204100Y151047D02*
X204147Y151000D01*
Y146500D02*
Y151000D01*
Y199500D02*
Y204000D01*
X204100Y204047D02*
X204147Y204000D01*
X129547Y202500D02*
Y208846D01*
X132500Y211799D01*
X133000Y213299D02*
Y237700D01*
X132510Y237209D02*
Y239209D01*
X134150Y239850D02*
Y241150D01*
X136260Y243260D01*
Y247000D01*
D84*
X72900Y199200D02*
Y226500D01*
X82500D01*
D85*
X34000Y52000D02*
D03*
Y54900D02*
D03*
D86*
X142750Y241750D02*
D03*
D87*
X77000Y174750D02*
D03*
D88*
X133200Y212000D02*
D03*
D89*
X68500Y199250D02*
D03*
D90*
X61500Y238500D02*
D03*
X51500Y248500D02*
D03*
Y238500D02*
D03*
X61500Y248500D02*
D03*
X56000Y20000D02*
D03*
X46000Y10000D02*
D03*
Y20000D02*
D03*
X56000Y10000D02*
D03*
D91*
X50984Y215146D02*
D03*
X48701Y217429D02*
D03*
X53268D02*
D03*
Y212862D02*
D03*
X48701D02*
D03*
D92*
X32500Y249000D02*
D03*
Y239000D02*
D03*
D93*
X274453Y40000D02*
D03*
X254453D02*
D03*
X274453Y60000D02*
D03*
X254453D02*
D03*
X264453Y50000D02*
D03*
X274453Y92000D02*
D03*
X254453D02*
D03*
X274453Y112000D02*
D03*
X254453D02*
D03*
X264453Y102000D02*
D03*
X274453Y144000D02*
D03*
X254453D02*
D03*
X274453Y164000D02*
D03*
X254453D02*
D03*
X264453Y154000D02*
D03*
X274453Y197000D02*
D03*
X254453D02*
D03*
X274453Y217000D02*
D03*
X254453D02*
D03*
X264453Y207000D02*
D03*
D94*
X20000Y193453D02*
D03*
X10000D02*
D03*
X20000Y203453D02*
D03*
X10000D02*
D03*
X20000Y213453D02*
D03*
X10000D02*
D03*
X20000Y223453D02*
D03*
X10000D02*
D03*
Y183453D02*
D03*
X20000D02*
D03*
X10000Y173453D02*
D03*
X20000D02*
D03*
X10000Y163453D02*
D03*
X20000D02*
D03*
X10000Y153453D02*
D03*
X20000D02*
D03*
X10000Y143453D02*
D03*
X20000D02*
D03*
X10000Y133453D02*
D03*
X20000D02*
D03*
X10000Y123453D02*
D03*
X20000D02*
D03*
X10000Y113453D02*
D03*
X20000D02*
D03*
X10000Y103453D02*
D03*
X20000D02*
D03*
X10000Y93453D02*
D03*
X20000D02*
D03*
X10000Y83453D02*
D03*
X20000D02*
D03*
X10000Y73453D02*
D03*
X20000D02*
D03*
X10000Y63453D02*
D03*
X20000D02*
D03*
X10000Y53453D02*
D03*
X20000D02*
D03*
X10000Y43453D02*
D03*
X20000D02*
D03*
X10000Y33453D02*
D03*
D95*
X20000D02*
D03*
D96*
X207913Y242626D02*
D03*
X15000D02*
D03*
X207913Y14280D02*
D03*
X15000D02*
D03*
D97*
X103000Y236000D02*
D03*
D98*
X83000D02*
D03*
D99*
X25500Y50500D02*
D03*
X14000Y69000D02*
D03*
D100*
X72038Y46000D02*
D03*
X97000Y77500D02*
D03*
X55500Y89000D02*
D03*
X63240Y87500D02*
D03*
X26000Y83500D02*
D03*
X55500Y194500D02*
D03*
X41200Y216454D02*
D03*
X40000Y203000D02*
D03*
X130000Y186500D02*
D03*
X152000Y232500D02*
D03*
X46500Y51500D02*
D03*
X49000Y26500D02*
D03*
X179400Y113800D02*
D03*
X174000Y38600D02*
D03*
X235547Y56000D02*
D03*
X212000Y49000D02*
D03*
Y63500D02*
D03*
X204147Y42500D02*
D03*
X178000Y49000D02*
D03*
Y63500D02*
D03*
X226791Y61800D02*
D03*
X223000Y61500D02*
D03*
X219114Y61800D02*
D03*
X219000Y36000D02*
D03*
X223000Y37000D02*
D03*
X227000Y36000D02*
D03*
X189000Y61500D02*
D03*
X188500Y36500D02*
D03*
X235547Y108000D02*
D03*
X212000Y101000D02*
D03*
Y115500D02*
D03*
X204147Y94500D02*
D03*
X178047Y86047D02*
D03*
X178000Y101000D02*
D03*
X226791Y113800D02*
D03*
X223000Y113500D02*
D03*
X219114Y113800D02*
D03*
X219000Y88000D02*
D03*
X223000Y89000D02*
D03*
X227000Y88000D02*
D03*
X189000Y113500D02*
D03*
X188500Y88500D02*
D03*
X235547Y160000D02*
D03*
X212000Y153000D02*
D03*
Y167500D02*
D03*
X204147Y146500D02*
D03*
X178047Y138047D02*
D03*
X178000Y153000D02*
D03*
Y167500D02*
D03*
X226791Y165800D02*
D03*
X223000Y165500D02*
D03*
X219114Y165800D02*
D03*
X219000Y140000D02*
D03*
X223000Y141000D02*
D03*
X227000Y140000D02*
D03*
X189000Y165500D02*
D03*
X188500Y140500D02*
D03*
X187000Y154500D02*
D03*
Y151500D02*
D03*
X191000D02*
D03*
Y154500D02*
D03*
X221000Y151500D02*
D03*
X225000D02*
D03*
X221000Y154500D02*
D03*
X225000D02*
D03*
X187000Y99500D02*
D03*
Y102500D02*
D03*
X191000D02*
D03*
Y99500D02*
D03*
X221000Y102500D02*
D03*
Y99500D02*
D03*
X225000D02*
D03*
Y102500D02*
D03*
X187000Y47500D02*
D03*
X191000D02*
D03*
X187000Y50500D02*
D03*
X191000D02*
D03*
X221000D02*
D03*
Y47500D02*
D03*
X225000D02*
D03*
Y50500D02*
D03*
X35500Y141000D02*
D03*
X64000Y93500D02*
D03*
X47200Y62600D02*
D03*
X68400Y55400D02*
D03*
X97500Y71500D02*
D03*
X105500Y105500D02*
D03*
X89600Y115800D02*
D03*
X62600Y107100D02*
D03*
X219000Y193000D02*
D03*
X227000D02*
D03*
X219114Y218800D02*
D03*
X226791D02*
D03*
X91000Y72300D02*
D03*
X88600Y69200D02*
D03*
X66200Y95695D02*
D03*
X97000Y74500D02*
D03*
X41500Y91000D02*
D03*
X79000Y64500D02*
D03*
X57716Y101784D02*
D03*
X61200Y211000D02*
D03*
X65000Y135000D02*
D03*
X64800Y211000D02*
D03*
X34700Y219454D02*
D03*
X37700Y222354D02*
D03*
X34700D02*
D03*
X37700Y219454D02*
D03*
X61300Y213900D02*
D03*
X64800D02*
D03*
X55000Y230000D02*
D03*
X79669Y121831D02*
D03*
X95500Y116500D02*
D03*
X101500Y160500D02*
D03*
X178047Y191047D02*
D03*
X188500Y193500D02*
D03*
X187000Y207500D02*
D03*
Y204500D02*
D03*
X191000D02*
D03*
X204147Y199500D02*
D03*
X191000Y207500D02*
D03*
X178000Y220500D02*
D03*
X212000D02*
D03*
X221000Y204500D02*
D03*
X223000Y194000D02*
D03*
X225000Y204500D02*
D03*
X221000Y207500D02*
D03*
X225000D02*
D03*
X235547Y213000D02*
D03*
X96048Y108548D02*
D03*
X65000Y51500D02*
D03*
Y59000D02*
D03*
X79000Y62000D02*
D03*
X108000Y88500D02*
D03*
X79300Y111900D02*
D03*
X114000Y108500D02*
D03*
X76700Y123500D02*
D03*
X178000Y206000D02*
D03*
X189000Y218500D02*
D03*
X212000Y206000D02*
D03*
X223000Y218500D02*
D03*
X97000Y139500D02*
D03*
X100000Y103600D02*
D03*
D101*
X30500Y189000D02*
D03*
Y198000D02*
D03*
Y47000D02*
D03*
X44000Y27000D02*
D03*
X44500Y44000D02*
D03*
X27700Y31200D02*
D03*
X135000Y127000D02*
D03*
D102*
X151500Y239000D02*
D03*
X64500Y151000D02*
D03*
X64000Y187000D02*
D03*
X64500Y156500D02*
D03*
X86742Y144250D02*
D03*
X101000Y204000D02*
D03*
Y200000D02*
D03*
X106000D02*
D03*
Y204000D02*
D03*
X129500Y251100D02*
D03*
X67500Y177500D02*
D03*
Y172000D02*
D03*
X72000D02*
D03*
Y177500D02*
D03*
X79500Y207000D02*
D03*
X93500Y187000D02*
D03*
X84500Y207000D02*
D03*
X143500Y210000D02*
D03*
Y215500D02*
D03*
X122800Y215300D02*
D03*
X122600Y210500D02*
D03*
D103*
X198000Y44000D02*
D03*
Y96000D02*
D03*
Y148000D02*
D03*
Y201000D02*
D03*
D104*
X123500Y88500D02*
D03*
D105*
X111500Y120500D02*
D03*
X113500Y131500D02*
D03*
X128500D02*
D03*
D106*
X71751Y89350D02*
D03*
X74813Y92412D02*
D03*
X77875Y95475D02*
D03*
X80938Y98537D02*
D03*
X84000Y101599D02*
D03*
X74813Y86288D02*
D03*
X77875Y89350D02*
D03*
X80938Y92412D02*
D03*
X84000Y95475D02*
D03*
X87062Y98537D02*
D03*
X77875Y83225D02*
D03*
X80938Y86288D02*
D03*
X84000Y89350D02*
D03*
X87062Y92412D02*
D03*
X90125Y95475D02*
D03*
X80938Y80163D02*
D03*
X84000Y83225D02*
D03*
X87062Y86288D02*
D03*
X90125Y89350D02*
D03*
X93187Y92412D02*
D03*
X84000Y77101D02*
D03*
X87062Y80163D02*
D03*
X90125Y83225D02*
D03*
X93187Y86288D02*
D03*
X96249Y89350D02*
D03*
M02*
