M48
;Layer_Color=9474304
;FILE_FORMAT=2:5
INCH,LZ
;TYPE=PLATED
T1F00S00C0.00787
T2F00S00C0.01000
T3F00S00C0.01200
T4F00S00C0.01300
T5F00S00C0.01700
T6F00S00C0.01800
T7F00S00C0.02000
T8F00S00C0.02362
T9F00S00C0.03543
T10F00S00C0.04000
T11F00S00C0.04331
T12F00S00C0.06100
T13F00S00C0.10827
%
T01
X0077875Y0083225
X0074813Y0086288
X0077875Y008935
X0071751
X0074813Y0092412
X0077875Y0095475
X0080938Y0098537
X0084Y0095475
X0087062Y0098537
X0084Y0101599
X0080938Y0092412
Y0086288
X0084Y008935
X0087062Y0092412
Y0086288
Y0080163
X0084Y0083225
X0080938Y0080163
X0084Y0077101
X0090125Y0083225
X0093187Y0086288
X0090125Y008935
X0093187Y0092412
X0090125Y0095475
X0096249Y008935
X0053268Y0212862
X0050984Y0215146
X0048701Y0217429
X0053268
X0048701Y0212862
T02
X0049Y00265
X00465Y00515
X00472Y00626
X0065Y0059
X00684Y00554
X0065Y00515
X0072038Y0046
X0079Y0062
Y00645
X00886Y00692
X0091Y00723
X00975Y00715
X0097Y00745
Y00775
X0108Y00885
X01055Y01055
X01Y01036
X0096048Y0108548
X00955Y01165
X00896Y01158
X00793Y01119
X0079669Y0121831
X00767Y01235
X0065Y0135
X00626Y01071
X0057716Y0101784
X0064Y00935
X00662Y0095695
X006324Y00875
X00555Y0089
X00415Y0091
X0026Y00835
X0014Y0069
X00255Y00505
X00355Y0141
X0097Y01395
X0114Y01085
X01794Y01138
X0189Y01135
X0187Y01025
Y00995
X0191
Y01025
X0178Y0101
X0178047Y0086047
X01885Y00885
X0204147Y00945
X0212Y0101
X0221Y01025
Y00995
X0225
Y01025
X0223Y01135
X0226791Y01138
X0219114
X0212Y01155
X0235547Y0108
X0227Y0088
X0223Y0089
X0219Y0088
X0219114Y00618
X0223Y00615
X0226791Y00618
X0225Y00505
Y00475
X0221
Y00505
X0212Y0049
X0204147Y00425
X0191Y00475
Y00505
X0187
Y00475
X0178Y0049
X0174Y00386
X01885Y00365
X0189Y00615
X0178Y00635
X0212
X0235547Y0056
X0227Y0036
X0223Y0037
X0219Y0036
Y014
X0223Y0141
X0227Y014
X0225Y01515
Y01545
X0221
Y01515
X0212Y0153
X0204147Y01465
X0191Y01515
Y01545
X0187
Y01515
X0178Y0153
X0178047Y0138047
X01885Y01405
X0189Y01655
X0178Y01675
X0178047Y0191047
X01885Y01935
X0187Y02045
Y02075
X0191
Y02045
X0178Y0206
Y02205
X0189Y02185
X0212Y02205
X0219114Y02188
X0223Y02185
X0226791Y02188
X0225Y02075
Y02045
X0221
Y02075
X0212Y0206
X0204147Y01995
X0219Y0193
X0223Y0194
X0227Y0193
X0226791Y01658
X0223Y01655
X0219114Y01658
X0212Y01675
X0235547Y016
Y0213
X0152Y02325
X013Y01865
X01015Y01605
X00555Y01945
X00612Y0211
X00613Y02139
X00648
Y0211
X0055Y023
X00377Y0222354
Y0219454
X00347
Y0222354
X00412Y0216454
X004Y0203
T03
X01115Y01205
X01135Y01315
X01285
T04
X0198Y0044
Y0096
Y0148
Y0201
T05
X01235Y00885
X0086742Y014425
X00645Y0151
Y01565
X00675Y0172
X0072
Y01775
X00675
X0064Y0187
X00935
X0101Y02
Y0204
X0106
Y02
X01226Y02105
X01228Y02153
X01435Y02155
Y021
X01515Y0239
X01295Y02511
X00845Y0207
X00795
T06
X00277Y00312
X00305Y0047
X00445Y0044
X0044Y0027
X0135Y0127
T07
X00305Y0189
Y0198
T08
X00325Y0239
Y0249
T09
X001Y0033453
Y0043453
Y0053453
Y0063453
Y0073453
Y0083453
Y0093453
Y0103453
Y0113453
Y0123453
Y0133453
Y0143453
Y0153453
X002
Y0143453
Y0133453
Y0123453
Y0113453
Y0103453
Y0093453
Y0083453
Y0073453
Y0063453
Y0053453
Y0043453
Y0033453
Y0163453
Y0173453
Y0183453
Y0193453
X001
Y0203453
X002
Y0213453
X001
Y0223453
X002
X001Y0183453
Y0173453
Y0163453
T10
X0046Y001
Y002
X0056
Y001
X00515Y02385
X00615
Y02485
X00515
T11
X0083Y0236
X0103
T12
X0254453Y004
X0274453
Y006
X0254453
X0264453Y005
X0274453Y0092
X0254453
Y0112
X0274453
X0264453Y0102
X0274453Y0144
X0254453
X0264453Y0154
X0274453Y0164
X0254453
Y0197
X0274453
Y0217
X0254453
X0264453Y0207
T13
X0015Y001428
X0207913
Y0242626
X0015
M30
