G04*
G04 #@! TF.GenerationSoftware,Altium Limited,Altium Designer,19.1.9 (167)*
G04*
G04 Layer_Color=16711935*
%FSLAX25Y25*%
%MOIN*%
G70*
G01*
G75*
%ADD45R,0.02769X0.04343*%
%ADD46R,0.03556X0.05918*%
%ADD66R,0.05918X0.03556*%
%ADD67C,0.06800*%
%ADD68C,0.01981*%
%ADD69C,0.05524*%
%ADD70C,0.08800*%
%ADD71C,0.06706*%
%ADD72R,0.06706X0.06706*%
%ADD73C,0.24422*%
%ADD74R,0.07296X0.07296*%
%ADD75C,0.07296*%
%ADD76C,0.02769*%
D45*
X253047Y227500D02*
D03*
X258953D02*
D03*
X253047Y122500D02*
D03*
X258953D02*
D03*
X253047Y70500D02*
D03*
X258953D02*
D03*
X253047Y174500D02*
D03*
X258953D02*
D03*
X33447Y19500D02*
D03*
X39353D02*
D03*
X33347Y10500D02*
D03*
X39253D02*
D03*
X220047Y32000D02*
D03*
X225953D02*
D03*
X220047Y66000D02*
D03*
X225953D02*
D03*
X220047Y223000D02*
D03*
X225953D02*
D03*
X220047Y189000D02*
D03*
X225953D02*
D03*
X220047Y170000D02*
D03*
X225953D02*
D03*
X220047Y136000D02*
D03*
X225953D02*
D03*
X220094Y118047D02*
D03*
X226000D02*
D03*
X220094Y84047D02*
D03*
X226000D02*
D03*
X50047Y70500D02*
D03*
X55953D02*
D03*
X62047Y59000D02*
D03*
X67953D02*
D03*
X62047Y51500D02*
D03*
X67953D02*
D03*
X79953D02*
D03*
X74047D02*
D03*
D46*
X62000Y101000D02*
D03*
X54520D02*
D03*
X100240Y112000D02*
D03*
X92760D02*
D03*
X111260Y88500D02*
D03*
X118740D02*
D03*
X82740Y63000D02*
D03*
X75260D02*
D03*
X59500Y89000D02*
D03*
X52020D02*
D03*
D66*
X73000Y110260D02*
D03*
Y117740D02*
D03*
X64000Y117480D02*
D03*
Y110000D02*
D03*
D67*
X61600Y248700D02*
D03*
X51600Y238700D02*
D03*
X61600D02*
D03*
X51600Y248700D02*
D03*
X56000Y20000D02*
D03*
X46000Y10000D02*
D03*
Y20000D02*
D03*
X56000Y10000D02*
D03*
D68*
X50984Y215146D02*
D03*
X48701Y217429D02*
D03*
X53268D02*
D03*
Y212862D02*
D03*
X48701D02*
D03*
D69*
X32500Y249000D02*
D03*
Y239000D02*
D03*
D70*
X269953Y40000D02*
D03*
X249953D02*
D03*
X269953Y60000D02*
D03*
X249953D02*
D03*
X259953Y50000D02*
D03*
X269953Y92000D02*
D03*
X249953D02*
D03*
X269953Y112000D02*
D03*
X249953D02*
D03*
X259953Y102000D02*
D03*
X269953Y144000D02*
D03*
X249953D02*
D03*
X269953Y164000D02*
D03*
X249953D02*
D03*
X259953Y154000D02*
D03*
X269953Y197000D02*
D03*
X249953D02*
D03*
X269953Y217000D02*
D03*
X249953D02*
D03*
X259953Y207000D02*
D03*
D71*
X20000Y193453D02*
D03*
X10000D02*
D03*
X20000Y203453D02*
D03*
X10000D02*
D03*
X20000Y213453D02*
D03*
X10000D02*
D03*
X20000Y223453D02*
D03*
X10000D02*
D03*
Y183453D02*
D03*
X20000D02*
D03*
X10000Y173453D02*
D03*
X20000D02*
D03*
X10000Y163453D02*
D03*
X20000D02*
D03*
X10000Y153453D02*
D03*
X20000D02*
D03*
X10000Y143453D02*
D03*
X20000D02*
D03*
X10000Y133453D02*
D03*
X20000D02*
D03*
X10000Y123453D02*
D03*
X20000D02*
D03*
X10000Y113453D02*
D03*
X20000D02*
D03*
X10000Y103453D02*
D03*
X20000D02*
D03*
X10000Y93453D02*
D03*
X20000D02*
D03*
X10000Y83453D02*
D03*
X20000D02*
D03*
X10000Y73453D02*
D03*
X20000D02*
D03*
X10000Y63453D02*
D03*
X20000D02*
D03*
X10000Y53453D02*
D03*
X20000D02*
D03*
X10000Y43453D02*
D03*
X20000D02*
D03*
X10000Y33453D02*
D03*
D72*
X20000D02*
D03*
D73*
X207913Y242626D02*
D03*
X15000D02*
D03*
X207913Y14280D02*
D03*
X15000D02*
D03*
D74*
X103000Y236000D02*
D03*
D75*
X83000D02*
D03*
D76*
X71751Y89350D02*
D03*
X74813Y92412D02*
D03*
X77875Y95475D02*
D03*
X80938Y98537D02*
D03*
X84000Y101599D02*
D03*
X74813Y86288D02*
D03*
X77875Y89350D02*
D03*
X80938Y92412D02*
D03*
X84000Y95475D02*
D03*
X87062Y98537D02*
D03*
X77875Y83225D02*
D03*
X80938Y86288D02*
D03*
X84000Y89350D02*
D03*
X87062Y92412D02*
D03*
X90125Y95475D02*
D03*
X80938Y80163D02*
D03*
X84000Y83225D02*
D03*
X87062Y86288D02*
D03*
X90125Y89350D02*
D03*
X93187Y92412D02*
D03*
X84000Y77101D02*
D03*
X87062Y80163D02*
D03*
X90125Y83225D02*
D03*
X93187Y86288D02*
D03*
X96249Y89350D02*
D03*
M02*
