G04*
G04 #@! TF.GenerationSoftware,Altium Limited,Altium Designer,19.1.9 (167)*
G04*
G04 Layer_Physical_Order=2*
G04 Layer_Color=36540*
%FSLAX25Y25*%
%MOIN*%
G70*
G01*
G75*
%ADD90C,0.06000*%
%ADD91C,0.01181*%
%ADD92C,0.04724*%
%ADD94C,0.05906*%
%ADD97R,0.06496X0.06496*%
%ADD100C,0.02000*%
%ADD102C,0.03000*%
%ADD104C,0.02700*%
%ADD105C,0.02200*%
%ADD106C,0.01968*%
G36*
X280500Y243500D02*
Y14500D01*
X267500Y1500D01*
X208816D01*
X208796Y2000D01*
X209845Y2083D01*
X211730Y2535D01*
X213520Y3277D01*
X215172Y4289D01*
X216646Y5548D01*
X217904Y7021D01*
X218917Y8673D01*
X219658Y10464D01*
X220110Y12348D01*
X220263Y14280D01*
X220110Y16211D01*
X219658Y18096D01*
X218917Y19886D01*
X217904Y21538D01*
X216646Y23012D01*
X215172Y24270D01*
X213520Y25283D01*
X211730Y26024D01*
X209845Y26477D01*
X207913Y26629D01*
X205982Y26477D01*
X204097Y26024D01*
X202307Y25283D01*
X200655Y24270D01*
X199181Y23012D01*
X197923Y21538D01*
X196910Y19886D01*
X196169Y18096D01*
X195716Y16211D01*
X195564Y14280D01*
X195716Y12348D01*
X196169Y10464D01*
X196910Y8673D01*
X197923Y7021D01*
X199181Y5548D01*
X200655Y4289D01*
X202307Y3277D01*
X204097Y2535D01*
X205982Y2083D01*
X207031Y2000D01*
X207011Y1500D01*
X158500D01*
X155000Y5000D01*
Y27000D01*
X149000Y33000D01*
X74000D01*
X69000Y28000D01*
Y4000D01*
X66500Y1500D01*
X16465D01*
X16435Y1542D01*
X16682Y2063D01*
X16932Y2083D01*
X18816Y2535D01*
X20606Y3277D01*
X22259Y4289D01*
X23732Y5548D01*
X24991Y7021D01*
X26003Y8673D01*
X26745Y10464D01*
X27197Y12348D01*
X27349Y14280D01*
X27197Y16211D01*
X26745Y18096D01*
X26003Y19886D01*
X24991Y21538D01*
X23732Y23012D01*
X22259Y24270D01*
X20606Y25283D01*
X18816Y26024D01*
X16932Y26477D01*
X15000Y26629D01*
X13068Y26477D01*
X11184Y26024D01*
X9394Y25283D01*
X7741Y24270D01*
X6268Y23012D01*
X5009Y21538D01*
X3997Y19886D01*
X3255Y18096D01*
X2803Y16211D01*
X2756Y15610D01*
X2252Y15407D01*
X2000Y15609D01*
Y239500D01*
X2517Y240017D01*
X2998Y239881D01*
X3255Y238810D01*
X3997Y237020D01*
X5009Y235367D01*
X6268Y233894D01*
X7741Y232635D01*
X9394Y231623D01*
X11184Y230881D01*
X13068Y230429D01*
X15000Y230277D01*
X16932Y230429D01*
X18816Y230881D01*
X20606Y231623D01*
X22259Y232635D01*
X23732Y233894D01*
X24991Y235367D01*
X26003Y237020D01*
X26745Y238810D01*
X27197Y240694D01*
X27349Y242626D01*
X27197Y244558D01*
X26745Y246442D01*
X26003Y248232D01*
X24991Y249885D01*
X23732Y251358D01*
X22259Y252617D01*
X20606Y253629D01*
X18816Y254371D01*
X17745Y254628D01*
X17609Y255109D01*
X18000Y255500D01*
X268500D01*
X280500Y243500D01*
D02*
G37*
%LPC*%
G36*
X33000Y252325D02*
Y249500D01*
X35825D01*
X35776Y249878D01*
X35437Y250696D01*
X34898Y251398D01*
X34196Y251937D01*
X33378Y252276D01*
X33000Y252325D01*
D02*
G37*
G36*
X32000D02*
X31622Y252276D01*
X30804Y251937D01*
X30102Y251398D01*
X29563Y250696D01*
X29224Y249878D01*
X29175Y249500D01*
X32000D01*
Y252325D01*
D02*
G37*
G36*
X52000Y252469D02*
Y249000D01*
X55469D01*
X55397Y249544D01*
X54994Y250517D01*
X54353Y251353D01*
X53517Y251994D01*
X52544Y252397D01*
X52000Y252469D01*
D02*
G37*
G36*
X51000D02*
X50456Y252397D01*
X49483Y251994D01*
X48647Y251353D01*
X48006Y250517D01*
X47603Y249544D01*
X47531Y249000D01*
X51000D01*
Y252469D01*
D02*
G37*
G36*
X35825Y248500D02*
X33000D01*
Y245675D01*
X33378Y245724D01*
X34196Y246063D01*
X34898Y246602D01*
X35437Y247304D01*
X35776Y248122D01*
X35825Y248500D01*
D02*
G37*
G36*
X32000D02*
X29175D01*
X29224Y248122D01*
X29563Y247304D01*
X30102Y246602D01*
X30804Y246063D01*
X31622Y245724D01*
X32000Y245675D01*
Y248500D01*
D02*
G37*
G36*
X61500Y252030D02*
X60586Y251910D01*
X59735Y251557D01*
X59004Y250996D01*
X58443Y250265D01*
X58090Y249414D01*
X57970Y248500D01*
X58090Y247586D01*
X58443Y246735D01*
X59004Y246004D01*
X59735Y245443D01*
X60586Y245090D01*
X61500Y244970D01*
X62414Y245090D01*
X63265Y245443D01*
X63996Y246004D01*
X64557Y246735D01*
X64910Y247586D01*
X65030Y248500D01*
X64910Y249414D01*
X64557Y250265D01*
X63996Y250996D01*
X63265Y251557D01*
X62414Y251910D01*
X61500Y252030D01*
D02*
G37*
G36*
X55469Y248000D02*
X52000D01*
Y244531D01*
X52544Y244603D01*
X53517Y245006D01*
X54353Y245647D01*
X54994Y246483D01*
X55397Y247456D01*
X55469Y248000D01*
D02*
G37*
G36*
X51000D02*
X47531D01*
X47603Y247456D01*
X48006Y246483D01*
X48647Y245647D01*
X49483Y245006D01*
X50456Y244603D01*
X51000Y244531D01*
Y248000D01*
D02*
G37*
G36*
X107248Y240248D02*
X103500D01*
Y236500D01*
X107248D01*
Y240248D01*
D02*
G37*
G36*
X102500D02*
X98752D01*
Y236500D01*
X102500D01*
Y240248D01*
D02*
G37*
G36*
X32500Y241887D02*
X31753Y241789D01*
X31056Y241500D01*
X30459Y241041D01*
X30000Y240443D01*
X29711Y239747D01*
X29613Y239000D01*
X29711Y238253D01*
X30000Y237557D01*
X30459Y236959D01*
X31056Y236500D01*
X31753Y236211D01*
X32500Y236113D01*
X33247Y236211D01*
X33944Y236500D01*
X34541Y236959D01*
X35000Y237557D01*
X35289Y238253D01*
X35387Y239000D01*
X35289Y239747D01*
X35000Y240443D01*
X34541Y241041D01*
X33944Y241500D01*
X33247Y241789D01*
X32500Y241887D01*
D02*
G37*
G36*
X61500Y242030D02*
X60586Y241910D01*
X59735Y241557D01*
X59004Y240996D01*
X58443Y240265D01*
X58090Y239414D01*
X57970Y238500D01*
X58090Y237586D01*
X58443Y236735D01*
X59004Y236004D01*
X59735Y235443D01*
X60586Y235090D01*
X61500Y234970D01*
X62414Y235090D01*
X63265Y235443D01*
X63996Y236004D01*
X64557Y236735D01*
X64910Y237586D01*
X65030Y238500D01*
X64910Y239414D01*
X64557Y240265D01*
X63996Y240996D01*
X63265Y241557D01*
X62414Y241910D01*
X61500Y242030D01*
D02*
G37*
G36*
X51500D02*
X50586Y241910D01*
X49735Y241557D01*
X49004Y240996D01*
X48443Y240265D01*
X48090Y239414D01*
X47970Y238500D01*
X48090Y237586D01*
X48443Y236735D01*
X49004Y236004D01*
X49735Y235443D01*
X50586Y235090D01*
X51500Y234970D01*
X52414Y235090D01*
X53265Y235443D01*
X53996Y236004D01*
X54557Y236735D01*
X54910Y237586D01*
X55030Y238500D01*
X54910Y239414D01*
X54557Y240265D01*
X53996Y240996D01*
X53265Y241557D01*
X52414Y241910D01*
X51500Y242030D01*
D02*
G37*
G36*
X83000Y239780D02*
X82022Y239652D01*
X81110Y239274D01*
X80327Y238673D01*
X79726Y237890D01*
X79348Y236978D01*
X79220Y236000D01*
X79348Y235022D01*
X79726Y234110D01*
X80327Y233327D01*
X81110Y232726D01*
X82022Y232348D01*
X83000Y232220D01*
X83978Y232348D01*
X84890Y232726D01*
X85673Y233327D01*
X86274Y234110D01*
X86652Y235022D01*
X86780Y236000D01*
X86652Y236978D01*
X86274Y237890D01*
X85673Y238673D01*
X84890Y239274D01*
X83978Y239652D01*
X83000Y239780D01*
D02*
G37*
G36*
X107248Y235500D02*
X103500D01*
Y231752D01*
X107248D01*
Y235500D01*
D02*
G37*
G36*
X102500D02*
X98752D01*
Y231752D01*
X102500D01*
Y235500D01*
D02*
G37*
G36*
X152000Y234029D02*
X151415Y233913D01*
X150919Y233581D01*
X150587Y233085D01*
X150471Y232500D01*
X150587Y231915D01*
X150919Y231419D01*
X151415Y231087D01*
X152000Y230971D01*
X152585Y231087D01*
X153081Y231419D01*
X153413Y231915D01*
X153529Y232500D01*
X153413Y233085D01*
X153081Y233581D01*
X152585Y233913D01*
X152000Y234029D01*
D02*
G37*
G36*
X207913Y254975D02*
X205982Y254823D01*
X204097Y254371D01*
X202307Y253629D01*
X200655Y252617D01*
X199181Y251358D01*
X197923Y249885D01*
X196910Y248232D01*
X196169Y246442D01*
X195716Y244558D01*
X195564Y242626D01*
X195716Y240694D01*
X196169Y238810D01*
X196910Y237020D01*
X197923Y235367D01*
X199181Y233894D01*
X200655Y232635D01*
X202307Y231623D01*
X204097Y230881D01*
X205982Y230429D01*
X207913Y230277D01*
X209845Y230429D01*
X211730Y230881D01*
X213520Y231623D01*
X215172Y232635D01*
X216646Y233894D01*
X217904Y235367D01*
X218917Y237020D01*
X219658Y238810D01*
X220110Y240694D01*
X220263Y242626D01*
X220110Y244558D01*
X219658Y246442D01*
X218917Y248232D01*
X217904Y249885D01*
X216646Y251358D01*
X215172Y252617D01*
X213520Y253629D01*
X211730Y254371D01*
X209845Y254823D01*
X207913Y254975D01*
D02*
G37*
G36*
X20000Y226935D02*
X19099Y226817D01*
X18259Y226469D01*
X17537Y225915D01*
X16984Y225194D01*
X16636Y224354D01*
X16518Y223453D01*
X16636Y222551D01*
X16984Y221711D01*
X17537Y220990D01*
X18259Y220437D01*
X19099Y220089D01*
X20000Y219970D01*
X20901Y220089D01*
X21741Y220437D01*
X22463Y220990D01*
X23016Y221711D01*
X23364Y222551D01*
X23483Y223453D01*
X23364Y224354D01*
X23016Y225194D01*
X22463Y225915D01*
X21741Y226469D01*
X20901Y226817D01*
X20000Y226935D01*
D02*
G37*
G36*
X10000D02*
X9099Y226817D01*
X8259Y226469D01*
X7537Y225915D01*
X6984Y225194D01*
X6636Y224354D01*
X6517Y223453D01*
X6636Y222551D01*
X6984Y221711D01*
X7537Y220990D01*
X8259Y220437D01*
X9099Y220089D01*
X10000Y219970D01*
X10901Y220089D01*
X11741Y220437D01*
X12462Y220990D01*
X13016Y221711D01*
X13364Y222551D01*
X13483Y223453D01*
X13364Y224354D01*
X13016Y225194D01*
X12462Y225915D01*
X11741Y226469D01*
X10901Y226817D01*
X10000Y226935D01*
D02*
G37*
G36*
X53768Y218952D02*
Y217929D01*
X54790D01*
X54766Y218050D01*
X54414Y218576D01*
X53888Y218928D01*
X53768Y218952D01*
D02*
G37*
G36*
X49201D02*
Y217929D01*
X50223D01*
X50199Y218050D01*
X49847Y218576D01*
X49321Y218928D01*
X49201Y218952D01*
D02*
G37*
G36*
X52768D02*
X52647Y218928D01*
X52121Y218576D01*
X51769Y218050D01*
X51745Y217929D01*
X52768D01*
Y218952D01*
D02*
G37*
G36*
X48201D02*
X48080Y218928D01*
X47554Y218576D01*
X47203Y218050D01*
X47179Y217929D01*
X48201D01*
Y218952D01*
D02*
G37*
G36*
X226791Y220329D02*
X226206Y220213D01*
X225710Y219881D01*
X225378Y219385D01*
X225262Y218800D01*
X225378Y218215D01*
X225710Y217719D01*
X226206Y217387D01*
X226791Y217271D01*
X227377Y217387D01*
X227873Y217719D01*
X228204Y218215D01*
X228321Y218800D01*
X228204Y219385D01*
X227873Y219881D01*
X227377Y220213D01*
X226791Y220329D01*
D02*
G37*
G36*
X219114D02*
X218529Y220213D01*
X218033Y219881D01*
X217701Y219385D01*
X217585Y218800D01*
X217701Y218215D01*
X218033Y217719D01*
X218529Y217387D01*
X219114Y217271D01*
X219700Y217387D01*
X220196Y217719D01*
X220527Y218215D01*
X220644Y218800D01*
X220527Y219385D01*
X220196Y219881D01*
X219700Y220213D01*
X219114Y220329D01*
D02*
G37*
G36*
X223000Y220029D02*
X222415Y219913D01*
X221919Y219581D01*
X221587Y219085D01*
X221471Y218500D01*
X221587Y217915D01*
X221919Y217419D01*
X222415Y217087D01*
X223000Y216971D01*
X223585Y217087D01*
X224081Y217419D01*
X224413Y217915D01*
X224529Y218500D01*
X224413Y219085D01*
X224081Y219581D01*
X223585Y219913D01*
X223000Y220029D01*
D02*
G37*
G36*
X189000D02*
X188415Y219913D01*
X187919Y219581D01*
X187587Y219085D01*
X187471Y218500D01*
X187587Y217915D01*
X187919Y217419D01*
X188415Y217087D01*
X189000Y216971D01*
X189585Y217087D01*
X190081Y217419D01*
X190413Y217915D01*
X190529Y218500D01*
X190413Y219085D01*
X190081Y219581D01*
X189585Y219913D01*
X189000Y220029D01*
D02*
G37*
G36*
X48201Y216929D02*
X47179D01*
X47203Y216809D01*
X47554Y216283D01*
X48080Y215931D01*
X48201Y215907D01*
Y216929D01*
D02*
G37*
G36*
X54790D02*
X53768D01*
Y215907D01*
X53888Y215931D01*
X54414Y216283D01*
X54766Y216809D01*
X54790Y216929D01*
D02*
G37*
G36*
X52768D02*
X51502D01*
X51484Y216912D01*
Y215646D01*
X52750D01*
X52768Y215663D01*
Y216929D01*
D02*
G37*
G36*
X50467D02*
X49201D01*
Y215663D01*
X49218Y215646D01*
X50484D01*
Y216912D01*
X50467Y216929D01*
D02*
G37*
G36*
X41200Y217983D02*
X40615Y217866D01*
X40119Y217535D01*
X39787Y217039D01*
X39671Y216454D01*
X39787Y215868D01*
X40119Y215372D01*
X40615Y215040D01*
X41200Y214924D01*
X41785Y215040D01*
X42281Y215372D01*
X42613Y215868D01*
X42729Y216454D01*
X42613Y217039D01*
X42281Y217535D01*
X41785Y217866D01*
X41200Y217983D01*
D02*
G37*
G36*
X143500Y217539D02*
X142720Y217384D01*
X142058Y216941D01*
X141616Y216280D01*
X141461Y215500D01*
X141616Y214719D01*
X142058Y214058D01*
X142720Y213616D01*
X143500Y213460D01*
X144280Y213616D01*
X144942Y214058D01*
X145384Y214719D01*
X145539Y215500D01*
X145384Y216280D01*
X144942Y216941D01*
X144280Y217384D01*
X143500Y217539D01*
D02*
G37*
G36*
X53768Y214385D02*
Y213363D01*
X54790D01*
X54766Y213483D01*
X54414Y214009D01*
X53888Y214361D01*
X53768Y214385D01*
D02*
G37*
G36*
X50484Y214646D02*
X49218D01*
X49201Y214629D01*
Y213363D01*
X50467D01*
X50484Y213380D01*
Y214646D01*
D02*
G37*
G36*
X48201Y214385D02*
X48080Y214361D01*
X47554Y214009D01*
X47203Y213483D01*
X47179Y213363D01*
X48201D01*
Y214385D01*
D02*
G37*
G36*
X52750Y214646D02*
X51484D01*
Y213380D01*
X51502Y213363D01*
X52768D01*
Y214629D01*
X52750Y214646D01*
D02*
G37*
G36*
X122800Y217339D02*
X122020Y217184D01*
X121358Y216742D01*
X120916Y216080D01*
X120761Y215300D01*
X120916Y214520D01*
X121358Y213858D01*
X122020Y213416D01*
X122800Y213261D01*
X123580Y213416D01*
X124242Y213858D01*
X124684Y214520D01*
X124839Y215300D01*
X124684Y216080D01*
X124242Y216742D01*
X123580Y217184D01*
X122800Y217339D01*
D02*
G37*
G36*
X274453Y221539D02*
X273278Y221384D01*
X272183Y220931D01*
X271243Y220209D01*
X270522Y219269D01*
X270069Y218175D01*
X269914Y217000D01*
X270069Y215825D01*
X270522Y214731D01*
X271243Y213791D01*
X272183Y213069D01*
X273278Y212616D01*
X274453Y212461D01*
X275627Y212616D01*
X276722Y213069D01*
X277662Y213791D01*
X278383Y214731D01*
X278837Y215825D01*
X278992Y217000D01*
X278837Y218175D01*
X278383Y219269D01*
X277662Y220209D01*
X276722Y220931D01*
X275627Y221384D01*
X274453Y221539D01*
D02*
G37*
G36*
X254453D02*
X253278Y221384D01*
X252183Y220931D01*
X251243Y220209D01*
X250522Y219269D01*
X250069Y218175D01*
X249914Y217000D01*
X250069Y215825D01*
X250522Y214731D01*
X251243Y213791D01*
X252183Y213069D01*
X253278Y212616D01*
X254453Y212461D01*
X255627Y212616D01*
X256722Y213069D01*
X257662Y213791D01*
X258383Y214731D01*
X258837Y215825D01*
X258992Y217000D01*
X258837Y218175D01*
X258383Y219269D01*
X257662Y220209D01*
X256722Y220931D01*
X255627Y221384D01*
X254453Y221539D01*
D02*
G37*
G36*
X52768Y212363D02*
X51745D01*
X51769Y212242D01*
X52121Y211716D01*
X52647Y211364D01*
X52768Y211340D01*
Y212363D01*
D02*
G37*
G36*
X48201D02*
X47179D01*
X47203Y212242D01*
X47554Y211716D01*
X48080Y211364D01*
X48201Y211340D01*
Y212363D01*
D02*
G37*
G36*
X54790D02*
X53768D01*
Y211340D01*
X53888Y211364D01*
X54414Y211716D01*
X54766Y212242D01*
X54790Y212363D01*
D02*
G37*
G36*
X50223D02*
X49201D01*
Y211340D01*
X49321Y211364D01*
X49847Y211716D01*
X50199Y212242D01*
X50223Y212363D01*
D02*
G37*
G36*
X20000Y216935D02*
X19099Y216817D01*
X18259Y216469D01*
X17537Y215915D01*
X16984Y215194D01*
X16636Y214354D01*
X16518Y213453D01*
X16636Y212551D01*
X16984Y211712D01*
X17537Y210990D01*
X18259Y210437D01*
X19099Y210089D01*
X20000Y209970D01*
X20901Y210089D01*
X21741Y210437D01*
X22463Y210990D01*
X23016Y211712D01*
X23364Y212551D01*
X23483Y213453D01*
X23364Y214354D01*
X23016Y215194D01*
X22463Y215915D01*
X21741Y216469D01*
X20901Y216817D01*
X20000Y216935D01*
D02*
G37*
G36*
X10000D02*
X9099Y216817D01*
X8259Y216469D01*
X7537Y215915D01*
X6984Y215194D01*
X6636Y214354D01*
X6517Y213453D01*
X6636Y212551D01*
X6984Y211712D01*
X7537Y210990D01*
X8259Y210437D01*
X9099Y210089D01*
X10000Y209970D01*
X10901Y210089D01*
X11741Y210437D01*
X12462Y210990D01*
X13016Y211712D01*
X13364Y212551D01*
X13483Y213453D01*
X13364Y214354D01*
X13016Y215194D01*
X12462Y215915D01*
X11741Y216469D01*
X10901Y216817D01*
X10000Y216935D01*
D02*
G37*
G36*
X122600Y212539D02*
X121820Y212384D01*
X121158Y211942D01*
X120716Y211280D01*
X120561Y210500D01*
X120716Y209720D01*
X121158Y209058D01*
X121820Y208616D01*
X122600Y208461D01*
X123380Y208616D01*
X124042Y209058D01*
X124484Y209720D01*
X124639Y210500D01*
X124484Y211280D01*
X124042Y211942D01*
X123380Y212384D01*
X122600Y212539D01*
D02*
G37*
G36*
X143500Y212039D02*
X142720Y211884D01*
X142058Y211441D01*
X141616Y210780D01*
X141461Y210000D01*
X141616Y209219D01*
X142058Y208558D01*
X142720Y208116D01*
X143500Y207960D01*
X144280Y208116D01*
X144942Y208558D01*
X145384Y209219D01*
X145539Y210000D01*
X145384Y210780D01*
X144942Y211441D01*
X144280Y211884D01*
X143500Y212039D01*
D02*
G37*
G36*
X84500Y209039D02*
X83720Y208884D01*
X83058Y208442D01*
X82616Y207780D01*
X82461Y207000D01*
X82616Y206220D01*
X83058Y205558D01*
X83720Y205116D01*
X84500Y204961D01*
X85280Y205116D01*
X85942Y205558D01*
X86384Y206220D01*
X86539Y207000D01*
X86384Y207780D01*
X85942Y208442D01*
X85280Y208884D01*
X84500Y209039D01*
D02*
G37*
G36*
X79500D02*
X78720Y208884D01*
X78058Y208442D01*
X77616Y207780D01*
X77461Y207000D01*
X77616Y206220D01*
X78058Y205558D01*
X78720Y205116D01*
X79500Y204961D01*
X80280Y205116D01*
X80942Y205558D01*
X81384Y206220D01*
X81539Y207000D01*
X81384Y207780D01*
X80942Y208442D01*
X80280Y208884D01*
X79500Y209039D01*
D02*
G37*
G36*
X212000Y207529D02*
X211415Y207413D01*
X210919Y207081D01*
X210587Y206585D01*
X210471Y206000D01*
X210587Y205415D01*
X210919Y204919D01*
X211415Y204587D01*
X212000Y204471D01*
X212585Y204587D01*
X213081Y204919D01*
X213413Y205415D01*
X213529Y206000D01*
X213413Y206585D01*
X213081Y207081D01*
X212585Y207413D01*
X212000Y207529D01*
D02*
G37*
G36*
X178000D02*
X177415Y207413D01*
X176919Y207081D01*
X176587Y206585D01*
X176471Y206000D01*
X176587Y205415D01*
X176919Y204919D01*
X177415Y204587D01*
X178000Y204471D01*
X178585Y204587D01*
X179081Y204919D01*
X179413Y205415D01*
X179529Y206000D01*
X179413Y206585D01*
X179081Y207081D01*
X178585Y207413D01*
X178000Y207529D01*
D02*
G37*
G36*
X225000Y209029D02*
X224415Y208913D01*
X223919Y208581D01*
X223587Y208085D01*
X223471Y207500D01*
X223587Y206915D01*
X223919Y206419D01*
X224095Y206301D01*
Y205699D01*
X223919Y205581D01*
X223587Y205085D01*
X223471Y204500D01*
X223587Y203915D01*
X223919Y203419D01*
X224415Y203087D01*
X225000Y202971D01*
X225585Y203087D01*
X226081Y203419D01*
X226413Y203915D01*
X226529Y204500D01*
X226413Y205085D01*
X226081Y205581D01*
X225905Y205699D01*
Y206301D01*
X226081Y206419D01*
X226413Y206915D01*
X226529Y207500D01*
X226413Y208085D01*
X226081Y208581D01*
X225585Y208913D01*
X225000Y209029D01*
D02*
G37*
G36*
X221000D02*
X220415Y208913D01*
X219919Y208581D01*
X219587Y208085D01*
X219471Y207500D01*
X219587Y206915D01*
X219919Y206419D01*
X220095Y206301D01*
Y205699D01*
X219919Y205581D01*
X219587Y205085D01*
X219471Y204500D01*
X219587Y203915D01*
X219919Y203419D01*
X220415Y203087D01*
X221000Y202971D01*
X221585Y203087D01*
X222081Y203419D01*
X222413Y203915D01*
X222529Y204500D01*
X222413Y205085D01*
X222081Y205581D01*
X221905Y205699D01*
Y206301D01*
X222081Y206419D01*
X222413Y206915D01*
X222529Y207500D01*
X222413Y208085D01*
X222081Y208581D01*
X221585Y208913D01*
X221000Y209029D01*
D02*
G37*
G36*
X191000D02*
X190415Y208913D01*
X189919Y208581D01*
X189587Y208085D01*
X189471Y207500D01*
X189587Y206915D01*
X189919Y206419D01*
X190095Y206301D01*
Y205699D01*
X189919Y205581D01*
X189587Y205085D01*
X189471Y204500D01*
X189587Y203915D01*
X189919Y203419D01*
X190415Y203087D01*
X191000Y202971D01*
X191585Y203087D01*
X192081Y203419D01*
X192413Y203915D01*
X192529Y204500D01*
X192413Y205085D01*
X192081Y205581D01*
X191905Y205699D01*
Y206301D01*
X192081Y206419D01*
X192413Y206915D01*
X192529Y207500D01*
X192413Y208085D01*
X192081Y208581D01*
X191585Y208913D01*
X191000Y209029D01*
D02*
G37*
G36*
X187000D02*
X186415Y208913D01*
X185919Y208581D01*
X185587Y208085D01*
X185471Y207500D01*
X185587Y206915D01*
X185919Y206419D01*
X186095Y206301D01*
Y205699D01*
X185919Y205581D01*
X185587Y205085D01*
X185471Y204500D01*
X185587Y203915D01*
X185919Y203419D01*
X186415Y203087D01*
X187000Y202971D01*
X187585Y203087D01*
X188081Y203419D01*
X188413Y203915D01*
X188529Y204500D01*
X188413Y205085D01*
X188081Y205581D01*
X187905Y205699D01*
Y206301D01*
X188081Y206419D01*
X188413Y206915D01*
X188529Y207500D01*
X188413Y208085D01*
X188081Y208581D01*
X187585Y208913D01*
X187000Y209029D01*
D02*
G37*
G36*
X264453Y211539D02*
X263278Y211384D01*
X262183Y210931D01*
X261243Y210209D01*
X260522Y209269D01*
X260069Y208175D01*
X259914Y207000D01*
X260069Y205825D01*
X260522Y204731D01*
X261243Y203791D01*
X262183Y203069D01*
X263278Y202616D01*
X264453Y202461D01*
X265628Y202616D01*
X266722Y203069D01*
X267662Y203791D01*
X268384Y204731D01*
X268837Y205825D01*
X268992Y207000D01*
X268837Y208175D01*
X268384Y209269D01*
X267662Y210209D01*
X266722Y210931D01*
X265628Y211384D01*
X264453Y211539D01*
D02*
G37*
G36*
X40000Y204529D02*
X39415Y204413D01*
X38919Y204081D01*
X38587Y203585D01*
X38471Y203000D01*
X38587Y202415D01*
X38919Y201919D01*
X39415Y201587D01*
X40000Y201471D01*
X40585Y201587D01*
X41081Y201919D01*
X41413Y202415D01*
X41529Y203000D01*
X41413Y203585D01*
X41081Y204081D01*
X40585Y204413D01*
X40000Y204529D01*
D02*
G37*
G36*
X20000Y206935D02*
X19099Y206817D01*
X18259Y206469D01*
X17537Y205915D01*
X16984Y205194D01*
X16636Y204354D01*
X16518Y203453D01*
X16636Y202551D01*
X16984Y201712D01*
X17537Y200990D01*
X18259Y200437D01*
X19099Y200089D01*
X20000Y199970D01*
X20901Y200089D01*
X21741Y200437D01*
X22463Y200990D01*
X23016Y201712D01*
X23364Y202551D01*
X23483Y203453D01*
X23364Y204354D01*
X23016Y205194D01*
X22463Y205915D01*
X21741Y206469D01*
X20901Y206817D01*
X20000Y206935D01*
D02*
G37*
G36*
X10000D02*
X9099Y206817D01*
X8259Y206469D01*
X7537Y205915D01*
X6984Y205194D01*
X6636Y204354D01*
X6517Y203453D01*
X6636Y202551D01*
X6984Y201712D01*
X7537Y200990D01*
X8259Y200437D01*
X9099Y200089D01*
X10000Y199970D01*
X10901Y200089D01*
X11741Y200437D01*
X12462Y200990D01*
X13016Y201712D01*
X13364Y202551D01*
X13483Y203453D01*
X13364Y204354D01*
X13016Y205194D01*
X12462Y205915D01*
X11741Y206469D01*
X10901Y206817D01*
X10000Y206935D01*
D02*
G37*
G36*
X198000Y202784D02*
X197317Y202648D01*
X196738Y202262D01*
X196352Y201683D01*
X196216Y201000D01*
X196352Y200317D01*
X196738Y199738D01*
X197317Y199352D01*
X198000Y199216D01*
X198683Y199352D01*
X199262Y199738D01*
X199648Y200317D01*
X199784Y201000D01*
X199648Y201683D01*
X199262Y202262D01*
X198683Y202648D01*
X198000Y202784D01*
D02*
G37*
G36*
X30500Y200294D02*
X29622Y200119D01*
X28878Y199622D01*
X28381Y198878D01*
X28206Y198000D01*
X28381Y197122D01*
X28878Y196378D01*
X29622Y195880D01*
X30500Y195706D01*
X31378Y195880D01*
X32122Y196378D01*
X32620Y197122D01*
X32794Y198000D01*
X32620Y198878D01*
X32122Y199622D01*
X31378Y200119D01*
X30500Y200294D01*
D02*
G37*
G36*
X55500Y196029D02*
X54915Y195913D01*
X54419Y195581D01*
X54087Y195085D01*
X53971Y194500D01*
X54087Y193915D01*
X54419Y193419D01*
X54915Y193087D01*
X55500Y192971D01*
X56085Y193087D01*
X56581Y193419D01*
X56913Y193915D01*
X57029Y194500D01*
X56913Y195085D01*
X56581Y195581D01*
X56085Y195913D01*
X55500Y196029D01*
D02*
G37*
G36*
X274453Y201539D02*
X273278Y201384D01*
X272183Y200931D01*
X271243Y200209D01*
X270522Y199269D01*
X270069Y198175D01*
X269914Y197000D01*
X270069Y195825D01*
X270522Y194731D01*
X271243Y193791D01*
X272183Y193069D01*
X273278Y192616D01*
X274453Y192461D01*
X275627Y192616D01*
X276722Y193069D01*
X277662Y193791D01*
X278383Y194731D01*
X278837Y195825D01*
X278992Y197000D01*
X278837Y198175D01*
X278383Y199269D01*
X277662Y200209D01*
X276722Y200931D01*
X275627Y201384D01*
X274453Y201539D01*
D02*
G37*
G36*
X254453D02*
X253278Y201384D01*
X252183Y200931D01*
X251243Y200209D01*
X250522Y199269D01*
X250069Y198175D01*
X249914Y197000D01*
X250069Y195825D01*
X250522Y194731D01*
X251243Y193791D01*
X252183Y193069D01*
X253278Y192616D01*
X254453Y192461D01*
X255627Y192616D01*
X256722Y193069D01*
X257662Y193791D01*
X258383Y194731D01*
X258837Y195825D01*
X258992Y197000D01*
X258837Y198175D01*
X258383Y199269D01*
X257662Y200209D01*
X256722Y200931D01*
X255627Y201384D01*
X254453Y201539D01*
D02*
G37*
G36*
X227000Y194529D02*
X226415Y194413D01*
X225919Y194081D01*
X225587Y193585D01*
X225471Y193000D01*
X225587Y192415D01*
X225919Y191919D01*
X226415Y191587D01*
X227000Y191471D01*
X227585Y191587D01*
X228081Y191919D01*
X228413Y192415D01*
X228529Y193000D01*
X228413Y193585D01*
X228081Y194081D01*
X227585Y194413D01*
X227000Y194529D01*
D02*
G37*
G36*
X219000D02*
X218415Y194413D01*
X217919Y194081D01*
X217587Y193585D01*
X217471Y193000D01*
X217587Y192415D01*
X217919Y191919D01*
X218415Y191587D01*
X219000Y191471D01*
X219585Y191587D01*
X220081Y191919D01*
X220413Y192415D01*
X220529Y193000D01*
X220413Y193585D01*
X220081Y194081D01*
X219585Y194413D01*
X219000Y194529D01*
D02*
G37*
G36*
X20000Y196935D02*
X19099Y196817D01*
X18259Y196469D01*
X17537Y195915D01*
X16984Y195194D01*
X16636Y194354D01*
X16518Y193453D01*
X16636Y192551D01*
X16984Y191711D01*
X17537Y190990D01*
X18259Y190437D01*
X19099Y190089D01*
X20000Y189970D01*
X20901Y190089D01*
X21741Y190437D01*
X22463Y190990D01*
X23016Y191711D01*
X23364Y192551D01*
X23483Y193453D01*
X23364Y194354D01*
X23016Y195194D01*
X22463Y195915D01*
X21741Y196469D01*
X20901Y196817D01*
X20000Y196935D01*
D02*
G37*
G36*
X10000D02*
X9099Y196817D01*
X8259Y196469D01*
X7537Y195915D01*
X6984Y195194D01*
X6636Y194354D01*
X6517Y193453D01*
X6636Y192551D01*
X6984Y191711D01*
X7537Y190990D01*
X8259Y190437D01*
X9099Y190089D01*
X10000Y189970D01*
X10901Y190089D01*
X11741Y190437D01*
X12462Y190990D01*
X13016Y191711D01*
X13364Y192551D01*
X13483Y193453D01*
X13364Y194354D01*
X13016Y195194D01*
X12462Y195915D01*
X11741Y196469D01*
X10901Y196817D01*
X10000Y196935D01*
D02*
G37*
G36*
X30500Y191294D02*
X29622Y191120D01*
X28878Y190622D01*
X28381Y189878D01*
X28206Y189000D01*
X28381Y188122D01*
X28878Y187378D01*
X29622Y186881D01*
X30500Y186706D01*
X31378Y186881D01*
X32122Y187378D01*
X32620Y188122D01*
X32794Y189000D01*
X32620Y189878D01*
X32122Y190622D01*
X31378Y191120D01*
X30500Y191294D01*
D02*
G37*
G36*
X93500Y189039D02*
X92720Y188884D01*
X92058Y188442D01*
X91616Y187780D01*
X91461Y187000D01*
X91616Y186220D01*
X92058Y185558D01*
X92720Y185116D01*
X93500Y184961D01*
X94280Y185116D01*
X94942Y185558D01*
X95384Y186220D01*
X95539Y187000D01*
X95384Y187780D01*
X94942Y188442D01*
X94280Y188884D01*
X93500Y189039D01*
D02*
G37*
G36*
X20000Y186935D02*
X19099Y186817D01*
X18259Y186469D01*
X17537Y185915D01*
X16984Y185194D01*
X16636Y184354D01*
X16518Y183453D01*
X16636Y182551D01*
X16984Y181711D01*
X17537Y180990D01*
X18259Y180437D01*
X19099Y180089D01*
X20000Y179970D01*
X20901Y180089D01*
X21741Y180437D01*
X22463Y180990D01*
X23016Y181711D01*
X23364Y182551D01*
X23483Y183453D01*
X23364Y184354D01*
X23016Y185194D01*
X22463Y185915D01*
X21741Y186469D01*
X20901Y186817D01*
X20000Y186935D01*
D02*
G37*
G36*
X10000D02*
X9099Y186817D01*
X8259Y186469D01*
X7537Y185915D01*
X6984Y185194D01*
X6636Y184354D01*
X6517Y183453D01*
X6636Y182551D01*
X6984Y181711D01*
X7537Y180990D01*
X8259Y180437D01*
X9099Y180089D01*
X10000Y179970D01*
X10901Y180089D01*
X11741Y180437D01*
X12462Y180990D01*
X13016Y181711D01*
X13364Y182551D01*
X13483Y183453D01*
X13364Y184354D01*
X13016Y185194D01*
X12462Y185915D01*
X11741Y186469D01*
X10901Y186817D01*
X10000Y186935D01*
D02*
G37*
G36*
X72000Y179539D02*
X71220Y179384D01*
X70558Y178942D01*
X70116Y178280D01*
X70015Y177774D01*
X70005Y177722D01*
X69495D01*
X69485Y177774D01*
X69384Y178280D01*
X68942Y178942D01*
X68280Y179384D01*
X67500Y179539D01*
X66720Y179384D01*
X66058Y178942D01*
X65616Y178280D01*
X65461Y177500D01*
X65616Y176720D01*
X66058Y176058D01*
X66720Y175616D01*
X67500Y175461D01*
X68280Y175616D01*
X68942Y176058D01*
X69384Y176720D01*
X69485Y177226D01*
X69495Y177278D01*
X70005D01*
X70015Y177226D01*
X70116Y176720D01*
X70558Y176058D01*
X71220Y175616D01*
X72000Y175461D01*
X72780Y175616D01*
X73442Y176058D01*
X73884Y176720D01*
X74039Y177500D01*
X73884Y178280D01*
X73442Y178942D01*
X72780Y179384D01*
X72000Y179539D01*
D02*
G37*
G36*
Y174039D02*
X71220Y173884D01*
X70558Y173442D01*
X70116Y172780D01*
X70015Y172274D01*
X70005Y172222D01*
X69495D01*
X69485Y172274D01*
X69384Y172780D01*
X68942Y173442D01*
X68280Y173884D01*
X67500Y174039D01*
X66720Y173884D01*
X66058Y173442D01*
X65616Y172780D01*
X65461Y172000D01*
X65616Y171220D01*
X66058Y170558D01*
X66720Y170116D01*
X67500Y169961D01*
X68280Y170116D01*
X68942Y170558D01*
X69384Y171220D01*
X69485Y171726D01*
X69495Y171778D01*
X70005D01*
X70015Y171726D01*
X70116Y171220D01*
X70558Y170558D01*
X71220Y170116D01*
X72000Y169961D01*
X72780Y170116D01*
X73442Y170558D01*
X73884Y171220D01*
X74039Y172000D01*
X73884Y172780D01*
X73442Y173442D01*
X72780Y173884D01*
X72000Y174039D01*
D02*
G37*
G36*
X20000Y176935D02*
X19099Y176817D01*
X18259Y176469D01*
X17537Y175915D01*
X16984Y175194D01*
X16636Y174354D01*
X16518Y173453D01*
X16636Y172551D01*
X16984Y171712D01*
X17537Y170990D01*
X18259Y170437D01*
X19099Y170089D01*
X20000Y169970D01*
X20901Y170089D01*
X21741Y170437D01*
X22463Y170990D01*
X23016Y171712D01*
X23364Y172551D01*
X23483Y173453D01*
X23364Y174354D01*
X23016Y175194D01*
X22463Y175915D01*
X21741Y176469D01*
X20901Y176817D01*
X20000Y176935D01*
D02*
G37*
G36*
X10000D02*
X9099Y176817D01*
X8259Y176469D01*
X7537Y175915D01*
X6984Y175194D01*
X6636Y174354D01*
X6517Y173453D01*
X6636Y172551D01*
X6984Y171712D01*
X7537Y170990D01*
X8259Y170437D01*
X9099Y170089D01*
X10000Y169970D01*
X10901Y170089D01*
X11741Y170437D01*
X12462Y170990D01*
X13016Y171712D01*
X13364Y172551D01*
X13483Y173453D01*
X13364Y174354D01*
X13016Y175194D01*
X12462Y175915D01*
X11741Y176469D01*
X10901Y176817D01*
X10000Y176935D01*
D02*
G37*
G36*
X226791Y167329D02*
X226206Y167213D01*
X225710Y166881D01*
X225378Y166385D01*
X225262Y165800D01*
X225378Y165215D01*
X225710Y164719D01*
X226206Y164387D01*
X226791Y164271D01*
X227377Y164387D01*
X227873Y164719D01*
X228204Y165215D01*
X228321Y165800D01*
X228204Y166385D01*
X227873Y166881D01*
X227377Y167213D01*
X226791Y167329D01*
D02*
G37*
G36*
X219114D02*
X218529Y167213D01*
X218033Y166881D01*
X217701Y166385D01*
X217585Y165800D01*
X217701Y165215D01*
X218033Y164719D01*
X218529Y164387D01*
X219114Y164271D01*
X219700Y164387D01*
X220196Y164719D01*
X220527Y165215D01*
X220644Y165800D01*
X220527Y166385D01*
X220196Y166881D01*
X219700Y167213D01*
X219114Y167329D01*
D02*
G37*
G36*
X223000Y167029D02*
X222415Y166913D01*
X221919Y166581D01*
X221587Y166085D01*
X221471Y165500D01*
X221587Y164915D01*
X221919Y164419D01*
X222415Y164087D01*
X223000Y163971D01*
X223585Y164087D01*
X224081Y164419D01*
X224413Y164915D01*
X224529Y165500D01*
X224413Y166085D01*
X224081Y166581D01*
X223585Y166913D01*
X223000Y167029D01*
D02*
G37*
G36*
X189000D02*
X188415Y166913D01*
X187919Y166581D01*
X187587Y166085D01*
X187471Y165500D01*
X187587Y164915D01*
X187919Y164419D01*
X188415Y164087D01*
X189000Y163971D01*
X189585Y164087D01*
X190081Y164419D01*
X190413Y164915D01*
X190529Y165500D01*
X190413Y166085D01*
X190081Y166581D01*
X189585Y166913D01*
X189000Y167029D01*
D02*
G37*
G36*
X20000Y166935D02*
X19099Y166817D01*
X18259Y166469D01*
X17537Y165915D01*
X16984Y165194D01*
X16636Y164354D01*
X16518Y163453D01*
X16636Y162551D01*
X16984Y161712D01*
X17537Y160990D01*
X18259Y160437D01*
X19099Y160089D01*
X20000Y159970D01*
X20901Y160089D01*
X21741Y160437D01*
X22463Y160990D01*
X23016Y161712D01*
X23364Y162551D01*
X23483Y163453D01*
X23364Y164354D01*
X23016Y165194D01*
X22463Y165915D01*
X21741Y166469D01*
X20901Y166817D01*
X20000Y166935D01*
D02*
G37*
G36*
X10000D02*
X9099Y166817D01*
X8259Y166469D01*
X7537Y165915D01*
X6984Y165194D01*
X6636Y164354D01*
X6517Y163453D01*
X6636Y162551D01*
X6984Y161712D01*
X7537Y160990D01*
X8259Y160437D01*
X9099Y160089D01*
X10000Y159970D01*
X10901Y160089D01*
X11741Y160437D01*
X12462Y160990D01*
X13016Y161712D01*
X13364Y162551D01*
X13483Y163453D01*
X13364Y164354D01*
X13016Y165194D01*
X12462Y165915D01*
X11741Y166469D01*
X10901Y166817D01*
X10000Y166935D01*
D02*
G37*
G36*
X274453Y168539D02*
X273278Y168384D01*
X272183Y167931D01*
X271243Y167209D01*
X270522Y166269D01*
X270069Y165175D01*
X269914Y164000D01*
X270069Y162825D01*
X270522Y161731D01*
X271243Y160791D01*
X272183Y160069D01*
X273278Y159616D01*
X274453Y159461D01*
X275627Y159616D01*
X276722Y160069D01*
X277662Y160791D01*
X278383Y161731D01*
X278837Y162825D01*
X278992Y164000D01*
X278837Y165175D01*
X278383Y166269D01*
X277662Y167209D01*
X276722Y167931D01*
X275627Y168384D01*
X274453Y168539D01*
D02*
G37*
G36*
X254453D02*
X253278Y168384D01*
X252183Y167931D01*
X251243Y167209D01*
X250522Y166269D01*
X250069Y165175D01*
X249914Y164000D01*
X250069Y162825D01*
X250522Y161731D01*
X251243Y160791D01*
X252183Y160069D01*
X253278Y159616D01*
X254453Y159461D01*
X255627Y159616D01*
X256722Y160069D01*
X257662Y160791D01*
X258383Y161731D01*
X258837Y162825D01*
X258992Y164000D01*
X258837Y165175D01*
X258383Y166269D01*
X257662Y167209D01*
X256722Y167931D01*
X255627Y168384D01*
X254453Y168539D01*
D02*
G37*
G36*
X212000Y154529D02*
X211415Y154413D01*
X210919Y154081D01*
X210587Y153585D01*
X210471Y153000D01*
X210587Y152415D01*
X210919Y151919D01*
X211415Y151587D01*
X212000Y151471D01*
X212585Y151587D01*
X213081Y151919D01*
X213413Y152415D01*
X213529Y153000D01*
X213413Y153585D01*
X213081Y154081D01*
X212585Y154413D01*
X212000Y154529D01*
D02*
G37*
G36*
X178000D02*
X177415Y154413D01*
X176919Y154081D01*
X176587Y153585D01*
X176471Y153000D01*
X176587Y152415D01*
X176919Y151919D01*
X177415Y151587D01*
X178000Y151471D01*
X178585Y151587D01*
X179081Y151919D01*
X179413Y152415D01*
X179529Y153000D01*
X179413Y153585D01*
X179081Y154081D01*
X178585Y154413D01*
X178000Y154529D01*
D02*
G37*
G36*
X225000Y156029D02*
X224415Y155913D01*
X223919Y155581D01*
X223587Y155085D01*
X223471Y154500D01*
X223587Y153915D01*
X223919Y153419D01*
X224095Y153301D01*
Y152699D01*
X223919Y152581D01*
X223587Y152085D01*
X223471Y151500D01*
X223587Y150915D01*
X223919Y150419D01*
X224415Y150087D01*
X225000Y149971D01*
X225585Y150087D01*
X226081Y150419D01*
X226413Y150915D01*
X226529Y151500D01*
X226413Y152085D01*
X226081Y152581D01*
X225905Y152699D01*
Y153301D01*
X226081Y153419D01*
X226413Y153915D01*
X226529Y154500D01*
X226413Y155085D01*
X226081Y155581D01*
X225585Y155913D01*
X225000Y156029D01*
D02*
G37*
G36*
X221000D02*
X220415Y155913D01*
X219919Y155581D01*
X219587Y155085D01*
X219471Y154500D01*
X219587Y153915D01*
X219919Y153419D01*
X220095Y153301D01*
Y152699D01*
X219919Y152581D01*
X219587Y152085D01*
X219471Y151500D01*
X219587Y150915D01*
X219919Y150419D01*
X220415Y150087D01*
X221000Y149971D01*
X221585Y150087D01*
X222081Y150419D01*
X222413Y150915D01*
X222529Y151500D01*
X222413Y152085D01*
X222081Y152581D01*
X221905Y152699D01*
Y153301D01*
X222081Y153419D01*
X222413Y153915D01*
X222529Y154500D01*
X222413Y155085D01*
X222081Y155581D01*
X221585Y155913D01*
X221000Y156029D01*
D02*
G37*
G36*
X191000D02*
X190415Y155913D01*
X189919Y155581D01*
X189587Y155085D01*
X189471Y154500D01*
X189587Y153915D01*
X189919Y153419D01*
X190095Y153301D01*
Y152699D01*
X189919Y152581D01*
X189587Y152085D01*
X189471Y151500D01*
X189587Y150915D01*
X189919Y150419D01*
X190415Y150087D01*
X191000Y149971D01*
X191585Y150087D01*
X192081Y150419D01*
X192413Y150915D01*
X192529Y151500D01*
X192413Y152085D01*
X192081Y152581D01*
X191905Y152699D01*
Y153301D01*
X192081Y153419D01*
X192413Y153915D01*
X192529Y154500D01*
X192413Y155085D01*
X192081Y155581D01*
X191585Y155913D01*
X191000Y156029D01*
D02*
G37*
G36*
X187000D02*
X186415Y155913D01*
X185919Y155581D01*
X185587Y155085D01*
X185471Y154500D01*
X185587Y153915D01*
X185919Y153419D01*
X186095Y153301D01*
Y152699D01*
X185919Y152581D01*
X185587Y152085D01*
X185471Y151500D01*
X185587Y150915D01*
X185919Y150419D01*
X186415Y150087D01*
X187000Y149971D01*
X187585Y150087D01*
X188081Y150419D01*
X188413Y150915D01*
X188529Y151500D01*
X188413Y152085D01*
X188081Y152581D01*
X187905Y152699D01*
Y153301D01*
X188081Y153419D01*
X188413Y153915D01*
X188529Y154500D01*
X188413Y155085D01*
X188081Y155581D01*
X187585Y155913D01*
X187000Y156029D01*
D02*
G37*
G36*
X20000Y156935D02*
X19099Y156817D01*
X18259Y156469D01*
X17537Y155915D01*
X16984Y155194D01*
X16636Y154354D01*
X16518Y153453D01*
X16636Y152551D01*
X16984Y151711D01*
X17537Y150990D01*
X18259Y150437D01*
X19099Y150089D01*
X20000Y149970D01*
X20901Y150089D01*
X21741Y150437D01*
X22463Y150990D01*
X23016Y151711D01*
X23364Y152551D01*
X23483Y153453D01*
X23364Y154354D01*
X23016Y155194D01*
X22463Y155915D01*
X21741Y156469D01*
X20901Y156817D01*
X20000Y156935D01*
D02*
G37*
G36*
X10000D02*
X9099Y156817D01*
X8259Y156469D01*
X7537Y155915D01*
X6984Y155194D01*
X6636Y154354D01*
X6517Y153453D01*
X6636Y152551D01*
X6984Y151711D01*
X7537Y150990D01*
X8259Y150437D01*
X9099Y150089D01*
X10000Y149970D01*
X10901Y150089D01*
X11741Y150437D01*
X12462Y150990D01*
X13016Y151711D01*
X13364Y152551D01*
X13483Y153453D01*
X13364Y154354D01*
X13016Y155194D01*
X12462Y155915D01*
X11741Y156469D01*
X10901Y156817D01*
X10000Y156935D01*
D02*
G37*
G36*
X264453Y158539D02*
X263278Y158384D01*
X262183Y157931D01*
X261243Y157209D01*
X260522Y156269D01*
X260069Y155175D01*
X259914Y154000D01*
X260069Y152825D01*
X260522Y151731D01*
X261243Y150791D01*
X262183Y150069D01*
X263278Y149616D01*
X264453Y149461D01*
X265628Y149616D01*
X266722Y150069D01*
X267662Y150791D01*
X268384Y151731D01*
X268837Y152825D01*
X268992Y154000D01*
X268837Y155175D01*
X268384Y156269D01*
X267662Y157209D01*
X266722Y157931D01*
X265628Y158384D01*
X264453Y158539D01*
D02*
G37*
G36*
X198000Y149784D02*
X197317Y149648D01*
X196738Y149262D01*
X196352Y148683D01*
X196216Y148000D01*
X196352Y147317D01*
X196738Y146738D01*
X197317Y146352D01*
X198000Y146216D01*
X198683Y146352D01*
X199262Y146738D01*
X199648Y147317D01*
X199784Y148000D01*
X199648Y148683D01*
X199262Y149262D01*
X198683Y149648D01*
X198000Y149784D01*
D02*
G37*
G36*
X20000Y146935D02*
X19099Y146817D01*
X18259Y146469D01*
X17537Y145915D01*
X16984Y145194D01*
X16636Y144354D01*
X16518Y143453D01*
X16636Y142551D01*
X16984Y141711D01*
X17537Y140990D01*
X18259Y140437D01*
X19099Y140089D01*
X20000Y139970D01*
X20901Y140089D01*
X21741Y140437D01*
X22463Y140990D01*
X23016Y141711D01*
X23364Y142551D01*
X23483Y143453D01*
X23364Y144354D01*
X23016Y145194D01*
X22463Y145915D01*
X21741Y146469D01*
X20901Y146817D01*
X20000Y146935D01*
D02*
G37*
G36*
X10000D02*
X9099Y146817D01*
X8259Y146469D01*
X7537Y145915D01*
X6984Y145194D01*
X6636Y144354D01*
X6517Y143453D01*
X6636Y142551D01*
X6984Y141711D01*
X7537Y140990D01*
X8259Y140437D01*
X9099Y140089D01*
X10000Y139970D01*
X10901Y140089D01*
X11741Y140437D01*
X12462Y140990D01*
X13016Y141711D01*
X13364Y142551D01*
X13483Y143453D01*
X13364Y144354D01*
X13016Y145194D01*
X12462Y145915D01*
X11741Y146469D01*
X10901Y146817D01*
X10000Y146935D01*
D02*
G37*
G36*
X35500Y142529D02*
X34915Y142413D01*
X34419Y142081D01*
X34087Y141585D01*
X33971Y141000D01*
X34087Y140415D01*
X34419Y139919D01*
X34915Y139587D01*
X35500Y139471D01*
X36085Y139587D01*
X36581Y139919D01*
X36913Y140415D01*
X37029Y141000D01*
X36913Y141585D01*
X36581Y142081D01*
X36085Y142413D01*
X35500Y142529D01*
D02*
G37*
G36*
X274453Y148539D02*
X273278Y148384D01*
X272183Y147931D01*
X271243Y147209D01*
X270522Y146269D01*
X270069Y145175D01*
X269914Y144000D01*
X270069Y142825D01*
X270522Y141731D01*
X271243Y140791D01*
X272183Y140069D01*
X273278Y139616D01*
X274453Y139461D01*
X275627Y139616D01*
X276722Y140069D01*
X277662Y140791D01*
X278383Y141731D01*
X278837Y142825D01*
X278992Y144000D01*
X278837Y145175D01*
X278383Y146269D01*
X277662Y147209D01*
X276722Y147931D01*
X275627Y148384D01*
X274453Y148539D01*
D02*
G37*
G36*
X254453D02*
X253278Y148384D01*
X252183Y147931D01*
X251243Y147209D01*
X250522Y146269D01*
X250069Y145175D01*
X249914Y144000D01*
X250069Y142825D01*
X250522Y141731D01*
X251243Y140791D01*
X252183Y140069D01*
X253278Y139616D01*
X254453Y139461D01*
X255627Y139616D01*
X256722Y140069D01*
X257662Y140791D01*
X258383Y141731D01*
X258837Y142825D01*
X258992Y144000D01*
X258837Y145175D01*
X258383Y146269D01*
X257662Y147209D01*
X256722Y147931D01*
X255627Y148384D01*
X254453Y148539D01*
D02*
G37*
G36*
X227000Y141529D02*
X226415Y141413D01*
X225919Y141081D01*
X225587Y140585D01*
X225471Y140000D01*
X225587Y139415D01*
X225919Y138919D01*
X226415Y138587D01*
X227000Y138471D01*
X227585Y138587D01*
X228081Y138919D01*
X228413Y139415D01*
X228529Y140000D01*
X228413Y140585D01*
X228081Y141081D01*
X227585Y141413D01*
X227000Y141529D01*
D02*
G37*
G36*
X219000D02*
X218415Y141413D01*
X217919Y141081D01*
X217587Y140585D01*
X217471Y140000D01*
X217587Y139415D01*
X217919Y138919D01*
X218415Y138587D01*
X219000Y138471D01*
X219585Y138587D01*
X220081Y138919D01*
X220413Y139415D01*
X220529Y140000D01*
X220413Y140585D01*
X220081Y141081D01*
X219585Y141413D01*
X219000Y141529D01*
D02*
G37*
G36*
X97000Y141029D02*
X96415Y140913D01*
X95919Y140581D01*
X95587Y140085D01*
X95471Y139500D01*
X95587Y138915D01*
X95919Y138419D01*
X96415Y138087D01*
X97000Y137971D01*
X97585Y138087D01*
X98081Y138419D01*
X98413Y138915D01*
X98529Y139500D01*
X98413Y140085D01*
X98081Y140581D01*
X97585Y140913D01*
X97000Y141029D01*
D02*
G37*
G36*
X20000Y136935D02*
X19099Y136817D01*
X18259Y136469D01*
X17537Y135915D01*
X16984Y135194D01*
X16636Y134354D01*
X16518Y133453D01*
X16636Y132551D01*
X16984Y131711D01*
X17537Y130990D01*
X18259Y130437D01*
X19099Y130089D01*
X20000Y129970D01*
X20901Y130089D01*
X21741Y130437D01*
X22463Y130990D01*
X23016Y131711D01*
X23364Y132551D01*
X23483Y133453D01*
X23364Y134354D01*
X23016Y135194D01*
X22463Y135915D01*
X21741Y136469D01*
X20901Y136817D01*
X20000Y136935D01*
D02*
G37*
G36*
X10000D02*
X9099Y136817D01*
X8259Y136469D01*
X7537Y135915D01*
X6984Y135194D01*
X6636Y134354D01*
X6517Y133453D01*
X6636Y132551D01*
X6984Y131711D01*
X7537Y130990D01*
X8259Y130437D01*
X9099Y130089D01*
X10000Y129970D01*
X10901Y130089D01*
X11741Y130437D01*
X12462Y130990D01*
X13016Y131711D01*
X13364Y132551D01*
X13483Y133453D01*
X13364Y134354D01*
X13016Y135194D01*
X12462Y135915D01*
X11741Y136469D01*
X10901Y136817D01*
X10000Y136935D01*
D02*
G37*
G36*
X128500Y133131D02*
X127876Y133007D01*
X127347Y132653D01*
X126993Y132124D01*
X126869Y131500D01*
X126993Y130876D01*
X127347Y130347D01*
X127876Y129993D01*
X128500Y129869D01*
X129124Y129993D01*
X129654Y130347D01*
X130007Y130876D01*
X130131Y131500D01*
X130007Y132124D01*
X129654Y132653D01*
X129124Y133007D01*
X128500Y133131D01*
D02*
G37*
G36*
X135000Y129294D02*
X134122Y129120D01*
X133378Y128622D01*
X132880Y127878D01*
X132706Y127000D01*
X132880Y126122D01*
X133378Y125378D01*
X134122Y124881D01*
X135000Y124706D01*
X135878Y124881D01*
X136622Y125378D01*
X137119Y126122D01*
X137294Y127000D01*
X137119Y127878D01*
X136622Y128622D01*
X135878Y129120D01*
X135000Y129294D01*
D02*
G37*
G36*
X76700Y125029D02*
X76115Y124913D01*
X75619Y124581D01*
X75287Y124085D01*
X75171Y123500D01*
X75287Y122915D01*
X75619Y122419D01*
X76115Y122087D01*
X76700Y121971D01*
X77285Y122087D01*
X77781Y122419D01*
X78113Y122915D01*
X78229Y123500D01*
X78113Y124085D01*
X77781Y124581D01*
X77285Y124913D01*
X76700Y125029D01*
D02*
G37*
G36*
X20000Y126935D02*
X19099Y126817D01*
X18259Y126469D01*
X17537Y125915D01*
X16984Y125194D01*
X16636Y124354D01*
X16518Y123453D01*
X16636Y122551D01*
X16984Y121712D01*
X17537Y120990D01*
X18259Y120437D01*
X19099Y120089D01*
X20000Y119970D01*
X20901Y120089D01*
X21741Y120437D01*
X22463Y120990D01*
X23016Y121712D01*
X23364Y122551D01*
X23483Y123453D01*
X23364Y124354D01*
X23016Y125194D01*
X22463Y125915D01*
X21741Y126469D01*
X20901Y126817D01*
X20000Y126935D01*
D02*
G37*
G36*
X10000D02*
X9099Y126817D01*
X8259Y126469D01*
X7537Y125915D01*
X6984Y125194D01*
X6636Y124354D01*
X6517Y123453D01*
X6636Y122551D01*
X6984Y121712D01*
X7537Y120990D01*
X8259Y120437D01*
X9099Y120089D01*
X10000Y119970D01*
X10901Y120089D01*
X11741Y120437D01*
X12462Y120990D01*
X13016Y121712D01*
X13364Y122551D01*
X13483Y123453D01*
X13364Y124354D01*
X13016Y125194D01*
X12462Y125915D01*
X11741Y126469D01*
X10901Y126817D01*
X10000Y126935D01*
D02*
G37*
G36*
X89600Y117329D02*
X89015Y117213D01*
X88519Y116881D01*
X88187Y116385D01*
X88071Y115800D01*
X88187Y115215D01*
X88519Y114719D01*
X89015Y114387D01*
X89600Y114271D01*
X90185Y114387D01*
X90681Y114719D01*
X91013Y115215D01*
X91129Y115800D01*
X91013Y116385D01*
X90681Y116881D01*
X90185Y117213D01*
X89600Y117329D01*
D02*
G37*
G36*
X226791Y115329D02*
X226206Y115213D01*
X225710Y114881D01*
X225378Y114385D01*
X225262Y113800D01*
X225378Y113215D01*
X225710Y112719D01*
X226206Y112387D01*
X226791Y112271D01*
X227377Y112387D01*
X227873Y112719D01*
X228204Y113215D01*
X228321Y113800D01*
X228204Y114385D01*
X227873Y114881D01*
X227377Y115213D01*
X226791Y115329D01*
D02*
G37*
G36*
X219114D02*
X218529Y115213D01*
X218033Y114881D01*
X217701Y114385D01*
X217585Y113800D01*
X217701Y113215D01*
X218033Y112719D01*
X218529Y112387D01*
X219114Y112271D01*
X219700Y112387D01*
X220196Y112719D01*
X220527Y113215D01*
X220644Y113800D01*
X220527Y114385D01*
X220196Y114881D01*
X219700Y115213D01*
X219114Y115329D01*
D02*
G37*
G36*
X223000Y115029D02*
X222415Y114913D01*
X221919Y114581D01*
X221587Y114085D01*
X221471Y113500D01*
X221587Y112915D01*
X221919Y112419D01*
X222415Y112087D01*
X223000Y111971D01*
X223585Y112087D01*
X224081Y112419D01*
X224413Y112915D01*
X224529Y113500D01*
X224413Y114085D01*
X224081Y114581D01*
X223585Y114913D01*
X223000Y115029D01*
D02*
G37*
G36*
X189000D02*
X188415Y114913D01*
X187919Y114581D01*
X187587Y114085D01*
X187471Y113500D01*
X187587Y112915D01*
X187919Y112419D01*
X188415Y112087D01*
X189000Y111971D01*
X189585Y112087D01*
X190081Y112419D01*
X190413Y112915D01*
X190529Y113500D01*
X190413Y114085D01*
X190081Y114581D01*
X189585Y114913D01*
X189000Y115029D01*
D02*
G37*
G36*
X79300Y113429D02*
X78715Y113313D01*
X78219Y112981D01*
X77887Y112485D01*
X77771Y111900D01*
X77887Y111315D01*
X78219Y110819D01*
X78715Y110487D01*
X79300Y110371D01*
X79885Y110487D01*
X80381Y110819D01*
X80713Y111315D01*
X80829Y111900D01*
X80713Y112485D01*
X80381Y112981D01*
X79885Y113313D01*
X79300Y113429D01*
D02*
G37*
G36*
X20000Y116935D02*
X19099Y116817D01*
X18259Y116469D01*
X17537Y115915D01*
X16984Y115194D01*
X16636Y114354D01*
X16518Y113453D01*
X16636Y112551D01*
X16984Y111712D01*
X17537Y110990D01*
X18259Y110437D01*
X19099Y110089D01*
X20000Y109970D01*
X20901Y110089D01*
X21741Y110437D01*
X22463Y110990D01*
X23016Y111712D01*
X23364Y112551D01*
X23483Y113453D01*
X23364Y114354D01*
X23016Y115194D01*
X22463Y115915D01*
X21741Y116469D01*
X20901Y116817D01*
X20000Y116935D01*
D02*
G37*
G36*
X10000D02*
X9099Y116817D01*
X8259Y116469D01*
X7537Y115915D01*
X6984Y115194D01*
X6636Y114354D01*
X6517Y113453D01*
X6636Y112551D01*
X6984Y111712D01*
X7537Y110990D01*
X8259Y110437D01*
X9099Y110089D01*
X10000Y109970D01*
X10901Y110089D01*
X11741Y110437D01*
X12462Y110990D01*
X13016Y111712D01*
X13364Y112551D01*
X13483Y113453D01*
X13364Y114354D01*
X13016Y115194D01*
X12462Y115915D01*
X11741Y116469D01*
X10901Y116817D01*
X10000Y116935D01*
D02*
G37*
G36*
X274453Y116539D02*
X273278Y116384D01*
X272183Y115931D01*
X271243Y115209D01*
X270522Y114269D01*
X270069Y113175D01*
X269914Y112000D01*
X270069Y110825D01*
X270522Y109731D01*
X271243Y108791D01*
X272183Y108069D01*
X273278Y107616D01*
X274453Y107461D01*
X275627Y107616D01*
X276722Y108069D01*
X277662Y108791D01*
X278383Y109731D01*
X278837Y110825D01*
X278992Y112000D01*
X278837Y113175D01*
X278383Y114269D01*
X277662Y115209D01*
X276722Y115931D01*
X275627Y116384D01*
X274453Y116539D01*
D02*
G37*
G36*
X254453D02*
X253278Y116384D01*
X252183Y115931D01*
X251243Y115209D01*
X250522Y114269D01*
X250069Y113175D01*
X249914Y112000D01*
X250069Y110825D01*
X250522Y109731D01*
X251243Y108791D01*
X252183Y108069D01*
X253278Y107616D01*
X254453Y107461D01*
X255627Y107616D01*
X256722Y108069D01*
X257662Y108791D01*
X258383Y109731D01*
X258837Y110825D01*
X258992Y112000D01*
X258837Y113175D01*
X258383Y114269D01*
X257662Y115209D01*
X256722Y115931D01*
X255627Y116384D01*
X254453Y116539D01*
D02*
G37*
G36*
X114000Y110029D02*
X113415Y109913D01*
X112919Y109581D01*
X112587Y109085D01*
X112471Y108500D01*
X112587Y107915D01*
X112919Y107419D01*
X113415Y107087D01*
X114000Y106971D01*
X114585Y107087D01*
X115081Y107419D01*
X115413Y107915D01*
X115529Y108500D01*
X115413Y109085D01*
X115081Y109581D01*
X114585Y109913D01*
X114000Y110029D01*
D02*
G37*
G36*
X62600Y108629D02*
X62015Y108513D01*
X61519Y108181D01*
X61187Y107685D01*
X61071Y107100D01*
X61187Y106515D01*
X61519Y106019D01*
X62015Y105687D01*
X62600Y105571D01*
X63185Y105687D01*
X63681Y106019D01*
X64013Y106515D01*
X64129Y107100D01*
X64013Y107685D01*
X63681Y108181D01*
X63185Y108513D01*
X62600Y108629D01*
D02*
G37*
G36*
X105500Y107029D02*
X104915Y106913D01*
X104419Y106581D01*
X104087Y106085D01*
X103971Y105500D01*
X104087Y104915D01*
X104419Y104419D01*
X104915Y104087D01*
X105500Y103971D01*
X106085Y104087D01*
X106581Y104419D01*
X106913Y104915D01*
X107029Y105500D01*
X106913Y106085D01*
X106581Y106581D01*
X106085Y106913D01*
X105500Y107029D01*
D02*
G37*
G36*
X100000Y105129D02*
X99415Y105013D01*
X98919Y104681D01*
X98587Y104185D01*
X98471Y103600D01*
X98587Y103015D01*
X98919Y102519D01*
X99415Y102187D01*
X100000Y102071D01*
X100585Y102187D01*
X101081Y102519D01*
X101413Y103015D01*
X101529Y103600D01*
X101413Y104185D01*
X101081Y104681D01*
X100585Y105013D01*
X100000Y105129D01*
D02*
G37*
G36*
X20000Y106935D02*
X19099Y106817D01*
X18259Y106469D01*
X17537Y105915D01*
X16984Y105194D01*
X16636Y104354D01*
X16518Y103453D01*
X16636Y102551D01*
X16984Y101711D01*
X17537Y100990D01*
X18259Y100437D01*
X19099Y100089D01*
X20000Y99970D01*
X20901Y100089D01*
X21741Y100437D01*
X22463Y100990D01*
X23016Y101711D01*
X23364Y102551D01*
X23483Y103453D01*
X23364Y104354D01*
X23016Y105194D01*
X22463Y105915D01*
X21741Y106469D01*
X20901Y106817D01*
X20000Y106935D01*
D02*
G37*
G36*
X10000D02*
X9099Y106817D01*
X8259Y106469D01*
X7537Y105915D01*
X6984Y105194D01*
X6636Y104354D01*
X6517Y103453D01*
X6636Y102551D01*
X6984Y101711D01*
X7537Y100990D01*
X8259Y100437D01*
X9099Y100089D01*
X10000Y99970D01*
X10901Y100089D01*
X11741Y100437D01*
X12462Y100990D01*
X13016Y101711D01*
X13364Y102551D01*
X13483Y103453D01*
X13364Y104354D01*
X13016Y105194D01*
X12462Y105915D01*
X11741Y106469D01*
X10901Y106817D01*
X10000Y106935D01*
D02*
G37*
G36*
X212000Y102529D02*
X211415Y102413D01*
X210919Y102081D01*
X210587Y101585D01*
X210471Y101000D01*
X210587Y100415D01*
X210919Y99919D01*
X211415Y99587D01*
X212000Y99471D01*
X212585Y99587D01*
X213081Y99919D01*
X213413Y100415D01*
X213529Y101000D01*
X213413Y101585D01*
X213081Y102081D01*
X212585Y102413D01*
X212000Y102529D01*
D02*
G37*
G36*
X178000D02*
X177415Y102413D01*
X176919Y102081D01*
X176587Y101585D01*
X176471Y101000D01*
X176587Y100415D01*
X176919Y99919D01*
X177415Y99587D01*
X178000Y99471D01*
X178585Y99587D01*
X179081Y99919D01*
X179413Y100415D01*
X179529Y101000D01*
X179413Y101585D01*
X179081Y102081D01*
X178585Y102413D01*
X178000Y102529D01*
D02*
G37*
G36*
X225000Y104029D02*
X224415Y103913D01*
X223919Y103581D01*
X223587Y103085D01*
X223471Y102500D01*
X223587Y101915D01*
X223919Y101419D01*
X224095Y101301D01*
Y100699D01*
X223919Y100581D01*
X223587Y100085D01*
X223471Y99500D01*
X223587Y98915D01*
X223919Y98419D01*
X224415Y98087D01*
X225000Y97971D01*
X225585Y98087D01*
X226081Y98419D01*
X226413Y98915D01*
X226529Y99500D01*
X226413Y100085D01*
X226081Y100581D01*
X225905Y100699D01*
Y101301D01*
X226081Y101419D01*
X226413Y101915D01*
X226529Y102500D01*
X226413Y103085D01*
X226081Y103581D01*
X225585Y103913D01*
X225000Y104029D01*
D02*
G37*
G36*
X221000D02*
X220415Y103913D01*
X219919Y103581D01*
X219587Y103085D01*
X219471Y102500D01*
X219587Y101915D01*
X219919Y101419D01*
X220095Y101301D01*
Y100699D01*
X219919Y100581D01*
X219587Y100085D01*
X219471Y99500D01*
X219587Y98915D01*
X219919Y98419D01*
X220415Y98087D01*
X221000Y97971D01*
X221585Y98087D01*
X222081Y98419D01*
X222413Y98915D01*
X222529Y99500D01*
X222413Y100085D01*
X222081Y100581D01*
X221905Y100699D01*
Y101301D01*
X222081Y101419D01*
X222413Y101915D01*
X222529Y102500D01*
X222413Y103085D01*
X222081Y103581D01*
X221585Y103913D01*
X221000Y104029D01*
D02*
G37*
G36*
X191000D02*
X190415Y103913D01*
X189919Y103581D01*
X189587Y103085D01*
X189471Y102500D01*
X189587Y101915D01*
X189919Y101419D01*
X190095Y101301D01*
Y100699D01*
X189919Y100581D01*
X189587Y100085D01*
X189471Y99500D01*
X189587Y98915D01*
X189919Y98419D01*
X190415Y98087D01*
X191000Y97971D01*
X191585Y98087D01*
X192081Y98419D01*
X192413Y98915D01*
X192529Y99500D01*
X192413Y100085D01*
X192081Y100581D01*
X191905Y100699D01*
Y101301D01*
X192081Y101419D01*
X192413Y101915D01*
X192529Y102500D01*
X192413Y103085D01*
X192081Y103581D01*
X191585Y103913D01*
X191000Y104029D01*
D02*
G37*
G36*
X187000D02*
X186415Y103913D01*
X185919Y103581D01*
X185587Y103085D01*
X185471Y102500D01*
X185587Y101915D01*
X185919Y101419D01*
X186095Y101301D01*
Y100699D01*
X185919Y100581D01*
X185587Y100085D01*
X185471Y99500D01*
X185587Y98915D01*
X185919Y98419D01*
X186415Y98087D01*
X187000Y97971D01*
X187585Y98087D01*
X188081Y98419D01*
X188413Y98915D01*
X188529Y99500D01*
X188413Y100085D01*
X188081Y100581D01*
X187905Y100699D01*
Y101301D01*
X188081Y101419D01*
X188413Y101915D01*
X188529Y102500D01*
X188413Y103085D01*
X188081Y103581D01*
X187585Y103913D01*
X187000Y104029D01*
D02*
G37*
G36*
X264453Y106539D02*
X263278Y106384D01*
X262183Y105931D01*
X261243Y105209D01*
X260522Y104269D01*
X260069Y103175D01*
X259914Y102000D01*
X260069Y100825D01*
X260522Y99731D01*
X261243Y98791D01*
X262183Y98069D01*
X263278Y97616D01*
X264453Y97461D01*
X265628Y97616D01*
X266722Y98069D01*
X267662Y98791D01*
X268384Y99731D01*
X268837Y100825D01*
X268992Y102000D01*
X268837Y103175D01*
X268384Y104269D01*
X267662Y105209D01*
X266722Y105931D01*
X265628Y106384D01*
X264453Y106539D01*
D02*
G37*
G36*
X66200Y97225D02*
X65615Y97108D01*
X65119Y96777D01*
X64787Y96281D01*
X64671Y95695D01*
X64736Y95368D01*
X64329Y94964D01*
X64000Y95029D01*
X63415Y94913D01*
X62919Y94581D01*
X62587Y94085D01*
X62471Y93500D01*
X62587Y92915D01*
X62919Y92419D01*
X63415Y92087D01*
X64000Y91971D01*
X64585Y92087D01*
X65081Y92419D01*
X65413Y92915D01*
X65529Y93500D01*
X65464Y93827D01*
X65871Y94231D01*
X66200Y94166D01*
X66785Y94282D01*
X67281Y94614D01*
X67613Y95110D01*
X67729Y95695D01*
X67613Y96281D01*
X67281Y96777D01*
X66785Y97108D01*
X66200Y97225D01*
D02*
G37*
G36*
X198000Y97784D02*
X197317Y97649D01*
X196738Y97262D01*
X196352Y96683D01*
X196216Y96000D01*
X196352Y95317D01*
X196738Y94738D01*
X197317Y94352D01*
X198000Y94216D01*
X198683Y94352D01*
X199262Y94738D01*
X199648Y95317D01*
X199784Y96000D01*
X199648Y96683D01*
X199262Y97262D01*
X198683Y97649D01*
X198000Y97784D01*
D02*
G37*
G36*
X20000Y96935D02*
X19099Y96817D01*
X18259Y96469D01*
X17537Y95915D01*
X16984Y95194D01*
X16636Y94354D01*
X16518Y93453D01*
X16636Y92551D01*
X16984Y91711D01*
X17537Y90990D01*
X18259Y90437D01*
X19099Y90089D01*
X20000Y89970D01*
X20901Y90089D01*
X21741Y90437D01*
X22463Y90990D01*
X23016Y91711D01*
X23364Y92551D01*
X23483Y93453D01*
X23364Y94354D01*
X23016Y95194D01*
X22463Y95915D01*
X21741Y96469D01*
X20901Y96817D01*
X20000Y96935D01*
D02*
G37*
G36*
X10000D02*
X9099Y96817D01*
X8259Y96469D01*
X7537Y95915D01*
X6984Y95194D01*
X6636Y94354D01*
X6517Y93453D01*
X6636Y92551D01*
X6984Y91711D01*
X7537Y90990D01*
X8259Y90437D01*
X9099Y90089D01*
X10000Y89970D01*
X10901Y90089D01*
X11741Y90437D01*
X12462Y90990D01*
X13016Y91711D01*
X13364Y92551D01*
X13483Y93453D01*
X13364Y94354D01*
X13016Y95194D01*
X12462Y95915D01*
X11741Y96469D01*
X10901Y96817D01*
X10000Y96935D01*
D02*
G37*
G36*
X274453Y96539D02*
X273278Y96384D01*
X272183Y95931D01*
X271243Y95209D01*
X270522Y94269D01*
X270069Y93175D01*
X269914Y92000D01*
X270069Y90825D01*
X270522Y89731D01*
X271243Y88791D01*
X272183Y88069D01*
X273278Y87616D01*
X274453Y87461D01*
X275627Y87616D01*
X276722Y88069D01*
X277662Y88791D01*
X278383Y89731D01*
X278837Y90825D01*
X278992Y92000D01*
X278837Y93175D01*
X278383Y94269D01*
X277662Y95209D01*
X276722Y95931D01*
X275627Y96384D01*
X274453Y96539D01*
D02*
G37*
G36*
X254453D02*
X253278Y96384D01*
X252183Y95931D01*
X251243Y95209D01*
X250522Y94269D01*
X250069Y93175D01*
X249914Y92000D01*
X250069Y90825D01*
X250522Y89731D01*
X251243Y88791D01*
X252183Y88069D01*
X253278Y87616D01*
X254453Y87461D01*
X255627Y87616D01*
X256722Y88069D01*
X257662Y88791D01*
X258383Y89731D01*
X258837Y90825D01*
X258992Y92000D01*
X258837Y93175D01*
X258383Y94269D01*
X257662Y95209D01*
X256722Y95931D01*
X255627Y96384D01*
X254453Y96539D01*
D02*
G37*
G36*
X108000Y90029D02*
X107415Y89913D01*
X106919Y89581D01*
X106587Y89085D01*
X106471Y88500D01*
X106587Y87915D01*
X106919Y87419D01*
X107415Y87087D01*
X108000Y86971D01*
X108585Y87087D01*
X109081Y87419D01*
X109413Y87915D01*
X109529Y88500D01*
X109413Y89085D01*
X109081Y89581D01*
X108585Y89913D01*
X108000Y90029D01*
D02*
G37*
G36*
X227000Y89529D02*
X226415Y89413D01*
X225919Y89081D01*
X225587Y88585D01*
X225471Y88000D01*
X225587Y87415D01*
X225919Y86919D01*
X226415Y86587D01*
X227000Y86471D01*
X227585Y86587D01*
X228081Y86919D01*
X228413Y87415D01*
X228529Y88000D01*
X228413Y88585D01*
X228081Y89081D01*
X227585Y89413D01*
X227000Y89529D01*
D02*
G37*
G36*
X219000D02*
X218415Y89413D01*
X217919Y89081D01*
X217587Y88585D01*
X217471Y88000D01*
X217587Y87415D01*
X217919Y86919D01*
X218415Y86587D01*
X219000Y86471D01*
X219585Y86587D01*
X220081Y86919D01*
X220413Y87415D01*
X220529Y88000D01*
X220413Y88585D01*
X220081Y89081D01*
X219585Y89413D01*
X219000Y89529D01*
D02*
G37*
G36*
X63240Y89029D02*
X62655Y88913D01*
X62159Y88581D01*
X61827Y88085D01*
X61711Y87500D01*
X61827Y86915D01*
X62159Y86419D01*
X62655Y86087D01*
X63240Y85971D01*
X63826Y86087D01*
X64322Y86419D01*
X64653Y86915D01*
X64770Y87500D01*
X64653Y88085D01*
X64322Y88581D01*
X63826Y88913D01*
X63240Y89029D01*
D02*
G37*
G36*
X26000Y85029D02*
X25415Y84913D01*
X24919Y84581D01*
X24587Y84085D01*
X24471Y83500D01*
X24587Y82915D01*
X24919Y82419D01*
X25415Y82087D01*
X26000Y81971D01*
X26585Y82087D01*
X27081Y82419D01*
X27413Y82915D01*
X27529Y83500D01*
X27413Y84085D01*
X27081Y84581D01*
X26585Y84913D01*
X26000Y85029D01*
D02*
G37*
G36*
X20000Y86935D02*
X19099Y86817D01*
X18259Y86469D01*
X17537Y85915D01*
X16984Y85194D01*
X16636Y84354D01*
X16518Y83453D01*
X16636Y82551D01*
X16984Y81712D01*
X17537Y80990D01*
X18259Y80437D01*
X19099Y80089D01*
X20000Y79970D01*
X20901Y80089D01*
X21741Y80437D01*
X22463Y80990D01*
X23016Y81712D01*
X23364Y82551D01*
X23483Y83453D01*
X23364Y84354D01*
X23016Y85194D01*
X22463Y85915D01*
X21741Y86469D01*
X20901Y86817D01*
X20000Y86935D01*
D02*
G37*
G36*
X10000D02*
X9099Y86817D01*
X8259Y86469D01*
X7537Y85915D01*
X6984Y85194D01*
X6636Y84354D01*
X6517Y83453D01*
X6636Y82551D01*
X6984Y81712D01*
X7537Y80990D01*
X8259Y80437D01*
X9099Y80089D01*
X10000Y79970D01*
X10901Y80089D01*
X11741Y80437D01*
X12462Y80990D01*
X13016Y81712D01*
X13364Y82551D01*
X13483Y83453D01*
X13364Y84354D01*
X13016Y85194D01*
X12462Y85915D01*
X11741Y86469D01*
X10901Y86817D01*
X10000Y86935D01*
D02*
G37*
G36*
X91000Y73829D02*
X90415Y73713D01*
X89919Y73381D01*
X89587Y72885D01*
X89471Y72300D01*
X89587Y71715D01*
X89919Y71219D01*
X90415Y70887D01*
X91000Y70771D01*
X91585Y70887D01*
X92081Y71219D01*
X92413Y71715D01*
X92529Y72300D01*
X92413Y72885D01*
X92081Y73381D01*
X91585Y73713D01*
X91000Y73829D01*
D02*
G37*
G36*
X97000Y79029D02*
X96415Y78913D01*
X95919Y78581D01*
X95587Y78085D01*
X95471Y77500D01*
X95587Y76915D01*
X95919Y76419D01*
X96095Y76301D01*
Y75699D01*
X95919Y75581D01*
X95587Y75085D01*
X95471Y74500D01*
X95587Y73915D01*
X95919Y73419D01*
X96345Y73134D01*
X96417Y72798D01*
X96419Y72581D01*
X96087Y72085D01*
X95971Y71500D01*
X96087Y70915D01*
X96419Y70419D01*
X96915Y70087D01*
X97500Y69971D01*
X98085Y70087D01*
X98581Y70419D01*
X98913Y70915D01*
X99029Y71500D01*
X98913Y72085D01*
X98581Y72581D01*
X98155Y72866D01*
X98083Y73203D01*
X98081Y73419D01*
X98413Y73915D01*
X98529Y74500D01*
X98413Y75085D01*
X98081Y75581D01*
X97905Y75699D01*
Y76301D01*
X98081Y76419D01*
X98413Y76915D01*
X98529Y77500D01*
X98413Y78085D01*
X98081Y78581D01*
X97585Y78913D01*
X97000Y79029D01*
D02*
G37*
G36*
X20000Y76935D02*
X19099Y76817D01*
X18259Y76469D01*
X17537Y75915D01*
X16984Y75194D01*
X16636Y74354D01*
X16518Y73453D01*
X16636Y72551D01*
X16984Y71711D01*
X17537Y70990D01*
X18259Y70437D01*
X19099Y70089D01*
X20000Y69970D01*
X20901Y70089D01*
X21741Y70437D01*
X22463Y70990D01*
X23016Y71711D01*
X23364Y72551D01*
X23483Y73453D01*
X23364Y74354D01*
X23016Y75194D01*
X22463Y75915D01*
X21741Y76469D01*
X20901Y76817D01*
X20000Y76935D01*
D02*
G37*
G36*
X10000D02*
X9099Y76817D01*
X8259Y76469D01*
X7537Y75915D01*
X6984Y75194D01*
X6636Y74354D01*
X6517Y73453D01*
X6636Y72551D01*
X6984Y71711D01*
X7537Y70990D01*
X8259Y70437D01*
X9099Y70089D01*
X10000Y69970D01*
X10901Y70089D01*
X11741Y70437D01*
X12462Y70990D01*
X13016Y71711D01*
X13364Y72551D01*
X13483Y73453D01*
X13364Y74354D01*
X13016Y75194D01*
X12462Y75915D01*
X11741Y76469D01*
X10901Y76817D01*
X10000Y76935D01*
D02*
G37*
G36*
X88600Y70729D02*
X88015Y70613D01*
X87519Y70281D01*
X87187Y69785D01*
X87071Y69200D01*
X87187Y68615D01*
X87519Y68119D01*
X88015Y67787D01*
X88600Y67671D01*
X89185Y67787D01*
X89681Y68119D01*
X90013Y68615D01*
X90129Y69200D01*
X90013Y69785D01*
X89681Y70281D01*
X89185Y70613D01*
X88600Y70729D01*
D02*
G37*
G36*
X14000Y70427D02*
X13454Y70319D01*
X12991Y70009D01*
X12681Y69546D01*
X12573Y69000D01*
X12681Y68454D01*
X12991Y67991D01*
X13454Y67681D01*
X14000Y67573D01*
X14546Y67681D01*
X15009Y67991D01*
X15319Y68454D01*
X15427Y69000D01*
X15319Y69546D01*
X15009Y70009D01*
X14546Y70319D01*
X14000Y70427D01*
D02*
G37*
G36*
X47200Y64129D02*
X46615Y64013D01*
X46119Y63681D01*
X45787Y63185D01*
X45671Y62600D01*
X45787Y62015D01*
X46119Y61519D01*
X46615Y61187D01*
X47200Y61071D01*
X47785Y61187D01*
X48281Y61519D01*
X48613Y62015D01*
X48729Y62600D01*
X48613Y63185D01*
X48281Y63681D01*
X47785Y64013D01*
X47200Y64129D01*
D02*
G37*
G36*
X79000Y63529D02*
X78415Y63413D01*
X77919Y63081D01*
X77587Y62585D01*
X77471Y62000D01*
X77587Y61415D01*
X77919Y60919D01*
X78415Y60587D01*
X79000Y60471D01*
X79585Y60587D01*
X80081Y60919D01*
X80413Y61415D01*
X80529Y62000D01*
X80413Y62585D01*
X80081Y63081D01*
X79585Y63413D01*
X79000Y63529D01*
D02*
G37*
G36*
X226791Y63329D02*
X226206Y63213D01*
X225710Y62881D01*
X225378Y62385D01*
X225262Y61800D01*
X225378Y61215D01*
X225710Y60719D01*
X226206Y60387D01*
X226791Y60271D01*
X227377Y60387D01*
X227873Y60719D01*
X228204Y61215D01*
X228321Y61800D01*
X228204Y62385D01*
X227873Y62881D01*
X227377Y63213D01*
X226791Y63329D01*
D02*
G37*
G36*
X219114D02*
X218529Y63213D01*
X218033Y62881D01*
X217701Y62385D01*
X217585Y61800D01*
X217701Y61215D01*
X218033Y60719D01*
X218529Y60387D01*
X219114Y60271D01*
X219700Y60387D01*
X220196Y60719D01*
X220527Y61215D01*
X220644Y61800D01*
X220527Y62385D01*
X220196Y62881D01*
X219700Y63213D01*
X219114Y63329D01*
D02*
G37*
G36*
X223000Y63029D02*
X222415Y62913D01*
X221919Y62581D01*
X221587Y62085D01*
X221471Y61500D01*
X221587Y60915D01*
X221919Y60419D01*
X222415Y60087D01*
X223000Y59971D01*
X223585Y60087D01*
X224081Y60419D01*
X224413Y60915D01*
X224529Y61500D01*
X224413Y62085D01*
X224081Y62581D01*
X223585Y62913D01*
X223000Y63029D01*
D02*
G37*
G36*
X189000D02*
X188415Y62913D01*
X187919Y62581D01*
X187587Y62085D01*
X187471Y61500D01*
X187587Y60915D01*
X187919Y60419D01*
X188415Y60087D01*
X189000Y59971D01*
X189585Y60087D01*
X190081Y60419D01*
X190413Y60915D01*
X190529Y61500D01*
X190413Y62085D01*
X190081Y62581D01*
X189585Y62913D01*
X189000Y63029D01*
D02*
G37*
G36*
X20000Y66935D02*
X19099Y66817D01*
X18259Y66469D01*
X17537Y65915D01*
X16984Y65194D01*
X16636Y64354D01*
X16518Y63453D01*
X16636Y62551D01*
X16984Y61712D01*
X17537Y60990D01*
X18259Y60437D01*
X19099Y60089D01*
X20000Y59970D01*
X20901Y60089D01*
X21741Y60437D01*
X22463Y60990D01*
X23016Y61712D01*
X23364Y62551D01*
X23483Y63453D01*
X23364Y64354D01*
X23016Y65194D01*
X22463Y65915D01*
X21741Y66469D01*
X20901Y66817D01*
X20000Y66935D01*
D02*
G37*
G36*
X10000D02*
X9099Y66817D01*
X8259Y66469D01*
X7537Y65915D01*
X6984Y65194D01*
X6636Y64354D01*
X6517Y63453D01*
X6636Y62551D01*
X6984Y61712D01*
X7537Y60990D01*
X8259Y60437D01*
X9099Y60089D01*
X10000Y59970D01*
X10901Y60089D01*
X11741Y60437D01*
X12462Y60990D01*
X13016Y61712D01*
X13364Y62551D01*
X13483Y63453D01*
X13364Y64354D01*
X13016Y65194D01*
X12462Y65915D01*
X11741Y66469D01*
X10901Y66817D01*
X10000Y66935D01*
D02*
G37*
G36*
X65000Y60529D02*
X64415Y60413D01*
X63919Y60081D01*
X63587Y59585D01*
X63471Y59000D01*
X63587Y58415D01*
X63919Y57919D01*
X64415Y57587D01*
X65000Y57471D01*
X65585Y57587D01*
X66081Y57919D01*
X66413Y58415D01*
X66529Y59000D01*
X66413Y59585D01*
X66081Y60081D01*
X65585Y60413D01*
X65000Y60529D01*
D02*
G37*
G36*
X274453Y64539D02*
X273278Y64384D01*
X272183Y63931D01*
X271243Y63209D01*
X270522Y62269D01*
X270069Y61175D01*
X269914Y60000D01*
X270069Y58825D01*
X270522Y57731D01*
X271243Y56791D01*
X272183Y56069D01*
X273278Y55616D01*
X274453Y55461D01*
X275627Y55616D01*
X276722Y56069D01*
X277662Y56791D01*
X278383Y57731D01*
X278837Y58825D01*
X278992Y60000D01*
X278837Y61175D01*
X278383Y62269D01*
X277662Y63209D01*
X276722Y63931D01*
X275627Y64384D01*
X274453Y64539D01*
D02*
G37*
G36*
X254453D02*
X253278Y64384D01*
X252183Y63931D01*
X251243Y63209D01*
X250522Y62269D01*
X250069Y61175D01*
X249914Y60000D01*
X250069Y58825D01*
X250522Y57731D01*
X251243Y56791D01*
X252183Y56069D01*
X253278Y55616D01*
X254453Y55461D01*
X255627Y55616D01*
X256722Y56069D01*
X257662Y56791D01*
X258383Y57731D01*
X258837Y58825D01*
X258992Y60000D01*
X258837Y61175D01*
X258383Y62269D01*
X257662Y63209D01*
X256722Y63931D01*
X255627Y64384D01*
X254453Y64539D01*
D02*
G37*
G36*
X10500Y57374D02*
Y53953D01*
X13921D01*
X13851Y54485D01*
X13453Y55446D01*
X12819Y56272D01*
X11993Y56906D01*
X11032Y57304D01*
X10500Y57374D01*
D02*
G37*
G36*
X9500D02*
X8968Y57304D01*
X8007Y56906D01*
X7181Y56272D01*
X6547Y55446D01*
X6149Y54485D01*
X6079Y53953D01*
X9500D01*
Y57374D01*
D02*
G37*
G36*
X68400Y56929D02*
X67815Y56813D01*
X67319Y56481D01*
X66987Y55985D01*
X66871Y55400D01*
X66987Y54815D01*
X67319Y54319D01*
X67815Y53987D01*
X68400Y53871D01*
X68985Y53987D01*
X69481Y54319D01*
X69813Y54815D01*
X69929Y55400D01*
X69813Y55985D01*
X69481Y56481D01*
X68985Y56813D01*
X68400Y56929D01*
D02*
G37*
G36*
X65000Y53029D02*
X64415Y52913D01*
X63919Y52581D01*
X63587Y52085D01*
X63471Y51500D01*
X63587Y50915D01*
X63919Y50419D01*
X64415Y50087D01*
X65000Y49971D01*
X65585Y50087D01*
X66081Y50419D01*
X66413Y50915D01*
X66529Y51500D01*
X66413Y52085D01*
X66081Y52581D01*
X65585Y52913D01*
X65000Y53029D01*
D02*
G37*
G36*
X20000Y56935D02*
X19099Y56817D01*
X18259Y56469D01*
X17537Y55915D01*
X16984Y55194D01*
X16636Y54354D01*
X16518Y53453D01*
X16636Y52551D01*
X16984Y51711D01*
X17537Y50990D01*
X18259Y50437D01*
X19099Y50089D01*
X20000Y49970D01*
X20901Y50089D01*
X21741Y50437D01*
X22463Y50990D01*
X23016Y51711D01*
X23364Y52551D01*
X23483Y53453D01*
X23364Y54354D01*
X23016Y55194D01*
X22463Y55915D01*
X21741Y56469D01*
X20901Y56817D01*
X20000Y56935D01*
D02*
G37*
G36*
X13921Y52953D02*
X10500D01*
Y49532D01*
X11032Y49602D01*
X11993Y50000D01*
X12819Y50634D01*
X13453Y51459D01*
X13851Y52421D01*
X13921Y52953D01*
D02*
G37*
G36*
X9500D02*
X6079D01*
X6149Y52421D01*
X6547Y51459D01*
X7181Y50634D01*
X8007Y50000D01*
X8968Y49602D01*
X9500Y49532D01*
Y52953D01*
D02*
G37*
G36*
X25500Y51927D02*
X24954Y51819D01*
X24491Y51509D01*
X24181Y51046D01*
X24073Y50500D01*
X24181Y49954D01*
X24491Y49491D01*
X24954Y49181D01*
X25500Y49073D01*
X26046Y49181D01*
X26509Y49491D01*
X26819Y49954D01*
X26927Y50500D01*
X26819Y51046D01*
X26509Y51509D01*
X26046Y51819D01*
X25500Y51927D01*
D02*
G37*
G36*
X212000Y50529D02*
X211415Y50413D01*
X210919Y50081D01*
X210587Y49585D01*
X210471Y49000D01*
X210587Y48415D01*
X210919Y47919D01*
X211415Y47587D01*
X212000Y47471D01*
X212585Y47587D01*
X213081Y47919D01*
X213413Y48415D01*
X213529Y49000D01*
X213413Y49585D01*
X213081Y50081D01*
X212585Y50413D01*
X212000Y50529D01*
D02*
G37*
G36*
X178000D02*
X177415Y50413D01*
X176919Y50081D01*
X176587Y49585D01*
X176471Y49000D01*
X176587Y48415D01*
X176919Y47919D01*
X177415Y47587D01*
X178000Y47471D01*
X178585Y47587D01*
X179081Y47919D01*
X179413Y48415D01*
X179529Y49000D01*
X179413Y49585D01*
X179081Y50081D01*
X178585Y50413D01*
X178000Y50529D01*
D02*
G37*
G36*
X225000Y52029D02*
X224415Y51913D01*
X223919Y51581D01*
X223587Y51085D01*
X223471Y50500D01*
X223587Y49915D01*
X223919Y49419D01*
X224095Y49301D01*
Y48699D01*
X223919Y48581D01*
X223587Y48085D01*
X223471Y47500D01*
X223587Y46915D01*
X223919Y46419D01*
X224415Y46087D01*
X225000Y45971D01*
X225585Y46087D01*
X226081Y46419D01*
X226413Y46915D01*
X226529Y47500D01*
X226413Y48085D01*
X226081Y48581D01*
X225905Y48699D01*
Y49301D01*
X226081Y49419D01*
X226413Y49915D01*
X226529Y50500D01*
X226413Y51085D01*
X226081Y51581D01*
X225585Y51913D01*
X225000Y52029D01*
D02*
G37*
G36*
X221000D02*
X220415Y51913D01*
X219919Y51581D01*
X219587Y51085D01*
X219471Y50500D01*
X219587Y49915D01*
X219919Y49419D01*
X220095Y49301D01*
Y48699D01*
X219919Y48581D01*
X219587Y48085D01*
X219471Y47500D01*
X219587Y46915D01*
X219919Y46419D01*
X220415Y46087D01*
X221000Y45971D01*
X221585Y46087D01*
X222081Y46419D01*
X222413Y46915D01*
X222529Y47500D01*
X222413Y48085D01*
X222081Y48581D01*
X221905Y48699D01*
Y49301D01*
X222081Y49419D01*
X222413Y49915D01*
X222529Y50500D01*
X222413Y51085D01*
X222081Y51581D01*
X221585Y51913D01*
X221000Y52029D01*
D02*
G37*
G36*
X191000D02*
X190415Y51913D01*
X189919Y51581D01*
X189587Y51085D01*
X189471Y50500D01*
X189587Y49915D01*
X189919Y49419D01*
X190095Y49301D01*
Y48699D01*
X189919Y48581D01*
X189587Y48085D01*
X189471Y47500D01*
X189587Y46915D01*
X189919Y46419D01*
X190415Y46087D01*
X191000Y45971D01*
X191585Y46087D01*
X192081Y46419D01*
X192413Y46915D01*
X192529Y47500D01*
X192413Y48085D01*
X192081Y48581D01*
X191905Y48699D01*
Y49301D01*
X192081Y49419D01*
X192413Y49915D01*
X192529Y50500D01*
X192413Y51085D01*
X192081Y51581D01*
X191585Y51913D01*
X191000Y52029D01*
D02*
G37*
G36*
X187000D02*
X186415Y51913D01*
X185919Y51581D01*
X185587Y51085D01*
X185471Y50500D01*
X185587Y49915D01*
X185919Y49419D01*
X186095Y49301D01*
Y48699D01*
X185919Y48581D01*
X185587Y48085D01*
X185471Y47500D01*
X185587Y46915D01*
X185919Y46419D01*
X186415Y46087D01*
X187000Y45971D01*
X187585Y46087D01*
X188081Y46419D01*
X188413Y46915D01*
X188529Y47500D01*
X188413Y48085D01*
X188081Y48581D01*
X187905Y48699D01*
Y49301D01*
X188081Y49419D01*
X188413Y49915D01*
X188529Y50500D01*
X188413Y51085D01*
X188081Y51581D01*
X187585Y51913D01*
X187000Y52029D01*
D02*
G37*
G36*
X264453Y54539D02*
X263278Y54384D01*
X262183Y53931D01*
X261243Y53209D01*
X260522Y52269D01*
X260069Y51175D01*
X259914Y50000D01*
X260069Y48825D01*
X260522Y47731D01*
X261243Y46791D01*
X262183Y46069D01*
X263278Y45616D01*
X264453Y45461D01*
X265628Y45616D01*
X266722Y46069D01*
X267662Y46791D01*
X268384Y47731D01*
X268837Y48825D01*
X268992Y50000D01*
X268837Y51175D01*
X268384Y52269D01*
X267662Y53209D01*
X266722Y53931D01*
X265628Y54384D01*
X264453Y54539D01*
D02*
G37*
G36*
X30500Y49294D02*
X29622Y49119D01*
X28878Y48622D01*
X28381Y47878D01*
X28206Y47000D01*
X28381Y46122D01*
X28878Y45378D01*
X29622Y44881D01*
X30500Y44706D01*
X31378Y44881D01*
X32122Y45378D01*
X32620Y46122D01*
X32794Y47000D01*
X32620Y47878D01*
X32122Y48622D01*
X31378Y49119D01*
X30500Y49294D01*
D02*
G37*
G36*
X198000Y45784D02*
X197317Y45649D01*
X196738Y45262D01*
X196352Y44683D01*
X196216Y44000D01*
X196352Y43317D01*
X196738Y42738D01*
X197317Y42351D01*
X198000Y42216D01*
X198683Y42351D01*
X199262Y42738D01*
X199648Y43317D01*
X199784Y44000D01*
X199648Y44683D01*
X199262Y45262D01*
X198683Y45649D01*
X198000Y45784D01*
D02*
G37*
G36*
X44500Y46294D02*
X43622Y46119D01*
X42878Y45622D01*
X42380Y44878D01*
X42206Y44000D01*
X42380Y43122D01*
X42878Y42378D01*
X43622Y41881D01*
X44500Y41706D01*
X45378Y41881D01*
X46122Y42378D01*
X46619Y43122D01*
X46794Y44000D01*
X46619Y44878D01*
X46122Y45622D01*
X45378Y46119D01*
X44500Y46294D01*
D02*
G37*
G36*
X20000Y46935D02*
X19099Y46817D01*
X18259Y46469D01*
X17537Y45915D01*
X16984Y45194D01*
X16636Y44354D01*
X16518Y43453D01*
X16636Y42551D01*
X16984Y41712D01*
X17537Y40990D01*
X18259Y40437D01*
X19099Y40089D01*
X20000Y39970D01*
X20901Y40089D01*
X21741Y40437D01*
X22463Y40990D01*
X23016Y41712D01*
X23364Y42551D01*
X23483Y43453D01*
X23364Y44354D01*
X23016Y45194D01*
X22463Y45915D01*
X21741Y46469D01*
X20901Y46817D01*
X20000Y46935D01*
D02*
G37*
G36*
X10000D02*
X9099Y46817D01*
X8259Y46469D01*
X7537Y45915D01*
X6984Y45194D01*
X6636Y44354D01*
X6517Y43453D01*
X6636Y42551D01*
X6984Y41712D01*
X7537Y40990D01*
X8259Y40437D01*
X9099Y40089D01*
X10000Y39970D01*
X10901Y40089D01*
X11741Y40437D01*
X12462Y40990D01*
X13016Y41712D01*
X13364Y42551D01*
X13483Y43453D01*
X13364Y44354D01*
X13016Y45194D01*
X12462Y45915D01*
X11741Y46469D01*
X10901Y46817D01*
X10000Y46935D01*
D02*
G37*
G36*
X274453Y44539D02*
X273278Y44384D01*
X272183Y43931D01*
X271243Y43209D01*
X270522Y42269D01*
X270069Y41175D01*
X269914Y40000D01*
X270069Y38825D01*
X270522Y37731D01*
X271243Y36791D01*
X272183Y36069D01*
X273278Y35616D01*
X274453Y35461D01*
X275627Y35616D01*
X276722Y36069D01*
X277662Y36791D01*
X278383Y37731D01*
X278837Y38825D01*
X278992Y40000D01*
X278837Y41175D01*
X278383Y42269D01*
X277662Y43209D01*
X276722Y43931D01*
X275627Y44384D01*
X274453Y44539D01*
D02*
G37*
G36*
X254453D02*
X253278Y44384D01*
X252183Y43931D01*
X251243Y43209D01*
X250522Y42269D01*
X250069Y41175D01*
X249914Y40000D01*
X250069Y38825D01*
X250522Y37731D01*
X251243Y36791D01*
X252183Y36069D01*
X253278Y35616D01*
X254453Y35461D01*
X255627Y35616D01*
X256722Y36069D01*
X257662Y36791D01*
X258383Y37731D01*
X258837Y38825D01*
X258992Y40000D01*
X258837Y41175D01*
X258383Y42269D01*
X257662Y43209D01*
X256722Y43931D01*
X255627Y44384D01*
X254453Y44539D01*
D02*
G37*
G36*
X227000Y37529D02*
X226415Y37413D01*
X225919Y37081D01*
X225587Y36585D01*
X225471Y36000D01*
X225587Y35415D01*
X225919Y34919D01*
X226415Y34587D01*
X227000Y34471D01*
X227585Y34587D01*
X228081Y34919D01*
X228413Y35415D01*
X228529Y36000D01*
X228413Y36585D01*
X228081Y37081D01*
X227585Y37413D01*
X227000Y37529D01*
D02*
G37*
G36*
X219000D02*
X218415Y37413D01*
X217919Y37081D01*
X217587Y36585D01*
X217471Y36000D01*
X217587Y35415D01*
X217919Y34919D01*
X218415Y34587D01*
X219000Y34471D01*
X219585Y34587D01*
X220081Y34919D01*
X220413Y35415D01*
X220529Y36000D01*
X220413Y36585D01*
X220081Y37081D01*
X219585Y37413D01*
X219000Y37529D01*
D02*
G37*
G36*
X23453Y36906D02*
X16547D01*
Y30000D01*
X23453D01*
Y36906D01*
D02*
G37*
G36*
X10000Y36935D02*
X9099Y36817D01*
X8259Y36469D01*
X7537Y35915D01*
X6984Y35194D01*
X6636Y34354D01*
X6517Y33453D01*
X6636Y32551D01*
X6984Y31712D01*
X7537Y30990D01*
X8259Y30437D01*
X9099Y30089D01*
X10000Y29970D01*
X10901Y30089D01*
X11741Y30437D01*
X12462Y30990D01*
X13016Y31712D01*
X13364Y32551D01*
X13483Y33453D01*
X13364Y34354D01*
X13016Y35194D01*
X12462Y35915D01*
X11741Y36469D01*
X10901Y36817D01*
X10000Y36935D01*
D02*
G37*
G36*
X27700Y33494D02*
X26822Y33320D01*
X26078Y32822D01*
X25580Y32078D01*
X25406Y31200D01*
X25580Y30322D01*
X26078Y29578D01*
X26822Y29081D01*
X27700Y28906D01*
X28578Y29081D01*
X29322Y29578D01*
X29820Y30322D01*
X29994Y31200D01*
X29820Y32078D01*
X29322Y32822D01*
X28578Y33320D01*
X27700Y33494D01*
D02*
G37*
G36*
X44000Y29294D02*
X43122Y29120D01*
X42378Y28622D01*
X41881Y27878D01*
X41706Y27000D01*
X41881Y26122D01*
X42378Y25378D01*
X43122Y24881D01*
X44000Y24706D01*
X44878Y24881D01*
X45622Y25378D01*
X46119Y26122D01*
X46294Y27000D01*
X46119Y27878D01*
X45622Y28622D01*
X44878Y29120D01*
X44000Y29294D01*
D02*
G37*
G36*
X56000Y23530D02*
X55086Y23410D01*
X54235Y23057D01*
X53504Y22496D01*
X52943Y21765D01*
X52590Y20914D01*
X52470Y20000D01*
X52590Y19086D01*
X52943Y18235D01*
X53504Y17504D01*
X54235Y16943D01*
X55086Y16590D01*
X56000Y16470D01*
X56914Y16590D01*
X57765Y16943D01*
X58496Y17504D01*
X59057Y18235D01*
X59410Y19086D01*
X59530Y20000D01*
X59410Y20914D01*
X59057Y21765D01*
X58496Y22496D01*
X57765Y23057D01*
X56914Y23410D01*
X56000Y23530D01*
D02*
G37*
G36*
X46000D02*
X45086Y23410D01*
X44235Y23057D01*
X43504Y22496D01*
X42943Y21765D01*
X42590Y20914D01*
X42470Y20000D01*
X42590Y19086D01*
X42943Y18235D01*
X43504Y17504D01*
X44235Y16943D01*
X45086Y16590D01*
X46000Y16470D01*
X46914Y16590D01*
X47765Y16943D01*
X48496Y17504D01*
X49057Y18235D01*
X49410Y19086D01*
X49530Y20000D01*
X49410Y20914D01*
X49057Y21765D01*
X48496Y22496D01*
X47765Y23057D01*
X46914Y23410D01*
X46000Y23530D01*
D02*
G37*
G36*
X46500Y13969D02*
Y10500D01*
X49969D01*
X49897Y11044D01*
X49494Y12017D01*
X48853Y12853D01*
X48017Y13494D01*
X47044Y13897D01*
X46500Y13969D01*
D02*
G37*
G36*
X45500D02*
X44956Y13897D01*
X43983Y13494D01*
X43147Y12853D01*
X42506Y12017D01*
X42103Y11044D01*
X42031Y10500D01*
X45500D01*
Y13969D01*
D02*
G37*
G36*
X56000Y13530D02*
X55086Y13410D01*
X54235Y13057D01*
X53504Y12496D01*
X52943Y11765D01*
X52590Y10914D01*
X52470Y10000D01*
X52590Y9086D01*
X52943Y8235D01*
X53504Y7504D01*
X54235Y6943D01*
X55086Y6590D01*
X56000Y6470D01*
X56914Y6590D01*
X57765Y6943D01*
X58496Y7504D01*
X59057Y8235D01*
X59410Y9086D01*
X59530Y10000D01*
X59410Y10914D01*
X59057Y11765D01*
X58496Y12496D01*
X57765Y13057D01*
X56914Y13410D01*
X56000Y13530D01*
D02*
G37*
G36*
X49969Y9500D02*
X46500D01*
Y6031D01*
X47044Y6103D01*
X48017Y6506D01*
X48853Y7147D01*
X49494Y7983D01*
X49897Y8956D01*
X49969Y9500D01*
D02*
G37*
G36*
X45500D02*
X42031D01*
X42103Y8956D01*
X42506Y7983D01*
X43147Y7147D01*
X43983Y6506D01*
X44956Y6103D01*
X45500Y6031D01*
Y9500D01*
D02*
G37*
%LPD*%
D90*
X51500Y248500D02*
D03*
X46000Y10000D02*
D03*
D91*
X50984Y215146D02*
D03*
X48701Y217429D02*
D03*
X53268D02*
D03*
Y212862D02*
D03*
X48701D02*
D03*
D92*
X32500Y249000D02*
D03*
D94*
X10000Y53453D02*
D03*
D97*
X103000Y236000D02*
D03*
D100*
X72038Y46000D02*
D03*
X55500Y89000D02*
D03*
X130000Y186500D02*
D03*
X46500Y51500D02*
D03*
X49000Y26500D02*
D03*
X179400Y113800D02*
D03*
X174000Y38600D02*
D03*
X235547Y56000D02*
D03*
X212000Y63500D02*
D03*
X204147Y42500D02*
D03*
X178000Y63500D02*
D03*
X223000Y37000D02*
D03*
X188500Y36500D02*
D03*
X235547Y108000D02*
D03*
X212000Y115500D02*
D03*
X204147Y94500D02*
D03*
X178047Y86047D02*
D03*
X223000Y89000D02*
D03*
X188500Y88500D02*
D03*
X235547Y160000D02*
D03*
X212000Y167500D02*
D03*
X204147Y146500D02*
D03*
X178047Y138047D02*
D03*
X178000Y167500D02*
D03*
X223000Y141000D02*
D03*
X188500Y140500D02*
D03*
X41500Y91000D02*
D03*
X79000Y64500D02*
D03*
X57716Y101784D02*
D03*
X61200Y211000D02*
D03*
X65000Y135000D02*
D03*
X64800Y211000D02*
D03*
X34700Y219454D02*
D03*
X37700Y222354D02*
D03*
X34700D02*
D03*
X37700Y219454D02*
D03*
X61300Y213900D02*
D03*
X64800D02*
D03*
X55000Y230000D02*
D03*
X79669Y121831D02*
D03*
X95500Y116500D02*
D03*
X101500Y160500D02*
D03*
X178047Y191047D02*
D03*
X188500Y193500D02*
D03*
X204147Y199500D02*
D03*
X178000Y220500D02*
D03*
X212000D02*
D03*
X223000Y194000D02*
D03*
X235547Y213000D02*
D03*
X96048Y108548D02*
D03*
D102*
X151500Y239000D02*
D03*
X64500Y151000D02*
D03*
X64000Y187000D02*
D03*
X64500Y156500D02*
D03*
X86742Y144250D02*
D03*
X101000Y204000D02*
D03*
Y200000D02*
D03*
X106000D02*
D03*
Y204000D02*
D03*
X129500Y251100D02*
D03*
D104*
X123500Y88500D02*
D03*
D105*
X111500Y120500D02*
D03*
X113500Y131500D02*
D03*
D106*
X71751Y89350D02*
D03*
X74813Y92412D02*
D03*
X77875Y95475D02*
D03*
X80938Y98537D02*
D03*
X84000Y101599D02*
D03*
X74813Y86288D02*
D03*
X77875Y89350D02*
D03*
X80938Y92412D02*
D03*
X84000Y95475D02*
D03*
X87062Y98537D02*
D03*
X77875Y83225D02*
D03*
X80938Y86288D02*
D03*
X84000Y89350D02*
D03*
X87062Y92412D02*
D03*
X90125Y95475D02*
D03*
X80938Y80163D02*
D03*
X84000Y83225D02*
D03*
X87062Y86288D02*
D03*
X90125Y89350D02*
D03*
X93187Y92412D02*
D03*
X84000Y77101D02*
D03*
X87062Y80163D02*
D03*
X90125Y83225D02*
D03*
X93187Y86288D02*
D03*
X96249Y89350D02*
D03*
M02*
