G04*
G04 #@! TF.GenerationSoftware,Altium Limited,Altium Designer,19.1.9 (167)*
G04*
G04 Layer_Physical_Order=4*
G04 Layer_Color=16711680*
%FSLAX25Y25*%
%MOIN*%
G70*
G01*
G75*
%ADD11C,0.01000*%
%ADD20R,0.01968X0.03543*%
%ADD22R,0.02756X0.05118*%
%ADD43R,0.05118X0.02756*%
%ADD77C,0.01500*%
%ADD81C,0.01800*%
%ADD89C,0.06000*%
%ADD90C,0.01181*%
%ADD91C,0.04724*%
%ADD92C,0.08000*%
%ADD93C,0.05906*%
%ADD94R,0.05906X0.05906*%
%ADD95C,0.23622*%
%ADD96R,0.06496X0.06496*%
%ADD97C,0.06496*%
%ADD98C,0.02000*%
%ADD99C,0.03000*%
%ADD100C,0.03500*%
%ADD101C,0.02500*%
%ADD102C,0.02700*%
%ADD103C,0.02200*%
%ADD104C,0.01968*%
G36*
X43000Y220000D02*
Y202000D01*
X42000Y201000D01*
X39000Y201000D01*
X38000Y202000D01*
Y204000D01*
X39500Y205500D01*
Y220000D01*
X40000Y220500D01*
X42500D01*
X43000Y220000D01*
D02*
G37*
G36*
X278000Y231000D02*
X278000Y223000D01*
X278000Y190500D01*
X244000D01*
X244000Y223000D01*
X256000D01*
X256000Y231000D01*
X257000Y232000D01*
X277000Y232000D01*
X278000Y231000D01*
D02*
G37*
G36*
Y178000D02*
X278000Y170000D01*
X278000Y137500D01*
X244000D01*
X244000Y170000D01*
X256000D01*
X256000Y178000D01*
X257000Y179000D01*
X277000Y179000D01*
X278000Y178000D01*
D02*
G37*
G36*
Y126000D02*
X278000Y118000D01*
X278000Y85500D01*
X244000D01*
X244000Y118000D01*
X256000D01*
X256000Y126000D01*
X257000Y127000D01*
X277000Y127000D01*
X278000Y126000D01*
D02*
G37*
G36*
Y74000D02*
X278000Y66000D01*
X278000Y33500D01*
X244000D01*
X244000Y66000D01*
X256000D01*
X256000Y74000D01*
X257000Y75000D01*
X277000Y75000D01*
X278000Y74000D01*
D02*
G37*
%LPC*%
G36*
X260937Y230272D02*
X259453D01*
Y228000D01*
X260937D01*
Y230272D01*
D02*
G37*
G36*
X258453D02*
X256968D01*
Y228000D01*
X258453D01*
Y230272D01*
D02*
G37*
G36*
X260937Y227000D02*
X259453D01*
Y224728D01*
X260937D01*
Y227000D01*
D02*
G37*
G36*
X258453D02*
X256968D01*
Y224728D01*
X258453D01*
Y227000D01*
D02*
G37*
G36*
X270453Y221977D02*
Y217500D01*
X274930D01*
X274824Y218305D01*
X274320Y219522D01*
X273519Y220566D01*
X272474Y221368D01*
X271258Y221871D01*
X270453Y221977D01*
D02*
G37*
G36*
X250453D02*
Y217500D01*
X254930D01*
X254824Y218305D01*
X254320Y219522D01*
X253519Y220566D01*
X252474Y221368D01*
X251258Y221871D01*
X250453Y221977D01*
D02*
G37*
G36*
X269453D02*
X268648Y221871D01*
X267431Y221368D01*
X266387Y220566D01*
X265585Y219522D01*
X265082Y218305D01*
X264976Y217500D01*
X269453D01*
Y221977D01*
D02*
G37*
G36*
X249453D02*
X248647Y221871D01*
X247431Y221368D01*
X246387Y220566D01*
X245585Y219522D01*
X245081Y218305D01*
X244975Y217500D01*
X249453D01*
Y221977D01*
D02*
G37*
G36*
X274930Y216500D02*
X270453D01*
Y212023D01*
X271258Y212129D01*
X272474Y212632D01*
X273519Y213434D01*
X274320Y214478D01*
X274824Y215695D01*
X274930Y216500D01*
D02*
G37*
G36*
X254930D02*
X250453D01*
Y212023D01*
X251258Y212129D01*
X252474Y212632D01*
X253519Y213434D01*
X254320Y214478D01*
X254824Y215695D01*
X254930Y216500D01*
D02*
G37*
G36*
X269453D02*
X264976D01*
X265082Y215695D01*
X265585Y214478D01*
X266387Y213434D01*
X267431Y212632D01*
X268648Y212129D01*
X269453Y212023D01*
Y216500D01*
D02*
G37*
G36*
X249453D02*
X244975D01*
X245081Y215695D01*
X245585Y214478D01*
X246387Y213434D01*
X247431Y212632D01*
X248647Y212129D01*
X249453Y212023D01*
Y216500D01*
D02*
G37*
G36*
X259953Y211539D02*
X258778Y211384D01*
X257683Y210931D01*
X256743Y210209D01*
X256022Y209269D01*
X255569Y208175D01*
X255414Y207000D01*
X255569Y205825D01*
X256022Y204731D01*
X256743Y203791D01*
X257683Y203069D01*
X258778Y202616D01*
X259953Y202461D01*
X261127Y202616D01*
X262222Y203069D01*
X263162Y203791D01*
X263883Y204731D01*
X264337Y205825D01*
X264492Y207000D01*
X264337Y208175D01*
X263883Y209269D01*
X263162Y210209D01*
X262222Y210931D01*
X261127Y211384D01*
X259953Y211539D01*
D02*
G37*
G36*
X270453Y201977D02*
Y197500D01*
X274930D01*
X274824Y198305D01*
X274320Y199522D01*
X273519Y200566D01*
X272474Y201367D01*
X271258Y201871D01*
X270453Y201977D01*
D02*
G37*
G36*
X250453D02*
Y197500D01*
X254930D01*
X254824Y198305D01*
X254320Y199522D01*
X253519Y200566D01*
X252474Y201367D01*
X251258Y201871D01*
X250453Y201977D01*
D02*
G37*
G36*
X269453D02*
X268648Y201871D01*
X267431Y201367D01*
X266387Y200566D01*
X265585Y199522D01*
X265082Y198305D01*
X264976Y197500D01*
X269453D01*
Y201977D01*
D02*
G37*
G36*
X249453D02*
X248647Y201871D01*
X247431Y201367D01*
X246387Y200566D01*
X245585Y199522D01*
X245081Y198305D01*
X244975Y197500D01*
X249453D01*
Y201977D01*
D02*
G37*
G36*
X274930Y196500D02*
X270453D01*
Y192023D01*
X271258Y192129D01*
X272474Y192632D01*
X273519Y193434D01*
X274320Y194478D01*
X274824Y195695D01*
X274930Y196500D01*
D02*
G37*
G36*
X254930D02*
X250453D01*
Y192023D01*
X251258Y192129D01*
X252474Y192632D01*
X253519Y193434D01*
X254320Y194478D01*
X254824Y195695D01*
X254930Y196500D01*
D02*
G37*
G36*
X269453D02*
X264976D01*
X265082Y195695D01*
X265585Y194478D01*
X266387Y193434D01*
X267431Y192632D01*
X268648Y192129D01*
X269453Y192023D01*
Y196500D01*
D02*
G37*
G36*
X249453D02*
X244975D01*
X245081Y195695D01*
X245585Y194478D01*
X246387Y193434D01*
X247431Y192632D01*
X248647Y192129D01*
X249453Y192023D01*
Y196500D01*
D02*
G37*
G36*
X260937Y177272D02*
X259453D01*
Y175000D01*
X260937D01*
Y177272D01*
D02*
G37*
G36*
X258453D02*
X256968D01*
Y175000D01*
X258453D01*
Y177272D01*
D02*
G37*
G36*
X260937Y174000D02*
X259453D01*
Y171728D01*
X260937D01*
Y174000D01*
D02*
G37*
G36*
X258453D02*
X256968D01*
Y171728D01*
X258453D01*
Y174000D01*
D02*
G37*
G36*
X270453Y168977D02*
Y164500D01*
X274930D01*
X274824Y165305D01*
X274320Y166522D01*
X273519Y167566D01*
X272474Y168368D01*
X271258Y168871D01*
X270453Y168977D01*
D02*
G37*
G36*
X250453D02*
Y164500D01*
X254930D01*
X254824Y165305D01*
X254320Y166522D01*
X253519Y167566D01*
X252474Y168368D01*
X251258Y168871D01*
X250453Y168977D01*
D02*
G37*
G36*
X269453D02*
X268648Y168871D01*
X267431Y168368D01*
X266387Y167566D01*
X265585Y166522D01*
X265082Y165305D01*
X264976Y164500D01*
X269453D01*
Y168977D01*
D02*
G37*
G36*
X249453D02*
X248647Y168871D01*
X247431Y168368D01*
X246387Y167566D01*
X245585Y166522D01*
X245081Y165305D01*
X244975Y164500D01*
X249453D01*
Y168977D01*
D02*
G37*
G36*
X274930Y163500D02*
X270453D01*
Y159023D01*
X271258Y159129D01*
X272474Y159633D01*
X273519Y160434D01*
X274320Y161478D01*
X274824Y162695D01*
X274930Y163500D01*
D02*
G37*
G36*
X254930D02*
X250453D01*
Y159023D01*
X251258Y159129D01*
X252474Y159633D01*
X253519Y160434D01*
X254320Y161478D01*
X254824Y162695D01*
X254930Y163500D01*
D02*
G37*
G36*
X269453D02*
X264976D01*
X265082Y162695D01*
X265585Y161478D01*
X266387Y160434D01*
X267431Y159633D01*
X268648Y159129D01*
X269453Y159023D01*
Y163500D01*
D02*
G37*
G36*
X249453D02*
X244975D01*
X245081Y162695D01*
X245585Y161478D01*
X246387Y160434D01*
X247431Y159633D01*
X248647Y159129D01*
X249453Y159023D01*
Y163500D01*
D02*
G37*
G36*
X259953Y158539D02*
X258778Y158384D01*
X257683Y157931D01*
X256743Y157209D01*
X256022Y156269D01*
X255569Y155175D01*
X255414Y154000D01*
X255569Y152825D01*
X256022Y151731D01*
X256743Y150791D01*
X257683Y150069D01*
X258778Y149616D01*
X259953Y149461D01*
X261127Y149616D01*
X262222Y150069D01*
X263162Y150791D01*
X263883Y151731D01*
X264337Y152825D01*
X264492Y154000D01*
X264337Y155175D01*
X263883Y156269D01*
X263162Y157209D01*
X262222Y157931D01*
X261127Y158384D01*
X259953Y158539D01*
D02*
G37*
G36*
X270453Y148977D02*
Y144500D01*
X274930D01*
X274824Y145305D01*
X274320Y146522D01*
X273519Y147566D01*
X272474Y148368D01*
X271258Y148871D01*
X270453Y148977D01*
D02*
G37*
G36*
X250453D02*
Y144500D01*
X254930D01*
X254824Y145305D01*
X254320Y146522D01*
X253519Y147566D01*
X252474Y148368D01*
X251258Y148871D01*
X250453Y148977D01*
D02*
G37*
G36*
X269453D02*
X268648Y148871D01*
X267431Y148368D01*
X266387Y147566D01*
X265585Y146522D01*
X265082Y145305D01*
X264976Y144500D01*
X269453D01*
Y148977D01*
D02*
G37*
G36*
X249453D02*
X248647Y148871D01*
X247431Y148368D01*
X246387Y147566D01*
X245585Y146522D01*
X245081Y145305D01*
X244975Y144500D01*
X249453D01*
Y148977D01*
D02*
G37*
G36*
X274930Y143500D02*
X270453D01*
Y139023D01*
X271258Y139129D01*
X272474Y139632D01*
X273519Y140434D01*
X274320Y141478D01*
X274824Y142695D01*
X274930Y143500D01*
D02*
G37*
G36*
X254930D02*
X250453D01*
Y139023D01*
X251258Y139129D01*
X252474Y139632D01*
X253519Y140434D01*
X254320Y141478D01*
X254824Y142695D01*
X254930Y143500D01*
D02*
G37*
G36*
X269453D02*
X264976D01*
X265082Y142695D01*
X265585Y141478D01*
X266387Y140434D01*
X267431Y139632D01*
X268648Y139129D01*
X269453Y139023D01*
Y143500D01*
D02*
G37*
G36*
X249453D02*
X244975D01*
X245081Y142695D01*
X245585Y141478D01*
X246387Y140434D01*
X247431Y139632D01*
X248647Y139129D01*
X249453Y139023D01*
Y143500D01*
D02*
G37*
G36*
X260937Y125272D02*
X259453D01*
Y123000D01*
X260937D01*
Y125272D01*
D02*
G37*
G36*
X258453D02*
X256968D01*
Y123000D01*
X258453D01*
Y125272D01*
D02*
G37*
G36*
X260937Y122000D02*
X259453D01*
Y119728D01*
X260937D01*
Y122000D01*
D02*
G37*
G36*
X258453D02*
X256968D01*
Y119728D01*
X258453D01*
Y122000D01*
D02*
G37*
G36*
X270453Y116977D02*
Y112500D01*
X274930D01*
X274824Y113305D01*
X274320Y114522D01*
X273519Y115566D01*
X272474Y116367D01*
X271258Y116871D01*
X270453Y116977D01*
D02*
G37*
G36*
X250453D02*
Y112500D01*
X254930D01*
X254824Y113305D01*
X254320Y114522D01*
X253519Y115566D01*
X252474Y116367D01*
X251258Y116871D01*
X250453Y116977D01*
D02*
G37*
G36*
X269453D02*
X268648Y116871D01*
X267431Y116367D01*
X266387Y115566D01*
X265585Y114522D01*
X265082Y113305D01*
X264976Y112500D01*
X269453D01*
Y116977D01*
D02*
G37*
G36*
X249453D02*
X248647Y116871D01*
X247431Y116367D01*
X246387Y115566D01*
X245585Y114522D01*
X245081Y113305D01*
X244975Y112500D01*
X249453D01*
Y116977D01*
D02*
G37*
G36*
X274930Y111500D02*
X270453D01*
Y107023D01*
X271258Y107129D01*
X272474Y107633D01*
X273519Y108434D01*
X274320Y109478D01*
X274824Y110695D01*
X274930Y111500D01*
D02*
G37*
G36*
X254930D02*
X250453D01*
Y107023D01*
X251258Y107129D01*
X252474Y107633D01*
X253519Y108434D01*
X254320Y109478D01*
X254824Y110695D01*
X254930Y111500D01*
D02*
G37*
G36*
X269453D02*
X264976D01*
X265082Y110695D01*
X265585Y109478D01*
X266387Y108434D01*
X267431Y107633D01*
X268648Y107129D01*
X269453Y107023D01*
Y111500D01*
D02*
G37*
G36*
X249453D02*
X244975D01*
X245081Y110695D01*
X245585Y109478D01*
X246387Y108434D01*
X247431Y107633D01*
X248647Y107129D01*
X249453Y107023D01*
Y111500D01*
D02*
G37*
G36*
X259953Y106539D02*
X258778Y106384D01*
X257683Y105931D01*
X256743Y105209D01*
X256022Y104269D01*
X255569Y103175D01*
X255414Y102000D01*
X255569Y100825D01*
X256022Y99731D01*
X256743Y98791D01*
X257683Y98069D01*
X258778Y97616D01*
X259953Y97461D01*
X261127Y97616D01*
X262222Y98069D01*
X263162Y98791D01*
X263883Y99731D01*
X264337Y100825D01*
X264492Y102000D01*
X264337Y103175D01*
X263883Y104269D01*
X263162Y105209D01*
X262222Y105931D01*
X261127Y106384D01*
X259953Y106539D01*
D02*
G37*
G36*
X270453Y96977D02*
Y92500D01*
X274930D01*
X274824Y93305D01*
X274320Y94522D01*
X273519Y95566D01*
X272474Y96368D01*
X271258Y96871D01*
X270453Y96977D01*
D02*
G37*
G36*
X250453D02*
Y92500D01*
X254930D01*
X254824Y93305D01*
X254320Y94522D01*
X253519Y95566D01*
X252474Y96368D01*
X251258Y96871D01*
X250453Y96977D01*
D02*
G37*
G36*
X269453D02*
X268648Y96871D01*
X267431Y96368D01*
X266387Y95566D01*
X265585Y94522D01*
X265082Y93305D01*
X264976Y92500D01*
X269453D01*
Y96977D01*
D02*
G37*
G36*
X249453D02*
X248647Y96871D01*
X247431Y96368D01*
X246387Y95566D01*
X245585Y94522D01*
X245081Y93305D01*
X244975Y92500D01*
X249453D01*
Y96977D01*
D02*
G37*
G36*
X274930Y91500D02*
X270453D01*
Y87023D01*
X271258Y87129D01*
X272474Y87633D01*
X273519Y88434D01*
X274320Y89478D01*
X274824Y90695D01*
X274930Y91500D01*
D02*
G37*
G36*
X254930D02*
X250453D01*
Y87023D01*
X251258Y87129D01*
X252474Y87633D01*
X253519Y88434D01*
X254320Y89478D01*
X254824Y90695D01*
X254930Y91500D01*
D02*
G37*
G36*
X269453D02*
X264976D01*
X265082Y90695D01*
X265585Y89478D01*
X266387Y88434D01*
X267431Y87633D01*
X268648Y87129D01*
X269453Y87023D01*
Y91500D01*
D02*
G37*
G36*
X249453D02*
X244975D01*
X245081Y90695D01*
X245585Y89478D01*
X246387Y88434D01*
X247431Y87633D01*
X248647Y87129D01*
X249453Y87023D01*
Y91500D01*
D02*
G37*
G36*
X260937Y73272D02*
X259453D01*
Y71000D01*
X260937D01*
Y73272D01*
D02*
G37*
G36*
X258453D02*
X256968D01*
Y71000D01*
X258453D01*
Y73272D01*
D02*
G37*
G36*
X260937Y70000D02*
X259453D01*
Y67728D01*
X260937D01*
Y70000D01*
D02*
G37*
G36*
X258453D02*
X256968D01*
Y67728D01*
X258453D01*
Y70000D01*
D02*
G37*
G36*
X270453Y64977D02*
Y60500D01*
X274930D01*
X274824Y61305D01*
X274320Y62522D01*
X273519Y63566D01*
X272474Y64368D01*
X271258Y64871D01*
X270453Y64977D01*
D02*
G37*
G36*
X250453D02*
Y60500D01*
X254930D01*
X254824Y61305D01*
X254320Y62522D01*
X253519Y63566D01*
X252474Y64368D01*
X251258Y64871D01*
X250453Y64977D01*
D02*
G37*
G36*
X269453D02*
X268648Y64871D01*
X267431Y64368D01*
X266387Y63566D01*
X265585Y62522D01*
X265082Y61305D01*
X264976Y60500D01*
X269453D01*
Y64977D01*
D02*
G37*
G36*
X249453D02*
X248647Y64871D01*
X247431Y64368D01*
X246387Y63566D01*
X245585Y62522D01*
X245081Y61305D01*
X244975Y60500D01*
X249453D01*
Y64977D01*
D02*
G37*
G36*
X274930Y59500D02*
X270453D01*
Y55023D01*
X271258Y55129D01*
X272474Y55633D01*
X273519Y56434D01*
X274320Y57478D01*
X274824Y58695D01*
X274930Y59500D01*
D02*
G37*
G36*
X254930D02*
X250453D01*
Y55023D01*
X251258Y55129D01*
X252474Y55633D01*
X253519Y56434D01*
X254320Y57478D01*
X254824Y58695D01*
X254930Y59500D01*
D02*
G37*
G36*
X269453D02*
X264976D01*
X265082Y58695D01*
X265585Y57478D01*
X266387Y56434D01*
X267431Y55633D01*
X268648Y55129D01*
X269453Y55023D01*
Y59500D01*
D02*
G37*
G36*
X249453D02*
X244975D01*
X245081Y58695D01*
X245585Y57478D01*
X246387Y56434D01*
X247431Y55633D01*
X248647Y55129D01*
X249453Y55023D01*
Y59500D01*
D02*
G37*
G36*
X259953Y54539D02*
X258778Y54384D01*
X257683Y53931D01*
X256743Y53209D01*
X256022Y52269D01*
X255569Y51175D01*
X255414Y50000D01*
X255569Y48825D01*
X256022Y47731D01*
X256743Y46791D01*
X257683Y46069D01*
X258778Y45616D01*
X259953Y45461D01*
X261127Y45616D01*
X262222Y46069D01*
X263162Y46791D01*
X263883Y47731D01*
X264337Y48825D01*
X264492Y50000D01*
X264337Y51175D01*
X263883Y52269D01*
X263162Y53209D01*
X262222Y53931D01*
X261127Y54384D01*
X259953Y54539D01*
D02*
G37*
G36*
X270453Y44977D02*
Y40500D01*
X274930D01*
X274824Y41305D01*
X274320Y42522D01*
X273519Y43566D01*
X272474Y44368D01*
X271258Y44871D01*
X270453Y44977D01*
D02*
G37*
G36*
X250453D02*
Y40500D01*
X254930D01*
X254824Y41305D01*
X254320Y42522D01*
X253519Y43566D01*
X252474Y44368D01*
X251258Y44871D01*
X250453Y44977D01*
D02*
G37*
G36*
X269453D02*
X268648Y44871D01*
X267431Y44368D01*
X266387Y43566D01*
X265585Y42522D01*
X265082Y41305D01*
X264976Y40500D01*
X269453D01*
Y44977D01*
D02*
G37*
G36*
X249453D02*
X248647Y44871D01*
X247431Y44368D01*
X246387Y43566D01*
X245585Y42522D01*
X245081Y41305D01*
X244975Y40500D01*
X249453D01*
Y44977D01*
D02*
G37*
G36*
X274930Y39500D02*
X270453D01*
Y35023D01*
X271258Y35129D01*
X272474Y35633D01*
X273519Y36434D01*
X274320Y37478D01*
X274824Y38695D01*
X274930Y39500D01*
D02*
G37*
G36*
X254930D02*
X250453D01*
Y35023D01*
X251258Y35129D01*
X252474Y35633D01*
X253519Y36434D01*
X254320Y37478D01*
X254824Y38695D01*
X254930Y39500D01*
D02*
G37*
G36*
X269453D02*
X264976D01*
X265082Y38695D01*
X265585Y37478D01*
X266387Y36434D01*
X267431Y35633D01*
X268648Y35129D01*
X269453Y35023D01*
Y39500D01*
D02*
G37*
G36*
X249453D02*
X244975D01*
X245081Y38695D01*
X245585Y37478D01*
X246387Y36434D01*
X247431Y35633D01*
X248647Y35129D01*
X249453Y35023D01*
Y39500D01*
D02*
G37*
%LPD*%
D11*
X126000Y232500D02*
X152000D01*
X117500Y224000D02*
X126000Y232500D01*
X117500Y139838D02*
Y224000D01*
X20000Y50000D02*
X39353Y30647D01*
Y19500D02*
Y30647D01*
X39837Y20000D02*
X46000D01*
X20000Y50000D02*
Y53453D01*
X74760Y62878D02*
X76382Y64500D01*
X46400Y243500D02*
X51600Y248700D01*
X30500Y243500D02*
X46400D01*
X10000Y150063D02*
Y153453D01*
X5000Y145063D02*
X10000Y150063D01*
X29100Y242100D02*
X30500Y243500D01*
X29100Y235700D02*
Y242100D01*
X79953Y52287D02*
X80740Y51500D01*
X79953Y46847D02*
X80300Y46500D01*
X79953Y46847D02*
Y51500D01*
X10000Y223453D02*
X15947Y229400D01*
X22800D01*
X29100Y235700D01*
X10000Y213453D02*
X14600Y218053D01*
Y225000D01*
X17500Y227900D01*
X24300D01*
X31400Y235000D01*
X47900D01*
X51600Y238700D01*
X20000Y203453D02*
X27500Y210953D01*
Y225500D01*
X34000Y232000D01*
X59500D01*
X61500Y234000D01*
Y238600D01*
X61600Y238700D01*
X20000Y213453D02*
X26000Y219453D01*
Y226600D01*
X32900Y233500D01*
X53000D01*
X56400Y236900D01*
Y243500D01*
X61600Y248700D01*
X64000Y93500D02*
Y94039D01*
X62000Y96039D02*
Y101000D01*
Y96039D02*
X64000Y94039D01*
X30400Y62600D02*
X47200D01*
X25594Y67406D02*
X30400Y62600D01*
X10043Y139000D02*
Y143410D01*
X10000Y143453D02*
X10043Y143410D01*
X15069Y72793D02*
X20457Y67406D01*
X25594D01*
X10043Y139000D02*
X15069Y133974D01*
Y72793D02*
Y133974D01*
X68209Y55591D02*
Y58228D01*
X67953Y59000D02*
X68209Y58744D01*
Y58228D02*
Y58744D01*
Y55591D02*
X68400Y55400D01*
X68437Y58000D02*
X92500D01*
X68209Y58228D02*
X68437Y58000D01*
X92500D02*
X97500Y63000D01*
Y71500D01*
X105500Y105500D02*
Y127838D01*
X117500Y139838D01*
X62600Y107100D02*
Y108606D01*
X63994Y110000D02*
X64000D01*
X62600Y108606D02*
X63994Y110000D01*
X53579Y76100D02*
X69100D01*
X78100Y67100D02*
X89328D01*
X69100Y76100D02*
X78100Y67100D01*
X20000Y123453D02*
X30119Y113333D01*
Y99559D02*
X53579Y76100D01*
X30119Y99559D02*
Y113333D01*
X89328Y67100D02*
X91000Y68772D01*
Y72300D01*
X31619Y100181D02*
Y124581D01*
X52100Y79700D02*
X68300D01*
X31619Y100181D02*
X52100Y79700D01*
X20043Y133410D02*
X22790D01*
X20000Y133453D02*
X20043Y133410D01*
X22790D02*
X31619Y124581D01*
X68300Y79700D02*
X78800Y69200D01*
X88600D01*
X24500Y139400D02*
X58900Y105000D01*
X24500Y139400D02*
Y174543D01*
X63351Y105000D02*
X64830Y103521D01*
X58900Y105000D02*
X63351D01*
X20043Y179000D02*
Y183410D01*
X20000Y183453D02*
X20043Y183410D01*
Y179000D02*
X24500Y174543D01*
X64830Y97066D02*
X66200Y95695D01*
X64830Y97066D02*
Y103521D01*
X64900Y55000D02*
X67783Y52117D01*
X25594Y57406D02*
X28000Y55000D01*
X64900D01*
X67783Y52117D02*
X67953Y52287D01*
Y51500D02*
Y52287D01*
X68116D01*
X3000Y64863D02*
Y165500D01*
Y64863D02*
X10457Y57406D01*
X3000Y165500D02*
X6000Y168500D01*
X15500D01*
X10457Y57406D02*
X25594D01*
X15500Y168500D02*
X20000Y173000D01*
Y173453D01*
X68116Y52287D02*
X71828Y56000D01*
X93000D01*
X97271Y74500D02*
X98271Y73500D01*
X93000Y56000D02*
X99500Y62500D01*
Y72328D01*
X98271Y73500D02*
X98328D01*
X99500Y72328D01*
X97000Y74500D02*
X97271D01*
X9200Y68300D02*
X10743D01*
X5000Y72500D02*
X9200Y68300D01*
X15000Y62000D02*
X17500Y59500D01*
X10743Y68300D02*
X15000Y64043D01*
Y62000D02*
Y64043D01*
X5000Y72500D02*
Y145063D01*
X29000Y59500D02*
X31500Y57000D01*
X17500Y59500D02*
X29000D01*
X31500Y57000D02*
X53500D01*
X62000Y65500D01*
X70000D01*
X71800Y67300D01*
X79953Y51500D02*
Y52287D01*
X80740Y51500D02*
X93000D01*
X101000Y59500D01*
Y73500D01*
X97000Y77500D02*
X101000Y73500D01*
X74760Y62500D02*
Y62878D01*
X76382Y64500D02*
X79000D01*
X73000Y110260D02*
X74181D01*
X79000Y62000D02*
X81862D01*
X82740Y62878D01*
Y63000D01*
X73000Y117740D02*
X74054D01*
X74932Y118618D01*
Y121732D01*
X76700Y123500D01*
X100000Y103600D02*
Y104635D01*
X104000Y108635D01*
Y131172D01*
X97086Y138086D02*
Y139414D01*
X97000Y139500D02*
X97086Y139414D01*
Y138086D02*
X104000Y131172D01*
X50047Y69984D02*
Y70500D01*
Y69984D02*
X50532Y69500D01*
X53000D01*
X40000Y203112D02*
X50341D01*
X55453Y198000D01*
X59000D01*
D20*
X253047Y227500D02*
D03*
X258953D02*
D03*
X253047Y122500D02*
D03*
X258953D02*
D03*
X253047Y70500D02*
D03*
X258953D02*
D03*
X253047Y174500D02*
D03*
X258953D02*
D03*
X33447Y19500D02*
D03*
X39353D02*
D03*
X33347Y10500D02*
D03*
X39253D02*
D03*
X220047Y32000D02*
D03*
X225953D02*
D03*
X220047Y66000D02*
D03*
X225953D02*
D03*
X220047Y223000D02*
D03*
X225953D02*
D03*
X220047Y189000D02*
D03*
X225953D02*
D03*
X220047Y170000D02*
D03*
X225953D02*
D03*
X220047Y136000D02*
D03*
X225953D02*
D03*
X220094Y118047D02*
D03*
X226000D02*
D03*
X220094Y84047D02*
D03*
X226000D02*
D03*
X50047Y70500D02*
D03*
X55953D02*
D03*
X62047Y59000D02*
D03*
X67953D02*
D03*
X62047Y51500D02*
D03*
X67953D02*
D03*
X79953D02*
D03*
X74047D02*
D03*
D22*
X62000Y101000D02*
D03*
X54520D02*
D03*
X100240Y112000D02*
D03*
X92760D02*
D03*
X111260Y88500D02*
D03*
X118740D02*
D03*
X82740Y63000D02*
D03*
X75260D02*
D03*
X59500Y89000D02*
D03*
X52020D02*
D03*
D43*
X73000Y110260D02*
D03*
Y117740D02*
D03*
X64000Y117480D02*
D03*
Y110000D02*
D03*
D77*
X33347Y10500D02*
Y20106D01*
X198000Y133000D02*
Y148000D01*
Y96000D02*
Y133000D01*
Y44000D02*
Y96000D01*
Y148000D02*
Y201000D01*
X192000Y127000D02*
X198000Y133000D01*
X135000Y127000D02*
X192000D01*
X198000Y44000D02*
X213000Y59000D01*
X238121D01*
X239000Y59879D01*
Y66000D01*
X244000Y71000D01*
X252813D01*
X198000Y96000D02*
X213000Y111000D01*
X238121D01*
X239000Y111879D01*
Y118000D01*
X244000Y123000D01*
X252813D01*
X198000Y148000D02*
X213000Y163000D01*
X238121D01*
X239000Y163879D01*
Y170000D01*
X244000Y175000D01*
X252813D01*
X244000Y228000D02*
X252813D01*
X253047Y227766D01*
Y227500D02*
Y227766D01*
X239000Y223000D02*
X244000Y228000D01*
X239000Y216879D02*
Y223000D01*
X238121Y216000D02*
X239000Y216879D01*
X213000Y216000D02*
X238121D01*
X198000Y201000D02*
X213000Y216000D01*
X226187Y62540D02*
Y65766D01*
X226791Y61800D02*
Y61935D01*
X225953Y66000D02*
X226187Y65766D01*
Y62540D02*
X226791Y61935D01*
X219813Y65766D02*
X220047Y66000D01*
X219813Y62634D02*
Y65766D01*
X219114Y61800D02*
Y61935D01*
X219813Y62634D01*
Y32234D02*
X220047Y32000D01*
X219813Y32234D02*
Y35052D01*
X219000Y35865D02*
Y36000D01*
Y35865D02*
X219813Y35052D01*
X227000Y35865D02*
Y36000D01*
X226187Y35052D02*
X227000Y35865D01*
X226187Y32234D02*
Y35052D01*
X225953Y32000D02*
X226187Y32234D01*
X226791Y113800D02*
Y113935D01*
X225953Y118000D02*
X226187Y117766D01*
Y114540D02*
X226791Y113935D01*
X226187Y114540D02*
Y117766D01*
X219813D02*
X220047Y118000D01*
X219813Y114634D02*
Y117766D01*
X219114Y113800D02*
Y113935D01*
X219813Y114634D01*
Y84234D02*
X220047Y84000D01*
X219813Y84234D02*
Y87052D01*
X219000Y87865D02*
Y88000D01*
Y87865D02*
X219813Y87052D01*
X227000Y87865D02*
Y88000D01*
X226187Y87052D02*
X227000Y87865D01*
X226187Y84234D02*
Y87052D01*
X225953Y84000D02*
X226187Y84234D01*
Y166540D02*
Y169766D01*
X226791Y165800D02*
Y165935D01*
X225953Y170000D02*
X226187Y169766D01*
Y166540D02*
X226791Y165935D01*
X219813Y169766D02*
X220047Y170000D01*
X219813Y166634D02*
Y169766D01*
X219114Y165800D02*
Y165935D01*
X219813Y166634D01*
Y136234D02*
X220047Y136000D01*
X219813Y136234D02*
Y139052D01*
X219000Y139865D02*
Y140000D01*
Y139865D02*
X219813Y139052D01*
X227000Y139865D02*
Y140000D01*
X226187Y139052D02*
X227000Y139865D01*
X226187Y136234D02*
Y139052D01*
X225953Y136000D02*
X226187Y136234D01*
X56079Y4879D02*
Y9921D01*
X56000Y10000D02*
X56079Y9921D01*
X54800Y3600D02*
X56079Y4879D01*
X39460Y3600D02*
X54800D01*
X33347Y9713D02*
X39460Y3600D01*
X33347Y9713D02*
Y10500D01*
X20000Y33453D02*
X33347Y20106D01*
X36000Y14000D02*
X37061Y12939D01*
X37601D02*
X39253Y11287D01*
X20000Y43453D02*
X36000Y27453D01*
X37061Y12939D02*
X37601D01*
X36000Y14000D02*
Y27453D01*
X39253Y10500D02*
Y11287D01*
X42965Y15000D02*
X54000D01*
X39253Y11287D02*
X42965Y15000D01*
X54000D02*
X55139Y16139D01*
Y19139D01*
X56000Y20000D01*
X92760Y112000D02*
Y115058D01*
X92018Y115800D02*
X92760Y115058D01*
X89600Y115800D02*
X92018D01*
X219000Y192865D02*
X219813Y192052D01*
X219000Y192865D02*
Y193000D01*
X219813Y189234D02*
Y192052D01*
Y189234D02*
X220047Y189000D01*
X226187Y189234D02*
Y192052D01*
X225953Y189000D02*
X226187Y189234D01*
Y192052D02*
X227000Y192865D01*
Y193000D01*
X219114Y218935D02*
X219813Y219634D01*
X219114Y218800D02*
Y218935D01*
X219813Y219634D02*
Y222766D01*
X220047Y223000D01*
X226187Y219540D02*
Y222766D01*
Y219540D02*
X226791Y218935D01*
X225953Y223000D02*
X226187Y222766D01*
X226791Y218800D02*
Y218935D01*
X118740Y88500D02*
X123500D01*
X100240Y110819D02*
Y112000D01*
X96048Y108548D02*
X97969D01*
X100240Y110819D01*
X108000Y88500D02*
X111260D01*
D81*
X76062Y46138D02*
X76100Y46100D01*
X76062Y46138D02*
Y48698D01*
X74047Y50713D02*
X76062Y48698D01*
X54581Y101062D02*
X58062D01*
X74181Y110260D02*
Y112184D01*
X74047Y50713D02*
Y51500D01*
X52000Y84000D02*
X52010Y84010D01*
X55869Y68369D02*
Y70416D01*
X53000Y65500D02*
X55869Y68369D01*
Y70416D02*
X55953Y70500D01*
X52010Y88990D02*
X52020Y89000D01*
X52010Y84010D02*
Y88990D01*
X54520Y101000D02*
X54581Y101062D01*
X58062D02*
X58100Y101100D01*
X65659Y116420D02*
X71819Y110260D01*
X64000Y117480D02*
X65181D01*
X65659Y116420D02*
Y117002D01*
X71819Y110260D02*
X73000D01*
X65181Y117480D02*
X65659Y117002D01*
X74181Y112184D02*
X79669Y117672D01*
Y121831D01*
X59000Y82500D02*
X59500Y83000D01*
Y89000D01*
X62047Y51500D02*
X65000D01*
X62047Y59000D02*
X65000D01*
D89*
X61600Y248700D02*
D03*
X51600Y238700D02*
D03*
X61600D02*
D03*
X51600Y248700D02*
D03*
X56000Y20000D02*
D03*
X46000Y10000D02*
D03*
Y20000D02*
D03*
X56000Y10000D02*
D03*
D90*
X50984Y215146D02*
D03*
X48701Y217429D02*
D03*
X53268D02*
D03*
Y212862D02*
D03*
X48701D02*
D03*
D91*
X32500Y249000D02*
D03*
Y239000D02*
D03*
D92*
X269953Y40000D02*
D03*
X249953D02*
D03*
X269953Y60000D02*
D03*
X249953D02*
D03*
X259953Y50000D02*
D03*
X269953Y92000D02*
D03*
X249953D02*
D03*
X269953Y112000D02*
D03*
X249953D02*
D03*
X259953Y102000D02*
D03*
X269953Y144000D02*
D03*
X249953D02*
D03*
X269953Y164000D02*
D03*
X249953D02*
D03*
X259953Y154000D02*
D03*
X269953Y197000D02*
D03*
X249953D02*
D03*
X269953Y217000D02*
D03*
X249953D02*
D03*
X259953Y207000D02*
D03*
D93*
X20000Y193453D02*
D03*
X10000D02*
D03*
X20000Y203453D02*
D03*
X10000D02*
D03*
X20000Y213453D02*
D03*
X10000D02*
D03*
X20000Y223453D02*
D03*
X10000D02*
D03*
Y183453D02*
D03*
X20000D02*
D03*
X10000Y173453D02*
D03*
X20000D02*
D03*
X10000Y163453D02*
D03*
X20000D02*
D03*
X10000Y153453D02*
D03*
X20000D02*
D03*
X10000Y143453D02*
D03*
X20000D02*
D03*
X10000Y133453D02*
D03*
X20000D02*
D03*
X10000Y123453D02*
D03*
X20000D02*
D03*
X10000Y113453D02*
D03*
X20000D02*
D03*
X10000Y103453D02*
D03*
X20000D02*
D03*
X10000Y93453D02*
D03*
X20000D02*
D03*
X10000Y83453D02*
D03*
X20000D02*
D03*
X10000Y73453D02*
D03*
X20000D02*
D03*
X10000Y63453D02*
D03*
X20000D02*
D03*
X10000Y53453D02*
D03*
X20000D02*
D03*
X10000Y43453D02*
D03*
X20000D02*
D03*
X10000Y33453D02*
D03*
D94*
X20000D02*
D03*
D95*
X207913Y242626D02*
D03*
X15000D02*
D03*
X207913Y14280D02*
D03*
X15000D02*
D03*
D96*
X103000Y236000D02*
D03*
D97*
X83000D02*
D03*
D98*
X130000Y186500D02*
D03*
X152000Y232500D02*
D03*
X76100Y46100D02*
D03*
X46500Y51500D02*
D03*
X49000Y26500D02*
D03*
X179400Y113800D02*
D03*
X174000Y38600D02*
D03*
X235547Y56000D02*
D03*
X212000Y49000D02*
D03*
Y63500D02*
D03*
X204147Y42500D02*
D03*
X178000Y49000D02*
D03*
Y63500D02*
D03*
X226791Y61800D02*
D03*
X223000Y61500D02*
D03*
X219114Y61800D02*
D03*
X219000Y36000D02*
D03*
X223000Y37000D02*
D03*
X227000Y36000D02*
D03*
X189000Y61500D02*
D03*
X188500Y36500D02*
D03*
X235547Y108000D02*
D03*
X212000Y101000D02*
D03*
Y115500D02*
D03*
X204147Y94500D02*
D03*
X178047Y86047D02*
D03*
X178000Y101000D02*
D03*
X226791Y113800D02*
D03*
X223000Y113500D02*
D03*
X219114Y113800D02*
D03*
X219000Y88000D02*
D03*
X223000Y89000D02*
D03*
X227000Y88000D02*
D03*
X189000Y113500D02*
D03*
X188500Y88500D02*
D03*
X235547Y160000D02*
D03*
X212000Y153000D02*
D03*
Y167500D02*
D03*
X204147Y146500D02*
D03*
X178047Y138047D02*
D03*
X178000Y153000D02*
D03*
Y167500D02*
D03*
X226791Y165800D02*
D03*
X223000Y165500D02*
D03*
X219114Y165800D02*
D03*
X219000Y140000D02*
D03*
X223000Y141000D02*
D03*
X227000Y140000D02*
D03*
X189000Y165500D02*
D03*
X188500Y140500D02*
D03*
X187000Y154500D02*
D03*
Y151500D02*
D03*
X191000D02*
D03*
Y154500D02*
D03*
X221000Y151500D02*
D03*
X225000D02*
D03*
X221000Y154500D02*
D03*
X225000D02*
D03*
X187000Y99500D02*
D03*
Y102500D02*
D03*
X191000D02*
D03*
Y99500D02*
D03*
X221000Y102500D02*
D03*
Y99500D02*
D03*
X225000D02*
D03*
Y102500D02*
D03*
X187000Y47500D02*
D03*
X191000D02*
D03*
X187000Y50500D02*
D03*
X191000D02*
D03*
X221000D02*
D03*
Y47500D02*
D03*
X225000D02*
D03*
Y50500D02*
D03*
X41000Y217953D02*
D03*
X80300Y46500D02*
D03*
X35500Y141000D02*
D03*
X64000Y93500D02*
D03*
X47200Y62600D02*
D03*
X68400Y55400D02*
D03*
X97500Y71500D02*
D03*
X105500Y105500D02*
D03*
X89600Y115800D02*
D03*
X62600Y107100D02*
D03*
X219000Y193000D02*
D03*
X227000D02*
D03*
X219114Y218800D02*
D03*
X226791D02*
D03*
X91000Y72300D02*
D03*
X88600Y69200D02*
D03*
X66200Y95695D02*
D03*
X97000Y74500D02*
D03*
X71800Y67300D02*
D03*
X97000Y77500D02*
D03*
X53000Y65500D02*
D03*
X79000Y64500D02*
D03*
X52000Y84000D02*
D03*
X57716Y101784D02*
D03*
X61200Y211000D02*
D03*
X65000Y135000D02*
D03*
X64800Y211000D02*
D03*
X34700Y219454D02*
D03*
X37700Y222354D02*
D03*
X34700D02*
D03*
X37700Y219454D02*
D03*
X61300Y213900D02*
D03*
X64800D02*
D03*
X55000Y230000D02*
D03*
X79669Y121831D02*
D03*
X95500Y116500D02*
D03*
X101500Y160500D02*
D03*
X178047Y191047D02*
D03*
X188500Y193500D02*
D03*
X187000Y207500D02*
D03*
Y204500D02*
D03*
X191000D02*
D03*
X204147Y199500D02*
D03*
X191000Y207500D02*
D03*
X178000Y220500D02*
D03*
X212000D02*
D03*
X221000Y204500D02*
D03*
X223000Y194000D02*
D03*
X225000Y204500D02*
D03*
X221000Y207500D02*
D03*
X225000D02*
D03*
X235547Y213000D02*
D03*
X96048Y108548D02*
D03*
X59000Y82500D02*
D03*
X65000Y51500D02*
D03*
Y59000D02*
D03*
X79000Y62000D02*
D03*
X108000Y88500D02*
D03*
X79300Y111900D02*
D03*
X114000Y108500D02*
D03*
X76700Y123500D02*
D03*
X178000Y206000D02*
D03*
X189000Y218500D02*
D03*
X212000Y206000D02*
D03*
X223000Y218500D02*
D03*
X97000Y139500D02*
D03*
X100000Y103600D02*
D03*
X53000Y69500D02*
D03*
X40000Y203112D02*
D03*
X59000Y198000D02*
D03*
D99*
X151500Y239000D02*
D03*
X64500Y151000D02*
D03*
X64000Y187000D02*
D03*
X64500Y156500D02*
D03*
X86742Y144250D02*
D03*
X101000Y204000D02*
D03*
Y200000D02*
D03*
X106000D02*
D03*
Y204000D02*
D03*
X129500Y251100D02*
D03*
X67500Y177500D02*
D03*
Y172000D02*
D03*
X72000D02*
D03*
Y177500D02*
D03*
X79500Y207000D02*
D03*
X93500Y187000D02*
D03*
X84500Y207000D02*
D03*
X143500Y210000D02*
D03*
Y215500D02*
D03*
X122800Y215300D02*
D03*
X122600Y210500D02*
D03*
D100*
X30500Y189500D02*
D03*
Y197500D02*
D03*
X38000Y190000D02*
D03*
Y197500D02*
D03*
X44000Y27000D02*
D03*
X29000Y49000D02*
D03*
X44500Y44000D02*
D03*
X27700Y31200D02*
D03*
X135000Y127000D02*
D03*
D101*
X198000Y44000D02*
D03*
Y96000D02*
D03*
Y148000D02*
D03*
Y201000D02*
D03*
D102*
X123500Y88500D02*
D03*
D103*
X111500Y120500D02*
D03*
X113500Y131500D02*
D03*
X128500D02*
D03*
D104*
X71751Y89350D02*
D03*
X74813Y92412D02*
D03*
X77875Y95475D02*
D03*
X80938Y98537D02*
D03*
X84000Y101599D02*
D03*
X74813Y86288D02*
D03*
X77875Y89350D02*
D03*
X80938Y92412D02*
D03*
X84000Y95475D02*
D03*
X87062Y98537D02*
D03*
X77875Y83225D02*
D03*
X80938Y86288D02*
D03*
X84000Y89350D02*
D03*
X87062Y92412D02*
D03*
X90125Y95475D02*
D03*
X80938Y80163D02*
D03*
X84000Y83225D02*
D03*
X87062Y86288D02*
D03*
X90125Y89350D02*
D03*
X93187Y92412D02*
D03*
X84000Y77101D02*
D03*
X87062Y80163D02*
D03*
X90125Y83225D02*
D03*
X93187Y86288D02*
D03*
X96249Y89350D02*
D03*
M02*
