G04*
G04 #@! TF.GenerationSoftware,Altium Limited,Altium Designer,19.1.9 (167)*
G04*
G04 Layer_Color=128*
%FSLAX25Y25*%
%MOIN*%
G70*
G01*
G75*
%ADD20R,0.01968X0.03543*%
%ADD22R,0.02756X0.05118*%
%ADD43R,0.05118X0.02756*%
D20*
X253047Y227500D02*
D03*
X258953D02*
D03*
X253047Y122500D02*
D03*
X258953D02*
D03*
X253047Y70500D02*
D03*
X258953D02*
D03*
X253047Y174500D02*
D03*
X258953D02*
D03*
X33447Y19500D02*
D03*
X39353D02*
D03*
X33347Y10500D02*
D03*
X39253D02*
D03*
X220047Y32000D02*
D03*
X225953D02*
D03*
X220047Y66000D02*
D03*
X225953D02*
D03*
X220047Y223000D02*
D03*
X225953D02*
D03*
X220047Y189000D02*
D03*
X225953D02*
D03*
X220047Y170000D02*
D03*
X225953D02*
D03*
X220047Y136000D02*
D03*
X225953D02*
D03*
X220094Y118047D02*
D03*
X226000D02*
D03*
X220094Y84047D02*
D03*
X226000D02*
D03*
X50047Y70500D02*
D03*
X55953D02*
D03*
X62047Y59000D02*
D03*
X67953D02*
D03*
X62047Y51500D02*
D03*
X67953D02*
D03*
X79953D02*
D03*
X74047D02*
D03*
D22*
X62000Y101000D02*
D03*
X54520D02*
D03*
X100240Y112000D02*
D03*
X92760D02*
D03*
X111260Y88500D02*
D03*
X118740D02*
D03*
X82740Y63000D02*
D03*
X75260D02*
D03*
X59500Y89000D02*
D03*
X52020D02*
D03*
D43*
X73000Y110260D02*
D03*
Y117740D02*
D03*
X64000Y117480D02*
D03*
Y110000D02*
D03*
M02*
