G04*
G04 #@! TF.GenerationSoftware,Altium Limited,Altium Designer,19.1.9 (167)*
G04*
G04 Layer_Color=32896*
%FSLAX25Y25*%
%MOIN*%
G70*
G01*
G75*
%ADD12C,0.00787*%
%ADD14C,0.00700*%
G36*
X190580Y214311D02*
X191034Y214117D01*
X191422Y213922D01*
X191747Y213728D01*
X192006Y213598D01*
X192135Y213533D01*
X192200Y213469D01*
X192589Y213145D01*
X192978Y212756D01*
X193497Y211978D01*
X193626Y211589D01*
X193756Y211330D01*
X193885Y211135D01*
Y211071D01*
X194080Y210422D01*
X194209Y209904D01*
X194274Y209450D01*
X194339Y209386D01*
Y150279D01*
X194080Y149307D01*
X193821Y148529D01*
X193691Y148205D01*
X193561Y147946D01*
X193497Y147816D01*
Y147751D01*
X192978Y146909D01*
X192459Y146326D01*
X192071Y146001D01*
X191941Y145872D01*
X191876D01*
X191098Y145418D01*
X190321Y145094D01*
X189997Y144964D01*
X189737Y144900D01*
X189608Y144835D01*
X189543D01*
X131927D01*
X130825Y145224D01*
X130371Y145418D01*
X129983Y145677D01*
X129723Y145807D01*
X129464Y146001D01*
X129335Y146066D01*
X129270Y146131D01*
X128557Y146844D01*
X128038Y147622D01*
X127844Y147946D01*
X127714Y148205D01*
X127585Y148399D01*
Y148464D01*
X127261Y149566D01*
Y210034D01*
X127520Y210876D01*
X127844Y211654D01*
X128038Y211913D01*
X128103Y212108D01*
X128233Y212237D01*
Y212302D01*
X128816Y213015D01*
X129399Y213533D01*
X129659Y213728D01*
X129918Y213858D01*
X130048Y213987D01*
X130112D01*
X130760Y214246D01*
X131344Y214506D01*
X131732Y214635D01*
X131797Y214700D01*
X131862D01*
X137241D01*
X142621D01*
X147870D01*
X153055D01*
X158045D01*
X162777D01*
X165045D01*
X167313D01*
X169452D01*
X171526D01*
X173470D01*
X175415D01*
X177164D01*
X178914D01*
X180470D01*
X181960D01*
X183321D01*
X184553D01*
X185719D01*
X186691D01*
X187534D01*
X188247D01*
X188830D01*
X189219D01*
X189478D01*
X189543D01*
X190580Y214311D01*
D02*
G37*
G36*
X204004Y117696D02*
X196967D01*
X196597Y117604D01*
X196319Y117511D01*
X195856Y117141D01*
X195671Y116863D01*
Y116678D01*
X195486Y115937D01*
X195300Y115197D01*
X195208Y114641D01*
Y114456D01*
X192986D01*
Y115197D01*
X193078Y116122D01*
X193263Y117048D01*
X193356Y117326D01*
X193449Y117604D01*
X193541Y117789D01*
Y117882D01*
X194097Y118715D01*
X194745Y119271D01*
X195300Y119548D01*
X195393Y119641D01*
X195486D01*
X196134Y119826D01*
X196689Y119919D01*
X197060D01*
X197245D01*
X204004D01*
Y117696D01*
D02*
G37*
G36*
X180301Y121400D02*
X180671Y121215D01*
X180949Y120937D01*
X181134Y120659D01*
X181412Y120104D01*
Y116771D01*
X181227Y116215D01*
X180949Y115752D01*
X180671Y115567D01*
X180486Y115474D01*
X179838Y115289D01*
X179653Y115197D01*
X179560D01*
X175208Y113900D01*
X174931Y113808D01*
X174838Y113900D01*
X174746Y113993D01*
Y114085D01*
X172708Y119548D01*
X172338Y120289D01*
X172153Y120937D01*
X171968Y121308D01*
X171875Y121493D01*
X171968D01*
X179745D01*
X180301Y121400D01*
D02*
G37*
G36*
X157616Y121493D02*
X158820D01*
X159931D01*
X160857D01*
X161505D01*
X161968D01*
X162153D01*
X162431D01*
X162524D01*
X162616D01*
X162431Y121030D01*
X162061Y119919D01*
X161690Y118993D01*
X161598Y118622D01*
X161505Y118345D01*
X161413Y118159D01*
Y118067D01*
X160857Y116585D01*
X160487Y115382D01*
X160301Y114826D01*
X160209Y114456D01*
X160116Y114178D01*
Y114085D01*
X160024Y113808D01*
X159838D01*
X159653D01*
X159561D01*
X157431Y114363D01*
X156413Y114641D01*
X155487Y114919D01*
X155209Y115011D01*
X154931Y115104D01*
X154746Y115197D01*
X154654D01*
X154191Y115382D01*
X153820Y115659D01*
X153542Y115937D01*
X153357Y116215D01*
X153172Y116771D01*
Y116956D01*
X153079Y117882D01*
Y120196D01*
X153265Y120567D01*
X153450Y120844D01*
X153542Y120937D01*
X154005Y121308D01*
X154468Y121493D01*
X154746Y121585D01*
X154931D01*
X157616Y121493D01*
D02*
G37*
G36*
X199837Y113437D02*
X200393D01*
X200671Y113345D01*
X200763D01*
X201597Y113067D01*
X202245Y112604D01*
X202708Y112048D01*
X203078Y111585D01*
X203356Y111123D01*
X203541Y110660D01*
X203726Y110382D01*
Y110289D01*
X203911Y109641D01*
X204004Y108900D01*
Y107789D01*
X203911Y107326D01*
Y106956D01*
X203819Y106771D01*
Y106678D01*
X203634Y106030D01*
X203263Y105475D01*
X202615Y104641D01*
X201967Y104178D01*
X201782Y103993D01*
X201689D01*
X200578Y103623D01*
X199560Y103438D01*
X199189Y103345D01*
X198911D01*
X198726D01*
X198634D01*
X197800D01*
X197152Y103438D01*
X196689Y103530D01*
X196504D01*
X195763Y103715D01*
X195115Y104086D01*
X194560Y104549D01*
X194097Y104919D01*
X193819Y105382D01*
X193634Y105752D01*
X193449Y106030D01*
Y106123D01*
X193171Y106863D01*
X193078Y107604D01*
X192986Y108252D01*
Y109641D01*
X193078Y109919D01*
Y110011D01*
X193356Y110845D01*
X193819Y111493D01*
X194282Y112048D01*
X194837Y112511D01*
X195300Y112789D01*
X195671Y112974D01*
X195949Y113160D01*
X196041D01*
X196874Y113345D01*
X197708Y113530D01*
X198541D01*
X199282D01*
X199837Y113437D01*
D02*
G37*
G36*
X199560Y101771D02*
X200485Y101586D01*
X200856D01*
X201134Y101493D01*
X201319Y101401D01*
X201411D01*
X201967Y101030D01*
X202522Y100660D01*
X202893Y100197D01*
X203263Y99734D01*
X203448Y99364D01*
X203634Y98993D01*
X203726Y98808D01*
Y98716D01*
X203911Y98067D01*
X204004Y97327D01*
Y96216D01*
X203911Y95753D01*
Y95382D01*
X203819Y95197D01*
Y95104D01*
X203541Y94364D01*
X203171Y93716D01*
X202800Y93160D01*
X202337Y92790D01*
X201967Y92512D01*
X201597Y92327D01*
X201319Y92142D01*
X201226D01*
X200208Y91864D01*
X199189Y91679D01*
X198263D01*
X197430Y91771D01*
X196782Y91864D01*
X196226Y91956D01*
X195856Y92142D01*
X195763D01*
X195300Y92327D01*
X194837Y92605D01*
X194189Y93160D01*
X193819Y93716D01*
X193727Y93808D01*
Y93901D01*
X193263Y94919D01*
X193078Y95845D01*
X192986Y96216D01*
Y99641D01*
X188819D01*
Y101864D01*
X198449D01*
X199560Y101771D01*
D02*
G37*
G36*
X137802Y88994D02*
X138080Y88716D01*
X138265Y88531D01*
Y88438D01*
X138080Y88068D01*
X137802Y87883D01*
X137524Y87790D01*
X137339D01*
X136228Y87697D01*
X134839Y87327D01*
X133635Y86864D01*
X132525Y86308D01*
X131599Y85660D01*
X130858Y85105D01*
X130395Y84642D01*
X130025Y84272D01*
X129932Y84179D01*
X129562Y83994D01*
X129284D01*
X129099D01*
X129006Y84086D01*
X128728Y84364D01*
Y84920D01*
X128821Y85012D01*
X129469Y85660D01*
X130117Y86216D01*
X130488Y86586D01*
X130673Y86771D01*
X131784Y87512D01*
X132895Y88068D01*
X134006Y88438D01*
X135024Y88716D01*
X135858Y88901D01*
X136506Y88994D01*
X136969Y89086D01*
X137154D01*
X137247D01*
X137802Y88994D01*
D02*
G37*
G36*
X137895Y85846D02*
X138080Y85753D01*
X138172Y85660D01*
X138265D01*
X138358Y85475D01*
Y85197D01*
X138080Y84920D01*
X137802Y84827D01*
X137524Y84734D01*
X137432D01*
X136969Y84642D01*
X136506Y84549D01*
X136228Y84457D01*
X136135D01*
X135302Y84179D01*
X134561Y83808D01*
X133913Y83438D01*
X133358Y82975D01*
X132895Y82605D01*
X132525Y82327D01*
X132339Y82142D01*
X132247Y82049D01*
X131876Y81864D01*
X131691D01*
X131506Y81957D01*
X131413Y82049D01*
X131228Y82327D01*
Y82790D01*
X131321Y82883D01*
X131969Y83623D01*
X132802Y84364D01*
X133728Y84920D01*
X134654Y85290D01*
X135395Y85568D01*
X136135Y85753D01*
X136691Y85846D01*
X137154Y85938D01*
X137247D01*
X137709D01*
X137895Y85846D01*
D02*
G37*
G36*
X199652Y90660D02*
X200115D01*
X200485Y90568D01*
X200578D01*
X201319Y90382D01*
X201967Y90012D01*
X202522Y89549D01*
X202893Y89086D01*
X203263Y88716D01*
X203448Y88345D01*
X203634Y88068D01*
Y87975D01*
X203819Y87234D01*
X203911Y86494D01*
X204004Y85846D01*
Y85197D01*
X203911Y84734D01*
Y84364D01*
X203819Y84086D01*
Y83994D01*
X203634Y83346D01*
X203263Y82790D01*
X202893Y82327D01*
X202615Y81957D01*
X201967Y81494D01*
X201782Y81309D01*
X201689D01*
X200485Y80846D01*
X199467Y80660D01*
X199097Y80568D01*
X198726D01*
X198541D01*
X198449D01*
X197060Y80753D01*
X195949Y80938D01*
X195115Y81309D01*
X194560Y81679D01*
X194467Y81772D01*
X194375Y81864D01*
X193819Y82512D01*
X193541Y83068D01*
X193356Y83531D01*
X193263Y83623D01*
Y83716D01*
X193078Y84457D01*
X192986Y85197D01*
Y85938D01*
X193078Y86586D01*
X193171Y87142D01*
X193263Y87512D01*
X193356Y87697D01*
X193541Y88345D01*
X193912Y88901D01*
X194282Y89364D01*
X194652Y89734D01*
X195023Y90012D01*
X195393Y90197D01*
X195578Y90382D01*
X195671D01*
X196597Y90568D01*
X197430Y90753D01*
X198263D01*
X199004D01*
X199652Y90660D01*
D02*
G37*
G36*
X137987Y82697D02*
X138172Y82512D01*
X138358Y82327D01*
Y82235D01*
X138265Y81864D01*
X137987Y81679D01*
X137709Y81586D01*
X137617D01*
X136784Y81401D01*
X136043Y81123D01*
X135580Y80753D01*
X135395Y80660D01*
X134654Y79920D01*
X134284Y79735D01*
X134006Y79827D01*
X133821Y79920D01*
X133728Y80012D01*
X133543Y80290D01*
Y80475D01*
X133635Y80660D01*
X133728Y80753D01*
X134284Y81401D01*
X134932Y81864D01*
X135580Y82235D01*
X136135Y82420D01*
X136691Y82605D01*
X137154Y82697D01*
X137432Y82790D01*
X137524D01*
X137987Y82697D01*
D02*
G37*
G36*
X155579Y66402D02*
X148172D01*
X147709Y66587D01*
X147617Y66679D01*
X147524D01*
X147061Y67327D01*
X146783Y67976D01*
X146691Y68439D01*
Y75568D01*
X146598D01*
X139839D01*
X139561Y75475D01*
X139469D01*
X138913Y75012D01*
X138358Y74827D01*
X137987Y74735D01*
X137802D01*
X137061Y74920D01*
X136598Y75290D01*
X136321Y75661D01*
X136228Y75753D01*
Y75846D01*
X136043Y76216D01*
X135950Y76494D01*
X136043Y77142D01*
X136135Y77512D01*
X136228Y77698D01*
X136691Y78161D01*
X137247Y78438D01*
X137617Y78623D01*
X137709D01*
X137802D01*
X138450Y78531D01*
X138913Y78346D01*
X139284Y78068D01*
X139376Y77975D01*
X139654Y77790D01*
X139839Y77698D01*
X139932D01*
X140024D01*
X146691D01*
Y84549D01*
X146876Y85105D01*
X146968Y85475D01*
X147061Y85846D01*
X147154Y85938D01*
X147432Y86494D01*
X147894Y86771D01*
X148172Y86864D01*
X148357D01*
X155209D01*
X155487D01*
X155579D01*
Y66402D01*
D02*
G37*
G36*
X201967Y78809D02*
X202337Y78716D01*
X202522Y78623D01*
X203078Y78161D01*
X203356Y77605D01*
X203541Y77142D01*
X203634Y76957D01*
X203911Y75661D01*
Y73994D01*
X203819Y73624D01*
Y73346D01*
X203634Y72698D01*
X203448Y72142D01*
X203263Y71772D01*
X203171Y71587D01*
X202708Y71031D01*
X202245Y70753D01*
X201874Y70568D01*
X201782Y70476D01*
X201134Y70383D01*
X200578Y70290D01*
X200208Y70383D01*
X200023D01*
X199467Y70568D01*
X199004Y70753D01*
X198356Y71309D01*
X197986Y71864D01*
X197893Y71957D01*
Y72050D01*
X197708Y72975D01*
X197615Y73716D01*
X197523Y74272D01*
Y74457D01*
X197337Y76216D01*
X197245Y76494D01*
X197060Y76679D01*
X196782Y76864D01*
X196412D01*
X196319D01*
X195763Y76679D01*
X195486Y76401D01*
X195393Y76124D01*
Y73439D01*
X195578Y72975D01*
X195856Y72698D01*
X196134Y72513D01*
X196319D01*
Y70383D01*
X195763D01*
X195300Y70476D01*
X194560Y70846D01*
X194097Y71216D01*
X194004Y71309D01*
Y71402D01*
X193634Y72142D01*
X193356Y72883D01*
X193171Y73346D01*
Y73531D01*
X193078Y74642D01*
X193171Y75661D01*
X193263Y76031D01*
Y76309D01*
X193356Y76494D01*
Y76587D01*
X193541Y77142D01*
X193819Y77698D01*
X194004Y78068D01*
X194097Y78161D01*
X194560Y78531D01*
X195023Y78809D01*
X195393Y78994D01*
X195486D01*
X195578D01*
X195949D01*
X196319D01*
X196597D01*
X196689D01*
X197245Y78901D01*
X197615Y78809D01*
X198263Y78438D01*
X198726Y78068D01*
X198819Y77883D01*
X199189Y76957D01*
X199467Y76216D01*
X199560Y75568D01*
Y75383D01*
X199745Y73253D01*
X200023Y72790D01*
X200300Y72605D01*
X200671Y72513D01*
X200763D01*
X201134Y72605D01*
X201319Y72698D01*
X201597Y73161D01*
X201689Y73531D01*
Y73716D01*
X201782Y75475D01*
X201689Y75846D01*
X201597Y76216D01*
X201226Y76679D01*
X200949Y76864D01*
X200763Y76957D01*
Y78994D01*
X201411D01*
X201967Y78809D01*
D02*
G37*
G36*
X134747Y73346D02*
X134839Y73161D01*
X134932D01*
X135580Y72605D01*
X136228Y72142D01*
X136876Y71864D01*
X137339Y71772D01*
X137432D01*
X137524D01*
X137895Y71587D01*
X137987Y71494D01*
X138080D01*
X138172Y71309D01*
Y71031D01*
X137987Y70753D01*
X137709Y70661D01*
X137432Y70568D01*
X137339D01*
X136413Y70753D01*
X135302Y71216D01*
X134469Y71772D01*
X133913Y72327D01*
X133821Y72420D01*
X133728Y72513D01*
X133635Y72790D01*
Y72975D01*
X133728Y73161D01*
Y73253D01*
X133913Y73439D01*
X134098Y73531D01*
X134191D01*
X134284D01*
X134747Y73346D01*
D02*
G37*
G36*
X131969Y71494D02*
X132154Y71402D01*
X132247Y71309D01*
X133080Y70476D01*
X133913Y69920D01*
X134469Y69457D01*
X134654Y69365D01*
X134747D01*
X135672Y68994D01*
X136506Y68809D01*
X136876Y68716D01*
X137061Y68624D01*
X137247D01*
X137339D01*
X137802Y68439D01*
X137987Y68253D01*
X138080Y68068D01*
Y67976D01*
X137895Y67605D01*
X137524Y67513D01*
X137247Y67420D01*
X137061D01*
X136876D01*
X135672Y67698D01*
X134561Y68068D01*
X133543Y68531D01*
X132802Y69087D01*
X132154Y69550D01*
X131599Y70013D01*
X131321Y70290D01*
X131228Y70383D01*
X131136Y70661D01*
Y71031D01*
X131228Y71402D01*
X131321Y71494D01*
X131691Y71587D01*
X131969Y71494D01*
D02*
G37*
G36*
X129654Y69550D02*
X129747Y69457D01*
X130302Y68809D01*
X130858Y68253D01*
X131321Y67883D01*
X131413Y67791D01*
X131506D01*
X132432Y67142D01*
X133358Y66587D01*
X134376Y66216D01*
X135210Y65939D01*
X136043Y65754D01*
X136598Y65661D01*
X136969Y65568D01*
X137154D01*
X137524Y65383D01*
X137617Y65198D01*
X137709D01*
X137802Y65013D01*
X137895Y64828D01*
X137802Y64735D01*
X137339Y64365D01*
X137154Y64272D01*
X136969D01*
X136876D01*
X136784D01*
X136043Y64365D01*
X135395Y64457D01*
X134932Y64550D01*
X134747Y64642D01*
X133450Y65013D01*
X132432Y65476D01*
X131969Y65754D01*
X131691Y65939D01*
X131506Y66031D01*
X131413Y66124D01*
X130302Y66957D01*
X129469Y67698D01*
X129099Y67976D01*
X128821Y68253D01*
X128728Y68346D01*
X128636Y68439D01*
X128451Y68901D01*
Y69272D01*
X128543Y69457D01*
X128636Y69550D01*
X129099Y69642D01*
X129469D01*
X129654Y69550D01*
D02*
G37*
G36*
X199374Y68809D02*
X199930Y68716D01*
X200300Y68624D01*
X200485D01*
X201134Y68439D01*
X201689Y68161D01*
X202522Y67513D01*
X203078Y66957D01*
X203171Y66772D01*
X203263Y66679D01*
X203726Y65754D01*
X203911Y64920D01*
X204004Y64550D01*
Y63346D01*
X203911Y62698D01*
X203634Y61680D01*
X203448Y61309D01*
X203356Y61031D01*
X203171Y60846D01*
Y60754D01*
X202708Y60198D01*
X202152Y59735D01*
X201597Y59365D01*
X201134Y59180D01*
X200671Y58994D01*
X200300Y58902D01*
X200023D01*
X199930D01*
X197523Y58809D01*
X196412D01*
X195486D01*
X194652D01*
X194004D01*
X193634D01*
X193449D01*
X193171Y58994D01*
X193078Y59087D01*
Y60939D01*
X196319D01*
X197523D01*
X198634D01*
X199004Y61031D01*
X199374D01*
X199560D01*
X199652D01*
X200300Y61124D01*
X200671Y61309D01*
X200949Y61494D01*
X201041Y61587D01*
X201319Y62050D01*
X201504Y62513D01*
X201597Y62883D01*
Y63068D01*
X201689Y64365D01*
X201597Y64920D01*
X201504Y65383D01*
X201411Y65661D01*
X201319Y65754D01*
X201041Y66124D01*
X200671Y66309D01*
X200393Y66494D01*
X200300D01*
X199652Y66587D01*
X199097Y66679D01*
X198634D01*
X198449D01*
X196504D01*
X195578D01*
X194745D01*
X194097D01*
X193541D01*
X193171D01*
X193078D01*
Y68253D01*
X193171Y68624D01*
X193356Y68809D01*
X193634Y68901D01*
X193727D01*
X198726D01*
X199374Y68809D01*
D02*
G37*
G36*
X199745Y57050D02*
X200300Y56957D01*
X200393D01*
X200485D01*
X201319Y56680D01*
X201967Y56309D01*
X202522Y55846D01*
X202893Y55383D01*
X203263Y54921D01*
X203448Y54550D01*
X203634Y54272D01*
Y54180D01*
X203911Y52976D01*
Y51495D01*
X203819Y51217D01*
Y50939D01*
X203634Y50013D01*
X203263Y49273D01*
X202800Y48624D01*
X202337Y48161D01*
X201874Y47791D01*
X201504Y47606D01*
X201226Y47421D01*
X201134D01*
X199652Y47050D01*
X198911D01*
X198356Y46958D01*
X197800D01*
X197430Y47050D01*
X197152D01*
X197060D01*
X196041Y47328D01*
X195300Y47698D01*
X194745Y48069D01*
X194652Y48161D01*
X194560Y48254D01*
X193819Y48995D01*
X193356Y49735D01*
X193171Y50291D01*
X193078Y50476D01*
Y51587D01*
X192986Y52050D01*
Y55013D01*
X188819D01*
Y57050D01*
X198263Y57143D01*
X199097D01*
X199745Y57050D01*
D02*
G37*
G36*
X168820Y123437D02*
X169561Y122881D01*
X170023Y122419D01*
X170116Y122326D01*
X170209Y122233D01*
X170949Y120752D01*
X171598Y119456D01*
X171783Y118900D01*
X171968Y118530D01*
X172153Y118252D01*
Y118159D01*
X174097Y113160D01*
X174653Y111585D01*
X174931Y110845D01*
X175116Y110197D01*
X175301Y109641D01*
X175486Y109271D01*
X175579Y108993D01*
Y108900D01*
X175949Y107049D01*
X176134Y106215D01*
X176320Y105382D01*
X176412Y104734D01*
X176505Y104271D01*
X176597Y103901D01*
Y103808D01*
X176783Y102419D01*
X176968Y101215D01*
Y100752D01*
X177060Y100382D01*
Y100104D01*
X177708Y93623D01*
X177894Y90475D01*
X177986Y89364D01*
Y87512D01*
X177894Y80475D01*
Y53254D01*
X177801Y52698D01*
Y52143D01*
X177523Y50754D01*
X177245Y49550D01*
X177060Y48995D01*
X176875Y48624D01*
X176783Y48439D01*
Y48347D01*
X176320Y47421D01*
X175764Y46587D01*
X175208Y45939D01*
X174653Y45291D01*
X174190Y44736D01*
X173727Y44365D01*
X173449Y44180D01*
X173357Y44087D01*
X172246Y43347D01*
X171227Y42791D01*
X170857Y42606D01*
X170486Y42421D01*
X170301Y42328D01*
X170209D01*
X168820Y42050D01*
X167709Y41958D01*
X167246D01*
X166875D01*
X166690D01*
X166598D01*
X165301Y42143D01*
X164283Y42421D01*
X163820Y42513D01*
X163542Y42699D01*
X163357Y42791D01*
X163264D01*
X161783Y43532D01*
X161227Y43995D01*
X160672Y44365D01*
X160209Y44736D01*
X159931Y45106D01*
X159746Y45291D01*
X159653Y45384D01*
X159098Y46032D01*
X158635Y46680D01*
X158357Y47050D01*
X158265Y47236D01*
X157616Y48439D01*
X157246Y49643D01*
X156876Y50846D01*
X156691Y51958D01*
X156598Y52791D01*
X156505Y53532D01*
Y81309D01*
X156598Y86494D01*
X156783Y90475D01*
Y91216D01*
X156876Y91956D01*
X156968Y92419D01*
Y92605D01*
X157709Y98345D01*
X157987Y100104D01*
X158172Y100938D01*
X158265Y101678D01*
X158357Y102234D01*
X158450Y102697D01*
X158542Y103067D01*
Y103160D01*
X159005Y105567D01*
X159283Y106586D01*
X159561Y107604D01*
X159746Y108438D01*
X159838Y109086D01*
X160024Y109456D01*
Y109641D01*
X160672Y112048D01*
X160950Y113160D01*
X161227Y114178D01*
X161413Y115011D01*
X161598Y115659D01*
X161783Y116030D01*
Y116215D01*
X162338Y118252D01*
X162709Y119178D01*
X163079Y120011D01*
X163357Y120659D01*
X163635Y121122D01*
X163727Y121493D01*
X163820Y121585D01*
X164283Y122326D01*
X164838Y122881D01*
X165209Y123252D01*
X165301Y123345D01*
X165394D01*
X165857Y123622D01*
X166320Y123807D01*
X167060Y123900D01*
X167709D01*
X167801D01*
X167894D01*
X168820Y123437D01*
D02*
G37*
%LPC*%
G36*
X158953Y205497D02*
X134260D01*
Y203747D01*
X134325Y203423D01*
Y202969D01*
X134390Y202840D01*
X134455Y202775D01*
X134519Y202710D01*
X134584D01*
X134908Y202580D01*
X135038Y202516D01*
X135103D01*
X146120Y199599D01*
X148583Y198951D01*
X148648Y198692D01*
X134325Y194933D01*
Y191952D01*
X158953D01*
Y194738D01*
X144046D01*
X143982Y195063D01*
X146704Y195711D01*
X148194Y196099D01*
X149620Y196488D01*
X150981Y196877D01*
X152213Y197136D01*
X153250Y197396D01*
X153638Y197525D01*
X154027Y197590D01*
X154351Y197655D01*
X154546Y197720D01*
X154675Y197785D01*
X154740D01*
X154999Y197914D01*
X155194Y198044D01*
X155323Y198368D01*
X155388Y198692D01*
Y198822D01*
X155323Y199210D01*
Y199405D01*
X155194Y199534D01*
X154999Y199664D01*
X154805Y199729D01*
X154740D01*
X152796Y200247D01*
X150916Y200701D01*
X149166Y201155D01*
X147546Y201544D01*
X146898Y201738D01*
X146250Y201932D01*
X145667Y202062D01*
X145213Y202192D01*
X144824Y202321D01*
X144565Y202386D01*
X144370Y202451D01*
X144306D01*
X144176Y202516D01*
X144111Y202580D01*
X144046Y202710D01*
Y202775D01*
X158953D01*
Y205497D01*
D02*
G37*
G36*
X171720Y205627D02*
X171396D01*
X171267D01*
X170489D01*
X169841D01*
X169582D01*
X169387D01*
X169257D01*
X169193D01*
X168221Y205497D01*
X167378Y205238D01*
X166730Y204849D01*
X166211Y204330D01*
X165823Y203877D01*
X165498Y203488D01*
X165369Y203229D01*
X165304Y203099D01*
X164980Y202192D01*
X164786Y201284D01*
X164656Y200442D01*
X164526Y199599D01*
Y197979D01*
X164591Y196488D01*
X164721Y195840D01*
X164850Y195257D01*
X164915Y194738D01*
X165045Y194350D01*
X165174Y193961D01*
X165239Y193702D01*
X165304Y193572D01*
Y193507D01*
X165758Y192665D01*
X166406Y192016D01*
X167054Y191563D01*
X167702Y191239D01*
X168285Y191109D01*
X168804Y190980D01*
X169128D01*
X169193D01*
X169257D01*
X172174D01*
X172304D01*
X172368Y191044D01*
X172433Y191109D01*
X172498Y191174D01*
X172628Y191239D01*
X172693Y191368D01*
Y195775D01*
X169841D01*
X169128Y195840D01*
X168609Y196035D01*
X168285Y196229D01*
X168221Y196294D01*
X167896Y196748D01*
X167767Y197331D01*
X167702Y197590D01*
Y198562D01*
X167767Y199081D01*
X167832Y199405D01*
Y199534D01*
X167961Y199923D01*
X168221Y200247D01*
X168480Y200442D01*
X168739Y200571D01*
X168998Y200701D01*
X169193Y200766D01*
X169322D01*
X169387D01*
X169646D01*
X170294D01*
X170878D01*
X171331D01*
X171655Y200701D01*
X171915Y200636D01*
X172109Y200571D01*
X172174Y200507D01*
X172239D01*
X172498Y200312D01*
X172757Y199988D01*
X173211Y199210D01*
X173405Y198822D01*
X173535Y198562D01*
X173600Y198303D01*
X173665Y198238D01*
X174442Y196488D01*
X174766Y195711D01*
X175090Y194998D01*
X175415Y194350D01*
X175609Y193896D01*
X175739Y193637D01*
X175803Y193507D01*
X176063Y192989D01*
X176322Y192600D01*
X176970Y191952D01*
X177683Y191433D01*
X178396Y191174D01*
X178979Y190980D01*
X179498Y190915D01*
X179886D01*
X179951D01*
X180016D01*
X181247Y190980D01*
X181831D01*
X182349D01*
X182738D01*
X183062D01*
X183321D01*
X183386D01*
X184164Y191109D01*
X184812Y191433D01*
X185330Y191757D01*
X185719Y192146D01*
X186043Y192535D01*
X186238Y192859D01*
X186367Y193118D01*
X186432Y193183D01*
X186756Y194090D01*
X186951Y194998D01*
X187145Y195840D01*
X187275Y196683D01*
X187339Y198368D01*
X187210Y199794D01*
X187145Y200442D01*
X187080Y201025D01*
X186951Y201544D01*
X186886Y201997D01*
X186756Y202386D01*
X186691Y202645D01*
X186627Y202775D01*
Y202840D01*
X186238Y203682D01*
X185719Y204330D01*
X185201Y204784D01*
X184553Y205173D01*
X184034Y205367D01*
X183581Y205497D01*
X183256Y205562D01*
X183127D01*
X181571D01*
X180859D01*
X180210D01*
X179627D01*
X179238D01*
X178914D01*
X178849D01*
Y200766D01*
X181895D01*
X182544Y200701D01*
X182997Y200507D01*
X183386Y200247D01*
X183645Y199923D01*
X183840Y199599D01*
X183969Y199275D01*
X184034Y199081D01*
Y198173D01*
X183969Y197525D01*
X183905Y197201D01*
Y197007D01*
X183840Y196877D01*
Y196812D01*
X183775Y196618D01*
X183645Y196424D01*
X183581Y196359D01*
X183516Y196294D01*
X183127Y196035D01*
X182608Y195840D01*
X182155Y195711D01*
X181701D01*
X181312Y195646D01*
X180988Y195711D01*
X180794D01*
X180729D01*
X180146Y195840D01*
X179627Y196035D01*
X179174Y196229D01*
X178849Y196488D01*
X178655Y196683D01*
X178461Y196877D01*
X178331Y197007D01*
Y197072D01*
X177553Y198822D01*
X177229Y199664D01*
X176905Y200377D01*
X176646Y200960D01*
X176451Y201479D01*
X176322Y201738D01*
X176257Y201868D01*
X175998Y202386D01*
X175739Y202840D01*
X175544Y203099D01*
X175479Y203229D01*
X175220Y203682D01*
X174896Y204071D01*
X174248Y204719D01*
X173535Y205108D01*
X172887Y205367D01*
X172239Y205562D01*
X171720Y205627D01*
D02*
G37*
G36*
X154870Y188906D02*
X154675D01*
X154611D01*
X154546D01*
X150852D01*
X147287D01*
X145602D01*
X143982D01*
X142426D01*
X140936D01*
X139639D01*
X138408D01*
X137371D01*
X136464D01*
X135751D01*
X135232D01*
X134908D01*
X134779D01*
X134455Y188841D01*
X134390D01*
X134325D01*
Y185860D01*
X152990D01*
X153574D01*
X154027Y185795D01*
X154416Y185730D01*
X154481D01*
X154546D01*
X154999Y185536D01*
X155388Y185276D01*
X155583Y185017D01*
X155777Y184693D01*
X155842Y184369D01*
X155907Y184110D01*
Y183850D01*
X155777Y183397D01*
X155583Y183008D01*
X155323Y182749D01*
X154999Y182554D01*
X154740Y182360D01*
X154481Y182295D01*
X154351Y182230D01*
X154286D01*
X153444D01*
X152796D01*
X152472D01*
X152277D01*
X152148D01*
X152083D01*
X134325D01*
Y179249D01*
X135362D01*
X138862D01*
X142232Y179184D01*
X143852D01*
X145407D01*
X146898D01*
X148259D01*
X149490D01*
X150657D01*
X151629D01*
X152472D01*
X153185D01*
X153638D01*
X153962D01*
X154092D01*
X155129Y179249D01*
X155583Y179314D01*
X155972Y179378D01*
X156296Y179508D01*
X156555Y179573D01*
X156749Y179638D01*
X156814D01*
X157462Y179962D01*
X158045Y180351D01*
X158434Y180869D01*
X158758Y181323D01*
X158953Y181776D01*
X159082Y182165D01*
X159147Y182425D01*
Y182489D01*
X159212Y183462D01*
X159277Y184369D01*
X159212Y184693D01*
Y185211D01*
X159147Y185730D01*
X158953Y186184D01*
X158564Y186961D01*
X158369Y187285D01*
X158175Y187545D01*
X158110Y187674D01*
X158045Y187739D01*
X157462Y188128D01*
X156944Y188452D01*
X156555Y188582D01*
X156490Y188646D01*
X156425D01*
X155712Y188776D01*
X155129Y188841D01*
X154870Y188906D01*
D02*
G37*
G36*
X183127Y187480D02*
X182997D01*
X179627D01*
X176387D01*
X174896D01*
X173405D01*
X171979D01*
X170683D01*
X169452D01*
X168350D01*
X167378D01*
X166600D01*
X165952D01*
X165434D01*
X165174D01*
X165045D01*
X164915Y187415D01*
X164850D01*
Y182619D01*
X181507D01*
X182025D01*
X182479Y182554D01*
X182738D01*
X182868D01*
X183256Y182360D01*
X183516Y182101D01*
X183710Y181841D01*
X183775Y181712D01*
X183969Y181064D01*
X184099Y180415D01*
Y179832D01*
X183969Y179314D01*
X183905Y178860D01*
X183775Y178536D01*
X183710Y178277D01*
X183645Y178212D01*
X183386Y177953D01*
X183127Y177758D01*
X182932Y177629D01*
X182868D01*
X182479Y177564D01*
X182090D01*
X181831D01*
X181766D01*
X164850D01*
Y172638D01*
X181895D01*
X182738Y172703D01*
X183451Y172768D01*
X184034Y172962D01*
X184553Y173092D01*
X184941Y173286D01*
X185201Y173481D01*
X185395Y173546D01*
X185460Y173610D01*
X185849Y173999D01*
X186173Y174518D01*
X186432Y175036D01*
X186627Y175555D01*
X186756Y176008D01*
X186886Y176397D01*
X186951Y176656D01*
Y176786D01*
X187210Y178342D01*
X187275Y179054D01*
X187339Y179703D01*
Y180999D01*
X187275Y181776D01*
X187210Y182489D01*
X187015Y183138D01*
X186886Y183786D01*
X186756Y184304D01*
X186627Y184693D01*
X186497Y184952D01*
Y185017D01*
X186043Y185795D01*
X185525Y186443D01*
X184941Y186832D01*
X184358Y187156D01*
X183840Y187350D01*
X183386Y187415D01*
X183127Y187480D01*
D02*
G37*
G36*
X158434Y176268D02*
X158305D01*
X135038D01*
X134584Y176203D01*
X134390D01*
X134325D01*
X134260Y173157D01*
Y172055D01*
X134325Y171601D01*
Y170759D01*
X134390Y170500D01*
Y170240D01*
X134519Y169592D01*
X134714Y169074D01*
X134908Y168620D01*
X135168Y168231D01*
X135362Y167972D01*
X135556Y167778D01*
X135686Y167648D01*
X135751Y167583D01*
X136140Y167259D01*
X136658Y167000D01*
X137112Y166870D01*
X137565Y166741D01*
X137954Y166676D01*
X138278Y166611D01*
X138538D01*
X138602D01*
X140093Y166546D01*
X141519D01*
X142815D01*
X143982D01*
X145019D01*
X145407D01*
X145796D01*
X146055D01*
X146250D01*
X146380D01*
X146444D01*
X147870D01*
X149231D01*
X150463D01*
X151629D01*
X152601D01*
X152990D01*
X153314D01*
X153574D01*
X153768D01*
X153898D01*
X153962D01*
X154870Y166611D01*
X155712Y166741D01*
X156036Y166870D01*
X156296Y166935D01*
X156425Y167000D01*
X156490D01*
X157008Y167259D01*
X157462Y167583D01*
X157786Y167907D01*
X158045Y168166D01*
X158240Y168426D01*
X158369Y168685D01*
X158499Y168815D01*
Y168879D01*
X158823Y169787D01*
X158953Y170629D01*
X159018Y171018D01*
Y175749D01*
X158953Y175944D01*
X158694Y176203D01*
X158434Y176268D01*
D02*
G37*
G36*
X158953Y163435D02*
X154351D01*
X152148D01*
X149944D01*
X147805D01*
X145731D01*
X143787D01*
X141972D01*
X140287D01*
X138797D01*
X137501D01*
X136334D01*
X135427D01*
X134779D01*
X134519D01*
X134325D01*
X134260D01*
X134195D01*
X134260Y162204D01*
Y161037D01*
X134325Y159935D01*
X134390Y158899D01*
X134455Y158056D01*
X134519Y157473D01*
X134584Y157213D01*
Y156889D01*
X134649Y156436D01*
X134843Y155982D01*
X135297Y155334D01*
X135492Y155075D01*
X135686Y154880D01*
X135816Y154816D01*
X135880Y154751D01*
X136334Y154491D01*
X136788Y154232D01*
X137695Y153973D01*
X138084Y153908D01*
X138408Y153843D01*
X138602D01*
X138667D01*
X139445Y153779D01*
X140093D01*
X140417D01*
X140612D01*
X140741D01*
X140806D01*
X143204D01*
X145602D01*
X147805D01*
X148778D01*
X149750D01*
X150657Y153843D01*
X151435D01*
X152083D01*
X152731D01*
X153185D01*
X153509D01*
X153768D01*
X153833D01*
X154870Y153973D01*
X155323Y154038D01*
X155712Y154103D01*
X156036Y154232D01*
X156296Y154297D01*
X156490Y154362D01*
X156555D01*
X157333Y154751D01*
X157851Y155140D01*
X158175Y155528D01*
X158305Y155593D01*
Y155658D01*
X158629Y156306D01*
X158758Y156954D01*
X158823Y157278D01*
X158888Y157473D01*
Y157667D01*
X158953Y159741D01*
Y163435D01*
D02*
G37*
G36*
X186951Y168491D02*
X182868D01*
X178849D01*
X176970D01*
X175090D01*
X173405D01*
X171785D01*
X170230D01*
X168933D01*
X167702D01*
X166730D01*
X165887D01*
X165304D01*
X164915D01*
X164786D01*
Y165315D01*
X164850Y163759D01*
Y162334D01*
X164915Y161037D01*
X164980Y159935D01*
Y159028D01*
X165045Y158769D01*
Y158315D01*
X165110Y157797D01*
X165239Y157278D01*
X165369Y156954D01*
X165434Y156889D01*
Y156825D01*
X165628Y156306D01*
X165823Y155852D01*
X166017Y155593D01*
X166082Y155464D01*
X166471Y154945D01*
X166924Y154491D01*
X167378Y154232D01*
X167896Y154038D01*
X168285Y153908D01*
X168609Y153843D01*
X168869Y153779D01*
X168933D01*
X169776D01*
X170489D01*
X170748D01*
X171007D01*
X171137D01*
X171202D01*
X171850D01*
X172368Y153843D01*
X172887Y153908D01*
X173211Y154038D01*
X173535Y154103D01*
X173729Y154232D01*
X173859Y154297D01*
X173924D01*
X174248Y154556D01*
X174507Y154880D01*
X175026Y155658D01*
X175220Y156047D01*
X175350Y156306D01*
X175415Y156565D01*
X175479Y156630D01*
X175803Y155723D01*
X176127Y155075D01*
X176581Y154556D01*
X177100Y154167D01*
X177553Y153908D01*
X178072Y153714D01*
X178396Y153649D01*
X178655Y153584D01*
X178785D01*
X180016D01*
X180599D01*
X181183D01*
X181636D01*
X181960D01*
X182220D01*
X182284D01*
X182868Y153649D01*
X183386Y153714D01*
X184293Y154038D01*
X185006Y154556D01*
X185525Y155140D01*
X185978Y155723D01*
X186238Y156177D01*
X186367Y156565D01*
X186432Y156630D01*
Y156695D01*
X186691Y157926D01*
X186821Y158510D01*
X186886Y159028D01*
Y159482D01*
X186951Y159806D01*
Y160130D01*
X187015Y161556D01*
X187080Y162982D01*
Y167907D01*
X186951Y168491D01*
D02*
G37*
%LPD*%
G36*
X155064Y173157D02*
X155194D01*
X155259D01*
X155453Y173027D01*
X155518Y172962D01*
X155712Y172573D01*
X155777Y172120D01*
Y171796D01*
X155712Y171472D01*
X155647Y171148D01*
X155583Y170953D01*
X155518Y170824D01*
Y170759D01*
X155259Y170370D01*
X154999Y170111D01*
X154675Y169916D01*
X154416Y169787D01*
X154157Y169657D01*
X153962Y169592D01*
X153833D01*
X153768D01*
X151111Y169527D01*
X148518D01*
X146055D01*
X144954D01*
X143917D01*
X142945D01*
X142102D01*
X141324Y169592D01*
X140676D01*
X140158D01*
X139769D01*
X139510D01*
X139445D01*
X138862Y169657D01*
X138473Y169852D01*
X138214Y170046D01*
X138149Y170111D01*
X137890Y170564D01*
X137825Y171018D01*
X137760Y171407D01*
Y173222D01*
X154740D01*
X155064Y173157D01*
D02*
G37*
G36*
X155129Y160389D02*
X155259Y160324D01*
X155323D01*
X155518Y160130D01*
X155583Y160065D01*
X155647Y159482D01*
Y158574D01*
X155583Y158250D01*
X155518Y157991D01*
X155388Y157797D01*
X155323Y157667D01*
X155064Y157408D01*
X154675Y157213D01*
X153898Y156954D01*
X153574Y156889D01*
X153250Y156825D01*
X153055D01*
X152990D01*
X141713D01*
X140806D01*
X140028D01*
X139769Y156889D01*
X139510D01*
X139380D01*
X139315D01*
X138797Y157019D01*
X138408Y157213D01*
X138149Y157538D01*
X137954Y157797D01*
X137825Y158121D01*
X137760Y158315D01*
Y158574D01*
X137695Y159611D01*
Y159935D01*
X137825Y160130D01*
X137954Y160324D01*
X138149Y160454D01*
X138473Y160519D01*
X138602D01*
X138667D01*
X140158D01*
X141584D01*
X142945D01*
X144176D01*
X145148D01*
X145602D01*
X145926D01*
X146250D01*
X146444D01*
X146574D01*
X146639D01*
X148194D01*
X149685D01*
X151046D01*
X152277D01*
X153314D01*
X153768D01*
X154092D01*
X154416D01*
X154611D01*
X154740D01*
X154805D01*
X155129Y160389D01*
D02*
G37*
G36*
X173859Y160130D02*
X173729Y159676D01*
X173535Y159287D01*
X173211Y159028D01*
X172952Y158899D01*
X172628Y158769D01*
X172433Y158704D01*
X172239D01*
X172174D01*
X171267Y158639D01*
X170489D01*
X170230D01*
X169970Y158704D01*
X169841D01*
X169776D01*
X169257Y158769D01*
X168869Y158899D01*
X168545Y159158D01*
X168350Y159352D01*
X168156Y159611D01*
X168091Y159871D01*
X168026Y160000D01*
Y163565D01*
X173859D01*
Y160130D01*
D02*
G37*
G36*
X183840Y160713D02*
X183775Y160324D01*
Y160065D01*
X183645Y159547D01*
X183451Y159158D01*
X183127Y158834D01*
X182803Y158639D01*
X182479Y158510D01*
X182220Y158445D01*
X182025D01*
X181960D01*
X178914D01*
X178396Y158510D01*
X178007Y158639D01*
X177748Y158899D01*
X177488Y159093D01*
X177359Y159352D01*
X177294Y159611D01*
X177229Y159741D01*
Y163565D01*
X178461D01*
X179627D01*
X180729D01*
X181766D01*
X182608D01*
X183256D01*
X183516D01*
X183710D01*
X183775D01*
X183840D01*
Y160713D01*
D02*
G37*
%LPC*%
G36*
X198541Y111308D02*
X198449D01*
X197708Y111215D01*
X197060Y111030D01*
X196689Y110937D01*
X196504Y110845D01*
X195856Y110382D01*
X195578Y109826D01*
X195393Y109456D01*
Y109271D01*
X195300Y108530D01*
X195393Y107882D01*
X195486Y107419D01*
Y107234D01*
X195671Y106771D01*
X195949Y106308D01*
X196226Y106030D01*
X196597Y105845D01*
X197152Y105660D01*
X197245Y105567D01*
X197337D01*
X198263Y105475D01*
X199189Y105567D01*
X199467Y105660D01*
X199745D01*
X199930Y105752D01*
X200023D01*
X200485Y105938D01*
X200856Y106123D01*
X201319Y106678D01*
X201504Y107234D01*
X201597Y107326D01*
Y107419D01*
X201689Y108252D01*
Y108900D01*
X201597Y109456D01*
X201504Y109549D01*
Y109641D01*
X201319Y110104D01*
X201041Y110475D01*
X200393Y110937D01*
X199930Y111123D01*
X199745Y111215D01*
X199652D01*
X199189D01*
X198819D01*
X198541Y111308D01*
D02*
G37*
G36*
X198078Y99549D02*
X197430D01*
X196689D01*
X196226D01*
X195763D01*
X195486D01*
X195393D01*
Y95938D01*
X195486Y95382D01*
X195671Y95012D01*
X196041Y94642D01*
X196319Y94364D01*
X197060Y94086D01*
X197245Y93993D01*
X197337D01*
X198356Y93808D01*
X199189Y93901D01*
X199560Y93993D01*
X199837D01*
X199930Y94086D01*
X200023D01*
X200763Y94364D01*
X201134Y94827D01*
X201411Y95197D01*
X201504Y95290D01*
Y95382D01*
X201597Y95938D01*
X201689Y96493D01*
X201597Y97419D01*
Y97790D01*
X201504Y98067D01*
X201411Y98253D01*
Y98345D01*
X201226Y98716D01*
X200949Y98993D01*
X200393Y99271D01*
X199930Y99456D01*
X199837D01*
X199745D01*
X198078Y99549D01*
D02*
G37*
G36*
X198726Y88623D02*
X197800D01*
X197523Y88531D01*
X197245D01*
X197060Y88438D01*
X196967D01*
X196504Y88253D01*
X196134Y87975D01*
X195671Y87327D01*
X195486Y86771D01*
X195393Y86586D01*
Y86494D01*
X195300Y85846D01*
X195393Y85290D01*
X195486Y84920D01*
Y84734D01*
X195671Y84179D01*
X195856Y83808D01*
X196041Y83623D01*
X196134Y83531D01*
X196504Y83253D01*
X196874Y83068D01*
X197245Y82883D01*
X197430D01*
X197800Y82790D01*
X198171D01*
X198541D01*
X198634D01*
X199097D01*
X199560Y82883D01*
X199930Y82975D01*
X200023Y83068D01*
X200485Y83253D01*
X200856Y83438D01*
X201319Y83901D01*
X201504Y84364D01*
X201597Y84457D01*
Y84549D01*
X201689Y85475D01*
X201597Y86216D01*
X201504Y86771D01*
Y86957D01*
X201319Y87327D01*
X201134Y87697D01*
X200578Y88160D01*
X200023Y88438D01*
X199930Y88531D01*
X199837D01*
X198726Y88623D01*
D02*
G37*
G36*
X151505Y82790D02*
X151320D01*
X150672Y82697D01*
X150117Y82512D01*
X149839Y82327D01*
X149746Y82235D01*
X149376Y81772D01*
X149283Y81309D01*
X149191Y80938D01*
Y80105D01*
X149468Y79549D01*
X149654Y79179D01*
X149746Y79086D01*
X150209Y78716D01*
X150765Y78438D01*
X151228Y78346D01*
X151320D01*
X151413D01*
X151968Y78531D01*
X152431Y78716D01*
X152802Y78994D01*
X152894Y79086D01*
X153172Y79549D01*
X153357Y80105D01*
X153450Y80383D01*
Y80568D01*
X153357Y81216D01*
X153172Y81772D01*
X152987Y82142D01*
X152894Y82235D01*
X152431Y82512D01*
X151876Y82697D01*
X151505Y82790D01*
D02*
G37*
G36*
Y74920D02*
X151320D01*
X150672Y74827D01*
X150117Y74550D01*
X149839Y74364D01*
X149746Y74272D01*
X149376Y73716D01*
X149283Y73253D01*
X149191Y72883D01*
Y72698D01*
X149283Y72050D01*
X149468Y71587D01*
X149654Y71309D01*
X149746Y71216D01*
X150209Y70846D01*
X150765Y70661D01*
X151135Y70568D01*
X151228D01*
X151320D01*
X151968Y70661D01*
X152431Y70846D01*
X152802Y71031D01*
X152894Y71124D01*
X153172Y71587D01*
X153357Y72142D01*
X153450Y72605D01*
Y72790D01*
X153357Y73346D01*
X153172Y73809D01*
X152987Y74179D01*
X152894Y74272D01*
X152339Y74642D01*
X151876Y74827D01*
X151505Y74920D01*
D02*
G37*
G36*
X197893Y55013D02*
X197523D01*
X197245D01*
X197152D01*
X197060D01*
X196412D01*
X195856D01*
X195486D01*
X195300D01*
Y52513D01*
X195393Y52050D01*
Y51402D01*
X195486Y50846D01*
X195578Y50476D01*
X196134Y49828D01*
X196597Y49458D01*
X196782Y49365D01*
X196874D01*
X197430Y49180D01*
X198078Y49087D01*
X199097Y49180D01*
X199467D01*
X199837Y49273D01*
X200023Y49365D01*
X200115D01*
X200856Y49735D01*
X201319Y50291D01*
X201504Y50846D01*
X201597Y50939D01*
Y51032D01*
X201689Y51958D01*
X201597Y52791D01*
X201504Y53439D01*
X201411Y53532D01*
Y53624D01*
X201134Y53995D01*
X200949Y54272D01*
X200393Y54643D01*
X199930Y54828D01*
X199745D01*
X198726Y54921D01*
X197893Y55013D01*
D02*
G37*
%LPD*%
D12*
X261512Y224350D02*
Y230600D01*
X250488Y224350D02*
X261512D01*
X250488D02*
Y230650D01*
X261512D01*
Y119350D02*
Y125600D01*
X250488Y119350D02*
X261512D01*
X250488D02*
Y125650D01*
X261512D01*
Y67350D02*
Y73600D01*
X250488Y67350D02*
X261512D01*
X250488D02*
Y73650D01*
X261512D01*
Y171350D02*
Y177600D01*
X250488Y171350D02*
X261512D01*
X250488D02*
Y177650D01*
X261512D01*
X30888Y22650D02*
X41912D01*
X30888Y16350D02*
Y22650D01*
Y16350D02*
X41912D01*
Y16350D02*
Y22600D01*
X41812Y7350D02*
Y13600D01*
X30788Y7350D02*
X41812D01*
X30788D02*
Y13650D01*
X41812D01*
X51370Y97063D02*
Y101000D01*
Y97063D02*
X64953D01*
Y104937D01*
X51370D02*
X64953D01*
X51370Y101000D02*
Y104937D01*
X69063Y107110D02*
X73000D01*
X69063D02*
Y120693D01*
X76937D01*
Y107110D02*
Y120693D01*
X73000Y107110D02*
X76937D01*
X64000Y120630D02*
X67937D01*
Y107047D02*
Y120630D01*
X60063Y107047D02*
X67937D01*
X60063D02*
Y120630D01*
X64000D01*
X103390Y108063D02*
Y112000D01*
X89807Y108063D02*
X103390D01*
X89807D02*
Y115937D01*
X103390D01*
Y112000D02*
Y115937D01*
X217488Y35150D02*
X228512D01*
X217488Y28850D02*
Y35150D01*
Y28850D02*
X228512D01*
Y28850D02*
Y35100D01*
X217488Y69150D02*
X228512D01*
X217488Y62850D02*
Y69150D01*
Y62850D02*
X228512D01*
Y62850D02*
Y69100D01*
Y219850D02*
Y226100D01*
X217488Y219850D02*
X228512D01*
X217488D02*
Y226150D01*
X228512D01*
Y185850D02*
Y192100D01*
X217488Y185850D02*
X228512D01*
X217488D02*
Y192150D01*
X228512D01*
X217488Y173150D02*
X228512D01*
X217488Y166850D02*
Y173150D01*
Y166850D02*
X228512D01*
Y166850D02*
Y173100D01*
X217488Y139150D02*
X228512D01*
X217488Y132850D02*
Y139150D01*
Y132850D02*
X228512D01*
Y132850D02*
Y139100D01*
X228559Y114898D02*
Y121147D01*
X217535Y114898D02*
X228559D01*
X217535D02*
Y121197D01*
X228559D01*
Y80898D02*
Y87147D01*
X217535Y80898D02*
X228559D01*
X217535D02*
Y87197D01*
X228559D01*
X33400Y96512D02*
X39650D01*
X39650Y85488D02*
Y96512D01*
X33350Y85488D02*
X39650D01*
X33350D02*
Y96512D01*
X70512Y55850D02*
Y62100D01*
X59488Y55850D02*
X70512D01*
X59488D02*
Y62150D01*
X70512D01*
X59488Y54650D02*
X70512D01*
X59488Y48350D02*
Y54650D01*
Y48350D02*
X70512D01*
Y48350D02*
Y54600D01*
X71488Y48400D02*
Y54650D01*
Y54650D02*
X82512D01*
Y48350D02*
Y54650D01*
X71488Y48350D02*
X82512D01*
X121890Y88500D02*
Y92437D01*
X108307D02*
X121890D01*
X108307Y84563D02*
Y92437D01*
Y84563D02*
X121890D01*
Y88500D01*
X85890Y59063D02*
Y63000D01*
X72307Y59063D02*
X85890D01*
X72307D02*
Y66937D01*
X85890D01*
Y63000D02*
Y66937D01*
X62390Y85063D02*
Y89000D01*
X48807Y85063D02*
X62390D01*
X48807D02*
Y92937D01*
X62390D01*
Y89000D02*
Y92937D01*
X25000Y28453D02*
Y228953D01*
X5000Y28453D02*
Y228953D01*
Y28453D02*
X25000D01*
X5000Y228953D02*
X25000D01*
D14*
X261300Y232500D02*
Y236499D01*
X259301D01*
X258634Y235832D01*
Y234499D01*
X259301Y233833D01*
X261300D01*
X259967D02*
X258634Y232500D01*
X255302D02*
Y236499D01*
X257301Y234499D01*
X254636D01*
X253303Y232500D02*
X251970D01*
X252636D01*
Y236499D01*
X253303Y235832D01*
X261500Y179300D02*
Y183299D01*
X259501D01*
X258834Y182632D01*
Y181299D01*
X259501Y180633D01*
X261500D01*
X260167D02*
X258834Y179300D01*
X255502D02*
Y183299D01*
X257501Y181299D01*
X254836D01*
X253503Y182632D02*
X252836Y183299D01*
X251503D01*
X250837Y182632D01*
Y179966D01*
X251503Y179300D01*
X252836D01*
X253503Y179966D01*
Y182632D01*
X261400Y127300D02*
Y131299D01*
X259401D01*
X258734Y130632D01*
Y129299D01*
X259401Y128633D01*
X261400D01*
X260067D02*
X258734Y127300D01*
X257401Y130632D02*
X256735Y131299D01*
X255402D01*
X254735Y130632D01*
Y129966D01*
X255402Y129299D01*
X256068D01*
X255402D01*
X254735Y128633D01*
Y127966D01*
X255402Y127300D01*
X256735D01*
X257401Y127966D01*
X253403D02*
X252736Y127300D01*
X251403D01*
X250737Y127966D01*
Y130632D01*
X251403Y131299D01*
X252736D01*
X253403Y130632D01*
Y129966D01*
X252736Y129299D01*
X250737D01*
X261400Y75200D02*
Y79199D01*
X259401D01*
X258734Y78532D01*
Y77199D01*
X259401Y76533D01*
X261400D01*
X260067D02*
X258734Y75200D01*
X257401Y78532D02*
X256735Y79199D01*
X255402D01*
X254735Y78532D01*
Y77866D01*
X255402Y77199D01*
X256068D01*
X255402D01*
X254735Y76533D01*
Y75866D01*
X255402Y75200D01*
X256735D01*
X257401Y75866D01*
X253403Y78532D02*
X252736Y79199D01*
X251403D01*
X250737Y78532D01*
Y77866D01*
X251403Y77199D01*
X250737Y76533D01*
Y75866D01*
X251403Y75200D01*
X252736D01*
X253403Y75866D01*
Y76533D01*
X252736Y77199D01*
X253403Y77866D01*
Y78532D01*
X252736Y77199D02*
X251403D01*
X41500Y2000D02*
Y5999D01*
X39501D01*
X38834Y5332D01*
Y3999D01*
X39501Y3333D01*
X41500D01*
X40167D02*
X38834Y2000D01*
X34835Y5999D02*
X37501D01*
Y3999D01*
X36168Y4666D01*
X35502D01*
X34835Y3999D01*
Y2667D01*
X35502Y2000D01*
X36835D01*
X37501Y2667D01*
X31503Y2000D02*
Y5999D01*
X33503Y3999D01*
X30837D01*
X41500Y24000D02*
Y27999D01*
X39501D01*
X38834Y27332D01*
Y25999D01*
X39501Y25333D01*
X41500D01*
X40167D02*
X38834Y24000D01*
X34835Y27999D02*
X37501D01*
Y25999D01*
X36168Y26666D01*
X35502D01*
X34835Y25999D01*
Y24667D01*
X35502Y24000D01*
X36835D01*
X37501Y24667D01*
X33503Y27332D02*
X32836Y27999D01*
X31503D01*
X30837Y27332D01*
Y26666D01*
X31503Y25999D01*
X32170D01*
X31503D01*
X30837Y25333D01*
Y24667D01*
X31503Y24000D01*
X32836D01*
X33503Y24667D01*
X57500Y56000D02*
Y59999D01*
X55501D01*
X54834Y59332D01*
Y57999D01*
X55501Y57333D01*
X57500D01*
X56167D02*
X54834Y56000D01*
X50836Y59999D02*
X53501D01*
Y57999D01*
X52168Y58666D01*
X51502D01*
X50836Y57999D01*
Y56666D01*
X51502Y56000D01*
X52835D01*
X53501Y56666D01*
X46837Y56000D02*
X49503D01*
X46837Y58666D01*
Y59332D01*
X47503Y59999D01*
X48836D01*
X49503Y59332D01*
X57500Y48500D02*
Y52499D01*
X55501D01*
X54834Y51832D01*
Y50499D01*
X55501Y49833D01*
X57500D01*
X56167D02*
X54834Y48500D01*
X50836Y52499D02*
X53501D01*
Y50499D01*
X52168Y51166D01*
X51502D01*
X50836Y50499D01*
Y49166D01*
X51502Y48500D01*
X52835D01*
X53501Y49166D01*
X49503Y48500D02*
X48170D01*
X48836D01*
Y52499D01*
X49503Y51832D01*
X38500Y83500D02*
X34501D01*
Y81501D01*
X35168Y80834D01*
X36501D01*
X37167Y81501D01*
Y83500D01*
Y82167D02*
X38500Y80834D01*
X34501Y76836D02*
Y79501D01*
X36501D01*
X35834Y78168D01*
Y77502D01*
X36501Y76836D01*
X37834D01*
X38500Y77502D01*
Y78835D01*
X37834Y79501D01*
X34501Y72837D02*
Y75503D01*
X36501D01*
X35834Y74170D01*
Y73503D01*
X36501Y72837D01*
X37834D01*
X38500Y73503D01*
Y74836D01*
X37834Y75503D01*
X100000Y48500D02*
Y52499D01*
X98001D01*
X97334Y51832D01*
Y50499D01*
X98001Y49833D01*
X100000D01*
X98667D02*
X97334Y48500D01*
X93335Y52499D02*
X96001D01*
Y50499D01*
X94668Y51166D01*
X94002D01*
X93335Y50499D01*
Y49166D01*
X94002Y48500D01*
X95335D01*
X96001Y49166D01*
X92003Y51832D02*
X91336Y52499D01*
X90003D01*
X89337Y51832D01*
Y49166D01*
X90003Y48500D01*
X91336D01*
X92003Y49166D01*
Y51832D01*
X228000Y195000D02*
Y198999D01*
X226001D01*
X225334Y198332D01*
Y196999D01*
X226001Y196333D01*
X228000D01*
X226667D02*
X225334Y195000D01*
X222002D02*
Y198999D01*
X224001Y196999D01*
X221336D01*
X220003Y198332D02*
X219336Y198999D01*
X218003D01*
X217337Y198332D01*
Y197666D01*
X218003Y196999D01*
X217337Y196333D01*
Y195667D01*
X218003Y195000D01*
X219336D01*
X220003Y195667D01*
Y196333D01*
X219336Y196999D01*
X220003Y197666D01*
Y198332D01*
X219336Y196999D02*
X218003D01*
X228000Y142000D02*
Y145999D01*
X226001D01*
X225334Y145332D01*
Y143999D01*
X226001Y143333D01*
X228000D01*
X226667D02*
X225334Y142000D01*
X222002D02*
Y145999D01*
X224001Y143999D01*
X221336D01*
X217337Y145999D02*
X218670Y145332D01*
X220003Y143999D01*
Y142666D01*
X219336Y142000D01*
X218003D01*
X217337Y142666D01*
Y143333D01*
X218003Y143999D01*
X220003D01*
X227500Y90000D02*
Y93999D01*
X225501D01*
X224834Y93332D01*
Y91999D01*
X225501Y91333D01*
X227500D01*
X226167D02*
X224834Y90000D01*
X221502D02*
Y93999D01*
X223501Y91999D01*
X220835D01*
X216837Y90000D02*
X219503D01*
X216837Y92666D01*
Y93332D01*
X217503Y93999D01*
X218836D01*
X219503Y93332D01*
X228000Y38000D02*
Y41999D01*
X226001D01*
X225334Y41332D01*
Y39999D01*
X226001Y39333D01*
X228000D01*
X226667D02*
X225334Y38000D01*
X222002D02*
Y41999D01*
X224001Y39999D01*
X221336D01*
X218003Y38000D02*
Y41999D01*
X220003Y39999D01*
X217337D01*
X228500Y213000D02*
Y216999D01*
X226501D01*
X225834Y216332D01*
Y214999D01*
X226501Y214333D01*
X228500D01*
X227167D02*
X225834Y213000D01*
X222502D02*
Y216999D01*
X224501Y214999D01*
X221835D01*
X220503Y213666D02*
X219836Y213000D01*
X218503D01*
X217837Y213666D01*
Y216332D01*
X218503Y216999D01*
X219836D01*
X220503Y216332D01*
Y215666D01*
X219836Y214999D01*
X217837D01*
X228000Y160000D02*
Y163999D01*
X226001D01*
X225334Y163332D01*
Y161999D01*
X226001Y161333D01*
X228000D01*
X226667D02*
X225334Y160000D01*
X222002D02*
Y163999D01*
X224001Y161999D01*
X221336D01*
X220003Y163999D02*
X217337D01*
Y163332D01*
X220003Y160667D01*
Y160000D01*
X228000Y109000D02*
Y112999D01*
X226001D01*
X225334Y112332D01*
Y110999D01*
X226001Y110333D01*
X228000D01*
X226667D02*
X225334Y109000D01*
X222002D02*
Y112999D01*
X224001Y110999D01*
X221336D01*
X220003Y112332D02*
X219336Y112999D01*
X218003D01*
X217337Y112332D01*
Y111666D01*
X218003Y110999D01*
X218670D01*
X218003D01*
X217337Y110333D01*
Y109667D01*
X218003Y109000D01*
X219336D01*
X220003Y109667D01*
X228500Y55500D02*
Y59499D01*
X226501D01*
X225834Y58832D01*
Y57499D01*
X226501Y56833D01*
X228500D01*
X227167D02*
X225834Y55500D01*
X222502D02*
Y59499D01*
X224501Y57499D01*
X221835D01*
X217837Y59499D02*
X220503D01*
Y57499D01*
X219170Y58166D01*
X218503D01*
X217837Y57499D01*
Y56166D01*
X218503Y55500D01*
X219836D01*
X220503Y56166D01*
X73332Y125166D02*
X73999Y124499D01*
Y123167D01*
X73332Y122500D01*
X70666D01*
X70000Y123167D01*
Y124499D01*
X70666Y125166D01*
X73999Y129165D02*
X73332Y127832D01*
X71999Y126499D01*
X70666D01*
X70000Y127165D01*
Y128498D01*
X70666Y129165D01*
X71333D01*
X71999Y128498D01*
Y126499D01*
X73999Y133163D02*
Y130497D01*
X71999D01*
X72666Y131830D01*
Y132497D01*
X71999Y133163D01*
X70666D01*
X70000Y132497D01*
Y131164D01*
X70666Y130497D01*
X46334Y101832D02*
X47001Y102499D01*
X48334D01*
X49000Y101832D01*
Y99166D01*
X48334Y98500D01*
X47001D01*
X46334Y99166D01*
X42336Y102499D02*
X43668Y101832D01*
X45001Y100499D01*
Y99166D01*
X44335Y98500D01*
X43002D01*
X42336Y99166D01*
Y99833D01*
X43002Y100499D01*
X45001D01*
X41003Y102499D02*
X38337D01*
Y101832D01*
X41003Y99166D01*
Y98500D01*
X101334Y121832D02*
X102001Y122499D01*
X103333D01*
X104000Y121832D01*
Y119167D01*
X103333Y118500D01*
X102001D01*
X101334Y119167D01*
X97335Y122499D02*
X98668Y121832D01*
X100001Y120499D01*
Y119167D01*
X99335Y118500D01*
X98002D01*
X97335Y119167D01*
Y119833D01*
X98002Y120499D01*
X100001D01*
X96003Y121832D02*
X95336Y122499D01*
X94003D01*
X93337Y121832D01*
Y121166D01*
X94003Y120499D01*
X94670D01*
X94003D01*
X93337Y119833D01*
Y119167D01*
X94003Y118500D01*
X95336D01*
X96003Y119167D01*
X63832Y125166D02*
X64499Y124499D01*
Y123167D01*
X63832Y122500D01*
X61166D01*
X60500Y123167D01*
Y124499D01*
X61166Y125166D01*
X64499Y129165D02*
X63832Y127832D01*
X62499Y126499D01*
X61166D01*
X60500Y127165D01*
Y128498D01*
X61166Y129165D01*
X61833D01*
X62499Y128498D01*
Y126499D01*
X64499Y133163D02*
X63832Y131830D01*
X62499Y130497D01*
X61166D01*
X60500Y131164D01*
Y132497D01*
X61166Y133163D01*
X61833D01*
X62499Y132497D01*
Y130497D01*
X118834Y97832D02*
X119501Y98499D01*
X120834D01*
X121500Y97832D01*
Y95166D01*
X120834Y94500D01*
X119501D01*
X118834Y95166D01*
X114836Y98499D02*
X116168Y97832D01*
X117501Y96499D01*
Y95166D01*
X116835Y94500D01*
X115502D01*
X114836Y95166D01*
Y95833D01*
X115502Y96499D01*
X117501D01*
X110837Y94500D02*
X113503D01*
X110837Y97166D01*
Y97832D01*
X111503Y98499D01*
X112836D01*
X113503Y97832D01*
X49908Y80334D02*
X49242Y81001D01*
Y82334D01*
X49908Y83000D01*
X52574D01*
X53240Y82334D01*
Y81001D01*
X52574Y80334D01*
X49242Y76336D02*
X49908Y77668D01*
X51241Y79001D01*
X52574D01*
X53240Y78335D01*
Y77002D01*
X52574Y76336D01*
X51907D01*
X51241Y77002D01*
Y79001D01*
X49908Y75003D02*
X49242Y74336D01*
Y73003D01*
X49908Y72337D01*
X50574D01*
X51241Y73003D01*
X51907Y72337D01*
X52574D01*
X53240Y73003D01*
Y74336D01*
X52574Y75003D01*
X51907D01*
X51241Y74336D01*
X50574Y75003D01*
X49908D01*
X51241Y74336D02*
Y73003D01*
X98834Y63332D02*
X99501Y63999D01*
X100834D01*
X101500Y63332D01*
Y60666D01*
X100834Y60000D01*
X99501D01*
X98834Y60666D01*
X94836Y63999D02*
X96168Y63332D01*
X97501Y61999D01*
Y60666D01*
X96835Y60000D01*
X95502D01*
X94836Y60666D01*
Y61333D01*
X95502Y61999D01*
X97501D01*
X91503Y60000D02*
Y63999D01*
X93503Y61999D01*
X90837D01*
M02*
