G04*
G04 #@! TF.GenerationSoftware,Altium Limited,Altium Designer,19.1.9 (167)*
G04*
G04 Layer_Color=8388736*
%FSLAX25Y25*%
%MOIN*%
G70*
G01*
G75*
%ADD21R,0.03000X0.01800*%
%ADD24R,0.01500X0.04400*%
G04:AMPARAMS|DCode=33|XSize=33.86mil|YSize=10.24mil|CornerRadius=1.28mil|HoleSize=0mil|Usage=FLASHONLY|Rotation=180.000|XOffset=0mil|YOffset=0mil|HoleType=Round|Shape=RoundedRectangle|*
%AMROUNDEDRECTD33*
21,1,0.03386,0.00768,0,0,180.0*
21,1,0.03130,0.01024,0,0,180.0*
1,1,0.00256,-0.01565,0.00384*
1,1,0.00256,0.01565,0.00384*
1,1,0.00256,0.01565,-0.00384*
1,1,0.00256,-0.01565,-0.00384*
%
%ADD33ROUNDEDRECTD33*%
G04:AMPARAMS|DCode=34|XSize=33.86mil|YSize=10.24mil|CornerRadius=1.28mil|HoleSize=0mil|Usage=FLASHONLY|Rotation=90.000|XOffset=0mil|YOffset=0mil|HoleType=Round|Shape=RoundedRectangle|*
%AMROUNDEDRECTD34*
21,1,0.03386,0.00768,0,0,90.0*
21,1,0.03130,0.01024,0,0,90.0*
1,1,0.00256,0.00384,0.01565*
1,1,0.00256,0.00384,-0.01565*
1,1,0.00256,-0.00384,-0.01565*
1,1,0.00256,-0.00384,0.01565*
%
%ADD34ROUNDEDRECTD34*%
%ADD44R,0.04343X0.02769*%
%ADD45R,0.02769X0.04343*%
%ADD46R,0.03556X0.05918*%
%ADD47R,0.05288X0.07808*%
%ADD48R,0.07441X0.06181*%
%ADD49R,0.14973X0.09461*%
%ADD50R,0.05600X0.09600*%
G04:AMPARAMS|DCode=51|XSize=31.23mil|YSize=32.8mil|CornerRadius=0mil|HoleSize=0mil|Usage=FLASHONLY|Rotation=135.000|XOffset=0mil|YOffset=0mil|HoleType=Round|Shape=Rectangle|*
%AMROTATEDRECTD51*
4,1,4,0.02264,0.00056,-0.00056,-0.02264,-0.02264,-0.00056,0.00056,0.02264,0.02264,0.00056,0.0*
%
%ADD51ROTATEDRECTD51*%

G04:AMPARAMS|DCode=52|XSize=31.23mil|YSize=32.8mil|CornerRadius=0mil|HoleSize=0mil|Usage=FLASHONLY|Rotation=45.000|XOffset=0mil|YOffset=0mil|HoleType=Round|Shape=Rectangle|*
%AMROTATEDRECTD52*
4,1,4,0.00056,-0.02264,-0.02264,0.00056,-0.00056,0.02264,0.02264,-0.00056,0.00056,-0.02264,0.0*
%
%ADD52ROTATEDRECTD52*%

G04:AMPARAMS|DCode=53|XSize=27.69mil|YSize=43.43mil|CornerRadius=0mil|HoleSize=0mil|Usage=FLASHONLY|Rotation=45.000|XOffset=0mil|YOffset=0mil|HoleType=Round|Shape=Rectangle|*
%AMROTATEDRECTD53*
4,1,4,0.00557,-0.02514,-0.02514,0.00557,-0.00557,0.02514,0.02514,-0.00557,0.00557,-0.02514,0.0*
%
%ADD53ROTATEDRECTD53*%

G04:AMPARAMS|DCode=54|XSize=27.69mil|YSize=43.43mil|CornerRadius=0mil|HoleSize=0mil|Usage=FLASHONLY|Rotation=315.000|XOffset=0mil|YOffset=0mil|HoleType=Round|Shape=Rectangle|*
%AMROTATEDRECTD54*
4,1,4,-0.02514,-0.00557,0.00557,0.02514,0.02514,0.00557,-0.00557,-0.02514,-0.02514,-0.00557,0.0*
%
%ADD54ROTATEDRECTD54*%

%ADD55R,0.05800X0.02900*%
%ADD56R,0.04147X0.03359*%
%ADD57R,0.06614X0.06614*%
%ADD58R,0.04658X0.15367*%
%ADD59R,0.15800X0.08800*%
%ADD60P,0.32311X4X270.0*%
G04:AMPARAMS|DCode=61|XSize=14mil|YSize=37.53mil|CornerRadius=0mil|HoleSize=0mil|Usage=FLASHONLY|Rotation=225.000|XOffset=0mil|YOffset=0mil|HoleType=Round|Shape=Round|*
%AMOVALD61*
21,1,0.02353,0.01400,0.00000,0.00000,315.0*
1,1,0.01400,-0.00832,0.00832*
1,1,0.01400,0.00832,-0.00832*
%
%ADD61OVALD61*%

G04:AMPARAMS|DCode=62|XSize=14mil|YSize=37.53mil|CornerRadius=0mil|HoleSize=0mil|Usage=FLASHONLY|Rotation=315.000|XOffset=0mil|YOffset=0mil|HoleType=Round|Shape=Round|*
%AMOVALD62*
21,1,0.02353,0.01400,0.00000,0.00000,45.0*
1,1,0.01400,-0.00832,-0.00832*
1,1,0.01400,0.00832,0.00832*
%
%ADD62OVALD62*%

G04:AMPARAMS|DCode=63|XSize=59.18mil|YSize=51.31mil|CornerRadius=0mil|HoleSize=0mil|Usage=FLASHONLY|Rotation=135.000|XOffset=0mil|YOffset=0mil|HoleType=Round|Shape=Rectangle|*
%AMROTATEDRECTD63*
4,1,4,0.03906,-0.00278,0.00278,-0.03906,-0.03906,0.00278,-0.00278,0.03906,0.03906,-0.00278,0.0*
%
%ADD63ROTATEDRECTD63*%

%ADD64R,0.08800X0.15800*%
%ADD65R,0.03280X0.03123*%
%ADD66R,0.05918X0.03556*%
%ADD67C,0.06800*%
%ADD68C,0.01981*%
%ADD69C,0.05524*%
%ADD70C,0.08800*%
%ADD71C,0.06706*%
%ADD72R,0.06706X0.06706*%
%ADD73C,0.24422*%
%ADD74R,0.07296X0.07296*%
%ADD75C,0.07296*%
%ADD76C,0.02769*%
G36*
X36500Y52900D02*
Y50500D01*
X35000Y49000D01*
X33000D01*
X32500Y49500D01*
X31500Y50500D01*
Y52900D01*
X36500D01*
D02*
G37*
G36*
X31500Y54000D02*
Y56400D01*
X33000Y57900D01*
X35000D01*
X35500Y57400D01*
X36500Y56400D01*
Y54000D01*
X31500D01*
D02*
G37*
D21*
X34000Y55400D02*
D03*
Y51500D02*
D03*
D24*
X226791Y40650D02*
D03*
X224232D02*
D03*
X221673D02*
D03*
X219114D02*
D03*
Y57350D02*
D03*
X221673D02*
D03*
X224232D02*
D03*
X226791D02*
D03*
X192791Y40650D02*
D03*
X190232D02*
D03*
X187673D02*
D03*
X185114D02*
D03*
Y57350D02*
D03*
X187673D02*
D03*
X190232D02*
D03*
X192791D02*
D03*
X226791Y92650D02*
D03*
X224232D02*
D03*
X221673D02*
D03*
X219114D02*
D03*
Y109350D02*
D03*
X221673D02*
D03*
X224232D02*
D03*
X226791D02*
D03*
X192791Y92650D02*
D03*
X190232D02*
D03*
X187673D02*
D03*
X185114D02*
D03*
Y109350D02*
D03*
X187673D02*
D03*
X190232D02*
D03*
X192791D02*
D03*
X226791Y197650D02*
D03*
X224232D02*
D03*
X221673D02*
D03*
X219114D02*
D03*
Y214350D02*
D03*
X221673D02*
D03*
X224232D02*
D03*
X226791D02*
D03*
X192791Y197650D02*
D03*
X190232D02*
D03*
X187673D02*
D03*
X185114D02*
D03*
Y214350D02*
D03*
X187673D02*
D03*
X190232D02*
D03*
X192791D02*
D03*
X192791Y144650D02*
D03*
X190232D02*
D03*
X187673D02*
D03*
X185114D02*
D03*
Y161350D02*
D03*
X187673D02*
D03*
X190232D02*
D03*
X192791D02*
D03*
X226791Y144650D02*
D03*
X224232D02*
D03*
X221673D02*
D03*
X219114D02*
D03*
Y161350D02*
D03*
X221673D02*
D03*
X224232D02*
D03*
X226791D02*
D03*
D33*
X56634Y212193D02*
D03*
Y214162D02*
D03*
Y216130D02*
D03*
Y218099D02*
D03*
X45335D02*
D03*
Y216130D02*
D03*
Y214162D02*
D03*
Y212193D02*
D03*
D34*
X48031Y209496D02*
D03*
X50000D02*
D03*
X51968D02*
D03*
X53937D02*
D03*
Y220796D02*
D03*
X51968D02*
D03*
X50000D02*
D03*
X48031D02*
D03*
D44*
X159000Y228953D02*
D03*
Y223047D02*
D03*
X235500Y47047D02*
D03*
Y52953D02*
D03*
X211953Y39047D02*
D03*
Y44953D02*
D03*
X204100Y52953D02*
D03*
Y47047D02*
D03*
X178000Y38594D02*
D03*
Y44500D02*
D03*
X177953Y59000D02*
D03*
Y53094D02*
D03*
X237953Y66953D02*
D03*
Y61047D02*
D03*
Y33094D02*
D03*
Y39000D02*
D03*
X203953Y61047D02*
D03*
Y66953D02*
D03*
Y37000D02*
D03*
Y31094D02*
D03*
X235500Y99047D02*
D03*
Y104953D02*
D03*
X211953Y91047D02*
D03*
Y96953D02*
D03*
X204100Y104953D02*
D03*
Y99047D02*
D03*
X178000Y90594D02*
D03*
Y96500D02*
D03*
X177953Y111000D02*
D03*
Y105094D02*
D03*
X237953Y118953D02*
D03*
Y113047D02*
D03*
Y85094D02*
D03*
Y91000D02*
D03*
X203953Y113047D02*
D03*
Y118953D02*
D03*
Y89000D02*
D03*
Y83094D02*
D03*
X235500Y209953D02*
D03*
Y204047D02*
D03*
X211953Y201953D02*
D03*
Y196047D02*
D03*
X204100Y209953D02*
D03*
Y204047D02*
D03*
X178000Y195594D02*
D03*
Y201500D02*
D03*
X177953Y216000D02*
D03*
Y210094D02*
D03*
X237953Y223953D02*
D03*
Y218047D02*
D03*
Y190094D02*
D03*
Y196000D02*
D03*
X203953Y218047D02*
D03*
Y223953D02*
D03*
Y194000D02*
D03*
Y188094D02*
D03*
X203953Y141000D02*
D03*
Y135094D02*
D03*
Y165047D02*
D03*
Y170953D02*
D03*
X237953Y137094D02*
D03*
Y143000D02*
D03*
Y170953D02*
D03*
Y165047D02*
D03*
X177953Y163000D02*
D03*
Y157094D02*
D03*
X178000Y142594D02*
D03*
Y148500D02*
D03*
X204100Y156953D02*
D03*
Y151047D02*
D03*
X211953Y143047D02*
D03*
Y148953D02*
D03*
X235500Y151047D02*
D03*
Y156953D02*
D03*
X100000Y178953D02*
D03*
Y173047D02*
D03*
X109000D02*
D03*
Y178953D02*
D03*
X211953Y53000D02*
D03*
Y58906D02*
D03*
Y105000D02*
D03*
Y110906D02*
D03*
Y215906D02*
D03*
Y210000D02*
D03*
Y157000D02*
D03*
Y162906D02*
D03*
X159000Y241953D02*
D03*
Y236047D02*
D03*
X37000Y213406D02*
D03*
Y207501D02*
D03*
X64000Y191547D02*
D03*
Y197453D02*
D03*
D45*
X41047Y31000D02*
D03*
X46953D02*
D03*
X220047Y32000D02*
D03*
X225953D02*
D03*
X185547Y66400D02*
D03*
X191453D02*
D03*
X185547Y32500D02*
D03*
X191453D02*
D03*
X220047Y84000D02*
D03*
X225953D02*
D03*
X185547Y118400D02*
D03*
X191453D02*
D03*
X185547Y84500D02*
D03*
X191453D02*
D03*
X185547Y223400D02*
D03*
X191453D02*
D03*
X185547Y189500D02*
D03*
X191453D02*
D03*
X185547Y136500D02*
D03*
X191453D02*
D03*
X185547Y170400D02*
D03*
X191453D02*
D03*
X220047Y136000D02*
D03*
X225953D02*
D03*
X220047Y189000D02*
D03*
X225953D02*
D03*
X123953Y131500D02*
D03*
X118047D02*
D03*
X91701Y144000D02*
D03*
X97606D02*
D03*
X96008Y160661D02*
D03*
X90102D02*
D03*
X67953Y59000D02*
D03*
X62047D02*
D03*
X43453Y148500D02*
D03*
X37547D02*
D03*
X37547Y164500D02*
D03*
X43453D02*
D03*
X37547Y156500D02*
D03*
X43453D02*
D03*
X37547Y172500D02*
D03*
X43453D02*
D03*
X117953Y88500D02*
D03*
X112047D02*
D03*
X91701Y150500D02*
D03*
X97606D02*
D03*
X76047Y63000D02*
D03*
X81953D02*
D03*
X225953Y66000D02*
D03*
X220047D02*
D03*
X225953Y118000D02*
D03*
X220047D02*
D03*
X225953Y223000D02*
D03*
X220047D02*
D03*
X225953Y170000D02*
D03*
X220047D02*
D03*
X59453Y153500D02*
D03*
X53547D02*
D03*
X135953Y202000D02*
D03*
X130047D02*
D03*
Y192000D02*
D03*
X135953D02*
D03*
X74594Y144500D02*
D03*
X80500D02*
D03*
X37547Y227500D02*
D03*
X43453D02*
D03*
X129453Y246600D02*
D03*
X123547D02*
D03*
D46*
X55520Y44000D02*
D03*
X63000D02*
D03*
X48240D02*
D03*
X40760D02*
D03*
X143740Y247000D02*
D03*
X136260D02*
D03*
D47*
X52236Y54000D02*
D03*
X41764D02*
D03*
D48*
X222953Y49000D02*
D03*
X188953D02*
D03*
X222953Y101000D02*
D03*
X188953D02*
D03*
X222953Y206000D02*
D03*
X188953D02*
D03*
X188953Y153000D02*
D03*
X222953D02*
D03*
D49*
X133000Y213299D02*
D03*
X82000Y174799D02*
D03*
D50*
X123900Y237700D02*
D03*
X133000D02*
D03*
X142100D02*
D03*
X91100Y199200D02*
D03*
X82000D02*
D03*
X72900D02*
D03*
D51*
X68569Y101731D02*
D03*
X66231Y104069D02*
D03*
X79131Y115969D02*
D03*
X81469Y113631D02*
D03*
X82831Y119669D02*
D03*
X85169Y117331D02*
D03*
X61169Y83831D02*
D03*
X58831Y86169D02*
D03*
X60485Y93715D02*
D03*
X58147Y96053D02*
D03*
X64485Y97915D02*
D03*
X62147Y100253D02*
D03*
X74831Y111669D02*
D03*
X77169Y109331D02*
D03*
D52*
X88831Y110331D02*
D03*
X91169Y112669D02*
D03*
D53*
X93912Y106912D02*
D03*
X98088Y111088D02*
D03*
X55500Y128500D02*
D03*
X59676Y132676D02*
D03*
D54*
X104912Y114088D02*
D03*
X109088Y109912D02*
D03*
X88088Y123912D02*
D03*
X83912Y128088D02*
D03*
X74588Y128912D02*
D03*
X70412Y133088D02*
D03*
X59588Y110912D02*
D03*
X55412Y115088D02*
D03*
D55*
X125300Y124200D02*
D03*
Y116800D02*
D03*
X115700D02*
D03*
Y120500D02*
D03*
Y124200D02*
D03*
X73200Y152300D02*
D03*
Y159700D02*
D03*
X82800D02*
D03*
Y156000D02*
D03*
Y152300D02*
D03*
D56*
X53196Y165404D02*
D03*
X58904D02*
D03*
X53196Y168751D02*
D03*
X58904D02*
D03*
D57*
X50984Y215146D02*
D03*
D58*
X48165Y193500D02*
D03*
X38835D02*
D03*
D59*
X157000Y60000D02*
D03*
X156500Y48000D02*
D03*
X41500Y128000D02*
D03*
D60*
X84000Y89350D02*
D03*
D61*
X101051Y87610D02*
D03*
X99659Y86218D02*
D03*
X98267Y84826D02*
D03*
X96875Y83434D02*
D03*
X95484Y82042D02*
D03*
X94092Y80650D02*
D03*
X92700Y79258D02*
D03*
X91308Y77866D02*
D03*
X89916Y76475D02*
D03*
X88524Y75083D02*
D03*
X87132Y73691D02*
D03*
X85740Y72299D02*
D03*
X66949Y91090D02*
D03*
X68341Y92482D02*
D03*
X69733Y93874D02*
D03*
X71125Y95266D02*
D03*
X72516Y96658D02*
D03*
X73908Y98050D02*
D03*
X75300Y99442D02*
D03*
X76692Y100834D02*
D03*
X78084Y102225D02*
D03*
X79476Y103617D02*
D03*
X80868Y105009D02*
D03*
X82260Y106401D02*
D03*
D62*
Y72299D02*
D03*
X80868Y73691D02*
D03*
X79476Y75083D02*
D03*
X78084Y76475D02*
D03*
X76692Y77866D02*
D03*
X75300Y79258D02*
D03*
X73908Y80650D02*
D03*
X72516Y82042D02*
D03*
X71125Y83434D02*
D03*
X69733Y84826D02*
D03*
X68341Y86218D02*
D03*
X66949Y87610D02*
D03*
X85740Y106401D02*
D03*
X87132Y105009D02*
D03*
X88524Y103617D02*
D03*
X89916Y102225D02*
D03*
X91308Y100834D02*
D03*
X92700Y99442D02*
D03*
X94092Y98050D02*
D03*
X95484Y96658D02*
D03*
X96875Y95266D02*
D03*
X98267Y93874D02*
D03*
X99659Y92482D02*
D03*
X101051Y91090D02*
D03*
D63*
X72207Y120804D02*
D03*
X65804Y127207D02*
D03*
X60793Y122196D02*
D03*
X67196Y115793D02*
D03*
D64*
X123500Y146500D02*
D03*
D65*
X55634Y200847D02*
D03*
Y197540D02*
D03*
X63000Y220654D02*
D03*
Y217347D02*
D03*
X50000Y227000D02*
D03*
Y230307D02*
D03*
D66*
X100500Y193740D02*
D03*
Y186260D02*
D03*
D67*
X61500Y238500D02*
D03*
X51500Y248500D02*
D03*
Y238500D02*
D03*
X61500Y248500D02*
D03*
X56000Y20000D02*
D03*
X46000Y10000D02*
D03*
Y20000D02*
D03*
X56000Y10000D02*
D03*
D68*
X50984Y215146D02*
D03*
X48701Y217429D02*
D03*
X53268D02*
D03*
Y212862D02*
D03*
X48701D02*
D03*
D69*
X32500Y249000D02*
D03*
Y239000D02*
D03*
D70*
X274453Y40000D02*
D03*
X254453D02*
D03*
X274453Y60000D02*
D03*
X254453D02*
D03*
X264453Y50000D02*
D03*
X274453Y92000D02*
D03*
X254453D02*
D03*
X274453Y112000D02*
D03*
X254453D02*
D03*
X264453Y102000D02*
D03*
X274453Y144000D02*
D03*
X254453D02*
D03*
X274453Y164000D02*
D03*
X254453D02*
D03*
X264453Y154000D02*
D03*
X274453Y197000D02*
D03*
X254453D02*
D03*
X274453Y217000D02*
D03*
X254453D02*
D03*
X264453Y207000D02*
D03*
D71*
X20000Y193453D02*
D03*
X10000D02*
D03*
X20000Y203453D02*
D03*
X10000D02*
D03*
X20000Y213453D02*
D03*
X10000D02*
D03*
X20000Y223453D02*
D03*
X10000D02*
D03*
Y183453D02*
D03*
X20000D02*
D03*
X10000Y173453D02*
D03*
X20000D02*
D03*
X10000Y163453D02*
D03*
X20000D02*
D03*
X10000Y153453D02*
D03*
X20000D02*
D03*
X10000Y143453D02*
D03*
X20000D02*
D03*
X10000Y133453D02*
D03*
X20000D02*
D03*
X10000Y123453D02*
D03*
X20000D02*
D03*
X10000Y113453D02*
D03*
X20000D02*
D03*
X10000Y103453D02*
D03*
X20000D02*
D03*
X10000Y93453D02*
D03*
X20000D02*
D03*
X10000Y83453D02*
D03*
X20000D02*
D03*
X10000Y73453D02*
D03*
X20000D02*
D03*
X10000Y63453D02*
D03*
X20000D02*
D03*
X10000Y53453D02*
D03*
X20000D02*
D03*
X10000Y43453D02*
D03*
X20000D02*
D03*
X10000Y33453D02*
D03*
D72*
X20000D02*
D03*
D73*
X207913Y242626D02*
D03*
X15000D02*
D03*
X207913Y14280D02*
D03*
X15000D02*
D03*
D74*
X103000Y236000D02*
D03*
D75*
X83000D02*
D03*
D76*
X71751Y89350D02*
D03*
X74813Y92412D02*
D03*
X77875Y95475D02*
D03*
X80938Y98537D02*
D03*
X84000Y101599D02*
D03*
X74813Y86288D02*
D03*
X77875Y89350D02*
D03*
X80938Y92412D02*
D03*
X84000Y95475D02*
D03*
X87062Y98537D02*
D03*
X77875Y83225D02*
D03*
X80938Y86288D02*
D03*
X84000Y89350D02*
D03*
X87062Y92412D02*
D03*
X90125Y95475D02*
D03*
X80938Y80163D02*
D03*
X84000Y83225D02*
D03*
X87062Y86288D02*
D03*
X90125Y89350D02*
D03*
X93187Y92412D02*
D03*
X84000Y77101D02*
D03*
X87062Y80163D02*
D03*
X90125Y83225D02*
D03*
X93187Y86288D02*
D03*
X96249Y89350D02*
D03*
M02*
