solid SOT-223
facet normal 0 0 -1
  outer loop
    vertex -90.55118 -45.5101430169087 71
    vertex -86.9713137265282 -44.7980633415498 71
    vertex -86.90118 -45.5101430169087 71
  endloop
endfacet
facet normal 0 0 -1
  outer loop
    vertex -90.55118 -45.5101430169087 71
    vertex -87.1790197063338 -44.1133484887761 71
    vertex -86.9713137265282 -44.7980633415498 71
  endloop
endfacet
facet normal 0 0 -1
  outer loop
    vertex -90.55118 -45.5101430169087 71
    vertex -87.5163159150957 -43.4823116663871 71
    vertex -87.1790197063338 -44.1133484887761 71
  endloop
endfacet
facet normal 0 0 -1
  outer loop
    vertex -90.55118 -45.5101430169087 71
    vertex -87.9702402486691 -42.9292032655778 71
    vertex -87.5163159150957 -43.4823116663871 71
  endloop
endfacet
facet normal 0 0 -1
  outer loop
    vertex -90.55118 -45.5101430169087 71
    vertex -88.5233486494785 -42.4752789320044 71
    vertex -87.9702402486691 -42.9292032655778 71
  endloop
endfacet
facet normal 0 0 -1
  outer loop
    vertex -90.55118 -45.5101430169087 71
    vertex -89.1543854718674 -42.1379827232425 71
    vertex -88.5233486494785 -42.4752789320044 71
  endloop
endfacet
facet normal 0 0 -1
  outer loop
    vertex -90.55118 -45.5101430169087 71
    vertex -89.8391003246411 -41.9302767434369 71
    vertex -89.1543854718674 -42.1379827232425 71
  endloop
endfacet
facet normal 0 0 -1
  outer loop
    vertex -90.55118 -45.5101430169087 71
    vertex -90.55118 -41.8601430169087 71
    vertex -89.8391003246411 -41.9302767434369 71
  endloop
endfacet
facet normal 0 0 -1
  outer loop
    vertex -90.55118 -45.5101430169087 71
    vertex -91.2632596753589 -41.9302767434369 71
    vertex -90.55118 -41.8601430169087 71
  endloop
endfacet
facet normal 0 0 -1
  outer loop
    vertex -90.55118 -45.5101430169087 71
    vertex -91.9479745281326 -42.1379827232425 71
    vertex -91.2632596753589 -41.9302767434369 71
  endloop
endfacet
facet normal 0 0 -1
  outer loop
    vertex -90.55118 -45.5101430169087 71
    vertex -92.5790113505216 -42.4752789320044 71
    vertex -91.9479745281326 -42.1379827232425 71
  endloop
endfacet
facet normal 0 0 -1
  outer loop
    vertex -90.55118 -45.5101430169087 71
    vertex -93.1321197513309 -42.9292032655778 71
    vertex -92.5790113505216 -42.4752789320044 71
  endloop
endfacet
facet normal 0 0 -1
  outer loop
    vertex -90.55118 -45.5101430169087 71
    vertex -93.5860440849043 -43.4823116663871 71
    vertex -93.1321197513309 -42.9292032655778 71
  endloop
endfacet
facet normal 0 0 -1
  outer loop
    vertex -90.55118 -45.5101430169087 71
    vertex -93.9233402936662 -44.1133484887761 71
    vertex -93.5860440849043 -43.4823116663871 71
  endloop
endfacet
facet normal 0 0 -1
  outer loop
    vertex -90.55118 -45.5101430169087 71
    vertex -94.1310462734718 -44.7980633415498 71
    vertex -93.9233402936662 -44.1133484887761 71
  endloop
endfacet
facet normal 0 0 -1
  outer loop
    vertex -90.55118 -45.5101430169087 71
    vertex -94.20118 -45.5101430169087 71
    vertex -94.1310462734718 -44.7980633415498 71
  endloop
endfacet
facet normal 0 0 -1
  outer loop
    vertex -90.55118 -45.5101430169087 71
    vertex -94.1310462734718 -46.2222226922675 71
    vertex -94.20118 -45.5101430169087 71
  endloop
endfacet
facet normal 0 0 -1
  outer loop
    vertex -90.55118 -45.5101430169087 71
    vertex -93.9233402936662 -46.9069375450413 71
    vertex -94.1310462734718 -46.2222226922675 71
  endloop
endfacet
facet normal 0 0 -1
  outer loop
    vertex -90.55118 -45.5101430169087 71
    vertex -93.5860440849043 -47.5379743674302 71
    vertex -93.9233402936662 -46.9069375450413 71
  endloop
endfacet
facet normal 0 0 -1
  outer loop
    vertex -90.55118 -45.5101430169087 71
    vertex -93.1321197513309 -48.0910827682396 71
    vertex -93.5860440849043 -47.5379743674302 71
  endloop
endfacet
facet normal 0 0 -1
  outer loop
    vertex -90.55118 -45.5101430169087 71
    vertex -92.5790113505216 -48.545007101813 71
    vertex -93.1321197513309 -48.0910827682396 71
  endloop
endfacet
facet normal 0 0 -1
  outer loop
    vertex -90.55118 -45.5101430169087 71
    vertex -91.9479745281326 -48.8823033105749 71
    vertex -92.5790113505216 -48.545007101813 71
  endloop
endfacet
facet normal 0 0 -1
  outer loop
    vertex -90.55118 -45.5101430169087 71
    vertex -91.2632596753589 -49.0900092903805 71
    vertex -91.9479745281326 -48.8823033105749 71
  endloop
endfacet
facet normal 0 0 -1
  outer loop
    vertex -90.55118 -45.5101430169087 71
    vertex -90.55118 -49.1601430169087 71
    vertex -91.2632596753589 -49.0900092903805 71
  endloop
endfacet
facet normal 0 0 -1
  outer loop
    vertex -90.55118 -45.5101430169087 71
    vertex -89.8391003246411 -49.0900092903805 71
    vertex -90.55118 -49.1601430169087 71
  endloop
endfacet
facet normal 0 0 -1
  outer loop
    vertex -90.55118 -45.5101430169087 71
    vertex -89.1543854718674 -48.8823033105749 71
    vertex -89.8391003246411 -49.0900092903805 71
  endloop
endfacet
facet normal 0 0 -1
  outer loop
    vertex -90.55118 -45.5101430169087 71
    vertex -88.5233486494785 -48.545007101813 71
    vertex -89.1543854718674 -48.8823033105749 71
  endloop
endfacet
facet normal 0 0 -1
  outer loop
    vertex -90.55118 -45.5101430169087 71
    vertex -87.9702402486691 -48.0910827682396 71
    vertex -88.5233486494785 -48.545007101813 71
  endloop
endfacet
facet normal 0 0 -1
  outer loop
    vertex -90.55118 -45.5101430169087 71
    vertex -87.5163159150957 -47.5379743674302 71
    vertex -87.9702402486691 -48.0910827682396 71
  endloop
endfacet
facet normal 0 0 -1
  outer loop
    vertex -90.55118 -45.5101430169087 71
    vertex -87.1790197063338 -46.9069375450413 71
    vertex -87.5163159150957 -47.5379743674302 71
  endloop
endfacet
facet normal 0 0 -1
  outer loop
    vertex -90.55118 -45.5101430169087 71
    vertex -86.9713137265282 -46.2222226922675 71
    vertex -87.1790197063338 -46.9069375450413 71
  endloop
endfacet
facet normal 0 0 -1
  outer loop
    vertex -90.55118 -45.5101430169087 71
    vertex -86.90118 -45.5101430169087 71
    vertex -86.9713137265282 -46.2222226922675 71
  endloop
endfacet
facet normal 0 0 1
  outer loop
    vertex -90.55118 -45.5101430169087 71.1
    vertex -86.90118 -45.5101430169087 71.1
    vertex -86.9713137265282 -44.7980633415498 71.1
  endloop
endfacet
facet normal 0 0 1
  outer loop
    vertex -90.55118 -45.5101430169087 71.1
    vertex -86.9713137265282 -44.7980633415498 71.1
    vertex -87.1790197063338 -44.1133484887761 71.1
  endloop
endfacet
facet normal 0 0 1
  outer loop
    vertex -90.55118 -45.5101430169087 71.1
    vertex -87.1790197063338 -44.1133484887761 71.1
    vertex -87.5163159150957 -43.4823116663871 71.1
  endloop
endfacet
facet normal 0 0 1
  outer loop
    vertex -90.55118 -45.5101430169087 71.1
    vertex -87.5163159150957 -43.4823116663871 71.1
    vertex -87.9702402486691 -42.9292032655778 71.1
  endloop
endfacet
facet normal 0 0 1
  outer loop
    vertex -90.55118 -45.5101430169087 71.1
    vertex -87.9702402486691 -42.9292032655778 71.1
    vertex -88.5233486494785 -42.4752789320044 71.1
  endloop
endfacet
facet normal 0 0 1
  outer loop
    vertex -90.55118 -45.5101430169087 71.1
    vertex -88.5233486494785 -42.4752789320044 71.1
    vertex -89.1543854718674 -42.1379827232425 71.1
  endloop
endfacet
facet normal 0 0 1
  outer loop
    vertex -90.55118 -45.5101430169087 71.1
    vertex -89.1543854718674 -42.1379827232425 71.1
    vertex -89.8391003246411 -41.9302767434369 71.1
  endloop
endfacet
facet normal 0 0 1
  outer loop
    vertex -90.55118 -45.5101430169087 71.1
    vertex -89.8391003246411 -41.9302767434369 71.1
    vertex -90.55118 -41.8601430169087 71.1
  endloop
endfacet
facet normal 0 0 1
  outer loop
    vertex -90.55118 -45.5101430169087 71.1
    vertex -90.55118 -41.8601430169087 71.1
    vertex -91.2632596753589 -41.9302767434369 71.1
  endloop
endfacet
facet normal 0 0 1
  outer loop
    vertex -90.55118 -45.5101430169087 71.1
    vertex -91.2632596753589 -41.9302767434369 71.1
    vertex -91.9479745281326 -42.1379827232425 71.1
  endloop
endfacet
facet normal 0 0 1
  outer loop
    vertex -90.55118 -45.5101430169087 71.1
    vertex -91.9479745281326 -42.1379827232425 71.1
    vertex -92.5790113505216 -42.4752789320044 71.1
  endloop
endfacet
facet normal 0 0 1
  outer loop
    vertex -90.55118 -45.5101430169087 71.1
    vertex -92.5790113505216 -42.4752789320044 71.1
    vertex -93.1321197513309 -42.9292032655778 71.1
  endloop
endfacet
facet normal 0 0 1
  outer loop
    vertex -90.55118 -45.5101430169087 71.1
    vertex -93.1321197513309 -42.9292032655778 71.1
    vertex -93.5860440849043 -43.4823116663871 71.1
  endloop
endfacet
facet normal 0 0 1
  outer loop
    vertex -90.55118 -45.5101430169087 71.1
    vertex -93.5860440849043 -43.4823116663871 71.1
    vertex -93.9233402936662 -44.1133484887761 71.1
  endloop
endfacet
facet normal 0 0 1
  outer loop
    vertex -90.55118 -45.5101430169087 71.1
    vertex -93.9233402936662 -44.1133484887761 71.1
    vertex -94.1310462734718 -44.7980633415498 71.1
  endloop
endfacet
facet normal 0 0 1
  outer loop
    vertex -90.55118 -45.5101430169087 71.1
    vertex -94.1310462734718 -44.7980633415498 71.1
    vertex -94.20118 -45.5101430169087 71.1
  endloop
endfacet
facet normal 0 0 1
  outer loop
    vertex -90.55118 -45.5101430169087 71.1
    vertex -94.20118 -45.5101430169087 71.1
    vertex -94.1310462734718 -46.2222226922675 71.1
  endloop
endfacet
facet normal 0 0 1
  outer loop
    vertex -90.55118 -45.5101430169087 71.1
    vertex -94.1310462734718 -46.2222226922675 71.1
    vertex -93.9233402936662 -46.9069375450413 71.1
  endloop
endfacet
facet normal 0 0 1
  outer loop
    vertex -90.55118 -45.5101430169087 71.1
    vertex -93.9233402936662 -46.9069375450413 71.1
    vertex -93.5860440849043 -47.5379743674302 71.1
  endloop
endfacet
facet normal 0 0 1
  outer loop
    vertex -90.55118 -45.5101430169087 71.1
    vertex -93.5860440849043 -47.5379743674302 71.1
    vertex -93.1321197513309 -48.0910827682396 71.1
  endloop
endfacet
facet normal 0 0 1
  outer loop
    vertex -90.55118 -45.5101430169087 71.1
    vertex -93.1321197513309 -48.0910827682396 71.1
    vertex -92.5790113505216 -48.545007101813 71.1
  endloop
endfacet
facet normal 0 0 1
  outer loop
    vertex -90.55118 -45.5101430169087 71.1
    vertex -92.5790113505216 -48.545007101813 71.1
    vertex -91.9479745281326 -48.8823033105749 71.1
  endloop
endfacet
facet normal 0 0 1
  outer loop
    vertex -90.55118 -45.5101430169087 71.1
    vertex -91.9479745281326 -48.8823033105749 71.1
    vertex -91.2632596753589 -49.0900092903805 71.1
  endloop
endfacet
facet normal 0 0 1
  outer loop
    vertex -90.55118 -45.5101430169087 71.1
    vertex -91.2632596753589 -49.0900092903805 71.1
    vertex -90.55118 -49.1601430169087 71.1
  endloop
endfacet
facet normal 0 0 1
  outer loop
    vertex -90.55118 -45.5101430169087 71.1
    vertex -90.55118 -49.1601430169087 71.1
    vertex -89.8391003246411 -49.0900092903805 71.1
  endloop
endfacet
facet normal 0 0 1
  outer loop
    vertex -90.55118 -45.5101430169087 71.1
    vertex -89.8391003246411 -49.0900092903805 71.1
    vertex -89.1543854718674 -48.8823033105749 71.1
  endloop
endfacet
facet normal 0 0 1
  outer loop
    vertex -90.55118 -45.5101430169087 71.1
    vertex -89.1543854718674 -48.8823033105749 71.1
    vertex -88.5233486494785 -48.545007101813 71.1
  endloop
endfacet
facet normal 0 0 1
  outer loop
    vertex -90.55118 -45.5101430169087 71.1
    vertex -88.5233486494785 -48.545007101813 71.1
    vertex -87.9702402486691 -48.0910827682396 71.1
  endloop
endfacet
facet normal 0 0 1
  outer loop
    vertex -90.55118 -45.5101430169087 71.1
    vertex -87.9702402486691 -48.0910827682396 71.1
    vertex -87.5163159150957 -47.5379743674302 71.1
  endloop
endfacet
facet normal 0 0 1
  outer loop
    vertex -90.55118 -45.5101430169087 71.1
    vertex -87.5163159150957 -47.5379743674302 71.1
    vertex -87.1790197063338 -46.9069375450413 71.1
  endloop
endfacet
facet normal 0 0 1
  outer loop
    vertex -90.55118 -45.5101430169087 71.1
    vertex -87.1790197063338 -46.9069375450413 71.1
    vertex -86.9713137265282 -46.2222226922675 71.1
  endloop
endfacet
facet normal 0 0 1
  outer loop
    vertex -90.55118 -45.5101430169087 71.1
    vertex -86.9713137265282 -46.2222226922675 71.1
    vertex -86.90118 -45.5101430169087 71.1
  endloop
endfacet
facet normal .995184726672199 9.80171403295409E-02 0
  outer loop
    vertex -86.90118 -45.5101430169087 71
    vertex -86.9713137265282 -44.7980633415498 71.1
    vertex -86.90118 -45.5101430169087 71.1
  endloop
endfacet
facet normal .956940335732202 .290284677254485 0
  outer loop
    vertex -86.9713137265282 -44.7980633415498 71
    vertex -87.1790197063338 -44.1133484887761 71.1
    vertex -86.9713137265282 -44.7980633415498 71.1
  endloop
endfacet
facet normal .881921264348369 .471396736825972 0
  outer loop
    vertex -87.1790197063338 -44.1133484887761 71
    vertex -87.5163159150957 -43.4823116663871 71.1
    vertex -87.1790197063338 -44.1133484887761 71.1
  endloop
endfacet
facet normal .773010453362705 .634393284163684 0
  outer loop
    vertex -87.5163159150957 -43.4823116663871 71
    vertex -87.9702402486691 -42.9292032655778 71.1
    vertex -87.5163159150957 -43.4823116663871 71.1
  endloop
endfacet
facet normal .634393284163611 .773010453362765 0
  outer loop
    vertex -87.9702402486691 -42.9292032655778 71
    vertex -88.5233486494785 -42.4752789320044 71.1
    vertex -87.9702402486691 -42.9292032655778 71.1
  endloop
endfacet
facet normal .471396736826034 .881921264348336 0
  outer loop
    vertex -88.5233486494785 -42.4752789320044 71
    vertex -89.1543854718674 -42.1379827232425 71.1
    vertex -88.5233486494785 -42.4752789320044 71.1
  endloop
endfacet
facet normal .290284677254479 .956940335732204 0
  outer loop
    vertex -89.1543854718674 -42.1379827232425 71
    vertex -89.8391003246411 -41.9302767434369 71.1
    vertex -89.1543854718674 -42.1379827232425 71.1
  endloop
endfacet
facet normal .09801714032954 .995184726672199 0
  outer loop
    vertex -89.8391003246411 -41.9302767434369 71
    vertex -90.55118 -41.8601430169087 71.1
    vertex -89.8391003246411 -41.9302767434369 71.1
  endloop
endfacet
facet normal -9.80171403295419E-02 .995184726672199 0
  outer loop
    vertex -90.55118 -41.8601430169087 71
    vertex -91.2632596753589 -41.9302767434369 71.1
    vertex -90.55118 -41.8601430169087 71.1
  endloop
endfacet
facet normal -.290284677254473 .956940335732206 0
  outer loop
    vertex -91.2632596753589 -41.9302767434369 71
    vertex -91.9479745281326 -42.1379827232425 71.1
    vertex -91.2632596753589 -41.9302767434369 71.1
  endloop
endfacet
facet normal -.471396736825976 .881921264348366 0
  outer loop
    vertex -91.9479745281326 -42.1379827232425 71
    vertex -92.5790113505216 -42.4752789320044 71.1
    vertex -91.9479745281326 -42.1379827232425 71.1
  endloop
endfacet
facet normal -.63439328416368 .773010453362709 0
  outer loop
    vertex -92.5790113505216 -42.4752789320044 71
    vertex -93.1321197513309 -42.9292032655778 71.1
    vertex -92.5790113505216 -42.4752789320044 71.1
  endloop
endfacet
facet normal -.773010453362705 .634393284163684 0
  outer loop
    vertex -93.1321197513309 -42.9292032655778 71
    vertex -93.5860440849043 -43.4823116663871 71.1
    vertex -93.1321197513309 -42.9292032655778 71.1
  endloop
endfacet
facet normal -.881921264348369 .471396736825972 0
  outer loop
    vertex -93.5860440849043 -43.4823116663871 71
    vertex -93.9233402936662 -44.1133484887761 71.1
    vertex -93.5860440849043 -43.4823116663871 71.1
  endloop
endfacet
facet normal -.956940335732207 .290284677254467 0
  outer loop
    vertex -93.9233402936662 -44.1133484887761 71
    vertex -94.1310462734718 -44.7980633415498 71.1
    vertex -93.9233402936662 -44.1133484887761 71.1
  endloop
endfacet
facet normal -.995184726672199 9.80171403295409E-02 0
  outer loop
    vertex -94.1310462734718 -44.7980633415498 71
    vertex -94.20118 -45.5101430169087 71.1
    vertex -94.1310462734718 -44.7980633415498 71.1
  endloop
endfacet
facet normal -.995184726672198 -9.80171403295545E-02 0
  outer loop
    vertex -94.20118 -45.5101430169087 71
    vertex -94.1310462734718 -46.2222226922675 71.1
    vertex -94.20118 -45.5101430169087 71.1
  endloop
endfacet
facet normal -.956940335732219 -.290284677254428 0
  outer loop
    vertex -94.1310462734718 -46.2222226922675 71
    vertex -93.9233402936662 -46.9069375450413 71.1
    vertex -94.1310462734718 -46.2222226922675 71.1
  endloop
endfacet
facet normal -.881921264348338 -.47139673682603 0
  outer loop
    vertex -93.9233402936662 -46.9069375450413 71
    vertex -93.5860440849043 -47.5379743674302 71.1
    vertex -93.9233402936662 -46.9069375450413 71.1
  endloop
endfacet
facet normal -.773010453362761 -.634393284163616 0
  outer loop
    vertex -93.5860440849043 -47.5379743674302 71
    vertex -93.1321197513309 -48.0910827682396 71.1
    vertex -93.5860440849043 -47.5379743674302 71.1
  endloop
endfacet
facet normal -.63439328416368 -.773010453362709 0
  outer loop
    vertex -93.1321197513309 -48.0910827682396 71
    vertex -92.5790113505216 -48.545007101813 71.1
    vertex -93.1321197513309 -48.0910827682396 71.1
  endloop
endfacet
facet normal -.471396736825976 -.881921264348366 0
  outer loop
    vertex -92.5790113505216 -48.545007101813 71
    vertex -91.9479745281326 -48.8823033105749 71.1
    vertex -92.5790113505216 -48.545007101813 71.1
  endloop
endfacet
facet normal -.290284677254473 -.956940335732206 0
  outer loop
    vertex -91.9479745281326 -48.8823033105749 71
    vertex -91.2632596753589 -49.0900092903805 71.1
    vertex -91.9479745281326 -48.8823033105749 71.1
  endloop
endfacet
facet normal -9.80171403295419E-02 -.995184726672199 0
  outer loop
    vertex -91.2632596753589 -49.0900092903805 71
    vertex -90.55118 -49.1601430169087 71.1
    vertex -91.2632596753589 -49.0900092903805 71.1
  endloop
endfacet
facet normal .09801714032954 -.995184726672199 0
  outer loop
    vertex -90.55118 -49.1601430169087 71
    vertex -89.8391003246411 -49.0900092903805 71.1
    vertex -90.55118 -49.1601430169087 71.1
  endloop
endfacet
facet normal .290284677254479 -.956940335732204 0
  outer loop
    vertex -89.8391003246411 -49.0900092903805 71
    vertex -89.1543854718674 -48.8823033105749 71.1
    vertex -89.8391003246411 -49.0900092903805 71.1
  endloop
endfacet
facet normal .471396736826034 -.881921264348336 0
  outer loop
    vertex -89.1543854718674 -48.8823033105749 71
    vertex -88.5233486494785 -48.545007101813 71.1
    vertex -89.1543854718674 -48.8823033105749 71.1
  endloop
endfacet
facet normal .634393284163611 -.773010453362765 0
  outer loop
    vertex -88.5233486494785 -48.545007101813 71
    vertex -87.9702402486691 -48.0910827682396 71.1
    vertex -88.5233486494785 -48.545007101813 71.1
  endloop
endfacet
facet normal .773010453362761 -.634393284163616 0
  outer loop
    vertex -87.9702402486691 -48.0910827682396 71
    vertex -87.5163159150957 -47.5379743674302 71.1
    vertex -87.9702402486691 -48.0910827682396 71.1
  endloop
endfacet
facet normal .881921264348338 -.47139673682603 0
  outer loop
    vertex -87.5163159150957 -47.5379743674302 71
    vertex -87.1790197063338 -46.9069375450413 71.1
    vertex -87.5163159150957 -47.5379743674302 71.1
  endloop
endfacet
facet normal .956940335732214 -.290284677254446 0
  outer loop
    vertex -87.1790197063338 -46.9069375450413 71
    vertex -86.9713137265282 -46.2222226922675 71.1
    vertex -87.1790197063338 -46.9069375450413 71.1
  endloop
endfacet
facet normal .995184726672198 -9.80171403295545E-02 0
  outer loop
    vertex -86.9713137265282 -46.2222226922675 71
    vertex -86.90118 -45.5101430169087 71.1
    vertex -86.9713137265282 -46.2222226922675 71.1
  endloop
endfacet
facet normal .995184726672199 9.80171403295409E-02 0
  outer loop
    vertex -86.9713137265282 -44.7980633415498 71
    vertex -86.9713137265282 -44.7980633415498 71.1
    vertex -86.90118 -45.5101430169087 71
  endloop
endfacet
facet normal .956940335732202 .290284677254485 0
  outer loop
    vertex -87.1790197063338 -44.1133484887761 71
    vertex -87.1790197063338 -44.1133484887761 71.1
    vertex -86.9713137265282 -44.7980633415498 71
  endloop
endfacet
facet normal .881921264348369 .471396736825972 0
  outer loop
    vertex -87.5163159150957 -43.4823116663871 71
    vertex -87.5163159150957 -43.4823116663871 71.1
    vertex -87.1790197063338 -44.1133484887761 71
  endloop
endfacet
facet normal .773010453362705 .634393284163684 0
  outer loop
    vertex -87.9702402486691 -42.9292032655778 71
    vertex -87.9702402486691 -42.9292032655778 71.1
    vertex -87.5163159150957 -43.4823116663871 71
  endloop
endfacet
facet normal .634393284163611 .773010453362765 0
  outer loop
    vertex -88.5233486494785 -42.4752789320044 71
    vertex -88.5233486494785 -42.4752789320044 71.1
    vertex -87.9702402486691 -42.9292032655778 71
  endloop
endfacet
facet normal .471396736826034 .881921264348336 0
  outer loop
    vertex -89.1543854718674 -42.1379827232425 71
    vertex -89.1543854718674 -42.1379827232425 71.1
    vertex -88.5233486494785 -42.4752789320044 71
  endloop
endfacet
facet normal .290284677254479 .956940335732204 0
  outer loop
    vertex -89.8391003246411 -41.9302767434369 71
    vertex -89.8391003246411 -41.9302767434369 71.1
    vertex -89.1543854718674 -42.1379827232425 71
  endloop
endfacet
facet normal .09801714032954 .995184726672199 0
  outer loop
    vertex -90.55118 -41.8601430169087 71
    vertex -90.55118 -41.8601430169087 71.1
    vertex -89.8391003246411 -41.9302767434369 71
  endloop
endfacet
facet normal -9.80171403295419E-02 .995184726672199 0
  outer loop
    vertex -91.2632596753589 -41.9302767434369 71
    vertex -91.2632596753589 -41.9302767434369 71.1
    vertex -90.55118 -41.8601430169087 71
  endloop
endfacet
facet normal -.290284677254473 .956940335732206 0
  outer loop
    vertex -91.9479745281326 -42.1379827232425 71
    vertex -91.9479745281326 -42.1379827232425 71.1
    vertex -91.2632596753589 -41.9302767434369 71
  endloop
endfacet
facet normal -.471396736825976 .881921264348366 0
  outer loop
    vertex -92.5790113505216 -42.4752789320044 71
    vertex -92.5790113505216 -42.4752789320044 71.1
    vertex -91.9479745281326 -42.1379827232425 71
  endloop
endfacet
facet normal -.63439328416368 .773010453362709 0
  outer loop
    vertex -93.1321197513309 -42.9292032655778 71
    vertex -93.1321197513309 -42.9292032655778 71.1
    vertex -92.5790113505216 -42.4752789320044 71
  endloop
endfacet
facet normal -.773010453362705 .634393284163684 0
  outer loop
    vertex -93.5860440849043 -43.4823116663871 71
    vertex -93.5860440849043 -43.4823116663871 71.1
    vertex -93.1321197513309 -42.9292032655778 71
  endloop
endfacet
facet normal -.881921264348369 .471396736825972 0
  outer loop
    vertex -93.9233402936662 -44.1133484887761 71
    vertex -93.9233402936662 -44.1133484887761 71.1
    vertex -93.5860440849043 -43.4823116663871 71
  endloop
endfacet
facet normal -.956940335732207 .290284677254467 0
  outer loop
    vertex -94.1310462734718 -44.7980633415498 71
    vertex -94.1310462734718 -44.7980633415498 71.1
    vertex -93.9233402936662 -44.1133484887761 71
  endloop
endfacet
facet normal -.995184726672199 9.80171403295409E-02 0
  outer loop
    vertex -94.20118 -45.5101430169087 71
    vertex -94.20118 -45.5101430169087 71.1
    vertex -94.1310462734718 -44.7980633415498 71
  endloop
endfacet
facet normal -.995184726672198 -9.80171403295545E-02 0
  outer loop
    vertex -94.1310462734718 -46.2222226922675 71
    vertex -94.1310462734718 -46.2222226922675 71.1
    vertex -94.20118 -45.5101430169087 71
  endloop
endfacet
facet normal -.956940335732219 -.290284677254428 0
  outer loop
    vertex -93.9233402936662 -46.9069375450413 71
    vertex -93.9233402936662 -46.9069375450413 71.1
    vertex -94.1310462734718 -46.2222226922675 71
  endloop
endfacet
facet normal -.881921264348338 -.47139673682603 0
  outer loop
    vertex -93.5860440849043 -47.5379743674302 71
    vertex -93.5860440849043 -47.5379743674302 71.1
    vertex -93.9233402936662 -46.9069375450413 71
  endloop
endfacet
facet normal -.773010453362761 -.634393284163616 0
  outer loop
    vertex -93.1321197513309 -48.0910827682396 71
    vertex -93.1321197513309 -48.0910827682396 71.1
    vertex -93.5860440849043 -47.5379743674302 71
  endloop
endfacet
facet normal -.63439328416368 -.773010453362709 0
  outer loop
    vertex -92.5790113505216 -48.545007101813 71
    vertex -92.5790113505216 -48.545007101813 71.1
    vertex -93.1321197513309 -48.0910827682396 71
  endloop
endfacet
facet normal -.471396736825976 -.881921264348366 0
  outer loop
    vertex -91.9479745281326 -48.8823033105749 71
    vertex -91.9479745281326 -48.8823033105749 71.1
    vertex -92.5790113505216 -48.545007101813 71
  endloop
endfacet
facet normal -.290284677254473 -.956940335732206 0
  outer loop
    vertex -91.2632596753589 -49.0900092903805 71
    vertex -91.2632596753589 -49.0900092903805 71.1
    vertex -91.9479745281326 -48.8823033105749 71
  endloop
endfacet
facet normal -9.80171403295419E-02 -.995184726672199 0
  outer loop
    vertex -90.55118 -49.1601430169087 71
    vertex -90.55118 -49.1601430169087 71.1
    vertex -91.2632596753589 -49.0900092903805 71
  endloop
endfacet
facet normal .09801714032954 -.995184726672199 0
  outer loop
    vertex -89.8391003246411 -49.0900092903805 71
    vertex -89.8391003246411 -49.0900092903805 71.1
    vertex -90.55118 -49.1601430169087 71
  endloop
endfacet
facet normal .290284677254479 -.956940335732204 0
  outer loop
    vertex -89.1543854718674 -48.8823033105749 71
    vertex -89.1543854718674 -48.8823033105749 71.1
    vertex -89.8391003246411 -49.0900092903805 71
  endloop
endfacet
facet normal .471396736826034 -.881921264348336 0
  outer loop
    vertex -88.5233486494785 -48.545007101813 71
    vertex -88.5233486494785 -48.545007101813 71.1
    vertex -89.1543854718674 -48.8823033105749 71
  endloop
endfacet
facet normal .634393284163611 -.773010453362765 0
  outer loop
    vertex -87.9702402486691 -48.0910827682396 71
    vertex -87.9702402486691 -48.0910827682396 71.1
    vertex -88.5233486494785 -48.545007101813 71
  endloop
endfacet
facet normal .773010453362761 -.634393284163616 0
  outer loop
    vertex -87.5163159150957 -47.5379743674302 71
    vertex -87.5163159150957 -47.5379743674302 71.1
    vertex -87.9702402486691 -48.0910827682396 71
  endloop
endfacet
facet normal .881921264348338 -.47139673682603 0
  outer loop
    vertex -87.1790197063338 -46.9069375450413 71
    vertex -87.1790197063338 -46.9069375450413 71.1
    vertex -87.5163159150957 -47.5379743674302 71
  endloop
endfacet
facet normal .956940335732214 -.290284677254446 0
  outer loop
    vertex -86.9713137265282 -46.2222226922675 71
    vertex -86.9713137265282 -46.2222226922675 71.1
    vertex -87.1790197063338 -46.9069375450413 71
  endloop
endfacet
facet normal .995184726672198 -9.80171403295545E-02 0
  outer loop
    vertex -86.90118 -45.5101430169087 71
    vertex -86.90118 -45.5101430169087 71.1
    vertex -86.9713137265282 -46.2222226922675 71
  endloop
endfacet
facet normal 0 0 1
  outer loop
    vertex 119.363713973953 60.3637139739531 71
    vertex -119.363713973953 -60.3637139739531 71
    vertex 119.363713973953 -60.3637139739531 71
  endloop
endfacet
facet normal 0 0 1
  outer loop
    vertex 119.363713973953 60.3637139739531 71
    vertex -119.363713973953 60.3637139739531 71
    vertex -119.363713973953 -60.3637139739531 71
  endloop
endfacet
facet normal 0 0 -1
  outer loop
    vertex -119.363713973953 -60.3637139739531 4
    vertex 119.363713973953 60.3637139739531 4
    vertex 119.363713973953 -60.3637139739531 4
  endloop
endfacet
facet normal 0 0 -1
  outer loop
    vertex 119.363713973953 60.3637139739531 4
    vertex -119.363713973953 -60.3637139739531 4
    vertex -119.363713973953 60.3637139739531 4
  endloop
endfacet
facet normal .933512446470884 0 .35854499338848
  outer loop
    vertex 119.363713973953 60.3637139739531 71
    vertex 132 -73 38.1
    vertex 132 73 38.1
  endloop
endfacet
facet normal 0 -.933512446470885 .358544993388477
  outer loop
    vertex 119.363713973953 -60.3637139739531 71
    vertex -132 -73 38.1
    vertex 132 -73 38.1
  endloop
endfacet
facet normal -.933512446470884 0 .35854499338848
  outer loop
    vertex -119.363713973953 -60.3637139739531 71
    vertex -132 73 38.1
    vertex -132 -73 38.1
  endloop
endfacet
facet normal 0 .933512446470885 .358544993388477
  outer loop
    vertex -119.363713973953 60.3637139739531 71
    vertex 132 73 38.1
    vertex -132 73 38.1
  endloop
endfacet
facet normal 1 0 0
  outer loop
    vertex 132 73 38.1
    vertex 132 -73 30.9
    vertex 132 73 30.9
  endloop
endfacet
facet normal 0 -1 0
  outer loop
    vertex 132 -73 38.1
    vertex -132 -73 30.9
    vertex 132 -73 30.9
  endloop
endfacet
facet normal -1 0 0
  outer loop
    vertex -132 -73 38.1
    vertex -132 73 30.9
    vertex -132 -73 30.9
  endloop
endfacet
facet normal 0 1 0
  outer loop
    vertex -132 73 38.1
    vertex 132 73 30.9
    vertex -132 73 30.9
  endloop
endfacet
facet normal .905110648297169 0 -.425176098033601
  outer loop
    vertex 132 73 30.9
    vertex 119.363713973953 -60.3637139739531 4
    vertex 119.363713973953 60.3637139739531 4
  endloop
endfacet
facet normal 0 -.90511064829717 -.425176098033598
  outer loop
    vertex 132 -73 30.9
    vertex -119.363713973953 -60.3637139739531 4
    vertex 119.363713973953 -60.3637139739531 4
  endloop
endfacet
facet normal -.905110648297169 0 -.425176098033601
  outer loop
    vertex -132 -73 30.9
    vertex -119.363713973953 60.3637139739531 4
    vertex -119.363713973953 -60.3637139739531 4
  endloop
endfacet
facet normal 0 .90511064829717 -.425176098033598
  outer loop
    vertex -132 73 30.9
    vertex 119.363713973953 60.3637139739531 4
    vertex -119.363713973953 60.3637139739531 4
  endloop
endfacet
facet normal .933512446470884 0 .35854499338848
  outer loop
    vertex 119.363713973953 60.3637139739531 71
    vertex 119.363713973953 -60.3637139739531 71
    vertex 132 -73 38.1
  endloop
endfacet
facet normal 0 -.933512446470885 .358544993388477
  outer loop
    vertex 119.363713973953 -60.3637139739531 71
    vertex -119.363713973953 -60.3637139739531 71
    vertex -132 -73 38.1
  endloop
endfacet
facet normal -.933512446470884 0 .35854499338848
  outer loop
    vertex -119.363713973953 -60.3637139739531 71
    vertex -119.363713973953 60.3637139739531 71
    vertex -132 73 38.1
  endloop
endfacet
facet normal 0 .933512446470885 .358544993388477
  outer loop
    vertex -119.363713973953 60.3637139739531 71
    vertex 119.363713973953 60.3637139739531 71
    vertex 132 73 38.1
  endloop
endfacet
facet normal 1 0 0
  outer loop
    vertex 132 73 38.1
    vertex 132 -73 38.1
    vertex 132 -73 30.9
  endloop
endfacet
facet normal 0 -1 0
  outer loop
    vertex 132 -73 38.1
    vertex -132 -73 38.1
    vertex -132 -73 30.9
  endloop
endfacet
facet normal -1 0 0
  outer loop
    vertex -132 -73 38.1
    vertex -132 73 38.1
    vertex -132 73 30.9
  endloop
endfacet
facet normal 0 1 0
  outer loop
    vertex -132 73 38.1
    vertex 132 73 38.1
    vertex 132 73 30.9
  endloop
endfacet
facet normal .905110648297169 0 -.425176098033601
  outer loop
    vertex 132 73 30.9
    vertex 132 -73 30.9
    vertex 119.363713973953 -60.3637139739531 4
  endloop
endfacet
facet normal 0 -.90511064829717 -.425176098033598
  outer loop
    vertex 132 -73 30.9
    vertex -132 -73 30.9
    vertex -119.363713973953 -60.3637139739531 4
  endloop
endfacet
facet normal -.905110648297169 0 -.425176098033601
  outer loop
    vertex -132 -73 30.9
    vertex -132 73 30.9
    vertex -119.363713973953 60.3637139739531 4
  endloop
endfacet
facet normal 0 .90511064829717 -.425176098033598
  outer loop
    vertex -132 73 30.9
    vertex 132 73 30.9
    vertex 119.363713973953 60.3637139739531 4
  endloop
endfacet
facet normal 0 -1 0
  outer loop
    vertex 73.55118 -143.5 6
    vertex 73.55118 -143.5 0
    vertex 107.55118 -143.5 0
  endloop
endfacet
facet normal 0 -1 0
  outer loop
    vertex 73.55118 -143.5 6
    vertex 107.55118 -143.5 0
    vertex 107.55118 -143.5 6
  endloop
endfacet
facet normal 0 1 0
  outer loop
    vertex 107.55118 -73 37.5
    vertex 107.55118 -73 31.5
    vertex 73.55118 -73 31.5
  endloop
endfacet
facet normal 0 1 0
  outer loop
    vertex 107.55118 -73 37.5
    vertex 73.55118 -73 31.5
    vertex 73.55118 -73 37.5
  endloop
endfacet
facet normal -1 0 0
  outer loop
    vertex 73.55118 -73 31.5
    vertex 73.55118 -86.1585334262042 31.5
    vertex 73.55118 -89.1585334262042 37.5
  endloop
endfacet
facet normal -1 0 0
  outer loop
    vertex 73.55118 -86.1585334262042 31.5
    vertex 73.55118 -99.9625 0
    vertex 73.55118 -102.9625 6
  endloop
endfacet
facet normal -1 0 0
  outer loop
    vertex 73.55118 -99.9625 0
    vertex 73.55118 -143.5 0
    vertex 73.55118 -143.5 6
  endloop
endfacet
facet normal -1 0 0
  outer loop
    vertex 73.55118 -73 31.5
    vertex 73.55118 -89.1585334262042 37.5
    vertex 73.55118 -73 37.5
  endloop
endfacet
facet normal -1 0 0
  outer loop
    vertex 73.55118 -86.1585334262042 31.5
    vertex 73.55118 -102.9625 6
    vertex 73.55118 -89.1585334262042 37.5
  endloop
endfacet
facet normal -1 0 0
  outer loop
    vertex 73.55118 -99.9625 0
    vertex 73.55118 -143.5 6
    vertex 73.55118 -102.9625 6
  endloop
endfacet
facet normal 1 0 0
  outer loop
    vertex 107.55118 -73 31.5
    vertex 107.55118 -89.1585334262042 37.5
    vertex 107.55118 -86.1585334262042 31.5
  endloop
endfacet
facet normal 1 0 0
  outer loop
    vertex 107.55118 -86.1585334262042 31.5
    vertex 107.55118 -102.9625 6
    vertex 107.55118 -99.9625 0
  endloop
endfacet
facet normal 1 0 0
  outer loop
    vertex 107.55118 -99.9625 0
    vertex 107.55118 -143.5 6
    vertex 107.55118 -143.5 0
  endloop
endfacet
facet normal 1 0 0
  outer loop
    vertex 107.55118 -73 31.5
    vertex 107.55118 -73 37.5
    vertex 107.55118 -89.1585334262042 37.5
  endloop
endfacet
facet normal 1 0 0
  outer loop
    vertex 107.55118 -86.1585334262042 31.5
    vertex 107.55118 -89.1585334262042 37.5
    vertex 107.55118 -102.9625 6
  endloop
endfacet
facet normal 1 0 0
  outer loop
    vertex 107.55118 -99.9625 0
    vertex 107.55118 -102.9625 6
    vertex 107.55118 -143.5 6
  endloop
endfacet
facet normal 0 0 1
  outer loop
    vertex 73.55118 -73 37.5
    vertex 73.55118 -89.1585334262042 37.5
    vertex 107.55118 -89.1585334262042 37.5
  endloop
endfacet
facet normal 0 -.915914614826581 .401373165952927
  outer loop
    vertex 73.55118 -89.1585334262042 37.5
    vertex 73.55118 -102.9625 6
    vertex 107.55118 -102.9625 6
  endloop
endfacet
facet normal 0 0 1
  outer loop
    vertex 73.55118 -102.9625 6
    vertex 73.55118 -143.5 6
    vertex 107.55118 -143.5 6
  endloop
endfacet
facet normal 0 0 1
  outer loop
    vertex 73.55118 -73 37.5
    vertex 107.55118 -89.1585334262042 37.5
    vertex 107.55118 -73 37.5
  endloop
endfacet
facet normal 0 -.915914614826581 .401373165952927
  outer loop
    vertex 73.55118 -89.1585334262042 37.5
    vertex 107.55118 -102.9625 6
    vertex 107.55118 -89.1585334262042 37.5
  endloop
endfacet
facet normal 0 0 1
  outer loop
    vertex 73.55118 -102.9625 6
    vertex 107.55118 -143.5 6
    vertex 107.55118 -102.9625 6
  endloop
endfacet
facet normal 0 0 -1
  outer loop
    vertex 73.55118 -73 31.5
    vertex 107.55118 -86.1585334262042 31.5
    vertex 73.55118 -86.1585334262042 31.5
  endloop
endfacet
facet normal 0 .915914614826581 -.401373165952927
  outer loop
    vertex 73.55118 -86.1585334262042 31.5
    vertex 107.55118 -99.9625 0
    vertex 73.55118 -99.9625 0
  endloop
endfacet
facet normal 0 0 -1
  outer loop
    vertex 73.55118 -99.9625 0
    vertex 107.55118 -143.5 0
    vertex 73.55118 -143.5 0
  endloop
endfacet
facet normal 0 0 -1
  outer loop
    vertex 73.55118 -73 31.5
    vertex 107.55118 -73 31.5
    vertex 107.55118 -86.1585334262042 31.5
  endloop
endfacet
facet normal 0 .915914614826581 -.401373165952927
  outer loop
    vertex 73.55118 -86.1585334262042 31.5
    vertex 107.55118 -86.1585334262042 31.5
    vertex 107.55118 -99.9625 0
  endloop
endfacet
facet normal 0 0 -1
  outer loop
    vertex 73.55118 -99.9625 0
    vertex 107.55118 -99.9625 0
    vertex 107.55118 -143.5 0
  endloop
endfacet
facet normal 0 -1 0
  outer loop
    vertex -17 -143.5 6
    vertex -17 -143.5 0
    vertex 17 -143.5 0
  endloop
endfacet
facet normal 0 -1 0
  outer loop
    vertex -17 -143.5 6
    vertex 17 -143.5 0
    vertex 17 -143.5 6
  endloop
endfacet
facet normal 0 1 0
  outer loop
    vertex 17 -73 37.5
    vertex 17 -73 31.5
    vertex -17 -73 31.5
  endloop
endfacet
facet normal 0 1 0
  outer loop
    vertex 17 -73 37.5
    vertex -17 -73 31.5
    vertex -17 -73 37.5
  endloop
endfacet
facet normal -1 0 0
  outer loop
    vertex -17 -73 31.5
    vertex -17 -86.1585334262042 31.5
    vertex -17 -89.1585334262042 37.5
  endloop
endfacet
facet normal -1 0 0
  outer loop
    vertex -17 -86.1585334262042 31.5
    vertex -17 -99.9625 0
    vertex -17 -102.9625 6
  endloop
endfacet
facet normal -1 0 0
  outer loop
    vertex -17 -99.9625 0
    vertex -17 -143.5 0
    vertex -17 -143.5 6
  endloop
endfacet
facet normal -1 0 0
  outer loop
    vertex -17 -73 31.5
    vertex -17 -89.1585334262042 37.5
    vertex -17 -73 37.5
  endloop
endfacet
facet normal -1 0 0
  outer loop
    vertex -17 -86.1585334262042 31.5
    vertex -17 -102.9625 6
    vertex -17 -89.1585334262042 37.5
  endloop
endfacet
facet normal -1 0 0
  outer loop
    vertex -17 -99.9625 0
    vertex -17 -143.5 6
    vertex -17 -102.9625 6
  endloop
endfacet
facet normal 1 0 0
  outer loop
    vertex 17 -73 31.5
    vertex 17 -89.1585334262042 37.5
    vertex 17 -86.1585334262042 31.5
  endloop
endfacet
facet normal 1 0 0
  outer loop
    vertex 17 -86.1585334262042 31.5
    vertex 17 -102.9625 6
    vertex 17 -99.9625 0
  endloop
endfacet
facet normal 1 0 0
  outer loop
    vertex 17 -99.9625 0
    vertex 17 -143.5 6
    vertex 17 -143.5 0
  endloop
endfacet
facet normal 1 0 0
  outer loop
    vertex 17 -73 31.5
    vertex 17 -73 37.5
    vertex 17 -89.1585334262042 37.5
  endloop
endfacet
facet normal 1 0 0
  outer loop
    vertex 17 -86.1585334262042 31.5
    vertex 17 -89.1585334262042 37.5
    vertex 17 -102.9625 6
  endloop
endfacet
facet normal 1 0 0
  outer loop
    vertex 17 -99.9625 0
    vertex 17 -102.9625 6
    vertex 17 -143.5 6
  endloop
endfacet
facet normal 0 0 1
  outer loop
    vertex -17 -73 37.5
    vertex -17 -89.1585334262042 37.5
    vertex 17 -89.1585334262042 37.5
  endloop
endfacet
facet normal 0 -.915914614826581 .401373165952927
  outer loop
    vertex -17 -89.1585334262042 37.5
    vertex -17 -102.9625 6
    vertex 17 -102.9625 6
  endloop
endfacet
facet normal 0 0 1
  outer loop
    vertex -17 -102.9625 6
    vertex -17 -143.5 6
    vertex 17 -143.5 6
  endloop
endfacet
facet normal 0 0 1
  outer loop
    vertex -17 -73 37.5
    vertex 17 -89.1585334262042 37.5
    vertex 17 -73 37.5
  endloop
endfacet
facet normal 0 -.915914614826581 .401373165952927
  outer loop
    vertex -17 -89.1585334262042 37.5
    vertex 17 -102.9625 6
    vertex 17 -89.1585334262042 37.5
  endloop
endfacet
facet normal 0 0 1
  outer loop
    vertex -17 -102.9625 6
    vertex 17 -143.5 6
    vertex 17 -102.9625 6
  endloop
endfacet
facet normal 0 0 -1
  outer loop
    vertex -17 -73 31.5
    vertex 17 -86.1585334262042 31.5
    vertex -17 -86.1585334262042 31.5
  endloop
endfacet
facet normal 0 .915914614826581 -.401373165952927
  outer loop
    vertex -17 -86.1585334262042 31.5
    vertex 17 -99.9625 0
    vertex -17 -99.9625 0
  endloop
endfacet
facet normal 0 0 -1
  outer loop
    vertex -17 -99.9625 0
    vertex 17 -143.5 0
    vertex -17 -143.5 0
  endloop
endfacet
facet normal 0 0 -1
  outer loop
    vertex -17 -73 31.5
    vertex 17 -73 31.5
    vertex 17 -86.1585334262042 31.5
  endloop
endfacet
facet normal 0 .915914614826581 -.401373165952927
  outer loop
    vertex -17 -86.1585334262042 31.5
    vertex 17 -86.1585334262042 31.5
    vertex 17 -99.9625 0
  endloop
endfacet
facet normal 0 0 -1
  outer loop
    vertex -17 -99.9625 0
    vertex 17 -99.9625 0
    vertex 17 -143.5 0
  endloop
endfacet
facet normal 0 -1 0
  outer loop
    vertex -107.55118 -143.5 6
    vertex -107.55118 -143.5 0
    vertex -73.55118 -143.5 0
  endloop
endfacet
facet normal 0 -1 0
  outer loop
    vertex -107.55118 -143.5 6
    vertex -73.55118 -143.5 0
    vertex -73.55118 -143.5 6
  endloop
endfacet
facet normal 0 1 0
  outer loop
    vertex -73.55118 -73 37.5
    vertex -73.55118 -73 31.5
    vertex -107.55118 -73 31.5
  endloop
endfacet
facet normal 0 1 0
  outer loop
    vertex -73.55118 -73 37.5
    vertex -107.55118 -73 31.5
    vertex -107.55118 -73 37.5
  endloop
endfacet
facet normal -1 0 0
  outer loop
    vertex -107.55118 -73 31.5
    vertex -107.55118 -86.1585334262042 31.5
    vertex -107.55118 -89.1585334262042 37.5
  endloop
endfacet
facet normal -1 0 0
  outer loop
    vertex -107.55118 -86.1585334262042 31.5
    vertex -107.55118 -99.9625 0
    vertex -107.55118 -102.9625 6
  endloop
endfacet
facet normal -1 0 0
  outer loop
    vertex -107.55118 -99.9625 0
    vertex -107.55118 -143.5 0
    vertex -107.55118 -143.5 6
  endloop
endfacet
facet normal -1 0 0
  outer loop
    vertex -107.55118 -73 31.5
    vertex -107.55118 -89.1585334262042 37.5
    vertex -107.55118 -73 37.5
  endloop
endfacet
facet normal -1 0 0
  outer loop
    vertex -107.55118 -86.1585334262042 31.5
    vertex -107.55118 -102.9625 6
    vertex -107.55118 -89.1585334262042 37.5
  endloop
endfacet
facet normal -1 0 0
  outer loop
    vertex -107.55118 -99.9625 0
    vertex -107.55118 -143.5 6
    vertex -107.55118 -102.9625 6
  endloop
endfacet
facet normal 1 0 0
  outer loop
    vertex -73.55118 -73 31.5
    vertex -73.55118 -89.1585334262042 37.5
    vertex -73.55118 -86.1585334262042 31.5
  endloop
endfacet
facet normal 1 0 0
  outer loop
    vertex -73.55118 -86.1585334262042 31.5
    vertex -73.55118 -102.9625 6
    vertex -73.55118 -99.9625 0
  endloop
endfacet
facet normal 1 0 0
  outer loop
    vertex -73.55118 -99.9625 0
    vertex -73.55118 -143.5 6
    vertex -73.55118 -143.5 0
  endloop
endfacet
facet normal 1 0 0
  outer loop
    vertex -73.55118 -73 31.5
    vertex -73.55118 -73 37.5
    vertex -73.55118 -89.1585334262042 37.5
  endloop
endfacet
facet normal 1 0 0
  outer loop
    vertex -73.55118 -86.1585334262042 31.5
    vertex -73.55118 -89.1585334262042 37.5
    vertex -73.55118 -102.9625 6
  endloop
endfacet
facet normal 1 0 0
  outer loop
    vertex -73.55118 -99.9625 0
    vertex -73.55118 -102.9625 6
    vertex -73.55118 -143.5 6
  endloop
endfacet
facet normal 0 0 1
  outer loop
    vertex -107.55118 -73 37.5
    vertex -107.55118 -89.1585334262042 37.5
    vertex -73.55118 -89.1585334262042 37.5
  endloop
endfacet
facet normal 0 -.915914614826581 .401373165952927
  outer loop
    vertex -107.55118 -89.1585334262042 37.5
    vertex -107.55118 -102.9625 6
    vertex -73.55118 -102.9625 6
  endloop
endfacet
facet normal 0 0 1
  outer loop
    vertex -107.55118 -102.9625 6
    vertex -107.55118 -143.5 6
    vertex -73.55118 -143.5 6
  endloop
endfacet
facet normal 0 0 1
  outer loop
    vertex -107.55118 -73 37.5
    vertex -73.55118 -89.1585334262042 37.5
    vertex -73.55118 -73 37.5
  endloop
endfacet
facet normal 0 -.915914614826581 .401373165952927
  outer loop
    vertex -107.55118 -89.1585334262042 37.5
    vertex -73.55118 -102.9625 6
    vertex -73.55118 -89.1585334262042 37.5
  endloop
endfacet
facet normal 0 0 1
  outer loop
    vertex -107.55118 -102.9625 6
    vertex -73.55118 -143.5 6
    vertex -73.55118 -102.9625 6
  endloop
endfacet
facet normal 0 0 -1
  outer loop
    vertex -107.55118 -73 31.5
    vertex -73.55118 -86.1585334262042 31.5
    vertex -107.55118 -86.1585334262042 31.5
  endloop
endfacet
facet normal 0 .915914614826581 -.401373165952927
  outer loop
    vertex -107.55118 -86.1585334262042 31.5
    vertex -73.55118 -99.9625 0
    vertex -107.55118 -99.9625 0
  endloop
endfacet
facet normal 0 0 -1
  outer loop
    vertex -107.55118 -99.9625 0
    vertex -73.55118 -143.5 0
    vertex -107.55118 -143.5 0
  endloop
endfacet
facet normal 0 0 -1
  outer loop
    vertex -107.55118 -73 31.5
    vertex -73.55118 -73 31.5
    vertex -73.55118 -86.1585334262042 31.5
  endloop
endfacet
facet normal 0 .915914614826581 -.401373165952927
  outer loop
    vertex -107.55118 -86.1585334262042 31.5
    vertex -73.55118 -86.1585334262042 31.5
    vertex -73.55118 -99.9625 0
  endloop
endfacet
facet normal 0 0 -1
  outer loop
    vertex -107.55118 -99.9625 0
    vertex -73.55118 -99.9625 0
    vertex -73.55118 -143.5 0
  endloop
endfacet
facet normal 0 1 0
  outer loop
    vertex 62 143.5 6
    vertex 62 143.5 0
    vertex -62 143.5 0
  endloop
endfacet
facet normal 0 1 0
  outer loop
    vertex 62 143.5 6
    vertex -62 143.5 0
    vertex -62 143.5 6
  endloop
endfacet
facet normal 0 -1 0
  outer loop
    vertex -62 73 37.5
    vertex -62 73 31.5
    vertex 62 73 31.5
  endloop
endfacet
facet normal 0 -1 0
  outer loop
    vertex -62 73 37.5
    vertex 62 73 31.5
    vertex 62 73 37.5
  endloop
endfacet
facet normal 1 0 0
  outer loop
    vertex 62 73 31.5
    vertex 62 86.1585334262042 31.5
    vertex 62 89.1585334262042 37.5
  endloop
endfacet
facet normal 1 0 0
  outer loop
    vertex 62 86.1585334262042 31.5
    vertex 62 99.9625 0
    vertex 62 102.9625 6
  endloop
endfacet
facet normal 1 0 0
  outer loop
    vertex 62 99.9625 0
    vertex 62 143.5 0
    vertex 62 143.5 6
  endloop
endfacet
facet normal 1 0 0
  outer loop
    vertex 62 73 31.5
    vertex 62 89.1585334262042 37.5
    vertex 62 73 37.5
  endloop
endfacet
facet normal 1 0 0
  outer loop
    vertex 62 86.1585334262042 31.5
    vertex 62 102.9625 6
    vertex 62 89.1585334262042 37.5
  endloop
endfacet
facet normal 1 0 0
  outer loop
    vertex 62 99.9625 0
    vertex 62 143.5 6
    vertex 62 102.9625 6
  endloop
endfacet
facet normal -1 0 0
  outer loop
    vertex -62 73 31.5
    vertex -62 89.1585334262042 37.5
    vertex -62 86.1585334262042 31.5
  endloop
endfacet
facet normal -1 0 0
  outer loop
    vertex -62 86.1585334262042 31.5
    vertex -62 102.9625 6
    vertex -62 99.9625 0
  endloop
endfacet
facet normal -1 0 0
  outer loop
    vertex -62 99.9625 0
    vertex -62 143.5 6
    vertex -62 143.5 0
  endloop
endfacet
facet normal -1 0 0
  outer loop
    vertex -62 73 31.5
    vertex -62 73 37.5
    vertex -62 89.1585334262042 37.5
  endloop
endfacet
facet normal -1 0 0
  outer loop
    vertex -62 86.1585334262042 31.5
    vertex -62 89.1585334262042 37.5
    vertex -62 102.9625 6
  endloop
endfacet
facet normal -1 0 0
  outer loop
    vertex -62 99.9625 0
    vertex -62 102.9625 6
    vertex -62 143.5 6
  endloop
endfacet
facet normal 0 0 1
  outer loop
    vertex 62 73 37.5
    vertex 62 89.1585334262042 37.5
    vertex -62 89.1585334262042 37.5
  endloop
endfacet
facet normal 0 .915914614826581 .401373165952926
  outer loop
    vertex 62 89.1585334262042 37.5
    vertex 62 102.9625 6
    vertex -62 102.9625 6
  endloop
endfacet
facet normal 0 0 1
  outer loop
    vertex 62 102.9625 6
    vertex 62 143.5 6
    vertex -62 143.5 6
  endloop
endfacet
facet normal 0 0 1
  outer loop
    vertex 62 73 37.5
    vertex -62 89.1585334262042 37.5
    vertex -62 73 37.5
  endloop
endfacet
facet normal 0 .915914614826581 .401373165952926
  outer loop
    vertex 62 89.1585334262042 37.5
    vertex -62 102.9625 6
    vertex -62 89.1585334262042 37.5
  endloop
endfacet
facet normal 0 0 1
  outer loop
    vertex 62 102.9625 6
    vertex -62 143.5 6
    vertex -62 102.9625 6
  endloop
endfacet
facet normal 0 0 -1
  outer loop
    vertex 62 73 31.5
    vertex -62 86.1585334262042 31.5
    vertex 62 86.1585334262042 31.5
  endloop
endfacet
facet normal 0 -.915914614826581 -.401373165952926
  outer loop
    vertex 62 86.1585334262042 31.5
    vertex -62 99.9625 0
    vertex 62 99.9625 0
  endloop
endfacet
facet normal 0 0 -1
  outer loop
    vertex 62 99.9625 0
    vertex -62 143.5 0
    vertex 62 143.5 0
  endloop
endfacet
facet normal 0 0 -1
  outer loop
    vertex 62 73 31.5
    vertex -62 73 31.5
    vertex -62 86.1585334262042 31.5
  endloop
endfacet
facet normal 0 -.915914614826581 -.401373165952926
  outer loop
    vertex 62 86.1585334262042 31.5
    vertex -62 86.1585334262042 31.5
    vertex -62 99.9625 0
  endloop
endfacet
facet normal 0 0 -1
  outer loop
    vertex 62 99.9625 0
    vertex -62 99.9625 0
    vertex -62 143.5 0
  endloop
endfacet
endsolid SOT-223
