M48
;Layer_Color=9474304
;FILE_FORMAT=2:5
INCH,LZ
;TYPE=PLATED
T1F00S00C0.00787
T2F00S00C0.01181
T3F00S00C0.02362
T4F00S00C0.02756
T5F00S00C0.03543
T6F00S00C0.04331
T7F00S00C0.06100
T8F00S00C0.10827
%
T01
X0120732Y0271071
Y0275402
Y0279732
Y0284063
Y0288394
X0125063
Y0284063
Y0279732
Y0275402
Y0271071
X0129393
Y0275402
Y0279732
Y0284063
Y0288394
X0133724
Y0284063
Y0279732
Y0275402
Y0271071
X0138055
Y0275402
Y0279732
Y0284063
Y0288394
T02
X0227559Y0137008
X0228346Y0151181
X0224016Y0152756
X0219291Y0159843
X024252Y0159843
X0248425Y0160236
X0251969Y0155512
X023879Y0155525
X0261614Y0150984
X0266929Y0160236
X0262205Y0136417
X0243307Y013189
X0236614Y0184252
X0246277Y0188022
X0261417Y0187795
X0214173Y0207087
X0197638Y020685
X0179921Y0205118
X0184646Y0184252
X0194702Y0187628
X0209449Y0187402
X0210335Y0150787
X0200394Y0155118
X019685Y0159843
X0190945Y0159449
X0187215Y0155131
X0177076Y015109
X0172835Y0151969
X0166929Y0159449
X0158079Y0150696
X0148031Y0154724
X0144488Y0159449
X0138583Y0159055
X0134853Y0154737
X0124612Y0150696
X0120542Y0151854
X0115354Y016063
X0106398Y0151772
X0096457Y0155905
X0092913Y016063
X0087008Y0160236
X0083278Y0155918
X0073032Y0151772
X0068967Y0152432
X0072047Y0137402
X0087795Y0132283
X0106693Y0137008
X0124016Y0136221
X013937Y0131102
X0158563Y0135827
X0175984Y0136614
X0191732Y0131496
X0210827Y0135728
X0157087Y0187192
X014234Y0187234
X0132548Y0183963
X0105905Y0188005
X0090765Y0188415
X0080973Y0185144
X0148031Y0205118
X0149606Y0220079
X0135433
X013189Y0223622
X014685Y0241339
X0154724Y0244052
X0152362Y024941
X0154724Y0263386
X0155512Y0267323
X0159055Y0267717
X0159843Y026063
X0179421Y0257315
X0186921Y0265315
X0176378Y0241732
X0169685Y0241339
Y0246063
X02Y024252
X0194882Y0237008
X0192413Y0222152
X0197531
X0197819Y0216746
X0192434Y0216472
X0174803Y0214961
X0209842Y0252362
X0132677Y0257087
X0133465Y0261811
X0129393Y0254142
X010459Y0262213
X0104197Y0267921
X0105091Y0291937
X0115748Y0297441
X011811Y0304331
X0111417Y0305906
X0115748Y0310236
X0120472Y031063
X0123622Y0312992
X0126772Y0315354
X0132423Y0318364
X0136614Y0315748
X0140157Y0312992
X0145276Y0312598
X0147897Y0304535
X0142582
X0146175Y0287228
X0151906Y0285228
X0158661Y0286614
X0165748Y0294882
X0178347Y0325984
X0183731Y0326259
X0183444Y0331664
X0178326
X0190945Y032126
X014685Y0326772
Y0330709
X0125197Y0300984
X0083858Y030748
X0072441Y0320866
X025748Y0336614
X0267323Y0334646
X0266535Y0267323
X0255512Y027559
X0244Y0276
X0227953Y0253543
X0222835
X0222855Y0247863
X022824Y0248138
X0221654Y0222835
X0256299Y0236221
X0268504Y0227165
T03
X0276772Y023189
X0264173Y0294173
Y0304173
Y0314173
Y0324173
T04
X0216929Y0272835
X0224803
T05
X0072331Y0345709
Y0355709
X0082331
Y0345709
X0092331
Y0355709
X0102331
Y0345709
X0112331
Y0355709
X0122331
Y0345709
X0132331
Y0355709
X0142331
Y0345709
X0152331
Y0355709
X0162331
Y0345709
X0172331
Y0355709
X0182331
Y0345709
X0192331
Y0355709
X0202331
Y0345709
X0212331
Y0355709
X0222331
Y0345709
X0232331
X0242331
X0252331
X0262331
Y0355709
X0252331
X0242331
X0232331
T06
X0098032Y0212992
Y0232992
T07
X0235276Y0096486
X0245276Y0106486
X0255276Y0116486
Y0096486
X0235276Y0116486
X0204095Y0116093
X0194095Y0106093
X0204095Y0096092
X0184095
Y0116093
X0150945Y0115699
X0140945Y0105699
X0150945Y0095699
X0130945
Y0115699
X0099764Y011688
X0089764Y010688
X0099764Y009688
X0079764
Y011688
T08
X0281504Y0157795
X0053158
Y0350709
X0281504
M30
