G04*
G04 #@! TF.GenerationSoftware,Altium Limited,Altium Designer,19.1.7 (138)*
G04*
G04 Layer_Physical_Order=3*
G04 Layer_Color=16440176*
%FSLAX25Y25*%
%MOIN*%
G70*
G01*
G75*
%ADD14C,0.01000*%
%ADD72C,0.02000*%
%ADD74C,0.04724*%
%ADD76R,0.05906X0.05906*%
%ADD77C,0.05906*%
%ADD81C,0.02362*%
G36*
X274929Y361705D02*
X273951Y361105D01*
X272417Y359795D01*
X271108Y358262D01*
X270054Y356543D01*
X269282Y354680D01*
X268811Y352719D01*
X268653Y350709D01*
X268811Y348698D01*
X269282Y346738D01*
X270054Y344875D01*
X271108Y343155D01*
X272417Y341622D01*
X273951Y340312D01*
X275670Y339259D01*
X277533Y338487D01*
X279494Y338016D01*
X281504Y337858D01*
X283514Y338016D01*
X285475Y338487D01*
X287338Y339259D01*
X289057Y340312D01*
X290591Y341622D01*
X291900Y343155D01*
X292807Y344635D01*
X293307Y344494D01*
Y164010D01*
X292807Y163869D01*
X291900Y165349D01*
X290591Y166882D01*
X289057Y168192D01*
X287338Y169245D01*
X285475Y170017D01*
X283514Y170488D01*
X281504Y170646D01*
X279494Y170488D01*
X277533Y170017D01*
X275670Y169245D01*
X273951Y168192D01*
X272417Y166882D01*
X271108Y165349D01*
X270054Y163629D01*
X269282Y161766D01*
X269242Y161600D01*
X268705Y161504D01*
X268502Y161809D01*
X267780Y162291D01*
X266929Y162460D01*
X266078Y162291D01*
X265357Y161809D01*
X264875Y161087D01*
X264705Y160236D01*
X264875Y159385D01*
X265357Y158664D01*
X266078Y158182D01*
X266929Y158012D01*
X267780Y158182D01*
X268204Y158465D01*
X268684Y158184D01*
X268653Y157795D01*
X268811Y155785D01*
X269282Y153824D01*
X270054Y151961D01*
X271108Y150242D01*
X272417Y148708D01*
X273951Y147399D01*
X275670Y146345D01*
X277533Y145574D01*
X279494Y145103D01*
X281504Y144945D01*
X283514Y145103D01*
X285475Y145574D01*
X287338Y146345D01*
X289057Y147399D01*
X290591Y148708D01*
X291900Y150242D01*
X292807Y151722D01*
X293307Y151581D01*
Y96063D01*
X283465Y86221D01*
X51181Y86221D01*
X41339Y96063D01*
X41339Y151606D01*
X41839Y151747D01*
X42761Y150242D01*
X44071Y148708D01*
X45604Y147399D01*
X47323Y146345D01*
X49186Y145574D01*
X51147Y145103D01*
X53158Y144945D01*
X55168Y145103D01*
X57129Y145574D01*
X58991Y146345D01*
X60711Y147399D01*
X62244Y148708D01*
X63554Y150242D01*
X64608Y151961D01*
X65379Y153824D01*
X65850Y155785D01*
X66008Y157795D01*
X65850Y159806D01*
X65379Y161766D01*
X64608Y163629D01*
X63554Y165349D01*
X62244Y166882D01*
X60711Y168192D01*
X58991Y169245D01*
X57129Y170017D01*
X55168Y170488D01*
X53158Y170646D01*
X51147Y170488D01*
X49186Y170017D01*
X47323Y169245D01*
X45604Y168192D01*
X44071Y166882D01*
X42761Y165349D01*
X41839Y163843D01*
X41339Y163984D01*
X41339Y208661D01*
X72835D01*
Y299213D01*
X41339D01*
X41339Y344520D01*
X41839Y344661D01*
X42761Y343155D01*
X44071Y341622D01*
X45604Y340312D01*
X47323Y339259D01*
X49186Y338487D01*
X51147Y338016D01*
X53158Y337858D01*
X55168Y338016D01*
X57129Y338487D01*
X58991Y339259D01*
X60711Y340312D01*
X62244Y341622D01*
X63554Y343155D01*
X64608Y344875D01*
X65379Y346738D01*
X65850Y348698D01*
X66008Y350709D01*
X65850Y352719D01*
X65379Y354680D01*
X64608Y356543D01*
X63554Y358262D01*
X62244Y359795D01*
X60711Y361105D01*
X59732Y361705D01*
X59873Y362205D01*
X274788Y362205D01*
X274929Y361705D01*
D02*
G37*
%LPC*%
G36*
X262331Y359696D02*
X261299Y359560D01*
X260337Y359161D01*
X259512Y358528D01*
X258878Y357702D01*
X258480Y356740D01*
X258344Y355709D01*
X258480Y354677D01*
X258878Y353715D01*
X259512Y352889D01*
X260337Y352256D01*
X261299Y351858D01*
X262331Y351722D01*
X263363Y351858D01*
X264324Y352256D01*
X265150Y352889D01*
X265783Y353715D01*
X266182Y354677D01*
X266318Y355709D01*
X266182Y356740D01*
X265783Y357702D01*
X265150Y358528D01*
X264324Y359161D01*
X263363Y359560D01*
X262331Y359696D01*
D02*
G37*
G36*
X252331D02*
X251299Y359560D01*
X250337Y359161D01*
X249512Y358528D01*
X248878Y357702D01*
X248480Y356740D01*
X248344Y355709D01*
X248480Y354677D01*
X248878Y353715D01*
X249512Y352889D01*
X250337Y352256D01*
X251299Y351858D01*
X252331Y351722D01*
X253363Y351858D01*
X254324Y352256D01*
X255150Y352889D01*
X255783Y353715D01*
X256182Y354677D01*
X256318Y355709D01*
X256182Y356740D01*
X255783Y357702D01*
X255150Y358528D01*
X254324Y359161D01*
X253363Y359560D01*
X252331Y359696D01*
D02*
G37*
G36*
X92331D02*
X91299Y359560D01*
X90337Y359161D01*
X89512Y358528D01*
X88878Y357702D01*
X88480Y356740D01*
X88344Y355709D01*
X88480Y354677D01*
X88878Y353715D01*
X89512Y352889D01*
X90337Y352256D01*
X91299Y351858D01*
X92331Y351722D01*
X93363Y351858D01*
X94324Y352256D01*
X95150Y352889D01*
X95783Y353715D01*
X96182Y354677D01*
X96318Y355709D01*
X96182Y356740D01*
X95783Y357702D01*
X95150Y358528D01*
X94324Y359161D01*
X93363Y359560D01*
X92331Y359696D01*
D02*
G37*
G36*
X82331D02*
X81299Y359560D01*
X80337Y359161D01*
X79512Y358528D01*
X78878Y357702D01*
X78480Y356740D01*
X78344Y355709D01*
X78480Y354677D01*
X78878Y353715D01*
X79512Y352889D01*
X80337Y352256D01*
X81299Y351858D01*
X82331Y351722D01*
X83363Y351858D01*
X84324Y352256D01*
X85150Y352889D01*
X85783Y353715D01*
X86182Y354677D01*
X86318Y355709D01*
X86182Y356740D01*
X85783Y357702D01*
X85150Y358528D01*
X84324Y359161D01*
X83363Y359560D01*
X82331Y359696D01*
D02*
G37*
G36*
X72331D02*
X71299Y359560D01*
X70337Y359161D01*
X69512Y358528D01*
X68878Y357702D01*
X68480Y356740D01*
X68344Y355709D01*
X68480Y354677D01*
X68878Y353715D01*
X69512Y352889D01*
X70337Y352256D01*
X71299Y351858D01*
X72331Y351722D01*
X73363Y351858D01*
X74324Y352256D01*
X75150Y352889D01*
X75783Y353715D01*
X76182Y354677D01*
X76318Y355709D01*
X76182Y356740D01*
X75783Y357702D01*
X75150Y358528D01*
X74324Y359161D01*
X73363Y359560D01*
X72331Y359696D01*
D02*
G37*
G36*
X242331D02*
X241299Y359560D01*
X240337Y359161D01*
X239512Y358528D01*
X238878Y357702D01*
X238480Y356740D01*
X238344Y355709D01*
X238480Y354677D01*
X238878Y353715D01*
X239512Y352889D01*
X240337Y352256D01*
X240494Y352191D01*
X240395Y351691D01*
X234266D01*
X234167Y352191D01*
X234324Y352256D01*
X235150Y352889D01*
X235783Y353715D01*
X236182Y354677D01*
X236318Y355709D01*
X236182Y356740D01*
X235783Y357702D01*
X235150Y358528D01*
X234324Y359161D01*
X233363Y359560D01*
X232331Y359696D01*
X231299Y359560D01*
X230337Y359161D01*
X229512Y358528D01*
X228878Y357702D01*
X228480Y356740D01*
X228344Y355709D01*
X228480Y354677D01*
X228878Y353715D01*
X229512Y352889D01*
X230337Y352256D01*
X230494Y352191D01*
X230395Y351691D01*
X224266D01*
X224167Y352191D01*
X224324Y352256D01*
X225150Y352889D01*
X225783Y353715D01*
X226182Y354677D01*
X226318Y355709D01*
X226182Y356740D01*
X225783Y357702D01*
X225150Y358528D01*
X224324Y359161D01*
X223363Y359560D01*
X222331Y359696D01*
X221299Y359560D01*
X220337Y359161D01*
X219512Y358528D01*
X218878Y357702D01*
X218480Y356740D01*
X218344Y355709D01*
X218480Y354677D01*
X218878Y353715D01*
X219512Y352889D01*
X220337Y352256D01*
X220495Y352191D01*
X220395Y351691D01*
X214266D01*
X214167Y352191D01*
X214324Y352256D01*
X215150Y352889D01*
X215783Y353715D01*
X216182Y354677D01*
X216318Y355709D01*
X216182Y356740D01*
X215783Y357702D01*
X215150Y358528D01*
X214324Y359161D01*
X213363Y359560D01*
X212331Y359696D01*
X211299Y359560D01*
X210337Y359161D01*
X209512Y358528D01*
X208878Y357702D01*
X208480Y356740D01*
X208344Y355709D01*
X208480Y354677D01*
X208878Y353715D01*
X209512Y352889D01*
X210337Y352256D01*
X210494Y352191D01*
X210395Y351691D01*
X204266D01*
X204167Y352191D01*
X204324Y352256D01*
X205150Y352889D01*
X205783Y353715D01*
X206182Y354677D01*
X206318Y355709D01*
X206182Y356740D01*
X205783Y357702D01*
X205150Y358528D01*
X204324Y359161D01*
X203363Y359560D01*
X202331Y359696D01*
X201299Y359560D01*
X200337Y359161D01*
X199512Y358528D01*
X198878Y357702D01*
X198480Y356740D01*
X198344Y355709D01*
X198480Y354677D01*
X198878Y353715D01*
X199512Y352889D01*
X200337Y352256D01*
X200495Y352191D01*
X200395Y351691D01*
X194266D01*
X194167Y352191D01*
X194324Y352256D01*
X195150Y352889D01*
X195783Y353715D01*
X196182Y354677D01*
X196318Y355709D01*
X196182Y356740D01*
X195783Y357702D01*
X195150Y358528D01*
X194324Y359161D01*
X193363Y359560D01*
X192331Y359696D01*
X191299Y359560D01*
X190337Y359161D01*
X189512Y358528D01*
X188878Y357702D01*
X188480Y356740D01*
X188344Y355709D01*
X188480Y354677D01*
X188878Y353715D01*
X189512Y352889D01*
X190337Y352256D01*
X190495Y352191D01*
X190395Y351691D01*
X184266D01*
X184167Y352191D01*
X184324Y352256D01*
X185150Y352889D01*
X185783Y353715D01*
X186182Y354677D01*
X186318Y355709D01*
X186182Y356740D01*
X185783Y357702D01*
X185150Y358528D01*
X184324Y359161D01*
X183363Y359560D01*
X182331Y359696D01*
X181299Y359560D01*
X180337Y359161D01*
X179512Y358528D01*
X178878Y357702D01*
X178480Y356740D01*
X178344Y355709D01*
X178480Y354677D01*
X178878Y353715D01*
X179512Y352889D01*
X180337Y352256D01*
X180494Y352191D01*
X180395Y351691D01*
X174266D01*
X174167Y352191D01*
X174324Y352256D01*
X175150Y352889D01*
X175783Y353715D01*
X176182Y354677D01*
X176318Y355709D01*
X176182Y356740D01*
X175783Y357702D01*
X175150Y358528D01*
X174324Y359161D01*
X173363Y359560D01*
X172331Y359696D01*
X171299Y359560D01*
X170337Y359161D01*
X169512Y358528D01*
X168878Y357702D01*
X168480Y356740D01*
X168344Y355709D01*
X168480Y354677D01*
X168878Y353715D01*
X169512Y352889D01*
X170337Y352256D01*
X170494Y352191D01*
X170395Y351691D01*
X164266D01*
X164167Y352191D01*
X164324Y352256D01*
X165150Y352889D01*
X165783Y353715D01*
X166182Y354677D01*
X166318Y355709D01*
X166182Y356740D01*
X165783Y357702D01*
X165150Y358528D01*
X164324Y359161D01*
X163363Y359560D01*
X162331Y359696D01*
X161299Y359560D01*
X160337Y359161D01*
X159512Y358528D01*
X158878Y357702D01*
X158480Y356740D01*
X158344Y355709D01*
X158480Y354677D01*
X158878Y353715D01*
X159512Y352889D01*
X160337Y352256D01*
X160494Y352191D01*
X160395Y351691D01*
X154266D01*
X154167Y352191D01*
X154324Y352256D01*
X155150Y352889D01*
X155783Y353715D01*
X156182Y354677D01*
X156318Y355709D01*
X156182Y356740D01*
X155783Y357702D01*
X155150Y358528D01*
X154324Y359161D01*
X153363Y359560D01*
X152331Y359696D01*
X151299Y359560D01*
X150337Y359161D01*
X149512Y358528D01*
X148878Y357702D01*
X148480Y356740D01*
X148344Y355709D01*
X148480Y354677D01*
X148878Y353715D01*
X149512Y352889D01*
X150337Y352256D01*
X150495Y352191D01*
X150395Y351691D01*
X144266D01*
X144167Y352191D01*
X144324Y352256D01*
X145150Y352889D01*
X145783Y353715D01*
X146182Y354677D01*
X146318Y355709D01*
X146182Y356740D01*
X145783Y357702D01*
X145150Y358528D01*
X144324Y359161D01*
X143363Y359560D01*
X142331Y359696D01*
X141299Y359560D01*
X140337Y359161D01*
X139512Y358528D01*
X138878Y357702D01*
X138480Y356740D01*
X138344Y355709D01*
X138480Y354677D01*
X138878Y353715D01*
X139512Y352889D01*
X140337Y352256D01*
X140495Y352191D01*
X140395Y351691D01*
X134266D01*
X134167Y352191D01*
X134324Y352256D01*
X135150Y352889D01*
X135783Y353715D01*
X136182Y354677D01*
X136318Y355709D01*
X136182Y356740D01*
X135783Y357702D01*
X135150Y358528D01*
X134324Y359161D01*
X133363Y359560D01*
X132331Y359696D01*
X131299Y359560D01*
X130337Y359161D01*
X129512Y358528D01*
X128878Y357702D01*
X128480Y356740D01*
X128344Y355709D01*
X128480Y354677D01*
X128878Y353715D01*
X129512Y352889D01*
X130337Y352256D01*
X130494Y352191D01*
X130395Y351691D01*
X124266D01*
X124167Y352191D01*
X124324Y352256D01*
X125150Y352889D01*
X125783Y353715D01*
X126182Y354677D01*
X126318Y355709D01*
X126182Y356740D01*
X125783Y357702D01*
X125150Y358528D01*
X124324Y359161D01*
X123363Y359560D01*
X122331Y359696D01*
X121299Y359560D01*
X120337Y359161D01*
X119512Y358528D01*
X118878Y357702D01*
X118480Y356740D01*
X118344Y355709D01*
X118480Y354677D01*
X118878Y353715D01*
X119512Y352889D01*
X120337Y352256D01*
X120494Y352191D01*
X120395Y351691D01*
X114266D01*
X114167Y352191D01*
X114324Y352256D01*
X115150Y352889D01*
X115783Y353715D01*
X116182Y354677D01*
X116318Y355709D01*
X116182Y356740D01*
X115783Y357702D01*
X115150Y358528D01*
X114324Y359161D01*
X113363Y359560D01*
X112331Y359696D01*
X111299Y359560D01*
X110337Y359161D01*
X109512Y358528D01*
X108878Y357702D01*
X108480Y356740D01*
X108344Y355709D01*
X108480Y354677D01*
X108878Y353715D01*
X109512Y352889D01*
X110337Y352256D01*
X110494Y352191D01*
X110395Y351691D01*
X104266D01*
X104167Y352191D01*
X104324Y352256D01*
X105150Y352889D01*
X105783Y353715D01*
X106182Y354677D01*
X106318Y355709D01*
X106182Y356740D01*
X105783Y357702D01*
X105150Y358528D01*
X104324Y359161D01*
X103363Y359560D01*
X102331Y359696D01*
X101299Y359560D01*
X100337Y359161D01*
X99512Y358528D01*
X98878Y357702D01*
X98480Y356740D01*
X98344Y355709D01*
X98480Y354677D01*
X98878Y353715D01*
X99512Y352889D01*
X100337Y352256D01*
X100495Y352191D01*
X100395Y351691D01*
X96784D01*
X96198Y351574D01*
X95702Y351243D01*
X93827Y349367D01*
X93363Y349560D01*
X92331Y349695D01*
X91299Y349560D01*
X90337Y349161D01*
X89512Y348528D01*
X88878Y347702D01*
X88480Y346741D01*
X88344Y345709D01*
X88480Y344677D01*
X88878Y343715D01*
X89512Y342889D01*
X90337Y342256D01*
X90884Y342029D01*
X90785Y341529D01*
X88673D01*
X85989Y344213D01*
X86182Y344677D01*
X86318Y345709D01*
X86182Y346741D01*
X85783Y347702D01*
X85150Y348528D01*
X84324Y349161D01*
X83363Y349560D01*
X82331Y349695D01*
X81299Y349560D01*
X80337Y349161D01*
X79512Y348528D01*
X78878Y347702D01*
X78480Y346741D01*
X78344Y345709D01*
X78480Y344677D01*
X78878Y343715D01*
X79512Y342889D01*
X80337Y342256D01*
X81299Y341858D01*
X82331Y341722D01*
X83363Y341858D01*
X83827Y342050D01*
X86958Y338919D01*
X87454Y338587D01*
X87695Y338539D01*
X87645Y338039D01*
X82884D01*
X76284Y344640D01*
Y349661D01*
X68378D01*
Y341756D01*
X73400D01*
X80597Y334558D01*
X80597Y334558D01*
X81259Y334116D01*
X82039Y333961D01*
X176937D01*
X177088Y333461D01*
X176753Y333237D01*
X176271Y332515D01*
X176102Y331664D01*
X176271Y330813D01*
X176753Y330092D01*
X177475Y329610D01*
X178326Y329440D01*
X179177Y329610D01*
X179898Y330092D01*
X180380Y330813D01*
X180550Y331664D01*
X180380Y332515D01*
X179898Y333237D01*
X179563Y333461D01*
X179715Y333961D01*
X182055D01*
X182207Y333461D01*
X181871Y333237D01*
X181389Y332515D01*
X181220Y331664D01*
X181389Y330813D01*
X181871Y330092D01*
X182593Y329610D01*
X183444Y329440D01*
X184295Y329610D01*
X185016Y330092D01*
X185498Y330813D01*
X185668Y331664D01*
X185498Y332515D01*
X185016Y333237D01*
X184681Y333461D01*
X184833Y333961D01*
X228155D01*
X253473Y308644D01*
Y304331D01*
Y276465D01*
X253457Y276442D01*
X253288Y275590D01*
X253457Y274740D01*
X253939Y274018D01*
X254661Y273536D01*
X255512Y273367D01*
X256363Y273536D01*
X257084Y274018D01*
X257566Y274740D01*
X257736Y275590D01*
X257566Y276442D01*
X257551Y276465D01*
Y302134D01*
X261500D01*
X261775Y301775D01*
X262478Y301236D01*
X263296Y300898D01*
X264173Y300782D01*
X265051Y300898D01*
X265869Y301236D01*
X266571Y301775D01*
X267110Y302478D01*
X267449Y303295D01*
X267564Y304173D01*
X267449Y305051D01*
X267110Y305869D01*
X266571Y306571D01*
X265869Y307110D01*
X265051Y307449D01*
X264173Y307564D01*
X263296Y307449D01*
X262478Y307110D01*
X261775Y306571D01*
X261500Y306212D01*
X257551D01*
Y309488D01*
X257396Y310269D01*
X256954Y310930D01*
X255558Y312326D01*
X255569Y312351D01*
X255853Y312738D01*
X256327Y312644D01*
X261168D01*
X261236Y312478D01*
X261775Y311775D01*
X262478Y311236D01*
X263296Y310898D01*
X264173Y310782D01*
X265051Y310898D01*
X265869Y311236D01*
X266571Y311775D01*
X267110Y312478D01*
X267449Y313296D01*
X267564Y314173D01*
X267449Y315051D01*
X267110Y315869D01*
X266571Y316571D01*
X265869Y317110D01*
X265051Y317449D01*
X264173Y317564D01*
X263296Y317449D01*
X262478Y317110D01*
X261775Y316571D01*
X261236Y315869D01*
X261168Y315703D01*
X256960D01*
X231581Y341081D01*
X231085Y341413D01*
X230500Y341529D01*
X223877D01*
X223777Y342029D01*
X224324Y342256D01*
X225150Y342889D01*
X225783Y343715D01*
X226182Y344677D01*
X226318Y345709D01*
X226182Y346741D01*
X225783Y347702D01*
X225453Y348132D01*
X225700Y348632D01*
X228961D01*
X229208Y348132D01*
X228878Y347702D01*
X228480Y346741D01*
X228344Y345709D01*
X228480Y344677D01*
X228878Y343715D01*
X229512Y342889D01*
X230337Y342256D01*
X231299Y341858D01*
X232331Y341722D01*
X233363Y341858D01*
X234324Y342256D01*
X235150Y342889D01*
X235783Y343715D01*
X236182Y344677D01*
X236318Y345709D01*
X236182Y346741D01*
X235783Y347702D01*
X235454Y348132D01*
X235700Y348632D01*
X238961D01*
X239208Y348132D01*
X238878Y347702D01*
X238480Y346741D01*
X238344Y345709D01*
X238480Y344677D01*
X238878Y343715D01*
X239512Y342889D01*
X240337Y342256D01*
X241299Y341858D01*
X242331Y341722D01*
X243363Y341858D01*
X244324Y342256D01*
X245150Y342889D01*
X245783Y343715D01*
X245849Y343872D01*
X246349Y343773D01*
Y340469D01*
X246465Y339883D01*
X246796Y339387D01*
X260966Y325217D01*
X260898Y325051D01*
X260782Y324173D01*
X260898Y323295D01*
X261236Y322478D01*
X261775Y321775D01*
X262478Y321236D01*
X263296Y320898D01*
X264173Y320782D01*
X265051Y320898D01*
X265869Y321236D01*
X266571Y321775D01*
X267110Y322478D01*
X267449Y323295D01*
X267564Y324173D01*
X267449Y325051D01*
X267110Y325869D01*
X266571Y326571D01*
X265869Y327110D01*
X265051Y327449D01*
X264173Y327564D01*
X263296Y327449D01*
X263129Y327380D01*
X256481Y334028D01*
X256634Y334531D01*
X256664Y334553D01*
X257480Y334390D01*
X258331Y334560D01*
X259053Y335042D01*
X259535Y335763D01*
X259704Y336614D01*
X259535Y337465D01*
X259053Y338187D01*
X258331Y338669D01*
X257480Y338838D01*
X256629Y338669D01*
X255908Y338187D01*
X255426Y337465D01*
X255257Y336614D01*
X255419Y335798D01*
X255397Y335768D01*
X254894Y335615D01*
X249407Y341102D01*
Y342339D01*
X249907Y342586D01*
X250337Y342256D01*
X251299Y341858D01*
X252331Y341722D01*
X253363Y341858D01*
X254324Y342256D01*
X255150Y342889D01*
X255783Y343715D01*
X256182Y344677D01*
X256318Y345709D01*
X256182Y346741D01*
X255783Y347702D01*
X255150Y348528D01*
X254324Y349161D01*
X253363Y349560D01*
X252331Y349695D01*
X251299Y349560D01*
X250337Y349161D01*
X249512Y348528D01*
X249150Y348057D01*
X248486Y348013D01*
X245256Y351243D01*
X244760Y351574D01*
X244678Y351591D01*
X244305Y352163D01*
X244324Y352256D01*
X245150Y352889D01*
X245783Y353715D01*
X246182Y354677D01*
X246318Y355709D01*
X246182Y356740D01*
X245783Y357702D01*
X245150Y358528D01*
X244324Y359161D01*
X243363Y359560D01*
X242331Y359696D01*
D02*
G37*
G36*
X262331Y349695D02*
X261299Y349560D01*
X260337Y349161D01*
X259512Y348528D01*
X258878Y347702D01*
X258480Y346741D01*
X258344Y345709D01*
X258480Y344677D01*
X258878Y343715D01*
X259512Y342889D01*
X260337Y342256D01*
X261299Y341858D01*
X262331Y341722D01*
X263363Y341858D01*
X264324Y342256D01*
X265150Y342889D01*
X265783Y343715D01*
X266182Y344677D01*
X266318Y345709D01*
X266182Y346741D01*
X265783Y347702D01*
X265150Y348528D01*
X264324Y349161D01*
X263363Y349560D01*
X262331Y349695D01*
D02*
G37*
G36*
X267323Y336870D02*
X266472Y336700D01*
X265750Y336218D01*
X265268Y335497D01*
X265099Y334646D01*
X265268Y333795D01*
X265750Y333073D01*
X266472Y332591D01*
X267323Y332422D01*
X268174Y332591D01*
X268895Y333073D01*
X269377Y333795D01*
X269547Y334646D01*
X269377Y335497D01*
X268895Y336218D01*
X268174Y336700D01*
X267323Y336870D01*
D02*
G37*
G36*
X146850Y332932D02*
X145999Y332763D01*
X145278Y332281D01*
X144796Y331560D01*
X144627Y330709D01*
X144796Y329858D01*
X145278Y329136D01*
X145496Y328990D01*
Y328490D01*
X145278Y328344D01*
X144796Y327623D01*
X144627Y326772D01*
X144796Y325921D01*
X145278Y325199D01*
X145999Y324717D01*
X146850Y324548D01*
X147701Y324717D01*
X148423Y325199D01*
X148905Y325921D01*
X149074Y326772D01*
X148905Y327623D01*
X148423Y328344D01*
X148204Y328490D01*
Y328990D01*
X148423Y329136D01*
X148905Y329858D01*
X149074Y330709D01*
X148905Y331560D01*
X148423Y332281D01*
X147701Y332763D01*
X146850Y332932D01*
D02*
G37*
G36*
X183731Y328483D02*
X182880Y328313D01*
X182159Y327831D01*
X181677Y327110D01*
X181508Y326259D01*
X181677Y325408D01*
X182159Y324686D01*
X182880Y324204D01*
X183731Y324035D01*
X184582Y324204D01*
X185304Y324686D01*
X185786Y325408D01*
X185955Y326259D01*
X185786Y327110D01*
X185304Y327831D01*
X184582Y328313D01*
X183731Y328483D01*
D02*
G37*
G36*
X178347Y328208D02*
X177495Y328039D01*
X176774Y327557D01*
X176292Y326835D01*
X176123Y325984D01*
X176292Y325133D01*
X176774Y324412D01*
X177495Y323930D01*
X178347Y323760D01*
X179198Y323930D01*
X179919Y324412D01*
X180401Y325133D01*
X180570Y325984D01*
X180401Y326835D01*
X179919Y327557D01*
X179198Y328039D01*
X178347Y328208D01*
D02*
G37*
G36*
X72441Y323090D02*
X71590Y322921D01*
X70868Y322439D01*
X70386Y321717D01*
X70217Y320866D01*
X70386Y320015D01*
X70868Y319294D01*
X71590Y318812D01*
X72441Y318642D01*
X73292Y318812D01*
X74013Y319294D01*
X74496Y320015D01*
X74665Y320866D01*
X74496Y321717D01*
X74013Y322439D01*
X73292Y322921D01*
X72441Y323090D01*
D02*
G37*
G36*
X132423Y320588D02*
X131572Y320419D01*
X130851Y319937D01*
X130369Y319215D01*
X130199Y318364D01*
X130369Y317513D01*
X130851Y316792D01*
X131572Y316310D01*
X132423Y316140D01*
X133274Y316310D01*
X133996Y316792D01*
X134478Y317513D01*
X134647Y318364D01*
X134478Y319215D01*
X133996Y319937D01*
X133274Y320419D01*
X132423Y320588D01*
D02*
G37*
G36*
X126772Y317578D02*
X125921Y317409D01*
X125199Y316927D01*
X124717Y316205D01*
X124576Y315497D01*
X124543Y315352D01*
X124084Y315124D01*
X123622Y315216D01*
X122771Y315047D01*
X122050Y314565D01*
X121567Y313843D01*
X121427Y313135D01*
X121393Y312990D01*
X120934Y312762D01*
X120472Y312854D01*
X119621Y312684D01*
X118900Y312202D01*
X118418Y311481D01*
X118326Y311019D01*
X117816D01*
X117803Y311087D01*
X117321Y311809D01*
X116599Y312291D01*
X115748Y312460D01*
X114897Y312291D01*
X114175Y311809D01*
X113693Y311087D01*
X113524Y310236D01*
X113693Y309385D01*
X114175Y308664D01*
X114897Y308182D01*
X115748Y308012D01*
X116599Y308182D01*
X117321Y308664D01*
X117803Y309385D01*
X117894Y309847D01*
X118404D01*
X118418Y309779D01*
X118900Y309057D01*
X119621Y308575D01*
X120472Y308406D01*
X121324Y308575D01*
X122045Y309057D01*
X122527Y309779D01*
X122668Y310487D01*
X122701Y310632D01*
X123160Y310860D01*
X123622Y310768D01*
X124473Y310938D01*
X125195Y311420D01*
X125677Y312141D01*
X125818Y312849D01*
X125851Y312995D01*
X126310Y313222D01*
X126772Y313130D01*
X127623Y313300D01*
X128344Y313782D01*
X128826Y314503D01*
X128996Y315354D01*
X128826Y316205D01*
X128344Y316927D01*
X127623Y317409D01*
X126772Y317578D01*
D02*
G37*
G36*
X136614Y317972D02*
X135763Y317803D01*
X135042Y317320D01*
X134560Y316599D01*
X134390Y315748D01*
X134560Y314897D01*
X135042Y314176D01*
X135763Y313693D01*
X136614Y313524D01*
X137465Y313693D01*
X137578Y313769D01*
X138028Y313468D01*
X137934Y312992D01*
X138103Y312141D01*
X138585Y311420D01*
X139306Y310938D01*
X140157Y310768D01*
X141008Y310938D01*
X141730Y311420D01*
X142212Y312141D01*
X142381Y312992D01*
X142212Y313843D01*
X141730Y314565D01*
X141008Y315047D01*
X140157Y315216D01*
X139306Y315047D01*
X139193Y314971D01*
X138743Y315272D01*
X138838Y315748D01*
X138669Y316599D01*
X138187Y317320D01*
X137465Y317803D01*
X136614Y317972D01*
D02*
G37*
G36*
X145276Y314822D02*
X144425Y314653D01*
X143703Y314171D01*
X143221Y313449D01*
X143052Y312598D01*
X143221Y311747D01*
X143703Y311026D01*
X144425Y310544D01*
X145276Y310375D01*
X146127Y310544D01*
X146848Y311026D01*
X147330Y311747D01*
X147499Y312598D01*
X147330Y313449D01*
X146848Y314171D01*
X146127Y314653D01*
X145276Y314822D01*
D02*
G37*
G36*
X83858Y309704D02*
X83007Y309535D01*
X82286Y309053D01*
X81804Y308331D01*
X81634Y307480D01*
X81804Y306629D01*
X82286Y305908D01*
X83007Y305426D01*
X83858Y305257D01*
X84709Y305426D01*
X85431Y305908D01*
X85913Y306629D01*
X86082Y307480D01*
X85913Y308331D01*
X85431Y309053D01*
X84709Y309535D01*
X83858Y309704D01*
D02*
G37*
G36*
X111417Y308129D02*
X110566Y307960D01*
X109845Y307478D01*
X109363Y306756D01*
X109194Y305906D01*
X109363Y305054D01*
X109845Y304333D01*
X110566Y303851D01*
X111417Y303682D01*
X112268Y303851D01*
X112990Y304333D01*
X113472Y305054D01*
X113641Y305906D01*
X113472Y306756D01*
X112990Y307478D01*
X112268Y307960D01*
X111417Y308129D01*
D02*
G37*
G36*
X147897Y306759D02*
X147046Y306590D01*
X146325Y306108D01*
X145843Y305386D01*
X145674Y304535D01*
X145843Y303684D01*
X146325Y302963D01*
X147046Y302481D01*
X147897Y302312D01*
X148748Y302481D01*
X149470Y302963D01*
X149952Y303684D01*
X150121Y304535D01*
X149952Y305386D01*
X149470Y306108D01*
X148748Y306590D01*
X147897Y306759D01*
D02*
G37*
G36*
X118110Y306555D02*
X117259Y306385D01*
X116538Y305903D01*
X116056Y305182D01*
X115886Y304331D01*
X116056Y303480D01*
X116538Y302758D01*
X117259Y302276D01*
X118110Y302107D01*
X118961Y302276D01*
X119683Y302758D01*
X120165Y303480D01*
X120334Y304331D01*
X120165Y305182D01*
X119683Y305903D01*
X118961Y306385D01*
X118110Y306555D01*
D02*
G37*
G36*
X125197Y303208D02*
X124346Y303039D01*
X123624Y302557D01*
X123142Y301835D01*
X122973Y300984D01*
X123142Y300133D01*
X123624Y299412D01*
X124346Y298930D01*
X125197Y298760D01*
X126048Y298930D01*
X126769Y299412D01*
X127251Y300133D01*
X127421Y300984D01*
X127251Y301835D01*
X126769Y302557D01*
X126048Y303039D01*
X125197Y303208D01*
D02*
G37*
G36*
X115748Y299665D02*
X114897Y299496D01*
X114176Y299013D01*
X113693Y298292D01*
X113524Y297441D01*
X113693Y296590D01*
X114176Y295868D01*
X114897Y295386D01*
X115748Y295217D01*
X116599Y295386D01*
X117321Y295868D01*
X117803Y296590D01*
X117972Y297441D01*
X117803Y298292D01*
X117321Y299013D01*
X116599Y299496D01*
X115748Y299665D01*
D02*
G37*
G36*
X165748Y297106D02*
X164897Y296936D01*
X164175Y296454D01*
X163693Y295733D01*
X163524Y294882D01*
X163693Y294031D01*
X164175Y293309D01*
X164897Y292827D01*
X165748Y292658D01*
X166599Y292827D01*
X167321Y293309D01*
X167803Y294031D01*
X167972Y294882D01*
X167803Y295733D01*
X167321Y296454D01*
X166599Y296936D01*
X165748Y297106D01*
D02*
G37*
G36*
X264173Y297564D02*
X263296Y297449D01*
X262478Y297110D01*
X261775Y296571D01*
X261236Y295869D01*
X260898Y295051D01*
X260782Y294173D01*
X260898Y293296D01*
X261236Y292478D01*
X261775Y291775D01*
X262478Y291236D01*
X263296Y290898D01*
X264173Y290782D01*
X265051Y290898D01*
X265869Y291236D01*
X266571Y291775D01*
X267110Y292478D01*
X267449Y293296D01*
X267564Y294173D01*
X267449Y295051D01*
X267110Y295869D01*
X266571Y296571D01*
X265869Y297110D01*
X265051Y297449D01*
X264173Y297564D01*
D02*
G37*
G36*
X146175Y289452D02*
X145324Y289283D01*
X144603Y288801D01*
X144121Y288079D01*
X143951Y287228D01*
X144121Y286377D01*
X144603Y285656D01*
X145324Y285174D01*
X146175Y285004D01*
X147026Y285174D01*
X147748Y285656D01*
X148230Y286377D01*
X148399Y287228D01*
X148230Y288079D01*
X147748Y288801D01*
X147026Y289283D01*
X146175Y289452D01*
D02*
G37*
G36*
X158661Y288838D02*
X157810Y288669D01*
X157089Y288187D01*
X156607Y287465D01*
X156438Y286614D01*
X156607Y285763D01*
X157089Y285042D01*
X157810Y284560D01*
X158661Y284390D01*
X159512Y284560D01*
X160234Y285042D01*
X160716Y285763D01*
X160885Y286614D01*
X160716Y287465D01*
X160234Y288187D01*
X159512Y288669D01*
X158661Y288838D01*
D02*
G37*
G36*
X224803Y276226D02*
X223925Y276110D01*
X223108Y275771D01*
X222405Y275233D01*
X221866Y274530D01*
X221528Y273712D01*
X221412Y272835D01*
X221528Y271957D01*
X221866Y271139D01*
X222405Y270437D01*
X223108Y269898D01*
X223925Y269559D01*
X224803Y269443D01*
X225681Y269559D01*
X226499Y269898D01*
X227201Y270437D01*
X227740Y271139D01*
X228079Y271957D01*
X228194Y272835D01*
X228079Y273712D01*
X227740Y274530D01*
X227201Y275233D01*
X226499Y275771D01*
X225681Y276110D01*
X224803Y276226D01*
D02*
G37*
G36*
X216929D02*
X216051Y276110D01*
X215233Y275771D01*
X214531Y275233D01*
X213992Y274530D01*
X213653Y273712D01*
X213538Y272835D01*
X213653Y271957D01*
X213992Y271139D01*
X214531Y270437D01*
X215233Y269898D01*
X216051Y269559D01*
X216929Y269443D01*
X217807Y269559D01*
X218625Y269898D01*
X219327Y270437D01*
X219866Y271139D01*
X220205Y271957D01*
X220320Y272835D01*
X220205Y273712D01*
X219866Y274530D01*
X219327Y275233D01*
X218625Y275771D01*
X217807Y276110D01*
X216929Y276226D01*
D02*
G37*
G36*
X143307Y293701D02*
X115354D01*
Y265748D01*
X143307D01*
Y293701D01*
D02*
G37*
G36*
X159055Y269940D02*
X158204Y269771D01*
X157483Y269289D01*
X157001Y268567D01*
X156831Y267717D01*
X157001Y266865D01*
X157483Y266144D01*
X158204Y265662D01*
X159055Y265493D01*
X159906Y265662D01*
X160628Y266144D01*
X161110Y266865D01*
X161279Y267717D01*
X161110Y268567D01*
X160628Y269289D01*
X159906Y269771D01*
X159055Y269940D01*
D02*
G37*
G36*
X266535Y269547D02*
X265684Y269377D01*
X264963Y268895D01*
X264481Y268174D01*
X264312Y267323D01*
X264481Y266472D01*
X264963Y265750D01*
X265684Y265268D01*
X266535Y265099D01*
X267387Y265268D01*
X268108Y265750D01*
X268590Y266472D01*
X268759Y267323D01*
X268590Y268174D01*
X268108Y268895D01*
X267387Y269377D01*
X266535Y269547D01*
D02*
G37*
G36*
X186921Y267539D02*
X186070Y267370D01*
X185348Y266887D01*
X184866Y266166D01*
X184697Y265315D01*
X184866Y264464D01*
X185348Y263742D01*
X186070Y263260D01*
X186921Y263091D01*
X187772Y263260D01*
X188493Y263742D01*
X188976Y264464D01*
X189145Y265315D01*
X188976Y266166D01*
X188493Y266887D01*
X187772Y267370D01*
X186921Y267539D01*
D02*
G37*
G36*
X154724Y265610D02*
X153873Y265440D01*
X153152Y264958D01*
X152670Y264237D01*
X152501Y263386D01*
X152670Y262535D01*
X153152Y261813D01*
X153873Y261331D01*
X154724Y261162D01*
X155575Y261331D01*
X156297Y261813D01*
X156779Y262535D01*
X156948Y263386D01*
X156779Y264237D01*
X156297Y264958D01*
X155575Y265440D01*
X154724Y265610D01*
D02*
G37*
G36*
X104590Y264436D02*
X103739Y264267D01*
X103018Y263785D01*
X102536Y263064D01*
X102366Y262213D01*
X102536Y261362D01*
X103018Y260640D01*
X103739Y260158D01*
X104590Y259989D01*
X105441Y260158D01*
X106163Y260640D01*
X106645Y261362D01*
X106814Y262213D01*
X106645Y263064D01*
X106163Y263785D01*
X105441Y264267D01*
X104590Y264436D01*
D02*
G37*
G36*
X159843Y262854D02*
X158992Y262684D01*
X158270Y262202D01*
X157788Y261481D01*
X157619Y260630D01*
X157788Y259779D01*
X158270Y259057D01*
X158992Y258575D01*
X159843Y258406D01*
X160694Y258575D01*
X161415Y259057D01*
X161897Y259779D01*
X162066Y260630D01*
X161897Y261481D01*
X161415Y262202D01*
X160694Y262684D01*
X159843Y262854D01*
D02*
G37*
G36*
X133465Y264035D02*
X132614Y263866D01*
X131892Y263384D01*
X131410Y262662D01*
X131241Y261811D01*
X131410Y260960D01*
X131892Y260239D01*
X132555Y259796D01*
X132568Y259559D01*
X132502Y259276D01*
X131826Y259141D01*
X131105Y258659D01*
X130623Y257938D01*
X130453Y257087D01*
X130552Y256592D01*
X130447Y256458D01*
X130115Y256222D01*
X129393Y256366D01*
X128542Y256196D01*
X127821Y255714D01*
X127339Y254993D01*
X127170Y254142D01*
X127339Y253291D01*
X127821Y252569D01*
X128542Y252087D01*
X129393Y251918D01*
X130244Y252087D01*
X130966Y252569D01*
X131448Y253291D01*
X131617Y254142D01*
X131519Y254636D01*
X131623Y254770D01*
X131955Y255006D01*
X132677Y254863D01*
X133528Y255032D01*
X134250Y255514D01*
X134732Y256236D01*
X134901Y257087D01*
X134732Y257938D01*
X134250Y258659D01*
X133587Y259102D01*
X133574Y259338D01*
X133640Y259622D01*
X134316Y259756D01*
X135037Y260239D01*
X135519Y260960D01*
X135688Y261811D01*
X135519Y262662D01*
X135037Y263384D01*
X134316Y263866D01*
X133465Y264035D01*
D02*
G37*
G36*
X179421Y259539D02*
X178570Y259369D01*
X177848Y258887D01*
X177366Y258166D01*
X177197Y257315D01*
X177366Y256464D01*
X177848Y255743D01*
X178570Y255260D01*
X179421Y255091D01*
X180272Y255260D01*
X180993Y255743D01*
X181475Y256464D01*
X181645Y257315D01*
X181475Y258166D01*
X180993Y258887D01*
X180272Y259369D01*
X179421Y259539D01*
D02*
G37*
G36*
X209842Y254586D02*
X208992Y254417D01*
X208270Y253935D01*
X207788Y253213D01*
X207619Y252362D01*
X207788Y251511D01*
X208270Y250790D01*
X208992Y250308D01*
X209842Y250138D01*
X210694Y250308D01*
X211415Y250790D01*
X211897Y251511D01*
X212066Y252362D01*
X211897Y253213D01*
X211415Y253935D01*
X210694Y254417D01*
X209842Y254586D01*
D02*
G37*
G36*
X152362Y251633D02*
X151511Y251464D01*
X150790Y250982D01*
X150308Y250260D01*
X150138Y249410D01*
X150308Y248558D01*
X150790Y247837D01*
X151511Y247355D01*
X152362Y247186D01*
X153213Y247355D01*
X153935Y247837D01*
X154417Y248558D01*
X154586Y249410D01*
X154417Y250260D01*
X153935Y250982D01*
X153213Y251464D01*
X152362Y251633D01*
D02*
G37*
G36*
X200000Y244743D02*
X199149Y244574D01*
X198427Y244092D01*
X197945Y243371D01*
X197776Y242520D01*
X197945Y241669D01*
X198427Y240947D01*
X199149Y240465D01*
X200000Y240296D01*
X200851Y240465D01*
X201572Y240947D01*
X202055Y241669D01*
X202224Y242520D01*
X202055Y243371D01*
X201572Y244092D01*
X200851Y244574D01*
X200000Y244743D01*
D02*
G37*
G36*
X176378Y243956D02*
X175527Y243787D01*
X174805Y243305D01*
X174323Y242583D01*
X174154Y241732D01*
X174323Y240881D01*
X174805Y240160D01*
X175527Y239678D01*
X176378Y239508D01*
X177229Y239678D01*
X177950Y240160D01*
X178433Y240881D01*
X178602Y241732D01*
X178433Y242583D01*
X177950Y243305D01*
X177229Y243787D01*
X176378Y243956D01*
D02*
G37*
G36*
X169685Y248287D02*
X168834Y248117D01*
X168113Y247636D01*
X167631Y246914D01*
X167461Y246063D01*
X167631Y245212D01*
X168113Y244491D01*
X168834Y244008D01*
X169099Y243956D01*
Y243446D01*
X168834Y243393D01*
X168113Y242911D01*
X167631Y242190D01*
X167461Y241339D01*
X167631Y240488D01*
X168113Y239766D01*
X168834Y239284D01*
X169685Y239115D01*
X170536Y239284D01*
X171257Y239766D01*
X171740Y240488D01*
X171909Y241339D01*
X171740Y242190D01*
X171257Y242911D01*
X170536Y243393D01*
X170271Y243446D01*
Y243956D01*
X170536Y244008D01*
X171257Y244491D01*
X171740Y245212D01*
X171909Y246063D01*
X171740Y246914D01*
X171257Y247636D01*
X170536Y248117D01*
X169685Y248287D01*
D02*
G37*
G36*
X194882Y239232D02*
X194031Y239062D01*
X193309Y238580D01*
X192827Y237859D01*
X192658Y237008D01*
X192827Y236157D01*
X193309Y235435D01*
X194031Y234953D01*
X194882Y234784D01*
X195733Y234953D01*
X196454Y235435D01*
X196936Y236157D01*
X197106Y237008D01*
X196936Y237859D01*
X196454Y238580D01*
X195733Y239062D01*
X194882Y239232D01*
D02*
G37*
G36*
X256299Y238444D02*
X255448Y238275D01*
X254727Y237793D01*
X254245Y237071D01*
X254075Y236221D01*
X254245Y235369D01*
X254727Y234648D01*
X255448Y234166D01*
X256299Y233997D01*
X257150Y234166D01*
X257872Y234648D01*
X258354Y235369D01*
X258523Y236221D01*
X258354Y237071D01*
X257872Y237793D01*
X257150Y238275D01*
X256299Y238444D01*
D02*
G37*
G36*
X98032Y237277D02*
X96922Y237131D01*
X95889Y236703D01*
X95002Y236022D01*
X94321Y235135D01*
X93893Y234101D01*
X93747Y232992D01*
X93893Y231883D01*
X94321Y230850D01*
X95002Y229962D01*
X95889Y229281D01*
X96922Y228853D01*
X98032Y228707D01*
X99141Y228853D01*
X100174Y229281D01*
X101061Y229962D01*
X101742Y230850D01*
X102170Y231883D01*
X102316Y232992D01*
X102170Y234101D01*
X101742Y235135D01*
X101061Y236022D01*
X100174Y236703D01*
X99141Y237131D01*
X98032Y237277D01*
D02*
G37*
G36*
X276772Y235281D02*
X275894Y235165D01*
X275076Y234827D01*
X274374Y234288D01*
X273835Y233585D01*
X273496Y232768D01*
X273380Y231890D01*
X273496Y231012D01*
X273835Y230194D01*
X274374Y229492D01*
X275076Y228953D01*
X275894Y228614D01*
X276772Y228499D01*
X277649Y228614D01*
X278467Y228953D01*
X279170Y229492D01*
X279709Y230194D01*
X280047Y231012D01*
X280163Y231890D01*
X280047Y232768D01*
X279709Y233585D01*
X279170Y234288D01*
X278467Y234827D01*
X277649Y235165D01*
X276772Y235281D01*
D02*
G37*
G36*
X268504Y229389D02*
X267653Y229220D01*
X266931Y228738D01*
X266449Y228016D01*
X266280Y227165D01*
X266449Y226314D01*
X266931Y225593D01*
X267653Y225111D01*
X268504Y224941D01*
X269355Y225111D01*
X270076Y225593D01*
X270559Y226314D01*
X270728Y227165D01*
X270559Y228016D01*
X270076Y228738D01*
X269355Y229220D01*
X268504Y229389D01*
D02*
G37*
G36*
X131890Y225846D02*
X131039Y225677D01*
X130317Y225195D01*
X129835Y224473D01*
X129666Y223622D01*
X129835Y222771D01*
X130317Y222050D01*
X131039Y221568D01*
X131890Y221398D01*
X132741Y221568D01*
X133462Y222050D01*
X133944Y222771D01*
X134114Y223622D01*
X133944Y224473D01*
X133462Y225195D01*
X132741Y225677D01*
X131890Y225846D01*
D02*
G37*
G36*
X221654Y225059D02*
X220802Y224889D01*
X220081Y224407D01*
X219599Y223686D01*
X219430Y222835D01*
X219599Y221984D01*
X220081Y221262D01*
X220802Y220780D01*
X221654Y220611D01*
X222505Y220780D01*
X223226Y221262D01*
X223708Y221984D01*
X223877Y222835D01*
X223708Y223686D01*
X223226Y224407D01*
X222505Y224889D01*
X221654Y225059D01*
D02*
G37*
G36*
X197531Y224376D02*
X196680Y224206D01*
X195959Y223724D01*
X195476Y223003D01*
X195307Y222152D01*
X195476Y221301D01*
X195959Y220579D01*
X196680Y220097D01*
X197531Y219928D01*
X198382Y220097D01*
X199104Y220579D01*
X199586Y221301D01*
X199755Y222152D01*
X199586Y223003D01*
X199104Y223724D01*
X198382Y224206D01*
X197531Y224376D01*
D02*
G37*
G36*
X192413D02*
X191562Y224206D01*
X190840Y223724D01*
X190358Y223003D01*
X190189Y222152D01*
X190358Y221301D01*
X190840Y220579D01*
X191562Y220097D01*
X192413Y219928D01*
X193264Y220097D01*
X193985Y220579D01*
X194467Y221301D01*
X194637Y222152D01*
X194467Y223003D01*
X193985Y223724D01*
X193264Y224206D01*
X192413Y224376D01*
D02*
G37*
G36*
X149606Y222303D02*
X148755Y222133D01*
X148034Y221651D01*
X147552Y220930D01*
X147382Y220079D01*
X147552Y219228D01*
X148034Y218506D01*
X148755Y218024D01*
X149606Y217855D01*
X150457Y218024D01*
X151179Y218506D01*
X151661Y219228D01*
X151830Y220079D01*
X151661Y220930D01*
X151179Y221651D01*
X150457Y222133D01*
X149606Y222303D01*
D02*
G37*
G36*
X135433D02*
X134582Y222133D01*
X133861Y221651D01*
X133379Y220930D01*
X133209Y220079D01*
X133379Y219228D01*
X133861Y218506D01*
X134582Y218024D01*
X135433Y217855D01*
X136284Y218024D01*
X137006Y218506D01*
X137488Y219228D01*
X137657Y220079D01*
X137488Y220930D01*
X137006Y221651D01*
X136284Y222133D01*
X135433Y222303D01*
D02*
G37*
G36*
X197819Y218970D02*
X196967Y218801D01*
X196246Y218319D01*
X195764Y217597D01*
X195595Y216746D01*
X195764Y215895D01*
X196246Y215174D01*
X196967Y214692D01*
X197819Y214523D01*
X198670Y214692D01*
X199391Y215174D01*
X199873Y215895D01*
X200042Y216746D01*
X199873Y217597D01*
X199391Y218319D01*
X198670Y218801D01*
X197819Y218970D01*
D02*
G37*
G36*
X192434Y218696D02*
X191583Y218526D01*
X190861Y218044D01*
X190379Y217323D01*
X190210Y216472D01*
X190379Y215621D01*
X190861Y214899D01*
X191583Y214417D01*
X192434Y214248D01*
X193285Y214417D01*
X194006Y214899D01*
X194488Y215621D01*
X194658Y216472D01*
X194488Y217323D01*
X194006Y218044D01*
X193285Y218526D01*
X192434Y218696D01*
D02*
G37*
G36*
X174803Y217184D02*
X173952Y217015D01*
X173231Y216533D01*
X172749Y215812D01*
X172579Y214961D01*
X172749Y214110D01*
X173231Y213388D01*
X173952Y212906D01*
X174803Y212737D01*
X175654Y212906D01*
X176376Y213388D01*
X176858Y214110D01*
X177027Y214961D01*
X176858Y215812D01*
X176376Y216533D01*
X175654Y217015D01*
X174803Y217184D01*
D02*
G37*
G36*
X102279Y217240D02*
X93783D01*
Y208744D01*
X102279D01*
Y217240D01*
D02*
G37*
G36*
X214173Y209310D02*
X213322Y209141D01*
X212601Y208659D01*
X212119Y207938D01*
X211949Y207087D01*
X212119Y206236D01*
X212601Y205514D01*
X213322Y205032D01*
X214173Y204863D01*
X215024Y205032D01*
X215746Y205514D01*
X216228Y206236D01*
X216397Y207087D01*
X216228Y207938D01*
X215746Y208659D01*
X215024Y209141D01*
X214173Y209310D01*
D02*
G37*
G36*
X197638Y209073D02*
X196787Y208904D01*
X196065Y208422D01*
X195583Y207701D01*
X195414Y206850D01*
X195583Y205999D01*
X196065Y205277D01*
X196787Y204795D01*
X197638Y204626D01*
X198489Y204795D01*
X199210Y205277D01*
X199692Y205999D01*
X199862Y206850D01*
X199692Y207701D01*
X199210Y208422D01*
X198489Y208904D01*
X197638Y209073D01*
D02*
G37*
G36*
X179921Y207342D02*
X179070Y207173D01*
X178349Y206691D01*
X177867Y205969D01*
X177697Y205118D01*
X177867Y204267D01*
X178349Y203546D01*
X179070Y203064D01*
X179921Y202894D01*
X180772Y203064D01*
X181494Y203546D01*
X181976Y204267D01*
X182145Y205118D01*
X181976Y205969D01*
X181494Y206691D01*
X180772Y207173D01*
X179921Y207342D01*
D02*
G37*
G36*
X148031D02*
X147180Y207173D01*
X146459Y206691D01*
X145977Y205969D01*
X145808Y205118D01*
X145977Y204267D01*
X146459Y203546D01*
X147180Y203064D01*
X148031Y202894D01*
X148882Y203064D01*
X149604Y203546D01*
X150086Y204267D01*
X150255Y205118D01*
X150086Y205969D01*
X149604Y206691D01*
X148882Y207173D01*
X148031Y207342D01*
D02*
G37*
G36*
X105905Y190228D02*
X105054Y190059D01*
X104333Y189577D01*
X103851Y188856D01*
X103682Y188005D01*
X103851Y187154D01*
X104333Y186432D01*
X105054Y185950D01*
X105905Y185781D01*
X106756Y185950D01*
X107478Y186432D01*
X107960Y187154D01*
X108129Y188005D01*
X107960Y188856D01*
X107478Y189577D01*
X106756Y190059D01*
X105905Y190228D01*
D02*
G37*
G36*
X261417Y190019D02*
X260566Y189850D01*
X259845Y189368D01*
X259363Y188646D01*
X259193Y187795D01*
X259363Y186944D01*
X259845Y186223D01*
X260566Y185741D01*
X261417Y185572D01*
X262268Y185741D01*
X262990Y186223D01*
X263472Y186944D01*
X263641Y187795D01*
X263472Y188646D01*
X262990Y189368D01*
X262268Y189850D01*
X261417Y190019D01*
D02*
G37*
G36*
X209449Y189625D02*
X208598Y189456D01*
X207876Y188974D01*
X207394Y188253D01*
X207225Y187402D01*
X207394Y186550D01*
X207876Y185829D01*
X208598Y185347D01*
X209449Y185178D01*
X210300Y185347D01*
X211021Y185829D01*
X211503Y186550D01*
X211673Y187402D01*
X211503Y188253D01*
X211021Y188974D01*
X210300Y189456D01*
X209449Y189625D01*
D02*
G37*
G36*
X157087Y189416D02*
X156236Y189247D01*
X155514Y188765D01*
X155032Y188043D01*
X154863Y187192D01*
X155032Y186341D01*
X155514Y185620D01*
X156236Y185138D01*
X157087Y184968D01*
X157938Y185138D01*
X158659Y185620D01*
X159141Y186341D01*
X159310Y187192D01*
X159141Y188043D01*
X158659Y188765D01*
X157938Y189247D01*
X157087Y189416D01*
D02*
G37*
G36*
X80973Y187368D02*
X80122Y187198D01*
X79400Y186716D01*
X78918Y185995D01*
X78749Y185144D01*
X78918Y184293D01*
X79138Y183965D01*
X78870Y183465D01*
X78347D01*
Y169685D01*
X103937D01*
Y183465D01*
X83075D01*
X82808Y183965D01*
X83027Y184293D01*
X83197Y185144D01*
X83027Y185995D01*
X82545Y186716D01*
X81824Y187198D01*
X80973Y187368D01*
D02*
G37*
G36*
X236614Y186476D02*
X235763Y186307D01*
X235042Y185825D01*
X234560Y185103D01*
X234390Y184252D01*
X234526Y183571D01*
X234225Y183071D01*
X233858D01*
Y169291D01*
X259449D01*
Y183071D01*
X239004D01*
X238703Y183571D01*
X238838Y184252D01*
X238669Y185103D01*
X238187Y185825D01*
X237465Y186307D01*
X236614Y186476D01*
D02*
G37*
G36*
X184646D02*
X183795Y186307D01*
X183073Y185825D01*
X182591Y185103D01*
X182422Y184252D01*
X182591Y183401D01*
X182741Y183177D01*
X182473Y182677D01*
X182283D01*
Y168898D01*
X207874D01*
Y182677D01*
X186818D01*
X186551Y183177D01*
X186700Y183401D01*
X186870Y184252D01*
X186700Y185103D01*
X186218Y185825D01*
X185497Y186307D01*
X184646Y186476D01*
D02*
G37*
G36*
X132548Y186187D02*
X131697Y186017D01*
X130975Y185535D01*
X130493Y184814D01*
X130324Y183963D01*
X130493Y183112D01*
X130712Y182783D01*
X130445Y182283D01*
X129921D01*
Y168504D01*
X155512D01*
Y182283D01*
X134650D01*
X134383Y182783D01*
X134602Y183112D01*
X134772Y183963D01*
X134602Y184814D01*
X134120Y185535D01*
X133399Y186017D01*
X132548Y186187D01*
D02*
G37*
G36*
X115354Y162854D02*
X114503Y162685D01*
X113782Y162202D01*
X113300Y161481D01*
X113130Y160630D01*
X113300Y159779D01*
X113782Y159057D01*
X114503Y158575D01*
X115354Y158406D01*
X116205Y158575D01*
X116927Y159057D01*
X117409Y159779D01*
X117578Y160630D01*
X117409Y161481D01*
X116927Y162202D01*
X116205Y162685D01*
X115354Y162854D01*
D02*
G37*
G36*
X92913D02*
X92062Y162685D01*
X91341Y162202D01*
X90859Y161481D01*
X90690Y160630D01*
X90859Y159779D01*
X91341Y159057D01*
X92062Y158575D01*
X92913Y158406D01*
X93764Y158575D01*
X94486Y159057D01*
X94968Y159779D01*
X95137Y160630D01*
X94968Y161481D01*
X94486Y162202D01*
X93764Y162685D01*
X92913Y162854D01*
D02*
G37*
G36*
X87008Y162460D02*
X86157Y162291D01*
X85435Y161809D01*
X84953Y161087D01*
X84784Y160236D01*
X84953Y159385D01*
X85435Y158664D01*
X86157Y158182D01*
X87008Y158012D01*
X87859Y158182D01*
X88580Y158664D01*
X89062Y159385D01*
X89232Y160236D01*
X89062Y161087D01*
X88580Y161809D01*
X87859Y162291D01*
X87008Y162460D01*
D02*
G37*
G36*
X248425Y162460D02*
X247574Y162291D01*
X246853Y161809D01*
X246371Y161087D01*
X246201Y160236D01*
X246371Y159385D01*
X246853Y158664D01*
X247574Y158182D01*
X248425Y158012D01*
X249276Y158182D01*
X249998Y158664D01*
X250480Y159385D01*
X250649Y160236D01*
X250480Y161087D01*
X249998Y161809D01*
X249276Y162291D01*
X248425Y162460D01*
D02*
G37*
G36*
X242520Y162066D02*
X241669Y161897D01*
X240947Y161415D01*
X240465Y160694D01*
X240296Y159843D01*
X240465Y158992D01*
X240947Y158270D01*
X241669Y157788D01*
X242520Y157619D01*
X243371Y157788D01*
X244092Y158270D01*
X244574Y158992D01*
X244743Y159843D01*
X244574Y160694D01*
X244092Y161415D01*
X243371Y161897D01*
X242520Y162066D01*
D02*
G37*
G36*
X219291Y162066D02*
X218440Y161897D01*
X217719Y161415D01*
X217237Y160694D01*
X217068Y159843D01*
X217237Y158992D01*
X217719Y158270D01*
X218440Y157788D01*
X219291Y157619D01*
X220142Y157788D01*
X220864Y158270D01*
X221346Y158992D01*
X221515Y159843D01*
X221346Y160694D01*
X220864Y161415D01*
X220142Y161897D01*
X219291Y162066D01*
D02*
G37*
G36*
X196850D02*
X195999Y161897D01*
X195278Y161415D01*
X194796Y160694D01*
X194627Y159843D01*
X194796Y158992D01*
X195278Y158270D01*
X195999Y157788D01*
X196850Y157619D01*
X197701Y157788D01*
X198423Y158270D01*
X198905Y158992D01*
X199074Y159843D01*
X198905Y160694D01*
X198423Y161415D01*
X197701Y161897D01*
X196850Y162066D01*
D02*
G37*
G36*
X190945Y161673D02*
X190094Y161503D01*
X189372Y161021D01*
X188890Y160300D01*
X188721Y159449D01*
X188890Y158598D01*
X189372Y157876D01*
X190094Y157394D01*
X190945Y157225D01*
X191796Y157394D01*
X192517Y157876D01*
X192999Y158598D01*
X193169Y159449D01*
X192999Y160300D01*
X192517Y161021D01*
X191796Y161503D01*
X190945Y161673D01*
D02*
G37*
G36*
X166929Y161673D02*
X166078Y161503D01*
X165357Y161021D01*
X164875Y160300D01*
X164705Y159449D01*
X164875Y158598D01*
X165357Y157876D01*
X166078Y157394D01*
X166929Y157225D01*
X167780Y157394D01*
X168502Y157876D01*
X168984Y158598D01*
X169153Y159449D01*
X168984Y160300D01*
X168502Y161021D01*
X167780Y161503D01*
X166929Y161673D01*
D02*
G37*
G36*
X144488D02*
X143637Y161503D01*
X142916Y161021D01*
X142434Y160300D01*
X142264Y159449D01*
X142434Y158598D01*
X142916Y157876D01*
X143637Y157394D01*
X144488Y157225D01*
X145339Y157394D01*
X146061Y157876D01*
X146543Y158598D01*
X146712Y159449D01*
X146543Y160300D01*
X146061Y161021D01*
X145339Y161503D01*
X144488Y161673D01*
D02*
G37*
G36*
X138583Y161279D02*
X137732Y161110D01*
X137010Y160628D01*
X136528Y159906D01*
X136359Y159055D01*
X136528Y158204D01*
X137010Y157483D01*
X137732Y157001D01*
X138583Y156831D01*
X139434Y157001D01*
X140155Y157483D01*
X140637Y158204D01*
X140806Y159055D01*
X140637Y159906D01*
X140155Y160628D01*
X139434Y161110D01*
X138583Y161279D01*
D02*
G37*
G36*
X96457Y158129D02*
X95606Y157960D01*
X94884Y157478D01*
X94402Y156757D01*
X94233Y155905D01*
X94402Y155054D01*
X94884Y154333D01*
X95606Y153851D01*
X96457Y153682D01*
X97308Y153851D01*
X98029Y154333D01*
X98511Y155054D01*
X98681Y155905D01*
X98511Y156757D01*
X98029Y157478D01*
X97308Y157960D01*
X96457Y158129D01*
D02*
G37*
G36*
X251969Y157736D02*
X251117Y157566D01*
X250396Y157084D01*
X249914Y156363D01*
X249745Y155512D01*
X249914Y154661D01*
X250396Y153939D01*
X251117Y153457D01*
X251969Y153288D01*
X252819Y153457D01*
X253541Y153939D01*
X254023Y154661D01*
X254192Y155512D01*
X254023Y156363D01*
X253541Y157084D01*
X252819Y157566D01*
X251969Y157736D01*
D02*
G37*
G36*
X200394Y157342D02*
X199543Y157173D01*
X198821Y156691D01*
X198339Y155969D01*
X198170Y155118D01*
X198339Y154267D01*
X198821Y153546D01*
X199543Y153064D01*
X200394Y152894D01*
X201245Y153064D01*
X201966Y153546D01*
X202448Y154267D01*
X202618Y155118D01*
X202448Y155969D01*
X201966Y156691D01*
X201245Y157173D01*
X200394Y157342D01*
D02*
G37*
G36*
X148031Y156948D02*
X147180Y156779D01*
X146459Y156297D01*
X145977Y155575D01*
X145808Y154724D01*
X145977Y153873D01*
X146459Y153152D01*
X147180Y152670D01*
X148031Y152501D01*
X148882Y152670D01*
X149604Y153152D01*
X150086Y153873D01*
X150255Y154724D01*
X150086Y155575D01*
X149604Y156297D01*
X148882Y156779D01*
X148031Y156948D01*
D02*
G37*
G36*
X106398Y153996D02*
X105547Y153826D01*
X104825Y153344D01*
X104343Y152623D01*
X104174Y151772D01*
X104343Y150921D01*
X104825Y150199D01*
X105547Y149717D01*
X106398Y149548D01*
X107249Y149717D01*
X107970Y150199D01*
X108452Y150921D01*
X108622Y151772D01*
X108452Y152623D01*
X107970Y153344D01*
X107249Y153826D01*
X106398Y153996D01*
D02*
G37*
G36*
X68967Y154656D02*
X68116Y154487D01*
X67395Y154005D01*
X66913Y153283D01*
X66744Y152432D01*
X66913Y151581D01*
X67395Y150860D01*
X68116Y150378D01*
X68967Y150208D01*
X69819Y150378D01*
X70486Y150824D01*
X70608Y150848D01*
X71079Y150767D01*
X71459Y150199D01*
X72180Y149717D01*
X73032Y149548D01*
X73883Y149717D01*
X74604Y150199D01*
X75086Y150921D01*
X75255Y151772D01*
X75086Y152623D01*
X74604Y153344D01*
X73883Y153826D01*
X73032Y153996D01*
X72180Y153826D01*
X71513Y153380D01*
X71391Y153356D01*
X70919Y153437D01*
X70540Y154005D01*
X69819Y154487D01*
X68967Y154656D01*
D02*
G37*
G36*
X224016Y154980D02*
X223165Y154811D01*
X222443Y154328D01*
X221961Y153607D01*
X221792Y152756D01*
X221961Y151905D01*
X222443Y151183D01*
X223165Y150701D01*
X224016Y150532D01*
X224867Y150701D01*
X225588Y151183D01*
X225637Y151256D01*
X225904Y151215D01*
X226138Y151106D01*
X226292Y150330D01*
X226774Y149609D01*
X227495Y149127D01*
X228346Y148957D01*
X229198Y149127D01*
X229919Y149609D01*
X230401Y150330D01*
X230570Y151181D01*
X230401Y152032D01*
X229919Y152754D01*
X229198Y153236D01*
X228346Y153405D01*
X227495Y153236D01*
X226774Y152754D01*
X226726Y152681D01*
X226459Y152722D01*
X226225Y152831D01*
X226070Y153607D01*
X225588Y154328D01*
X224867Y154811D01*
X224016Y154980D01*
D02*
G37*
G36*
X172835Y154192D02*
X171984Y154023D01*
X171262Y153541D01*
X170780Y152820D01*
X170611Y151969D01*
X170780Y151118D01*
X171262Y150396D01*
X171984Y149914D01*
X172835Y149745D01*
X173686Y149914D01*
X174407Y150396D01*
X174493Y150525D01*
X174984Y150427D01*
X175021Y150239D01*
X175503Y149518D01*
X176225Y149036D01*
X177076Y148866D01*
X177927Y149036D01*
X178648Y149518D01*
X179130Y150239D01*
X179299Y151090D01*
X179130Y151941D01*
X178648Y152663D01*
X177927Y153145D01*
X177076Y153314D01*
X176225Y153145D01*
X175503Y152663D01*
X175417Y152534D01*
X174927Y152631D01*
X174889Y152820D01*
X174407Y153541D01*
X173686Y154023D01*
X172835Y154192D01*
D02*
G37*
G36*
X261614Y153208D02*
X260763Y153039D01*
X260042Y152557D01*
X259560Y151835D01*
X259390Y150984D01*
X259560Y150133D01*
X260042Y149412D01*
X260763Y148930D01*
X261614Y148760D01*
X262465Y148930D01*
X263187Y149412D01*
X263669Y150133D01*
X263838Y150984D01*
X263669Y151835D01*
X263187Y152557D01*
X262465Y153039D01*
X261614Y153208D01*
D02*
G37*
G36*
X210335Y153011D02*
X209484Y152842D01*
X208762Y152360D01*
X208280Y151638D01*
X208111Y150787D01*
X208280Y149936D01*
X208762Y149215D01*
X209484Y148733D01*
X210335Y148564D01*
X211186Y148733D01*
X211907Y149215D01*
X212389Y149936D01*
X212559Y150787D01*
X212389Y151638D01*
X211907Y152360D01*
X211186Y152842D01*
X210335Y153011D01*
D02*
G37*
G36*
X158079Y152920D02*
X157228Y152751D01*
X156506Y152269D01*
X156024Y151547D01*
X155855Y150696D01*
X156024Y149845D01*
X156506Y149124D01*
X157228Y148642D01*
X158079Y148472D01*
X158930Y148642D01*
X159651Y149124D01*
X160133Y149845D01*
X160302Y150696D01*
X160133Y151547D01*
X159651Y152269D01*
X158930Y152751D01*
X158079Y152920D01*
D02*
G37*
G36*
X120542Y154078D02*
X119691Y153909D01*
X118970Y153427D01*
X118488Y152705D01*
X118318Y151854D01*
X118488Y151003D01*
X118970Y150282D01*
X119691Y149800D01*
X120542Y149630D01*
X121393Y149800D01*
X121979Y150191D01*
X122517Y150052D01*
X122558Y149845D01*
X123040Y149124D01*
X123761Y148642D01*
X124612Y148472D01*
X125463Y148642D01*
X126185Y149124D01*
X126667Y149845D01*
X126836Y150696D01*
X126667Y151547D01*
X126185Y152269D01*
X125463Y152751D01*
X124612Y152920D01*
X123761Y152751D01*
X123175Y152359D01*
X122638Y152499D01*
X122597Y152705D01*
X122115Y153427D01*
X121393Y153909D01*
X120542Y154078D01*
D02*
G37*
G36*
X102362Y151181D02*
X76772D01*
Y137402D01*
X102362D01*
Y151181D01*
D02*
G37*
G36*
X257874Y150787D02*
X232283D01*
Y137008D01*
X257874D01*
Y150787D01*
D02*
G37*
G36*
X206299Y150394D02*
X180709D01*
Y136614D01*
X206299D01*
Y150394D01*
D02*
G37*
G36*
X153937Y150000D02*
X128347D01*
Y136221D01*
X153937D01*
Y150000D01*
D02*
G37*
G36*
X72047Y139625D02*
X71196Y139456D01*
X70475Y138974D01*
X69993Y138253D01*
X69823Y137402D01*
X69993Y136550D01*
X70475Y135829D01*
X71196Y135347D01*
X72047Y135178D01*
X72898Y135347D01*
X73620Y135829D01*
X74102Y136550D01*
X74271Y137402D01*
X74102Y138253D01*
X73620Y138974D01*
X72898Y139456D01*
X72047Y139625D01*
D02*
G37*
G36*
X227559Y139232D02*
X226708Y139062D01*
X225987Y138580D01*
X225504Y137859D01*
X225335Y137008D01*
X225504Y136157D01*
X225987Y135435D01*
X226708Y134953D01*
X227559Y134784D01*
X228410Y134953D01*
X229132Y135435D01*
X229614Y136157D01*
X229783Y137008D01*
X229614Y137859D01*
X229132Y138580D01*
X228410Y139062D01*
X227559Y139232D01*
D02*
G37*
G36*
X106693D02*
X105842Y139062D01*
X105120Y138580D01*
X104638Y137859D01*
X104469Y137008D01*
X104638Y136157D01*
X105120Y135435D01*
X105842Y134953D01*
X106693Y134784D01*
X107544Y134953D01*
X108265Y135435D01*
X108747Y136157D01*
X108917Y137008D01*
X108747Y137859D01*
X108265Y138580D01*
X107544Y139062D01*
X106693Y139232D01*
D02*
G37*
G36*
X175984Y138838D02*
X175133Y138669D01*
X174412Y138187D01*
X173930Y137465D01*
X173760Y136614D01*
X173930Y135763D01*
X174412Y135042D01*
X175133Y134560D01*
X175984Y134390D01*
X176835Y134560D01*
X177557Y135042D01*
X178039Y135763D01*
X178208Y136614D01*
X178039Y137465D01*
X177557Y138187D01*
X176835Y138669D01*
X175984Y138838D01*
D02*
G37*
G36*
X262205Y138641D02*
X261354Y138472D01*
X260632Y137990D01*
X260150Y137268D01*
X259981Y136417D01*
X260150Y135566D01*
X260632Y134845D01*
X261354Y134363D01*
X262205Y134194D01*
X263056Y134363D01*
X263777Y134845D01*
X264259Y135566D01*
X264428Y136417D01*
X264259Y137268D01*
X263777Y137990D01*
X263056Y138472D01*
X262205Y138641D01*
D02*
G37*
G36*
X124016Y138444D02*
X123165Y138275D01*
X122443Y137793D01*
X121961Y137072D01*
X121792Y136221D01*
X121961Y135369D01*
X122443Y134648D01*
X123165Y134166D01*
X124016Y133997D01*
X124867Y134166D01*
X125588Y134648D01*
X126070Y135369D01*
X126240Y136221D01*
X126070Y137072D01*
X125588Y137793D01*
X124867Y138275D01*
X124016Y138444D01*
D02*
G37*
G36*
X158563Y138051D02*
X157712Y137881D01*
X156991Y137399D01*
X156508Y136678D01*
X156339Y135827D01*
X156508Y134976D01*
X156991Y134254D01*
X157712Y133772D01*
X158563Y133603D01*
X159414Y133772D01*
X160135Y134254D01*
X160617Y134976D01*
X160787Y135827D01*
X160617Y136678D01*
X160135Y137399D01*
X159414Y137881D01*
X158563Y138051D01*
D02*
G37*
G36*
X210827Y137952D02*
X209976Y137783D01*
X209254Y137301D01*
X208772Y136579D01*
X208603Y135728D01*
X208772Y134877D01*
X209254Y134156D01*
X209976Y133674D01*
X210827Y133504D01*
X211678Y133674D01*
X212399Y134156D01*
X212881Y134877D01*
X213051Y135728D01*
X212881Y136579D01*
X212399Y137301D01*
X211678Y137783D01*
X210827Y137952D01*
D02*
G37*
G36*
X87795Y134507D02*
X86944Y134338D01*
X86223Y133856D01*
X85741Y133134D01*
X85571Y132283D01*
X85741Y131432D01*
X86223Y130711D01*
X86944Y130229D01*
X87795Y130060D01*
X88646Y130229D01*
X89368Y130711D01*
X89850Y131432D01*
X90019Y132283D01*
X89850Y133134D01*
X89368Y133856D01*
X88646Y134338D01*
X87795Y134507D01*
D02*
G37*
G36*
X243307Y134114D02*
X242456Y133944D01*
X241735Y133462D01*
X241252Y132741D01*
X241083Y131890D01*
X241252Y131039D01*
X241735Y130317D01*
X242456Y129835D01*
X243307Y129666D01*
X244158Y129835D01*
X244880Y130317D01*
X245362Y131039D01*
X245531Y131890D01*
X245362Y132741D01*
X244880Y133462D01*
X244158Y133944D01*
X243307Y134114D01*
D02*
G37*
G36*
X191732Y133720D02*
X190881Y133551D01*
X190160Y133069D01*
X189678Y132347D01*
X189508Y131496D01*
X189678Y130645D01*
X190160Y129924D01*
X190881Y129441D01*
X191732Y129272D01*
X192583Y129441D01*
X193305Y129924D01*
X193787Y130645D01*
X193956Y131496D01*
X193787Y132347D01*
X193305Y133069D01*
X192583Y133551D01*
X191732Y133720D01*
D02*
G37*
G36*
X139370Y133326D02*
X138519Y133157D01*
X137798Y132675D01*
X137315Y131953D01*
X137146Y131102D01*
X137315Y130251D01*
X137798Y129530D01*
X138519Y129048D01*
X139370Y128878D01*
X140221Y129048D01*
X140943Y129530D01*
X141425Y130251D01*
X141594Y131102D01*
X141425Y131953D01*
X140943Y132675D01*
X140221Y133157D01*
X139370Y133326D01*
D02*
G37*
G36*
X99764Y121923D02*
X98458Y121751D01*
X97242Y121247D01*
X96198Y120446D01*
X95396Y119402D01*
X94893Y118185D01*
X94721Y116880D01*
X94893Y115575D01*
X95396Y114358D01*
X96198Y113314D01*
X97242Y112512D01*
X98458Y112009D01*
X99764Y111837D01*
X101069Y112009D01*
X102285Y112512D01*
X103330Y113314D01*
X104131Y114358D01*
X104635Y115575D01*
X104807Y116880D01*
X104635Y118185D01*
X104131Y119402D01*
X103330Y120446D01*
X102285Y121247D01*
X101069Y121751D01*
X99764Y121923D01*
D02*
G37*
G36*
X79764D02*
X78458Y121751D01*
X77242Y121247D01*
X76198Y120446D01*
X75396Y119402D01*
X74892Y118185D01*
X74721Y116880D01*
X74892Y115575D01*
X75396Y114358D01*
X76198Y113314D01*
X77242Y112512D01*
X78458Y112009D01*
X79764Y111837D01*
X81069Y112009D01*
X82285Y112512D01*
X83330Y113314D01*
X84131Y114358D01*
X84635Y115575D01*
X84807Y116880D01*
X84635Y118185D01*
X84131Y119402D01*
X83330Y120446D01*
X82285Y121247D01*
X81069Y121751D01*
X79764Y121923D01*
D02*
G37*
G36*
X255276Y121529D02*
X253970Y121358D01*
X252754Y120854D01*
X251710Y120052D01*
X250908Y119008D01*
X250404Y117791D01*
X250233Y116486D01*
X250404Y115181D01*
X250908Y113965D01*
X251710Y112920D01*
X252754Y112119D01*
X253970Y111615D01*
X255276Y111443D01*
X256581Y111615D01*
X257797Y112119D01*
X258842Y112920D01*
X259643Y113965D01*
X260147Y115181D01*
X260319Y116486D01*
X260147Y117791D01*
X259643Y119008D01*
X258842Y120052D01*
X257797Y120854D01*
X256581Y121358D01*
X255276Y121529D01*
D02*
G37*
G36*
X235276D02*
X233970Y121358D01*
X232754Y120854D01*
X231710Y120052D01*
X230908Y119008D01*
X230404Y117791D01*
X230233Y116486D01*
X230404Y115181D01*
X230908Y113965D01*
X231710Y112920D01*
X232754Y112119D01*
X233970Y111615D01*
X235276Y111443D01*
X236581Y111615D01*
X237797Y112119D01*
X238842Y112920D01*
X239643Y113965D01*
X240147Y115181D01*
X240319Y116486D01*
X240147Y117791D01*
X239643Y119008D01*
X238842Y120052D01*
X237797Y120854D01*
X236581Y121358D01*
X235276Y121529D01*
D02*
G37*
G36*
X204095Y121136D02*
X202789Y120964D01*
X201573Y120460D01*
X200528Y119659D01*
X199727Y118614D01*
X199223Y117398D01*
X199051Y116093D01*
X199223Y114787D01*
X199727Y113571D01*
X200528Y112527D01*
X201573Y111725D01*
X202789Y111221D01*
X204095Y111049D01*
X205400Y111221D01*
X206616Y111725D01*
X207661Y112527D01*
X208462Y113571D01*
X208966Y114787D01*
X209138Y116093D01*
X208966Y117398D01*
X208462Y118614D01*
X207661Y119659D01*
X206616Y120460D01*
X205400Y120964D01*
X204095Y121136D01*
D02*
G37*
G36*
X184095D02*
X182789Y120964D01*
X181573Y120460D01*
X180528Y119659D01*
X179727Y118614D01*
X179223Y117398D01*
X179051Y116093D01*
X179223Y114787D01*
X179727Y113571D01*
X180528Y112527D01*
X181573Y111725D01*
X182789Y111221D01*
X184095Y111049D01*
X185400Y111221D01*
X186616Y111725D01*
X187661Y112527D01*
X188462Y113571D01*
X188966Y114787D01*
X189138Y116093D01*
X188966Y117398D01*
X188462Y118614D01*
X187661Y119659D01*
X186616Y120460D01*
X185400Y120964D01*
X184095Y121136D01*
D02*
G37*
G36*
X150945Y120742D02*
X149640Y120570D01*
X148423Y120066D01*
X147379Y119265D01*
X146577Y118220D01*
X146074Y117004D01*
X145902Y115699D01*
X146074Y114394D01*
X146577Y113177D01*
X147379Y112133D01*
X148423Y111331D01*
X149640Y110828D01*
X150945Y110656D01*
X152250Y110828D01*
X153466Y111331D01*
X154511Y112133D01*
X155312Y113177D01*
X155816Y114394D01*
X155988Y115699D01*
X155816Y117004D01*
X155312Y118220D01*
X154511Y119265D01*
X153466Y120066D01*
X152250Y120570D01*
X150945Y120742D01*
D02*
G37*
G36*
X130945D02*
X129640Y120570D01*
X128423Y120066D01*
X127379Y119265D01*
X126577Y118220D01*
X126074Y117004D01*
X125902Y115699D01*
X126074Y114394D01*
X126577Y113177D01*
X127379Y112133D01*
X128423Y111331D01*
X129640Y110828D01*
X130945Y110656D01*
X132250Y110828D01*
X133466Y111331D01*
X134511Y112133D01*
X135312Y113177D01*
X135816Y114394D01*
X135988Y115699D01*
X135816Y117004D01*
X135312Y118220D01*
X134511Y119265D01*
X133466Y120066D01*
X132250Y120570D01*
X130945Y120742D01*
D02*
G37*
G36*
X89764Y111923D02*
X88459Y111751D01*
X87242Y111247D01*
X86198Y110446D01*
X85396Y109402D01*
X84892Y108185D01*
X84721Y106880D01*
X84892Y105575D01*
X85396Y104358D01*
X86198Y103314D01*
X87242Y102512D01*
X88459Y102009D01*
X89764Y101837D01*
X91069Y102009D01*
X92285Y102512D01*
X93330Y103314D01*
X94131Y104358D01*
X94635Y105575D01*
X94807Y106880D01*
X94635Y108185D01*
X94131Y109402D01*
X93330Y110446D01*
X92285Y111247D01*
X91069Y111751D01*
X89764Y111923D01*
D02*
G37*
G36*
X245276Y111529D02*
X243970Y111357D01*
X242754Y110854D01*
X241709Y110052D01*
X240908Y109008D01*
X240404Y107791D01*
X240232Y106486D01*
X240404Y105181D01*
X240908Y103965D01*
X241709Y102920D01*
X242754Y102119D01*
X243970Y101615D01*
X245276Y101443D01*
X246581Y101615D01*
X247797Y102119D01*
X248842Y102920D01*
X249643Y103965D01*
X250147Y105181D01*
X250319Y106486D01*
X250147Y107791D01*
X249643Y109008D01*
X248842Y110052D01*
X247797Y110854D01*
X246581Y111357D01*
X245276Y111529D01*
D02*
G37*
G36*
X194095Y111136D02*
X192789Y110964D01*
X191573Y110460D01*
X190528Y109659D01*
X189727Y108614D01*
X189223Y107398D01*
X189051Y106093D01*
X189223Y104787D01*
X189727Y103571D01*
X190528Y102526D01*
X191573Y101725D01*
X192789Y101221D01*
X194095Y101049D01*
X195400Y101221D01*
X196616Y101725D01*
X197661Y102526D01*
X198462Y103571D01*
X198966Y104787D01*
X199138Y106093D01*
X198966Y107398D01*
X198462Y108614D01*
X197661Y109659D01*
X196616Y110460D01*
X195400Y110964D01*
X194095Y111136D01*
D02*
G37*
G36*
X140945Y110742D02*
X139640Y110570D01*
X138423Y110066D01*
X137379Y109265D01*
X136577Y108220D01*
X136074Y107004D01*
X135902Y105699D01*
X136074Y104394D01*
X136577Y103177D01*
X137379Y102133D01*
X138423Y101331D01*
X139640Y100828D01*
X140945Y100656D01*
X142250Y100828D01*
X143466Y101331D01*
X144511Y102133D01*
X145312Y103177D01*
X145816Y104394D01*
X145988Y105699D01*
X145816Y107004D01*
X145312Y108220D01*
X144511Y109265D01*
X143466Y110066D01*
X142250Y110570D01*
X140945Y110742D01*
D02*
G37*
G36*
X99764Y101923D02*
X98458Y101751D01*
X97242Y101247D01*
X96198Y100446D01*
X95396Y99401D01*
X94893Y98185D01*
X94721Y96880D01*
X94893Y95575D01*
X95396Y94358D01*
X96198Y93314D01*
X97242Y92513D01*
X98458Y92009D01*
X99764Y91837D01*
X101069Y92009D01*
X102285Y92513D01*
X103330Y93314D01*
X104131Y94358D01*
X104635Y95575D01*
X104807Y96880D01*
X104635Y98185D01*
X104131Y99401D01*
X103330Y100446D01*
X102285Y101247D01*
X101069Y101751D01*
X99764Y101923D01*
D02*
G37*
G36*
X79764D02*
X78458Y101751D01*
X77242Y101247D01*
X76198Y100446D01*
X75396Y99401D01*
X74892Y98185D01*
X74721Y96880D01*
X74892Y95575D01*
X75396Y94358D01*
X76198Y93314D01*
X77242Y92513D01*
X78458Y92009D01*
X79764Y91837D01*
X81069Y92009D01*
X82285Y92513D01*
X83330Y93314D01*
X84131Y94358D01*
X84635Y95575D01*
X84807Y96880D01*
X84635Y98185D01*
X84131Y99401D01*
X83330Y100446D01*
X82285Y101247D01*
X81069Y101751D01*
X79764Y101923D01*
D02*
G37*
G36*
X255276Y101529D02*
X253970Y101357D01*
X252754Y100854D01*
X251710Y100052D01*
X250908Y99008D01*
X250404Y97791D01*
X250233Y96486D01*
X250404Y95181D01*
X250908Y93965D01*
X251710Y92920D01*
X252754Y92119D01*
X253970Y91615D01*
X255276Y91443D01*
X256581Y91615D01*
X257797Y92119D01*
X258842Y92920D01*
X259643Y93965D01*
X260147Y95181D01*
X260319Y96486D01*
X260147Y97791D01*
X259643Y99008D01*
X258842Y100052D01*
X257797Y100854D01*
X256581Y101357D01*
X255276Y101529D01*
D02*
G37*
G36*
X235276D02*
X233970Y101357D01*
X232754Y100854D01*
X231710Y100052D01*
X230908Y99008D01*
X230404Y97791D01*
X230233Y96486D01*
X230404Y95181D01*
X230908Y93965D01*
X231710Y92920D01*
X232754Y92119D01*
X233970Y91615D01*
X235276Y91443D01*
X236581Y91615D01*
X237797Y92119D01*
X238842Y92920D01*
X239643Y93965D01*
X240147Y95181D01*
X240319Y96486D01*
X240147Y97791D01*
X239643Y99008D01*
X238842Y100052D01*
X237797Y100854D01*
X236581Y101357D01*
X235276Y101529D01*
D02*
G37*
G36*
X204095Y101136D02*
X202789Y100964D01*
X201573Y100460D01*
X200528Y99659D01*
X199727Y98614D01*
X199223Y97398D01*
X199051Y96092D01*
X199223Y94787D01*
X199727Y93571D01*
X200528Y92527D01*
X201573Y91725D01*
X202789Y91221D01*
X204095Y91049D01*
X205400Y91221D01*
X206616Y91725D01*
X207661Y92527D01*
X208462Y93571D01*
X208966Y94787D01*
X209138Y96092D01*
X208966Y97398D01*
X208462Y98614D01*
X207661Y99659D01*
X206616Y100460D01*
X205400Y100964D01*
X204095Y101136D01*
D02*
G37*
G36*
X184095D02*
X182789Y100964D01*
X181573Y100460D01*
X180528Y99659D01*
X179727Y98614D01*
X179223Y97398D01*
X179051Y96092D01*
X179223Y94787D01*
X179727Y93571D01*
X180528Y92527D01*
X181573Y91725D01*
X182789Y91221D01*
X184095Y91049D01*
X185400Y91221D01*
X186616Y91725D01*
X187661Y92527D01*
X188462Y93571D01*
X188966Y94787D01*
X189138Y96092D01*
X188966Y97398D01*
X188462Y98614D01*
X187661Y99659D01*
X186616Y100460D01*
X185400Y100964D01*
X184095Y101136D01*
D02*
G37*
G36*
X150945Y100742D02*
X149640Y100570D01*
X148423Y100066D01*
X147379Y99265D01*
X146577Y98220D01*
X146074Y97004D01*
X145902Y95699D01*
X146074Y94394D01*
X146577Y93177D01*
X147379Y92133D01*
X148423Y91331D01*
X149640Y90828D01*
X150945Y90656D01*
X152250Y90828D01*
X153466Y91331D01*
X154511Y92133D01*
X155312Y93177D01*
X155816Y94394D01*
X155988Y95699D01*
X155816Y97004D01*
X155312Y98220D01*
X154511Y99265D01*
X153466Y100066D01*
X152250Y100570D01*
X150945Y100742D01*
D02*
G37*
G36*
X130945D02*
X129640Y100570D01*
X128423Y100066D01*
X127379Y99265D01*
X126577Y98220D01*
X126074Y97004D01*
X125902Y95699D01*
X126074Y94394D01*
X126577Y93177D01*
X127379Y92133D01*
X128423Y91331D01*
X129640Y90828D01*
X130945Y90656D01*
X132250Y90828D01*
X133466Y91331D01*
X134511Y92133D01*
X135312Y93177D01*
X135816Y94394D01*
X135988Y95699D01*
X135816Y97004D01*
X135312Y98220D01*
X134511Y99265D01*
X133466Y100066D01*
X132250Y100570D01*
X130945Y100742D01*
D02*
G37*
%LPD*%
D14*
X256327Y314173D02*
X264173D01*
X230500Y340000D02*
X256327Y314173D01*
X88039Y340000D02*
X230500D01*
X82331Y345709D02*
X88039Y340000D01*
X92331Y345709D02*
X96784Y350161D01*
X244175D01*
X247878Y346459D01*
Y340469D02*
Y346459D01*
Y340469D02*
X264173Y324173D01*
X255512Y304331D02*
X255669Y304173D01*
D72*
X255512Y304331D02*
Y309488D01*
X229000Y336000D02*
X255512Y309488D01*
X82039Y336000D02*
X229000D01*
X72331Y345709D02*
X82039Y336000D01*
X255512Y275590D02*
Y304331D01*
X255669Y304173D02*
X264173D01*
D74*
D03*
Y324173D02*
D03*
Y314173D02*
D03*
D76*
X72331Y345709D02*
D03*
D77*
X82331D02*
D03*
X92331D02*
D03*
D81*
X83278Y155918D02*
D03*
X134853Y154737D02*
D03*
X187215Y155131D02*
D03*
X238790Y155525D02*
D03*
X155512Y267323D02*
D03*
X151906Y285228D02*
D03*
X146850Y241339D02*
D03*
X244000Y276000D02*
D03*
X190945Y321260D02*
D03*
X194702Y187628D02*
D03*
X246277Y188022D02*
D03*
X142340Y187234D02*
D03*
X90765Y188415D02*
D03*
X154724Y244052D02*
D03*
X222835Y253543D02*
D03*
X227953D02*
D03*
X228240Y248138D02*
D03*
X222855Y247863D02*
D03*
X142582Y304535D02*
D03*
X255512Y275590D02*
D03*
X105091Y291937D02*
D03*
X104197Y267921D02*
D03*
M02*
